<svg xmlns="http://www.w3.org/2000/svg" width="254" height="417.031" viewBox="0 0 254 417.031">
    <defs>
        <clipPath id="clip-path">
            <path id="사각형_241" fill="#fff" stroke="#707070" d="M0 0H254V417.031H0z" transform="translate(59.972 60.69)"/>
        </clipPath>
        <clipPath id="clip-path-2">
            <path id="패스_12270" d="M203.831 269.271v-.828c0-4.2-3.163-9.033-11.53-9.033 0 0-9.747-.082-9.747 8.077-.011 1.318.724 1.784 2.5 1.784z" class="cls-2" transform="translate(-182.554 -259.41)"/>
        </clipPath>
        <clipPath id="clip-path-3">
            <path id="패스_12274" d="M293.683 269.271v-.828c0-4.2 3.163-9.033 11.53-9.033 0 0 9.747-.082 9.747 8.077.011 1.318-.724 1.784-2.5 1.784z" class="cls-2" transform="translate(-293.683 -259.41)"/>
        </clipPath>
        <style>
            .cls-18{fill:#fff}.cls-2{fill:none}.cls-4{fill:#ffd6a6}.cls-5{fill:#ffb980}.cls-6{fill:#ffdfba}.cls-7{fill:#e9f5ff}.cls-8{fill:#c7cfd1}.cls-12{fill:#e55d2e}.cls-13{fill:#4d3b35}.cls-16{fill:#ffbc83}.cls-17{fill:#cc7229}.cls-20{fill:#8e5517}.cls-21{fill:#1e3310}
        </style>
    </defs>
    <g id="img-bookgirl" clip-path="url(#clip-path)" transform="translate(-59.972 -60.69)">
        <path id="패스_12237" d="M645.154 379.777s2.869-7.928 2.428-10.614c-.649-3.949 5.827-18.647 5.827-18.647l16.008-3.689 6.786 2.565s5.888 8.063 6.654 13.005-5.87 8.938-5.87 8.938l-14.609 10.221-.813 7.184z" class="cls-4" transform="translate(-376.423 -184.06)"/>
        <path id="패스_12238" d="M717.981 318.465l13.682-11.431s3.141-2.213 4.92-.768-.7 3.8-.7 3.8l-13.623 13.747z" class="cls-4" transform="translate(-423.27 -157.654)"/>
        <path id="패스_12239" d="M738.637 315.969a.719.719 0 0 0 0-.876c-.359-.38-.989.094-.989.094s-7.377 7.5-9.2 9.026-5.788.213-5.788.213l-.4 1.518.154.523 2.6 3.245z" class="cls-5" transform="translate(-426.028 -163.552)"/>
        <path id="패스_12240" d="M668.294 343.977s.2-2.288 5.541-4.108 9.209-4.766 13.09-2.208a35.912 35.912 0 0 0 3.606 2.146 1.116 1.116 0 0 1 .282 1.8 4.993 4.993 0 0 1-4.743 1.469 4.825 4.825 0 0 0-3.856.865l-3.2 2.339a3.748 3.748 0 0 0-1.536 3.026z" class="cls-4" transform="translate(-391.308 -177.521)"/>
        <path id="패스_12241" d="M699.668 346.908c.215 1.543-4.628.152-6.3.344-2.478.216-4.928 2.464-8.527 3.923a9.67 9.67 0 0 0-2.435 1.482 2.058 2.058 0 0 0-.178 2.885s6.946 12.331 12.168 12.331 9.576-5.218 10.123-4.061c.56-8.417-17.213-10.542-16.293-11.214l3.051-2.229a4.737 4.737 0 0 1 3.744-.808 4.565 4.565 0 0 0 3.041-.387 5.529 5.529 0 0 0 1.4-1.026 1.067 1.067 0 0 0 .206-1.24z" class="cls-5" transform="translate(-399.947 -184.112)"/>
        <path id="패스_12242" d="M702.664 369.835a39.183 39.183 0 0 0 4.847-4.282l2.92-.525 1.658 4.2a9.147 9.147 0 0 0 1.016-7.431c-1.083-3.678-2.949-8.759-7.062-10.314-4.646-1.756-10.373 2.509-12.853 4.437a2.974 2.974 0 0 0-.869 3.617l6.125 8.732c.896 1.41 2.76 2.379 4.218 1.566z" class="cls-4" transform="translate(-406.582 -186.789)"/>
        <path id="패스_12243" d="M699.755 394.4a8.978 8.978 0 0 0 1.309-3.645c-1.179 3.848-2.967-.557-2.967-.557s-3.867 2.935-1.723 2.421 0 3.858 0 3.858-13.374 7.63-15.6 10.287-6 .413-6 .413l-1.906 5.9 6.526 3.564s.76-6.95 1.782-7.212c2.476-.633 13.64-10.193 13.64-10.193a16.222 16.222 0 0 0 4.939-4.836z" class="cls-5" transform="translate(-394.249 -211.957)"/>
        <path id="패스_12244" d="M235.417 400.99c-10.2-5.212-9.063-17.436-9.063-17.436l-15.654 2.991-15.653-2.991s1.138 12.224-9.064 17.436c-10.81 5.523-6.154 19.229-6.154 19.229L210.7 435.74l30.871-15.521s4.656-13.706-6.154-19.229z" class="cls-6" transform="translate(-76.458 -207.685)"/>
        <path id="패스_12245" d="M353.136 431.676s24.227 3.392 31.451 10.1c10.247 9.519 39.485 40.608 39.485 40.608s23.813-43.684 28.205-50.2c1.331-1.476 22.472 5.309 26.411 11.594.125 4.412-33.815 63.143-41.117 70.445s-13.481 7.115-17.886 5.674c-11.118-3.638-57.83-50.977-57.83-50.977z" class="cls-7" transform="translate(-188.58 -238.64)"/>
        <path id="패스_12246" d="M213.811 481.885c-1.309 14.75-3 50.781-3 50.781l-6.216 9.141s-26.433 4.107-50.4 4.107c-37.161 0-39.4-5.581-39.4-5.581l-17.88-61.968 4.039-34.039 30.336-10.779 26.594 22.119 24.84-23.235 29.234 9.875s4.778 6.603 1.853 39.579z" class="cls-7" transform="translate(-23.764 -239.125)"/>
        <path id="패스_12247" d="M204.658 592.552c-28.228-.072-17.629-2.288 2.555-8.24 10.262-3.026 4.52-22.42-9.454-17.992-42.985 13.622-61.3 9.689-64.5-22.3-.547-5.475-.377-20.385-2.646-21.946s-2.268 3.539-2.268 3.539l4.511 62.117 2.15 10.077s2.159 5.259 37.3 5.571c1.178-.005 5.489-.072 11.223-.169a405.015 405.015 0 0 0 41.28-3.927l5.823-8.564a250.659 250.659 0 0 1-25.974 1.834z" class="cls-8" transform="translate(-43.982 -296.598)"/>
        <path id="패스_12248" fill="#2f3133" d="M219.594 913.846H114.257s-7.879-103.962-4.347-138.386c.951-9.268 14.962-36.686 14.962-36.686h87.291s13.53 27.768 14.314 37.136c2.879 34.361-6.883 137.936-6.883 137.936z" transform="translate(-31.537 -436.183)"/>
        <path id="패스_12249" fill="#232526" d="M124.113 829.109c-5.436-47.58 1.8-58.949 1.8-58.949l66.045-31.386h-67.086s-3.79 8.27-5.638 11.386c-5.248 8.85-9.112 23.789-9.112 23.789-4.062 34.368 4.2 139.522 4.134 139.9h20.031l.7-.1s-5.438-37.061-10.874-84.64z" transform="translate(-31.537 -436.182)"/>
        <path id="패스_12250" d="M305.312 663.627c-2.631 1.533-16.222 14.482-16.222 14.482l.651 16.713s9.579-4.251 13.01-4.63c4.633-.513 15.056-2.107 18.133-4.342 1.865-1.355 4.169-5.277 5.007-7.741 1.406-4.135.608-17.418.608-17.418s-.482-2.394-6.082-.594l-6.735 3.32s-6.561-.844-8.37.21z" class="cls-4" transform="translate(-147.382 -385.142)"/>
        <path id="패스_12251" d="M342.933 663.4a63.29 63.29 0 0 0 8.28-3.946c3.154-1.951 2.838-4.954 1.548-5.644-1.81-.968-3.541.558-4.63 1.026-1.8.772-5.846.827-7.675 1.521-1.6.606-2.737 1.53-5.893 3.453" class="cls-4" transform="translate(-176.633 -381.328)"/>
        <path id="패스_12252" d="M353.513 666.4a63.152 63.152 0 0 0 8.276-3.944c2.1-1.3 2.66-3.06 2.422-4.3-.359.786-2.3 3-12.679 6.35a.841.841 0 0 0-.473.365.39.39 0 0 0 .183.557l2.26.97z" class="cls-5" transform="translate(-187.209 -384.324)"/>
        <path id="패스_12253" d="M108.649 435.9s-32.267 4.667-41.732 15.552c-11.946 13.739-5.444 94.253-2.688 99.754s9 18.455 44.55 9.164 43.893-8.41 45.628-10.112c1.959-1.921.86-27.388-5.8-26.337-14.71 2.321-58.9 10.644-58.9 10.644s-.143-20.881-5.277-63.476" class="cls-7" transform="translate(0 -241.357)"/>
        <path id="패스_12254" d="M103.187 711.78s-13.066 2.411-16.8 7.279-6.949.839-4.493-2.015 10.586-6.926 21.293-5.264z" class="cls-8" transform="translate(-13.547 -418.571)"/>
        <path id="패스_12255" d="M551.751 573.08s.541 10.682-.173 15.96 6.537 3.218 5.337-1.5a74.93 74.93 0 0 0-5.164-14.46z" class="cls-8" transform="translate(-316.198 -329.599)"/>
        <path id="패스_12256" fill="#f7c797" d="M255.083 389.778a21.254 21.254 0 0 1-.572-6.224l-15.653 2.991-15.658-2.991a21.305 21.305 0 0 1-.6 6.334c1.61 1.33 5.911 3.671 16.252 3.671 10.292 0 14.601-2.399 16.231-3.781z" transform="translate(-104.615 -207.685)"/>
        <path id="패스_12258" d="M709.126 349.95c1.266-.747 1.912-.575 3.285-.3a4.792 4.792 0 0 0 3.192-.406 5.806 5.806 0 0 0 1.474-1.077 1.12 1.12 0 0 0 .21-1.3c.226 1.62-4.858.159-6.613.361z" class="cls-5" transform="translate(-417.574 -184.087)"/>
        <path id="패스_12259" d="M423.776 532.446s5.361-19.944 1.53-27.8c-.642-1.316-3.074-1.565-2.388.742 2.341 7.873.858 27.058.858 27.058z" class="cls-8" transform="translate(-233.391 -284.941)"/>
        <path id="패스_12260" d="M112.981 140.561a38.893 38.893 0 0 0 24.044 35.96l-.071.143v2.676c0 8.99-6.875 15.1-16.267 16.232-2.513.3-16.1 1.355-23.459-5.728-4.054-3.9 1.821-9.872-.371-13.179-17.909-33.392-11.416-84.727 19.656-105.74 19.8-13.378 51.014-13.342 70.742 0 31.108 21.012 37.565 72.347 19.656 105.738-3.914 7.887 6.543 7.565 1.389 13.116 0 0-11.759 8.921-31.962 4.365-6.042-1.363-9.525-8.205-9.525-14.8l-.071-2.818a38.893 38.893 0 0 0 24.044-35.96v-18.841a3.159 3.159 0 0 0-2.961-3.139c-6.35-.357-11.665-4.317-13.628-11.523a3.124 3.124 0 0 0-4.78-1.748 81.466 81.466 0 0 1-53.047 13.556 3.149 3.149 0 0 0-3.425 3.139z" class="cls-13" transform="translate(-17.391 -.138)"/>
        <path id="패스_12261" d="M234.6 197.7a3.133 3.133 0 0 1 2.961 3.139v18.836a38.893 38.893 0 0 1-24.044 35.96c-25.507 10.6-53.8-8.241-53.8-35.96v-18.548a3.15 3.15 0 0 1 3.425-3.139 81.52 81.52 0 0 0 53.047-13.556 3.142 3.142 0 0 1 4.78 1.748c1.961 7.17 7.276 11.166 13.631 11.52z" class="cls-6" transform="translate(-64.161 -79.255)"/>
        <path id="패스_12262" fill="#ffe5cc" d="M191.28 271.043c5.886 3.924 1.391 13.021-5.28 10.667a38.666 38.666 0 0 1-26.185-36.744v-18.551a3.15 3.15 0 0 1 3.425-3.139c1.5.143 3.175.25 4.959.285a5.987 5.987 0 0 1 5.779 5.993v9.1a38.777 38.777 0 0 0 17.3 32.392z" transform="translate(-64.225 -104.578)"/>
        <path id="패스_12263" fill="#59453e" d="M157.133 60.905c7.349.535 7.492 11.273.178 11.951-10.631.963-20.834 4.245-28.932 9.739-27.469 18.515-36 60.9-24.687 94a2.751 2.751 0 0 1-1.177 3.246l-.285.178a2.766 2.766 0 0 1-3.853-.963c-25.685-43.38-8.383-123.04 58.755-118.153z" transform="translate(-17.414)"/>
        <path id="패스_12264" d="M255.3 328.332c-.908 0-1.619-.411-1.521-.883.294-1.412 1.38-4.023 5.393-4.023s5.1 2.611 5.393 4.023c.1.473-.613.883-1.521.883z" class="cls-16" transform="translate(-124.664 -169.006)"/>
        <path id="패스_12265" d="M250.668 269.6a.892.892 0 0 1-.367-1.705 15.289 15.289 0 0 1 6.3-1.419 14.469 14.469 0 0 1 6.323 1.428.892.892 0 0 1-.773 1.607 12.7 12.7 0 0 0-5.549-1.252 13.524 13.524 0 0 0-5.569 1.261.891.891 0 0 1-.365.08z" class="cls-17" transform="translate(-122.093 -132.37)"/>
        <path id="사각형_239" d="M0 0H5.679V1.784H0z" class="cls-17" transform="translate(167.752 135.413)"/>
        <path id="패스_12266" d="M299.305 271.589a13.831 13.831 0 0 0 4.976-.986 12.867 12.867 0 0 0 4.213-2.769 12.934 12.934 0 0 0 3.895-8.889 9.949 9.949 0 0 0-.88-4.618 6.817 6.817 0 0 0-3-3.111 12.73 12.73 0 0 0-4.368-1.378 35.091 35.091 0 0 0-9.674 0 12.717 12.717 0 0 0-4.372 1.374 6.838 6.838 0 0 0-3 3.116 9.964 9.964 0 0 0-.878 4.622 12.732 12.732 0 0 0 1.068 4.786 13.458 13.458 0 0 0 1.205 2.186 13.281 13.281 0 0 0 5.841 4.685 13.823 13.823 0 0 0 4.974.982zm0 .178a13.957 13.957 0 0 1-13.927-12.751 11.4 11.4 0 0 1 .618-5.124 8.117 8.117 0 0 1 1.327-2.244 8.675 8.675 0 0 1 1.976-1.7 13.838 13.838 0 0 1 4.856-1.786 30.362 30.362 0 0 1 10.3 0 13.828 13.828 0 0 1 4.855 1.786 8.677 8.677 0 0 1 1.976 1.7 8.113 8.113 0 0 1 1.327 2.245 11.4 11.4 0 0 1 .618 5.124 13.954 13.954 0 0 1-13.928 12.751z" class="cls-17" transform="translate(-144.96 -120.308)"/>
        <path id="패스_12267" d="M188.105 271.589a13.818 13.818 0 0 0 4.975-.986 12.865 12.865 0 0 0 4.213-2.768 12.935 12.935 0 0 0 3.9-8.887 9.953 9.953 0 0 0-.879-4.618 6.819 6.819 0 0 0-3-3.112 12.713 12.713 0 0 0-4.366-1.379 35.1 35.1 0 0 0-9.673-.005 12.745 12.745 0 0 0-4.372 1.372 6.834 6.834 0 0 0-3.005 3.114 9.948 9.948 0 0 0-.88 4.62 12.694 12.694 0 0 0 1.071 4.784 13.5 13.5 0 0 0 1.207 2.186 13.347 13.347 0 0 0 5.839 4.688 13.752 13.752 0 0 0 4.97.991zm0 .178a13.986 13.986 0 0 1-13.927-12.757 11.385 11.385 0 0 1 .621-5.123 8.11 8.11 0 0 1 1.328-2.244 8.717 8.717 0 0 1 1.977-1.7 13.851 13.851 0 0 1 4.856-1.784 30.355 30.355 0 0 1 10.3 0 13.817 13.817 0 0 1 4.855 1.787 8.691 8.691 0 0 1 1.975 1.7 8.127 8.127 0 0 1 1.326 2.245 11.4 11.4 0 0 1 .617 5.124 13.953 13.953 0 0 1-13.927 12.749z" class="cls-17" transform="translate(-73.43 -120.308)"/>
        <path id="사각형_240" d="M0 0H5.801V1.784H0z" class="cls-17" transform="translate(95.554 135.413)"/>
        <g id="그룹_172" transform="translate(103.597 131.526)">
            <path id="패스_12268" d="M203.824 269.271v-.828c0-4.2-3.163-9.033-11.53-9.033 0 0-9.747-.082-9.747 8.077-.011 1.318.724 1.784 2.5 1.784z" class="cls-18" transform="translate(-182.445 -259.354)"/>
            <path id="패스_12269" d="M203.639 269.043v-.714c-.017-.28-.023-.56-.048-.838-.044-.276-.072-.555-.13-.829s-.124-.547-.212-.812a8.367 8.367 0 0 0-1.614-2.915 9.16 9.16 0 0 0-2.617-2.061 11.777 11.777 0 0 0-1.527-.684c-.264-.091-.535-.162-.8-.243l-.4-.119-.411-.083-.822-.164c-.276-.04-.555-.065-.832-.1a15.285 15.285 0 0 0-1.672-.1 9.494 9.494 0 0 0-1.669.07 14.952 14.952 0 0 0-1.648.285 11.358 11.358 0 0 0-3.11 1.183 7.349 7.349 0 0 0-2.449 2.2 6.93 6.93 0 0 0-1.129 3.084l-.047.413c-.01.138-.011.277-.017.415a3.705 3.705 0 0 0 .025.816 1.283 1.283 0 0 0 .332.688 1.489 1.489 0 0 0 .678.374 6.068 6.068 0 0 0 1.636.141h1.673l3.342-.009h13.348zm0 .252h-13.416l-3.381-.009-1.689-.005a6.276 6.276 0 0 1-1.7-.162 1.71 1.71 0 0 1-.772-.436 1.5 1.5 0 0 1-.385-.8 3.877 3.877 0 0 1-.022-.86c.007-.142.009-.283.02-.424l.051-.422a7.124 7.124 0 0 1 1.181-3.159 7.513 7.513 0 0 1 2.519-2.238 11.5 11.5 0 0 1 3.155-1.18 15.174 15.174 0 0 1 1.664-.276 9.607 9.607 0 0 1 1.685-.059 15.381 15.381 0 0 1 1.68.115c.279.035.558.062.836.1l.826.17.412.087.4.122c.268.084.54.157.8.25a11.889 11.889 0 0 1 1.533.7 9.215 9.215 0 0 1 2.62 2.091 8.389 8.389 0 0 1 1.6 2.938c.086.266.137.544.207.815s.082.555.125.832c.023.279.027.56.042.839v.84z" class="cls-16" transform="translate(-182.261 -259.252)"/>
        </g>
        <g id="그룹_175" transform="translate(103.702 131.582)">
            <g id="그룹_174" clip-path="url(#clip-path-2)">
                <g id="그룹_173" transform="translate(7.289 -1.07)">
                    <circle id="타원_129" cx="5.822" cy="5.822" r="5.822" class="cls-20"/>
                    <circle id="타원_130" cx="3.718" cy="3.718" r="3.718" transform="translate(1.049 1.46)"/>
                    <circle id="타원_131" cx="1.696" cy="1.696" r="1.696" class="cls-18" transform="translate(1.049 1.46)"/>
                </g>
            </g>
        </g>
        <path id="패스_12271" d="M203.088 268.737a17.575 17.575 0 0 0-.177-2.165 8.139 8.139 0 0 0-.651-2.05 8.348 8.348 0 0 0-2.729-3.248 10.944 10.944 0 0 0-3.907-1.7 17.072 17.072 0 0 0-4.272-.39 13.983 13.983 0 0 0-4.164.873 8.47 8.47 0 0 0-3.445 2.306 6.533 6.533 0 0 0-1.082 1.76 7.442 7.442 0 0 0-.5 2.035c-.042.7-.194 1.457.24 1.916a1.856 1.856 0 0 0 .874.459 7.13 7.13 0 0 0 1.067.169v.071a5.412 5.412 0 0 1-1.112 0 1.953 1.953 0 0 1-1.094-.424 1.726 1.726 0 0 1-.528-1.1 6.359 6.359 0 0 1-.009-1.138 7.283 7.283 0 0 1 1.601-4.211 7.806 7.806 0 0 1 1.712-1.516 9.969 9.969 0 0 1 2.033-1 14.416 14.416 0 0 1 4.391-.807 18.046 18.046 0 0 1 4.411.51 11.4 11.4 0 0 1 4.023 1.865 8.515 8.515 0 0 1 2.744 3.454 8.687 8.687 0 0 1 .651 4.327z" class="cls-21" transform="translate(-78.226 -127.294)"/>
        <g id="그룹_176" transform="translate(143.346 131.526)">
            <path id="패스_12272" d="M293.689 269.271v-.828c0-4.2 3.163-9.033 11.53-9.033 0 0 9.747-.082 9.747 8.077.011 1.318-.724 1.784-2.5 1.784z" class="cls-18" transform="translate(-293.687 -259.354)"/>
            <path id="패스_12273" d="M293.686 269.3v-.966c.015-.28.019-.56.042-.839.043-.277.069-.557.125-.832s.121-.548.207-.815a8.394 8.394 0 0 1 1.6-2.938 9.225 9.225 0 0 1 2.62-2.091 11.893 11.893 0 0 1 1.533-.7c.265-.093.537-.166.8-.25l.4-.122.412-.087.826-.17c.278-.042.558-.069.836-.1a15.369 15.369 0 0 1 1.68-.115 9.608 9.608 0 0 1 1.685.059 15.187 15.187 0 0 1 1.664.276 11.508 11.508 0 0 1 3.158 1.178 7.52 7.52 0 0 1 2.519 2.238 7.124 7.124 0 0 1 1.181 3.159l.051.422c.011.141.013.283.02.424a3.878 3.878 0 0 1-.023.86 1.5 1.5 0 0 1-.385.8 1.707 1.707 0 0 1-.772.436 6.277 6.277 0 0 1-1.7.162l-1.689.005-3.38.009zm0-.252h13.474l3.342.009h1.673a6.069 6.069 0 0 0 1.636-.141 1.491 1.491 0 0 0 .678-.374 1.283 1.283 0 0 0 .332-.688 3.7 3.7 0 0 0 .025-.816c-.006-.138-.007-.277-.017-.415l-.047-.413a6.934 6.934 0 0 0-1.129-3.084 7.352 7.352 0 0 0-2.449-2.2 11.358 11.358 0 0 0-3.11-1.183 14.98 14.98 0 0 0-1.648-.285 9.5 9.5 0 0 0-1.669-.07 15.289 15.289 0 0 0-1.672.1c-.277.033-.556.058-.832.1l-.822.164-.411.083-.4.119c-.267.082-.538.152-.8.243a11.754 11.754 0 0 0-1.527.684 9.166 9.166 0 0 0-2.618 2.061 8.366 8.366 0 0 0-1.614 2.915c-.087.265-.14.542-.212.812s-.086.553-.131.829c-.025.279-.031.559-.048.838z" class="cls-16" transform="translate(-293.683 -259.252)"/>
        </g>
        <g id="그룹_179" transform="translate(143.346 131.582)">
            <g id="그룹_178" clip-path="url(#clip-path-3)">
                <g id="그룹_177" transform="translate(2.344 -1.07)">
                    <circle id="타원_132" cx="5.822" cy="5.822" r="5.822" class="cls-20"/>
                    <circle id="타원_133" cx="3.718" cy="3.718" r="3.718" transform="translate(1.049 1.46)"/>
                    <circle id="타원_134" cx="1.696" cy="1.696" r="1.696" class="cls-18" transform="translate(1.049 1.46)"/>
                </g>
            </g>
        </g>
        <path id="패스_12275" d="M293.729 268.737a8.687 8.687 0 0 1 .651-4.327 8.517 8.517 0 0 1 2.744-3.454 11.4 11.4 0 0 1 4.023-1.865 18.042 18.042 0 0 1 4.411-.51 14.413 14.413 0 0 1 4.39.807 9.972 9.972 0 0 1 2.033 1 7.815 7.815 0 0 1 1.712 1.516 7.282 7.282 0 0 1 1.592 4.209 6.321 6.321 0 0 1-.009 1.138 1.722 1.722 0 0 1-.528 1.1 1.953 1.953 0 0 1-1.093.424 5.412 5.412 0 0 1-1.112 0v-.075a7.13 7.13 0 0 0 1.067-.169 1.857 1.857 0 0 0 .874-.459c.435-.459.282-1.218.24-1.916a7.429 7.429 0 0 0-.5-2.035 6.532 6.532 0 0 0-1.082-1.76 8.47 8.47 0 0 0-3.445-2.306 13.986 13.986 0 0 0-4.164-.873 17.073 17.073 0 0 0-4.272.39 10.942 10.942 0 0 0-3.907 1.7 8.349 8.349 0 0 0-2.73 3.248 8.139 8.139 0 0 0-.65 2.05 17.5 17.5 0 0 0-.177 2.165z" class="cls-21" transform="translate(-150.337 -127.294)"/>
        <path id="패스_12276" fill="#cc5700" d="M255.736 358.993l3.122-3.3c-1.07.856-5.886 1.159-6.386 1.052a28.113 28.113 0 0 0-12.272 0c-.5.107-5.315-.2-6.386-1.052l3.435 3.3c1.926-.107 9.086 0 9.086 0s7.475-.107 9.401 0z" transform="translate(-111.826 -189.763)"/>
        <path id="패스_12278" fill="#f2a261" d="M246.347 361.365c10.895 0 12.522-5.672 12.522-5.672-1.675 1.712-6.089 2.738-12.522 2.738h-.01c-6.433 0-10.847-1.026-12.522-2.738 0 0 1.627 5.672 12.522 5.672z" transform="translate(-111.826 -189.763)"/>
        <path id="패스_12279" d="M196.861 236.483a18.509 18.509 0 0 1-3.067.195 15.712 15.712 0 0 1-2.8-.237c-.907-.188-1.812-.514-2.748-.66-.933-.165-1.878-.248-2.83-.335-.477-.047-.955-.068-1.436-.094l-1.484.024c-.986.012-1.966.012-2.932.047a12.106 12.106 0 0 0-2.81.345 3.615 3.615 0 0 0-1.212.584 2.732 2.732 0 0 0-.82 1.079.161.161 0 0 1-.3-.105 3.168 3.168 0 0 1 .76-1.369 4.077 4.077 0 0 1 1.316-.888 12.643 12.643 0 0 1 2.956-.772c.988-.157 1.968-.275 2.94-.4l1.453-.2c.5-.092 1-.188 1.5-.257a27.171 27.171 0 0 1 3.056-.256 23.6 23.6 0 0 1 3.105-.032 8.753 8.753 0 0 1 2.963.971 7.305 7.305 0 0 1 2.512 2.066.187.187 0 0 1-.039.261.19.19 0 0 1-.081.034z" class="cls-13" transform="translate(-73.617 -110.906)"/>
        <path id="패스_12280" d="M298.938 236.188a7.306 7.306 0 0 1 2.512-2.066 8.753 8.753 0 0 1 2.963-.971 23.6 23.6 0 0 1 3.105.032 27.158 27.158 0 0 1 3.056.256c.5.069 1.006.166 1.5.257l1.453.2c.971.129 1.951.247 2.94.4a12.642 12.642 0 0 1 2.956.772 4.081 4.081 0 0 1 1.316.888 3.168 3.168 0 0 1 .76 1.369.161.161 0 0 1-.3.105 2.732 2.732 0 0 0-.82-1.079 3.617 3.617 0 0 0-1.212-.584 12.106 12.106 0 0 0-2.81-.345c-.966-.036-1.946-.036-2.932-.047l-1.483-.024c-.481.026-.959.046-1.436.094-.952.087-1.9.17-2.83.335-.936.146-1.84.472-2.748.66a15.708 15.708 0 0 1-2.8.237 18.513 18.513 0 0 1-3.067-.195.187.187 0 0 1-.156-.213.193.193 0 0 1 .033-.081z" class="cls-13" transform="translate(-153.694 -110.906)"/>
        <path id="패스_12281" d="M184.762 463.3l-13.481-26.963 25.928 13.771 8.524 10.61-11.233-3.786z" class="cls-8" transform="translate(-71.6 -241.637)"/>
        <path id="패스_12282" d="M182.141 410.093l23.592 33.743-8.524-10.61-10.845 10.128-15.083-23.9z" class="cls-7" transform="translate(-71.6 -224.756)"/>
        <path id="패스_12283" d="M288.789 463.3l13.481-26.963-25.928 13.771-8.524 10.61 11.234-3.785z" class="cls-8" transform="translate(-133.699 -241.637)"/>
        <path id="패스_12284" d="M291.41 410.093l-23.592 33.743 8.524-10.61 10.845 10.128 15.083-23.9z" class="cls-7" transform="translate(-133.699 -224.756)"/>
        <path id="패스_12285" d="M201.723 404.6l3.813 5.475a13.716 13.716 0 0 0 4.924-8.521z" class="cls-8" transform="translate(-91.183 -219.265)"/>
        <path id="패스_12286" d="M319.333 403.752l-3.96 5.648a15.6 15.6 0 0 1-4.146-9.152c-.027-.261 8.106 3.504 8.106 3.504z" class="cls-8" transform="translate(-161.622 -218.415)"/>
        <path id="패스_12287" d="M267.818 500.353l2 6.318L272 525.623l-2.179 36.369-.874.083 2.041-36.382L269 506.6z" class="cls-8" transform="translate(-133.699 -282.817)"/>
    </g>
</svg>
