<?xml version="1.0" encoding="utf-8"?>
<!-- Generator: Adobe Illustrator 23.0.1, SVG Export Plug-In . SVG Version: 6.00 Build 0)  -->
<svg version="1.1" id="레이어_1" xmlns="http://www.w3.org/2000/svg" xmlns:xlink="http://www.w3.org/1999/xlink" x="0px"
	 y="0px" viewBox="0 0 720.89 98.52" style="enable-background:new 0 0 720.89 98.52;" xml:space="preserve">
<style type="text/css">
	.st0{fill:#00416B;}
	.st1{fill:#EE7623;}
</style>
<g>
	<g>
		<path class="st0" d="M0,52.15C0,76.5,20.98,96.21,46.85,96.21c24.44,0,44.45-17.63,46.59-40.1h-46.1v-1.04v-5.32v-1.07h46.15
			C91.6,26,71.46,8.13,46.85,8.13C20.98,8.13,0,27.82,0,52.15"/>
		<polygon class="st0" points="267,94.29 245.89,56.11 194.92,56.11 173.36,94.24 		"/>
		<polygon class="st0" points="220.67,10.55 199.12,48.67 241.8,48.67 		"/>
		<rect x="137.21" y="56.11" class="st0" width="36.13" height="38.18"/>
		<rect x="93.56" y="56.11" class="st0" width="36.2" height="38.18"/>
		<rect x="137.21" y="10.52" class="st1" width="36.13" height="38.16"/>
		<rect x="93.56" y="10.52" class="st1" width="36.2" height="38.16"/>
		<polygon class="st0" points="173.36,48.67 173.36,56.11 194.92,56.11 199.1,48.67 		"/>
	</g>
	<g>
		<g>
			<g>
				<path class="st0" d="M398.39,26.86c-1.19,0.6-3.83,1.24-7.17,1.24c-8.82,0-14.18-5.45-14.18-13.73C377.03,5.41,383.4,0,391.88,0
					c3.34,0,5.73,0.69,6.76,1.22v4.96c-1.32-0.56-4.57-1.74-6.89-1.74c-5.64,0-8.99,3.1-8.99,9.64c0,5.97,3.16,9.64,9.27,9.64
					c2.06,0,5.04-0.71,6.36-1.31V26.86z"/>
				<path class="st0" d="M407.79,0.45v10.9h11.74V0.45h5.51v27.21h-5.51V16.1h-11.74v11.56h-5.51V0.45H407.79z"/>
				<path class="st0" d="M447.32,27.66h5.45l-9.03-27.22h-6.47l-8.91,27.22h5.68l1.95-6.72h9.14L447.32,27.66z M437.38,16.1
					l2.89-9.97l3.27,9.97H437.38z"/>
			</g>
		</g>
		<g>
			<path class="st0" d="M489.65,0.42h5.42v27.24h-5.42v-1.98H464.3v-3.12h25.35V0.42z M483.27,2.82c1.72,1.53,2.58,3.44,2.58,5.72
				s-0.86,4.19-2.58,5.72c-1.89,1.72-4.49,2.58-7.81,2.58c-3.34,0-5.96-0.86-7.85-2.58c-1.7-1.53-2.54-3.44-2.54-5.72
				c0-2.3,0.85-4.21,2.54-5.72c1.89-1.7,4.51-2.55,7.85-2.55C478.78,0.28,481.38,1.12,483.27,2.82z M471.74,4.89
				c-0.76,0.94-1.14,2.16-1.14,3.65c0,1.49,0.38,2.71,1.14,3.65c0.88,1.08,2.14,1.61,3.76,1.61c1.6,0,2.84-0.54,3.72-1.61
				c0.79-0.96,1.18-2.18,1.18-3.65s-0.39-2.69-1.18-3.65c-0.91-1.08-2.15-1.61-3.72-1.61C473.88,3.28,472.63,3.81,471.74,4.89z"/>
			<path class="st0" d="M523.55,0.42H529v10.19h3.72v3.23H529v13.82h-5.45v-1.98h-24.76v-3.12h4.42V9.85h5.45v12.71h14.89V0.42z
				 M518.76,0.98v10.25c0,2.27-0.14,4.25-0.41,5.95c-0.25,1.7-0.63,3.26-1.14,4.67l-5.2-0.85c0.44-1.25,0.77-2.58,0.99-3.99
				c0.22-1.51,0.33-3.28,0.33-5.32V4.1h-13.3V0.98H518.76z"/>
			<path class="st0" d="M543.68,2.03V0.28h5.45v1.76h7.52v2.89h-5.6c2.33,0.47,3.98,1.28,4.94,2.44c0.88,1.06,1.1,2.31,0.66,3.77
				c-0.49,1.26-1.58,2.31-3.28,3.14c-1.92,0.94-4.27,1.42-7.07,1.42c-2.83,0-5.2-0.48-7.11-1.44c-1.67-0.85-2.74-1.89-3.21-3.12
				c-0.47-1.45-0.27-2.71,0.59-3.77c0.96-1.15,2.6-1.96,4.94-2.44h-5.56V2.03H543.68z M565.9,17.69v9.94h-5.45v-6.88h-22v-3.06
				H565.9z M542.5,7.67c-0.81,0.55-1.22,1.23-1.22,2.04c0,0.77,0.41,1.46,1.22,2.07c0.96,0.68,2.22,1.02,3.8,1.02
				c1.57,0,2.85-0.34,3.83-1.02c0.86-0.6,1.29-1.29,1.29-2.07c0-0.81-0.43-1.49-1.29-2.04c-0.96-0.62-2.24-0.93-3.83-0.93
				C544.7,6.73,543.44,7.04,542.5,7.67z M565.9,0.42v6.43h3.72v3.12h-3.72v5.92h-5.45V0.42H565.9z"/>
			<path class="st0" d="M613.56,2.03V0.28h5.45v1.76h7.52v2.89h-5.6c2.33,0.47,3.98,1.28,4.94,2.44c0.88,1.06,1.11,2.31,0.66,3.77
				c-0.49,1.26-1.58,2.31-3.28,3.14c-1.92,0.94-4.27,1.42-7.08,1.42c-2.83,0-5.2-0.48-7.11-1.44c-1.67-0.85-2.74-1.89-3.2-3.12
				c-0.47-1.45-0.27-2.71,0.59-3.77c0.96-1.15,2.6-1.96,4.94-2.44h-5.56V2.03H613.56z M635.78,17.69v9.94h-5.45v-6.88h-22v-3.06
				H635.78z M612.38,7.67c-0.81,0.55-1.22,1.23-1.22,2.04c0,0.77,0.41,1.46,1.22,2.07c0.96,0.68,2.22,1.02,3.8,1.02
				c1.57,0,2.85-0.34,3.83-1.02c0.86-0.6,1.29-1.29,1.29-2.07c0-0.81-0.43-1.49-1.29-2.04c-0.96-0.62-2.24-0.93-3.83-0.93
				S613.32,7.04,612.38,7.67z M635.78,0.42v6.43h3.72v3.12h-3.72v5.92h-5.45V0.42H635.78z"/>
			<path class="st0" d="M672.94,25.7H641.4v-3h4.01V10.41h5.45V22.7h4.28V10.41h5.45V22.7h12.34V25.7z M671.32,0.98v10.37
				c0,2.06-0.17,4.02-0.52,5.89c-0.35,1.91-0.85,3.71-1.51,5.41h-5.27c0.59-1.49,1.04-3.02,1.36-4.59c0.32-1.66,0.48-3.43,0.48-5.3
				V4.32h-22.85V0.98H671.32z"/>
			<path class="st0" d="M583.5,3.97h-6.29v17.51h9.62V0.42h5.42v10.84h4.13V0.42h5.43v27.24h-5.43V14.37h-4.13v13.25h-5.42v-3.15
				h-10.39c-1.62,0-2.81-0.31-3.59-0.91c-0.72-0.55-1.07-1.38-1.07-2.48V0.98h11.72V3.97"/>
		</g>
	</g>
	<g>
		<g>
			<rect x="503.9" y="39.72" class="st0" width="25.98" height="7.23"/>
			<polygon class="st0" points="558.84,64.07 558.84,50.59 558.84,43.72 558.84,39.72 547.91,39.72 547.91,97.53 558.84,97.53 
				558.84,71.96 569.7,71.96 569.7,64.07 			"/>
			<path class="st0" d="M542.01,50.82h-50.16v7.78h18.72c0,4.49-2.25,9.05-6.75,13.66c-4.61,4.78-9.01,8-15.39,9.66l9.06,6.74
				c0,0,14.8-7.04,19.23-16.88c1.43,3.24,3.67,6.32,6.75,9.23c3.02,2.83,6.41,5.12,10.17,6.86l8.29-6.62
				c-5.24-1.66-9.68-4.84-13.33-9.53c-3.42-4.41-5.13-8.79-5.13-13.12h18.54V50.82z"/>
		</g>
		<path class="st0" d="M368.46,43.98c3.76,2.6,5.64,5.84,5.64,9.71c0,3.87-1.88,7.09-5.64,9.65c-4.09,2.88-9.7,4.32-16.83,4.32
			c-7.19,0-12.86-1.44-16.99-4.32c-3.71-2.56-5.56-5.78-5.56-9.65c0-3.87,1.85-7.11,5.56-9.71c4.14-2.84,9.81-4.27,16.99-4.27
			C358.77,39.72,364.38,41.14,368.46,43.98z M395.43,70.51v16.11h-48.54v3.2H396v6.57h-61.2V80.1h48.54v-3.14H334.8v-6.45H395.43z
			 M343.79,48.42c-1.69,1.38-2.53,3.14-2.53,5.27c0,2.09,0.84,3.83,2.53,5.21c1.85,1.5,4.47,2.25,7.84,2.25
			c3.32,0,5.91-0.75,7.76-2.25c1.74-1.38,2.61-3.12,2.61-5.21c0-2.13-0.87-3.89-2.61-5.27c-1.85-1.5-4.44-2.25-7.76-2.25
			C348.25,46.18,345.64,46.92,343.79,48.42z M395.43,40.01v27.36h-12.09V40.01H395.43z"/>
		<path class="st0" d="M442.84,59.62c3.27,3.67,7.98,6.51,14.14,8.52l-5.8,4.97c-4.74-1.77-9.02-3.89-12.83-6.34
			c-3.92-2.52-6.62-4.93-8.09-7.22c-1.69,2.29-4.49,4.7-8.42,7.22c-3.87,2.45-8.03,4.52-12.5,6.22l-4.99-4.8
			c5.67-2.25,10.08-5.11,13.24-8.58c4.41-4.94,6.62-11.31,6.62-19.13h12.17C436.38,48.42,438.53,54.8,442.84,59.62z M425.84,89.99
			h47.88v6.4h-59.97V77.73h12.09V89.99z M473.23,40.01v17.35h8.34v6.75h-8.34v17.23h-12.09V40.01H473.23z"/>
		<path class="st0" d="M590.14,40.49v7.52h16.91v-7.52h12.01v4.74h11.52v-5.21h12.09v32.33h-12.09v-6.75h-11.52v4.44h-29.99h-11.03
			V40.49H590.14z M635.98,78.03c5.23,2.29,7.84,5.09,7.84,8.41c-0.05,3.28-2.69,6.04-7.93,8.29c-5.83,2.53-13.78,3.79-23.86,3.79
			c-10.02,0-17.95-1.27-23.78-3.79c-5.17-2.25-7.76-5.01-7.76-8.29c0-3.32,2.59-6.12,7.76-8.41c5.88-2.53,13.81-3.79,23.78-3.79
			C622.17,74.24,630.15,75.5,635.98,78.03z M590.14,54.29v9.48h16.91v-9.48H590.14z M597.5,82.41c-3.16,1.07-4.74,2.39-4.74,3.97
			c0,1.54,1.58,2.84,4.74,3.91c3.54,1.22,8.39,1.84,14.54,1.84c6.26,0,11.19-0.61,14.79-1.84c3.21-1.07,4.82-2.37,4.82-3.91
			c0-1.58-1.61-2.9-4.82-3.97c-3.6-1.18-8.53-1.78-14.79-1.78C605.88,80.63,601.04,81.23,597.5,82.41z M630.59,59.38v-7.81h-11.52
			v7.81H630.59z"/>
		<path class="st0" d="M708.47,65.18V40.01h12.09v44.35h-12.09v-3.31h-13.65v-6.4h13.65v-3.14h-25.91v9.54h-10.54v8.88h48.87v6.46
			h-60.96V79.04h10.54v-7.52h-18.3v-6.34H708.47z M695.15,43.39c3.87,2.17,5.8,4.93,5.8,8.29c0,3.28-1.93,6.02-5.8,8.23
			c-4.3,2.45-10.22,3.67-17.73,3.67c-7.46,0-13.35-1.23-17.65-3.67c-3.81-2.21-5.72-4.96-5.72-8.23c0-3.36,1.91-6.12,5.72-8.29
			c4.25-2.45,10.13-3.67,17.65-3.67C684.94,39.72,690.85,40.94,695.15,43.39z M668.84,47.72c-1.8,1.06-2.7,2.41-2.7,4.02
			c0,1.54,0.9,2.81,2.7,3.79c2.07,1.14,4.93,1.72,8.58,1.72c3.7,0,6.59-0.57,8.66-1.72c1.85-0.99,2.78-2.25,2.78-3.79
			c0-1.66-0.93-3-2.78-4.02c-2.07-1.11-4.96-1.66-8.66-1.66C673.77,46.05,670.91,46.61,668.84,47.72z"/>
	</g>
</g>
</svg>
