<svg xmlns="http://www.w3.org/2000/svg" width="56" height="56" viewBox="0 0 56 56">
    <path fill="#1baffd" d="M42.875 56h-29.75A13.14 13.14 0 0 1 0 42.875v-29.75A13.14 13.14 0 0 1 13.125 0h29.75A13.14 13.14 0 0 1 56 13.125v29.75A13.14 13.14 0 0 1 42.875 56zM13.125 4.375a8.76 8.76 0 0 0-8.75 8.75v29.75a8.76 8.76 0 0 0 8.75 8.75h29.75a8.76 8.76 0 0 0 8.75-8.75v-29.75a8.76 8.76 0 0 0-8.75-8.75zM28.29 47.031a4.691 4.691 0 0 0 4.544-4.394l.747-6.285a2.188 2.188 0 1 0-4.344-.517l-.748 6.289v.012c-.034.3-.143.517-.263.519s-.225-.236-.264-.47l-3-28.507v-.017a4.426 4.426 0 0 0-8.764-.23l-.018.132-1.71 16.291c-.022.1-.075.215-.3.224-.255.01-.3-.132-.328-.235l-.772-3.322a2.187 2.187 0 1 0-4.262.99l.776 3.341.008.033a4.7 4.7 0 0 0 9.2-.361l.018-.132 1.706-16.278a.241.241 0 0 1 .086 0c0 .009 0 .021.006.035l3 28.545c0 .027.006.055.01.082a4.685 4.685 0 0 0 4.594 4.254zm18.12-16.147l.008-.033.776-3.341a2.187 2.187 0 1 0-4.262-.99l-.772 3.322a.329.329 0 0 1-.64-.04c0-.011 0-.023-.006-.034L39.8 20.413a4.426 4.426 0 0 0-8.759.241l-.817 6.868a2.188 2.188 0 0 0 4.344.517l.817-6.873v-.012c0-.017 0-.03.006-.04a.246.246 0 0 1 .086 0c0 .01.006.023.008.04s0 .023.006.034l1.713 9.356a4.664 4.664 0 0 0 4.452 3.907h.193a4.662 4.662 0 0 0 4.556-3.569z"/>
</svg>
