<svg xmlns="http://www.w3.org/2000/svg" width="56" height="56" viewBox="0 0 56 56">
    <path fill="#5d20ff" d="M48.343999999999994 20.672a2.188 2.188 0 1 0 0 4.375 3.325 3.325 0 0 1 3.281 3.281 3.252 3.252 0 0 1-3.214 3.281 2.188 2.188 0 1 0 0 4.375 7.657 7.657 0 0 0-.068-15.313zM55.122 4.7a23.783 23.783 0 0 0-14-4.7c-6.864.014-12.871 2.066-17.205 5.938C19.48 9.9 17.058 15.5 16.888 22.15a52.9 52.9 0 0 0-4.851 7.31 5.816 5.816 0 0 0 4.748 8.481l.438 5.125a8.4 8.4 0 0 0 8.377 7.687h1.858a2.19 2.19 0 0 1 2.188 2.188v.875a2.188 2.188 0 0 0 4.375 0v-.875a6.57 6.57 0 0 0-6.563-6.563H25.6a4 4 0 0 1-4.013-3.685l-.472-5.527a3.9 3.9 0 0 0-3.915-3.585 1.431 1.431 0 0 1-1.242-.7 1.4 1.4 0 0 1-.047-1.393 51.951 51.951 0 0 1 4.881-7.24 2.188 2.188 0 0 0 .458-1.34c0-11.255 7.821-18.529 19.872-18.529A19.159 19.159 0 0 1 52.5 8.209 2.188 2.188 0 1 0 55.122 4.7zm-41.3 44.261a2.187 2.187 0 0 0-.049-3.093 2.093 2.093 0 0 1-.646-1.446 2.128 2.128 0 0 1 .662-1.552 2.188 2.188 0 1 0-3.076-3.111 6.514 6.514 0 0 0-1.959 4.792 6.445 6.445 0 0 0 1.975 4.46 2.187 2.187 0 0 0 3.093-.049zm-7.7 6.823A2.18 2.18 0 0 1 4.6 55.17 14.983 14.983 0 0 1 .007 44.8a15.153 15.153 0 0 1 4.58-11.133 2.188 2.188 0 1 1 3.076 3.111 10.767 10.767 0 0 0-3.284 7.9 10.632 10.632 0 0 0 3.268 7.353 2.188 2.188 0 0 1-1.522 3.759z" transform="translate(-.001 -.003)"/>
</svg>
