<svg xmlns="http://www.w3.org/2000/svg" width="170.455" height="180.875" viewBox="0 0 170.455 180.875">
    <defs>
        <clipPath id="clip-path">
            <path id="사각형_244" fill="#fff" stroke="#707070" d="M0 0H133V151H0z" transform="translate(109.2 72.005)"/>
        </clipPath>
        <clipPath id="clip-path-2">
            <path id="패스_12375" d="M272.356 275.687v-2.851a9.618 9.618 0 0 1 9.617-9.618h4.477c11.146 0 13.712 8.409 13.712 8.409a4.06 4.06 0 0 1-4.06 4.06z" class="cls-2" transform="translate(-272.356 -263.218)"/>
        </clipPath>
        <clipPath id="clip-path-3">
            <path id="패스_12380" d="M186.008 275.687v-2.851a9.618 9.618 0 0 0-9.618-9.618h-4.477c-11.146 0-13.712 8.409-13.712 8.409a4.06 4.06 0 0 0 4.06 4.06z" class="cls-2" transform="translate(-158.202 -263.218)"/>
        </clipPath>
        <style>
            .cls-16{fill:#fff}.cls-2{fill:none}.cls-4{fill:#ffbe1a}.cls-8{fill:#ffbc83}.cls-15{fill:#aa6604}.cls-17{fill:#214566}
        </style>
    </defs>
    <g id="img-melina" transform="rotate(14.98 13378.831 -2300.58)">
        <path id="shadow" d="M12.441 103.2C7.09 103.732.118 98.773.024 91.074Q0 90.756 0 90.422v-41.54A48.944 48.944 0 0 1 48.927 0H73.5a48.4 48.4 0 0 1 21.193 4.852 5.784 5.784 0 0 1 .773.444 48.769 48.769 0 0 1 26.9 43.593c-.044 13.044-1.2 23.15 7.613 35.749a3.909 3.909 0 0 1-3.117 6.189q-4.47.062-8.9-.209c-.152 2.145-1.85 21.281-14.775 32.768a48.651 48.651 0 0 1-41.065 24.5 6.714 6.714 0 0 1-.812.054h-.409a48.622 48.622 0 0 1-48.46-44.74z" transform="translate(1097.016 3378.68)"/>
        <g id="img-melina-2" clip-path="url(#clip-path)" transform="translate(981.8 3303.995)">
            <path id="패스_12359" d="M336.9 275.178s-1.523 29.291-23.759 39.03c-21.82 9.556 15.242-39.754 15.242-39.754z" class="cls-4" transform="translate(-108.168 -110.922)"/>
            <path id="패스_12360" fill="#ffebd2" d="M235.378 238.1a49.282 49.282 0 0 1-98.565 0v-24.54a3.992 3.992 0 0 1 2.616-3.744 39.66 39.66 0 0 0 20.75-17.322 3.96 3.96 0 0 1 6.406-.586 110.463 110.463 0 0 0 68.792 36.539v9.653z" transform="translate(-15.157 -64.864)"/>
            <path id="패스_12361" d="M240.926 158.833a3.961 3.961 0 0 1-3.158 6.27c-32.524.451-63.785-12.135-86.295-37.576a3.984 3.984 0 0 0-6.406.586 39.324 39.324 0 0 1-20.75 17.322 3.992 3.992 0 0 0-2.616 3.744c0 26.93-.045 25.983.135 28.464-5.458.541-12.586-4.556-12.586-12.45v-42.538a49.516 49.516 0 0 1 49.53-49.485h24.9a49.477 49.477 0 0 1 49.53 49.44c-.045 13.217-1.218 23.457 7.714 36.223z" class="cls-4" transform="translate(-.028 -.437)"/>
            <path id="패스_12362" fill="#fc6" d="M205.148 77.871c5.1 2.436 3.248 10.059-2.391 10.014h-25.126a49.554 49.554 0 0 0-49.53 49.53v2.346a5.815 5.815 0 0 1-3.834 5.5 3.992 3.992 0 0 0-2.616 3.744V165.2c0 8.03-12.45 8.167-12.45-.629v-42.09a49.593 49.593 0 0 1 49.576-49.53h24.9a49.045 49.045 0 0 1 21.471 4.92z" transform="translate(0 -.318)"/>
            <path id="패스_12363" fill="#fff3e4" d="M188.047 296.566c6.586 1.849 5.278 11.638-1.579 11.683A49.267 49.267 0 0 1 136.8 258.99v-24.54a3.992 3.992 0 0 1 2.616-3.744 38.721 38.721 0 0 0 3.744-1.579 5.964 5.964 0 0 1 8.571 5.323v14.57a49.187 49.187 0 0 0 36.313 47.546z" transform="translate(-15.151 -85.715)"/>
            <path id="패스_12364" d="M236.851 328.054a1.351 1.351 0 0 1-1.347-1.494c.26-2.389 1.222-6.806 4.775-6.806s4.515 4.417 4.775 6.806a1.351 1.351 0 0 1-1.347 1.494z" class="cls-8" transform="translate(-69.324 -135.788)"/>
            <path id="패스_12365" fill="#661a00" d="M242.667 358.954c-.7.558-1.375 1.658-15.856 1.658s-15.155-1.134-15.811-1.658c0 0 3.021 14.4 15.84 14.4s15.827-14.4 15.827-14.4z" transform="translate(-55.878 -157.305)"/>
            <g id="그룹_194" transform="translate(158.878 208.416)">
                <path id="패스_12366" fill="#aa4e49" d="M231.411 381.583a14.5 14.5 0 0 0 12.074-6.274 54.605 54.605 0 0 0-24.157-.006 14.518 14.518 0 0 0 12.083 6.28z" transform="translate(-219.327 -373.954)"/>
            </g>
            <path id="패스_12368" fill="#ef7a62" d="M226.846 374.7c13.892 0 15.833-15.743 15.833-15.743-1.525 2.274-3.545 11.982-15.84 11.982s-14.315-9.708-15.84-11.982c-.006.001 1.955 15.743 15.847 15.743z" transform="translate(-55.878 -157.305)"/>
            <path id="패스_12370" fill="#c20" d="M226.833 360.09s13.583.538 15.759-1.579l.074-.078c-1.353 1.083-7.443.564-8.075.429a35.547 35.547 0 0 0-15.518 0c-.632.135-6.721.654-8.075-.429 2.119 2.167 7.702 1.657 15.835 1.657z" transform="translate(-55.878 -156.783)"/>
            <path id="패스_12371" d="M277.264 237.775a8.437 8.437 0 0 1 .768-.772c.274-.22.549-.457.835-.659a15.343 15.343 0 0 1 1.774-1.087 18.954 18.954 0 0 1 3.784-1.464 16.42 16.42 0 0 1 4-.437c1.349-.018 2.689-.077 4.037-.06a29.946 29.946 0 0 1 4.047.278 32.474 32.474 0 0 1 3.989.762 11.242 11.242 0 0 1 1.968.722 5.2 5.2 0 0 1 2.781 3.147c.229.64.387 1.277.547 1.911a.2.2 0 0 1-.383.133 8.482 8.482 0 0 0-1.958-3.121 6.383 6.383 0 0 0-3.288-1.152c-.613-.076-1.239-.117-1.869-.139l-.949-.023-.937.041c-.625.038-1.25.092-1.875.169l-.937.107-.937.134a29.409 29.409 0 0 0-3.72.757 27.613 27.613 0 0 1-3.685.879 38.138 38.138 0 0 1-3.808.324 34.514 34.514 0 0 1-4.028-.076h-.005a.226.226 0 0 1-.152-.374z" class="cls-15" transform="translate(-92.221 -88.329)"/>
            <g id="그룹_195" transform="translate(183.012 158.286)">
                <path id="패스_12372" d="M272.856 275.458v-2.851a9.617 9.617 0 0 1 9.617-9.617h4.477c11.146 0 13.712 9.311 13.712 9.311 0 2.242-1.817 3.158-4.06 3.158z" class="cls-16" transform="translate(-272.843 -262.915)"/>
                <path id="패스_12373" d="M272.841 275.528v-.16l-.01-2.512a10.163 10.163 0 0 1 .238-2.5 9.668 9.668 0 0 1 6.536-7.079 9.713 9.713 0 0 1 2.483-.428c.842-.021 1.677-.01 2.515-.017a33.662 33.662 0 0 1 5.028.184 14.433 14.433 0 0 1 4.784 1.556 13.663 13.663 0 0 1 6.356 7.6v.035a3.139 3.139 0 0 1-.525 1.825 3.2 3.2 0 0 1-1.529 1.131 5.918 5.918 0 0 1-1.855.344c-.627.013-1.24.007-1.86.011l-7.436.017zm0-.319H273l14.675-.011 7.348.017a10.409 10.409 0 0 0 3.6-.314 2.931 2.931 0 0 0 1.406-1.021 2.872 2.872 0 0 0 .486-1.669v.035a13.441 13.441 0 0 0-6.2-7.5 14.256 14.256 0 0 0-4.715-1.566 33.571 33.571 0 0 0-5-.214c-.837 0-1.678-.014-2.511 0a9.58 9.58 0 0 0-8.988 7.4 10.149 10.149 0 0 0-.253 2.489z" class="cls-8" transform="translate(-272.828 -262.826)"/>
            </g>
            <path id="패스_12374" d="M272.472 274.82l-.111-2.513a10.158 10.158 0 0 1 .176-2.556 9.929 9.929 0 0 1 2.288-4.616 10.034 10.034 0 0 1 4.356-2.878 10.235 10.235 0 0 1 2.609-.5c.883-.038 1.688-.043 2.536-.067l2.52-.053a18.957 18.957 0 0 1 2.613.138 14.929 14.929 0 0 1 5.076 1.522 12.7 12.7 0 0 1 4.086 3.435 14.025 14.025 0 0 1 1.43 2.244 12.14 12.14 0 0 1 .959 2.509l.028.112v.064a3.815 3.815 0 0 1-.468 1.658 3.142 3.142 0 0 1-1.232 1.177 4.236 4.236 0 0 1-1.518.448 6.067 6.067 0 0 1-1.5-.035v-.18a7.625 7.625 0 0 0 1.384-.329 3.794 3.794 0 0 0 1.17-.627 2.316 2.316 0 0 0 .842-2.112l.023.176a12.24 12.24 0 0 0-1.066-2.081 13.5 13.5 0 0 0-1.409-1.895 14.293 14.293 0 0 0-3.607-2.94 13.726 13.726 0 0 0-4.423-1.6 17.108 17.108 0 0 0-2.394-.251l-2.506-.062c-.827-.015-1.7-.047-2.49-.048a9.1 9.1 0 0 0-2.333.336 9.306 9.306 0 0 0-6.423 6.577 10.112 10.112 0 0 0-.315 2.432l-.111 2.513z" class="cls-17" transform="translate(-89.552 -103.888)"/>
            <g id="그룹_197" transform="translate(182.799 158.463)">
                <g id="그룹_196" clip-path="url(#clip-path-2)">
                    <circle id="타원_143" cx="7.362" cy="7.362" r="7.362" class="cls-17" transform="translate(3.175 -1.353)"/>
                    <circle id="타원_144" cx="4.701" cy="4.701" r="4.701" transform="translate(4.501 .493)"/>
                    <circle id="타원_145" cx="2.144" cy="2.144" r="2.144" class="cls-16" transform="translate(4.501 .493)"/>
                </g>
            </g>
            <path id="패스_12376" d="M179.983 238.149a34.507 34.507 0 0 1-4.027.076 38.148 38.148 0 0 1-3.809-.324 27.648 27.648 0 0 1-3.685-.879 29.384 29.384 0 0 0-3.72-.757l-.937-.134-.937-.107c-.625-.077-1.25-.131-1.875-.169l-.937-.041-.949.023c-.631.023-1.256.064-1.869.139a6.383 6.383 0 0 0-3.289 1.152 8.475 8.475 0 0 0-1.957 3.121.2.2 0 0 1-.383-.133c.161-.634.318-1.272.547-1.911a5.2 5.2 0 0 1 2.781-3.147 11.248 11.248 0 0 1 1.969-.722 32.443 32.443 0 0 1 3.989-.762 29.946 29.946 0 0 1 4.047-.278c1.348-.018 2.687.041 4.037.06a16.419 16.419 0 0 1 4 .437 18.969 18.969 0 0 1 3.785 1.464 15.385 15.385 0 0 1 1.774 1.087c.286.2.562.439.835.659a8.443 8.443 0 0 1 .768.772.226.226 0 0 1-.023.319.222.222 0 0 1-.129.054z" class="cls-15" transform="translate(-23.274 -88.329)"/>
            <g id="그룹_198" transform="translate(130.949 158.286)">
                <path id="패스_12377" d="M185.508 275.458v-2.851a9.618 9.618 0 0 0-9.618-9.617h-4.477c-11.146 0-13.712 9.311-13.712 9.311 0 2.242 1.818 3.158 4.06 3.158z" class="cls-16" transform="translate(-157.572 -262.915)"/>
                <path id="패스_12378" d="M185.35 275.209l-.01-2.355a10.171 10.171 0 0 0-.253-2.489 9.549 9.549 0 0 0-8.988-7.4c-.833-.016-1.674 0-2.51 0a33.577 33.577 0 0 0-5 .214 14.256 14.256 0 0 0-4.715 1.566 13.442 13.442 0 0 0-6.2 7.5v-.035a2.869 2.869 0 0 0 .487 1.669 2.929 2.929 0 0 0 1.406 1.021 10.406 10.406 0 0 0 3.6.314l7.348-.017 14.675.011zm0 .319l-14.732.011-7.435-.017c-.621 0-1.234 0-1.86-.011a5.916 5.916 0 0 1-1.855-.344 3.2 3.2 0 0 1-1.529-1.131 3.136 3.136 0 0 1-.524-1.825v-.035a13.664 13.664 0 0 1 6.356-7.6 14.436 14.436 0 0 1 4.785-1.556 33.657 33.657 0 0 1 5.028-.184c.839.007 1.673 0 2.515.017a9.609 9.609 0 0 1 6.7 3.1 9.607 9.607 0 0 1 2.32 4.408 10.137 10.137 0 0 1 .238 2.5l-.01 2.512z" class="cls-8" transform="translate(-157.414 -262.826)"/>
            </g>
            <path id="패스_12379" d="M184.636 274.82l-.111-2.513a10.159 10.159 0 0 0-.315-2.432 9.308 9.308 0 0 0-6.423-6.577 9.094 9.094 0 0 0-2.333-.336c-.792 0-1.663.033-2.491.048l-2.506.062a17.094 17.094 0 0 0-2.393.251 13.732 13.732 0 0 0-4.423 1.6 14.291 14.291 0 0 0-3.607 2.94 13.5 13.5 0 0 0-1.409 1.895 12.239 12.239 0 0 0-1.066 2.081l.024-.176a2.314 2.314 0 0 0 .842 2.112 3.793 3.793 0 0 0 1.17.627 7.625 7.625 0 0 0 1.384.329v.18a6.068 6.068 0 0 1-1.5.035 4.236 4.236 0 0 1-1.518-.448 3.145 3.145 0 0 1-1.232-1.177 3.82 3.82 0 0 1-.468-1.658v-.064l.028-.112a12.138 12.138 0 0 1 .958-2.509 14.025 14.025 0 0 1 1.43-2.244 12.7 12.7 0 0 1 4.086-3.435 14.931 14.931 0 0 1 5.077-1.522 18.954 18.954 0 0 1 2.613-.138l2.519.053c.848.023 1.653.028 2.536.067a10.232 10.232 0 0 1 2.609.5 10.034 10.034 0 0 1 4.356 2.878 9.925 9.925 0 0 1 2.288 4.616 10.159 10.159 0 0 1 .176 2.556l-.111 2.513z" class="cls-17" transform="translate(-25.828 -103.888)"/>
            <g id="그룹_200" transform="translate(131.305 158.463)">
                <g id="그룹_199" clip-path="url(#clip-path-3)">
                    <circle id="타원_146" cx="7.362" cy="7.362" r="7.362" class="cls-17" transform="translate(9.907 -1.353)"/>
                    <circle id="타원_147" cx="4.701" cy="4.701" r="4.701" transform="translate(11.233 .493)"/>
                    <circle id="타원_148" cx="2.144" cy="2.144" r="2.144" class="cls-16" transform="translate(11.233 .493)"/>
                </g>
            </g>
        </g>
    </g>
</svg>
