<svg width="260" height="147" viewBox="0 0 260 147" fill="none" xmlns="http://www.w3.org/2000/svg">
<path d="M18.3243 3.14366C18.3208 3.44195 18.2585 3.73661 18.141 4.01083C18.0235 4.28506 17.8531 4.53346 17.6395 4.74188C17.426 4.95029 17.1735 5.11455 16.8964 5.22542C16.6193 5.33628 16.3229 5.39158 16.0244 5.38802C13.3704 5.38266 10.7905 6.26176 8.69262 7.88623C8.74362 7.88623 8.82081 7.87818 8.87181 7.87818C11.2944 7.8423 13.6325 8.76646 15.3752 10.4486C17.1179 12.1307 18.1232 14.434 18.1713 16.8548C18.1658 18.0453 17.9248 19.2229 17.4616 20.3198C16.9984 21.4167 16.3223 22.411 15.4726 23.2456C14.623 24.0801 13.6163 24.7382 12.5108 25.182C11.4054 25.6258 10.223 25.8465 9.03172 25.8314C7.84662 25.8448 6.6708 25.6223 5.57262 25.1769C4.47445 24.7315 3.47579 24.0721 2.63523 23.2371C1.79468 22.4022 1.12884 21.4083 0.676568 20.3136C0.224297 19.2188 -0.00525699 18.0451 0.00105675 16.8607V16.8548C0.0106779 14.74 0.43892 12.6481 1.26102 10.6994C2.08312 8.75072 3.28283 6.98383 4.79116 5.50049C6.29948 4.01715 8.08658 2.84663 10.0495 2.05643C12.0124 1.26622 14.1124 0.871974 16.2285 0.896249C16.5169 0.896072 16.8023 0.955186 17.0668 1.07007C17.3313 1.18496 17.5694 1.35313 17.766 1.56398C17.9626 1.77484 18.1138 2.02399 18.2098 2.29576C18.3059 2.56753 18.3448 2.85615 18.3243 3.14366V3.14366ZM39.9964 3.14366C39.9927 3.44242 39.9302 3.73749 39.8123 4.01205C39.6944 4.28662 39.5236 4.53524 39.3094 4.74371C39.0952 4.95217 38.842 5.11632 38.5643 5.22688C38.2865 5.33744 37.9897 5.39225 37.6908 5.38802C35.0369 5.38282 32.4569 6.26189 30.359 7.88623C30.41 7.88623 30.4848 7.87818 30.5368 7.87818C32.9596 7.84151 35.2985 8.76544 37.0414 10.4477C38.7842 12.13 39.7894 14.4337 39.8367 16.8548C39.8306 18.0456 39.5886 19.2234 39.1248 20.3204C38.661 21.4174 37.9843 22.4118 37.1342 23.2463C36.284 24.0808 35.2773 24.7387 34.1714 25.1824C33.0655 25.6261 31.8826 25.8467 30.691 25.8314C29.5053 25.845 28.3283 25.6228 27.2293 25.1776C26.1302 24.7325 25.1311 24.0733 24.2894 23.2385C23.4478 22.4036 22.7807 21.4099 22.3271 20.3149C21.8735 19.22 21.6424 18.0458 21.6472 16.8607V16.8548C21.6584 14.7394 22.0881 12.6471 22.9116 10.6983C23.735 8.74949 24.9362 6.98258 26.4456 5.49939C27.955 4.0162 29.7429 2.84594 31.7066 2.05594C33.6703 1.26594 35.7708 0.871845 37.8876 0.896249C38.1766 0.896206 38.4626 0.955335 38.7279 1.07007C38.9931 1.18481 39.2317 1.35275 39.4295 1.56337C39.6272 1.77399 39.7795 2.02285 39.8772 2.29466C39.9749 2.56647 40.0158 2.85544 39.9973 3.14366H39.9964Z" fill="#E3E8EB"/>
<path d="M241.671 144.573C241.67 144.27 241.73 143.969 241.845 143.689C241.961 143.409 242.13 143.154 242.345 142.939C242.559 142.725 242.813 142.555 243.093 142.438C243.373 142.322 243.674 142.262 243.977 142.262C246.642 142.263 249.228 141.354 251.308 139.687C251.257 139.687 251.18 139.695 251.129 139.695C248.671 139.697 246.312 138.726 244.57 136.994C242.827 135.262 241.841 132.911 241.829 130.455C241.817 129.247 242.044 128.049 242.498 126.929C242.952 125.81 243.623 124.791 244.472 123.932C245.322 123.073 246.333 122.391 247.448 121.924C248.563 121.457 249.759 121.216 250.968 121.214C252.17 121.218 253.36 121.461 254.468 121.929C255.575 122.397 256.579 123.081 257.419 123.941C258.26 124.8 258.921 125.818 259.363 126.936C259.806 128.053 260.022 129.247 259.998 130.449V130.455C260.019 132.6 259.616 134.729 258.811 136.718C258.005 138.707 256.814 140.517 255.306 142.044C253.798 143.571 252.002 144.785 250.022 145.616C248.042 146.446 245.918 146.877 243.771 146.884C243.478 146.88 243.19 146.815 242.923 146.695C242.656 146.574 242.416 146.4 242.22 146.183C242.023 145.967 241.873 145.712 241.778 145.435C241.684 145.158 241.648 144.865 241.671 144.573V144.573ZM219.999 144.573C219.998 144.27 220.058 143.97 220.173 143.689C220.289 143.409 220.458 143.154 220.673 142.94C220.887 142.725 221.141 142.555 221.421 142.439C221.701 142.323 222.002 142.263 222.305 142.262C224.971 142.263 227.558 141.354 229.638 139.687C229.587 139.687 229.511 139.695 229.459 139.695C227.001 139.698 224.643 138.727 222.9 136.995C221.157 135.263 220.172 132.911 220.16 130.455C220.149 129.247 220.376 128.048 220.831 126.929C221.285 125.809 221.957 124.79 222.807 123.931C223.657 123.072 224.669 122.39 225.785 121.923C226.9 121.457 228.096 121.216 229.306 121.214C230.509 121.217 231.699 121.46 232.808 121.928C233.916 122.396 234.921 123.08 235.762 123.939C236.604 124.799 237.266 125.817 237.71 126.934C238.154 128.052 238.371 129.247 238.349 130.449V130.455C238.369 132.601 237.964 134.73 237.157 136.719C236.351 138.708 235.158 140.519 233.649 142.045C232.139 143.572 230.343 144.786 228.362 145.616C226.382 146.447 224.257 146.878 222.109 146.884C221.816 146.88 221.526 146.815 221.259 146.695C220.992 146.575 220.751 146.401 220.553 146.184C220.356 145.968 220.205 145.713 220.109 145.436C220.014 145.159 219.976 144.865 219.998 144.573H219.999Z" fill="#E3E8EB"/>
</svg>
