<svg xmlns="http://www.w3.org/2000/svg" xmlns:xlink="http://www.w3.org/1999/xlink" width="124" height="213.556" viewBox="0 0 124 213.556">
    <defs>
        <linearGradient id="linear-gradient" x1="-2.533" x2="-3.399" y1="1.01" y2=".04" gradientUnits="objectBoundingBox">
            <stop offset="0" stop-color="#ffdfba"/>
            <stop offset=".502" stop-color="#ffddb8"/>
            <stop offset=".682" stop-color="#ffd9b1"/>
            <stop offset=".811" stop-color="#ffd1a5"/>
            <stop offset=".915" stop-color="#ffc694"/>
            <stop offset="1" stop-color="#ffb980"/>
        </linearGradient>
        <linearGradient id="linear-gradient-2" x1="-2.509" x2="-3.343" y1=".915" y2=".032" xlink:href="#linear-gradient"/>
        <linearGradient id="linear-gradient-3" x1="-2.527" x2="-3.364" y1=".914" y2=".03" xlink:href="#linear-gradient"/>
        <linearGradient id="linear-gradient-4" x1="-2.782" x2="-3.679" y1=".898" y2=".05" xlink:href="#linear-gradient"/>
        <linearGradient id="linear-gradient-5" x1="-111.044" x2="-111.911" y1="1.01" y2=".04" xlink:href="#linear-gradient"/>
        <linearGradient id="linear-gradient-6" x1="-110.601" x2="-111.435" y1=".915" y2=".032" xlink:href="#linear-gradient"/>
        <linearGradient id="linear-gradient-7" x1="-111.758" x2="-112.596" y1=".914" y2=".03" xlink:href="#linear-gradient"/>
        <linearGradient id="linear-gradient-8" x1="-121.012" x2="-121.909" y1=".898" y2=".05" xlink:href="#linear-gradient"/>
        <clipPath id="clip-path">
            <path id="사각형_243" fill="#fff" stroke="#707070" d="M0 0H124V213.556H0z" transform="translate(75.35 569.542)"/>
        </clipPath>
        <clipPath id="clip-path-2">
            <path id="패스_12307" d="M191.4 784.061a8.722 8.722 0 0 0-8.722-8.722h-1.831a7.293 7.293 0 0 0-7.579 7.235s0 4.353 4.353 4.353h10.913a2.807 2.807 0 0 0 2.866-2.866z" class="cls-2" transform="translate(-173.266 -775.339)"/>
        </clipPath>
        <clipPath id="clip-path-3">
            <path id="패스_12312" d="M286.575 784.061a8.722 8.722 0 0 1 8.721-8.722h1.832a7.293 7.293 0 0 1 7.579 7.235s0 4.353-4.353 4.353h-10.913a2.807 2.807 0 0 1-2.866-2.866z" class="cls-2" transform="translate(-286.575 -775.339)"/>
        </clipPath>
        <style>
            .cls-16{fill:#fff}.cls-2{fill:none}.cls-4{fill:#57465a}.cls-5{fill:#4b3c4e}.cls-8{fill:#ffdfba}.cls-10{fill:#ffbc83}.cls-12{fill:#661a00}.cls-18{fill:#662144}.cls-19{fill:#996f50}.cls-20{fill:#42434d}.cls-22{fill:#fcbcf4}.cls-23{fill:#e598e3}.cls-24{fill:#292987}.cls-26{fill:#cec8be}.cls-28{fill:#ffb980}.cls-36{fill:#f96989}.cls-37{fill:#ed5a81}.cls-38{fill:#dd4a78}
        </style>
    </defs>
    <g id="img-littlegirl" clip-path="url(#clip-path)" transform="translate(-75.35 -569.542)">
        <path id="패스_12288" d="M372.9 631.361a13.754 13.754 0 0 0-11.952 6.923 27.457 27.457 0 0 1 6.441 17.739c0 .586-.034 1.137-.069 1.688a13.6 13.6 0 0 0 5.58 1.171 13.761 13.761 0 1 0 0-27.521z" class="cls-4" transform="translate(-187.227 -40.526)"/>
        <path id="패스_12289" d="M391.367 649.452a13.782 13.782 0 0 0-22.217 1.584 27.339 27.339 0 0 1 3.617 13.64c0 .586-.034 1.137-.069 1.688a13.6 13.6 0 0 0 5.58 1.171 13.781 13.781 0 0 0 13.089-18.083z" class="cls-5" transform="translate(-192.602 -49.179)"/>
        <g id="그룹_180" transform="translate(120.403 678.325)">
            <path id="패스_12290" fill="#f7c797" d="M206.15 894.267s1.055 7.88 18.171 7.88 18.461-7.188 18.461-7.188c-6.7-4.218-5.89-9.594-5.89-9.594l-12.937 2.472-12.937-2.472s.726 4.811-4.868 8.902z" transform="translate(-206.15 -885.365)"/>
        </g>
        <path id="패스_12291" fill="#322835" d="M360.95 638.941a27.428 27.428 0 0 1 6.372 19.427 13.877 13.877 0 0 0 8.642.826l.015-1.032c.405-9.227-1.579-18.673-6.131-25.8a13.781 13.781 0 0 0-8.898 6.579z" transform="translate(-187.227 -41.182)"/>
        <path id="패스_12292" d="M95.467 655.958a27.659 27.659 0 0 1 6.544-17.877 13.775 13.775 0 1 0-11.883 20.736 13.554 13.554 0 0 0 5.408-1.1 14.407 14.407 0 0 1-.069-1.759z" class="cls-4" transform="translate(-.655 -40.46)"/>
        <path id="패스_12293" d="M100.318 664.677a27.486 27.486 0 0 1 5.89-17.05 13.789 13.789 0 0 0-22.458 10.712 13.962 13.962 0 0 0 .689 4.34 13.712 13.712 0 0 0 10.54 4.891 13.554 13.554 0 0 0 5.408-1.1 15.274 15.274 0 0 1-.069-1.793z" class="cls-5" transform="translate(-5.507 -49.179)"/>
        <path id="패스_12294" d="M204.817 755.344c-24.9 16.533-58.349-1.481-58.349-31.413V702.61c-1.274-12.3 26.109-15.707 37.613-15.156 8.4.379 37.613 2.446 37.613 14.949v21.528a37.611 37.611 0 0 1-16.878 31.413z" class="cls-8" transform="translate(-46.594 -77.261)"/>
        <path id="패스_12295" d="M213.377 617.581a47.174 47.174 0 0 0-46.844-47.12h-.551c-25.907.153-47.128 21.431-46.741 47.4-.03 16.941-.247 35.255 15.224 49.566-7.82-10.292-5.552-25.524-5.821-37.738 0-1.894 1.768-2.458 3.582-3 6.3-1.87 39.5-1.836 42.585-3.47 3.22-1.708 3.66-8.877 8.141-4.845l3.157 5.2c2.048 2.786 17.8 3.283 17.8 7.086v16.611a37.6 37.6 0 0 1-5.821 20.15c15.728-14.438 15.023-32.933 15.293-49.841z" class="cls-5" transform="translate(-28.769 -.602)"/>
        <path id="패스_12296" d="M162.939 570.756a47.138 47.138 0 0 0-44.054 47.017s0 .172-.034.551c0 0 .379 15.948 1.033 20.977a41.252 41.252 0 0 0 5.029 16.293 59.9 59.9 0 0 0 9.266 12.021 37.6 37.6 0 0 1-5.821-20.116v-17.382a2.368 2.368 0 0 1 .1-.758 2.951 2.951 0 0 1 1.206-1.894 4.266 4.266 0 0 0 .792-2.273c1.757-20.46 16.12-39.865 33.928-45.066 5.375-1.586 4.032-9.542-1.445-9.37z" class="cls-4" transform="translate(-28.517 -.794)"/>
        <path id="패스_12297" fill="#ffebd2" d="M175.173 778.651c6.2 4.03 1.206 13.537-5.614 10.643a37.64 37.64 0 0 1-23.009-34.686v-17.381a3.039 3.039 0 0 1 3.686-2.962c.93.207 1.86.413 2.859.586a6.047 6.047 0 0 1 4.857 5.924v6.255a37.568 37.568 0 0 0 17.222 31.62z" transform="translate(-46.675 -107.939)"/>
        <path id="패스_12298" d="M244.76 831.958c-.705 0-1.257-.265-1.181-.57.228-.912 1.071-2.6 4.187-2.6s3.959 1.686 4.187 2.6c.076.305-.476.57-1.181.57z" class="cls-10" transform="translate(-110.279 -169.951)"/>
        <path id="패스_12300" d="M246.048 851.883c-.469.426-.924 1.266-10.655 1.266s-10.185-.865-10.625-1.266c0 0 2.03 9.657 10.644 9.657s10.636-9.657 10.636-9.657z" class="cls-12" transform="translate(-97.952 -185.09)"/>
        <path id="패스_12301" fill="#fff2ee" d="M246.048 851.882c-.259.243-.924.233-10.655.233s-10.341.09-10.625-.233l.383.731c.459.322 3.268 1.133 10.262 1.133s9.041-.275 10.263-1.133z" transform="translate(-97.952 -185.09)"/>
        <path id="패스_12302" d="M246.048 851.882c-.315.506-.924.233-10.655.233s-9.964.374-10.625-.233c0 0 .407.878.717.971a16.94 16.94 0 0 0 2.481.483c.879-.323 2.885-.669 7.447-.669 5.171 0 7.058.444 7.743.8a7.639 7.639 0 0 0 2.3-.57c.177-.089.592-1.015.592-1.015z" class="cls-12" transform="translate(-97.952 -185.09)"/>
        <path id="패스_12303" fill="#cc5700" d="M235.409 849.87c4.807 0 9.128 1.1 10.59-.517l.05-.06c-.909.827-5-.6-5.426-.706a21.1 21.1 0 0 0-10.428 0c-.424.1-4.517 1.533-5.426.706 1.423 1.654 5.831.577 10.64.577z" transform="translate(-97.952 -182.501)"/>
        <path id="패스_12304" fill="#f2a261" d="M235.417 862.892c9.873 0 10.64-11.047 10.64-11.047-1.423 1.653-3.374 8.214-10.64 8.214s-9.226-6.561-10.649-8.214c0 0 .775 11.047 10.649 11.047z" transform="translate(-97.952 -185.065)"/>
        <g id="그룹_182" transform="translate(108.915 640.309)">
            <g id="그룹_181">
                <path id="패스_12305" d="M191.4 784.061a8.722 8.722 0 0 0-8.722-8.722h-1.831a7.293 7.293 0 0 0-7.579 7.235s0 4.353 4.353 4.353h10.913a2.807 2.807 0 0 0 2.866-2.866z" class="cls-16" transform="translate(-173.105 -775.22)"/>
                <path id="패스_12306" d="M191.091 783.834a8.845 8.845 0 0 0-.555-3.03 8.618 8.618 0 0 0-6.878-5.509 9.712 9.712 0 0 0-1.532-.08l-1.549.016a8.137 8.137 0 0 0-2.975.577 7.314 7.314 0 0 0-2.511 1.663 6.779 6.779 0 0 0-1.574 2.553 6.958 6.958 0 0 0-.342 1.47 7.382 7.382 0 0 0-.052.756 4 4 0 0 0 .059.743 4.413 4.413 0 0 0 1.325 2.62 4.145 4.145 0 0 0 2.771.971l3.1.033 6.2.06 1.549.007a3.2 3.2 0 0 0 1.5-.295 2.441 2.441 0 0 0 1.077-1.069 3.525 3.525 0 0 0 .387-1.486zm0 0a3.531 3.531 0 0 1-.382 1.49 2.459 2.459 0 0 1-1.077 1.085 3.228 3.228 0 0 1-1.509.309l-1.549.007-6.2.06-3.1.031a4.375 4.375 0 0 1-2.964-.984 4.717 4.717 0 0 1-1.445-2.788 4.289 4.289 0 0 1-.07-.8 7.566 7.566 0 0 1 .048-.789 7.3 7.3 0 0 1 .345-1.545 7.076 7.076 0 0 1 1.671-2.665 7.618 7.618 0 0 1 2.631-1.713 8.2 8.2 0 0 1 3.083-.539l1.549.016a9.892 9.892 0 0 1 1.557.114 8.792 8.792 0 0 1 7.407 8.71z" class="cls-10" transform="translate(-172.798 -774.993)"/>
            </g>
        </g>
        <g id="그룹_184" transform="translate(109.077 640.428)">
            <g id="그룹_183" clip-path="url(#clip-path-2)">
                <circle id="타원_135" cx="5.622" cy="5.622" r="5.622" class="cls-18" transform="translate(4.478)"/>
                <circle id="타원_136" cx="3.589" cy="3.589" r="3.589" transform="translate(7.529 1.41)"/>
                <circle id="타원_137" cx="1.637" cy="1.637" r="1.637" class="cls-16" transform="translate(11.433 1.41)"/>
            </g>
        </g>
        <path id="패스_12308" d="M190.973 783.407a8.871 8.871 0 0 0-1.173-4.007 8.544 8.544 0 0 0-2.851-2.951 9.173 9.173 0 0 0-3.852-1.354 16.129 16.129 0 0 0-2.086-.067c-.358 0-.711 0-1.046.015a8.421 8.421 0 0 0-1.014.116 7.448 7.448 0 0 0-3.622 1.757 6.809 6.809 0 0 0-2.229 4.47c-.021.171-.023.343-.034.515a4 4 0 0 0 .028.5 5.133 5.133 0 0 0 .612 1.947 3.526 3.526 0 0 0 1.457 1.419 4.976 4.976 0 0 0 2.032.5 4.69 4.69 0 0 1-2.106-.351 3.769 3.769 0 0 1-1.648-1.409 5.232 5.232 0 0 1-.766-2.053 4.324 4.324 0 0 1-.057-.559c0-.183 0-.366.01-.549a7.293 7.293 0 0 1 .14-1.091 7.123 7.123 0 0 1 2.135-3.807 7.849 7.849 0 0 1 3.923-1.961 9.1 9.1 0 0 1 1.1-.134c.374-.022.732-.015 1.084-.015s.7 0 1.071.008a9.684 9.684 0 0 1 1.1.081 9.428 9.428 0 0 1 4.083 1.539 8.591 8.591 0 0 1 2.857 3.256 8.411 8.411 0 0 1 .852 4.185z" class="cls-19" transform="translate(-63.765 -134.257)"/>
        <path id="패스_12309" d="M174.943 745.906c3.8-3.425 9.381-4.451 14.357-4.254-4.092-2.975-12.851-.681-14.357 4.254z" class="cls-20" transform="translate(-65.289 -111.958)"/>
        <g id="그룹_185" transform="translate(148.105 640.309)">
            <path id="패스_12310" d="M286.575 784.061a8.722 8.722 0 0 1 8.721-8.722h1.832a7.293 7.293 0 0 1 7.579 7.235s0 4.353-4.353 4.353h-10.913a2.807 2.807 0 0 1-2.866-2.866z" class="cls-16" transform="translate(-286.575 -775.22)"/>
            <path id="패스_12311" d="M286.575 783.834a8.863 8.863 0 0 1 .531-3.038 8.881 8.881 0 0 1 6.875-5.672 9.9 9.9 0 0 1 1.558-.114l1.549-.016a8.2 8.2 0 0 1 3.083.539 7.618 7.618 0 0 1 2.631 1.713 7.076 7.076 0 0 1 1.671 2.665 7.3 7.3 0 0 1 .345 1.545 7.561 7.561 0 0 1 .048.789 4.262 4.262 0 0 1-.069.8 4.717 4.717 0 0 1-1.445 2.788 4.376 4.376 0 0 1-2.965.984l-3.1-.031-6.2-.06-1.549-.007a3.23 3.23 0 0 1-1.509-.309 2.46 2.46 0 0 1-1.077-1.085 3.531 3.531 0 0 1-.377-1.491zm0 0a3.524 3.524 0 0 0 .392 1.484 2.444 2.444 0 0 0 1.077 1.069 3.2 3.2 0 0 0 1.5.295l1.549-.007 6.2-.06 3.1-.033a4.145 4.145 0 0 0 2.771-.971 4.417 4.417 0 0 0 1.325-2.62 3.97 3.97 0 0 0 .059-.743 7.2 7.2 0 0 0-.052-.756 6.981 6.981 0 0 0-.341-1.47 6.776 6.776 0 0 0-1.574-2.553 7.307 7.307 0 0 0-2.511-1.663 8.134 8.134 0 0 0-2.975-.577l-1.549-.016a9.712 9.712 0 0 0-1.532.08 8.616 8.616 0 0 0-6.878 5.509 8.845 8.845 0 0 0-.561 3.032z" class="cls-10" transform="translate(-286.575 -774.993)"/>
        </g>
        <g id="그룹_187" transform="translate(148.105 640.428)">
            <g id="그룹_186" clip-path="url(#clip-path-3)">
                <circle id="타원_138" cx="5.622" cy="5.622" r="5.622" class="cls-18" transform="translate(2.411)"/>
                <circle id="타원_139" cx="3.589" cy="3.589" r="3.589" transform="translate(3.424 1.41)"/>
                <circle id="타원_140" cx="1.637" cy="1.637" r="1.637" class="cls-16" transform="translate(3.424 1.41)"/>
            </g>
        </g>
        <path id="패스_12313" d="M286.55 783.407a8.411 8.411 0 0 1 .855-4.179 8.591 8.591 0 0 1 2.857-3.256 9.429 9.429 0 0 1 4.083-1.539 9.678 9.678 0 0 1 1.1-.081c.366-.009.713 0 1.071-.008s.71-.008 1.084.015a9.1 9.1 0 0 1 1.1.134 7.849 7.849 0 0 1 3.923 1.961 7.125 7.125 0 0 1 2.135 3.807 7.337 7.337 0 0 1 .14 1.091c.014.183.008.366.01.549a4.384 4.384 0 0 1-.057.559 5.238 5.238 0 0 1-.766 2.053 3.77 3.77 0 0 1-1.648 1.409 4.689 4.689 0 0 1-2.105.351 4.977 4.977 0 0 0 2.032-.5 3.529 3.529 0 0 0 1.457-1.419 5.126 5.126 0 0 0 .612-1.947 4 4 0 0 0 .028-.5c-.011-.172-.013-.344-.034-.515a6.8 6.8 0 0 0-2.228-4.47 7.448 7.448 0 0 0-3.622-1.757 8.422 8.422 0 0 0-1.014-.116c-.335-.016-.688-.014-1.046-.015a16.136 16.136 0 0 0-2.086.067 9.171 9.171 0 0 0-3.851 1.354 8.547 8.547 0 0 0-2.851 2.951 8.87 8.87 0 0 0-1.179 4.001z" class="cls-19" transform="translate(-138.445 -134.257)"/>
        <path id="패스_12314" d="M310.214 745.906c-3.8-3.425-9.381-4.451-14.357-4.254 4.092-2.975 12.851-.681 14.357 4.254z" class="cls-20" transform="translate(-144.555 -111.958)"/>
        <path id="패스_12315" d="M182.289 911.9c-2.285 1.778-6.393 6.7-19.322 6.7s-15.541-5.435-17.31-7.39c-8.528 2.274-29.241 7.783-31.785 9.267l5.928 26.2v60.407h86.333v-60.412l5.928-26.2c-2.543-1.48-21.244-6.297-29.772-8.572z" class="cls-22" transform="translate(-25.253 -223.982)"/>
        <path id="패스_12316" d="M214.792 922.713c10.551 0 17.76-4.263 22.665-9.727-1.515-.4-2.9-.767-4.094-1.085-2.285 1.778-6.393 6.7-19.322 6.7s-15.541-5.435-17.31-7.39c-1.375.367-3.068.818-4.949 1.322 4.882 5.678 12.168 10.18 23.01 10.18z" class="cls-23" transform="translate(-76.328 -223.982)"/>
        <path id="사각형_242" d="M0 0H85.642V21.43H0z" class="cls-23" transform="translate(94.547 743.303)"/>
        <path id="패스_12317" d="M195.766 1015.737c-24.321.035-23.129.035-47.449 0-11.3 35.265-17 40.862-19.095 41.5a1.369 1.369 0 0 0-.973 1.309v17.054h87.586v-17.05a1.369 1.369 0 0 0-.973-1.309c-2.099-.641-7.796-6.241-19.096-41.504z" class="cls-24" transform="translate(-34.678 -292.506)"/>
        <path id="패스_12318" fill="#4f4f9e" d="M215.659 1052.507h-20.716l-.159 22.481a9.605 9.605 0 0 0 9.587 9.01H226.8a9.605 9.605 0 0 0 9.587-9.01l-.01-22.481z" transform="translate(-78.296 -316.61)"/>
        <circle id="타원_141" cx="2.299" cy="2.299" r="2.299" class="cls-26" transform="translate(117.659 723.884)"/>
        <path id="패스_12319" d="M188.9 1005.75a1.492 1.492 0 0 1-1.166-.55l-6.425-6.586a1.5 1.5 0 0 1 .7-2.4l8.772-2.718a1.5 1.5 0 0 1 1.935 1.566v.035l-1.8 9.126a1.5 1.5 0 0 1-1.122 1.3l-.488.176a1.631 1.631 0 0 1-.406.051zm2.329-11.63a.822.822 0 0 0-.244.037l-8.772 2.718a.808.808 0 0 0-.39 1.281l6.425 6.587a.826.826 0 0 0 .848.3l.488-.176a.826.826 0 0 0 .638-.721l.005-.036 1.8-9.124a.809.809 0 0 0-.8-.866z" class="cls-26" transform="translate(-69.232 -277.883)"/>
        <path id="패스_12320" d="M143.5 919.588a.4.4 0 0 0-.257.541l12.419 26.932a1.127 1.127 0 0 0 1.3.757l8.8-2.968a1.127 1.127 0 0 0 .846-1.456l-8.865-27.308a.4.4 0 0 0-.48-.259z" class="cls-24" transform="translate(-44.487 -227)"/>
        <circle id="타원_142" cx="2.299" cy="2.299" r="2.299" class="cls-26" transform="translate(152.573 723.615)"/>
        <path id="패스_12321" d="M299.784 1004.973a1.5 1.5 0 0 1-.368-.046l-.551-.2a1.485 1.485 0 0 1-1.091-1.288l-1.808-9.161a1.5 1.5 0 0 1 1.935-1.566l8.771 2.718a1.5 1.5 0 0 1 .721 2.373l-6.467 6.634a1.473 1.473 0 0 1-1.142.536zm-3.133-10.773l1.808 9.16a.81.81 0 0 0 .607.711l.551.195a.8.8 0 0 0 .8-.284l6.467-6.634a.789.789 0 0 0 .124-.72.8.8 0 0 0-.534-.538l-8.772-2.718a.809.809 0 0 0-1.046.829z" class="cls-26" transform="translate(-144.622 -277.37)"/>
        <path id="패스_12322" d="M322.648 919.588a.4.4 0 0 1 .257.541l-12.419 26.932a1.127 1.127 0 0 1-1.3.757l-8.8-2.968a1.127 1.127 0 0 1-.846-1.456l8.865-27.308a.4.4 0 0 1 .48-.259z" class="cls-24" transform="translate(-146.937 -227)"/>
        <g id="그룹_188" transform="translate(145.774 673.975)">
            <path id="패스_12323" d="M293.931 881.671s-.662-2.855-.827-3.818a14.8 14.8 0 0 1-.266-2.4 2.515 2.515 0 0 1 2.287-2.7c2.01-.335 2.04 3.812 2.295 5.362.273 1.659 1.376 4.785 1.463 6.564.116 2.36-.047 9.451-.047 9.451l2.068 3.658-10.42 6.538-1.72-5.3a42.364 42.364 0 0 1-5.371-5.877c-.985-1.443-3.586-5.566-3.586-5.566l7.951-9.6z" class="cls-8" transform="translate(-279.807 -872.733)"/>
        </g>
        <path id="패스_12324" fill="url(#linear-gradient)" d="M293.168 871.948c.376 1.219 2.119 3.016 2.846 4 .846 1.145 3.021 4.933 3.021 4.933l4.013-.675s-2.22-4.086-3.051-5.371a26.12 26.12 0 0 0-3.866-4.647c-.555-.448-1.574-1.226-2.528-.613s-.621 1.771-.435 2.373z" transform="translate(-142.654 -196.54)"/>
        <path id="패스_12325" d="M293.6 869.945a1.473 1.473 0 0 0-.643 1.366 6 6 0 0 0 .207 1.008c.376 1.219 2.119 3.016 2.846 4 .846 1.145 2.826 3.957 2.826 3.957s.569.962 1.039.688.1-.881.1-.881c-.688-1.252-5.864-6.669-6.219-8.476-.173-.874.396-1.885-.156-1.662z" class="cls-28" transform="translate(-142.645 -196.91)"/>
        <path id="패스_12326" fill="url(#linear-gradient-2)" d="M280.059 873.888a22.342 22.342 0 0 0 2.982 4.451c.859 1.1 3.64 5.194 3.64 5.194l3.313-1.991s-2.276-3.973-3.122-5.212a24.378 24.378 0 0 0-3.915-4.425 2.1 2.1 0 0 0-2.512-.445c-1.06.661-.582 1.832-.386 2.428z" transform="translate(-134.015 -197.746)"/>
        <path id="패스_12327" d="M285.744 882.482c-.89-1.3-2.166-3.136-2.7-3.819a22.342 22.342 0 0 1-2.982-4.451c-.163-.495-.517-1.386-.028-2.052a2.929 2.929 0 0 1 .412-.375c.054-.034.107-.062.161-.089.332-.121.061.545-.048 1.059-.2.957.613 1.8 1.478 3.015.772 1.084 1.728 2.148 2.244 2.809s1.549 2.128 2.369 3.306c0 0 .273.548-.071.776s-.835-.179-.835-.179z" class="cls-28" transform="translate(-134.019 -198.07)"/>
        <path id="패스_12328" fill="url(#linear-gradient-3)" d="M270.208 880.573a22.331 22.331 0 0 0 3.028 4.42c.87 1.089 3.693 5.156 3.693 5.156l3.292-2.025s-2.317-3.949-3.176-5.179a24.369 24.369 0 0 0-3.96-4.384c-.562-.409-1.845-1.187-2.517-.419a2.54 2.54 0 0 0-.36 2.431z" transform="translate(-127.639 -202.091)"/>
        <path id="패스_12329" d="M270.208 880.743a22.328 22.328 0 0 0 3.028 4.42c.87 1.089 3.693 5.156 3.693 5.156s.7.849 1.184.51-.087-1.186-.087-1.186c-.583-.722-3.563-4.415-4.388-5.487-.582-.755-1.429-2.019-2.011-2.757a3.12 3.12 0 0 1-.787-1.967c.074-.809.278-1.346.047-1.358a.924.924 0 0 0-.32.236 2.54 2.54 0 0 0-.359 2.433z" class="cls-28" transform="translate(-127.639 -202.261)"/>
        <path id="패스_12330" fill="url(#linear-gradient-4)" d="M271.383 893.443a24.083 24.083 0 0 1 3.272 3.95c.8 1.1 3.8 4.772 3.8 4.772l-2.6 3.512s-2.168-3.439-3.1-4.845a44.356 44.356 0 0 1-3.175-4.886c-.282-.65-.949-1.87-.147-2.628s1.496-.198 1.95.125z" transform="translate(-126.984 -212.004)"/>
        <path id="패스_12331" d="M273.2 900.52c-.64-.974-2.459-3.482-3.184-4.878-.615-1.183.259-2.683-.577-1.963-.8.759-.135 1.978.147 2.628a44.356 44.356 0 0 0 3.175 4.886s1.94 3.075 3.1 4.843c.183.278.347.525.481.721a42.376 42.376 0 0 0 5.371 5.878l.156.481a5.322 5.322 0 0 0 3.182 0c-2.723.631-11.109-11.462-11.851-12.596z" class="cls-28" transform="translate(-126.984 -212.367)"/>
        <path id="패스_12332" d="M318.837 878.616c-.65-3.571.039-4.427.477-5.18a.085.085 0 0 0-.107-.121 2.293 2.293 0 0 0-.98.691 2.854 2.854 0 0 0-.59 1.821 14.8 14.8 0 0 0 .266 2.4c.165.963.764 3.543.764 3.543l1.224 2.293a.125.125 0 0 0 .231-.088z" class="cls-28" transform="translate(-158.832 -199.136)"/>
        <g id="그룹_189" transform="translate(151.099 693.252)">
            <path id="패스_12333" d="M371.692 987.02s13.708-35.306 2.7-49.9c0 0-15.962-15.016-16.276 22.881s13.576 27.019 13.576 27.019z" class="cls-22" transform="translate(-336.465 -932.297)"/>
            <path id="패스_12334" d="M330.483 969.125c-4.971-11.852-18.785-40.4-18.785-40.4-4.169-.422-15.643 4.485-16.431 9.146 0 0 13.416 36.655 20.043 46.231 1.989 2.874 9.994 8.229 14.989.749 2.068-3.1 5.054-17.918 5.054-17.918z" class="cls-22" transform="translate(-295.267 -928.7)"/>
        </g>
        <path id="패스_12335" d="M357.688 939.8l12.042 33.306-14.378-28.239z" class="cls-23" transform="translate(-183.557 -242.725)"/>
        <g id="그룹_190" transform="translate(108.57 673.975)">
            <path id="패스_12336" d="M178.768 881.671s.662-2.855.827-3.818a14.76 14.76 0 0 0 .266-2.4 2.516 2.516 0 0 0-2.287-2.7c-2.01-.335-2.04 3.812-2.295 5.362-.273 1.659-1.375 4.785-1.463 6.564-.116 2.36.046 9.451.046 9.451l-2.068 3.658 10.42 6.538 1.72-5.3a42.359 42.359 0 0 0 5.371-5.877c.985-1.443 3.586-5.566 3.586-5.566l-7.952-9.6z" class="cls-8" transform="translate(-171.795 -872.733)"/>
        </g>
        <path id="패스_12337" fill="url(#linear-gradient-5)" d="M200.478 871.948c-.376 1.219-2.119 3.016-2.846 4-.846 1.145-3.021 4.933-3.021 4.933l-4.013-.675s2.22-4.086 3.05-5.371a26.121 26.121 0 0 1 3.866-4.647c.555-.448 1.575-1.226 2.528-.613s.622 1.771.436 2.373z" transform="translate(-75.551 -196.54)"/>
        <path id="패스_12338" d="M205.618 869.945a1.474 1.474 0 0 1 .643 1.366 5.991 5.991 0 0 1-.207 1.008c-.376 1.219-2.119 3.016-2.846 4-.846 1.145-2.826 3.957-2.826 3.957s-.569.962-1.039.688-.1-.881-.1-.881c.688-1.252 5.864-6.669 6.219-8.476.167-.874-.401-1.885.156-1.662z" class="cls-28" transform="translate(-81.127 -196.91)"/>
        <path id="패스_12339" fill="url(#linear-gradient-6)" d="M213.355 873.888a22.314 22.314 0 0 1-2.982 4.451c-.859 1.1-3.64 5.194-3.64 5.194l-3.312-1.991s2.275-3.973 3.122-5.212a24.392 24.392 0 0 1 3.915-4.425 2.1 2.1 0 0 1 2.512-.445c1.059.661.581 1.832.385 2.428z" transform="translate(-83.958 -197.746)"/>
        <path id="패스_12340" d="M213.846 882.482c.89-1.3 2.166-3.136 2.7-3.819a22.312 22.312 0 0 0 2.982-4.451c.163-.495.517-1.386.028-2.052a2.891 2.891 0 0 0-.412-.375c-.054-.034-.107-.062-.161-.089-.332-.121-.06.545.048 1.059.2.957-.613 1.8-1.478 3.015-.772 1.084-1.728 2.148-2.244 2.809s-1.549 2.128-2.368 3.306c0 0-.273.548.071.776s.834-.179.834-.179z" class="cls-28" transform="translate(-90.13 -198.07)"/>
        <path id="패스_12341" fill="url(#linear-gradient-7)" d="M223.291 880.573a22.332 22.332 0 0 1-3.028 4.42c-.87 1.089-3.693 5.156-3.693 5.156l-3.292-2.025s2.316-3.949 3.176-5.179a24.38 24.38 0 0 1 3.96-4.384c.562-.409 1.845-1.187 2.517-.419a2.538 2.538 0 0 1 .36 2.431z" transform="translate(-90.419 -202.091)"/>
        <path id="패스_12342" d="M226.934 880.743a22.33 22.33 0 0 1-3.028 4.42c-.87 1.089-3.693 5.156-3.693 5.156s-.7.849-1.184.51.087-1.186.087-1.186c.583-.722 3.563-4.415 4.388-5.487.582-.755 1.429-2.019 2.011-2.757a3.12 3.12 0 0 0 .787-1.967c-.074-.809-.279-1.346-.047-1.358a.92.92 0 0 1 .32.236 2.538 2.538 0 0 1 .359 2.433z" class="cls-28" transform="translate(-94.063 -202.261)"/>
        <path id="패스_12343" fill="url(#linear-gradient-8)" d="M223.566 893.443a24.066 24.066 0 0 0-3.272 3.95c-.8 1.1-3.805 4.772-3.805 4.772l2.6 3.512s2.168-3.439 3.1-4.845a44.352 44.352 0 0 0 3.175-4.886c.282-.65.95-1.87.147-2.628s-1.491-.198-1.945.125z" transform="translate(-92.524 -212.004)"/>
        <path id="패스_12344" d="M209.2 900.52c.64-.974 2.459-3.482 3.184-4.878.614-1.183-.259-2.683.576-1.963.8.759.135 1.978-.147 2.628a44.352 44.352 0 0 1-3.175 4.886s-1.94 3.075-3.1 4.843c-.183.278-.348.525-.481.721a42.371 42.371 0 0 1-5.371 5.878l-.156.481a5.321 5.321 0 0 1-3.181 0c2.725.631 11.11-11.462 11.851-12.596z" class="cls-28" transform="translate(-79.977 -212.367)"/>
        <path id="패스_12345" d="M189.276 878.616c.65-3.571-.039-4.427-.477-5.18a.085.085 0 0 1 .107-.121 2.292 2.292 0 0 1 .98.691 2.854 2.854 0 0 1 .589 1.821 14.76 14.76 0 0 1-.266 2.4c-.165.963-.764 3.543-.764 3.543l-1.224 2.293a.125.125 0 0 1-.231-.088z" class="cls-28" transform="translate(-73.839 -199.136)"/>
        <g id="그룹_191" transform="translate(82.136 693.252)">
            <path id="패스_12346" d="M102.029 987.02s-13.708-35.306-2.7-49.9c0 0 15.961-15.016 16.276 22.881s-13.576 27.019-13.576 27.019z" class="cls-22" transform="translate(-95.05 -932.297)"/>
            <path id="패스_12347" d="M106.075 969.125c4.971-11.852 18.785-40.4 18.785-40.4 4.169-.422 15.643 4.485 16.431 9.146 0 0-13.416 36.655-20.043 46.231-1.989 2.874-9.994 8.229-14.989.749-2.067-3.1-5.054-17.918-5.054-17.918z" class="cls-22" transform="translate(-99.086 -928.7)"/>
        </g>
        <path id="패스_12348" d="M128.539 942.107l-11.066 32.329 13.4-27.263z" class="cls-23" transform="translate(-27.614 -244.237)"/>
        <path id="패스_12349" d="M297.857 944.618a6.81 6.81 0 0 0-2.59 3.689s3.884 10.611 8.5 21.905z" class="cls-23" transform="translate(-144.168 -245.883)"/>
        <path id="패스_12350" d="M198.808 944.618a6.809 6.809 0 0 1 2.59 3.689s-3.884 10.611-8.5 21.905z" class="cls-23" transform="translate(-77.057 -245.883)"/>
        <g id="그룹_193" transform="translate(81.551 588.967)">
            <path id="패스_12351" d="M119.106 627.761c-1 2.661-.374 8.294 1.087 11.533a2.626 2.626 0 0 1 2.018-.069c3.129 1.211 3.283 1.17 3.768 1.52 4.146-5.543 9.189-5.414 6.56-9.909-2.999-5.129-12.19-6.364-13.433-3.075z" class="cls-36" transform="translate(-109.915 -625.936)"/>
            <path id="패스_12352" d="M136.779 645.209a4.457 4.457 0 0 1 1.107.515c4.2-5.609 10.543-5.971 5.569-11.21a9.278 9.278 0 0 0-.691-.655c-3.792-2.553-5.876 10.641-5.985 11.35z" class="cls-37" transform="translate(-121.821 -630.916)"/>
            <path id="패스_12353" d="M103.394 679.227a2.627 2.627 0 0 1-1.469-1.386c-3.238 1.465-7.434 5.274-8.439 7.936-1.242 3.29 6.471 8.438 12.113 6.572 4.944-1.635 1.074-4.872 1.627-11.772-.598-.059-.719-.204-3.832-1.35z" class="cls-36" transform="translate(-93.352 -659.963)"/>
            <g id="그룹_192" transform="translate(0 20.269)">
                <path id="패스_12354" d="M106.784 700.676c-4.977 1.646-11.565-2.167-12.2-5.346a8.234 8.234 0 0 0-1.1 1.912c-1.242 3.289 6.471 8.438 12.113 6.572 2.388-.789 2.719-1.953 2.487-3.722a6.043 6.043 0 0 1-1.3.584z" class="cls-37" transform="translate(-93.352 -691.696)"/>
                <path id="패스_12355" d="M121.646 684.781c-.387.6-7.544 11.883-3.011 12.474a8.375 8.375 0 0 0 1.979-.2 4.649 4.649 0 0 0 2.715-1.517c1.3-1.9-.942-5.066-.512-10.415a8.237 8.237 0 0 1-1.171-.342z" class="cls-37" transform="translate(-108.944 -684.781)"/>
            </g>
            <path id="패스_12356" d="M122.876 704.42a4.648 4.648 0 0 1-2.715 1.517 8.356 8.356 0 0 1-1.979.2 1.77 1.77 0 0 1-.859-.325c-.415 1.8-.211 3.2 1.311 3.4a8.363 8.363 0 0 0 1.979-.2 4.648 4.648 0 0 0 2.715-1.517c.719-1.055.352-2.5-.044-4.48a2.534 2.534 0 0 1-.408 1.405z" class="cls-38" transform="translate(-108.944 -676.466)"/>
            <path id="패스_12357" d="M117.934 665.577l-.4 1.047a2.7 2.7 0 0 0 1.572 3.481l3.162 1.194a2.7 2.7 0 0 0 3.481-1.572l.4-1.047a2.7 2.7 0 0 0-1.572-3.481L121.414 664a2.7 2.7 0 0 0-3.48 1.577z" class="cls-37" transform="translate(-109.093 -650.778)"/>
            <path id="패스_12358" d="M123.425 669.816l-3.162-1.194a2.7 2.7 0 0 1-1.743-2.4 5.355 5.355 0 0 0-.981 1.97 2.7 2.7 0 0 0 1.572 3.481l3.163 1.194a2.7 2.7 0 0 0 3.481-1.572l.4-1.047a2.684 2.684 0 0 0 .171-1.08 2.7 2.7 0 0 1-2.901.648z" class="cls-38" transform="translate(-109.094 -652.345)"/>
        </g>
    </g>
</svg>
