<svg width="1226" height="916" viewBox="0 0 1226 916" fill="none" xmlns="http://www.w3.org/2000/svg">
<g clip-path="url(#clip0)">
<path d="M821.488 57.9478C821.488 57.9478 677.349 283.375 515.497 31.2516C515.497 31.2516 528.035 67.155 527.558 107.882C526.893 172.169 469.054 220.922 405.332 212.854C361.259 207.291 298.254 188.301 240.061 129.98C240.061 129.98 399.617 368.476 83.4328 370.337C83.4328 370.337 466.535 444.581 89.1161 618.278C89.1161 618.278 471.358 534.948 243.229 844.472C243.229 844.472 511.663 601.371 599.558 842.287C599.558 842.287 689.283 625.453 884.953 789.989C884.953 789.989 781.336 550.531 1090.95 618.299C1090.95 618.299 876.84 469.17 1170.32 396.486C1170.32 396.486 902.094 396.02 1056.08 193.415C1056.08 193.415 866.855 313.592 821.488 57.9478Z" fill="white"/>
<path d="M821.488 57.9479C812.571 71.4188 802.365 84.0781 791.016 95.6451C779.749 107.327 767.356 117.817 753.866 126.919C740.36 136.119 725.489 143.078 709.859 147.791C694.047 152.374 677.535 153.708 661.145 151.719C652.999 150.733 644.994 148.857 637.098 146.291C629.317 143.641 621.728 140.414 614.431 136.626C599.852 128.951 586.621 119.16 574.466 108.325C562.327 97.3918 551.15 85.4969 540.92 72.7395C530.674 60.0808 521.114 46.9234 512.241 33.2672L518.939 29.9744C521.971 38.9593 524.363 48.1467 526.329 57.469C528.295 66.7913 529.751 76.1341 530.682 85.5963C531.712 95.0741 532.004 104.739 531.604 114.294C530.976 124.015 529.147 133.648 525.966 142.864C522.785 152.079 518.45 160.91 513.024 168.96C507.582 177.109 501.065 184.379 493.752 190.916C478.945 203.859 461.031 212.766 441.861 216.817C432.227 218.835 422.385 219.605 412.648 219.075C410.215 219.095 407.746 218.704 405.345 218.526C402.958 218.249 400.588 217.874 398.202 217.597C395.816 217.32 393.461 216.846 391.189 216.486C388.918 216.126 386.448 215.735 384.208 215.178C374.888 213.297 365.63 211.021 356.45 208.25C351.933 206.725 347.385 205.397 342.899 203.674L336.204 201.196L329.556 198.422C294.321 183.729 262.411 161.463 235.266 134.687L245.621 126.203C250.348 133.431 254.301 140.436 258.207 147.737C262.014 155.022 265.592 162.474 268.843 170.076C275.542 185.311 280.619 201.201 284.006 217.532C287.279 233.946 288.731 250.983 286.42 268.133C284.275 285.511 277.717 301.988 267.474 316.16C257.147 330.218 243.329 341.394 228.384 349.455C220.953 353.543 213.304 357.09 205.354 359.982C201.454 361.592 197.419 362.775 193.467 364.073C189.433 365.256 185.497 366.455 181.394 367.425C149.122 375.577 116.114 378.145 83.3352 378.623L84.8769 361.858C94.2961 363.755 103.273 365.886 112.302 368.328C121.347 370.672 130.345 373.312 139.213 376.134C157.161 381.71 174.709 388.54 191.757 396.606C200.421 400.712 208.711 405.265 216.808 410.394C225.103 415.556 232.862 421.543 240.002 428.242C247.209 435.155 253.85 443.091 258.383 452.82C263.099 462.68 265.012 473.613 263.9 484.473C262.59 495.302 258.494 505.182 253.384 513.789C248.207 522.183 242.106 530.025 235.209 537.133C221.737 550.592 206.957 562.729 191.028 573.165C159.763 594.133 126.592 611.153 93.0319 626.796L86.984 608.727C96.5195 606.694 105.665 605.206 114.992 603.849C124.319 602.491 133.615 601.331 143.062 600.498C161.887 598.62 180.821 597.974 199.781 598.446C218.808 599.131 238.027 601.162 257.01 606.599C266.715 609.25 276.035 613.055 284.787 617.883C294.002 622.988 302.161 629.646 308.884 637.697C315.675 645.961 320.505 655.737 323.006 666.156C325.356 676.248 326.048 686.584 325.014 696.949C324.156 706.837 322.212 716.553 319.38 726.127C318.807 728.466 318.036 730.774 317.167 733.067C316.298 735.359 315.626 737.682 314.757 739.975C312.935 744.445 311.394 749.06 309.39 753.4C301.672 770.807 292.733 787.616 282.702 803.644C272.77 819.688 262.126 835.113 251.118 850.277L236.412 837.013C243.594 830.659 250.584 824.881 257.87 819.15C265.157 813.42 272.51 807.902 280.046 802.515C295.018 791.724 310.489 781.62 326.542 772.316C342.611 762.914 359.23 754.511 376.384 747.204C393.653 739.815 411.675 734.063 430.122 730.1C448.735 726.366 468.138 724.68 487.507 727.039C507.105 729.232 525.968 736.067 542.48 746.883C550.644 752.226 558.257 758.495 565.137 765.558C571.835 772.491 577.93 780.037 583.338 788.082C593.972 804.042 602.068 821.322 608.605 838.86L590.649 838.446C591.487 836.351 592.247 834.75 593.137 832.968C594.011 831.284 594.802 829.485 595.676 827.801C597.424 824.433 599.272 821.081 601.119 817.729C604.896 811.139 608.954 804.694 613.277 798.494C621.955 785.896 631.807 774.193 642.802 763.583C653.928 752.79 666.43 743.532 679.966 736.058C693.715 728.516 708.617 723.282 724.116 720.675C739.599 718.166 755.382 718.236 770.774 720.775C778.38 721.98 785.891 723.777 793.324 726.068C795.169 726.563 796.999 727.156 798.813 727.848L804.287 729.728C807.8 731.195 811.444 732.481 814.942 734.048C842.973 746.283 867.856 763.69 890.633 782.89L876.857 793.161C875.969 791.097 875.33 789.376 874.624 787.441C873.902 785.606 873.295 783.687 872.672 781.868C871.442 778.129 870.211 774.391 869.096 770.569C866.848 763.024 865.027 755.345 863.533 747.515C860.63 731.969 859.005 716.019 860.058 699.784C861.095 683.647 864.809 667.226 872.827 652.398C876.844 644.934 881.87 638.137 887.773 632.187C893.677 626.237 900.359 621.12 907.609 616.902C914.743 612.767 922.163 609.386 930.051 606.889C937.642 604.346 945.535 602.457 953.448 601.078C969.176 598.304 984.954 597.766 1000.59 598.116C1031.85 598.916 1062.52 604.078 1092.66 610.674L1086.77 624.219C1080.6 619.698 1075.04 615.173 1069.53 610.351C1064.01 605.529 1058.73 600.541 1053.59 595.272C1043.2 584.817 1033.9 573.22 1025.95 560.723C1018.04 548.029 1011.78 533.875 1009.57 518.439C1007.3 502.691 1010.33 486.769 1018.09 472.913C1021.89 466.224 1026.51 460.071 1031.84 454.536C1037.05 449.085 1042.7 444.108 1048.77 439.702C1060.7 430.86 1073.74 423.915 1086.96 417.808C1113.48 405.707 1141.3 397.558 1169.11 390.725L1170.47 401.976C1156.55 401.595 1142.67 400.408 1128.94 398.234C1115.18 396.257 1101.59 393.193 1088.24 389.257C1074.8 385.304 1061.78 379.902 1049.51 372.997C1037.37 365.911 1025.87 356.698 1017.54 344.748C1013.31 338.814 1010.1 332.231 1007.86 325.294C1005.72 318.374 1004.43 311.183 1004.25 303.967C1004.06 296.85 1004.7 289.661 1006.1 282.695C1007.4 275.812 1009.28 269.024 1011.74 262.428C1016.54 249.418 1022.68 236.824 1030.02 225.026C1037.24 213.312 1045.02 201.889 1053.52 191.084L1058.01 195.947C1051.86 199.63 1045.47 202.871 1038.94 205.785C1032.5 208.714 1025.81 211.3 1019.17 213.589C1005.68 218.235 991.814 221.405 977.704 222.917C963.48 224.511 949.106 223.854 935.19 220.942C921.175 218.013 907.895 212.366 896.01 204.308C884.321 196.28 873.95 186.335 865.538 174.878C856.997 163.604 850.255 151.196 844.496 138.337C833.013 113.029 826.232 85.5295 821.488 57.9479ZM821.488 57.9479C826.757 85.4102 834.193 112.608 845.972 137.963C851.976 150.557 858.962 162.7 867.566 173.58C876.056 184.543 886.194 194.046 897.846 201.662C909.415 209.164 922.363 214.354 935.816 216.991C949.383 219.545 963.196 219.91 976.844 218.123C990.491 216.336 1003.96 213.103 1016.98 208.28C1023.42 205.959 1029.83 203.228 1036.05 200.366C1042.27 197.505 1048.36 194.217 1054.19 190.684L1069.35 181.24L1058.68 195.547C1050.6 206.315 1043.04 217.572 1036.23 229.251C1029.36 240.716 1023.68 252.878 1019.15 265.525C1016.95 271.757 1015.22 278.166 1014.09 284.669C1012.88 291.058 1012.45 297.572 1012.74 304.096C1013.23 316.932 1017.44 329.344 1024.99 339.854C1032.46 350.25 1042.92 358.386 1054.34 364.853C1065.99 371.253 1078.26 376.234 1091.08 379.682C1103.96 383.343 1117.1 386.032 1130.39 387.832C1143.65 389.73 1156.96 390.724 1170.39 390.928L1213.36 391.354L1171.75 402.179C1144.4 409.288 1117.36 417.661 1092.09 429.554C1079.49 435.558 1067.28 442.331 1056.47 450.54C1045.65 458.749 1036.01 468.461 1029.86 479.838C1023.62 491.101 1021.34 504.206 1023.28 516.865C1025.21 529.624 1030.72 542.14 1037.93 553.508C1045.42 565.022 1054.06 575.704 1063.87 585.358C1068.76 590.283 1073.79 594.928 1079.14 599.521C1084.4 604 1089.98 608.427 1095.34 612.313L1124.92 633.299L1089.45 625.858C1059.95 619.668 1030.02 614.928 1000.33 614.477C985.482 614.251 970.691 614.946 956.294 617.627C949.218 618.835 942.147 620.651 935.393 623.024C928.67 625.199 922.217 628.226 916.179 631.826C904.25 638.745 894.435 648.935 887.858 661.056C881.38 673.192 878.056 687.144 877.317 701.403C876.462 715.746 877.895 730.35 880.675 744.763C882.065 751.969 883.865 759.139 885.994 766.158C887.058 769.668 888.122 773.177 889.399 776.62C890.038 778.341 890.676 780.062 891.315 781.783C891.953 783.504 892.691 785.241 893.278 786.65L907.657 820.516L879.387 797.004C857.389 778.637 833.634 762.421 807.848 751.351C804.646 749.832 801.382 748.707 798.133 747.484L793.237 745.797C791.605 745.235 789.972 744.673 788.325 744.209C781.765 742.158 775.012 740.683 768.197 739.604C754.78 737.377 741.004 737.423 727.491 739.636C714.062 741.964 701.177 746.606 689.294 753.228C677.298 759.934 666.153 768.294 656.317 777.974C646.269 787.722 637.28 798.448 629.367 810.053C625.419 815.806 621.636 821.788 618.135 827.916C616.433 830.988 614.732 834.059 613.129 837.147C612.369 838.747 611.526 840.234 610.767 841.835C610.022 843.337 609.247 845.037 608.732 846.372L599.197 868.858L590.51 845.714C584.41 829.257 576.9 813.387 567.315 799.111C562.556 792.08 557.127 785.449 551.208 779.349C545.373 773.362 538.836 767.973 531.861 763.426C517.813 754.316 501.819 748.543 485.2 746.721C468.398 744.768 451.179 746.091 434.126 749.566C400.086 756.729 367.426 771.806 336.661 789.612C321.263 798.614 306.349 808.402 291.834 818.86C284.626 824.097 277.402 829.432 270.444 835.013C263.501 840.494 256.412 846.256 249.932 852.013L179.984 913.933L235.143 838.635C245.989 823.85 256.357 808.887 265.899 793.389C275.509 778.104 284.011 762.138 291.375 745.687C293.233 741.628 294.711 737.407 296.372 733.317C297.111 731.206 297.835 729.195 298.574 727.084C299.313 724.974 300.037 722.962 300.578 720.821C303.093 712.613 304.751 704.067 305.602 695.495C307.144 678.73 303.871 662.316 293.828 650.296C288.632 644.107 282.36 638.963 275.275 635.107C267.812 631.09 259.927 627.816 251.672 625.598C235.013 620.833 217.109 618.807 199.2 618.097C181.062 617.553 162.949 618.126 144.945 619.932C135.893 620.827 126.826 621.821 117.811 623.127C108.894 624.448 99.7491 625.936 91.0664 627.699L9.83821 644.499L85.0184 609.631C118.022 594.305 150.689 577.913 180.679 557.959C195.578 548.271 209.397 537.095 222.005 524.613C227.924 518.565 233.245 511.814 237.725 504.627C241.976 497.605 244.989 490.084 245.981 482.546C246.873 474.993 245.546 467.392 242.269 460.595C239.023 453.601 233.874 447.116 227.825 441.197C221.579 435.247 214.714 430.008 207.444 425.414C199.991 420.69 192.179 416.314 184.274 412.531C167.984 404.788 151.31 398.198 134.151 392.747C125.58 389.972 116.879 387.379 108.13 385.082C99.3818 382.785 90.519 380.571 81.8899 378.8L2.87666 362.438L83.4315 362.034C115.258 361.81 147.201 359.58 177.638 352.15C181.428 351.231 185.151 350.1 188.957 349.083C192.597 347.837 196.403 346.82 199.975 345.36C207.171 342.754 214.248 339.623 221.008 335.935C234.497 328.756 246.454 319.108 255.318 307.249C264.214 295.192 269.887 281.106 271.937 266.244C274.102 251.298 273.023 235.738 270.072 220.489C266.939 205.109 262.33 190.103 256.114 175.653C253.113 168.394 249.7 161.171 246.143 154.229C242.585 147.287 238.648 140.184 234.486 133.855L200.252 80.2397L244.841 125.371C270.5 151.304 300.778 173.007 334.334 187.434L340.587 190.146L346.985 192.577C351.273 194.269 355.609 195.664 359.944 197.059C368.614 199.85 377.461 202.162 386.485 203.997C388.726 204.554 390.997 204.914 393.17 205.258C395.343 205.602 397.698 206.076 399.97 206.436C402.241 206.796 404.513 207.156 406.702 207.401C408.906 207.548 411.063 207.991 413.283 208.038C422.1 208.625 431.005 208.011 439.787 206.263C466.23 201.035 489.715 185.72 505.171 163.565C510.275 156.274 514.386 148.218 517.327 139.875C520.284 131.434 522.186 122.623 522.886 113.723C523.421 104.594 523.233 95.5535 522.452 86.419C521.672 77.2844 520.382 68.1704 518.665 59.1913C516.949 50.2122 514.723 41.2537 511.956 32.5133L503.017 4.57091L518.653 29.2205C535.838 56.2414 555.217 82.1924 578.606 103.919C590.366 114.691 603.088 124.502 616.959 132.166C623.945 136.006 631.123 139.269 638.691 141.987C646.176 144.59 653.869 146.517 661.802 147.571C677.652 149.778 693.706 148.777 709.143 144.641C724.596 140.406 739.306 133.826 752.832 125.135C766.358 116.444 779.001 106.297 790.418 94.943C801.835 83.5891 812.29 71.2731 821.488 57.9479Z" fill="black"/>
<path d="M576.346 29.8261C588.315 48.225 602.916 64.712 619.904 77.6286C628.308 84.0219 637.621 89.1419 647.435 93.0249C657.165 96.7934 667.489 98.7323 677.897 98.8621C688.32 98.893 698.781 97.4112 708.769 94.4371L716.246 91.9764C717.525 91.5715 718.721 91.0522 719.917 90.5329L723.604 88.9907C728.569 87.0435 733.234 84.4412 738.065 82.0676L739.833 81.1327L741.518 80.0834L744.986 78.0003L751.923 73.8342C756.37 70.6911 760.884 67.7612 765.247 64.5036C769.511 61.2305 773.974 57.9886 778.269 54.5179C782.466 51.0315 786.664 47.5451 790.959 44.0744C787.459 48.2785 783.76 52.4514 780.078 56.5254C776.296 60.5839 772.265 64.299 768.302 68.2274C764.172 71.9269 759.877 75.3977 755.648 79.0816C753.459 80.7597 751.186 82.3234 748.898 83.9859L745.481 86.3809L743.765 87.6278L741.966 88.7603C737.155 91.6433 732.413 94.7395 727.187 97.0504L723.355 98.8734C722.143 99.4914 720.833 100.094 719.439 100.582L711.473 103.573C700.57 107.212 689.059 108.932 677.518 108.927C665.909 108.708 654.447 106.285 643.807 101.866C633.266 97.4631 623.516 91.2615 614.89 83.7192C606.43 76.4057 598.849 68.0165 592.297 58.8791C585.928 49.8719 580.588 40.1164 576.346 29.8261Z" fill="black"/>
<path d="M635.329 55.6713C648.297 61.3701 662.005 64.9586 676.171 66.291C690.025 67.6753 703.953 66.034 717.186 61.7513C723.794 59.6594 730.133 56.7147 736.056 53.198C737.611 52.3305 739.067 51.4475 740.539 50.4656C742.011 49.4837 743.467 48.6006 744.855 47.5044C747.617 45.4106 750.477 43.3325 753.072 41.0099C763.635 31.8495 772.92 21.1705 781.525 9.67497C775.02 22.6168 766.483 34.3255 756.076 44.4217C745.621 54.8142 732.943 62.627 719.039 67.3097C712.087 69.651 704.767 71.124 697.488 71.6923C690.21 72.2607 682.874 71.9089 675.55 70.8501C668.324 69.8069 661.338 67.8904 654.544 65.3969C647.751 62.9035 641.28 59.6512 635.329 55.6713Z" fill="black"/>
<path d="M646.271 863.63C647.818 857.699 649.76 851.831 652.18 846.139C654.502 840.432 657.301 834.902 660.283 829.502C666.36 818.619 673.841 808.464 682.646 799.531C691.483 790.401 701.879 782.936 713.309 777.254C724.822 771.686 737.321 768.199 750.053 767.077C762.817 765.757 775.538 767.266 787.889 769.829C790.903 770.61 794.048 771.21 797.048 772.09L805.998 775.026C807.433 775.557 808.982 776.005 810.417 776.536L814.689 778.326L823.317 782.022C845.828 792.674 866.148 806.929 884.544 823.105C863.709 810.187 842.535 798.126 820.268 789.132C808.957 785.113 797.761 781.011 786.023 779.051L781.708 778.165L777.331 777.674L772.954 777.184C771.473 776.949 770.074 776.829 768.561 776.792L759.796 776.517L751.104 777.064C739.505 778.062 728.103 781.014 717.505 785.917C706.794 790.903 696.965 797.344 688.217 805.274C685.98 807.248 683.926 809.352 681.772 811.441C679.801 813.66 677.747 815.765 675.76 818.082C673.871 820.416 671.801 822.619 670.012 824.968L667.213 828.575L664.612 832.213C657.391 842.004 651.361 852.591 646.271 863.63Z" fill="black"/>
<path d="M81.58 662.517C93.3724 659.019 105.367 656.16 117.45 654.024C129.648 651.805 141.834 650.292 154.124 649.404C166.529 648.433 178.991 648.381 191.327 649.12C203.959 649.906 216.357 652.173 228.438 655.808C234.602 657.797 240.476 660.347 246.156 663.474C251.92 666.716 257.148 670.784 261.757 675.564C266.351 680.442 270.013 686.085 272.464 692.345C274.832 698.491 276.232 704.99 276.515 711.515C277.195 724.481 274.205 736.967 270.124 748.672C265.86 760.248 260.344 771.423 253.836 781.833C258.38 770.403 262.627 758.926 265.492 747.23C268.456 735.55 270.052 723.552 268.826 712.119C268.205 706.452 266.746 700.957 264.534 695.746C262.208 690.619 259.08 686.074 255.152 682.111C247.295 674.184 236.796 668.876 225.62 665.284C214.216 661.858 202.64 659.518 190.745 658.545C178.768 657.458 166.697 656.964 154.63 657.078C130.04 657.638 105.756 659.461 81.58 662.517Z" fill="black"/>
<path d="M1078.92 839.104C1072.82 839.104 1067.22 838.104 1062.32 836.204C1059.72 835.204 1057.22 833.804 1055.02 832.204C1052.72 830.504 1050.62 828.604 1048.82 826.304C1045.12 821.704 1042.62 816.504 1041.42 810.704C1040.32 805.304 1040.42 799.504 1041.72 793.504C1042.72 788.904 1044.42 784.204 1046.72 779.504C1049.02 774.904 1051.92 770.504 1055.42 766.304C1062.42 757.704 1071.42 750.504 1081.42 745.404C1085.22 743.504 1088.92 741.804 1092.52 740.304C1093.32 740.004 1094.12 739.704 1094.92 739.304L1098.22 734.404L1016.32 763.304L1011.82 764.904L1013.82 760.604L1029.72 726.904L1030.12 726.004L1031.02 725.804L1063.12 717.804L1065.12 713.604L1095.02 649.804L1080.52 653.204L1076.72 654.104L1078.22 650.504L1089.62 623.604L1090.02 622.704L1091.02 622.504L1206.32 596.004L1211.12 594.904L1208.42 599.104L1190.62 626.204L1190.22 626.904L1189.42 627.104L1130.22 641.404L1117.62 664.504L1202.12 642.304L1206.92 641.004L1204.32 645.204L1186.02 675.204L1185.62 675.904L1184.92 676.104L1067.52 716.404L1063.32 717.804L1215.12 680.004L1220.92 678.604L1217.12 683.204L1195.42 710.004L1195.02 710.504L1194.42 710.704L1141.42 724.504L1131.82 735.104C1134.62 735.704 1137.32 736.604 1139.82 737.804C1142.52 739.004 1145.22 740.604 1147.62 742.504C1150.02 744.304 1152.42 746.504 1154.52 749.004C1157.42 752.304 1159.42 756.104 1160.62 760.404C1161.72 764.404 1162.12 768.804 1161.62 773.404C1160.92 781.204 1158.02 789.604 1153.32 797.604C1151.02 801.504 1148.32 805.204 1145.32 808.604C1142.32 812.104 1139.02 815.204 1135.52 818.004C1128.32 823.704 1119.02 828.904 1109.52 832.704C1098.82 836.804 1088.22 839.104 1078.92 839.104ZM1111.02 761.104C1107.52 761.104 1103.62 761.704 1099.92 762.904C1096.22 764.004 1092.62 765.704 1089.52 767.604C1085.42 770.204 1081.32 773.904 1078.02 777.904C1074.42 782.304 1072.02 786.904 1071.22 791.104C1070.82 793.104 1070.82 795.104 1071.12 796.904C1071.42 798.804 1072.22 800.604 1073.32 802.204C1074.82 804.304 1076.82 806.004 1079.32 807.104C1081.82 808.204 1084.82 808.804 1088.12 808.804C1092.22 808.804 1096.82 807.904 1101.42 806.204C1105.92 804.504 1110.12 802.204 1113.82 799.404C1117.72 796.304 1121.12 792.704 1123.62 788.804C1124.82 786.904 1125.82 785.004 1126.62 783.104C1127.32 781.204 1127.82 779.304 1128.02 777.504C1128.22 775.504 1128.12 773.504 1127.72 771.704C1127.22 769.904 1126.42 768.204 1125.22 766.704C1123.72 764.904 1121.72 763.404 1119.22 762.504C1116.82 761.504 1114.02 761.104 1111.02 761.104Z" fill="black"/>
<path d="M1078.92 837.104C1088.02 837.104 1098.32 834.904 1108.92 830.704C1118.32 827.004 1127.32 821.904 1134.42 816.304C1137.82 813.604 1141.02 810.604 1144.02 807.204C1146.92 803.904 1149.52 800.204 1151.72 796.504C1156.32 788.704 1159.12 780.704 1159.82 773.204C1160.22 768.804 1159.92 764.704 1158.82 760.904C1157.72 756.904 1155.82 753.404 1153.12 750.304C1151.02 748.004 1148.82 745.904 1146.52 744.104C1144.22 742.304 1141.72 740.804 1139.12 739.604C1136.52 738.404 1133.72 737.504 1130.82 736.904C1129.92 736.704 1128.92 736.504 1128.02 736.404L1140.42 722.704L1194.02 708.804L1215.62 682.004L1031.52 727.804L1015.62 761.404L1103.32 730.804L1096.22 741.204C1095.22 741.604 1094.22 742.004 1093.22 742.404C1089.72 743.804 1086.02 745.504 1082.32 747.404C1072.62 752.404 1063.82 759.404 1056.92 767.804C1053.62 771.904 1050.72 776.204 1048.52 780.604C1046.22 785.104 1044.62 789.604 1043.72 794.104C1042.52 799.804 1042.42 805.304 1043.52 810.504C1044.62 815.904 1046.92 820.904 1050.52 825.204C1052.22 827.304 1054.22 829.204 1056.32 830.704C1058.42 832.204 1060.72 833.404 1063.12 834.404C1067.72 836.204 1073.02 837.104 1078.92 837.104ZM1111.02 759.104C1114.32 759.104 1117.32 759.604 1119.92 760.604C1122.72 761.704 1125.02 763.304 1126.72 765.404C1128.12 767.104 1129.02 769.004 1129.62 771.204C1130.12 773.204 1130.22 775.404 1130.02 777.704C1129.82 779.704 1129.22 781.704 1128.42 783.804C1127.62 785.804 1126.62 787.904 1125.32 789.904C1122.72 793.904 1119.12 797.804 1115.02 801.004C1111.22 803.904 1106.82 806.404 1102.12 808.104C1097.32 809.904 1092.42 810.804 1088.12 810.804C1080.82 810.804 1075.12 808.204 1071.72 803.304C1070.42 801.404 1069.52 799.404 1069.12 797.204C1068.72 795.204 1068.82 793.004 1069.22 790.704C1070.12 786.204 1072.62 781.404 1076.42 776.704C1079.82 772.504 1084.02 768.704 1088.42 766.004C1091.72 763.904 1095.42 762.204 1099.32 761.004C1103.22 759.704 1107.32 759.104 1111.02 759.104ZM1066.92 714.504L1184.32 674.304L1202.62 644.304L1113.62 667.604L1128.82 639.604L1188.92 625.104L1206.72 597.904L1091.42 624.404L1080.02 651.304L1098.52 646.904L1066.92 714.504ZM1078.92 841.104C1072.52 841.104 1066.72 840.104 1061.62 838.104C1058.82 837.004 1056.22 835.604 1053.92 833.904C1051.52 832.104 1049.22 830.004 1047.32 827.704C1043.42 822.904 1040.72 817.304 1039.52 811.204C1038.32 805.504 1038.42 799.504 1039.82 793.204C1040.82 788.404 1042.62 783.504 1045.02 778.704C1047.42 774.004 1050.42 769.504 1053.92 765.204C1061.12 756.404 1070.32 749.004 1080.62 743.804C1082.72 742.704 1084.82 741.704 1086.92 740.804L1016.92 765.204L1007.92 768.304L1012.02 759.704L1027.92 726.104L1028.72 724.404L1030.52 723.904L1061.62 716.104L1063.22 712.704L1091.42 652.604L1080.92 655.104L1073.22 656.904L1076.32 649.604L1087.72 622.704L1088.52 620.804L1090.52 620.304L1205.82 594.004L1215.52 591.804L1210.12 600.104L1192.32 627.304L1191.42 628.604L1189.92 629.004L1131.52 643.104L1121.52 661.404L1201.52 640.404L1211.12 637.904L1205.92 646.404L1187.62 676.404L1186.82 677.604L1185.42 678.104L1107.72 704.704L1214.62 678.104L1226.22 675.204L1218.72 684.504L1197.02 711.304L1196.22 712.304L1194.92 712.604L1142.42 726.204L1135.42 733.904C1137.22 734.404 1138.92 735.104 1140.62 735.904C1143.52 737.204 1146.22 738.904 1148.82 740.804C1151.32 742.704 1153.82 745.004 1156.02 747.504C1159.12 751.004 1161.32 755.104 1162.62 759.704C1163.82 763.904 1164.12 768.504 1163.72 773.404C1163.02 781.504 1160.02 790.204 1155.12 798.404C1152.72 802.404 1150.02 806.204 1146.92 809.704C1143.82 813.304 1140.42 816.504 1136.82 819.304C1129.42 825.104 1120.02 830.404 1110.32 834.204C1099.32 838.804 1088.52 841.104 1078.92 841.104ZM1111.02 763.104C1107.72 763.104 1104.02 763.704 1100.42 764.804C1096.82 765.904 1093.42 767.404 1090.42 769.304C1086.42 771.804 1082.52 775.304 1079.42 779.204C1076.02 783.404 1073.82 787.604 1073.02 791.504C1072.62 793.304 1072.62 795.004 1072.92 796.504C1073.22 798.104 1073.82 799.604 1074.82 801.004C1076.12 802.804 1077.82 804.304 1080.02 805.204C1082.32 806.204 1084.92 806.704 1088.02 806.704C1091.92 806.704 1096.32 805.804 1100.62 804.204C1104.92 802.604 1109.02 800.304 1112.42 797.704C1116.22 794.804 1119.42 791.304 1121.82 787.604C1122.92 785.804 1123.92 784.004 1124.62 782.204C1125.32 780.404 1125.72 778.704 1125.92 777.104C1126.12 775.304 1126.02 773.604 1125.62 772.104C1125.22 770.504 1124.52 769.104 1123.52 767.904C1122.22 766.304 1120.52 765.104 1118.42 764.304C1116.32 763.504 1113.82 763.104 1111.02 763.104Z" fill="white"/>
<path d="M162.334 266.243L165.934 260.143L206.634 191.443L127.334 218.943L122.634 220.543L124.934 216.143L142.234 182.143L142.634 181.343L143.534 181.143L326.234 136.043L332.134 134.543L328.234 139.243L306.034 165.943L305.634 166.443L305.034 166.643L244.834 185.243L204.634 243.643L204.334 244.043L203.934 244.243L168.634 262.943L162.334 266.243ZM177.634 170.843L179.634 166.643L210.334 101.643L195.834 104.843L192.134 105.643L193.534 102.143L204.234 75.8427L204.634 74.8427L205.634 74.6427L323.034 47.3427L328.034 46.1427L325.234 50.3427L305.934 79.0427L305.534 79.7427L304.734 79.9427L244.234 94.0427L231.434 118.843L317.834 97.2427L322.534 96.0427L319.934 100.243L301.634 130.343L301.234 130.943L300.534 131.143L182.034 169.343L177.634 170.843Z" fill="black"/>
<path d="M167.634 261.143L202.934 242.443L243.534 183.443L304.434 164.643L326.634 137.943L143.934 183.143L126.634 217.043L211.234 187.743L167.634 261.143ZM181.434 167.443L299.834 129.243L318.334 99.2427L227.534 121.743L242.734 92.2427L304.134 77.9427L323.534 49.2427L206.134 76.6427L195.434 102.843L213.934 98.7427L181.434 167.443ZM156.934 271.343L164.134 259.143L202.134 195.143L127.934 220.843L118.534 224.143L123.034 215.243L140.334 181.243L141.134 179.643L142.934 179.243L175.234 171.243L177.834 165.743L206.734 104.443L196.234 106.743L188.734 108.443L191.634 101.343L202.334 75.0427L203.134 73.1427L205.134 72.6427L322.634 45.3427L332.534 43.0427L326.834 51.4427L307.534 80.1427L306.634 81.4427L305.134 81.8427L245.534 95.7427L235.234 115.743L317.434 95.3427L326.934 92.9427L321.834 101.243L303.434 131.343L302.634 132.643L301.234 133.143L207.634 163.243L325.634 134.043L337.434 131.143L329.734 140.443L307.534 167.243L306.734 168.143L305.634 168.543L246.034 186.943L206.234 244.843L205.634 245.643L204.734 246.143L169.434 264.843L156.934 271.343Z" fill="white"/>
<path d="M476.176 601.839C476.685 601.819 477.164 601.996 477.626 602.272C477.99 602.532 478.421 603.005 478.707 603.759L485.893 622.312C486.095 622.951 486.116 623.461 485.939 623.939C485.663 624.401 485.32 624.651 484.779 624.869C484.238 625.087 483.729 625.107 483.152 624.915C482.575 624.722 482.227 624.363 482.024 623.724L480.207 618.576L472.102 618.609L470.254 623.884C470.062 624.461 469.687 624.908 469.162 625.028C468.637 625.147 468.143 625.069 467.649 624.991C467.171 624.814 466.807 624.553 466.574 624.111C466.34 623.669 466.319 623.16 466.611 622.599L473.825 603.897C474.148 603.138 474.423 602.676 474.865 602.442C475.141 601.979 475.568 601.844 476.176 601.839ZM476.069 606.986C475.861 607.662 475.783 608.156 475.59 608.733C475.413 609.211 475.205 609.887 474.997 610.562L473.357 615.162L479.029 615.15L477.331 610.527C477.046 609.773 476.843 609.134 476.724 608.608C476.407 608.052 476.189 607.511 476.069 606.986Z" fill="black"/>
<path d="M490.348 601.856C490.857 601.836 491.336 602.013 491.798 602.289C492.162 602.549 492.396 602.991 492.4 603.599L492.428 623.245C492.433 623.853 492.255 624.332 491.813 624.565C491.371 624.799 490.945 624.934 490.337 624.939C489.827 624.959 489.349 624.782 488.887 624.507C488.523 624.247 488.289 623.805 488.284 623.196L488.257 603.55C488.252 602.942 488.429 602.464 488.871 602.23C489.313 601.996 489.838 601.877 490.348 601.856Z" fill="black"/>
<path d="M512.373 605.345C512.43 606.265 512.502 607.087 512.788 607.841C513.089 608.496 513.588 609.182 514.201 609.786C514.913 610.405 515.542 610.909 516.171 611.414C516.799 611.918 517.345 612.309 517.792 612.683C518.254 612.959 518.488 613.401 518.524 613.812C518.545 614.321 518.384 614.701 518.124 615.064C517.863 615.428 517.52 615.677 517.094 615.812C516.667 615.947 516.174 615.869 515.612 615.578C515.248 615.318 514.802 614.943 514.157 614.537C513.611 614.147 512.983 613.643 512.369 613.039C511.658 612.42 511.127 611.931 510.878 611.588C510.629 611.245 510.478 610.917 510.328 610.59C510.296 610.787 510.166 610.969 510.135 611.167C510.005 611.349 509.974 611.546 509.745 611.712C509.615 611.894 509.37 612.159 509.141 612.326C508.897 612.591 508.554 612.84 508.195 613.188C506.921 614.201 505.745 615.23 504.502 616.046C504.045 616.378 503.519 616.497 503.041 616.32C502.563 616.143 502.199 615.883 501.95 615.54C501.701 615.197 501.566 614.77 501.545 614.261C501.525 613.752 501.785 613.388 502.258 612.956C502.944 612.458 503.631 611.959 504.317 611.46C505.004 610.961 505.592 610.447 506.294 609.85C506.996 609.252 507.5 608.623 507.709 607.947C508.016 607.287 508.156 606.398 508.1 605.478L508.044 602.634C508.039 602.026 508.216 601.548 508.658 601.314C509.1 601.081 509.542 600.847 510.135 600.941C510.644 600.92 511.122 601.097 511.585 601.373C512.047 601.649 512.182 602.075 512.187 602.683L512.373 605.345ZM506.703 623.886C506.719 621.864 507.578 620.279 509.263 619.23C510.948 618.18 513.36 617.651 516.386 617.725C519.427 617.701 521.766 618.274 523.435 619.247C525.186 620.334 525.955 621.873 526.037 623.911C526.005 626.032 525.162 627.519 523.477 628.568C521.792 629.617 519.38 630.146 516.354 630.072C513.313 630.097 510.974 629.524 509.305 628.551C507.538 627.562 506.671 626.007 506.703 623.886ZM521.894 623.862C521.936 622.958 521.437 622.271 520.611 621.736C519.784 621.2 518.303 620.965 516.28 620.948C514.258 620.932 512.797 621.207 511.996 621.789C511.097 622.355 510.691 622.999 510.747 623.919C510.705 624.824 511.204 625.511 512.03 626.046C512.857 626.582 514.338 626.817 516.361 626.833C518.383 626.85 519.844 626.575 520.645 625.993C521.446 625.411 521.95 624.783 521.894 623.862ZM517.861 609.049C517.352 609.07 516.972 608.908 516.723 608.565C516.474 608.222 516.339 607.796 516.401 607.401C516.381 606.891 516.542 606.512 516.802 606.148C517.062 605.784 517.39 605.633 517.899 605.613L521.944 605.646L521.961 601.7C521.956 601.092 522.133 600.614 522.575 600.38C523.017 600.146 523.46 599.913 523.953 599.991C524.463 599.97 524.941 600.147 525.305 600.407C525.767 600.683 525.902 601.109 525.907 601.718L525.89 615.889C525.895 616.498 525.718 616.976 525.276 617.21C524.834 617.443 524.408 617.578 523.898 617.599C523.389 617.619 522.91 617.442 522.448 617.167C521.985 616.891 521.85 616.465 521.845 615.856L521.791 609.165L517.861 609.049Z" fill="black"/>
<path d="M530.312 619.931C529.803 619.951 529.423 619.79 529.174 619.447C528.925 619.104 528.79 618.677 528.852 618.282C528.832 617.773 528.993 617.393 529.253 617.03C529.513 616.666 529.841 616.515 530.35 616.495L554.55 616.48C555.06 616.46 555.439 616.621 555.689 616.964C555.938 617.307 556.073 617.734 556.011 618.129C556.031 618.638 555.87 619.018 555.61 619.382C555.35 619.745 555.022 619.896 554.512 619.917L544.484 619.948L544.485 628.251C544.49 628.859 544.313 629.337 543.871 629.571C543.429 629.804 542.987 630.038 542.493 629.96C541.984 629.981 541.506 629.804 541.043 629.528C540.581 629.252 540.446 628.826 540.441 628.217L540.439 619.915L530.312 619.931ZM532.299 607.387C532.273 606.27 532.529 605.298 532.966 604.456C533.403 603.614 534.121 602.917 534.922 602.335C535.821 601.769 536.804 601.317 538.067 601.011C539.331 600.705 540.662 600.612 542.289 600.566C543.802 600.603 545.2 600.723 546.469 601.026C547.737 601.328 548.792 601.697 549.603 602.332C550.528 602.884 551.126 603.586 551.593 604.47C552.06 605.354 552.315 606.305 552.241 607.407C552.194 609.627 551.319 611.311 549.52 612.444C547.721 613.576 545.293 614.204 542.153 614.213C539.013 614.222 536.575 613.633 534.74 612.431C533.202 611.276 532.35 609.623 532.299 607.387ZM548.394 607.405C548.353 606.386 547.969 605.617 546.961 604.951C546.051 604.301 544.471 604.05 542.35 604.018C540.229 603.986 538.653 604.344 537.754 604.91C536.838 605.575 536.318 606.303 536.359 607.322C536.4 608.341 536.785 609.11 537.793 609.776C538.702 610.426 540.283 610.677 542.404 610.709C544.525 610.741 546.1 610.383 547 609.817C547.915 609.152 548.352 608.31 548.394 607.405Z" fill="black"/>
<path d="M574.258 607.756C574.263 608.364 574.268 608.972 574.387 609.497C574.507 610.023 574.626 610.548 574.761 610.974C574.995 611.416 575.213 611.957 575.447 612.399C575.779 612.856 576.112 613.314 576.543 613.787C577.156 614.391 577.67 614.978 578.284 615.582C578.897 616.185 579.427 616.674 579.858 617.147C580.305 617.522 580.44 617.948 580.362 618.442C580.284 618.936 580.107 619.414 579.763 619.663C579.633 619.845 579.42 619.913 579.191 620.079C578.978 620.147 578.765 620.214 578.552 620.282C578.339 620.349 578.141 620.318 577.845 620.271C577.647 620.24 577.366 620.094 577.2 619.865C576.753 619.491 576.322 619.017 575.792 618.528C575.262 618.039 574.748 617.452 574.316 616.978C573.885 616.505 573.537 616.146 573.288 615.803C573.038 615.46 572.773 615.215 572.607 614.986C572.441 614.758 572.274 614.529 572.207 614.316C572.139 614.102 572.056 613.988 572.072 613.889C572.041 614.087 572.009 614.284 571.879 614.466C571.749 614.648 571.718 614.846 571.473 615.111C571.328 615.391 571.083 615.656 570.839 615.921C570.579 616.285 570.22 616.633 569.747 617.065C569.258 617.595 568.67 618.109 568.165 618.738C567.578 619.252 566.974 619.865 566.371 620.479C566.012 620.827 565.487 620.946 565.009 620.769C564.531 620.592 564.151 620.431 563.803 620.072C563.455 619.713 563.32 619.287 563.299 618.777C563.279 618.268 563.44 617.888 563.799 617.54C565.104 616.329 566.311 615.103 567.518 613.877C568.007 613.347 568.381 612.9 568.657 612.437C568.933 611.975 569.209 611.512 569.386 611.034C569.563 610.556 569.739 610.077 569.833 609.485C569.912 608.991 570.005 608.398 570.001 607.79L570.029 603.137C570.024 602.529 570.201 602.051 570.643 601.817C571.085 601.583 571.527 601.35 572.119 601.443C572.629 601.423 573.107 601.6 573.57 601.876C574.032 602.151 574.167 602.578 574.172 603.186L574.258 607.756ZM579.699 611.756C579.19 611.777 578.811 611.615 578.561 611.272C578.312 610.929 578.177 610.503 578.239 610.107C578.219 609.598 578.38 609.219 578.64 608.855C578.9 608.491 579.228 608.34 579.738 608.32L583.782 608.353L583.827 601.678C583.822 601.07 583.999 600.591 584.441 600.358C584.883 600.124 585.325 599.89 585.819 599.968C586.328 599.948 586.807 600.125 587.17 600.385C587.633 600.661 587.768 601.087 587.773 601.695L587.74 626.192C587.745 626.8 587.568 627.278 587.126 627.512C586.684 627.746 586.258 627.881 585.748 627.901C585.239 627.922 584.761 627.745 584.298 627.469C583.836 627.193 583.701 626.767 583.696 626.159L583.744 611.789L579.699 611.756Z" fill="black"/>
<path d="M596.425 608.432L602.607 608.398L602.583 603.433C602.578 602.825 602.739 602.446 603.197 602.113C603.639 601.88 604.065 601.745 604.575 601.724C605.084 601.703 605.562 601.88 605.926 602.141C606.389 602.416 606.524 602.843 606.529 603.451L606.563 617.935C606.604 618.954 606.396 619.629 605.939 619.962C605.481 620.294 604.841 620.497 603.822 620.538L595.01 620.56C593.992 620.601 593.316 620.393 592.869 620.018C592.521 619.659 592.235 618.905 592.293 617.902L592.258 603.418C592.253 602.81 592.415 602.43 592.872 602.098C593.314 601.864 593.741 601.729 594.25 601.709C594.76 601.688 595.238 601.865 595.602 602.125C596.064 602.401 596.199 602.827 596.204 603.436L596.425 608.432ZM601.838 617.085C602.348 617.064 602.592 616.799 602.556 616.389L602.569 611.835L596.387 611.868L596.375 616.422C596.395 616.932 596.66 617.176 597.071 617.14L601.838 617.085ZM615.293 626.101C615.298 626.709 615.121 627.187 614.679 627.421C614.237 627.655 613.795 627.889 613.203 627.795C612.693 627.815 612.215 627.638 611.753 627.363C611.29 627.087 611.155 626.66 611.15 626.052L611.182 601.556C611.178 600.947 611.355 600.469 611.797 600.235C612.239 600.002 612.681 599.768 613.174 599.846C613.684 599.826 614.162 600.003 614.625 600.278C615.087 600.554 615.222 600.981 615.227 601.589L615.293 626.101Z" fill="black"/>
<path d="M619.89 625.209C619.38 625.229 619.001 625.068 618.751 624.725C618.502 624.382 618.367 623.955 618.43 623.56C618.409 623.051 618.57 622.671 618.83 622.307C619.091 621.944 619.418 621.793 619.928 621.772L644.128 621.758C644.637 621.737 645.017 621.899 645.266 622.242C645.515 622.585 645.65 623.012 645.572 623.505C645.593 624.015 645.431 624.394 645.171 624.758C644.911 625.122 644.584 625.273 644.074 625.293L619.89 625.209ZM642.728 613.335C643.191 613.611 643.341 613.939 643.362 614.448C643.382 614.958 643.32 615.353 643.044 615.815C642.784 616.179 642.425 616.527 641.999 616.662C641.572 616.797 641.063 616.818 640.6 616.542C639.576 615.975 638.553 615.408 637.627 614.856C636.702 614.305 635.777 613.753 634.951 613.217C634.041 612.567 633.314 612.047 632.799 611.459C632.285 610.871 632.051 610.429 631.901 610.102C631.838 610.497 631.448 611.042 631.058 611.588C630.569 612.118 629.867 612.716 628.853 613.365C627.953 613.931 627.053 614.498 626.154 615.064C625.254 615.63 624.256 616.181 623.158 616.716C622.716 616.949 622.306 616.986 621.827 616.809C621.349 616.632 620.986 616.371 620.752 615.929C620.518 615.487 620.383 615.061 620.461 614.567C620.441 614.058 620.701 613.694 621.143 613.46C622.027 612.993 622.927 612.427 623.925 611.876C624.825 611.31 625.823 610.759 626.738 610.094C627.867 609.362 628.6 608.567 629.136 607.74C629.573 606.898 629.844 605.827 629.819 604.71L629.788 602.984C629.783 602.375 629.96 601.897 630.402 601.663C630.844 601.43 631.286 601.196 631.879 601.29C632.388 601.269 632.867 601.446 633.329 601.722C633.792 601.998 633.927 602.424 633.932 603.032L633.962 604.758C633.972 605.975 634.21 607.025 634.694 607.81C635.161 608.694 635.956 609.428 637.063 610.109C638.071 610.775 638.996 611.327 639.921 611.878C640.961 612.347 641.787 612.883 642.728 613.335Z" fill="black"/>
<path d="M662.822 611.759C663.332 611.739 663.612 611.885 663.862 612.228C664.111 612.571 664.147 612.982 664.184 613.392C664.204 613.902 664.043 614.281 663.897 614.562C663.637 614.926 663.309 615.076 662.899 615.113L654.399 615.083C653.889 615.103 653.609 614.957 653.359 614.614C653.11 614.271 653.074 613.86 653.037 613.449C653.017 612.94 653.178 612.561 653.324 612.28C653.584 611.916 653.912 611.765 654.322 611.729L662.822 611.759Z" fill="black"/>
<path d="M681.501 601.859C682.01 601.839 682.488 602.016 682.951 602.292C683.315 602.552 683.746 603.025 684.031 603.779L691.218 622.332C691.42 622.971 691.441 623.481 691.264 623.959C690.988 624.421 690.645 624.671 690.104 624.889C689.563 625.107 689.054 625.127 688.477 624.935C687.983 624.857 687.552 624.383 687.349 623.744L685.532 618.596L677.427 618.629L675.579 623.904C675.386 624.481 675.012 624.928 674.487 625.048C673.962 625.167 673.468 625.089 672.974 625.011C672.496 624.834 672.132 624.573 671.898 624.131C671.664 623.689 671.644 623.18 671.935 622.619L679.15 603.917C679.472 603.158 679.748 602.696 680.19 602.462C680.466 601.999 680.991 601.88 681.501 601.859ZM681.41 606.907C681.202 607.583 681.123 608.077 680.931 608.654C680.754 609.132 680.545 609.808 680.337 610.484L678.697 615.084L684.369 615.071L682.671 610.448C682.386 609.694 682.183 609.055 682.064 608.53C681.732 608.072 681.612 607.547 681.41 606.907Z" fill="black"/>
<path d="M708.102 602.023C708.581 602.2 709.043 602.476 709.277 602.918C709.511 603.36 709.531 603.869 709.339 604.446L702.124 623.148C701.802 623.907 701.427 624.354 701.068 624.702C700.626 624.935 700.2 625.07 699.591 625.075C699.082 625.096 698.604 624.919 698.141 624.643C697.679 624.367 697.346 623.91 697.061 623.156L689.989 604.52C689.786 603.881 689.766 603.371 690.026 603.007C690.286 602.643 690.645 602.295 691.186 602.077C691.727 601.859 692.236 601.839 692.813 602.031C693.39 602.224 693.738 602.583 693.956 603.123L699.714 619.83L705.58 603.243C705.773 602.666 706.148 602.22 706.673 602.1C707.032 601.752 707.526 601.83 708.102 602.023Z" fill="black"/>
<path d="M718.163 601.794C718.672 601.773 719.15 601.95 719.613 602.226C719.977 602.486 720.408 602.96 720.694 603.714L727.88 622.266C728.082 622.906 728.103 623.415 727.926 623.893C727.65 624.356 727.307 624.605 726.766 624.823C726.225 625.041 725.716 625.062 725.139 624.869C724.645 624.791 724.214 624.318 724.011 623.678L722.194 618.531L714.089 618.563L712.241 623.839C712.049 624.416 711.674 624.863 711.149 624.982C710.624 625.102 710.13 625.023 709.636 624.945C709.158 624.768 708.794 624.508 708.56 624.066C708.327 623.624 708.306 623.115 708.597 622.553L715.812 603.852C716.135 603.093 716.41 602.63 716.852 602.396C717.227 601.949 717.653 601.815 718.163 601.794ZM718.155 606.956C717.947 607.632 717.869 608.126 717.676 608.703C717.499 609.181 717.291 609.857 717.082 610.533L715.443 615.133L721.114 615.12L719.417 610.497C719.131 609.743 718.929 609.104 718.809 608.579C718.492 608.022 718.274 607.481 718.155 606.956Z" fill="black"/>
<path d="M742.104 620.672C739.77 620.707 738.086 619.833 737.021 618.246C735.956 616.66 735.427 614.248 735.402 611.207C735.394 608.067 735.967 605.727 737.023 604.174C738.079 602.62 739.732 601.768 742.067 601.732C744.401 601.697 746.085 602.571 747.15 604.158C748.215 605.744 748.744 608.156 748.768 611.197C748.777 614.337 748.204 616.677 747.148 618.231C746.175 619.899 744.439 620.636 742.104 620.672ZM742.112 605.283C740.994 605.309 740.209 605.792 739.855 606.748C739.402 607.689 739.167 609.171 739.151 611.193C739.134 613.215 739.409 614.676 739.861 615.659C740.313 616.642 741.04 617.162 742.158 617.136C743.276 617.111 744.061 616.628 744.415 615.671C744.868 614.731 745.102 613.249 745.119 611.227C745.135 609.205 744.861 607.744 744.409 606.761C743.957 605.778 743.229 605.258 742.112 605.283ZM746.503 609.522L751.254 609.566L751.258 601.872C751.237 601.363 751.414 600.884 751.856 600.651C752.2 600.401 752.725 600.282 753.135 600.246C753.645 600.225 754.024 600.387 754.388 600.647C754.752 600.907 754.986 601.349 755.006 601.858L754.995 624.941C755.016 625.45 754.839 625.928 754.397 626.162C754.053 626.412 753.627 626.546 753.118 626.567C752.608 626.588 752.229 626.426 751.766 626.15C751.402 625.89 751.169 625.448 751.148 624.939L751.117 612.987L746.366 612.943L746.503 609.522ZM757.091 601.48C757.071 600.97 757.247 600.492 757.689 600.258C758.033 600.009 758.558 599.89 758.969 599.853C759.478 599.833 759.858 599.994 760.32 600.27C760.684 600.53 760.918 600.972 760.938 601.482L760.957 626.29C760.978 626.8 760.801 627.278 760.359 627.511C760.016 627.761 759.491 627.88 759.08 627.916C758.57 627.937 758.191 627.776 757.728 627.5C757.365 627.24 757.131 626.798 757.11 626.288L757.091 601.48Z" fill="black"/>
<path d="M764.058 611.189C764.049 608.049 764.736 605.627 766.021 603.907C767.291 602.285 769.256 601.381 771.788 601.377C774.32 601.374 776.316 602.196 777.578 603.813C778.841 605.431 779.469 607.859 779.462 611.098C779.471 614.238 778.783 616.66 777.498 618.38C776.229 620.002 774.264 620.905 771.732 620.909C769.101 620.898 767.204 620.091 765.941 618.473C764.695 616.757 764.051 614.428 764.058 611.189ZM775.599 611.195C775.616 609.172 775.356 607.613 774.806 606.614C774.255 605.616 773.231 605.048 771.817 605.027C770.403 605.006 769.405 605.556 768.838 606.58C768.27 607.604 768.02 609.184 768.004 611.207C767.987 613.229 768.246 614.789 768.797 615.787C769.347 616.785 770.371 617.353 771.785 617.374C773.2 617.396 774.198 616.845 774.765 615.821C775.233 614.782 775.582 613.217 775.599 611.195ZM787.622 626.058C787.627 626.667 787.45 627.145 787.008 627.379C786.566 627.612 786.124 627.846 785.531 627.752C785.022 627.773 784.543 627.596 784.081 627.32C783.618 627.044 783.483 626.618 783.478 626.01L783.511 601.513C783.506 600.905 783.683 600.427 784.125 600.193C784.567 599.959 785.009 599.725 785.503 599.804C786.012 599.783 786.491 599.96 786.953 600.236C787.416 600.512 787.551 600.938 787.556 601.546L787.622 626.058Z" fill="black"/>
<path d="M795.782 608.418L801.963 608.384L801.939 603.42C801.935 602.811 802.096 602.432 802.554 602.099C802.996 601.866 803.422 601.731 803.931 601.71C804.441 601.69 804.919 601.867 805.283 602.127C805.647 602.387 805.88 602.829 805.885 603.437L805.936 617.822C805.977 618.841 805.768 619.517 805.311 619.849C804.952 620.197 804.214 620.384 803.195 620.425L794.383 620.447C793.364 620.488 792.688 620.28 792.241 619.905C791.893 619.546 791.607 618.792 791.665 617.789L791.615 603.404C791.61 602.796 791.771 602.417 792.229 602.084C792.671 601.85 793.097 601.715 793.607 601.695C794.116 601.674 794.594 601.851 794.958 602.111C795.421 602.387 795.556 602.813 795.561 603.422L795.782 608.418ZM801.195 617.071C801.704 617.051 801.949 616.786 801.912 616.375L801.925 611.821L795.744 611.854L795.731 616.408C795.752 616.918 796.017 617.162 796.427 617.126L801.195 617.071ZM816.899 609.332C817.408 609.312 817.788 609.473 818.037 609.816C818.286 610.16 818.421 610.586 818.343 611.08C818.364 611.589 818.202 611.969 817.942 612.333C817.682 612.696 817.354 612.847 816.845 612.868L813.804 612.892L813.828 626.159C813.833 626.768 813.657 627.246 813.215 627.48C812.772 627.713 812.33 627.947 811.837 627.869C811.327 627.889 810.849 627.712 810.386 627.437C809.924 627.161 809.789 626.734 809.784 626.126L809.816 601.63C809.812 601.021 809.989 600.543 810.431 600.31C810.873 600.076 811.314 599.842 811.808 599.92C812.318 599.9 812.796 600.077 813.259 600.352C813.721 600.628 813.856 601.055 813.861 601.663L813.857 609.357L816.899 609.332Z" fill="black"/>
<path d="M430.155 401.871L475.155 428.871C475.355 427.271 475.355 425.671 475.355 423.971C475.355 396.371 452.955 373.971 425.355 373.971C397.755 373.971 375.355 396.371 375.355 423.971V462.871C375.355 468.971 380.355 473.971 386.455 473.971H404.255V416.571C404.255 407.071 411.955 399.471 421.355 399.471C424.455 399.371 427.555 400.271 430.155 401.871Z" fill="#5D1FFF"/>
<path d="M491.555 438.671L475.155 428.871C472.655 454.471 451.155 473.971 425.355 473.971H404.255V490.171C404.255 499.671 411.955 507.271 421.355 507.271C424.455 507.271 427.555 506.471 430.155 504.871L491.455 468.071C499.555 463.171 502.155 452.671 497.355 444.571C495.955 442.071 493.955 440.071 491.555 438.671Z" fill="#1DB6CC"/>
<path d="M475.155 428.771L430.155 401.771C422.055 396.871 411.555 399.571 406.655 407.671C405.055 410.371 404.255 413.371 404.255 416.471V473.871H425.355C451.155 473.971 472.655 454.471 475.155 428.771Z" fill="#0964FF"/>
<path d="M591.355 454.271C595.655 466.671 599.455 477.571 602.755 487.171C606.055 496.771 609.255 505.871 612.555 514.571C615.655 523.471 618.855 532.571 622.055 541.771C625.255 550.971 629.055 561.571 633.255 573.371H616.555C612.655 573.371 609.555 573.271 607.155 573.071C605.155 572.971 603.155 572.371 601.455 571.271C599.755 570.471 598.255 569.071 597.355 567.371C595.955 564.871 594.855 562.171 593.955 559.471L587.755 540.771H544.655L537.655 563.171C537.055 565.471 536.055 567.671 534.755 569.571C533.855 570.871 532.555 571.871 531.155 572.471C529.655 573.171 528.055 573.571 526.455 573.471H500.455C508.055 552.871 515.155 532.671 521.755 512.771C528.355 492.871 535.355 473.371 542.555 454.071C543.455 451.971 544.155 450.071 544.755 448.471C545.255 446.971 545.955 445.571 546.955 444.371C548.155 443.371 549.555 442.571 551.055 441.971C553.255 441.171 555.655 440.571 557.955 440.371H573.855C576.355 440.271 578.755 440.471 581.155 440.971C582.755 441.271 584.355 441.971 585.655 443.071C586.955 444.271 587.955 445.771 588.655 447.471C589.455 449.171 590.355 451.471 591.355 454.271ZM581.255 516.871L566.855 474.671L552.355 516.871H581.255Z" fill="#414853"/>
<path d="M726.155 441.571C727.755 440.671 729.455 440.271 731.255 440.271H757.155L710.255 573.671H686.555C682.555 573.771 678.555 572.871 675.055 570.871C672.155 569.171 669.655 567.071 667.555 564.571C665.755 562.571 664.255 560.271 663.155 557.771C662.255 555.571 661.555 553.971 661.255 552.971L624.655 440.271H648.855C650.855 440.271 652.855 440.571 654.755 441.171C656.655 441.871 658.255 443.371 659.055 445.271L690.255 541.071L722.955 445.071C723.555 443.571 724.755 442.371 726.155 441.571Z" fill="#414853"/>
<path d="M839.455 454.271C843.755 466.671 847.555 477.571 850.855 487.171C854.155 496.771 857.355 505.871 860.655 514.571C863.755 523.471 866.955 532.571 870.155 541.771C873.355 550.971 877.155 561.571 881.355 573.371H864.655C860.755 573.371 857.655 573.271 855.355 573.071C853.355 572.971 851.355 572.371 849.655 571.271C847.955 570.471 846.455 569.071 845.555 567.371C844.155 564.871 843.055 562.171 842.155 559.471L835.955 540.771H792.855L785.855 563.171C785.255 565.471 784.255 567.671 782.955 569.571C782.055 570.871 780.755 571.871 779.355 572.471C777.855 573.171 776.255 573.571 774.655 573.471H748.655C756.255 552.871 763.355 532.671 769.955 512.771C776.555 492.871 783.555 473.371 790.755 454.071C791.655 451.971 792.355 450.071 792.955 448.471C793.455 446.971 794.155 445.571 795.155 444.371C796.355 443.371 797.755 442.571 799.255 441.971C801.455 441.171 803.855 440.571 806.155 440.371H822.055C824.555 440.271 826.955 440.471 829.355 440.971C830.955 441.271 832.555 441.971 833.855 443.071C835.155 444.271 836.155 445.771 836.855 447.471C837.555 449.171 838.455 451.471 839.455 454.271ZM829.255 516.871L814.855 474.671L800.355 516.871H829.255Z" fill="#414853"/>
<path d="M617.063 262.704L623.738 262.749L623.764 294.544L603.921 294.54L603.894 262.744L610.57 262.789L610.601 272.817L617.178 272.847L617.063 262.704ZM617.056 288.318L617.014 278.997L610.437 278.967L610.479 288.289L617.056 288.318ZM638.681 280.91L634.636 280.877L634.676 295.969L627.886 296.007L627.923 261.893L634.713 261.854L634.764 274.316L638.809 274.349L638.681 280.91Z" fill="black"/>
<path d="M672.677 288.724L672.711 294.905L638.186 294.905L638.152 288.723L652.028 288.693L652.03 284.846L640.078 284.877L640.048 271.002L664.149 270.971L664.114 268.637L639.914 268.652L639.932 262.782L670.808 262.813L670.837 276.688L646.736 276.718L646.771 279.052L671.268 279.085L671.249 284.954L658.902 284.922L658.901 288.77L672.677 288.724Z" fill="black"/>
<path d="M678.89 298.719L673.53 298.68L674.975 288.278L681.354 288.276L678.89 298.719Z" fill="black"/>
<path d="M379.935 333.075C378.49 333.251 376.945 333.412 375.334 333.359L360.554 333.347L360.515 316.331L381.476 316.31L381.505 321.883L367.234 321.85L367.2 327.818L375.503 327.817C377.114 327.87 378.56 327.694 380.005 327.518C381.45 327.342 382.516 327.004 383.369 326.734L383.413 332.209C382.561 332.479 381.396 332.8 379.935 333.075ZM387.924 336.973C390.761 338.232 392.076 340.162 392.163 342.808C392.151 345.439 390.721 347.439 388.001 348.629C385.183 349.802 381.439 350.424 376.787 350.396C372.134 350.368 368.38 349.773 365.626 348.628C362.788 347.369 361.473 345.439 361.386 342.793C361.398 340.163 362.828 338.162 365.548 336.973C368.366 335.799 372.11 335.177 376.763 335.205C381.317 335.218 385.07 335.812 387.924 336.973ZM382.576 344.529C384.052 344.156 384.754 343.558 384.765 342.851C384.776 342.144 384.064 341.525 382.499 341.176C381.033 340.843 379.042 340.629 376.609 340.648C374.176 340.668 372.221 340.864 370.745 341.238C369.268 341.612 368.467 342.194 368.555 342.916C368.529 343.722 369.256 344.242 370.821 344.591C372.287 344.925 374.278 345.139 376.711 345.119C379.144 345.1 381.099 344.903 382.576 344.529ZM395.822 321.62L395.793 328.196L391.749 328.163L391.72 334.739L384.93 334.778L384.975 315.953L391.765 315.915L391.778 321.586L395.822 321.62Z" fill="black"/>
<path d="M402.175 334.573C400.162 335.773 397.932 336.432 395.582 336.566L395.564 330.286C397.321 330.058 398.86 329.289 400.28 327.995C401.7 326.702 402.772 325.049 403.61 322.954C404.448 320.859 404.808 318.588 404.902 316.072L411.728 316.444C411.701 319.173 411.294 321.741 410.378 324.33L420.216 331.254L416.21 336.087L407.511 329.647C406.08 331.648 404.301 333.29 402.175 334.573ZM428.736 343.943L428.785 350.026L397.696 350.063L397.666 338.111L404.554 338.088L404.536 343.958L428.736 343.943ZM428.254 341.234L421.464 341.273L421.424 315.955L428.214 315.916L428.254 341.234Z" fill="black"/>
<path d="M451.062 348.087C449.404 348.33 447.662 348.459 445.936 348.49L430.646 348.498L430.629 342.218L446.214 342.257C447.94 342.226 449.568 342.18 451.127 341.921C452.687 341.662 454.049 341.371 455.032 340.92L455.05 347.2C454 347.438 452.721 347.843 451.062 348.087ZM448.103 317.548C449.771 318.521 450.998 319.728 451.948 321.397C452.899 323.066 453.293 325.052 453.36 327.189C453.426 329.326 452.916 331.27 451.943 332.938C450.97 334.606 449.747 335.931 448.078 336.882C446.409 337.833 444.522 338.242 442.499 338.226C440.378 338.194 438.517 337.798 436.849 336.825C435.165 335.95 433.855 334.629 433.004 332.976C432.053 331.307 431.643 329.419 431.592 327.184C431.542 324.948 432.036 323.103 433.009 321.435C433.982 319.766 435.204 318.441 436.874 317.491C438.543 316.54 440.43 316.13 442.551 316.162C444.574 316.179 446.435 316.575 448.103 317.548ZM439.34 323.652C438.576 324.645 438.19 325.799 438.153 327.312C438.116 328.824 438.537 330.005 439.399 330.951C440.163 331.882 441.301 332.366 442.616 332.372C443.932 332.378 445.013 331.942 445.778 330.949C446.543 329.957 446.928 328.803 446.965 327.29C447.002 325.777 446.582 324.597 445.719 323.65C444.955 322.719 443.817 322.235 442.502 322.229C441.186 322.223 440.105 322.66 439.34 323.652ZM463.803 350.105L457.014 350.143L457.051 316.029L463.84 315.991L463.803 350.105Z" fill="black"/>
<path d="M508.856 348.837L474.332 348.836L474.329 342.457L508.854 342.458L508.856 348.837ZM507.062 340.352L499.877 340.328L499.885 323.016L476.195 323.01L476.177 316.729L507.052 316.76L507.062 340.352Z" fill="black"/>
<path d="M519.217 316.662L539.061 316.666L539.087 348.461L519.244 348.457L519.217 316.662ZM525.901 342.222L532.28 342.22L532.289 322.984L525.91 322.987L525.901 342.222ZM554.087 334.942L550.042 334.908L550.082 350L543.292 350.039L543.329 315.925L550.119 315.886L550.17 328.348L554.215 328.381L554.087 334.942Z" fill="black"/>
<path d="M588.092 335.67L553.567 335.669L553.575 330.507L588.1 330.508L588.092 335.67ZM582.122 317.108C584.976 318.268 586.321 320 586.357 322.334C586.392 324.669 584.993 326.472 582.19 327.547C579.372 328.72 575.545 329.228 570.778 329.283C566.026 329.239 562.159 328.728 559.404 327.583C556.55 326.422 555.205 324.69 555.169 322.356C555.134 320.022 556.533 318.218 559.336 317.143C562.139 316.069 565.981 315.462 570.748 315.407C575.515 315.352 579.367 315.963 582.122 317.108ZM586.021 350.023L555.442 350.039L555.407 337.479L585.986 337.463L586.021 350.023ZM579.322 345.013L579.303 342.58L562.09 342.587L562.109 345.02L579.322 345.013ZM564.611 320.915C563.15 321.19 562.365 321.673 562.37 322.281C562.375 322.89 563.102 323.41 564.568 323.743C566.034 324.077 568.139 324.208 570.77 324.219C573.401 324.231 575.553 324.066 577.014 323.791C578.475 323.516 579.26 323.033 579.255 322.424C579.25 321.816 578.523 321.296 577.041 321.061C575.56 320.827 573.47 320.597 570.839 320.585C568.126 320.459 566.088 320.541 564.611 320.915Z" fill="black"/>
<path d="M608.106 316.06L614.386 316.042L614.36 349.449L608.08 349.467L608.081 335.394L605.648 335.413C605.407 340.134 604.662 343.559 603.314 345.675C601.967 347.79 599.97 348.891 597.438 348.895C594.709 348.868 592.578 347.619 591.16 345.066C589.742 342.512 589.084 338.358 589.071 332.687C589.058 327.015 589.814 322.882 591.141 320.257C592.566 317.648 594.595 316.349 597.423 316.392C599.856 316.373 601.82 317.393 603.218 319.436C604.615 321.48 605.43 324.647 605.646 329.034L608.079 329.015L608.106 316.06ZM598.898 340.318C599.247 338.753 599.358 336.138 599.411 332.603C599.366 329.052 599.279 326.406 598.921 324.831C598.563 323.255 598.08 322.47 597.274 322.444C596.567 322.433 596.031 323.259 595.682 324.824C595.333 326.389 595.223 329.003 595.169 332.539C595.214 336.089 595.301 338.736 595.659 340.311C596.017 341.886 596.5 342.672 597.306 342.698C598.112 342.724 598.632 341.997 598.898 340.318ZM623.016 315.89L622.979 350.004L616.699 350.022L616.736 315.908L623.016 315.89Z" fill="black"/>
<path d="M639.037 329.16L649.012 344.813L643.172 348.444L636.689 337.596C635.336 341.027 633.598 343.687 631.476 345.579C629.354 347.47 626.978 348.41 624.446 348.414L624.454 341.328C626.212 341.1 627.699 340.02 629.062 337.806C630.41 335.69 631.388 332.707 632.066 329.068C632.744 325.429 633.12 321.135 633.148 316.482L639.99 316.756C639.977 321.31 639.731 325.422 639.037 329.16ZM657.64 315.906L657.603 350.021L650.813 350.059L650.842 333.257L643.657 333.232L643.64 326.952L650.824 326.977L650.85 315.945L657.64 315.906Z" fill="black"/>
<path d="M688.24 336.851C686.696 337.012 685.152 337.172 683.525 337.218L668.843 337.222L668.807 316.359L689.768 316.338L689.745 321.599L675.474 321.566L675.463 324.197L689.125 324.234L689.148 329.199L675.486 329.161L675.474 331.792L683.876 331.806C685.388 331.844 686.834 331.667 688.279 331.491C689.724 331.315 690.889 330.994 691.758 330.625L691.75 335.787C690.949 336.369 689.784 336.691 688.24 336.851ZM676.971 344.077L700.761 344.099L700.727 350.067L670.049 350.068L670.028 339.333L676.916 339.31L676.971 344.077ZM704.228 323.488L704.198 330.064L700.154 330.031L700.195 341.276L693.406 341.314L693.381 315.898L700.171 315.859L700.183 323.455L704.228 323.488Z" fill="black"/>
<path d="M709.01 333.56C707.326 334.609 705.521 335.133 703.582 335.231L703.632 329.164C704.781 328.941 705.894 328.308 706.773 327.232C707.751 326.172 708.495 324.67 709.005 322.726C709.516 320.782 709.86 318.609 709.856 316.077L716.302 316.288C716.322 318.721 716.061 321.008 715.633 323.067L722.176 329.064L722.135 315.896L728.415 315.878L728.408 321.04L731.449 321.016L731.488 315.656L737.768 315.638L737.764 335.482L731.484 335.499L731.498 327.098L728.457 327.123L728.417 334.406L722.137 334.424L722.139 330.577L718.664 333.975L713.312 328.774C712.048 331.004 710.597 332.495 709.01 333.56ZM733.588 337.554C736.541 338.73 737.969 340.576 737.973 343.108C737.977 345.64 736.464 347.526 733.546 348.684C730.629 349.842 726.689 350.433 721.937 350.389C717.071 350.429 713.219 349.818 710.266 348.642C707.314 347.466 705.885 345.62 705.881 343.088C705.877 340.556 707.391 338.669 710.308 337.512C713.225 336.354 717.166 335.763 721.918 335.807C726.768 335.866 730.636 336.378 733.588 337.554ZM730.773 343.183C730.784 342.476 729.957 341.94 728.377 341.69C726.714 341.325 724.608 341.194 721.978 341.182C719.347 341.171 717.195 341.336 715.619 341.694C713.945 342.036 713.16 342.519 713.149 343.226C713.143 344.542 716.075 345.208 721.945 345.227C727.83 345.146 730.767 344.498 730.773 343.183Z" fill="black"/>
<path d="M754.392 319.992L761.987 319.98L762.021 326.161L739.843 326.192L739.809 320.011L747.405 319.999L747.37 315.741L754.259 315.719L754.392 319.992ZM756.108 328.971C757.579 329.913 758.806 331.119 759.559 332.757C760.312 334.395 760.737 336.184 760.72 338.206C760.704 340.229 760.308 342.09 759.548 343.69C758.788 345.291 757.566 346.616 756.11 347.499C754.654 348.383 752.85 348.907 750.827 348.89C748.805 348.874 747.058 348.395 745.572 347.552C744.101 346.61 742.875 345.403 742.122 343.765C741.369 342.127 740.943 340.339 740.96 338.316C740.977 336.294 741.373 334.433 742.132 332.832C742.892 331.231 744.099 330.005 745.571 329.023C747.027 328.14 748.831 327.616 750.853 327.633C752.891 327.55 754.638 328.029 756.108 328.971ZM753.482 341.717C754.132 340.808 754.419 339.638 754.44 338.224C754.462 336.81 754.156 335.547 753.475 334.73C752.909 333.83 751.968 333.378 750.949 333.419C749.831 333.444 748.963 333.813 748.412 334.738C747.761 335.647 747.475 336.817 747.453 338.231C747.432 339.645 747.738 340.909 748.419 341.725C748.985 342.625 749.926 343.078 750.945 343.036C751.964 342.995 752.832 342.627 753.482 341.717ZM775.211 334.933L771.166 334.9L771.206 349.992L764.416 350.03L764.453 315.916L771.243 315.877L771.294 328.339L775.339 328.372L775.211 334.933Z" fill="black"/>
<path d="M794.932 329.956C794.006 331.329 792.716 332.44 791.078 333.193C789.44 333.947 787.553 334.356 785.333 334.308C783.212 334.276 781.236 333.963 779.636 333.204C778.035 332.444 776.694 331.32 775.795 329.963C774.897 328.606 774.455 326.916 774.441 325.091C774.426 323.266 774.874 321.717 775.816 320.247C776.742 318.874 778.031 317.763 779.669 317.01C781.307 316.257 783.195 315.847 785.415 315.895C787.536 315.927 789.511 316.24 791.112 316.999C792.713 317.759 794.053 318.883 794.952 320.24C795.851 321.597 796.292 323.287 796.322 325.013C796.207 327.02 795.759 328.569 794.932 329.956ZM806.573 350.43L800.913 345.888C799.691 347.213 798.318 348.211 796.779 348.98C795.141 349.733 793.467 350.075 791.741 350.105L786.528 345.939C785.306 347.264 783.933 348.261 782.394 349.03C780.87 349.7 779.196 350.042 777.47 350.073L777.421 343.99C778.539 343.965 779.506 343.611 780.421 342.946C781.337 342.281 782.2 341.304 782.814 339.984C783.413 338.763 783.829 337.411 783.965 335.914L790.484 336.947C790.348 338.444 789.931 339.795 789.416 341.131L793.168 343.649C794.447 343.244 795.524 342.2 796.549 340.843C797.49 339.373 798.053 337.741 798.251 335.848L804.77 336.881C804.535 338.362 804.217 339.729 803.817 340.982L810.396 345.467L806.573 350.43ZM782.305 327.855C783.017 328.474 784.072 328.844 785.388 328.85C786.703 328.856 787.769 328.518 788.487 327.822C789.204 327.126 789.641 326.284 789.616 325.166C789.59 324.048 789.222 323.18 788.525 322.462C787.813 321.843 786.758 321.473 785.443 321.468C784.128 321.462 783.062 321.799 782.344 322.496C781.626 323.192 781.189 324.034 781.215 325.152C781.141 326.254 781.51 327.122 782.305 327.855ZM801.099 326.175L801.127 323.445L797.378 323.459L796.971 317.725L801.13 317.675L801.115 315.85L807.79 315.895L807.828 334.834L801.153 334.789L801.195 331.961L797.036 332.011L797.45 326.204L801.099 326.175Z" fill="black"/>
<path d="M844.648 329.934L844.64 335.096L810.115 335.095L810.123 329.933L844.648 329.934ZM827.251 323.432C825.274 325.043 822.851 326.279 820.08 327.156C817.308 328.033 814.288 328.567 811.148 328.576L811.187 323.216C813.422 323.165 815.507 322.787 817.54 322.097C819.573 321.406 821.242 320.456 822.647 319.26C824.051 318.065 824.878 316.678 825.243 315.014L832.042 316.192C831.771 317.263 831.402 318.318 830.949 319.259L844.318 323.705L842.205 328.737L827.251 323.432ZM835.989 336.662L842.565 336.691L842.574 350.057L811.995 350.074L811.986 336.708L818.562 336.737L818.577 338.561L835.889 338.57L835.989 336.662ZM836.057 345.177L836.058 343.254L818.746 343.246L818.745 345.169L836.057 345.177Z" fill="black"/>
<path d="M854.021 342.353L861.205 342.377C862.832 342.331 864.475 342.186 866.035 341.927C867.595 341.668 868.973 341.279 869.971 340.728L870.005 346.909C869.006 347.46 867.628 347.849 866.069 348.108C864.509 348.367 862.866 348.512 861.14 348.543L847.067 348.541L847.072 316.548L854.059 316.541L854.021 342.353ZM878.612 350.095L871.823 350.133L871.86 316.019L878.649 315.981L878.612 350.095Z" fill="black"/>
<path d="M895.943 342.31C897.57 342.264 899.198 342.218 900.872 341.876C902.53 341.632 903.809 341.227 904.792 340.776L904.743 346.843C903.744 347.393 902.366 347.782 900.609 348.01C898.836 348.337 897.094 348.466 895.384 348.398L882.117 348.423L882.09 316.627L901.934 316.631L901.983 322.714L889.028 322.687L889.07 342.234L895.943 342.31ZM917.059 334.922L913.014 334.889L913.054 349.981L906.264 350.02L906.301 315.906L913.091 315.867L913.142 328.329L917.187 328.362L917.059 334.922Z" fill="black"/>
<path d="M923.273 342.994C924.068 343.727 924.421 344.694 924.446 345.812C924.472 346.93 924.118 347.886 923.286 348.666C922.552 349.461 921.585 349.814 920.467 349.839C919.35 349.865 918.393 349.511 917.614 348.679C916.819 347.945 916.466 346.978 916.44 345.86C916.415 344.743 916.769 343.786 917.601 343.007C918.334 342.212 919.301 341.859 920.419 341.833C921.537 341.808 922.493 342.162 923.273 342.994Z" fill="black"/>
</g>
<defs>
<clipPath id="clip0">
<rect width="1226" height="916" fill="white"/>
</clipPath>
</defs>
</svg>
