<svg xmlns="http://www.w3.org/2000/svg" width="68" height="68" viewBox="0 0 68 68">
    <g transform="translate(-587 -360.863)">
        <circle cx="31.5" cy="31.5" r="31.5" transform="translate(592 365.863)"/>
        <circle cx="31.5" cy="31.5" r="31.5" fill="#1db6cc" transform="translate(587 360.863)"/>
        <g>
            <path fill="none" d="M0 0H42V42H0z" transform="translate(597.524 370.983) translate(.476 -.12)"/>
            <path fill="#fff" d="M15.946 22.595a1.447 1.447 0 0 1-2.371 1.114l-7.913-6.557H1.447A1.447 1.447 0 0 1 0 15.705V9.938a1.448 1.448 0 0 1 1.447-1.447h4.215l7.913-6.557a1.448 1.448 0 0 1 2.371 1.115zm5.562-2.262h-.1a1.445 1.445 0 0 1-1.024-.424l-.194-.194a1.447 1.447 0 0 1-.14-1.886 8.416 8.416 0 0 0-.225-10.309 1.446 1.446 0 0 1 .1-1.936l.193-.194a1.416 1.416 0 0 1 1.1-.422 1.449 1.449 0 0 1 1.049.529 11.592 11.592 0 0 1 .3 14.258 1.448 1.448 0 0 1-1.056.577m5.984 4.473a1.449 1.449 0 0 1-1.046.512h-.061a1.446 1.446 0 0 1-1.024-.423l-.19-.19a1.447 1.447 0 0 1-.085-1.955A15.425 15.425 0 0 0 24.833 2.6a1.448 1.448 0 0 1 .058-1.984l.19-.19A1.409 1.409 0 0 1 26.148 0a1.447 1.447 0 0 1 1.04.485 18.584 18.584 0 0 1 .3 24.32" transform="translate(597.524 370.983) translate(5.412 7.465)"/>
        </g>
    </g>
</svg>
