<svg xmlns="http://www.w3.org/2000/svg" width="32" height="32" viewBox="0 0 32 32">
    <defs>
        <clipPath id="bsb3lzakxa">
            <path fill="none" d="M0 0H32V32H0z"/>
        </clipPath>
    </defs>
    <g clip-path="url(#bsb3lzakxa)">
        <path fill="#fff" d="M3.137 25.371a1.032 1.032 0 1 1 2.065 0 3.542 3.542 0 0 0 7.084 0c0-4.786 2.272-7 4.1-8.787 1.677-1.637 2.884-2.816 2.884-5.917a8.6 8.6 0 1 0-17.2 0 1.032 1.032 0 1 1-2.065 0 10.667 10.667 0 0 1 21.333 0c0 3.972-1.779 5.708-3.5 7.388s-3.481 3.4-3.481 7.316a5.608 5.608 0 0 1-11.215 0zM4.3 20.859a1.033 1.033 0 1 1 1.053-1.777A2.573 2.573 0 1 0 6.4 14.309a1.03 1.03 0 0 1-1.13-.919v-.023a1.113 1.113 0 0 1-.013-.123L5.165 10.5a1.033 1.033 0 0 1 .062-.388 6.023 6.023 0 0 1 12 .733 1.032 1.032 0 1 1-2.065 0 3.958 3.958 0 1 0-7.917 0v.056l.046 1.372A4.64 4.64 0 1 1 4.3 20.859z" transform="translate(5.333 .889)"/>
    </g>
</svg>
