<svg xmlns="http://www.w3.org/2000/svg" width="36" height="36" viewBox="0 0 36 36">
    <path fill="none" d="M0 0H36V36H0z"/>
    <path fill="#fff" d="M0 12a12 12 0 1 1 12 12A12.014 12.014 0 0 1 0 12zm1.846 0A10.154 10.154 0 1 0 12 1.846 10.165 10.165 0 0 0 1.846 12zm11.716 4.591a.923.923 0 0 1 0-1.305l2.362-2.363H5.846a.923.923 0 1 1 0-1.846h10.079l-2.363-2.363a.923.923 0 1 1 1.306-1.306l3.938 3.938a.926.926 0 0 1 .152.2l.009.015c.01.018.018.037.027.056l.01.022.016.043v.013c0 .01.007.02.011.031l.009.033v.017c0 .013.007.026.009.039s0 .019 0 .028v.016c0 .015 0 .03.006.046s0 .014 0 .021v.069a.913.913 0 0 1-.015.164v.013c0 .022-.01.046-.018.074v.013c-.007.024-.015.047-.024.07l-.006.016c-.009.022-.019.044-.03.065l-.008.017-.037.064-.008.014c-.015.022-.029.042-.044.061l-.015.025-.014.01-.049.052-3.934 3.934a.925.925 0 0 1-1.306 0z" transform="rotate(90 12 18)"/>
</svg>
