<svg xmlns="http://www.w3.org/2000/svg" width="30" height="30" viewBox="0 0 30 30">
    <path fill="#fff" d="M-868.636-4352.6a1.364 1.364 0 0 1-1.364-1.364 1.364 1.364 0 0 1 1.364-1.364h27.273a1.364 1.364 0 0 1 1.364 1.364 1.364 1.364 0 0 1-1.364 1.364zm13.5-5.462c-.02 0-.04-.006-.06-.009s-.048-.006-.072-.011l-.067-.016-.062-.016-.065-.023-.061-.022-.059-.026c-.019-.008-.042-.02-.062-.031a.437.437 0 0 1-.056-.033l-.059-.035c-.021-.014-.04-.029-.06-.044l-.047-.036a1.308 1.308 0 0 1-.1-.09l-6.364-6.363a1.364 1.364 0 0 1 0-1.929 1.364 1.364 0 0 1 1.928 0l4.036 4.036v-18.526A1.364 1.364 0 0 1-855-4382.6a1.363 1.363 0 0 1 1.363 1.363v18.526l4.036-4.036a1.363 1.363 0 0 1 1.928 0 1.364 1.364 0 0 1 0 1.929l-6.364 6.363c-.031.03-.062.059-.1.086l-.048.037-.059.043-.059.035a.439.439 0 0 1-.055.033c-.02.011-.041.021-.061.03l-.06.028-.06.021c-.022.008-.043.017-.066.023l-.061.016c-.023.006-.045.012-.069.016l-.071.011-.061.009c-.045 0-.089.007-.134.007s-.089-.002-.134-.006z" transform="translate(870 4382.604)"/>
</svg>
