<svg xmlns="http://www.w3.org/2000/svg" width="36" height="36" viewBox="0 0 36 36">
    <defs>
        <clipPath id="clip-path">
            <path id="사각형_237" fill="#fff" stroke="#707070" d="M0 0H36V36H0z"/>
        </clipPath>
        <style>
            .cls-4{fill:#d80027}
        </style>
    </defs>
    <g id="img-usa" clip-path="url(#clip-path)">
        <circle id="타원_107" cx="18" cy="18" r="18" fill="#f0f0f0"/>
        <g id="그룹_142" transform="translate(.62 3.913)">
            <path id="패스_12162" d="M244.87 193.913h18.783a18.019 18.019 0 0 0-.62-4.7H244.87z" class="cls-4" transform="translate(-228.273 -179.826)"/>
            <path id="패스_12163" d="M244.87 60.348h16.141a18.1 18.1 0 0 0-4.153-4.7H244.87z" class="cls-4" transform="translate(-228.273 -55.652)"/>
            <path id="패스_12164" d="M107.849 460.261a17.923 17.923 0 0 0 11.2-3.913H96.644a17.923 17.923 0 0 0 11.205 3.913z" class="cls-4" transform="translate(-90.469 -428.174)"/>
            <path id="패스_12165" d="M10.841 327.478h30.716a17.893 17.893 0 0 0 2.022-4.7H8.819a17.893 17.893 0 0 0 2.022 4.7z" class="cls-4" transform="translate(-8.819 -303.999)"/>
        </g>
        <path id="패스_12166" fill="#0052b4" d="M8.338 2.811h1.64L8.452 3.919l.583 1.794L7.51 4.6 5.984 5.713l.5-1.549A18.1 18.1 0 0 0 3 8.054h.526l-.971.706q-.227.379-.436.769l.464 1.427-.865-.629q-.323.684-.589 1.4l.507 1.573h1.886L2 14.406l.579 1.794-1.526-1.108-.914.664A18.174 18.174 0 0 0 0 18h18V0a17.915 17.915 0 0 0-9.662 2.811zm.7 13.389L7.51 15.092 5.984 16.2l.583-1.794L5.041 13.3h1.886l.583-1.8.582 1.8h1.886l-1.526 1.106zm-.586-7.037l.583 1.794L7.51 9.848l-1.526 1.109.583-1.794-1.526-1.109h1.886l.583-1.793.583 1.794h1.885zm7.04 7.037l-1.526-1.108L12.44 16.2l.583-1.794L11.5 13.3h1.886l.583-1.794.583 1.794h1.886l-1.526 1.108zm-.583-7.037l.583 1.794-1.526-1.109-1.526 1.109.583-1.794L11.5 8.054h1.886l.583-1.794.583 1.794h1.886zm0-5.243l.583 1.794L13.966 4.6 12.44 5.713l.583-1.794L11.5 2.811h1.886l.583-1.794.583 1.794h1.886z"/>
    </g>
</svg>
