<svg xmlns="http://www.w3.org/2000/svg" width="20" height="20" viewBox="0 0 20 20">
    <defs>
        <linearGradient id="ujxx49hwta" x2="1" y2="1" gradientUnits="objectBoundingBox">
            <stop offset="0" stop-color="#fd9ddd"/>
            <stop offset="1" stop-color="#de41fc"/>
        </linearGradient>
    </defs>
    <g>
        <path fill="none" d="M0 0H20V20H0z" transform="translate(-1398 97) translate(1398 -97)"/>
        <path fill="url(#ujxx49hwta)" d="M-180.678-4615.229l-5.687-5.329h-3.8a.83.83 0 0 1-.832-.832v-7.225a.83.83 0 0 1 .832-.833h3.808l5.683-5.325a.836.836 0 0 1 1.4.608v18.327a.853.853 0 0 1-.823.838.916.916 0 0 1-.581-.229zm-4.586-12.958v6.377l4.325 4.051v-14.48zm-4.072 5.965h2.4v-5.562h-2.4zm15.056 2.187a.843.843 0 0 1-.021-1.18 5.472 5.472 0 0 0 0-7.568.838.838 0 0 1 .021-1.18.832.832 0 0 1 1.178.016 7.169 7.169 0 0 1 0 9.894.842.842 0 0 1-.6.252.824.824 0 0 1-.577-.234zm-2.555-1.856a.857.857 0 0 1-.02-1.18 2.813 2.813 0 0 0 0-3.856.835.835 0 0 1 .02-1.179.833.833 0 0 1 1.18.017 4.474 4.474 0 0 1 0 6.181.845.845 0 0 1-.6.252.824.824 0 0 1-.579-.235z" transform="translate(-1398 97) translate(1589 4538)"/>
    </g>
</svg>
