<svg xmlns="http://www.w3.org/2000/svg" width="20" height="20.001" viewBox="0 0 20 20.001">
    <defs>
        <linearGradient id="imxur6hqha" x1=".085" x2=".911" y1=".914" y2=".085" gradientUnits="objectBoundingBox">
            <stop offset="0" stop-color="#8bc617"/>
            <stop offset="1" stop-color="#a7e544"/>
        </linearGradient>
    </defs>
    <g>
        <path fill="none" d="M0 0H20V20H0z" transform="translate(0 .051) translate(0 -.05)"/>
        <path fill="url(#imxur6hqha)" d="M-1833.149-2185.075a.854.854 0 0 1-.851-.851v-12.745a.854.854 0 0 1 .851-.852h4.673v-4.674a.854.854 0 0 1 .851-.852h12.741a.867.867 0 0 1 .859.852v12.74a.854.854 0 0 1-.851.851h-4.678v4.68a.854.854 0 0 1-.851.851zm.807-1.667h11.091v-3.865h-6.367a.854.854 0 0 1-.852-.851v-6.37h-3.866zm16.65-5.563v-11.087h-11.086v3.867h6.366a.854.854 0 0 1 .852.851v6.371zm-11.086 0h5.523v-5.523h-5.519z" transform="translate(0 .051) translate(1834 2205)"/>
    </g>
</svg>
