<svg xmlns="http://www.w3.org/2000/svg" width="20" height="20" viewBox="0 0 20 20">
    <defs>
        <clipPath id="dbxk2gqvba">
            <path fill="#fff" stroke="#707070" d="M0 0H20V20H0z" transform="translate(3432 -141)"/>
        </clipPath>
    </defs>
    <g clip-path="url(#dbxk2gqvba)" transform="translate(-3432 141)">
        <path fill="#fff" d="M273.682 81.92a2.061 2.061 0 0 0-1.122-1.12l-.254-.1-13.574-5.632a2.077 2.077 0 0 0-2.713 1.121 2.089 2.089 0 0 0-.094 1.309l1.332 5.224-1.332 5.225a2.071 2.071 0 0 0 2.007 2.59 2.08 2.08 0 0 0 .8-.159l13.828-5.738a2.075 2.075 0 0 0 1.121-2.713zm-15.957 6.62a.233.233 0 0 1-.01-.143l.026-.1 1.187-4.656h4.668a.924.924 0 0 0-.005-1.847h-4.662l-1.212-4.757a.23.23 0 0 1 .31-.269l13.825 5.732a.224.224 0 0 1 .124.124.219.219 0 0 1 0 .175.223.223 0 0 1-.123.124l-13.827 5.738a.23.23 0 0 1-.3-.125z" transform="translate(3177.208 -213.766)"/>
    </g>
</svg>
