<svg xmlns="http://www.w3.org/2000/svg" width="20" height="20" viewBox="0 0 20 20">
    <defs>
        <linearGradient id="gxmkydy6ga" x1=".958" x2="0" y2="1" gradientUnits="objectBoundingBox">
            <stop offset="0" stop-color="#8bc617"/>
            <stop offset="1" stop-color="#a7e544"/>
        </linearGradient>
    </defs>
    <g>
        <path fill="none" d="M0 0H20V20H0z" transform="translate(0 .05) translate(0 -.05)"/>
        <path fill="url(#gxmkydy6ga)" d="M14.44 136.352a.854.854 0 0 0-.852-.852H.851a.854.854 0 0 0-.852.852V149.1a.854.854 0 0 0 .852.852H13.6a.854.854 0 0 0 .852-.852zm-1.691 11.934H1.658V137.2h11.083z" transform="translate(0 .05) translate(0 -130.027)"/>
        <path fill="#bdc2d2" d="M149.142-.05H136.4a.854.854 0 0 0-.85.85v12.741a.854.854 0 0 0 .852.852h12.745a.854.854 0 0 0 .852-.852V.8a.866.866 0 0 0-.857-.85zm-.807 12.745h-11.086V1.608h11.087z" transform="translate(0 .05) translate(-130.027)"/>
    </g>
</svg>
