<svg xmlns="http://www.w3.org/2000/svg" width="20" height="20" viewBox="0 0 20 20">
    <defs>
        <linearGradient id="gvfhcvioxa" x1=".5" x2=".5" y2="1" gradientUnits="objectBoundingBox">
            <stop offset="0" stop-color="#fd7071"/>
            <stop offset="1" stop-color="#f8b368"/>
        </linearGradient>
    </defs>
    <g>
        <path fill="none" d="M0 0H20V20H0z" transform="translate(-1372 92.693) translate(1372 -92.693)"/>
        <path fill="#bdc2d2" d="M5.142-1.989a8.483 8.483 0 0 0-8.479 8.261 6.31 6.31 0 0 0-1.75 2.137 6.26 6.26 0 0 0-.658 2.8 6.293 6.293 0 0 0 .563 2.584l-.752 2.188a1.294 1.294 0 0 0 .311 1.345 1.291 1.291 0 0 0 .923.374 1.309 1.309 0 0 0 .426-.072l2.188-.752a6.293 6.293 0 0 0 2.584.563H.5a6.261 6.261 0 0 0 2.829-.678 6.3 6.3 0 0 0 2.145-1.8 8.552 8.552 0 0 0 3.308-.813L12 15.262a1.513 1.513 0 0 0 .493.083 1.507 1.507 0 0 0 1.42-2l-1.1-3.214a8.533 8.533 0 0 0 .82-3.628 8.5 8.5 0 0 0-8.346-8.5zm0 15.345a6.891 6.891 0 0 1-6.86-6.75A6.862 6.862 0 0 1 5.143-.368h.112A6.864 6.864 0 0 1 11.213 9.7a.814.814 0 0 0-.05.642l1.137 3.31-3.31-1.138a.81.81 0 0 0-.643.05 6.875 6.875 0 0 1-3.193.793zm-9.333 2.531L-3.539 14a.814.814 0 0 0-.05-.643 4.635 4.635 0 0 1-.535-2.157 4.594 4.594 0 0 1 .987-2.858A8.526 8.526 0 0 0 3.4 14.8a4.586 4.586 0 0 1-2.9 1.023 4.634 4.634 0 0 1-2.152-.534.814.814 0 0 0-.379-.094.808.808 0 0 0-.263.044l-1.89.649z" transform="translate(-1372 92.693) translate(1378.005 -90.704)"/>
        <path fill="url(#gvfhcvioxa)" d="M-420.419-1199.747a.582.582 0 0 1-.581-.581.582.582 0 0 1 .581-.581h4.262a.581.581 0 0 1 .581.581.581.581 0 0 1-.581.581zm0-2.391a.582.582 0 0 1-.581-.581.583.583 0 0 1 .581-.582h6.93a.582.582 0 0 1 .581.582.582.582 0 0 1-.581.581zm0-2.392a.582.582 0 0 1-.581-.581.582.582 0 0 1 .581-.581h6.93a.581.581 0 0 1 .581.581.581.581 0 0 1-.581.581z" transform="translate(-1372 92.693) translate(1800.103 1118.401)"/>
    </g>
</svg>
