<svg xmlns="http://www.w3.org/2000/svg" width="20" height="20" viewBox="0 0 20 20">
    <defs>
        <linearGradient id="i9gq769lka" x1=".5" x2=".5" y2="1" gradientUnits="objectBoundingBox">
            <stop offset="0" stop-color="#bdc2d2"/>
            <stop offset="0" stop-color="#fd7071"/>
            <stop offset="1" stop-color="#f8b368"/>
            <stop offset="1" stop-color="#5f6169"/>
        </linearGradient>
    </defs>
    <g>
        <path fill="none" d="M0 0H20V20H0z" transform="translate(-1372 92.694) translate(1372 -92.693)"/>
        <path fill="url(#i9gq769lka)" d="M-365.618-2278.383a1.294 1.294 0 0 1-.311-1.344l.751-2.188a6.281 6.281 0 0 1-.562-2.584 6.254 6.254 0 0 1 .658-2.8 6.306 6.306 0 0 1 1.751-2.137 8.432 8.432 0 0 1 2.481-5.776 8.429 8.429 0 0 1 6-2.485h.139a8.425 8.425 0 0 1 5.909 2.541 8.432 8.432 0 0 1 2.436 5.955 8.532 8.532 0 0 1-.82 3.628l1.1 3.214a1.492 1.492 0 0 1-.359 1.553 1.488 1.488 0 0 1-1.06.442 1.516 1.516 0 0 1-.493-.083l-3.214-1.1a8.559 8.559 0 0 1-3.307.814 6.313 6.313 0 0 1-2.145 1.8 6.268 6.268 0 0 1-2.83.678h-.009a6.306 6.306 0 0 1-2.585-.563l-2.188.751a1.3 1.3 0 0 1-.426.072 1.293 1.293 0 0 1-.916-.388zm1.5-6.119a4.631 4.631 0 0 0 .535 2.153.816.816 0 0 1 .05.643l-.65 1.889 1.89-.649a.813.813 0 0 1 .263-.044.811.811 0 0 1 .38.094 4.628 4.628 0 0 0 2.152.534h.007a4.586 4.586 0 0 0 2.9-1.024 8.427 8.427 0 0 1-4.2-2.257 8.417 8.417 0 0 1-2.34-4.2 4.589 4.589 0 0 0-.987 2.863zm13.118 1.312l3.311 1.137-1.138-3.311a.812.812 0 0 1 .049-.643 6.867 6.867 0 0 0 .793-3.193 6.889 6.889 0 0 0-6.75-6.872h-.112a6.818 6.818 0 0 0-4.852 2.01 6.806 6.806 0 0 0-2.009 4.963 6.891 6.891 0 0 0 6.862 6.751h.01a6.868 6.868 0 0 0 3.193-.793.819.819 0 0 1 .379-.094.8.8 0 0 1 .264.045zm-7.312-3.156a.582.582 0 0 1-.581-.581.582.582 0 0 1 .581-.582h4.262a.581.581 0 0 1 .581.582.581.581 0 0 1-.581.581zm0-2.391a.582.582 0 0 1-.581-.581.582.582 0 0 1 .581-.582h6.93a.582.582 0 0 1 .581.582.582.582 0 0 1-.581.581zm0-2.392a.582.582 0 0 1-.581-.581.582.582 0 0 1 .581-.582h6.93a.581.581 0 0 1 .581.582.581.581 0 0 1-.581.581z" transform="translate(-1372 92.694) translate(1738 2205)"/>
    </g>
</svg>
