<svg xmlns="http://www.w3.org/2000/svg" width="20" height="20" viewBox="0 0 20 20">
    <defs>
        <linearGradient id="psba3rimca" x1=".5" x2=".5" y2="1" gradientUnits="objectBoundingBox">
            <stop offset="0" stop-color="#ed6b7a"/>
            <stop offset="1" stop-color="#8949e9"/>
        </linearGradient>
    </defs>
    <g>
        <path fill="none" d="M0 0H20V20H0z" transform="translate(-1343 93.036) translate(1343 -93.036)"/>
        <path fill="url(#psba3rimca)" d="M-340.57-2279a.832.832 0 0 1-.833-.833.832.832 0 0 1 .833-.833h2.737v-3.836a3.67 3.67 0 0 1-2.827-3.566v-6.307a3.664 3.664 0 0 1 3.66-3.66 3.664 3.664 0 0 1 3.659 3.66v6.307a3.67 3.67 0 0 1-2.826 3.566v3.836h2.737a.828.828 0 0 1 .829.833.832.832 0 0 1-.833.833zm1.577-15.376v6.307a2 2 0 0 0 1.993 1.994 2 2 0 0 0 1.993-1.994v-6.307a2 2 0 0 0-1.993-1.993 2 2 0 0 0-1.993 1.994zm9.321 7.014a.835.835 0 0 1-.069-1.177 4.576 4.576 0 0 0 0-5.923.834.834 0 0 1 .069-1.176.834.834 0 0 1 1.176.069 6.284 6.284 0 0 1 0 8.138.835.835 0 0 1-.625.282.821.821 0 0 1-.551-.213zm-15.833-.069a6.284 6.284 0 0 1 0-8.138.834.834 0 0 1 1.176-.069.833.833 0 0 1 .069 1.176 4.576 4.576 0 0 0 0 5.923.834.834 0 0 1-.069 1.177.813.813 0 0 1-.552.212.836.836 0 0 1-.619-.281zm1.875-2.108a2.992 2.992 0 0 1 0-3.922.834.834 0 0 1 1.176-.069.842.842 0 0 1 .069 1.184 1.339 1.339 0 0 0 0 1.7.832.832 0 0 1-.069 1.176.825.825 0 0 1-.551.209.838.838 0 0 1-.625-.278zm12.083.065a.832.832 0 0 1-.069-1.176 1.339 1.339 0 0 0 0-1.7.832.832 0 0 1 .069-1.176.834.834 0 0 1 1.176.069 2.986 2.986 0 0 1 0 3.917.832.832 0 0 1-.625.282.82.82 0 0 1-.551-.216z" transform="translate(-1343 93.036) translate(1690 2205.482)"/>
    </g>
</svg>
