<svg xmlns="http://www.w3.org/2000/svg" width="100.001" height="33.453" viewBox="0 0 100.001 33.453">
    <path fill="#fff" d="M-15854.477 3725.053a2.539 2.539 0 0 1-1.086-.808 2.137 2.137 0 0 1-.461-1.38v-22.424l.039-.222a2.572 2.572 0 0 1 .824-1.34 2.356 2.356 0 0 1 1.217-.537 2.161 2.161 0 0 1 1.232.222 2.051 2.051 0 0 1 .924.923c.271-.151.537-.284.807-.408a6.955 6.955 0 0 1 .924-.328 6.55 6.55 0 0 1 4.176.089 7.3 7.3 0 0 1 3.039 2.209 9.059 9.059 0 0 1 1.73 3.5 10.424 10.424 0 0 1 .238 4.015 8.957 8.957 0 0 1-1.42 3.754 7.382 7.382 0 0 1-3.273 2.707 9.691 9.691 0 0 1-2.928.794 16.569 16.569 0 0 1-3.037.053c0 .027.006.222.02.59s.018.834.018 1.4v1.841c0 .661-.018 1.3-.059 1.912s-.084 1.163-.146 1.642a2.238 2.238 0 0 1-.275.976 2.055 2.055 0 0 1-1.176.883 2.343 2.343 0 0 1-.59.078 2.037 2.037 0 0 1-.737-.141zm2.945-19.753v6.079a10.26 10.26 0 0 0 1.475.111 5.909 5.909 0 0 0 1.543-.222 4.643 4.643 0 0 0 2.615-1.6 3.8 3.8 0 0 0 .736-2.964 7.063 7.063 0 0 0-.422-1.531 4.174 4.174 0 0 0-.83-1.34 2.823 2.823 0 0 0-1.215-.776 2.261 2.261 0 0 0-1.58.151 3.19 3.19 0 0 0-1.127.772c-.328.342-.645.688-.936 1.03-.076.124-.113.177-.113.164a.828.828 0 0 0-.145.126zm-19.184 11.341a8.367 8.367 0 0 1-1.527-.936 6.733 6.733 0 0 1-1.232-1.273 6.875 6.875 0 0 1-.977-1.691 13.1 13.1 0 0 1-.568-1.841 6.626 6.626 0 0 1-.186-2.081 17.718 17.718 0 0 1 .258-2.045l.039-.218a11.6 11.6 0 0 1 .719-2.1 11.361 11.361 0 0 1 1.123-1.97 10.8 10.8 0 0 1 1.49-1.713 7.563 7.563 0 0 1 1.783-1.251 7.416 7.416 0 0 1 3.408-.9 7.119 7.119 0 0 1 3.182.679 6.633 6.633 0 0 1 2.506 2.081 7.63 7.63 0 0 1 1.363 3.3 19.3 19.3 0 0 1 .2 2.374 10.273 10.273 0 0 1-.24 2.338 10.049 10.049 0 0 1-1.49 3.439 11.1 11.1 0 0 1-2.684 2.875 8.476 8.476 0 0 1-3.426 1.526 5.355 5.355 0 0 1-1.035.1 5.922 5.922 0 0 1-2.705-.694zm3.242-13.2a4.556 4.556 0 0 0-1.344.923 5.762 5.762 0 0 0-.992 1.344 8.128 8.128 0 0 0-.68 1.619c-.076.391-.139.781-.187 1.158a4.63 4.63 0 0 0 0 1.162 4.853 4.853 0 0 0 .461 1.544 2.889 2.889 0 0 0 .92 1.1 2.313 2.313 0 0 0 1.309.426 3.1 3.1 0 0 0 1.578-.462 5.216 5.216 0 0 0 1.842-1.934 7.107 7.107 0 0 0 .959-2.724 5.464 5.464 0 0 0-.293-2.689 3.108 3.108 0 0 0-1.877-1.819 4.091 4.091 0 0 0-1.695.351zm-21.5 13.2a8.236 8.236 0 0 1-1.527-.936 6.558 6.558 0 0 1-1.232-1.273 6.753 6.753 0 0 1-.977-1.691 12.381 12.381 0 0 1-.572-1.841 6.567 6.567 0 0 1-.182-2.081 18.158 18.158 0 0 1 .256-2.045l.037-.218a12.073 12.073 0 0 1 .719-2.1 11.478 11.478 0 0 1 1.121-1.97 11.013 11.013 0 0 1 1.492-1.713 7.6 7.6 0 0 1 1.783-1.251 7.446 7.446 0 0 1 3.406-.9 7.147 7.147 0 0 1 3.186.679 6.657 6.657 0 0 1 2.5 2.081 7.557 7.557 0 0 1 1.361 3.3 18.261 18.261 0 0 1 .205 2.374 10.856 10.856 0 0 1-.24 2.338 10.242 10.242 0 0 1-1.49 3.439 11.189 11.189 0 0 1-2.689 2.875 8.453 8.453 0 0 1-3.426 1.526 5.316 5.316 0 0 1-1.031.1 5.9 5.9 0 0 1-2.699-.694zm3.238-13.2a4.565 4.565 0 0 0-1.346.923 6.058 6.058 0 0 0-.994 1.344 8.739 8.739 0 0 0-.678 1.619c-.074.391-.137.781-.186 1.158a4.63 4.63 0 0 0 0 1.162 4.853 4.853 0 0 0 .461 1.544 2.924 2.924 0 0 0 .92 1.1 2.3 2.3 0 0 0 1.307.426 3.129 3.129 0 0 0 1.586-.462 5.273 5.273 0 0 0 1.84-1.934 7.14 7.14 0 0 0 .959-2.724 5.557 5.557 0 0 0-.3-2.689 3.113 3.113 0 0 0-1.877-1.819 4.1 4.1 0 0 0-1.69.351zm-24.279 13.257a8.2 8.2 0 0 1-1.748-.608 6.584 6.584 0 0 1-2.6-1.42 8.88 8.88 0 0 1-1.824-2.263 11.345 11.345 0 0 1-1.121-2.742 15.9 15.9 0 0 1-.5-2.818 15.563 15.563 0 0 1 .4-4.858 15.228 15.228 0 0 1 1.877-4.548 13.323 13.323 0 0 1 3.238-3.572 10.5 10.5 0 0 1 4.455-1.97 11.721 11.721 0 0 1 2.619-.146 9.277 9.277 0 0 1 2.572.515 14.078 14.078 0 0 1 1.916.848 8.548 8.548 0 0 1 1.7 1.216 9.174 9.174 0 0 1 1.8 2.21 9.611 9.611 0 0 1 1.07 2.614 13.731 13.731 0 0 1 .367 3.421 26.063 26.063 0 0 1-.3 3.39 26.461 26.461 0 0 1-1.6 4.033 15.6 15.6 0 0 1-2.379 3.514 11.412 11.412 0 0 1-3.258 2.5 9.132 9.132 0 0 1-4.25.958 15.073 15.073 0 0 1-2.433-.272zm2.834-20.565a4.618 4.618 0 0 0-2.266.994 10.43 10.43 0 0 0-2.264 2.636 11.819 11.819 0 0 0-1.3 3.221 12.615 12.615 0 0 0-.406 2.946 7.9 7.9 0 0 0 .477 2.946 6.007 6.007 0 0 0 1.2 1.877 5.968 5.968 0 0 0 1.783 1.322 5.526 5.526 0 0 0 2.117.537 4.945 4.945 0 0 0 2.227-.426 6.488 6.488 0 0 0 1.936-1.269 10.176 10.176 0 0 0 1.455-1.748 11.024 11.024 0 0 0 1.047-2.045q.428-1.085.754-2.187a20.365 20.365 0 0 0 .24-2.875 6.273 6.273 0 0 0-.607-2.8 5.048 5.048 0 0 0-1.562-1.9 6.429 6.429 0 0 0-2.3-1.1 6.674 6.674 0 0 0-1.592-.194 6.655 6.655 0 0 0-.938.065zm74.059 20.565a8.631 8.631 0 0 1-2.139-.772 10.7 10.7 0 0 1-1.912-1.273 11.7 11.7 0 0 1-1.549-1.544l-.111-.222a3.185 3.185 0 0 1-.182-1.234 2.593 2.593 0 0 1 .314-1.1 1.882 1.882 0 0 1 .791-.772 2.129 2.129 0 0 1 1.25-.2 1.861 1.861 0 0 1 .738.222 3.4 3.4 0 0 1 .607.439c.182.173.369.36.551.555a4.212 4.212 0 0 0 .572.514 4.276 4.276 0 0 0 1.326.7 9.071 9.071 0 0 0 1.473.328 1.243 1.243 0 0 0 .824-.258 1.253 1.253 0 0 0 .428-.625 1.887 1.887 0 0 0 .053-.79 1.271 1.271 0 0 0-.275-.683 2.947 2.947 0 0 0-1.531-.808 14.56 14.56 0 0 1-1.672-.444 13.827 13.827 0 0 1-2.174-.936 4.785 4.785 0 0 1-1.73-1.566 4.791 4.791 0 0 1-.826-2.192 5.842 5.842 0 0 1 .182-2.263 5.672 5.672 0 0 1 1.051-2.023 6.116 6.116 0 0 1 1.768-1.513 4.663 4.663 0 0 1 1.7-.568 8.653 8.653 0 0 1 1.857-.058 8.987 8.987 0 0 1 1.859.351 16.521 16.521 0 0 1 1.7.608 2.917 2.917 0 0 1 1.322 1.14 2.767 2.767 0 0 1 .428 1.491 1.974 1.974 0 0 1-.521 1.309 1.848 1.848 0 0 1-1.451.55 2.755 2.755 0 0 1-1.068-.2q-.48-.207-.994-.386a5.832 5.832 0 0 0-1.432-.351 2.64 2.64 0 0 0-1.256.093.714.714 0 0 0-.33.235 1.305 1.305 0 0 0-.277.5 1.174 1.174 0 0 0-.037.586.684.684 0 0 0 .387.479 8.173 8.173 0 0 0 1.875.737c.668.173 1.314.368 1.953.59a8.888 8.888 0 0 1 1.789.847 4.081 4.081 0 0 1 1.379 1.473 5.925 5.925 0 0 1 .83 2.924 6.51 6.51 0 0 1-.607 2.853 6.181 6.181 0 0 1-1.842 2.267 5.6 5.6 0 0 1-2.834 1.123q-.363.033-.721.033a7.138 7.138 0 0 1-1.535-.164zm11.354-1.859a1.948 1.948 0 0 1-.678-1.473 1.98 1.98 0 0 1 .678-1.509 2.307 2.307 0 0 1 1.6-.63 2.351 2.351 0 0 1 1.643.63 1.975 1.975 0 0 1 .68 1.509 1.943 1.943 0 0 1-.68 1.473 2.348 2.348 0 0 1-1.643.625 2.3 2.3 0 0 1-1.6-.625zm.289-6.407a1.771 1.771 0 0 1-.639-1.216v-12.556a1.947 1.947 0 0 1 .662-1.14 1.725 1.725 0 0 1 1.09-.368 1.85 1.85 0 0 1 1.092.333 2.118 2.118 0 0 1 .732 1.069v12.517a1.941 1.941 0 0 1-.568 1.327 1.717 1.717 0 0 1-1.184.439 1.908 1.908 0 0 1-1.185-.405z" transform="translate(15917.845 -3691.735)"/>
</svg>
