<svg xmlns="http://www.w3.org/2000/svg" width="63.999" height="64" viewBox="0 0 63.999 64">
    <path fill="#fff" d="M-16199.254 3625.706a13.415 13.415 0 0 1-1.342-5.8v-15.162l-4.686-4.688a5.857 5.857 0 0 1-.762-7.36 5.854 5.854 0 0 1 7.055-2.229 23.342 23.342 0 0 1 22.5-15.354 23.347 23.347 0 0 1 21.732 16.421 5.806 5.806 0 0 1 3.865-1.493 5.864 5.864 0 0 1 5.42 3.618 5.868 5.868 0 0 1-1.266 6.393l-6.934 6.933v8.975a10.8 10.8 0 0 0 1.365 5.4c.723 1.244 2.949 4.011 8 2.844a1.064 1.064 0 0 1 1.078.379 1.07 1.07 0 0 1 .117 1.138c-4.262 8.508-14.52 13.388-28.154 13.388-12.9.002-24.148-5.383-27.988-13.403zm1.869-33.414a21.831 21.831 0 0 0-1.078 6.789v20.831a11.289 11.289 0 0 0 1.133 4.878c3.438 7.175 14.156 12.188 26.061 12.188 11.752 0 20.779-3.752 25.178-10.379a8.513 8.513 0 0 1-8.066-4.167 12.941 12.941 0 0 1-1.648-6.467v-7.747a1.069 1.069 0 0 1-.652-.774 1.071 1.071 0 0 1 .289-.97l.684-.683 7.232-7.238a3.739 3.739 0 0 0 0-5.28 3.825 3.825 0 0 0-5.279 0l-7.918 7.92a1.065 1.065 0 0 1-1.494-.012 1.066 1.066 0 0 1-.014-1.5l6.457-6.458a21.291 21.291 0 0 0-20.617-15.981h-.336a21.4 21.4 0 0 0-19.932 15.05zm-6.383.983a3.73 3.73 0 0 0-1.094 2.638 3.731 3.731 0 0 0 1.094 2.638l3.172 3.178v-2.648a23.907 23.907 0 0 1 .938-6.583 3.793 3.793 0 0 0-1.465-.294 3.8 3.8 0 0 0-2.645 1.071zm16.891 29.772a1.074 1.074 0 0 1-.141-.39 23.916 23.916 0 0 1-.781-7.012c0-5.981 2.811-10.667 6.4-10.667s6.4 4.686 6.4 10.667a23.918 23.918 0 0 1-.783 7.012 1.07 1.07 0 0 1-.139.39c-1.086 2.925-3.049 3.264-5.477 3.264s-4.393-.339-5.479-3.264zm2.105-.413c.746 1.543 1.918 1.543 3.371 1.543s2.625 0 3.371-1.543a4.26 4.26 0 0 0-3.371-1.657 4.254 4.254 0 0 0-3.37 1.658zm7.375-2.375a33.147 33.147 0 0 0 .262-4.615c0-5.028-2.248-8.534-4.266-8.534s-4.266 3.506-4.266 8.534a32.85 32.85 0 0 0 .262 4.615 6.36 6.36 0 0 1 4-1.416 6.36 6.36 0 0 1 4.005 1.417zm.262-22.215c0-3.953 1.834-6.934 4.266-6.934s4.266 2.981 4.266 6.934-1.834 6.934-4.266 6.934-4.266-2.978-4.266-6.933zm2.133 0c0 2.93 1.264 4.8 2.133 4.8s2.133-1.87 2.133-4.8-1.264-4.8-2.133-4.8-2.131 1.871-2.131 4.801zm-19.2 0c0-3.953 1.832-6.934 4.266-6.934s4.266 2.981 4.266 6.934-1.834 6.934-4.266 6.934-4.264-2.978-4.264-6.933zm2.133 0c0 2.93 1.264 4.8 2.133 4.8s2.133-1.87 2.133-4.8-1.266-4.8-2.133-4.8-2.128 1.871-2.128 4.801z" transform="translate(16207.003 -3575.111)"/>
</svg>
