<svg xmlns="http://www.w3.org/2000/svg" width="111" height="24" viewBox="0 0 111 24">
    <defs>
        <clipPath id="clip-path">
            <path id="사각형_27" d="M0 0H111V24H0z" class="cls-1" transform="translate(451.65 268.419)"/>
        </clipPath>
        <style>
            .cls-1{fill:#fff}
        </style>
    </defs>
    <g id="M1-logo-white" clip-path="url(#clip-path)" opacity="0.75" transform="translate(-451.65 -268.419)">
        <path id="패스_38" d="M603.906 290.573l-.816-2.387h-4.914l-.836 2.387h-2.816l5.031-13.492h2.117l5.051 13.492zm-3.224-9.512l-1.748 4.908h3.439z" class="cls-1" transform="translate(-112.65 -3.465)"/>
        <path id="패스_39" d="M616.725 290.573v-13.492h2.7v13.492z" class="cls-1" transform="translate(-121.53 -3.465)"/>
        <path id="패스_40" d="M639.544 290.573v-5.647h-4.682v5.647h-2.7v-13.492h2.7v5.519h4.682v-5.515h2.7v13.492z" class="cls-1" transform="translate(-127.705 -3.465)"/>
        <path id="패스_41" d="M658.785 292.986v-.91a3.5 3.5 0 0 1-2.525 1.024 3.331 3.331 0 0 1-2.389-.872 3.606 3.606 0 0 1-1.03-2.8v-6.311h2.526v5.969a1.684 1.684 0 1 0 3.361 0v-5.969h2.525v9.873z" class="cls-1" transform="translate(-135.976 -5.877)"/>
        <path id="패스_42" d="M682.381 292.91v-5.969a1.683 1.683 0 1 0-3.36-.057v6.026H676.5v-5.969a1.684 1.684 0 1 0-3.361 0v5.969h-2.525v-9.873h2.467v.91a3.587 3.587 0 0 1 2.525-1.023 3.163 3.163 0 0 1 2.681 1.251 3.9 3.9 0 0 1 3.031-1.251 3.583 3.583 0 0 1 2.486.872 3.673 3.673 0 0 1 1.107 2.8v6.31z" class="cls-1" transform="translate(-143.084 -5.802)"/>
        <path id="패스_43" d="M702.7 292.91v-.853a3.119 3.119 0 0 1-2.487.948 3.507 3.507 0 0 1-2.584-.872 3.122 3.122 0 0 1-.835-2.217c0-1.573 1.107-2.861 3.458-2.861h2.389v-.493c0-1.08-.544-1.554-1.885-1.554a2.194 2.194 0 0 0-1.942.815l-1.613-1.535a4.313 4.313 0 0 1 3.653-1.364c2.836 0 4.312 1.175 4.312 3.487v6.5zm-.058-4.169h-2c-.912 0-1.417.417-1.417 1.118 0 .682.466 1.137 1.457 1.137a2.033 2.033 0 0 0 1.592-.473 1.594 1.594 0 0 0 .37-1.251z" class="cls-1" transform="translate(-153.556 -5.802)"/>
        <path id="패스_44" d="M720.185 292.91v-5.969a1.684 1.684 0 1 0-3.36 0v5.969H714.3v-9.873h2.466v.91a3.507 3.507 0 0 1 2.525-1.023 3.332 3.332 0 0 1 2.389.872 3.607 3.607 0 0 1 1.03 2.8v6.31z" class="cls-1" transform="translate(-160.56 -5.802)"/>
        <path id="합치기_18" d="M16.008 21.133v-7.67l-4.393 2.684-4.205-2.653v10.042L0 19.411V6.47L11.625 0 23.25 6.47v13.072l-7.242 4.03zm2.131-1.187l2.978-1.657V7.723L11.625 2.44 2.132 7.724v10.434l3.146 1.751V9.629l6.356 4.009 6.508-3.977zm-8.284 3.62v-.8h1.079V17.97H9.855v-.8h3.54v.8h-1.079v4.795h1.079v.8z" class="cls-1" transform="translate(452.062 268.576)"/>
    </g>
</svg>
