<svg width="48" height="48" viewBox="0 0 48 48" fill="none" xmlns="http://www.w3.org/2000/svg">
<circle cx="24" cy="24" r="24" fill="#5D1FFF"/>
<g clip-path="url(#clip0)">
<path d="M23.6699 35.8895C23.4725 35.8028 23.3001 35.6681 23.1689 35.4969C23.0378 35.3257 22.9522 35.1242 22.9199 34.911L22.4619 31.95C22.4039 31.962 22.3471 31.9713 22.2891 31.9813C22.19 31.9982 22.0898 32.0069 21.9893 32.0067C21.4942 32.0056 21.0195 31.8063 20.6699 31.4559L16.5459 27.3309C16.336 27.1218 16.1789 26.8667 16.0879 26.5848C15.9969 26.3028 15.9753 26.0041 16.0234 25.7117L16.0537 25.5379L13.0918 25.0789C12.8789 25.046 12.6778 24.96 12.5068 24.8289C12.3358 24.6978 12.2004 24.526 12.1133 24.3289C12.0261 24.1319 11.9897 23.9167 12.0078 23.702C12.0259 23.4873 12.0979 23.2801 12.2168 23.1004L14.6172 19.4735C14.7734 19.2357 14.9824 19.0376 15.2275 18.8934C15.4727 18.7491 15.7476 18.6626 16.0312 18.6414L19.5459 18.3699C19.5649 18.3469 19.5835 18.3245 19.6025 18.3035C21.0791 16.5052 22.8865 15.0062 24.9268 13.8875C27.8094 12.4747 31.0095 11.8338 34.2139 12.0282C34.6738 12.0527 35.1089 12.2455 35.4346 12.5711C35.7602 12.8968 35.953 13.3319 35.9775 13.7918C36.1736 16.9962 35.5339 20.1966 34.1201 23.0789C33.0023 25.1195 31.5035 26.927 29.7051 28.4032L29.6357 28.4598L29.3652 31.9754C29.3442 32.259 29.2583 32.535 29.1143 32.7801C28.9702 33.0253 28.7717 33.2331 28.5342 33.3895L24.9072 35.7899C24.7273 35.9086 24.5205 35.9794 24.3057 35.9969C24.0908 36.0144 23.8745 35.9776 23.6777 35.8895H23.6699ZM23.834 31.6239L24.2812 34.5106L27.75 32.2157C27.8088 32.1775 27.858 32.1257 27.8936 32.0653C27.9291 32.0049 27.9502 31.9379 27.9551 31.868L28.1328 29.577C26.8118 30.4732 25.3624 31.1633 23.834 31.6239V31.6239ZM17.4062 25.9442C17.3951 26.0157 17.401 26.0884 17.4238 26.1571C17.4466 26.2258 17.4854 26.288 17.5371 26.3387L21.6611 30.4637C21.7124 30.516 21.7751 30.5561 21.8447 30.5789C21.9143 30.6017 21.9883 30.6064 22.0605 30.5946C22.7715 30.4729 23.4711 30.2888 24.1494 30.0438L17.9609 23.8543C17.714 24.5327 17.5285 25.2327 17.4062 25.9442V25.9442ZM25.5674 15.1375C23.6923 16.168 22.0314 17.5467 20.6758 19.202C19.8394 20.1983 19.1248 21.2905 18.5469 22.4559L25.5469 29.4559C26.7133 28.8799 27.8058 28.1651 28.8008 27.327C30.4557 25.9709 31.8362 24.3111 32.8672 22.4364C34.1666 19.7772 34.7542 16.826 34.5723 13.8719C34.5658 13.7581 34.5171 13.6517 34.4365 13.5711C34.3559 13.4905 34.2486 13.4428 34.1348 13.4364C33.8498 13.4204 33.5222 13.411 33.1572 13.411C30.5266 13.3819 27.9264 13.9732 25.5674 15.1375V15.1375ZM16.1328 20.0457C16.0627 20.0505 15.9951 20.0707 15.9346 20.1063C15.874 20.1419 15.8225 20.19 15.7842 20.2489L13.4902 23.7196L16.376 24.1649C16.836 22.6359 17.5262 21.1871 18.4229 19.866L16.1328 20.0457ZM12.2051 35.7957C12.1393 35.7301 12.0874 35.6511 12.0518 35.5653C12.0161 35.4795 11.9971 35.3886 11.9971 35.2957C11.9971 35.2028 12.0161 35.11 12.0518 35.0242C12.0874 34.9384 12.1393 34.8613 12.2051 34.7957L16.6182 30.3836C16.75 30.2518 16.9288 30.1766 17.1152 30.1766C17.3016 30.1766 17.4805 30.2518 17.6123 30.3836C17.7441 30.5154 17.8174 30.6933 17.8174 30.8797C17.8174 31.0661 17.7441 31.2459 17.6123 31.3778L13.1992 35.7879C13.1338 35.8539 13.0556 35.9067 12.9697 35.9422C12.8839 35.9778 12.7921 35.9954 12.6992 35.9949C12.515 35.9958 12.3377 35.9247 12.2061 35.7957H12.2051ZM16.4268 35.7782C16.3611 35.7131 16.309 35.6369 16.2734 35.5516C16.2379 35.4663 16.2197 35.3745 16.2197 35.2821C16.2197 35.1896 16.2379 35.0978 16.2734 35.0125C16.309 34.9272 16.3611 34.8491 16.4268 34.784L18.7266 32.4891C18.8584 32.3573 19.0372 32.284 19.2236 32.284C19.41 32.284 19.5889 32.3573 19.7207 32.4891C19.8525 32.6209 19.9268 32.8007 19.9268 32.9871C19.9268 33.1735 19.8525 33.3514 19.7207 33.4832L17.4209 35.7782C17.3558 35.8438 17.2787 35.8969 17.1934 35.9324C17.1081 35.968 17.0162 35.9852 16.9238 35.9852C16.8314 35.9852 16.7406 35.968 16.6553 35.9324C16.57 35.8969 16.4918 35.8438 16.4268 35.7782V35.7782ZM12.2188 31.5711C12.1531 31.506 12.101 31.4299 12.0654 31.3446C12.0299 31.2593 12.0117 31.1674 12.0117 31.075C12.0117 30.9826 12.0299 30.8908 12.0654 30.8055C12.101 30.7202 12.1531 30.6421 12.2188 30.577L14.5186 28.2821C14.6504 28.1502 14.8292 28.077 15.0156 28.077C15.202 28.077 15.3809 28.1502 15.5127 28.2821C15.6445 28.4139 15.7188 28.5937 15.7188 28.7801C15.7188 28.9665 15.6445 29.1444 15.5127 29.2762L13.2178 31.5711C13.1526 31.6376 13.0751 31.6913 12.9893 31.7274C12.9034 31.7634 12.8109 31.7821 12.7178 31.7821C12.6246 31.7821 12.5331 31.7634 12.4473 31.7274C12.3614 31.6913 12.2829 31.6376 12.2178 31.5711H12.2188ZM25.9531 22.0477C25.376 21.4725 25.0157 20.7139 24.9346 19.9032C24.8535 19.0924 25.056 18.2785 25.5078 17.6004C25.9596 16.9223 26.6326 16.4218 27.4121 16.1844C28.1916 15.947 29.0301 15.9866 29.7832 16.2977C30.5363 16.6088 31.1573 17.1731 31.542 17.8914C31.9266 18.6098 32.0511 19.4379 31.8926 20.2371C31.7341 21.0364 31.3025 21.7571 30.6729 22.2742C30.0432 22.7914 29.2543 23.0729 28.4395 23.0731C27.9781 23.0743 27.5202 22.9855 27.0938 22.8094C26.6673 22.6333 26.2802 22.3741 25.9541 22.0477H25.9531ZM26.9473 18.0672C26.6016 18.4123 26.3861 18.8663 26.3379 19.3524C26.2897 19.8385 26.4115 20.3269 26.6826 20.7332C26.9538 21.1396 27.3568 21.4389 27.8242 21.5809C28.2916 21.7229 28.7938 21.6993 29.2451 21.5125C29.6965 21.3257 30.0694 20.9882 30.2998 20.5574C30.5302 20.1267 30.6041 19.6284 30.5088 19.1492C30.4135 18.6701 30.155 18.2404 29.7773 17.9305C29.3997 17.6206 28.927 17.4499 28.4385 17.45C28.1616 17.4495 27.8866 17.5041 27.6309 17.6102C27.3751 17.7163 27.1434 17.8728 26.9482 18.0692L26.9473 18.0672Z" fill="white"/>
</g>
<defs>
<clipPath id="clip0">
<rect width="24" height="24" fill="white" transform="translate(12 12)"/>
</clipPath>
</defs>
</svg>
