<svg xmlns="http://www.w3.org/2000/svg" width="160" height="160" viewBox="0 0 160 160">
    <defs>
        <linearGradient id="linear-gradient" x1=".5" x2=".5" y1="1.249" y2=".073" gradientUnits="objectBoundingBox">
            <stop offset="0" stop-color="#d2deff" stop-opacity="0"/>
            <stop offset="1" stop-color="#b7c5ff"/>
        </linearGradient>
        <style>
            .cls-3,.cls-6{fill:#00c}.cls-3{opacity:.1}.cls-4{fill:#fff}.cls-5{fill:#6583fe}
        </style>
    </defs>
    <g id="icon_구매" transform="translate(-906 -384)">
        <path id="사각형_9" fill="none" d="M0 0H160V160H0z" transform="translate(906 384)"/>
        <g id="shopping-bag_1_" transform="translate(906 365.061)">
            <path id="패스_6" fill="url(#linear-gradient)" d="M145.393 70.224a41.949 41.949 0 0 1-9.131-18.971 29.155 29.155 0 0 0-7.8-15.083C110.1 17.8 68.379 29.741 35.286 62.834s-45.03 74.809-26.664 93.175c8.73 8.73 22.736 10.611 38.584 6.629a42.529 42.529 0 0 1 27.594 2.509 60.643 60.643 0 0 0 70.6-94.923z"/>
            <g id="그룹_55" transform="translate(15.079 35.438)">
                <g id="그룹_51" transform="translate(15.809)">
                    <circle id="타원_25" cx="10.929" cy="10.929" r="10.929" class="cls-3" transform="translate(17.42 25.782)"/>
                    <g id="그룹_50">
                        <g id="그룹_47" transform="translate(1.562 6.563)">
                            <path id="패스_7" d="M211.29 189.51l-9.562-76.294a2.82 2.82 0 0 0-2.8-2.469H188V94.474a20.674 20.674 0 1 0-41.347 0v16.273h-10.932a2.815 2.815 0 0 0-2.794 2.469l-.653 5.209-.172 1.37a13.409 13.409 0 0 0-19.493 11.959v10.1h-5.952a2.816 2.816 0 0 0-2.817 2.817v45.192a2.816 2.816 0 0 0 2.817 2.817H208.5a2.813 2.813 0 0 0 2.79-3.17zm-61.513-95.036a17.549 17.549 0 1 1 35.1 0v16.273h-35.1zm-34.043 37.28a10.286 10.286 0 0 1 15.946-8.6l-2.344 18.693h-13.6v-10.1z" class="cls-3" transform="translate(-103.841 -73.8)"/>
                            <path id="패스_8" d="M251.39 252.958h-82.341a2.814 2.814 0 0 1-2.794-3.166l8.913-71.084.653-5.209a2.815 2.815 0 0 1 2.794-2.469h63.209a2.82 2.82 0 0 1 2.8 2.469l9.563 76.294a2.814 2.814 0 0 1-2.797 3.165z" class="cls-4" transform="translate(-146.735 -140.646)"/>
                            <path id="패스_9" d="M256.843 338.583h-83.578l1.65-13.153h80.278z" class="cls-5" transform="translate(-151.57 -246.796)"/>
                            <g id="그룹_43" transform="translate(44.373 100.971)">
                                <path id="패스_10" d="M288.8 400.033h-41.4a1.563 1.563 0 1 1 0-3.125h41.4a1.563 1.563 0 0 1 0 3.125z" class="cls-6" transform="translate(-245.835 -396.908)"/>
                            </g>
                            <g id="그룹_45" transform="translate(0 37.714)">
                                <g id="그룹_44" transform="translate(40.853)">
                                    <circle id="타원_26" cx="3.521" cy="3.521" r="3.521" class="cls-4"/>
                                    <circle id="타원_27" cx="3.521" cy="3.521" r="3.521" class="cls-4" transform="translate(38.222)"/>
                                </g>
                                <path id="패스_11" d="M103.84 273.377v45.192a2.816 2.816 0 0 0 2.817 2.817H145.4a2.816 2.816 0 0 0 2.817-2.817v-45.192a2.816 2.816 0 0 0-2.817-2.817h-38.74a2.817 2.817 0 0 0-2.82 2.817z" class="cls-4" transform="translate(-103.84 -246.786)"/>
                                <path id="패스_12" d="M323.669 230.932l-6.785 6.785a1.562 1.562 0 0 1-2.21 0l-9.636-9.636a1.562 1.562 0 0 1-.444-1.307l.783-6a1.562 1.562 0 0 1 1.347-1.347l6-.783a1.562 1.562 0 0 1 1.307.445l9.636 9.636a1.562 1.562 0 0 1 .002 2.207z" class="cls-4" transform="translate(-241.849 -211.084)"/>
                            </g>
                            <path id="패스_13" d="M157.36 318.737h-23.4a1.563 1.563 0 0 1-1.563-1.562v-7.812a1.563 1.563 0 0 1 1.563-1.563h23.4a1.563 1.563 0 0 1 1.563 1.563v7.813a1.563 1.563 0 0 1-1.563 1.561z" class="cls-5" transform="translate(-123.474 -234.675)"/>
                            <g id="그룹_46" transform="translate(13.984 77.031)">
                                <path id="패스_14" d="M163.432 323.425h-13.281a1.563 1.563 0 1 1 0-3.125h13.281a1.563 1.563 0 0 1 0 3.125z" class="cls-6" transform="translate(-148.588 -320.3)"/>
                            </g>
                        </g>
                        <g id="그룹_49">
                            <circle id="타원_28" cx="10.929" cy="10.929" r="10.929" class="cls-5" transform="translate(17.42 19.219)"/>
                            <g id="그룹_48">
                                <path id="패스_15" d="M209.4 168.313l-9.565-76.294a4.386 4.386 0 0 0-4.345-3.835h-10.928V73.473a20.674 20.674 0 0 0-41.348 0v14.711h-4.688a12.489 12.489 0 1 0-11.336 7.253c.107 0 .213-.005.319-.008l-.34 2.711a13.419 13.419 0 0 0-18 12.613v8.534h-5.952a4.384 4.384 0 0 0-4.379 4.379v45.192a4.384 4.384 0 0 0 4.379 4.379h101.842a4.378 4.378 0 0 0 4.345-4.924zm-63.06-94.84a17.549 17.549 0 1 1 35.1 0v14.712h-11.349v-1.531a5.1 5.1 0 1 0-10.208 0v1.531H146.34zm20.627 14.712h-3.958v-1.531a1.979 1.979 0 1 1 3.958 0v1.531zm-49.141-5.238a9.366 9.366 0 1 1 9.366 9.366 9.377 9.377 0 0 1-9.367-9.366zm-5.526 27.806a10.287 10.287 0 0 1 14.471-9.4l-1.262 10.064a1.562 1.562 0 0 0 3.1.389l1.067-8.507a10.263 10.263 0 0 1 3.21 7.458v8.534H112.3zm93.7 58.935a1.242 1.242 0 0 1-.94.424h-58.9a4.363 4.363 0 0 0 .185-1.254v-34.567a1.563 1.563 0 1 0-3.125 0v34.567a1.255 1.255 0 0 1-1.254 1.254h-38.74a1.255 1.255 0 0 1-1.254-1.254v-45.192a1.255 1.255 0 0 1 1.254-1.254h5.952v4.113a1.563 1.563 0 1 0 3.125 0v-4.113h20.587v4.113a1.563 1.563 0 0 0 3.125 0v-4.113h5.952a1.255 1.255 0 0 1 1.254 1.254 1.563 1.563 0 0 0 3.125 0 4.384 4.384 0 0 0-4.379-4.379h-5.957v-8.534a13.414 13.414 0 0 0-5.879-11.094l.593-4.733a12.515 12.515 0 0 0 5.738-3.616h6.754v4.451a5.083 5.083 0 1 0 3.125 0V91.31h20.627v12.311l-1.89.247a3.129 3.129 0 0 0-2.695 2.695l-.783 6a3.144 3.144 0 0 0 .889 2.613l9.636 9.637a3.129 3.129 0 0 0 4.419 0l6.785-6.786a3.124 3.124 0 0 0 0-4.419l-9.636-9.636a3.143 3.143 0 0 0-2.614-.889l-.988.129V91.31h11.346v4.451a5.083 5.083 0 1 0 3.125 0V91.31h10.932a1.256 1.256 0 0 1 1.244 1.1l9.562 76.29a1.239 1.239 0 0 1-.3.988zm-62.716-70.356a1.553 1.553 0 0 0 2.987 0 1.958 1.958 0 1 1-2.987 0zm25.245 10.55a1.562 1.562 0 0 0 1.562-1.563v-1.956l1.392-.182 9.638 9.635-6.785 6.786-9.636-9.636.783-6 1.486-.194v1.548a1.562 1.562 0 0 0 1.56 1.563zm12.978-10.551a1.553 1.553 0 0 0 2.987 0 1.958 1.958 0 1 1-2.987 0z" class="cls-6" transform="translate(-98.842 -52.799)"/>
                                <path id="패스_16" d="M186.123 142.993a1.562 1.562 0 0 1-1.562-1.562v-7.34a1.563 1.563 0 1 1 3.125 0v7.34a1.563 1.563 0 0 1-1.563 1.562z" class="cls-6" transform="translate(-157.773 -107.613)"/>
                                <path id="패스_17" d="M181.718 147.4h-7.34a1.563 1.563 0 0 1 0-3.125h7.34a1.563 1.563 0 0 1 0 3.125z" class="cls-6" transform="translate(-149.698 -115.686)"/>
                            </g>
                        </g>
                    </g>
                </g>
                <path id="패스_18" d="M69.815 254.167a1.563 1.563 0 0 1-1.1-2.667l3.125-3.125a1.562 1.562 0 1 1 2.21 2.209l-3.125 3.125a1.556 1.556 0 0 1-1.11.458z" class="cls-5" transform="translate(-62.003 -186.943)"/>
                <path id="패스_19" d="M188.517 65.162a1.563 1.563 0 0 1-1.105-2.667l3.125-3.125a1.562 1.562 0 0 1 2.21 2.209l-3.125 3.121a1.557 1.557 0 0 1-1.105.462z" class="cls-5" transform="translate(-143.61 -57.002)"/>
                <g id="그룹_52" transform="translate(110.482 20.706)">
                    <path id="패스_20" d="M409.608 125.307a1.557 1.557 0 0 1-1.105-.458l-2.02-2.02-2.02 2.02a1.562 1.562 0 0 1-2.21-2.209l3.125-3.125a1.562 1.562 0 0 1 2.21 0l3.125 3.125a1.563 1.563 0 0 1-1.1 2.667z" class="cls-5" transform="translate(-401.795 -119.057)"/>
                </g>
                <g id="그룹_54" transform="translate(0 32.256)">
                    <path id="패스_21" d="M445.309 162.267a1.563 1.563 0 0 1-1.1-2.667l3.125-3.125a1.562 1.562 0 1 1 2.21 2.209l-3.125 3.125a1.558 1.558 0 0 1-1.11.458z" class="cls-5" transform="translate(-320.155 -156.017)"/>
                    <g id="그룹_53" transform="translate(0 70.533)">
                        <path id="패스_22" d="M56.066 387.971a1.557 1.557 0 0 1-1.105-.458l-2.02-2.02-2.02 2.02a1.562 1.562 0 1 1-2.21-2.209l3.125-3.125a1.562 1.562 0 0 1 2.21 0l3.125 3.125a1.562 1.562 0 0 1-1.1 2.667z" class="cls-5" transform="translate(-48.253 -381.721)"/>
                    </g>
                </g>
            </g>
        </g>
    </g>
</svg>
