<svg xmlns="http://www.w3.org/2000/svg" width="160" height="160" viewBox="0 0 160 160">
    <defs>
        <linearGradient id="linear-gradient" x1="1.207" x2="-.262" y1=".81" y2=".189" gradientUnits="objectBoundingBox">
            <stop offset="0" stop-color="#d2deff" stop-opacity="0"/>
            <stop offset="1" stop-color="#b7c5ff"/>
        </linearGradient>
        <style>
            .cls-5{fill:#00c}.cls-4{fill:#fff}.cls-6{fill:#6583fe}
        </style>
    </defs>
    <g id="icon_판매" transform="translate(-904.758 -383.521)">
        <path id="사각형_9" fill="none" d="M0 0H160V160H0z" transform="translate(904.758 383.521)"/>
        <g id="ecommerce_1_" transform="translate(905.97 383.977)">
            <g id="그룹_80">
                <path id="패스_23" fill="url(#linear-gradient)" d="M132.893 62.693a66.245 66.245 0 0 0 .467-7.915C133.143 24.708 110.582.185 83.005 0 54.836-.189 31.964 24.583 31.964 55.183a58.766 58.766 0 0 0 .467 7.479A26.61 26.61 0 0 1 21.65 87.777c-10.906 7.572-17.45 17.2-17.45 27.7-.031 24.336 35.118 44.061 78.463 44.061s78.494-19.725 78.494-44.03c0-10.5-6.544-20.13-17.45-27.7a26.6 26.6 0 0 1-10.814-25.115z" transform="translate(-4.2 .003)"/>
                <g id="그룹_79" transform="translate(9.528 5.968)">
                    <g id="그룹_73" transform="translate(16.775)">
                        <g id="그룹_64">
                            <path id="패스_24" fill="#00c" d="M189.775 176.133h-61.658A7.124 7.124 0 0 1 121 169V47.933a7.124 7.124 0 0 1 7.117-7.133h61.658a7.124 7.124 0 0 1 7.117 7.133V169a7.164 7.164 0 0 1-7.117 7.133z" opacity="0.1" transform="translate(-110.816 -34.021)"/>
                            <g id="그룹_63">
                                <g id="그룹_62">
                                    <g id="그룹_59" transform="translate(3.936 13.807)">
                                        <g id="그룹_58">
                                            <path id="패스_25" d="M362.666 84.917H355.7V63.3h6.966a2.226 2.226 0 0 1 2.218 2.218V82.7a2.226 2.226 0 0 1-2.218 2.217z" class="cls-4" transform="translate(-276.528 -63.3)"/>
                                            <path id="패스_26" d="M102.218 107.159h7.966V63.3h-7.966c-1.218 0-1.218 1-1.218 2.218v39.423c0 1.218 0 2.218 1.218 2.218z" class="cls-4" transform="translate(-101 -63.3)"/>
                                        </g>
                                    </g>
                                    <g id="그룹_61">
                                        <path id="패스_27" d="M189.775 154.433h-61.658A7.124 7.124 0 0 1 121 147.3V26.233a7.124 7.124 0 0 1 7.117-7.133h61.658a7.124 7.124 0 0 1 7.117 7.133V147.3a7.164 7.164 0 0 1-7.117 7.133z" class="cls-4" transform="translate(-110.816 -19.1)"/>
                                        <path id="패스_28" d="M121 73h75.861v101.626H121z" class="cls-4" transform="translate(-110.816 -56.162)"/>
                                        <g id="그룹_60" transform="translate(0 16.869)">
                                            <path id="패스_29" d="M107.737 89.125H88.4L98.584 73.1h15.244z" class="cls-4" transform="translate(-88.4 -73.1)"/>
                                            <path id="패스_30" d="M169.605 89.125H150.3l6.092-16.025h15.276z" class="cls-4" transform="translate(-131.064 -73.1)"/>
                                            <path id="패스_31" d="M231.437 89.125H212.1l2.062-16.025h15.244z" class="cls-4" transform="translate(-173.654 -73.1)"/>
                                            <path id="패스_32" d="M288.836 89.125h-19.305L267.5 73.1h15.244z" class="cls-4" transform="translate(-211.843 -73.1)"/>
                                            <path id="패스_33" d="M341.728 89.125h-19.336L316.3 73.1h15.244z" class="cls-4" transform="translate(-245.5 -73.1)"/>
                                            <path id="패스_34" d="M98.153 141.737a9.639 9.639 0 0 1-9.653-9.653V124.4h19.337v7.685a9.726 9.726 0 0 1-9.684 9.652z" class="cls-4" transform="translate(-88.469 -108.375)"/>
                                            <path id="패스_35" d="M159.953 141.737a9.639 9.639 0 0 1-9.653-9.653V124.4h19.337v7.685a9.706 9.706 0 0 1-9.684 9.653z" class="cls-4" transform="translate(-131.062 -108.375)"/>
                                            <path id="패스_36" d="M221.853 141.737a9.639 9.639 0 0 1-9.653-9.653V124.4h19.305v7.685a9.679 9.679 0 0 1-9.652 9.652z" class="cls-4" transform="translate(-173.723 -108.375)"/>
                                            <path id="패스_37" d="M283.653 141.737a9.639 9.639 0 0 1-9.653-9.652V124.4h19.337v7.685a9.706 9.706 0 0 1-9.684 9.652z" class="cls-4" transform="translate(-216.316 -108.375)"/>
                                            <path id="패스_38" d="M345.553 141.737a9.639 9.639 0 0 1-9.653-9.653V124.4h19.337v7.685a9.706 9.706 0 0 1-9.684 9.652z" class="cls-4" transform="translate(-258.977 -108.375)"/>
                                        </g>
                                    </g>
                                    <path id="패스_39" d="M231.613 44.049h-13.089a1.624 1.624 0 1 1 0-3.249h13.089a1.624 1.624 0 1 1 0 3.249z" class="cls-5" transform="translate(-176.955 -34.021)"/>
                                    <path id="패스_40" d="M222 415.824v4.092a1.613 1.613 0 0 0 1.624 1.624h9.9a1.613 1.613 0 0 0 1.624-1.624v-4.092a1.613 1.613 0 0 0-1.624-1.624h-9.9a1.676 1.676 0 0 0-1.624 1.624z" class="cls-6" transform="translate(-180.462 -291.175)"/>
                                    <path id="패스_41" d="M309.466 423.949h-5.342a1.624 1.624 0 0 1 0-3.249h5.342a1.613 1.613 0 0 1 1.624 1.624 1.633 1.633 0 0 1-1.624 1.625z" class="cls-5" transform="translate(-235.916 -295.645)"/>
                                    <path id="패스_42" d="M163.066 423.949h-5.342a1.624 1.624 0 1 1 0-3.249h5.342a1.624 1.624 0 0 1 0 3.249z" class="cls-5" transform="translate(-135.046 -295.645)"/>
                                </g>
                            </g>
                        </g>
                        <g id="그룹_67" transform="translate(26.013 51.77)">
                            <circle id="타원_29" cx="22.117" cy="22.117" r="22.117" class="cls-6"/>
                            <circle id="타원_30" cx="15.12" cy="15.12" r="15.12" class="cls-4" transform="rotate(-82.413 22.62 14.645)"/>
                            <g id="그룹_66" transform="translate(14.807 11.027)">
                                <g id="그룹_65">
                                    <path id="패스_43" d="M229.228 246.056h-6.154a1.624 1.624 0 0 1 0-3.249h6.154a1.843 1.843 0 1 0 0-3.686h-4.467a5.061 5.061 0 1 1 0-10.121h6.154a1.624 1.624 0 1 1 0 3.249h-6.154a1.843 1.843 0 1 0 0 3.686h4.467a5.061 5.061 0 0 1 0 10.121z" class="cls-5" transform="translate(-219.7 -226.438)"/>
                                    <path id="패스_44" d="M239.524 242.979a1.613 1.613 0 0 1-1.624-1.624v-18.931a1.624 1.624 0 1 1 3.249 0v18.931a1.654 1.654 0 0 1-1.625 1.624z" class="cls-5" transform="translate(-232.215 -220.8)"/>
                                </g>
                            </g>
                        </g>
                        <g id="그룹_68" transform="translate(32.854 99.334)">
                            <path id="패스_45" d="M223.127 341.249h-27.3a1.624 1.624 0 1 1 0-3.249h27.3a1.613 1.613 0 0 1 1.624 1.624 1.676 1.676 0 0 1-1.624 1.625z" class="cls-5" transform="translate(-194.2 -338)"/>
                        </g>
                        <g id="그룹_69" transform="translate(32.854 105.813)">
                            <path id="패스_46" d="M223.127 362.049h-27.3a1.624 1.624 0 0 1 0-3.249h27.3a1.613 1.613 0 0 1 1.624 1.624 1.654 1.654 0 0 1-1.624 1.625z" class="cls-5" transform="translate(-194.2 -358.8)"/>
                        </g>
                        <g id="그룹_72" transform="translate(19.921 57.585)">
                            <g id="그룹_70" transform="translate(53.137)">
                                <path id="패스_47" d="M324.524 214.128a1.613 1.613 0 0 1-1.624-1.628v-6.779a1.624 1.624 0 0 1 3.249 0v6.779a1.613 1.613 0 0 1-1.625 1.628z" class="cls-5" transform="translate(-322.9 -204.1)"/>
                            </g>
                            <g id="그룹_71" transform="translate(0 20.774)">
                                <path id="패스_48" d="M154.424 280.628A1.613 1.613 0 0 1 152.8 279v-6.779a1.624 1.624 0 0 1 3.249 0V279a1.613 1.613 0 0 1-1.625 1.628z" class="cls-5" transform="translate(-152.8 -270.6)"/>
                            </g>
                        </g>
                    </g>
                    <g id="그룹_74" transform="translate(111.379 3.561)">
                        <path id="패스_49" d="M400.591 36.966a1.713 1.713 0 0 1-1.156-.469l-2.093-2.097-2.093 2.1a1.613 1.613 0 0 1-2.28-2.28l3.249-3.249a1.622 1.622 0 0 1 2.28 0l3.218 3.249a1.622 1.622 0 0 1 0 2.28 1.585 1.585 0 0 1-1.125.469z" class="cls-6" transform="translate(-392.5 -30.5)"/>
                    </g>
                    <g id="그룹_77" transform="translate(0 34.129)">
                        <g id="그룹_75">
                            <path id="패스_50" d="M42.791 135.235a1.713 1.713 0 0 1-1.156-.469l-2.093-2.093-2.093 2.093a1.613 1.613 0 1 1-2.28-2.28l3.218-3.218a1.622 1.622 0 0 1 2.28 0l3.218 3.218a1.622 1.622 0 0 1 0 2.28 1.373 1.373 0 0 1-1.094.469z" class="cls-6" transform="translate(-34.7 -128.8)"/>
                        </g>
                        <g id="그룹_76" transform="translate(120.063 38.33)">
                            <path id="패스_51" d="M428.391 257.935a1.713 1.713 0 0 1-1.156-.469l-2.093-2.093-2.093 2.093a1.613 1.613 0 1 1-2.28-2.28l3.218-3.218a1.622 1.622 0 0 1 2.28 0l3.218 3.218a1.621 1.621 0 0 1 0 2.28 1.465 1.465 0 0 1-1.094.469z" class="cls-6" transform="translate(-420.3 -251.5)"/>
                        </g>
                    </g>
                    <g id="그룹_78" transform="translate(9.996 110.821)">
                        <path id="패스_52" d="M74.791 381.335a1.714 1.714 0 0 1-1.156-.469l-2.093-2.093-2.093 2.093a1.613 1.613 0 0 1-2.28-2.28l3.218-3.218a1.622 1.622 0 0 1 2.28 0l3.218 3.218a1.622 1.622 0 0 1 0 2.28 1.466 1.466 0 0 1-1.094.469z" class="cls-6" transform="translate(-66.7 -374.9)"/>
                    </g>
                    <path id="패스_53" d="M399.324 324.135a1.714 1.714 0 0 1-1.156-.469 1.622 1.622 0 0 1 0-2.28l3.218-3.218a1.612 1.612 0 0 1 2.28 2.28l-3.218 3.218a1.585 1.585 0 0 1-1.124.469z" class="cls-6" transform="translate(-284.697 -224.695)"/>
                </g>
            </g>
            <path id="패스_54" d="M183.139 48.357a1.647 1.647 0 0 0-.25-.841l-3.689-5.793V31.568a3.834 3.834 0 0 0-3.842-3.831h-2.405v-5.015A8.74 8.74 0 0 0 164.208 14h-61.977a8.74 8.74 0 0 0-8.747 8.722v5.015h-3.436a2.575 2.575 0 0 0-2.562 1.651 6.068 6.068 0 0 0-.25 2.118v10.248l-3.686 5.793a1.671 1.671 0 0 0-.25.872v7.663a11.287 11.287 0 0 0 3.936 8.535V71a6.068 6.068 0 0 0 .25 2.118 2.575 2.575 0 0 0 2.562 1.651h3.436v69.119a8.74 8.74 0 0 0 8.747 8.722h61.977a8.74 8.74 0 0 0 8.747-8.722V90.5a1.624 1.624 0 0 0-3.249 0v42.02h-73V67.078a11.346 11.346 0 0 0 7.529-5.233 11.272 11.272 0 0 0 19.305 0 11.385 11.385 0 0 0 9.684 5.42 11.251 11.251 0 0 0 9.653-5.451 11.272 11.272 0 0 0 19.305 0 11.275 11.275 0 0 0 20.93-5.794l.031-7.663zm-10.184-17.381h2.405a.592.592 0 0 1 .594.592v5.108l-3.03-4.735v-.966zm-82.5 0h3v.966l-3.03 4.735c.029-.001.029-5.545.029-5.701zm3.03 40.494h-3v-4.953a10.771 10.771 0 0 0 3.03.716v4.237zm76.222 64.26v8.07a5.512 5.512 0 0 1-5.529 5.513h-61.947A5.512 5.512 0 0 1 96.7 143.8v-8.07zm-67.1-79.71a8.06 8.06 0 0 1-16.119 0v-6.043h16.088v6.043zm.5-9.251H87.861l8.59-13.519a1.758 1.758 0 0 0 .25-.872v-9.656a5.512 5.512 0 0 1 5.529-5.513h61.977a5.512 5.512 0 0 1 5.529 5.513v8.068h-63.663a1.62 1.62 0 1 0 0 3.239h1.906zm37.924 0h-15.653L127 34h12.4zm-19.089 9.251a8.06 8.06 0 0 1-16.119 0v-6.043h16.119zm.187-9.251h-15.556L111.446 34h12.308zm19.118 9.251a8.06 8.06 0 0 1-16.119 0v-6.043h16.088v6.043zM142.653 34h12.308l4.873 12.771h-15.556zm17.931 22.02a8.06 8.06 0 0 1-16.119 0v-6.043h16.088v6.043zM158.429 34h12.027l8.122 12.771H163.3zm21.461 22.02a8.06 8.06 0 0 1-16.119 0v-6.043h16.088v6.043z" class="cls-5" transform="translate(-58.759 -9.626)"/>
        </g>
    </g>
</svg>
