<svg width="48" height="48" viewBox="0 0 48 48" fill="none" xmlns="http://www.w3.org/2000/svg">
<circle cx="24" cy="24" r="24" fill="#1BAFFD"/>
<g clip-path="url(#clip0)">
<path d="M34.039 21.752C33.7993 21.5976 33.5447 21.4676 33.279 21.364C33.0393 19.0699 31.9583 16.9458 30.2447 15.4018C28.531 13.8579 26.3061 13.0034 23.9995 13.0034C21.6929 13.0034 19.468 13.8579 17.7543 15.4018C16.0407 16.9458 14.9597 19.0699 14.72 21.364C13.9186 21.6767 13.2302 22.2239 12.7449 22.9342C12.2596 23.6445 12 24.4847 12 25.345V26.68C12.0011 27.8127 12.4515 28.8987 13.2524 29.6996C14.0533 30.5005 15.1393 30.9509 16.272 30.952H17.2C17.5849 30.9515 17.9539 30.7983 18.2261 30.5261C18.4983 30.2539 18.6515 29.8849 18.652 29.5V22.525C18.6515 22.1401 18.4983 21.771 18.2261 21.4989C17.9539 21.2267 17.5849 21.0735 17.2 21.073H16.36C16.6596 19.2641 17.5916 17.6202 18.99 16.4344C20.3884 15.2485 22.1624 14.5976 23.996 14.5976C25.8296 14.5976 27.6036 15.2485 29.002 16.4344C30.4004 17.6202 31.3324 19.2641 31.632 21.073H30.8C30.4151 21.0735 30.0461 21.2267 29.7739 21.4989C29.5017 21.771 29.3485 22.1401 29.348 22.525V29.499C29.3483 29.8841 29.5013 30.2534 29.7735 30.5258C30.0457 30.7982 30.4149 30.9515 30.8 30.952H31.488C31.2041 31.719 30.7048 32.3878 30.05 32.878C29.3288 33.4187 28.4514 33.7104 27.55 33.709C27.4384 33.6971 27.3256 33.7088 27.2189 33.7434C27.1121 33.778 27.0138 33.8346 26.9304 33.9096C26.8469 33.9846 26.7802 34.0764 26.7345 34.1789C26.6889 34.2813 26.6653 34.3923 26.6653 34.5045C26.6653 34.6167 26.6889 34.7277 26.7345 34.8301C26.7802 34.9326 26.8469 35.0244 26.9304 35.0994C27.0138 35.1744 27.1121 35.231 27.2189 35.2656C27.3256 35.3002 27.4384 35.3119 27.55 35.3C28.8807 35.2988 30.1704 34.8395 31.2024 33.9995C32.2344 33.1594 32.9458 31.9897 33.217 30.687C34.0339 30.3822 34.7381 29.8351 35.2355 29.119C35.7329 28.4029 35.9996 27.5519 36 26.68V25.345C36.0015 24.6295 35.8226 23.9253 35.4798 23.2973C35.1371 22.6693 34.6415 22.1378 34.039 21.752V21.752ZM34.409 25.345V26.68C34.4079 27.3905 34.1252 28.0715 33.6229 28.5739C33.1205 29.0762 32.4395 29.3589 31.729 29.36H30.936V22.66H31.729C32.4398 22.66 33.1214 22.9424 33.624 23.4449C34.1266 23.9475 34.409 24.6292 34.409 25.34V25.345ZM14.823 23.089C15.255 22.8108 15.7582 22.6632 16.272 22.664H17.065V29.364H16.272C15.5615 29.3629 14.8805 29.0802 14.3781 28.5779C13.8758 28.0755 13.5931 27.3945 13.592 26.684V25.345C13.5911 24.8958 13.7034 24.4536 13.9186 24.0593C14.1337 23.665 14.4448 23.3313 14.823 23.089V23.089Z" fill="white"/>
</g>
<defs>
<clipPath id="clip0">
<rect width="24" height="24" fill="white" transform="translate(12 12)"/>
</clipPath>
</defs>
</svg>
