<svg width="48" height="48" viewBox="0 0 48 48" fill="none" xmlns="http://www.w3.org/2000/svg">
<circle cx="24" cy="24" r="24" fill="#1DB6CC"/>
<path d="M12.2092 35.8004C12.1058 35.6981 12.0365 35.5647 12.0109 35.4215C11.9853 35.2783 12.0051 35.1315 12.0666 34.9996C19.5176 18.9796 19.2388 19.572 19.2658 19.525C19.3296 19.414 19.4225 19.3218 19.5344 19.2594C19.6462 19.1971 19.7735 19.1674 19.9015 19.1715C22.1714 19.1808 24.3447 20.0876 25.9474 21.695C27.5502 23.3024 28.4516 25.4778 28.4543 27.7477C28.467 27.9255 28.4601 28.1044 28.4347 28.2809C28.3937 28.4601 28.2841 28.6176 28.1291 28.7164C28.0731 28.7514 29.158 28.2323 13.006 35.9313C12.9124 35.9762 12.8101 35.9979 12.7062 35.9977C12.5209 35.9992 12.3423 35.9294 12.2092 35.8004V35.8004ZM14.1662 33.8239L25.3566 28.4899C23.9369 28.0736 22.6478 27.2986 21.6144 26.2399C20.5811 25.1811 19.8379 23.8743 19.4562 22.445L14.1662 33.8239ZM27.0392 27.3883C26.9496 25.6751 26.2497 24.0505 25.0666 22.8082C23.8834 21.566 22.2948 20.7878 20.5881 20.6149C20.6782 22.3277 21.3786 23.9531 22.5617 25.195C23.7448 26.4368 25.3328 27.2135 27.0392 27.3864V27.3883ZM17.7033 29.8317C17.6635 29.6993 17.664 29.5577 17.7043 29.4254C17.7446 29.2932 17.823 29.1772 17.9299 29.0895C18.0367 29.0018 18.1673 28.9469 18.3049 28.9332C18.4424 28.9196 18.5803 28.9464 18.7023 29.0114C18.8243 29.0763 18.9249 29.1767 18.9904 29.2985C19.0559 29.4202 19.0836 29.5593 19.0705 29.6969C19.0574 29.8345 19.0034 29.9647 18.9162 30.0719C18.829 30.1791 18.7123 30.2577 18.5802 30.2985C18.5156 30.319 18.4479 30.3297 18.3801 30.3297C18.2277 30.3317 18.0789 30.2832 17.9562 30.193C17.8335 30.1028 17.7439 29.9757 17.7004 29.8297L17.7033 29.8317ZM20.6857 28.6383C20.6595 28.5027 20.6743 28.3634 20.7277 28.236C20.7811 28.1086 20.8714 27.9999 20.9865 27.9235C21.1016 27.8471 21.236 27.8061 21.3742 27.8063C21.5123 27.8065 21.648 27.8467 21.7629 27.9235C21.8777 28.0003 21.9667 28.1103 22.0197 28.2379C22.0727 28.3655 22.0874 28.5047 22.0607 28.6403C22.0341 28.7758 21.9676 28.9016 21.8703 28.9996C21.7729 29.0977 21.6482 29.1635 21.5129 29.1911C21.4678 29.2005 21.4222 29.2048 21.3761 29.2047C21.213 29.205 21.0547 29.1485 20.9289 29.0446C20.8031 28.9407 20.7172 28.7966 20.6867 28.6364L20.6857 28.6383ZM18.8283 26.4567C18.7885 26.3243 18.789 26.1827 18.8293 26.0504C18.8696 25.9182 18.948 25.8022 19.0549 25.7145C19.1617 25.6268 19.2923 25.5719 19.4299 25.5582C19.5674 25.5446 19.7053 25.5714 19.8273 25.6364C19.9493 25.7013 20.0499 25.8017 20.1154 25.9235C20.1809 26.0452 20.2086 26.1843 20.1955 26.3219C20.1824 26.4595 20.1284 26.5897 20.0412 26.6969C19.954 26.8041 19.8373 26.8827 19.7052 26.9235C19.6406 26.944 19.5729 26.9547 19.5051 26.9547C19.3533 26.9561 19.2053 26.9082 19.0832 26.818C18.9611 26.7278 18.8717 26.6002 18.8283 26.4547V26.4567ZM31.9533 25.7067C31.9135 25.5743 31.914 25.4327 31.9543 25.3004C31.9946 25.1682 32.073 25.0522 32.1799 24.9645C32.2867 24.8768 32.4173 24.8219 32.5549 24.8082C32.6924 24.7946 32.8303 24.8214 32.9523 24.8864C33.0743 24.9513 33.1749 25.0517 33.2404 25.1735C33.3059 25.2952 33.3336 25.4343 33.3205 25.5719C33.3074 25.7095 33.2534 25.8397 33.1662 25.9469C33.079 26.0541 32.9623 26.1327 32.8302 26.1735C32.7656 26.194 32.6979 26.2047 32.6301 26.2047C32.4783 26.2061 32.3303 26.1582 32.2082 26.068C32.0861 25.9778 31.9967 25.8502 31.9533 25.7047V25.7067ZM29.7238 25.0231C29.6386 24.987 29.562 24.9349 29.4972 24.8688C29.4325 24.8027 29.3812 24.7242 29.3469 24.6383C29.3125 24.5524 29.2956 24.4593 29.297 24.3668C29.2985 24.2743 29.3187 24.1841 29.3556 24.0993L30.0549 22.4762C30.2419 22.0432 30.58 21.6922 31.006 21.4899C31.4321 21.2875 31.9175 21.248 32.3713 21.3766C32.4508 21.3994 32.5341 21.4015 32.6154 21.3864C32.6967 21.3712 32.774 21.3386 32.84 21.2887C32.9061 21.2389 32.9594 21.1733 32.9963 21.0993C33.0331 21.0252 33.052 20.9437 33.0519 20.861V20.0934C33.0514 19.6604 33.1957 19.2394 33.4621 18.8981C33.7285 18.5568 34.1025 18.3151 34.5226 18.2106L35.0851 18.07C35.2659 18.0246 35.4575 18.0523 35.6174 18.1481C35.7772 18.2438 35.8923 18.399 35.9377 18.5797C35.983 18.7605 35.9543 18.9531 35.8586 19.1129C35.7628 19.2728 35.6077 19.3879 35.4269 19.4332L34.8644 19.5739C34.7495 19.6038 34.6478 19.6711 34.5754 19.7653C34.5029 19.8594 34.4635 19.9746 34.464 20.0934V20.861C34.4642 21.1614 34.3949 21.4592 34.2609 21.7282C34.127 21.9971 33.9325 22.2309 33.6926 22.4118C33.4527 22.5926 33.1735 22.7144 32.8781 22.7692C32.5827 22.8239 32.2792 22.8091 31.9904 22.7262C31.8658 22.6911 31.7326 22.7024 31.6154 22.7575C31.4982 22.8126 31.4042 22.9086 31.3517 23.027L30.6525 24.65C30.6165 24.7352 30.5633 24.8119 30.4972 24.8766C30.4312 24.9414 30.3527 24.9927 30.2668 25.027C30.1808 25.0613 30.0898 25.0772 29.9972 25.0758C29.9047 25.0744 29.8125 25.0561 29.7277 25.0192L29.7238 25.0231ZM26.6799 19.6012L26.6174 19.152C26.5643 18.7819 26.591 18.4052 26.6965 18.0465C26.8019 17.6879 26.9838 17.3544 27.2287 17.0719C27.4735 16.7894 27.7754 16.5632 28.1154 16.4079C28.4554 16.2525 28.8256 16.1736 29.1994 16.1735C29.4227 16.1744 29.6412 16.1112 29.8312 15.9938C30.0213 15.8764 30.1754 15.7096 30.2746 15.5094L31.1672 13.7243C31.358 13.3413 31.6405 13.011 31.9894 12.7633C32.3383 12.5156 32.7427 12.3582 33.1672 12.3043L35.1965 12.0094C35.2878 11.9963 35.3805 12.0003 35.4699 12.0231C35.5593 12.0459 35.6431 12.0869 35.717 12.1422C35.7908 12.1975 35.8535 12.266 35.9006 12.3454C35.9476 12.4247 35.9783 12.5138 35.9914 12.6051C36.0045 12.6965 35.9996 12.7891 35.9767 12.8786C35.9539 12.968 35.9139 13.0508 35.8586 13.1246C35.8033 13.1985 35.7338 13.2612 35.6545 13.3082C35.5751 13.3553 35.488 13.3869 35.3967 13.4C33.3217 13.7 33.3543 13.6989 33.3693 13.6989H33.3478C33.1514 13.723 32.9646 13.7957 32.8029 13.9098C32.6412 14.0239 32.5097 14.1762 32.4211 14.3532L31.5285 16.1383C31.3131 16.5725 30.9799 16.9383 30.5676 17.193C30.1552 17.4477 29.6801 17.5815 29.1955 17.5797C29.0231 17.5794 28.8524 17.6157 28.6955 17.6871C28.5386 17.7586 28.3992 17.8635 28.2863 17.9938C28.1734 18.1241 28.0896 18.2775 28.0412 18.443C27.9928 18.6085 27.9802 18.7822 28.0051 18.9528L28.0695 19.402C28.0826 19.4935 28.0777 19.5859 28.0549 19.6754C28.032 19.765 27.9911 19.8495 27.9357 19.9235C27.8803 19.9974 27.8111 20.0599 27.7316 20.1071C27.6521 20.1542 27.5643 20.1857 27.4728 20.1989C27.3814 20.212 27.2879 20.2061 27.1984 20.1832C27.1089 20.1604 27.0253 20.1195 26.9513 20.0641C26.8774 20.0087 26.8149 19.9405 26.7677 19.861C26.7206 19.7815 26.6891 19.6927 26.676 19.6012H26.6799ZM29.3517 19.7711C29.2992 19.6433 29.2865 19.5023 29.3136 19.3668C29.3408 19.2313 29.4073 19.1071 29.5051 19.0094C29.6028 18.9117 29.7269 18.845 29.8625 18.818C29.998 18.791 30.139 18.8044 30.2668 18.8571C30.3945 18.9098 30.5032 19.0002 30.5802 19.1149C30.6573 19.2296 30.6989 19.3634 30.6994 19.5016C30.6999 19.6398 30.6594 19.775 30.5832 19.8903C30.5069 20.0055 30.399 20.0964 30.2717 20.15C30.1867 20.1865 30.0946 20.2049 30.0021 20.2047C29.8628 20.2051 29.7263 20.1631 29.6105 20.0856C29.4947 20.0081 29.4045 19.8981 29.3517 19.7692V19.7711ZM24.1017 18.6461C24.0492 18.5183 24.0365 18.3773 24.0636 18.2418C24.0908 18.1063 24.1573 17.9821 24.2551 17.8844C24.3528 17.7867 24.4769 17.72 24.6125 17.693C24.748 17.666 24.889 17.6794 25.0168 17.7321C25.1445 17.7848 25.2532 17.8752 25.3302 17.9899C25.4073 18.1046 25.4489 18.2384 25.4494 18.3766C25.4499 18.5148 25.4094 18.65 25.3332 18.7653C25.2569 18.8805 25.149 18.9714 25.0217 19.025C24.9367 19.0615 24.8446 19.0799 24.7521 19.0797C24.6125 19.0805 24.4757 19.0401 24.3595 18.9625C24.2434 18.885 24.1527 18.7735 24.0998 18.6442L24.1017 18.6461ZM21.8488 17.5133C21.7232 17.1992 21.6768 16.8575 21.7131 16.5211C21.7493 16.1847 21.8672 15.8638 22.0568 15.5836C22.2464 15.3034 22.5021 15.0724 22.801 14.9137C23.0998 14.755 23.4333 14.6736 23.7717 14.6735H23.9416C24.1012 14.673 24.2546 14.614 24.3752 14.5094C24.4958 14.4048 24.5748 14.2611 24.5978 14.1032L24.8049 12.652C24.8314 12.4673 24.9309 12.301 25.0802 12.1891C25.2296 12.0772 25.417 12.0278 25.6017 12.0543C25.7865 12.0809 25.9528 12.1804 26.0646 12.3297C26.1765 12.4791 26.2249 12.6665 26.1984 12.8512L25.9914 14.3024C25.9187 14.7948 25.6712 15.2459 25.2951 15.5719C24.919 15.8979 24.4393 16.0777 23.9416 16.0797H23.7717C23.6632 16.0796 23.556 16.1051 23.4601 16.1559C23.3643 16.2067 23.2827 16.2809 23.2219 16.3707C23.161 16.4606 23.123 16.5637 23.1115 16.6715C23.1 16.7794 23.115 16.8892 23.1554 16.9899C23.2248 17.1631 23.222 17.3574 23.1486 17.5289C23.0752 17.7004 22.937 17.8346 22.7638 17.9039C22.5907 17.9733 22.3973 17.9715 22.2258 17.8981C22.0543 17.8247 21.9182 17.6865 21.8488 17.5133ZM33.4767 16.3961C33.4245 16.2682 33.4121 16.1272 33.4396 15.9918C33.4671 15.8565 33.534 15.7318 33.632 15.6344C33.73 15.537 33.8539 15.4717 33.9894 15.445C34.125 15.4182 34.2661 15.4311 34.3937 15.484C34.5213 15.5369 34.6303 15.627 34.7072 15.7418C34.7841 15.8566 34.8251 15.9924 34.8254 16.1305C34.8257 16.2687 34.7845 16.4021 34.7082 16.5172C34.6318 16.6324 34.524 16.7235 34.3967 16.777C34.3116 16.8117 34.22 16.8295 34.1281 16.8297C33.9886 16.8303 33.8525 16.79 33.7365 16.7125C33.6205 16.635 33.5295 16.5233 33.4767 16.3942V16.3961ZM27.8117 13.2633C27.7855 13.1277 27.8003 12.9864 27.8537 12.859C27.9071 12.7316 27.9974 12.623 28.1125 12.5465C28.2276 12.4701 28.362 12.4291 28.5002 12.4293C28.6383 12.4296 28.774 12.4717 28.8888 12.5485C29.0037 12.6253 29.0927 12.7334 29.1457 12.861C29.1987 12.9886 29.2134 13.1297 29.1867 13.2653C29.16 13.4008 29.0936 13.5247 28.9963 13.6227C28.8989 13.7207 28.7742 13.7885 28.6388 13.8161C28.5934 13.8255 28.5475 13.8298 28.5011 13.8297C28.3381 13.8301 28.1797 13.7733 28.0539 13.6696C27.9281 13.5659 27.8424 13.4215 27.8117 13.2614V13.2633ZM21.0617 12.8883C21.0355 12.7527 21.0503 12.6114 21.1037 12.484C21.1571 12.3566 21.2474 12.248 21.3625 12.1715C21.4776 12.0951 21.612 12.0541 21.7502 12.0543C21.8883 12.0546 22.024 12.0967 22.1388 12.1735C22.2537 12.2503 22.3427 12.3584 22.3957 12.486C22.4487 12.6136 22.4634 12.7547 22.4367 12.8903C22.41 13.0258 22.3436 13.1497 22.2463 13.2477C22.1489 13.3457 22.0242 13.4135 21.8888 13.4411C21.8438 13.4505 21.7982 13.4549 21.7521 13.4547C21.5889 13.4553 21.4308 13.3983 21.3049 13.2946C21.1789 13.1909 21.0925 13.0466 21.0617 12.8864V12.8883Z" fill="white"/>
</svg>
