<svg width="48" height="48" viewBox="0 0 48 48" fill="none" xmlns="http://www.w3.org/2000/svg">
<circle cx="24" cy="24" r="24" fill="#0964FF"/>
<g clip-path="url(#clip0)">
<path d="M15.5146 32.4848C13.5517 30.5213 12.3312 27.9372 12.0595 25.1742C11.7878 22.4112 12.4824 19.6406 14.0253 17.3324C15.5682 15.0243 17.8635 13.3214 20.5204 12.516C23.1774 11.7106 26.0319 11.8514 28.5966 12.9145C31.1614 13.9775 33.2777 15.8973 34.5859 18.3461C35.894 20.7949 36.3128 23.6213 35.7704 26.3441C35.2281 29.067 33.7579 31.517 31.6113 33.2777C29.4646 35.0384 26.7743 36.0012 23.998 36.0004C22.4217 36.0044 20.8604 35.6957 19.4042 35.0922C17.9481 34.4887 16.6258 33.6027 15.5146 32.4848V32.4848ZM13.498 24.0004C13.498 26.0771 14.1138 28.1077 15.2675 29.8344C16.4213 31.5611 18.0608 32.9068 19.9794 33.7016C21.8981 34.4963 24.01 34.7044 26.0468 34.2992C28.0836 33.8941 29.9543 32.8927 31.4228 31.4242C32.8912 29.9558 33.8907 28.086 34.2958 26.0492C34.701 24.0124 34.4939 21.9014 33.6992 19.9828C32.9044 18.0642 31.5577 16.4237 29.831 15.2699C28.1043 14.1162 26.0747 13.5004 23.998 13.5004C21.2142 13.5036 18.5455 14.6101 16.5771 16.5785C14.6086 18.547 13.5012 21.2166 13.498 24.0004ZM23.248 30.7504V29.9145C22.5029 29.7441 21.8381 29.3263 21.3613 28.7289C20.8845 28.1315 20.6239 27.3897 20.623 26.6254C20.623 26.4265 20.7021 26.2348 20.8427 26.0941C20.9834 25.9535 21.1741 25.8754 21.373 25.8754C21.5719 25.8754 21.7626 25.9535 21.9033 26.0941C22.0439 26.2348 22.123 26.4265 22.123 26.6254C22.123 26.9962 22.2334 27.3581 22.4394 27.6664C22.6454 27.9747 22.9376 28.2159 23.2802 28.3578C23.6228 28.4997 24.0005 28.5376 24.3642 28.4652C24.7279 28.3929 25.0619 28.2138 25.3242 27.9516C25.5864 27.6893 25.7645 27.3543 25.8369 26.9906C25.9092 26.6269 25.8723 26.2512 25.7304 25.9086C25.5885 25.566 25.3483 25.2728 25.04 25.0668C24.7316 24.8608 24.3688 24.7504 23.998 24.7504C23.1679 24.7508 22.367 24.446 21.748 23.893C21.129 23.34 20.7353 22.5772 20.6425 21.7523C20.5497 20.9275 20.7644 20.097 21.2451 19.4203C21.7257 18.7436 22.4386 18.2684 23.248 18.0844V17.2504C23.248 17.0515 23.3271 16.8598 23.4677 16.7191C23.6084 16.5785 23.7991 16.5004 23.998 16.5004C24.1969 16.5004 24.3876 16.5785 24.5283 16.7191C24.6689 16.8598 24.748 17.0515 24.748 17.2504V18.0844C25.4932 18.2553 26.158 18.6742 26.6347 19.2719C27.1114 19.8696 27.372 20.6108 27.373 21.3754C27.373 21.5743 27.2939 21.766 27.1533 21.9066C27.0126 22.0473 26.8219 22.1254 26.623 22.1254C26.4241 22.1254 26.2334 22.0473 26.0927 21.9066C25.9521 21.766 25.873 21.5743 25.873 21.3754C25.873 21.0046 25.7626 20.6427 25.5566 20.3344C25.3505 20.026 25.0584 19.7849 24.7158 19.643C24.3731 19.5011 23.9955 19.4632 23.6318 19.5355C23.2681 19.6079 22.934 19.787 22.6718 20.0492C22.4096 20.3114 22.2315 20.6464 22.1591 21.0102C22.0868 21.3739 22.1236 21.7496 22.2656 22.0922C22.4075 22.4348 22.6476 22.728 22.956 22.934C23.2643 23.14 23.6271 23.2504 23.998 23.2504C24.8278 23.2499 25.6291 23.555 26.248 24.1078C26.8668 24.6606 27.2597 25.4219 27.3525 26.2465C27.4453 27.0711 27.2314 27.902 26.7509 28.5785C26.2704 29.2551 25.5571 29.7304 24.748 29.9145V30.7504C24.748 30.9493 24.6689 31.141 24.5283 31.2816C24.3876 31.4223 24.1969 31.5004 23.998 31.5004C23.7991 31.5004 23.6084 31.4223 23.4677 31.2816C23.3271 31.141 23.248 30.9493 23.248 30.7504Z" fill="white"/>
</g>
<defs>
<clipPath id="clip0">
<rect width="24" height="24" fill="white" transform="translate(12 12)"/>
</clipPath>
</defs>
</svg>
