<svg xmlns="http://www.w3.org/2000/svg" width="282" height="282" viewBox="0 0 282 282">
    <defs>
        <linearGradient id="linear-gradient" x1="1.919" x2="1.452" y1="-10.632" y2="-11.493" gradientUnits="objectBoundingBox">
            <stop offset="0" stop-color="#d2dbfc" stop-opacity="0"/>
            <stop offset="1" stop-color="#b8c1fb"/>
        </linearGradient>
        <clipPath id="clip-path">
            <path id="사각형_65" fill="#ffcbcb" d="M0 0H282V282H0z" transform="translate(768 2976)"/>
        </clipPath>
        <style>
            .cls-7{fill:#2b2ab5}.cls-5{fill:#fff}.cls-6{fill:#6e80f8}
        </style>
    </defs>
    <g id="img_5번째" clip-path="url(#clip-path)" transform="translate(-768 -2976)">
        <g id="money" transform="translate(780.166 3008.575)">
            <path id="패스_228" fill="url(#linear-gradient)" d="M183.6 47.932C148.826 34.327 100.671 39.5 74.06 63.79c-18.79 17.154-4.247 22.043 8.563 53.431C91.895 139.938 0 136.811 0 177.861c0 47.457 66.556 38.461 91.255 43.893 37.762 8.306 70.706 39.376 111.053 35.28 35.125-3.566 48.516-31.129 53.4-62.727 9.1-58.869-13.25-123.346-72.108-146.375z" transform="translate(0 -40.554)"/>
            <path id="패스_229" fill="#2b2ab5" d="M226.4 129.9H46.5a10.065 10.065 0 0 0-10.07 10.066v97.355a10.06 10.06 0 0 0 7.549 9.735v5.43a10.06 10.06 0 0 0 7.549 9.735v5.223c0 .322.015.639.045.956a10.059 10.059 0 0 0 10.02 9.109H211.3a10.059 10.059 0 0 0 10.02-9.109c.03-.317.045-.634.045-.956v-5.223a10.06 10.06 0 0 0 7.549-9.735v-5.43a10.06 10.06 0 0 0 7.549-9.735v-97.355A10.065 10.065 0 0 0 226.4 129.9z" opacity="0.11" transform="translate(-18.096 -84.936)"/>
            <path id="패스_230" d="M257.1 299.268v36.964c0 .322-.015.639-.045.956a10.059 10.059 0 0 1-10.02 9.109H97.325a10.059 10.059 0 0 1-10.02-9.109c-.03-.317-.045-.634-.045-.956v-36.964A10.066 10.066 0 0 1 97.325 289.2h149.709a10.066 10.066 0 0 1 10.066 10.068z" class="cls-5" transform="translate(-43.346 -164.068)"/>
            <path id="패스_231" d="M247.132 286.77H82.325A10.065 10.065 0 0 1 72.26 276.7v-67.16a10.065 10.065 0 0 1 10.065-10.06h164.807a10.065 10.065 0 0 1 10.068 10.065V276.7a10.065 10.065 0 0 1-10.068 10.07z" class="cls-5" transform="translate(-35.895 -119.499)"/>
            <path id="패스_232" d="M247.23 226.831H67.325a10.065 10.065 0 0 1-10.065-10.065v-97.355a10.065 10.065 0 0 1 10.065-10.065h179.9a10.065 10.065 0 0 1 10.075 10.065v97.355a10.065 10.065 0 0 1-10.07 10.065z" class="cls-5" transform="translate(-28.443 -74.726)"/>
            <path id="패스_233" d="M257.06 174.31v25.7a2.534 2.534 0 0 1-1.815 2.415 29.054 29.054 0 0 0-19.995 22.159 2.5 2.5 0 0 1-2.467 2H117.607a2.5 2.5 0 0 1-2.467-2 29.054 29.054 0 0 0-19.995-22.159 2.533 2.533 0 0 1-1.815-2.415v-25.7a2.534 2.534 0 0 1 1.815-2.415 29.054 29.054 0 0 0 19.995-22.159 2.5 2.5 0 0 1 2.467-2h115.176a2.5 2.5 0 0 1 2.467 2 29.054 29.054 0 0 0 19.995 22.159 2.534 2.534 0 0 1 1.815 2.415z" class="cls-6" transform="translate(-46.361 -93.797)"/>
            <ellipse id="타원_56" cx="25.415" cy="32.303" class="cls-5" rx="25.415" ry="32.303" transform="translate(103.42 61.059)"/>
            <g id="그룹_131" transform="translate(26.3 32.104)">
                <path id="패스_234" d="M168.07 281.02h-10.976a2.516 2.516 0 1 1 0-5.033h10.976a2.516 2.516 0 1 1 0 5.033z" class="cls-7" transform="translate(-103.086 -189.607)"/>
                <path id="패스_235" d="M339.1 171.187h-10.973a2.516 2.516 0 1 1 0-5.033H339.1a2.516 2.516 0 0 1 0 5.033z" class="cls-7" transform="translate(-188.045 -135.049)"/>
                <g id="그룹_130" transform="translate(45.66 58.445)">
                    <circle id="타원_57" cx="2.813" cy="2.813" r="2.813" class="cls-7"/>
                    <circle id="타원_58" cx="2.813" cy="2.813" r="2.813" class="cls-7" transform="translate(8.51)"/>
                    <circle id="타원_59" cx="2.813" cy="2.813" r="2.813" class="cls-7" transform="translate(17.02)"/>
                    <circle id="타원_60" cx="2.813" cy="2.813" r="2.813" class="cls-7" transform="translate(91.101)"/>
                    <circle id="타원_61" cx="2.813" cy="2.813" r="2.813" class="cls-7" transform="translate(99.611)"/>
                    <circle id="타원_62" cx="2.813" cy="2.813" r="2.813" class="cls-7" transform="translate(108.121)"/>
                </g>
                <path id="패스_236" d="M408.425 161.072a2.516 2.516 0 0 1-1.779-4.3l8.891-8.891a2.516 2.516 0 1 1 3.559 3.559l-8.891 8.891a2.509 2.509 0 0 1-1.78.741z" class="cls-7" transform="translate(-227.932 -125.608)"/>
                <path id="패스_237" d="M395.94 147.238a2.516 2.516 0 0 1-1.78-4.3l8.891-8.891a2.516 2.516 0 1 1 3.559 3.559l-8.891 8.891a2.507 2.507 0 0 1-1.779.741z" class="cls-7" transform="translate(-221.73 -118.736)"/>
                <path id="패스_238" d="M93.425 305.083a2.516 2.516 0 0 1-1.78-4.3l8.891-8.891a2.516 2.516 0 0 1 3.559 3.559l-8.895 8.895a2.509 2.509 0 0 1-1.775.737z" class="cls-7" transform="translate(-71.458 -197.144)"/>
                <path id="패스_239" d="M80.94 291.25a2.516 2.516 0 0 1-1.78-4.3l8.891-8.891a2.516 2.516 0 0 1 3.559 3.559l-8.891 8.891a2.51 2.51 0 0 1-1.779.741z" class="cls-7" transform="translate(-65.256 -190.273)"/>
                <path id="패스_240" d="M248.522 207.245h-.78v-5.173h3.277a2.516 2.516 0 0 0 0-5.033h-3.277v-1.284a2.516 2.516 0 0 0-5.033 0v1.284h-.78a7.62 7.62 0 0 0 0 15.239h.78v5.174h-3.277a2.516 2.516 0 0 0 0 5.033h3.277v1.284a2.516 2.516 0 0 0 5.033 0v-1.284h.78a7.62 7.62 0 0 0 0-15.24zm-6.592 0a2.587 2.587 0 0 1 0-5.174h.78v5.174zm6.592 10.207h-.78v-5.174h.78a2.587 2.587 0 0 1 0 5.174z" class="cls-7" transform="translate(-142.692 -148.503)"/>
                <path id="패스_241" d="M254.811 189.952a2.516 2.516 0 0 0 2.516-2.516v-70.509a12.6 12.6 0 0 0-12.581-12.581H64.841a12.6 12.6 0 0 0-12.581 12.581v97.355a12.6 12.6 0 0 0 7.549 11.528v3.638a12.579 12.579 0 0 0 7.549 11.535v3.424a12.6 12.6 0 0 0 12.581 12.581h149.709a12.6 12.6 0 0 0 12.581-12.581v-3.428a12.574 12.574 0 0 0 7.549-11.531v-3.638a12.6 12.6 0 0 0 7.549-11.528v-12.7a2.516 2.516 0 1 0-5.033 0v12.7a7.557 7.557 0 0 1-7.549 7.549H64.841a7.557 7.557 0 0 1-7.549-7.549v-97.355a7.557 7.557 0 0 1 7.549-7.549h179.9a7.557 7.557 0 0 1 7.549 7.549v70.508a2.517 2.517 0 0 0 2.521 2.517zm-10.065 36.911v2.584a7.541 7.541 0 0 1-5.657 7.31 7.636 7.636 0 0 1-1.889.243H84.369a2.516 2.516 0 1 0 0 5.033H237.2v2.377a7.557 7.557 0 0 1-7.549 7.549H79.939a7.557 7.557 0 0 1-7.549-7.549v-5.21a2.516 2.516 0 0 0-1.889-2.437 7.545 7.545 0 0 1-5.66-7.311v-2.584z" class="cls-7" transform="translate(-52.26 -104.346)"/>
                <path id="패스_242" d="M235.236 146.77a5.021 5.021 0 0 0-4.936-4.03H115.123a5.022 5.022 0 0 0-4.936 4.03A26.416 26.416 0 0 1 91.928 167a5.027 5.027 0 0 0-3.6 4.822v25.7a5.027 5.027 0 0 0 3.6 4.822 26.415 26.415 0 0 1 18.259 20.234 5.021 5.021 0 0 0 4.936 4.03H230.3a5.022 5.022 0 0 0 4.936-4.03 26.416 26.416 0 0 1 18.259-20.235 5.027 5.027 0 0 0 3.6-4.822v-25.7a5.027 5.027 0 0 0-3.6-4.822 26.416 26.416 0 0 1-18.259-20.229zm16.791 50.765a31.436 31.436 0 0 0-21.727 24.046l-115.173.038a31.446 31.446 0 0 0-21.763-24.091l.033-25.708a31.436 31.436 0 0 0 21.727-24.046l115.173-.038a31.484 31.484 0 0 0 21.763 24.1z" class="cls-7" transform="translate(-70.177 -123.418)"/>
            </g>
            <path id="패스_243" d="M48.57 377.1h-1.636v-1.636a2.516 2.516 0 1 0-5.033 0v1.636h-1.635a2.516 2.516 0 1 0 0 5.033H41.9v1.636a2.516 2.516 0 0 0 5.033 0v-1.636h1.637a2.516 2.516 0 1 0 0-5.033z" class="cls-6" transform="translate(-18.752 -205.669)"/>
            <path id="패스_244" d="M143.529 73.985h-1.636v-1.636a2.516 2.516 0 1 0-5.033 0v1.636h-1.636a2.516 2.516 0 1 0 0 5.033h1.636v1.636a2.516 2.516 0 1 0 5.033 0v-1.637h1.636a2.516 2.516 0 1 0 0-5.033z" class="cls-6" transform="translate(-65.922 -55.098)"/>
            <path id="패스_245" d="M455.424 385.112h-1.636v-1.636a2.516 2.516 0 0 0-5.033 0v1.636h-1.635a2.516 2.516 0 1 0 0 5.033h1.636v1.636a2.516 2.516 0 1 0 5.033 0v-1.636h1.636a2.516 2.516 0 0 0 0-5.033z" class="cls-6" transform="translate(-220.853 -209.648)"/>
            <path id="패스_246" d="M442.356 58.91a7.353 7.353 0 0 1-7.027-9.535 7.345 7.345 0 1 1 7.027 9.535zm-.012-9.67a2.324 2.324 0 1 0 .69.106 2.307 2.307 0 0 0-.689-.106z" class="cls-6" transform="translate(-216.08 -42.368)"/>
            <path id="패스_247" d="M68.165 423.113a7.349 7.349 0 1 1 7.022-5.167 7.326 7.326 0 0 1-7.022 5.167zm.006-9.667a2.317 2.317 0 1 0 .687.1 2.32 2.32 0 0 0-.687-.099zm4.613 3.752h.005z" class="cls-6" transform="translate(-30.212 -223.286)"/>
        </g>
    </g>
</svg>
