<svg xmlns="http://www.w3.org/2000/svg" width="282" height="282" viewBox="0 0 282 282">
    <defs>
        <linearGradient id="linear-gradient" x1=".119" x2=".963" y1=".174" y2=".922" gradientUnits="objectBoundingBox">
            <stop offset="0" stop-color="#d2deff" stop-opacity="0"/>
            <stop offset="1" stop-color="#b7c5ff"/>
        </linearGradient>
        <clipPath id="clip-path">
            <path id="사각형_32" fill="#ffcbcb" d="M0 0H282V282H0z" transform="translate(768 2976)"/>
        </clipPath>
        <style>
            .cls-4,.cls-7{fill:#2626bc}.cls-4{opacity:.1}.cls-5{fill:#fff}.cls-6{fill:#6583fe}
        </style>
    </defs>
    <g id="img_3번째" clip-path="url(#clip-path)" transform="translate(-768 -2976)">
        <g id="site-map" transform="translate(782.133 3006.844)">
            <path id="패스_149" fill="url(#linear-gradient)" d="M250.575 174.4a58.37 58.37 0 0 0-34.617-35.781 21.193 21.193 0 0 1-13.671-19.54q0-.285-.01-.572A58.5 58.5 0 0 0 96.728 85.151c-9.012 12.191-23.039 19.806-38.2 19.8q-.668 0-1.338.014c-30.684.671-56.776 27-57.186 57.687a58.506 58.506 0 0 0 113.446 20.892 11.972 11.972 0 0 1 14.512-7.321l.225.062a11.941 11.941 0 0 1 8.7 12.448A58.5 58.5 0 1 0 250.575 174.4z" transform="translate(0 -47.679)"/>
            <g id="그룹_90" transform="translate(15.61)">
                <path id="패스_150" d="M250.349 97.809h-66.566a4.968 4.968 0 0 1-4.968-4.968V38.687a4.968 4.968 0 0 1 4.968-4.968h66.566a4.968 4.968 0 0 1 4.968 4.968v54.154a4.967 4.967 0 0 1-4.968 4.968z" class="cls-4" transform="translate(-105.81 -33.719)"/>
                <path id="패스_151" d="M250.482 275.642h-51.667a4.968 4.968 0 0 1-4.968-4.968v-31.806a4.968 4.968 0 0 1 4.968-4.968h51.667a4.968 4.968 0 0 1 4.968 4.968v31.806a4.968 4.968 0 0 1-4.968 4.968z" class="cls-4" transform="translate(-113.392 -134.696)"/>
                <path id="패스_152" d="M249.045 220.339h-23.356v-.912a12.425 12.425 0 0 0-12.411-12.411H72.234a12.425 12.425 0 0 0-12.411 12.411v.912H36.468a4.968 4.968 0 0 0-4.968 4.968v31.806a4.968 4.968 0 0 0 4.968 4.968h51.667a4.968 4.968 0 0 0 4.968-4.968v-31.806a4.968 4.968 0 0 0-4.968-4.968H64.779v-.912a7.463 7.463 0 0 1 7.455-7.455h141.044a7.463 7.463 0 0 1 7.455 7.455v.912h-23.356a4.968 4.968 0 0 0-4.968 4.968v31.806a4.968 4.968 0 0 0 4.968 4.968h51.667a4.968 4.968 0 0 0 4.968-4.968v-31.806a4.968 4.968 0 0 0-4.967-4.968z" class="cls-4" transform="translate(-31.5 -121.135)"/>
            </g>
            <path id="패스_153" d="M250.349 115.809h-66.566a4.968 4.968 0 0 1-4.968-4.968V56.687a4.968 4.968 0 0 1 4.968-4.968h66.566a4.968 4.968 0 0 1 4.968 4.968v54.155a4.967 4.967 0 0 1-4.968 4.967z" class="cls-5" transform="translate(-90.199 -42.799)"/>
            <path id="패스_154" d="M305.929 51.719H289v64.091h16.929a4.968 4.968 0 0 0 4.968-4.968V56.687a4.968 4.968 0 0 0-4.968-4.968z" class="cls-5" transform="translate(-145.779 -42.799)"/>
            <path id="패스_155" d="M255.317 67.947v-11.26a4.968 4.968 0 0 0-4.968-4.968h-66.566a4.968 4.968 0 0 0-4.968 4.968v11.26z" class="cls-6" transform="translate(-90.199 -42.799)"/>
            <path id="패스_156" d="M236.712 143.585h-29.1a2.483 2.483 0 1 1 0-4.967h29.1a2.483 2.483 0 0 1 0 4.967z" class="cls-7" transform="translate(-103.474 -86.633)"/>
            <path id="패스_157" d="M223.3 122.781h-15.685a2.483 2.483 0 1 1 0-4.967H223.3a2.483 2.483 0 1 1 0 4.967z" class="cls-7" transform="translate(-103.474 -76.139)"/>
            <path id="패스_158" d="M88.135 293.642H36.468a4.968 4.968 0 0 1-4.968-4.968v-31.806a4.968 4.968 0 0 1 4.968-4.968h51.667a4.968 4.968 0 0 1 4.968 4.968v31.806a4.968 4.968 0 0 1-4.968 4.968z" class="cls-5" transform="translate(-15.89 -143.775)"/>
            <path id="패스_159" d="M88.135 293.642H36.468a4.968 4.968 0 0 1-4.968-4.968v-31.806a4.968 4.968 0 0 1 4.968-4.968h51.667a4.968 4.968 0 0 1 4.968 4.968v31.806a4.968 4.968 0 0 1-4.968 4.968z" class="cls-5" transform="translate(-15.89 -143.775)"/>
            <path id="패스_160" d="M93.1 268.128v-11.26a4.968 4.968 0 0 0-4.968-4.968H36.468a4.968 4.968 0 0 0-4.968 4.968v11.26z" class="cls-6" transform="translate(-15.89 -143.775)"/>
            <path id="패스_161" d="M90.852 308.488H60.3a2.483 2.483 0 0 1 0-4.967h30.552a2.483 2.483 0 0 1 0 4.967z" class="cls-7" transform="translate(-29.164 -169.814)"/>
            <path id="패스_162" d="M250.482 293.642h-51.667a4.968 4.968 0 0 1-4.968-4.968v-31.806a4.968 4.968 0 0 1 4.968-4.968h51.667a4.968 4.968 0 0 1 4.968 4.968v31.806a4.968 4.968 0 0 1-4.968 4.968z" class="cls-5" transform="translate(-97.782 -143.775)"/>
            <path id="패스_163" d="M255.45 268.128v-11.26a4.968 4.968 0 0 0-4.968-4.968h-51.667a4.968 4.968 0 0 0-4.968 4.968v11.26z" class="cls-6" transform="translate(-97.782 -143.775)"/>
            <path id="패스_164" d="M253.2 308.488h-30.553a2.483 2.483 0 0 1 0-4.967H253.2a2.483 2.483 0 1 1 0 4.967z" class="cls-7" transform="translate(-111.057 -169.814)"/>
            <path id="패스_165" d="M412.829 293.642h-51.667a4.968 4.968 0 0 1-4.968-4.968v-31.806a4.968 4.968 0 0 1 4.968-4.968h51.667a4.968 4.968 0 0 1 4.968 4.968v31.806a4.968 4.968 0 0 1-4.968 4.968z" class="cls-5" transform="translate(-179.674 -143.775)"/>
            <path id="패스_166" d="M417.8 268.128v-11.26a4.968 4.968 0 0 0-4.968-4.968h-51.67a4.968 4.968 0 0 0-4.968 4.968v11.26z" class="cls-6" transform="translate(-179.674 -143.775)"/>
            <path id="패스_167" d="M415.547 308.488h-30.553a2.483 2.483 0 0 1 0-4.967h30.553a2.483 2.483 0 0 1 0 4.967z" class="cls-7" transform="translate(-192.949 -169.814)"/>
            <path id="패스_168" d="M249.71 357.492h-23.356v-.912a12.425 12.425 0 0 0-12.411-12.411h-66.549a12.425 12.425 0 0 0-12.411 12.411v.912h-23.355a4.968 4.968 0 0 0-4.968 4.968v31.806a4.968 4.968 0 0 0 4.968 4.968H163.3a4.968 4.968 0 0 0 4.968-4.968V362.46a4.968 4.968 0 0 0-4.968-4.968h-23.361v-.912a7.463 7.463 0 0 1 7.455-7.455h66.549a7.463 7.463 0 0 1 7.455 7.455v.912h-23.356a4.968 4.968 0 0 0-4.968 4.968v31.806a4.968 4.968 0 0 0 4.968 4.968h51.668a4.968 4.968 0 0 0 4.968-4.968V362.46a4.968 4.968 0 0 0-4.968-4.968z" class="cls-4" transform="translate(-53.802 -190.318)"/>
            <path id="패스_169" d="M163.3 430.795h-51.671a4.968 4.968 0 0 1-4.968-4.968v-31.806a4.968 4.968 0 0 1 4.968-4.968H163.3a4.968 4.968 0 0 1 4.968 4.968v31.806a4.968 4.968 0 0 1-4.968 4.968z" class="cls-5" transform="translate(-53.803 -212.959)"/>
            <path id="패스_170" d="M168.264 405.281v-11.26a4.968 4.968 0 0 0-4.968-4.968h-51.667a4.968 4.968 0 0 0-4.968 4.968v11.26z" class="cls-6" transform="translate(-53.803 -212.959)"/>
            <path id="패스_171" d="M166.013 445.641H135.46a2.483 2.483 0 1 1 0-4.967h30.553a2.483 2.483 0 1 1 0 4.967z" class="cls-7" transform="translate(-67.077 -238.998)"/>
            <path id="패스_172" d="M337.668 430.795H286a4.968 4.968 0 0 1-4.968-4.968v-31.806a4.968 4.968 0 0 1 4.968-4.968h51.667a4.968 4.968 0 0 1 4.968 4.968v31.806a4.968 4.968 0 0 1-4.967 4.968z" class="cls-5" transform="translate(-141.761 -212.959)"/>
            <path id="패스_173" d="M342.636 405.281v-11.26a4.968 4.968 0 0 0-4.968-4.968H286a4.968 4.968 0 0 0-4.968 4.968v11.26z" class="cls-6" transform="translate(-141.761 -212.959)"/>
            <path id="패스_174" d="M340.386 445.641h-30.553a2.483 2.483 0 1 1 0-4.967h30.553a2.483 2.483 0 0 1 0 4.967z" class="cls-7" transform="translate(-155.036 -238.998)"/>
            <path id="패스_175" d="M246.523 145.923h-23.358a12.424 12.424 0 0 0-12.409-12.331h-68.044v-17.826h30.805a7.454 7.454 0 0 0 7.445-7.445V79.1a2.478 2.478 0 1 0-4.956 0v29.22a2.493 2.493 0 0 1-2.489 2.49h-66.566a2.493 2.493 0 0 1-2.49-2.49V67.9h74.024a2.478 2.478 0 0 0 2.478-2.478V54.164a7.454 7.454 0 0 0-7.445-7.445h-66.567a7.454 7.454 0 0 0-7.445 7.445v54.155a7.454 7.454 0 0 0 7.445 7.446h30.805v17.826H69.712A12.424 12.424 0 0 0 57.3 145.922H33.945a7.454 7.454 0 0 0-7.445 7.445v31.806a7.454 7.454 0 0 0 7.445 7.445h51.668a7.454 7.454 0 0 0 7.445-7.445v-31.805a7.454 7.454 0 0 0-7.445-7.445H62.261a7.461 7.461 0 0 1 7.451-7.376h68.044v7.376H114.4a7.454 7.454 0 0 0-7.445 7.445v31.806a7.454 7.454 0 0 0 7.445 7.445h23.356v8.941h-30.8a12.424 12.424 0 0 0-12.409 12.331H71.193a7.454 7.454 0 0 0-7.445 7.445v31.806a7.454 7.454 0 0 0 7.445 7.446h51.667a7.454 7.454 0 0 0 7.446-7.446v-31.805a7.454 7.454 0 0 0-7.446-7.445H99.508a7.461 7.461 0 0 1 7.451-7.376h66.549a7.461 7.461 0 0 1 7.451 7.376h-23.352a7.454 7.454 0 0 0-7.445 7.445v31.806a7.454 7.454 0 0 0 7.445 7.446h51.667a7.454 7.454 0 0 0 7.445-7.446v-31.806a7.453 7.453 0 0 0-7.445-7.445h-23.357a12.424 12.424 0 0 0-12.409-12.331h-30.8v-8.941h23.356a7.454 7.454 0 0 0 7.445-7.445v-31.807a7.454 7.454 0 0 0-7.445-7.445h-23.352v-7.376h68.044a7.461 7.461 0 0 1 7.451 7.376h-23.352a7.454 7.454 0 0 0-7.445 7.445v31.806a7.454 7.454 0 0 0 7.445 7.445h51.667a7.454 7.454 0 0 0 7.445-7.445v-31.806a7.454 7.454 0 0 0-7.444-7.445zM104.461 54.164a2.493 2.493 0 0 1 2.49-2.49h66.566a2.492 2.492 0 0 1 2.489 2.49v8.782h-71.545v-8.782zm-18.848 133.5H33.945a2.493 2.493 0 0 1-2.49-2.49v-18.067H88.1v18.069a2.493 2.493 0 0 1-2.487 2.489zm2.49-34.3v8.782H31.456v-8.782a2.493 2.493 0 0 1 2.49-2.49h51.667a2.493 2.493 0 0 1 2.49 2.49zm37.247 67.969v31.806a2.493 2.493 0 0 1-2.49 2.49H71.193a2.493 2.493 0 0 1-2.49-2.49v-18.063h45.448a2.478 2.478 0 0 0 0-4.956H68.7v-8.782a2.492 2.492 0 0 1 2.49-2.49h51.667a2.493 2.493 0 0 1 2.493 2.49zm83.925 34.3h-51.667a2.492 2.492 0 0 1-2.49-2.49v-18.067h56.647v18.069a2.493 2.493 0 0 1-2.49 2.489zm2.49-34.3v8.782h-56.647v-8.782a2.492 2.492 0 0 1 2.49-2.49h51.667a2.493 2.493 0 0 1 2.49 2.495zm-45.7-33.673H114.4a2.493 2.493 0 0 1-2.49-2.49v-18.063h56.647v18.069a2.493 2.493 0 0 1-2.49 2.49zm2.49-34.3v8.782h-56.644v-8.782a2.493 2.493 0 0 1 2.49-2.49h51.667a2.493 2.493 0 0 1 2.49 2.499zm26.3-2.49h51.667a2.492 2.492 0 0 1 2.49 2.49v8.782h-56.647v-8.782a2.493 2.493 0 0 1 2.49-2.49zm51.667 36.786h-51.667a2.492 2.492 0 0 1-2.489-2.49v-18.059h56.646v18.069a2.493 2.493 0 0 1-2.489 2.489z" class="cls-7" transform="translate(-13.367 -40.277)"/>
            <g id="그룹_91" transform="translate(26.174 33.89)">
                <path id="패스_176" d="M121.407 117.986a2.478 2.478 0 0 1-2.478-2.478 2.988 2.988 0 0 0-2.985-2.985 2.478 2.478 0 0 1 0-4.956 2.988 2.988 0 0 0 2.985-2.985 2.478 2.478 0 0 1 4.956 0 2.988 2.988 0 0 0 2.985 2.985 2.478 2.478 0 1 1 0 4.956 2.988 2.988 0 0 0-2.985 2.985 2.478 2.478 0 0 1-2.478 2.478z" class="cls-6" transform="translate(-83.409 -102.104)"/>
                <path id="패스_177" d="M437.916 383.338a2.478 2.478 0 0 1-2.478-2.478 2.988 2.988 0 0 0-2.985-2.985 2.478 2.478 0 0 1 0-4.956 2.988 2.988 0 0 0 2.985-2.985 2.478 2.478 0 1 1 4.956 0 2.988 2.988 0 0 0 2.985 2.985 2.478 2.478 0 1 1 0 4.956 2.988 2.988 0 0 0-2.985 2.985 2.478 2.478 0 0 1-2.478 2.478z" class="cls-6" transform="translate(-243.065 -235.955)"/>
                <path id="패스_178" d="M363.4 186.581a2.469 2.469 0 0 1-1.752-.726l-5.463-5.463a2.477 2.477 0 0 1 0-3.5l5.463-5.463a2.478 2.478 0 0 1 3.5 0l5.463 5.463a2.477 2.477 0 0 1 0 3.5l-5.463 5.463a2.471 2.471 0 0 1-1.748.726zm-1.958-7.941l1.958 1.96 1.958-1.958-1.958-1.959z" class="cls-6" transform="translate(-205.48 -136.706)"/>
                <path id="패스_179" d="M60.757 421.657a2.471 2.471 0 0 1-1.757-.726l-5.463-5.463a2.479 2.479 0 0 1 0-3.5L59 406.5a2.479 2.479 0 0 1 3.5 0l5.463 5.463a2.478 2.478 0 0 1 0 3.5l-5.463 5.463a2.472 2.472 0 0 1-1.743.731zm-1.957-7.941l1.959 1.959 1.959-1.959-1.959-1.959z" class="cls-6" transform="translate(-52.816 -255.284)"/>
            </g>
            <circle id="타원_45" cx="6.984" cy="6.984" r="6.984" class="cls-7" transform="translate(136.236 34.691)"/>
        </g>
    </g>
</svg>
