<svg xmlns="http://www.w3.org/2000/svg" width="282" height="282" viewBox="0 0 282 282">
    <defs>
        <linearGradient id="linear-gradient" x1="2.1" x2="1.339" y1="-23.022" y2="-23.739" gradientUnits="objectBoundingBox">
            <stop offset="0" stop-color="#d2dbfc" stop-opacity="0"/>
            <stop offset="1" stop-color="#b8c1fb"/>
        </linearGradient>
        <clipPath id="clip-path">
            <path id="사각형_200" fill="#ffcbcb" d="M0 0H282V282H0z" transform="translate(768 2976)"/>
        </clipPath>
        <style>
            .cls-6{fill:#2b2ab5}.cls-5{fill:#fff}.cls-7{fill:#6e80f8}
        </style>
    </defs>
    <g id="img_4번째" clip-path="url(#clip-path)" transform="translate(-768 -2976)">
        <g id="online-marketing" transform="translate(778.109 3006.844)">
            <path id="패스_443" fill="url(#linear-gradient)" d="M186.532 35.731C151.2 21.908 102.279 27.16 75.242 51.842c-19.09 17.427-4.315 22.395 8.7 54.284C93.362 129.206 0 126.029 0 167.734c0 48.214 67.619 39.075 92.712 44.594 38.365 8.438 71.835 40 112.826 35.843 35.686-3.623 49.29-31.626 54.253-63.729 9.245-59.809-13.462-125.315-73.26-148.712z" transform="translate(0 -28.235)"/>
            <path id="패스_444" fill="#2b2ab5" d="M241.241 118.891h-33.722v-10.813a10.661 10.661 0 0 0-10.66-10.66H63.334v-5.625a5.113 5.113 0 0 0-5.113-5.113H18.34a5.113 5.113 0 0 0-5.113 5.113v39.881a5.113 5.113 0 0 0 5.113 5.113h30.678v70.047H38.524a6.379 6.379 0 0 0-6.379 6.379v5.9a11.185 11.185 0 0 0 11.135 11.236h169.979a11.183 11.183 0 0 0 11.132-11.236v-5.9a6.379 6.379 0 0 0-6.379-6.379h-10.493V169h33.745a5.113 5.113 0 0 0 5.113-5.113v-39.88a5.126 5.126 0 0 0-5.136-5.116z" opacity="0.11" transform="translate(-3.513 -43.759)"/>
            <path id="패스_445" d="M233 99.439v106.925a2.56 2.56 0 0 1-2.561 2.559H74.5V99.439a10.669 10.669 0 0 1 10.668-10.67h137.158A10.669 10.669 0 0 1 233 99.439z" class="cls-5" transform="translate(-19.788 -44.314)"/>
            <path id="패스_446" d="M192.765 169.036a2.55 2.55 0 0 1-1.939-.89L175.4 150.2l-15.429 17.944a2.556 2.556 0 1 1-3.877-3.334l17.367-20.2a2.556 2.556 0 0 1 3.877 0l17.367 20.2a2.556 2.556 0 0 1-1.937 4.223z" class="cls-6" transform="translate(-41.297 -58.912)"/>
            <g id="그룹_362" transform="translate(171.081 88.065)">
                <circle id="타원_85" cx="2.858" cy="2.858" r="2.858" class="cls-6"/>
                <circle id="타원_86" cx="2.858" cy="2.858" r="2.858" class="cls-6" transform="translate(8.646)"/>
                <circle id="타원_87" cx="2.858" cy="2.858" r="2.858" class="cls-6" transform="translate(17.292)"/>
                <circle id="타원_88" cx="2.858" cy="2.858" r="2.858" class="cls-6" transform="translate(0 8.776)"/>
                <circle id="타원_89" cx="2.858" cy="2.858" r="2.858" class="cls-6" transform="translate(8.646 8.776)"/>
                <circle id="타원_90" cx="2.858" cy="2.858" r="2.858" class="cls-6" transform="translate(17.292 8.776)"/>
            </g>
            <path id="패스_447" d="M233 220.356v20.963a2.556 2.556 0 0 1-2.556 2.556H74.5v-23.52z" class="cls-7" transform="translate(-19.788 -79.267)"/>
            <path id="패스_448" d="M243.767 244.265v5.82a11.2 11.2 0 0 1-11.2 11.2H62.72a11.2 11.2 0 0 1-11.2-11.2v-5.944a6.379 6.379 0 0 1 6.379-6.379h54.746a2.556 2.556 0 0 1 2.267 1.375l3.364 6.454a2.557 2.557 0 0 0 2.267 1.375h54.2a2.558 2.558 0 0 0 2.268-1.375l3.364-6.454a2.556 2.556 0 0 1 2.267-1.375h54.744a6.442 6.442 0 0 1 6.38 6.5z" class="cls-5" transform="translate(-13.685 -83.891)"/>
            <path id="패스_449" d="M277.969 246.965h-21.986a2.556 2.556 0 0 1-2.556-2.556v-6.647h27.1v6.647a2.556 2.556 0 0 1-2.558 2.556z" class="cls-5" transform="translate(-67.317 -83.891)"/>
            <path id="패스_450" d="M99.751 246.965h-22a2.557 2.557 0 0 1-2.556-2.556v-6.647h27.1v6.664a2.54 2.54 0 0 1-2.544 2.539z" class="cls-5" transform="translate(-19.973 -83.891)"/>
            <path id="패스_451" d="M74.5 108.261V99.43a10.661 10.661 0 0 1 10.66-10.66h15.927v19.74a13.294 13.294 0 1 1-26.587-.247z" class="cls-5" transform="translate(-19.788 -44.314)"/>
            <path id="패스_452" d="M110.7 108.261V88.769h26.587v19.74a13.294 13.294 0 1 1-26.587-.247z" class="cls-7" transform="translate(-29.405 -44.314)"/>
            <path id="패스_453" d="M146.208 108.261V88.769h26.587v19.74a13.294 13.294 0 1 1-26.587-.247z" class="cls-5" transform="translate(-38.836 -44.314)"/>
            <path id="패스_454" d="M195.705 121.7a13.241 13.241 0 0 1-13.294-13.188V88.769H209v19.74a13.242 13.242 0 0 1-13.295 13.191z" class="cls-7" transform="translate(-48.453 -44.314)"/>
            <path id="패스_455" d="M231.909 121.7a13.241 13.241 0 0 1-13.294-13.188V88.769H245.2v19.74a13.242 13.242 0 0 1-13.291 13.191z" class="cls-5" transform="translate(-58.07 -44.314)"/>
            <path id="패스_456" d="M267.416 121.7a13.241 13.241 0 0 1-13.294-13.188V88.769h15.927a10.661 10.661 0 0 1 10.66 10.66v9.079a13.241 13.241 0 0 1-13.293 13.192z" class="cls-7" transform="translate(-67.501 -44.314)"/>
            <path id="패스_457" d="M70.754 124.255H30.873a5.113 5.113 0 0 1-5.113-5.113V79.261a5.113 5.113 0 0 1 5.113-5.113h39.881a5.113 5.113 0 0 1 5.113 5.113v39.881a5.113 5.113 0 0 1-5.113 5.113z" class="cls-7" transform="translate(-6.842 -40.431)"/>
            <path id="패스_458" d="M320 168.117h-39.877A5.113 5.113 0 0 1 275.01 163v-39.877a5.113 5.113 0 0 1 5.113-5.113H320a5.113 5.113 0 0 1 5.113 5.113V163a5.113 5.113 0 0 1-5.113 5.117z" class="cls-5" transform="translate(-73.05 -52.082)"/>
            <path id="패스_459" d="M198.308 195.1h-51.633a2.557 2.557 0 0 1-2.556-2.556v-20.456a2.557 2.557 0 0 1 2.556-2.556h51.641a2.556 2.556 0 0 1 2.556 2.556v20.447a2.563 2.563 0 0 1-2.564 2.565z" class="cls-7" transform="translate(-38.282 -65.767)"/>
            <path id="패스_460" d="M154.334 192.017h3.066a2.556 2.556 0 0 0 2.556-2.556v-9.715a2.556 2.556 0 0 0-2.556-2.556h-3.068a2.557 2.557 0 0 0-2.556 2.556v9.715a2.556 2.556 0 0 0 2.558 2.556z" class="cls-5" transform="translate(-40.316 -67.801)"/>
            <path id="패스_461" d="M171.027 192.017h3.084a2.556 2.556 0 0 0 2.556-2.556v-9.715a2.556 2.556 0 0 0-2.556-2.556h-3.068a2.557 2.557 0 0 0-2.556 2.556v9.671a2.571 2.571 0 0 0 2.541 2.6z" class="cls-5" transform="translate(-44.754 -67.801)"/>
            <path id="패스_462" d="M187.753 192.017h3.068a2.556 2.556 0 0 0 2.556-2.556v-9.715a2.556 2.556 0 0 0-2.556-2.556h-3.068a2.557 2.557 0 0 0-2.556 2.556v9.715a2.556 2.556 0 0 0 2.556 2.556z" class="cls-5" transform="translate(-49.193 -67.801)"/>
            <path id="패스_463" d="M205.159 192.017h3.068a2.556 2.556 0 0 0 2.556-2.556v-9.715a2.556 2.556 0 0 0-2.556-2.556h-3.068a2.557 2.557 0 0 0-2.556 2.556v9.715a2.556 2.556 0 0 0 2.556 2.556z" class="cls-5" transform="translate(-53.816 -67.801)"/>
            <g id="그룹_363" transform="translate(16.361 31.161)">
                <path id="패스_464" d="M102.541 171.163H95.6a2.618 2.618 0 0 1-2.6-2.027 2.559 2.559 0 0 1 2.5-3.086h6.936a2.618 2.618 0 0 1 2.6 2.027 2.559 2.559 0 0 1-2.495 3.086z" class="cls-6" transform="translate(-41.051 -96.003)"/>
                <path id="패스_465" d="M116.668 189.961H95.6a2.618 2.618 0 0 1-2.6-2.027 2.559 2.559 0 0 1 2.5-3.086h21.063a2.618 2.618 0 0 1 2.6 2.027 2.559 2.559 0 0 1-2.495 3.086z" class="cls-6" transform="translate(-41.051 -100.996)"/>
                <path id="패스_466" d="M116.668 201.1H95.6a2.618 2.618 0 0 1-2.6-2.027 2.559 2.559 0 0 1 2.5-3.086h21.063a2.618 2.618 0 0 1 2.6 2.027 2.559 2.559 0 0 1-2.495 3.086z" class="cls-6" transform="translate(-41.051 -103.955)"/>
                <path id="패스_467" d="M59.212 99.7h-.792v-5.113h3.233a2.618 2.618 0 0 0 2.6-2.029 2.559 2.559 0 0 0-2.5-3.084H58.42V88.3a2.616 2.616 0 0 0-2.034-2.6 2.552 2.552 0 0 0-3.078 2.481v1.292h-.63a7.827 7.827 0 0 0-7.853 6.794 7.7 7.7 0 0 0 7.691 8.545h.792v5.113h-3.235a2.618 2.618 0 0 0-2.6 2.029 2.559 2.559 0 0 0 2.5 3.084h3.329v1.174a2.616 2.616 0 0 0 2.034 2.6 2.552 2.552 0 0 0 3.078-2.481v-1.293h.63a7.828 7.828 0 0 0 7.854-6.793 7.705 7.705 0 0 0-7.686-8.545zm-6.416.035a2.665 2.665 0 0 1-2.768-2.629 2.475 2.475 0 0 1 2.628-2.519h1.162V99.7H52.8zm6.26 10.191h-.636v-5.113h.77a2.559 2.559 0 0 1 2.546 2.792 2.648 2.648 0 0 1-2.68 2.321z" class="cls-6" transform="translate(-28.254 -74.646)"/>
                <path id="패스_468" d="M184.507 231.5h-8.771a2.618 2.618 0 0 0-2.6 2.029 2.559 2.559 0 0 0 2.5 3.084h8.771a2.618 2.618 0 0 0 2.6-2.029 2.559 2.559 0 0 0-2.5-3.084z" class="cls-6" transform="translate(-62.336 -113.387)"/>
                <path id="패스_469" d="M252.838 102.878h-31.155v-8.26A13.214 13.214 0 0 0 208.469 81.4H77.5v-3.064a7.67 7.67 0 0 0-7.669-7.669H29.948a7.67 7.67 0 0 0-7.669 7.669v39.881a7.67 7.67 0 0 0 7.669 7.669h28.633v40.336a2.618 2.618 0 0 0 2.029 2.6 2.559 2.559 0 0 0 3.084-2.5v-40.436H70.2a7.682 7.682 0 0 0 7.613-6.839 15.726 15.726 0 0 0 9.687-6.787 15.68 15.68 0 0 0 26.353 0 15.68 15.68 0 0 0 26.354 0 15.68 15.68 0 0 0 26.354 0 15.68 15.68 0 0 0 26.354 0 15.72 15.72 0 0 0 12.414 7.162v31.008a7.67 7.67 0 0 0 7.669 7.669h3.579v19.94H60.623a2.283 2.283 0 0 0-2.554 2.312v10.471h-7.937a8.936 8.936 0 0 0-8.936 8.936v5.942a13.752 13.752 0 0 0 13.752 13.752H224.8a13.752 13.752 0 0 0 13.756-13.752v-5.945a8.935 8.935 0 0 0-8.935-8.935h-7.937V158.1h31.189a7.67 7.67 0 0 0 7.669-7.669v-39.879a7.7 7.7 0 0 0-7.7-7.673zm-39.848 87.943a2.618 2.618 0 0 0-2.6 2.029 2.559 2.559 0 0 0 2.5 3.084h3.676v4.09h-21.981v-4.09h4.124a2.618 2.618 0 0 0 2.6-2.029 2.559 2.559 0 0 0-2.5-3.084h-23.196a5.114 5.114 0 0 0-4.516 2.714l-3.447 6.489h-55.267l-3.448-6.489a5.113 5.113 0 0 0-4.515-2.714H63.182v-7.669H216.57v7.669zm-127.309 9.2H63.693v-4.09h21.986zm147.762-.251v5.93a8.639 8.639 0 0 1-8.639 8.639H54.949a8.64 8.64 0 0 1-8.64-8.64v-5.944a3.822 3.822 0 0 1 3.822-3.822h8.449v4.09a5.113 5.113 0 0 0 5.113 5.113h21.986a5.113 5.113 0 0 0 5.113-5.113v-4.09h14.287l3.355 6.437a5.091 5.091 0 0 0 4.515 2.766h54.213a5.092 5.092 0 0 0 4.516-2.767l3.354-6.436h14.441v4.09a5.113 5.113 0 0 0 5.113 5.113h21.984a5.113 5.113 0 0 0 5.113-5.113v-4.09h7.937a3.836 3.836 0 0 1 3.823 3.84zm-163.614-79H29.948a2.557 2.557 0 0 1-2.556-2.556V78.336a2.557 2.557 0 0 1 2.556-2.556h39.881a2.557 2.557 0 0 1 2.556 2.556v39.881a2.556 2.556 0 0 1-2.556 2.556zm7.669-7.058v-27.2h7.158V103.7a10.656 10.656 0 0 1-7.156 10.015zm12.271-10.249V86.517h21.474V103.7a10.738 10.738 0 1 1-21.474-.233zm36.813 10.864a10.7 10.7 0 0 1-10.737-10.627V86.517h21.474V103.7a10.7 10.7 0 0 1-10.736 10.631zm26.588 0a10.7 10.7 0 0 1-10.737-10.627V86.517h21.474V103.7a10.7 10.7 0 0 1-10.737 10.631zm26.586 0a10.7 10.7 0 0 1-10.737-10.627V86.517h21.474V103.7a10.7 10.7 0 0 1-10.736 10.631zm15.851-10.551V86.517h12.859a8.1 8.1 0 0 1 8.1 8.1v8.257h-3.579a7.67 7.67 0 0 0-7.669 7.669v3.826a10.571 10.571 0 0 1-9.715-10.593zm57.265 49.2h-39.881a2.557 2.557 0 0 1-2.556-2.556v-39.872a2.557 2.557 0 0 1 2.556-2.556h39.881a2.556 2.556 0 0 1 2.556 2.556v39.881a2.556 2.556 0 0 1-2.556 2.556z" class="cls-6" transform="translate(-22.279 -70.667)"/>
                <path id="패스_470" d="M294.579 144.34a6.653 6.653 0 1 1 6.652-6.653 6.66 6.66 0 0 1-6.652 6.653zm0-8.192a1.54 1.54 0 1 0 1.539 1.54 1.542 1.542 0 0 0-1.539-1.54z" class="cls-6" transform="translate(-92.841 -86.702)"/>
                <path id="패스_471" d="M318.48 168.242a6.652 6.652 0 1 1 6.652-6.652 6.66 6.66 0 0 1-6.652 6.652zm0-8.192a1.54 1.54 0 1 0 1.539 1.54 1.541 1.541 0 0 0-1.539-1.54z" class="cls-6" transform="translate(-99.19 -93.051)"/>
                <path id="패스_472" d="M298.128 158.308a2.556 2.556 0 0 1-1.807-4.364l14.514-14.514a2.556 2.556 0 0 1 3.615 3.615l-14.514 14.514a2.545 2.545 0 0 1-1.808.749z" class="cls-6" transform="translate(-94.872 -88.733)"/>
            </g>
            <path id="패스_473" d="M321.583 60.452a7.463 7.463 0 1 1 5.28-2.184 7.446 7.446 0 0 1-5.28 2.184zm3.472-4.132h.005zm-3.472-5.683a2.352 2.352 0 1 0 1.665.688 2.347 2.347 0 0 0-1.665-.688z" class="cls-7" transform="translate(-83.438 -32.828)"/>
            <path id="패스_474" d="M288.793 304.188a7.463 7.463 0 1 1 5.28-2.184 7.446 7.446 0 0 1-5.28 2.184zm3.409-4.173h.005zm-3.472-5.642a2.352 2.352 0 1 0 1.665.688 2.347 2.347 0 0 0-1.665-.688z" class="cls-7" transform="translate(-74.728 -97.57)"/>
            <path id="패스_475" d="M119.609 306.133a7.463 7.463 0 1 1 5.28-2.184 7.445 7.445 0 0 1-5.28 2.184zm3.276-4.068h.005zm-3.472-5.747a2.352 2.352 0 1 0 1.665.688 2.347 2.347 0 0 0-1.665-.688z" class="cls-7" transform="translate(-29.789 -98.087)"/>
            <path id="패스_476" d="M59.458 37.811h-1.566v-1.567a2.618 2.618 0 0 0-2.029-2.6 2.559 2.559 0 0 0-3.084 2.5v1.662h-1.566a2.618 2.618 0 0 0-2.6 2.029 2.559 2.559 0 0 0 2.5 3.084h1.662v1.571a2.618 2.618 0 0 0 2.029 2.6 2.559 2.559 0 0 0 3.084-2.5v-1.667h1.662a2.559 2.559 0 0 0 2.5-3.084 2.619 2.619 0 0 0-2.592-2.028z" class="cls-7" transform="translate(-12.899 -29.658)"/>
            <path id="패스_477" d="M320.545 277.313h-1.566v-1.566a2.618 2.618 0 0 0-2.029-2.6 2.559 2.559 0 0 0-3.084 2.5v1.662H312.3a2.618 2.618 0 0 0-2.6 2.029 2.559 2.559 0 0 0 2.5 3.084h1.662v1.566a2.618 2.618 0 0 0 2.029 2.6 2.559 2.559 0 0 0 3.084-2.5v-1.662h1.662a2.559 2.559 0 0 0 2.5-3.084 2.619 2.619 0 0 0-2.592-2.029z" class="cls-7" transform="translate(-82.25 -93.276)"/>
        </g>
    </g>
</svg>
