<svg xmlns="http://www.w3.org/2000/svg" width="282" height="282" viewBox="0 0 282 282">
    <defs>
        <linearGradient id="linear-gradient" x1="1" x2=".18" y1="1" gradientUnits="objectBoundingBox">
            <stop offset="0" stop-color="#d2dbfc" stop-opacity="0"/>
            <stop offset="1" stop-color="#bdc6fb"/>
        </linearGradient>
        <clipPath id="clip-path">
            <path id="mask" fill="none" d="M0 0H282V282H0z" transform="translate(502 2333)"/>
        </clipPath>
        <style>
            .cls-7{fill:#2b2ab5}.cls-5{fill:#fff}.cls-6{fill:#6e80f8}
        </style>
    </defs>
    <g id="icon_1번째" clip-path="url(#clip-path)" transform="translate(-502 -2333)">
        <g id="mails" transform="translate(509.854 2347.749)">
            <path id="패스_564" fill="url(#linear-gradient)" d="M25.627 66.006C35.414 37.73 53.832-11.323 93.1 2.36c15.29 5.327 20.091 25.56 35.46 28.082 14.516 2.382 26.8-11.885 40.615-14.59 17.156-3.361 35.312 1.135 41.83 17.875 7.8 20.028-15.188 42.5-9.631 60.789 9.167 30.165 43.052-19.83 49.111 28.85 8.479 68.12-67.031 189.389-117.9 89.666-25.794-50.566-52.828-15.1-93.037-40.258-38.176-23.885-26.359-70.836-13.921-106.768z"/>
            <path id="패스_565" fill="#2b2ab5" d="M255.727 125.4a2.575 2.575 0 0 0-1.8-.717h-89.262A2.665 2.665 0 0 0 162 127.32v17.264a24.67 24.67 0 0 0-9.872-1.375 24.217 24.217 0 0 0-5.808 1.1V99.175a2.442 2.442 0 0 0-2.435-2.425H61.537a2.442 2.442 0 0 0-2.43 2.425v53.476a2.412 2.412 0 0 0 2.407 2.407h70.376a23.834 23.834 0 0 0-3.166 9.991 24.129 24.129 0 0 0 3.926 15.457l-.23.521h-61.5a3.4 3.4 0 0 0-2.372.942 3.452 3.452 0 0 0-1.112 2.542v76.814a3.463 3.463 0 0 0 1.112 2.547 3.423 3.423 0 0 0 2.372.942H188.9a3.5 3.5 0 0 0 3.484-3.489v-72.948h61.546a2.592 2.592 0 0 0 1.8-.712 2.654 2.654 0 0 0 .845-1.94v-58.4a2.632 2.632 0 0 0-.844-1.93z" opacity="0.11" transform="translate(-23.209 -49.344)"/>
            <g id="그룹_387" transform="translate(44.717 38.586)">
                <path id="패스_566" d="M381.165 138.4v58.4a2.65 2.65 0 0 1-.849 1.94 2.611 2.611 0 0 1-1.805.712h-89.754a2.61 2.61 0 0 1-1.805-.712 2.644 2.644 0 0 1-.844-1.94v-58.4a2.622 2.622 0 0 1 .844-1.93 2.593 2.593 0 0 1 1.805-.717h89.754a2.592 2.592 0 0 1 1.805.717 2.623 2.623 0 0 1 .849 1.93z" class="cls-5" transform="translate(-183.7 -107.821)"/>
                <path id="패스_567" d="M381.656 136.459l-44.927 37.586a2.646 2.646 0 0 1-3.4 0L288.4 136.459a2.617 2.617 0 0 1 1.8-.709h89.652a2.615 2.615 0 0 1 1.804.709z" class="cls-5" transform="translate(-184.872 -107.821)"/>
                <path id="패스_568" d="M164.324 81.177v53.455a2.434 2.434 0 0 1-2.435 2.427H79.537a2.434 2.434 0 0 1-2.43-2.427V81.177a2.442 2.442 0 0 1 2.43-2.427h82.352a2.442 2.442 0 0 1 2.435 2.427z" class="cls-5" transform="translate(-77.107 -78.75)"/>
                <path id="패스_569" d="M164.29 79.4l-41.19 34.458a2.426 2.426 0 0 1-3.113 0L78.8 79.4a2.4 2.4 0 0 1 1.65-.65h82.19a2.4 2.4 0 0 1 1.65.65z" class="cls-5" transform="translate(-77.97 -78.75)"/>
                <path id="패스_570" d="M219.053 254.235v76.814a3.5 3.5 0 0 1-3.484 3.489H97.591a3.423 3.423 0 0 1-2.372-.942 3.463 3.463 0 0 1-1.112-2.547v-76.814a3.452 3.452 0 0 1 1.112-2.542 3.4 3.4 0 0 1 2.372-.942H215.57a3.41 3.41 0 0 1 2.372.942 3.45 3.45 0 0 1 1.111 2.542z" class="cls-5" transform="translate(-85.777 -166.473)"/>
                <path id="패스_571" d="M218.973 252.681l-59.127 49.464a3.48 3.48 0 0 1-4.469 0l-59.126-49.464a3.471 3.471 0 0 1 2.372-.931H216.6a3.471 3.471 0 0 1 2.372.931z" class="cls-5" transform="translate(-86.871 -166.982)"/>
            </g>
            <path id="패스_572" d="M268.876 199.084a24.379 24.379 0 1 0-44.657 11.841L220.8 218.7a1.923 1.923 0 0 0 2.535 2.535l7.774-3.423a24.373 24.373 0 0 0 37.771-18.726z" class="cls-6" transform="translate(-105.355 -88.284)"/>
            <g id="그룹_388" transform="translate(54.842 74.355)">
                <circle id="타원_105" cx="2.739" cy="2.739" r="2.739" class="cls-7" transform="translate(72.295 31.814)"/>
                <circle id="타원_106" cx="2.739" cy="2.739" r="2.739" class="cls-7" transform="translate(82.051 31.814)"/>
                <circle id="타원_107" cx="2.739" cy="2.739" r="2.739" class="cls-7" transform="translate(91.807 31.814)"/>
                <path id="패스_573" d="M106.5 156.65h-6.185a2.509 2.509 0 0 1-2.491-1.943 2.453 2.453 0 0 1 2.4-2.957h6.176a2.509 2.509 0 0 1 2.491 1.943 2.453 2.453 0 0 1-2.391 2.957z" class="cls-7" transform="translate(-97.769 -151.75)"/>
                <path id="패스_574" d="M114.193 173.65h-13.882a2.509 2.509 0 0 1-2.491-1.943 2.453 2.453 0 0 1 2.4-2.957h13.88a2.51 2.51 0 0 1 2.492 1.943 2.453 2.453 0 0 1-2.399 2.957z" class="cls-7" transform="translate(-97.769 -160.42)"/>
            </g>
            <path id="패스_575" d="M128.329 373.65h-6.185a2.509 2.509 0 0 1-2.491-1.943 2.453 2.453 0 0 1 2.4-2.957h6.184a2.51 2.51 0 0 1 2.492 1.943 2.453 2.453 0 0 1-2.4 2.957z" class="cls-7" transform="translate(-54.063 -188.068)"/>
            <path id="패스_576" d="M136.026 390.65h-13.882a2.509 2.509 0 0 1-2.491-1.943 2.453 2.453 0 0 1 2.4-2.957h13.882a2.51 2.51 0 0 1 2.492 1.943 2.453 2.453 0 0 1-2.401 2.957z" class="cls-7" transform="translate(-54.063 -196.738)"/>
            <path id="패스_577" d="M389.237 303.328a7.245 7.245 0 0 1-6.733-4.622 6.511 6.511 0 0 1-.1-4.834 7.271 7.271 0 0 1 9.072-4.511 5.306 5.306 0 0 1 .855.344 7.181 7.181 0 0 1 1.961 11.53 7.134 7.134 0 0 1-5.055 2.093zm3.465-3.66zm-3.327-5.747a2.256 2.256 0 1 0 1.6.661 2.239 2.239 0 0 0-1.6-.661z" class="cls-6" transform="translate(-187.884 -147.405)"/>
            <path id="패스_578" d="M408.846 346.909a7.152 7.152 0 1 1 5.06-2.093 7.133 7.133 0 0 1-5.06 2.093zm0-9.406a2.254 2.254 0 1 0 1.594.66 2.248 2.248 0 0 0-1.594-.66z" class="cls-6" transform="translate(-197.933 -169.633)"/>
            <path id="패스_579" d="M56.334 239.425a7.2 7.2 0 0 1-6.464-4.038 5.377 5.377 0 0 1-.35-.865 7.273 7.273 0 0 1 4.512-9.079 6.452 6.452 0 0 1 4.688.034 7.277 7.277 0 0 1 4.769 6.8 7.108 7.108 0 0 1-2.1 5.06 7.131 7.131 0 0 1-5.059 2.092zm.035-9.406a2.255 2.255 0 1 0 1.594 3.849 2.254 2.254 0 0 0-1.594-3.849z" class="cls-6" transform="translate(-18.146 -114.763)"/>
            <path id="패스_580" d="M311.3 68.542h-1.5v-1.5a2.509 2.509 0 0 0-1.943-2.491 2.453 2.453 0 0 0-2.957 2.4v1.592h-1.5a2.509 2.509 0 0 0-2.492 1.944 2.453 2.453 0 0 0 2.4 2.956h1.592v1.5a2.509 2.509 0 0 0 1.943 2.491 2.453 2.453 0 0 0 2.957-2.4v-1.592h1.592a2.453 2.453 0 0 0 2.4-2.956 2.51 2.51 0 0 0-2.492-1.944z" class="cls-6" transform="translate(-146.505 -32.896)"/>
            <path id="패스_581" d="M380.3 398.542h-1.5v-1.5a2.509 2.509 0 0 0-1.943-2.491 2.453 2.453 0 0 0-2.957 2.4v1.592h-1.5a2.509 2.509 0 0 0-2.492 1.944 2.453 2.453 0 0 0 2.4 2.956h1.592v1.5a2.509 2.509 0 0 0 1.943 2.491 2.453 2.453 0 0 0 2.957-2.4v-1.592h1.592a2.453 2.453 0 0 0 2.4-2.956 2.509 2.509 0 0 0-2.492-1.944z" class="cls-6" transform="translate(-181.696 -201.201)"/>
            <path id="패스_582" d="M272.862 102.584a5.043 5.043 0 0 0-3.5-1.395h-89.218a5.094 5.094 0 0 0-3.493 1.356 5.026 5.026 0 0 0-1.651 3.708v13.936a27.543 27.543 0 0 0-7.583-.578 26.851 26.851 0 0 0-3.2.4V78.595a4.794 4.794 0 0 0-1.548-3.523 4.9 4.9 0 0 0-3.367-1.322H76.984a4.8 4.8 0 0 0-3.314 1.3 4.874 4.874 0 0 0-1.563 3.57v24.387a2.509 2.509 0 0 0 1.943 2.493 2.453 2.453 0 0 0 2.957-2.4l-.021-21.64 38.044 31.76a4.891 4.891 0 0 0 6.271 0l38.023-31.743v40.266a27.194 27.194 0 0 0-12.651 10.311l-69.666.023V117.2a2.508 2.508 0 0 0-1.948-2.493 2.447 2.447 0 0 0-2.952 2.378v15.037a4.794 4.794 0 0 0 1.54 3.518 4.853 4.853 0 0 0 3.338 1.315H144a25.886 25.886 0 0 0-1.738 7.341 26.205 26.205 0 0 0 2.5 13.728H86.379a5.841 5.841 0 0 0-4.039 1.592 5.937 5.937 0 0 0-1.9 4.348v76.8a5.959 5.959 0 0 0 5.943 5.943h117.903a5.988 5.988 0 0 0 6-5.943v-76.8a5.889 5.889 0 0 0-1.893-4.321 5.948 5.948 0 0 0-4.1-1.619h-11.17a26.255 26.255 0 0 0 2.592-9.774 26.786 26.786 0 0 0-7.888-20.765 27.1 27.1 0 0 0-8.4-5.651v-12.813l41.805 34.93a5.1 5.1 0 0 0 6.548 0l41.8-34.93v55.669a.2.2 0 0 1-.082.155.158.158 0 0 1-.113.042H221.4a2.509 2.509 0 0 0-2.491 1.943 2.454 2.454 0 0 0 2.4 2.957h48.053a5.031 5.031 0 0 0 3.469-1.368 5.106 5.106 0 0 0 1.637-3.74v-58.385a5.087 5.087 0 0 0-1.606-3.71zm-154.715 6.849L81.353 78.65l73.588-.022zm86.886 132.116a.982.982 0 0 1-.682.267H86.371a.99.99 0 0 1-.708-.29 1 1 0 0 1-.326-.745v-74.918l56.217 47.037a5.928 5.928 0 0 0 7.613 0l56.216-47.031v74.917a1.023 1.023 0 0 1-.35.762zm-4.005-78.131l-55.068 46.07a1.031 1.031 0 0 1-1.325 0l-55.069-46.07h55.149l-1.623 3.685a4.487 4.487 0 0 0 .5 4.587 4.356 4.356 0 0 0 5.206 1.3l6.586-2.9a26.522 26.522 0 0 0 13.621 3.732q1.173 0 2.359-.1a26.8 26.8 0 0 0 18.839-10.308zm-10.113-15.16a21.924 21.924 0 0 1-33.974 16.84 2.45 2.45 0 0 0-2.341-.2l-6.533 2.876 2.877-6.533a2.45 2.45 0 0 0-.2-2.34 21.927 21.927 0 1 1 40.171-10.644zm33.926-7.71a.194.194 0 0 1-.251 0l-40.6-33.968h81.457z" class="cls-7" transform="translate(-29.84 -37.614)"/>
            <path id="패스_583" d="M308.469 362.967a8.14 8.14 0 1 0-13.95 5.69 8.111 8.111 0 0 0-2.33 5.69 2.45 2.45 0 1 0 4.9 0 3.24 3.24 0 1 1 6.481 0 2.45 2.45 0 1 0 4.9 0 8.109 8.109 0 0 0-2.33-5.69 8.107 8.107 0 0 0 2.329-5.69zm-8.14-3.24a3.24 3.24 0 1 1-3.24 3.24 3.244 3.244 0 0 1 3.24-3.24z" class="cls-7" transform="translate(-142.084 -180.967)"/>
            <path id="패스_584" d="M445.325 209.951a7.472 7.472 0 1 0-12.988 5.022 7.434 7.434 0 0 0-1.956 5.027 2.45 2.45 0 0 0 4.9 0 2.572 2.572 0 0 1 5.144 0 2.45 2.45 0 0 0 4.9 0 7.434 7.434 0 0 0-1.956-5.022 7.435 7.435 0 0 0 1.956-5.027zm-7.472-2.572a2.572 2.572 0 1 1-2.572 2.571 2.574 2.574 0 0 1 2.572-2.571z" class="cls-7" transform="translate(-212.564 -103.268)"/>
        </g>
    </g>
</svg>
