<svg xmlns="http://www.w3.org/2000/svg" width="282" height="282" viewBox="0 0 282 282">
    <defs>
        <linearGradient id="linear-gradient" x1=".421" x2=".592" y1=".148" y2="1.081" gradientUnits="objectBoundingBox">
            <stop offset="0" stop-color="#d2dbfc" stop-opacity="0"/>
            <stop offset="1" stop-color="#b8c1fb"/>
        </linearGradient>
        <clipPath id="clip-path">
            <path id="사각형_32" fill="#ffcbcb" d="M0 0H282V282H0z"/>
        </clipPath>
        <style>
            .cls-7{fill:#2b2ab5}.cls-5{fill:#fff}.cls-6{fill:#6e80f8}
        </style>
    </defs>
    <g id="img_2번째" clip-path="url(#clip-path)">
        <g id="microphone" transform="translate(14.717 25.07)">
            <path id="패스_121" fill="url(#linear-gradient)" d="M181.336 25.458c-33.918-13.719-81.156-9.191-107.5 14.315-18.6 16.6-4.407 21.549 7.794 52.445C90.46 114.579.461 110.491 0 150.709c-.529 46.5 64.78 38.425 88.918 44.023 36.905 8.559 68.836 39.367 108.412 35.8 34.454-3.1 47.881-29.958 53.019-60.862 9.573-57.576-11.606-121-69.016-144.216z" transform="translate(0 -14.212)"/>
            <path id="패스_122" fill="#2b2ab5" d="M198.057 149.793h-6.869v-1.705a4.933 4.933 0 0 0-4.933-4.933h-13.41V62.961a9.866 9.866 0 0 0-9.866-9.866h-61.523a9.866 9.866 0 0 0-9.866 9.866v73.96a22.046 22.046 0 0 0-28.29 32.548v24.475A24.587 24.587 0 0 0 87.862 218.5h33.873v30.938a4.932 4.932 0 0 0 4.933 4.933h11.1a4.932 4.932 0 0 0 4.933-4.933V218.5h33.873a24.587 24.587 0 0 0 24.559-24.559v-32.8a4.92 4.92 0 0 0 1.859-3.854v-2.56a4.934 4.934 0 0 0-4.933-4.932zM87.861 213.57a19.648 19.648 0 0 1-19.626-19.626v-19.7a22.034 22.034 0 0 0 23.354 1.256v7.18a9.863 9.863 0 0 0 9.866 9.866h7.345v4.5a7.066 7.066 0 0 0 .138 1.416 7.482 7.482 0 0 0 7.345 6.068h5.451v9.033H87.861zm88.71 0H142.7v-9.033h5.451a7.482 7.482 0 0 0 7.345-6.068 7.066 7.066 0 0 0 .138-1.416v-4.5h7.345a9.863 9.863 0 0 0 9.866-9.866v-13.83h13.41a4.933 4.933 0 0 0 4.933-4.933v-1.705h5.01v31.725a19.648 19.648 0 0 1-19.626 19.626z" opacity="0.11" transform="translate(-13.31 -22.201)"/>
            <path id="패스_123" d="M170.625 230.555v51.608a4.932 4.932 0 0 1-4.933 4.933h-11.1a4.932 4.932 0 0 1-4.933-4.933v-51.608z" class="cls-5" transform="translate(-33.836 -62.323)"/>
            <path id="패스_124" d="M179.781 208.412v16.358a7.068 7.068 0 0 1-.138 1.416 7.482 7.482 0 0 1-7.345 6.068h-31.867a7.482 7.482 0 0 1-7.345-6.068 7.067 7.067 0 0 1-.138-1.416v-16.358z" class="cls-5" transform="translate(-30.058 -57.317)"/>
            <path id="패스_125" d="M191.963 53.4v119.723a9.863 9.863 0 0 1-9.866 9.866h-61.523a9.863 9.863 0 0 1-9.866-9.866V53.4a9.866 9.866 0 0 1 9.866-9.866H182.1a9.866 9.866 0 0 1 9.866 9.866z" class="cls-5" transform="translate(-25.03 -20.04)"/>
            <g id="그룹_88" transform="translate(85.676 48.554)">
                <path id="패스_127" d="M141.633 75.917H110.7V86.44h30.929a2.467 2.467 0 0 0 2.466-2.466v-5.59a2.466 2.466 0 0 0-2.462-2.467z" class="cls-6" transform="translate(-110.705 -75.915)"/>
                <path id="패스_128" d="M141.633 100.575H110.7V111.1h30.929a2.467 2.467 0 0 0 2.466-2.466v-5.591a2.466 2.466 0 0 0-2.462-2.468z" class="cls-6" transform="translate(-110.705 -81.49)"/>
                <path id="패스_129" d="M141.633 125.233H110.7v10.523h30.929a2.467 2.467 0 0 0 2.466-2.466v-5.59a2.466 2.466 0 0 0-2.462-2.467z" class="cls-6" transform="translate(-110.705 -87.065)"/>
                <path id="패스_130" d="M205.92 75.914v10.527h-30.93a2.467 2.467 0 0 1-2.466-2.466v-5.594a2.467 2.467 0 0 1 2.466-2.466z" class="cls-6" transform="translate(-124.681 -75.914)"/>
                <path id="패스_131" d="M174.989 100.575h30.929V111.1h-30.929a2.467 2.467 0 0 1-2.466-2.466v-5.591a2.467 2.467 0 0 1 2.466-2.468z" class="cls-6" transform="translate(-124.681 -81.49)"/>
                <path id="패스_132" d="M174.989 125.233h30.929v10.523h-30.929a2.467 2.467 0 0 1-2.466-2.466v-5.59a2.467 2.467 0 0 1 2.466-2.467z" class="cls-6" transform="translate(-124.681 -87.065)"/>
            </g>
            <path id="패스_133" d="M76.69 180.907h131.68a4.933 4.933 0 0 0 4.933-4.933v-2.56a4.933 4.933 0 0 0-4.933-4.933H76.69a4.933 4.933 0 0 0-4.933 4.933v2.56a4.933 4.933 0 0 0 4.933 4.933z" class="cls-5" transform="translate(-16.223 -48.289)"/>
            <path id="패스_134" d="M91.939 185.606h108.076a4.933 4.933 0 0 0 4.933-4.933v-15.837a4.933 4.933 0 0 0-4.933-4.933H91.939a4.933 4.933 0 0 0-4.933 4.933v15.836a4.933 4.933 0 0 0 4.933 4.934z" class="cls-6" transform="translate(-19.671 -46.349)"/>
            <path id="패스_135" d="M227.085 44.972a24.544 24.544 0 1 0-44.959 11.92l-3.446 7.827a1.936 1.936 0 0 0 2.552 2.552l7.827-3.446a24.538 24.538 0 0 0 38.027-18.853z" class="cls-6" transform="translate(-40.256 -14.45)"/>
            <circle id="타원_41" cx="2.758" cy="2.758" r="2.758" class="cls-5" transform="translate(150.2 25.859)"/>
            <circle id="타원_42" cx="2.758" cy="2.758" r="2.758" class="cls-5" transform="translate(160.021 25.859)"/>
            <circle id="타원_43" cx="2.758" cy="2.758" r="2.758" class="cls-5" transform="translate(169.843 25.859)"/>
            <path id="패스_180" d="M22.046 0A22.046 22.046 0 1 1 0 22.046 22.046 22.046 0 0 1 22.046 0z" class="cls-6" transform="translate(52.96 104.566)"/>
            <path id="패스_136" d="M268.715 210.36a7.2 7.2 0 1 1 5.094-2.107 7.178 7.178 0 0 1-5.094 2.107zm0-9.47a2.27 2.27 0 1 0 1.606.664 2.263 2.263 0 0 0-1.607-.664z" class="cls-6" transform="translate(-59.126 -54.501)"/>
            <path id="패스_137" d="M278.842 176.738a7.2 7.2 0 1 1 5.093-2.11 7.156 7.156 0 0 1-5.093 2.11zm0-9.473a2.27 2.27 0 1 0 1.605 3.875 2.27 2.27 0 0 0-1.606-3.875z" class="cls-6" transform="translate(-61.415 -46.899)"/>
            <path id="패스_138" d="M60.206 128.24a7.2 7.2 0 1 1 5.094-2.107 7.182 7.182 0 0 1-5.094 2.107zm0-9.469a2.27 2.27 0 1 0 1.605.664 2.263 2.263 0 0 0-1.605-.664z" class="cls-6" transform="translate(-11.983 -35.935)"/>
            <path id="패스_139" d="M168.524 17.245h-1.6v-1.6a2.466 2.466 0 1 0-4.933 0v1.6h-1.6a2.466 2.466 0 1 0 0 4.933h1.6v1.6a2.466 2.466 0 1 0 4.933 0v-1.6h1.6a2.466 2.466 0 1 0 0-4.933z" class="cls-6" transform="translate(-35.703 -13.176)"/>
            <path id="패스_140" d="M54.816 207.38h-1.6v-1.6a2.466 2.466 0 0 0-4.933 0v1.6h-1.6a2.466 2.466 0 1 0 0 4.933h1.6v1.6a2.466 2.466 0 1 0 4.933 0v-1.6h1.6a2.466 2.466 0 1 0 0-4.933z" class="cls-6" transform="translate(-9.995 -56.163)"/>
            <g id="그룹_89" transform="translate(50.492 1.896)">
                <path id="패스_141" d="M206.9 131.455h-4.441a7.41 7.41 0 0 0-7.36-6.638h-86.387a24.693 24.693 0 0 0-5.819-5.155v-72.57a7.408 7.408 0 0 1 7.4-7.4h39.953c-.021.2-.047.394-.064.592a26.808 26.808 0 0 0 3.656 16.088L150.917 63a4.4 4.4 0 0 0 5.8 5.8l6.63-2.92a26.7 26.7 0 0 0 13.713 3.756c.715 0 1.436-.032 2.157-.087v44.029a2.466 2.466 0 1 0 4.933 0V68.706a27.011 27.011 0 1 0-32.9-33.947h-40.959a12.346 12.346 0 0 0-12.332 12.332v70.153a24.5 24.5 0 0 0-25.8 40.136c0 .061-.018.12-.018.182v20.509a24.587 24.587 0 0 0 24.559 24.56h31.405v30.937a7.408 7.408 0 0 0 7.4 7.4h11.1a7.408 7.408 0 0 0 7.4-7.4v-30.937h31.4a24.587 24.587 0 0 0 24.559-24.559v-29.935a7.4 7.4 0 0 0 4.325-6.722v-2.56a7.406 7.406 0 0 0-7.4-7.4zM175.631 20.606a22.077 22.077 0 1 1-10.716 40.442 2.467 2.467 0 0 0-2.356-.2l-6.577 2.9 2.9-6.577a2.466 2.466 0 0 0-.2-2.356A21.925 21.925 0 0 1 155.1 40.7a22.149 22.149 0 0 1 20.534-20.1zm33.732 118.249v2.56a2.469 2.469 0 0 1-2.466 2.466h-4.4v-7.493h4.4a2.47 2.47 0 0 1 2.466 2.467zm-14.269-9.1a2.469 2.469 0 0 1 2.466 2.466v15.837a2.469 2.469 0 0 1-2.466 2.466h-60.448a2.466 2.466 0 1 0 0 4.933h44.574v11.363a7.408 7.408 0 0 1-7.4 7.4h-61.527a7.408 7.408 0 0 1-7.4-7.4v-5.794a24.711 24.711 0 0 0 6.144-5.569h11.747a2.466 2.466 0 1 0 0-4.933h-8.736a24.458 24.458 0 0 0-.187-20.77zm-46.021 61.38v6.565h-16.034v-6.57zm-23.95-4.933a5.022 5.022 0 0 1-5.016-5.016v-2.034h41.9v2.034a5.022 5.022 0 0 1-5.016 5.016zm-35.366-65.44a19.579 19.579 0 1 1-19.58 19.579 19.6 19.6 0 0 1 19.58-19.579zM96.7 197.7a19.648 19.648 0 0 1-19.626-19.626v-16.762a24.467 24.467 0 0 0 20.885 2.127v3.378a12.346 12.346 0 0 0 12.332 12.332h4.882v2.034a9.96 9.96 0 0 0 9.949 9.949h2.982v6.568zm52.373 35.87a2.469 2.469 0 0 1-2.466 2.466h-11.1a2.469 2.469 0 0 1-2.466-2.466v-30.938h16.035zm36.338-35.87h-31.4v-6.57h2.982a9.96 9.96 0 0 0 9.949-9.949v-2.034h4.882a12.346 12.346 0 0 0 12.332-12.332v-11.362h10.942a7.41 7.41 0 0 0 7.36-6.638h2.583v29.259a19.649 19.649 0 0 1-19.63 19.626z" class="cls-7" transform="translate(-65.243 -15.626)"/>
                <path id="패스_142" d="M255.721 112.473h-5.054a2.466 2.466 0 1 0 0 4.933h5.054a2.466 2.466 0 1 0 0-4.933z" class="cls-7" transform="translate(-106.608 -37.522)"/>
                <path id="패스_143" d="M245.017 100.782a2.467 2.467 0 0 0 3.444.553l5.055-3.655a2.466 2.466 0 1 0-2.89-4l-5.055 3.655a2.465 2.465 0 0 0-.554 3.444z" class="cls-7" transform="translate(-105.782 -33.168)"/>
                <path id="패스_144" d="M245.017 128.029a2.466 2.466 0 0 0 .553 3.444l5.055 3.655a2.466 2.466 0 1 0 2.891-4l-5.055-3.655a2.467 2.467 0 0 0-3.444.553z" class="cls-7" transform="translate(-105.782 -40.808)"/>
                <path id="패스_145" d="M84.323 117.406h5.055a2.466 2.466 0 0 0 0-4.933h-5.055a2.466 2.466 0 1 0 0 4.933z" class="cls-7" transform="translate(-68.999 -37.522)"/>
                <path id="패스_146" d="M86.529 97.68l5.055 3.655a2.466 2.466 0 1 0 2.891-4l-5.055-3.652a2.466 2.466 0 0 0-2.891 4z" class="cls-7" transform="translate(-69.825 -33.168)"/>
                <path id="패스_147" d="M91.584 127.475l-5.055 3.655a2.466 2.466 0 0 0 2.891 4l5.055-3.655a2.466 2.466 0 1 0-2.891-4z" class="cls-7" transform="translate(-69.825 -40.808)"/>
            </g>
            <path id="패스_148" d="M94.324 179.564a2.465 2.465 0 0 1-1.745-.723l-6.414-6.42a2.466 2.466 0 0 1 3.49-3.487l4.67 4.674 22.667-22.671a2.466 2.466 0 1 1 3.488 3.488l-24.411 24.417a2.467 2.467 0 0 1-1.745.722z" class="cls-5" transform="translate(-19.318 -44.159)"/>
        </g>
    </g>
</svg>
