<svg xmlns="http://www.w3.org/2000/svg" width="310" height="150" viewBox="0 0 310 150">
    <defs>
        <clipPath id="clip-path">
            <path id="사각형_279" fill="#fff" stroke="#707070" d="M0 0h229.551v90H0z" transform="translate(225.703 143.633)"/>
        </clipPath>
        <style>
            .cls-8{fill:#414853}
        </style>
    </defs>
    <g id="logo_AVA_310px" transform="translate(-82 -85)">
        <g id="signature" clip-path="url(#clip-path)" transform="translate(-103.703 -28.633)">
            <path id="bg" fill="none" d="M0 0h56.309v60.331H0z" transform="translate(225.703 143.633)"/>
            <path id="패스_12392" fill="#5d1fff" d="M250.508 156.261l20.336 12.206c.07-.728.108-1.465.108-2.209a22.626 22.626 0 0 0-45.252 0v17.6a5.027 5.027 0 0 0 5.028 5.028h8.045V162.9a7.746 7.746 0 0 1 11.735-6.639z"/>
            <path id="패스_12393" fill="#1db6cc" d="M275.007 166.749L267.6 162.3a22.625 22.625 0 0 1-22.516 20.415h-9.551v7.325a7.745 7.745 0 0 0 11.731 6.64l27.744-16.652a7.745 7.745 0 0 0 0-13.279z" transform="translate(3.246 6.165)"/>
            <path id="패스_12394" fill="#0964ff" d="M267.6 165.609L247.263 153.4a7.746 7.746 0 0 0-11.731 6.642v25.979h9.551a22.625 22.625 0 0 0 22.517-20.413z" transform="translate(3.246 2.858)"/>
            <path id="패스_12395" d="M309.351 172.541q2.943 8.382 5.17 14.876t4.418 12.383q2.113 6.042 4.3 12.308t5.059 14.27h-7.55q-2.646 0-4.229-.152a5.319 5.319 0 0 1-2.567-.83 4.174 4.174 0 0 1-1.85-1.774 22.627 22.627 0 0 1-1.548-3.586l-2.793-8.458h-19.478l-3.171 10.122a9.616 9.616 0 0 1-1.321 2.907 3.992 3.992 0 0 1-1.624 1.322 4.4 4.4 0 0 1-2.114.452h-11.779q5.134-13.967 9.627-27.448t9.4-26.54q.6-1.433.982-2.53a6.119 6.119 0 0 1 .982-1.849 6.673 6.673 0 0 1 1.85-1.1 11.859 11.859 0 0 1 3.134-.717h7.172a16.374 16.374 0 0 1 3.323.265 4.781 4.781 0 0 1 2.038.944 5.611 5.611 0 0 1 1.359 2q.528 1.248 1.21 3.135zm-4.606 28.316l-6.494-19.1-6.569 19.1z" class="cls-8" transform="translate(14.057 7.452)"/>
            <path id="패스_12396" d="M356.4 166.8a4.709 4.709 0 0 1 2.3-.6h11.7l-21.218 60.33h-10.719a9.863 9.863 0 0 1-5.21-1.282 12.933 12.933 0 0 1-3.4-2.871 12.066 12.066 0 0 1-2-3.1q-.642-1.508-.869-2.19L310.45 166.2h10.95a8.484 8.484 0 0 1 2.682.415 3.3 3.3 0 0 1 1.925 1.85l14.12 43.342 14.8-43.418a3.091 3.091 0 0 1 1.473-1.589z" class="cls-8" transform="translate(27.984 7.452)"/>
            <path id="패스_12397" d="M393.7 172.541q2.943 8.382 5.172 14.876t4.418 12.383q2.115 6.042 4.3 12.308t5.059 14.27H405.1q-2.644 0-4.229-.152a5.329 5.329 0 0 1-2.567-.83 4.171 4.171 0 0 1-1.849-1.774 22.51 22.51 0 0 1-1.548-3.586l-2.793-8.458h-19.48l-3.17 10.119a9.644 9.644 0 0 1-1.322 2.907 3.984 3.984 0 0 1-1.624 1.322 4.4 4.4 0 0 1-2.114.452h-11.779q5.134-13.967 9.627-27.448t9.4-26.54q.6-1.433.982-2.53a6.119 6.119 0 0 1 .982-1.849 6.673 6.673 0 0 1 1.85-1.1 11.871 11.871 0 0 1 3.134-.717h7.172a16.365 16.365 0 0 1 3.323.265 4.787 4.787 0 0 1 2.039.944 5.61 5.61 0 0 1 1.358 2q.529 1.251 1.208 3.138zm-4.6 28.317l-6.493-19.1-6.57 19.1z" class="cls-8" transform="translate(41.911 7.452)"/>
        </g>
    </g>
</svg>
