<svg xmlns="http://www.w3.org/2000/svg" width="103" height="42" viewBox="0 0 103 42">
    <defs>
        <clipPath id="clip-path">
            <path id="사각형_279" fill="#fff" stroke="#707070" d="M0 0h103v42H0z" transform="translate(225.703 142.667)"/>
        </clipPath>
        <style>
            .cls-7{fill:#414853}
        </style>
    </defs>
    <g id="logo_AVA_103px" clip-path="url(#clip-path)" transform="translate(-225.703 -142.667)">
        <path id="bg" fill="none" d="M0 0h25.232v27.035H0z" transform="translate(225.703 143.633)"/>
        <path id="패스_12392" fill="#5d1fff" d="M236.818 149.291l9.112 5.469c.031-.326.048-.656.048-.99a10.139 10.139 0 0 0-20.279 0v7.885a2.253 2.253 0 0 0 2.252 2.253h3.606v-11.64a3.473 3.473 0 0 1 5.26-2.977z"/>
        <path id="패스_12393" fill="#1db6cc" d="M253.222 164.295l-3.317-1.995a10.139 10.139 0 0 1-10.09 9.148h-4.28v3.282a3.473 3.473 0 0 0 5.257 2.976l12.433-7.462a3.473 3.473 0 0 0 0-5.95z" transform="translate(-3.97 -7.54)"/>
        <path id="패스_12394" fill="#0964ff" d="M249.905 158.258l-9.113-5.469a3.473 3.473 0 0 0-5.257 2.976v11.642h4.28a10.139 10.139 0 0 0 10.09-9.148z" transform="translate(-3.97 -3.497)"/>
        <path id="패스_12395" d="M286.676 169.04q1.319 3.756 2.317 6.666t1.98 5.549l1.929 5.516q.981 2.809 2.267 6.394h-3.383q-1.186 0-1.895-.068a2.384 2.384 0 0 1-1.15-.372 1.87 1.87 0 0 1-.829-.8 10.146 10.146 0 0 1-.694-1.609l-1.252-3.79h-8.726l-1.421 4.534a4.307 4.307 0 0 1-.593 1.3 1.787 1.787 0 0 1-.728.593 1.974 1.974 0 0 1-.947.2h-5.279q2.3-6.259 4.314-12.3t4.212-11.893q.271-.642.44-1.133a2.74 2.74 0 0 1 .44-.828 2.99 2.99 0 0 1 .829-.491 5.313 5.313 0 0 1 1.4-.321h3.214a7.341 7.341 0 0 1 1.489.119 2.143 2.143 0 0 1 .913.424 2.514 2.514 0 0 1 .609.9q.239.56.54 1.405zm-2.064 12.689l-2.91-8.561-2.943 8.561z" class="cls-7" transform="translate(-17.195 -9.114)"/>
        <path id="패스_12396" d="M331.039 166.469a2.111 2.111 0 0 1 1.033-.27h5.244l-9.508 27.035H323a4.42 4.42 0 0 1-2.335-.574 5.794 5.794 0 0 1-1.525-1.287 5.4 5.4 0 0 1-.9-1.387q-.288-.678-.39-.981l-7.407-22.8h4.906a3.8 3.8 0 0 1 1.2.186 1.481 1.481 0 0 1 .862.829l6.327 19.422 6.631-19.456a1.386 1.386 0 0 1 .66-.712z" class="cls-7" transform="translate(-34.231 -9.115)"/>
        <path id="패스_12397" d="M371.032 169.04q1.319 3.756 2.317 6.666t1.979 5.549l1.929 5.516q.981 2.805 2.267 6.394h-3.384q-1.186 0-1.895-.068a2.388 2.388 0 0 1-1.15-.372 1.869 1.869 0 0 1-.828-.8 10.091 10.091 0 0 1-.694-1.609l-1.252-3.79h-8.73l-1.42 4.534a4.32 4.32 0 0 1-.593 1.3 1.785 1.785 0 0 1-.728.593 1.972 1.972 0 0 1-.947.2h-5.279q2.3-6.259 4.314-12.3t4.212-11.893q.271-.642.44-1.133a2.741 2.741 0 0 1 .44-.828 2.989 2.989 0 0 1 .829-.491 5.319 5.319 0 0 1 1.4-.321h3.214a7.335 7.335 0 0 1 1.489.119 2.146 2.146 0 0 1 .914.424 2.514 2.514 0 0 1 .609.9q.241.56.543 1.405zm-2.064 12.689l-2.91-8.561-2.944 8.561z" class="cls-7" transform="translate(-51.266 -9.114)"/>
    </g>
</svg>
