<svg xmlns="http://www.w3.org/2000/svg" width="33" height="33" viewBox="0 0 33 33">
    <defs>
        <filter id="ctpeskqaha">
            <feColorMatrix in="SourceGraphic" values="0 0 0 0 0.821975 0 0 0 0 0.847998 0 0 0 0 0.968354 0 0 0 1.000000 0"/>
        </filter>
    </defs>
    <g fill="none" fill-rule="evenodd">
        <g>
            <g>
                <g filter="url(#ctpeskqaha)" transform="translate(-1456 -3820) translate(0 3699) translate(382 60)">
                    <g fill="#FFF">
                        <path d="M16.307.895C7.81.895.895 7.81.895 16.307c0 8.498 6.914 15.412 15.412 15.412 8.498 0 15.412-6.914 15.412-15.412C31.719 7.81 24.805.895 16.307.895m0 31.72C7.315 32.615 0 25.299 0 16.307S7.315 0 16.307 0C25.3 0 32.614 7.315 32.614 16.307c0 8.992-7.315 16.308-16.307 16.308" transform="translate(1074 61)"/>
                        <path d="M14.348 19.363v-5.928l5.042 2.872-5.042 3.056zm10.785-9.128c-.355-.322-.693-.525-2.045-.65-1.69-.158-3.981-.18-5.712-.182h-2.144c-1.731.003-4.022.024-5.713.182-1.351.125-1.689.328-2.045.65-.937.85-1.133 3.174-1.158 5.462-.005.426-.005.853 0 1.28.028 2.268.23 4.56 1.158 5.403.356.322.694.524 2.045.65 1.691.157 3.982.179 5.713.182h2.144c1.73-.003 4.021-.025 5.712-.182 1.352-.126 1.69-.328 2.045-.65.921-.836 1.127-3.096 1.158-5.346.006-.484.006-.97 0-1.454-.03-2.25-.237-4.51-1.158-5.345z" transform="translate(1074 61)"/>
                    </g>
                </g>
            </g>
        </g>
    </g>
</svg>
