<svg xmlns="http://www.w3.org/2000/svg" width="20" height="20" viewBox="0 0 20 20">
    <defs>
        <linearGradient id="t27fp3nm1a" x1=".191" x2=".799" y1=".203" y2=".819" gradientUnits="objectBoundingBox">
            <stop offset="0" stop-color="#66eafa"/>
            <stop offset="1" stop-color="#2dbdf5"/>
        </linearGradient>
    </defs>
    <g>
        <path fill="none" d="M0 0H20V20H0z" transform="translate(-8.014 3) translate(8.014 -3)"/>
        <path fill="url(#t27fp3nm1a)" d="M153.766 157.569a4.118 4.118 0 1 1 4.118-4.118 4.123 4.123 0 0 1-4.118 4.118zm0-7a2.883 2.883 0 1 0 2.883 2.883 2.886 2.886 0 0 0-2.883-2.884z" transform="translate(-8.014 3) translate(-135.753 -146.45)"/>
        <path fill="#bdc2d2" d="M27.622 8.915L26.5 7.884a8.46 8.46 0 0 0 0-1.768l1.122-1.031a1.559 1.559 0 0 0 .285-1.9L26.542.824a1.549 1.549 0 0 0-1.8-.7l-1.447.453a7.71 7.71 0 0 0-1.531-.89L21.429-1.8a1.545 1.545 0 0 0-1.5-1.2h-2.74a1.543 1.543 0 0 0-1.5 1.2l-.328 1.487a7.715 7.715 0 0 0-1.531.89L12.381.119a1.54 1.54 0 0 0-1.795.7L9.212 3.193a1.556 1.556 0 0 0 .3 1.9l1.114 1.025a8.639 8.639 0 0 0-.049.882 8.456 8.456 0 0 0 .047.884L9.5 8.916a1.559 1.559 0 0 0-.285 1.9l1.365 2.36a1.545 1.545 0 0 0 1.8.7l1.445-.456a7.709 7.709 0 0 0 1.531.89l.334 1.484a1.545 1.545 0 0 0 1.5 1.2h2.74a1.541 1.541 0 0 0 1.5-1.2l.335-1.486a7.716 7.716 0 0 0 1.531-.89l1.448.457a1.538 1.538 0 0 0 1.8-.7l1.375-2.378a1.551 1.551 0 0 0-.297-1.882zm-7.2 4.7L20 15.479a.068.068 0 0 1-.065.054h-2.742a.069.069 0 0 1-.066-.056l-.419-1.862a.731.731 0 0 0-.462-.527 6.231 6.231 0 0 1-1.8-1.046.735.735 0 0 0-.467-.167.715.715 0 0 0-.221.034l-1.809.571a.076.076 0 0 1-.09-.03l-1.365-2.36a.086.086 0 0 1 .009-.1L11.9 8.708a.734.734 0 0 0 .229-.648 7.036 7.036 0 0 1 0-2.12.732.732 0 0 0-.229-.649l-1.392-1.275a.086.086 0 0 1-.021-.1l1.375-2.377a.073.073 0 0 1 .082-.022l1.813.572a.731.731 0 0 0 .688-.134 6.22 6.22 0 0 1 1.8-1.046.733.733 0 0 0 .461-.527l.42-1.864a.068.068 0 0 1 .065-.054h2.74a.073.073 0 0 1 .069.058l.418 1.861a.73.73 0 0 0 .462.527 6.231 6.231 0 0 1 1.8 1.046.73.73 0 0 0 .687.134l1.811-.572a.074.074 0 0 1 .089.03l1.365 2.36a.086.086 0 0 1-.009.1l-1.392 1.283a.734.734 0 0 0-.231.648 7.037 7.037 0 0 1 0 2.121.732.732 0 0 0 .229.649l1.388 1.276a.086.086 0 0 1 .02.1l-1.375 2.378a.071.071 0 0 1-.082.022l-1.813-.572a.729.729 0 0 0-.688.134 6.24 6.24 0 0 1-1.8 1.046.731.731 0 0 0-.461.522z" transform="translate(-8.014 3) translate(-.549)"/>
    </g>
</svg>
