<svg xmlns="http://www.w3.org/2000/svg" width="33" height="33" viewBox="0 0 33 33">
    <defs>
        <filter id="we6npbaena">
            <feColorMatrix in="SourceGraphic" values="0 0 0 0 0.821975 0 0 0 0 0.847998 0 0 0 0 0.968354 0 0 0 1.000000 0"/>
        </filter>
    </defs>
    <g fill="none" fill-rule="evenodd">
        <g>
            <g>
                <g filter="url(#we6npbaena)" transform="translate(-1504 -3820) translate(0 3699) translate(382 60)">
                    <g fill="#FFF">
                        <path d="M16.307.895C7.81.895.895 7.81.895 16.307c0 8.498 6.914 15.412 15.412 15.412 8.498 0 15.412-6.914 15.412-15.412C31.72 7.81 24.805.895 16.307.895m0 31.72C7.315 32.614 0 25.298 0 16.306S7.315 0 16.307 0C25.3 0 32.614 7.315 32.614 16.307c0 8.992-7.315 16.307-16.307 16.307" transform="translate(1122 61)"/>
                        <path d="M7.803 17.366c-.634 0-1.149-.514-1.149-1.148 0-.634.515-1.148 1.149-1.148s1.148.514 1.148 1.148c0 .634-.514 1.148-1.148 1.148m.393-3.929s-.797 0-1.519.704v-2.834H4.89v7.445h1.806v-.583s.426.769 1.5.769c0 0 2.519-.093 2.519-2.778 0 0-.093-2.723-2.519-2.723M11.288 11.14v1.723s.816-.037.816 1.482v4.407h1.722v-4.815s.074-2.796-2.538-2.796M18.038 17.366c-.634 0-1.149-.514-1.149-1.148 0-.634.515-1.148 1.149-1.148s1.148.514 1.148 1.148c0 .634-.514 1.148-1.148 1.148m0-3.905s-2.953 0-2.953 2.757c0 0-.095 2.72 2.952 2.72 0 0 3.02-.005 3.02-2.72 0 0 .1-2.757-3.02-2.757M24.92 17.366c-.634 0-1.148-.514-1.148-1.148 0-.634.514-1.148 1.148-1.148.634 0 1.148.514 1.148 1.148 0 .634-.514 1.148-1.148 1.148zm1.068-3.725v.5s-.514-.68-1.5-.68c0 0-2.527-.107-2.527 2.738 0 0-.028 2.65 2.458 2.65 0 0 1.014.042 1.569-.68v.417s.126 1.305-1.139 1.305h-.43v1.583h.694s2.611.028 2.611-2.792v-5.041h-1.736z" transform="translate(1122 61)"/>
                    </g>
                </g>
            </g>
        </g>
    </g>
</svg>
