<svg xmlns="http://www.w3.org/2000/svg" width="10" height="10" viewBox="0 0 10 10">
    <defs>
        <linearGradient id="cp1hxe3w0a" x2="1" y2="1" gradientUnits="objectBoundingBox">
            <stop offset="0" stop-color="#0ff"/>
            <stop offset="1" stop-color="#a23aff"/>
        </linearGradient>
    </defs>
    <path fill="url(#cp1hxe3w0a)" d="M93.195 85.89l-.507-.508a4.986 4.986 0 1 0-1.455 1.487l.493.495a1.036 1.036 0 0 0 1.469 0 1.044 1.044 0 0 0 0-1.474zm-4.711-.273a2.916 2.916 0 1 1 2.673-1.771l-.487-.489a1.04 1.04 0 1 0-1.47 1.473l.511.512a2.882 2.882 0 0 1-1.227.275z" transform="translate(-83.499 -77.7)"/>
</svg>
