<svg xmlns="http://www.w3.org/2000/svg" xmlns:xlink="http://www.w3.org/1999/xlink" width="20" height="20" viewBox="0 0 20 20">
    <defs>
        <filter id="wnnvtcifda">
            <feColorMatrix in="SourceGraphic" values="0 0 0 0 1.000000 0 0 0 0 1.000000 0 0 0 0 1.000000 0 0 0 1.000000 0"/>
        </filter>
        <path id="1rxfqpnqjb" d="M0 19.2L19.2 19.2 19.2 0 0 0z"/>
    </defs>
    <g fill="none" fill-rule="evenodd">
        <g>
            <g>
                <g>
                    <g filter="url(#wnnvtcifda)" transform="translate(-1177 -3769) translate(0 3699) translate(382 60) translate(795 9)">
                        <g transform="translate(0 1)">
                            <path fill="#3A3A3C" d="M15.6 7.2c-.22 0-.4.18-.4.4v4.8c0 .22.18.4.4.4h1.2c.882 0 1.6-.718 1.6-1.6V8.8c0-.882-.718-1.6-1.6-1.6h-1.2zm1.2 6.4h-1.2c-.662 0-1.2-.538-1.2-1.2V7.6c0-.662.538-1.2 1.2-1.2h1.2c1.323 0 2.4 1.077 2.4 2.4v2.4c0 1.323-1.077 2.4-2.4 2.4zM2.4 7.2c-.882 0-1.6.718-1.6 1.6v2.4c0 .882.718 1.6 1.6 1.6h1.2c.22 0 .4-.18.4-.4V7.6c0-.22-.18-.4-.4-.4H2.4zm1.2 6.4H2.4c-1.323 0-2.4-1.077-2.4-2.4V8.8c0-1.323 1.077-2.4 2.4-2.4h1.2c.662 0 1.2.538 1.2 1.2v4.8c0 .662-.538 1.2-1.2 1.2z"/>
                            <path fill="#3A3A3C" d="M15.6 7.2c-.22 0-.4-.18-.4-.4V5.6c0-2.647-2.153-4.8-4.8-4.8H8.8C6.153.8 4 2.953 4 5.6v1.2c0 .22-.18.4-.4.4-.22 0-.4-.18-.4-.4V5.6C3.2 2.512 5.712 0 8.8 0h1.6C13.488 0 16 2.512 16 5.6v1.2c0 .22-.18.4-.4.4"/>
                            <mask id="jjj9gomacc" fill="#fff">
                                <use xlink:href="#1rxfqpnqjb"/>
                            </mask>
                            <path fill="#3A3A3C" d="M8.8 18.4h2.4v-1.6H8.8v1.6zm2.8.8H8.4c-.22 0-.4-.18-.4-.4v-2.4c0-.22.18-.4.4-.4h3.2c.22 0 .4.18.4.4v2.4c0 .22-.18.4-.4.4z" mask="url(#jjj9gomacc)"/>
                            <path fill="#3A3A3C" d="M11.6 18c-.202 0-.375-.152-.398-.356-.024-.22.135-.417.354-.442l1.863-.204c1.015-.112 1.781-.967 1.781-1.988V13.2c0-.22.18-.4.4-.4.22 0 .4.18.4.4v1.81c0 1.43-1.072 2.626-2.494 2.783l-1.862.205L11.6 18" mask="url(#jjj9gomacc)"/>
                        </g>
                    </g>
                </g>
            </g>
        </g>
    </g>
</svg>
