<svg xmlns="http://www.w3.org/2000/svg" width="20" height="20" viewBox="0 0 20 20">
    <defs>
        <linearGradient id="svjmgl6coa" x1=".119" x2=".895" y1=".107" y2=".91" gradientUnits="objectBoundingBox">
            <stop offset="0" stop-color="#fd9ddd"/>
            <stop offset="1" stop-color="#de41fc"/>
        </linearGradient>
    </defs>
    <g>
        <path fill="none" d="M0 0H20V20H0z" transform="translate(-1398 177) translate(1398 -177)"/>
        <path fill="url(#svjmgl6coa)" d="M431.857 280.214l2.062-2.062a.785.785 0 0 0-1.11-1.11l-2.062 2.062-2.063-2.062a.785.785 0 0 0-1.11 1.11l2.063 2.062-2.063 2.063a.785.785 0 0 0 1.11 1.11l2.063-2.063 2.062 2.063a.785.785 0 1 0 1.11-1.11z" transform="translate(-1398 177) translate(983.85 -447.186)"/>
        <path fill="#bdc2d2" d="M21.323 11.158l-5.684 5.325h-3.807a.831.831 0 0 0-.832.832v7.226a.831.831 0 0 0 .832.832h3.8l5.691 5.327a.835.835 0 0 0 1.4-.608V11.766a.835.835 0 0 0-1.4-.608zm-6.255 12.55h-2.4v-5.56h2.4v5.561zm5.994 4.464l-4.325-4.052v-6.376l4.325-4.052z" transform="translate(-1398 177) translate(1387 -187.931)"/>
    </g>
</svg>
