<svg xmlns="http://www.w3.org/2000/svg" width="20" height="20" viewBox="0 0 20 20">
    <defs>
        <linearGradient id="m1g0kr4a7a" x1=".043" x2=".963" y1=".037" y2=".953" gradientUnits="objectBoundingBox">
            <stop offset="0" stop-color="#fd9ddd"/>
            <stop offset="1" stop-color="#de41fc"/>
        </linearGradient>
    </defs>
    <g>
        <path fill="none" d="M0 0H20V20H0z" transform="translate(-1398 177) translate(1398 -177)"/>
        <path fill="url(#m1g0kr4a7a)" d="M-233.677-2362.229l-5.688-5.329h-3.8a.83.83 0 0 1-.833-.832v-7.226a.831.831 0 0 1 .833-.833h3.807l5.684-5.324a.835.835 0 0 1 1.4.608v18.328a.852.852 0 0 1-.823.836.916.916 0 0 1-.58-.228zm-4.586-12.958v6.377l4.325 4.051v-14.48zm-4.072 5.965h2.4v-5.561h-2.4zm16.994.424l-2.062-2.063-2.063 2.063a.783.783 0 0 1-.555.229.785.785 0 0 1-.555-.229.785.785 0 0 1 0-1.111l2.063-2.063-2.063-2.062a.785.785 0 0 1 0-1.111.785.785 0 0 1 1.111 0l2.063 2.062 2.062-2.062a.785.785 0 0 1 1.111 0 .785.785 0 0 1 0 1.111l-2.062 2.062 2.062 2.063a.785.785 0 0 1 0 1.111.783.783 0 0 1-.555.229.783.783 0 0 1-.557-.231z" transform="translate(-1398 177) translate(1642 2205)"/>
    </g>
</svg>
