<svg xmlns="http://www.w3.org/2000/svg" width="20" height="20" viewBox="0 0 20 20">
    <defs>
        <linearGradient id="5ue6h01aaa" x1=".082" x2="1" y1=".074" y2="1" gradientUnits="objectBoundingBox">
            <stop offset="0" stop-color="#66eafa"/>
            <stop offset="1" stop-color="#2dbdf5"/>
        </linearGradient>
    </defs>
    <g>
        <path fill="none" d="M0 0H20V20H0z" transform="translate(-8.014 3) translate(8.014 -3)"/>
        <path fill="url(#5ue6h01aaa)" d="M-1769.808-2188a1.545 1.545 0 0 1-1.5-1.2l-.334-1.484a7.722 7.722 0 0 1-1.531-.889l-1.445.456a1.545 1.545 0 0 1-1.8-.7l-1.365-2.361a1.56 1.56 0 0 1 .285-1.9l1.122-1.031a8.361 8.361 0 0 1-.048-.884 8.678 8.678 0 0 1 .047-.885l-1.114-1.025a1.556 1.556 0 0 1-.3-1.9l1.374-2.378a1.542 1.542 0 0 1 1.8-.7l1.448.457a7.733 7.733 0 0 1 1.531-.889l.335-1.486a1.543 1.543 0 0 1 1.5-1.2h2.74a1.545 1.545 0 0 1 1.5 1.2l.334 1.484a7.73 7.73 0 0 1 1.531.889l1.445-.456a1.548 1.548 0 0 1 1.8.7l1.365 2.36a1.56 1.56 0 0 1-.285 1.9l-1.122 1.031a8.678 8.678 0 0 1 .047.885 8.648 8.648 0 0 1-.047.884l1.122 1.031a1.553 1.553 0 0 1 .29 1.892l-1.374 2.377a1.539 1.539 0 0 1-1.8.7l-1.448-.457a7.729 7.729 0 0 1-1.531.889l-.335 1.486a1.541 1.541 0 0 1-1.5 1.2zm-2.749-4.958a6.23 6.23 0 0 0 1.8 1.046.731.731 0 0 1 .462.528l.419 1.861a.069.069 0 0 0 .066.057h2.74a.069.069 0 0 0 .065-.054l.42-1.864a.732.732 0 0 1 .462-.528 6.233 6.233 0 0 0 1.8-1.046.732.732 0 0 1 .688-.134l1.813.573a.072.072 0 0 0 .082-.022l1.375-2.378a.086.086 0 0 0-.021-.1l-1.388-1.275a.735.735 0 0 1-.229-.649 7.254 7.254 0 0 0 .08-1.06 7.257 7.257 0 0 0-.08-1.06.736.736 0 0 1 .229-.649l1.394-1.281a.085.085 0 0 0 .009-.1l-1.364-2.361a.075.075 0 0 0-.089-.03l-1.811.572a.728.728 0 0 1-.687-.133 6.245 6.245 0 0 0-1.8-1.046.729.729 0 0 1-.462-.527l-.419-1.861a.073.073 0 0 0-.068-.055h-2.74a.068.068 0 0 0-.065.053l-.42 1.865a.734.734 0 0 1-.461.526 6.221 6.221 0 0 0-1.8 1.046.729.729 0 0 1-.687.134l-1.813-.573a.073.073 0 0 0-.082.022l-1.375 2.377a.087.087 0 0 0 .022.1l1.387 1.274a.732.732 0 0 1 .229.649 7.237 7.237 0 0 0-.08 1.06 7.234 7.234 0 0 0 .08 1.06.734.734 0 0 1-.229.648l-1.394 1.282a.087.087 0 0 0-.009.1l1.364 2.36a.075.075 0 0 0 .09.03l1.809-.572a.726.726 0 0 1 .221-.034.732.732 0 0 1 .468.169zm0-5.042a4.123 4.123 0 0 1 4.118-4.118 4.123 4.123 0 0 1 4.118 4.118 4.123 4.123 0 0 1-4.118 4.118 4.123 4.123 0 0 1-4.117-4.118zm1.236 0a2.886 2.886 0 0 0 2.883 2.883 2.886 2.886 0 0 0 2.883-2.883 2.886 2.886 0 0 0-2.883-2.883 2.886 2.886 0 0 0-2.883 2.883z" transform="translate(-8.014 3) translate(1786.451 2205)"/>
    </g>
</svg>
