<svg xmlns="http://www.w3.org/2000/svg" xmlns:xlink="http://www.w3.org/1999/xlink" width="33" height="34" viewBox="0 0 33 34">
    <defs>
        <filter id="wsakf55hra">
            <feColorMatrix in="SourceGraphic" values="0 0 0 0 0.821975 0 0 0 0 0.847998 0 0 0 0 0.968354 0 0 0 1.000000 0"/>
        </filter>
        <path id="pnfwmhkpob" d="M0 0.026L32.614 0.026 32.614 32.64 0 32.64z"/>
    </defs>
    <g fill="none" fill-rule="evenodd">
        <g>
            <g>
                <g filter="url(#wsakf55hra)" transform="translate(-1408 -3820) translate(0 3699) translate(382 60)">
                    <g>
                        <g transform="translate(1026 61) translate(0 .214)">
                            <mask id="pujnl4x5ac" fill="#fff">
                                <use xlink:href="#pnfwmhkpob"/>
                            </mask>
                            <path fill="#FFF" d="M16.307.921C7.81.921.895 7.835.895 16.333c0 8.498 6.914 15.412 15.412 15.412 8.498 0 15.412-6.914 15.412-15.412C31.72 7.835 24.805.92 16.307.92m0 31.719C7.315 32.64 0 25.325 0 16.333 0 7.34 7.315.026 16.307.026c8.992 0 16.307 7.315 16.307 16.307 0 8.992-7.315 16.307-16.307 16.307" mask="url(#pujnl4x5ac)"/>
                        </g>
                        <path fill="#FFF" d="M14.174 26.539c.002-.05.005-.098.005-.147V17.425H11.23c-.13 0-.131 0-.131-.126 0-1.105.001-2.21-.003-3.314 0-.101.03-.127.129-.126.94.004 1.882.002 2.824.002h.131v-.107c.002-.918-.005-1.837.008-2.755.01-.739.153-1.454.476-2.124.437-.91 1.124-1.56 2.058-1.949.624-.259 1.277-.38 1.95-.37.77.012 1.541.047 2.312.074.143.005.286.03.429.037.08.004.107.034.106.113-.003.458-.001.916-.001 1.373 0 .54-.002 1.079.002 1.618 0 .094-.027.123-.121.122-.585-.004-1.17-.011-1.755.002-.266.006-.536.035-.795.092-.5.11-.797.44-.897.938-.04.2-.063.408-.065.612-.007.748-.003 1.497-.003 2.245 0 .022.003.045.005.08H21.252c.14 0 .143 0 .126.133-.077.589-.156 1.177-.231 1.766-.063.491-.125.983-.184 1.475-.022.188-.018.189-.207.189h-2.873v8.898l-.002.216h-3.707z" transform="translate(1026 61)"/>
                    </g>
                </g>
            </g>
        </g>
    </g>
</svg>
