<svg xmlns="http://www.w3.org/2000/svg" width="20" height="20" viewBox="0 0 20 20">
    <defs>
        <linearGradient id="kdr1ezj2fa" x1="1" x2="0" y1=".5" y2=".5" gradientUnits="objectBoundingBox">
            <stop offset="0" stop-color="#fd9ddd"/>
            <stop offset="1" stop-color="#de41fc"/>
        </linearGradient>
    </defs>
    <g>
        <path fill="none" d="M0 0H20V20H0z" transform="translate(-1398 97) translate(1398 -97)"/>
        <path fill="url(#kdr1ezj2fa)" d="M-266.192-3429.836a.842.842 0 0 1-.021-1.179 5.472 5.472 0 0 0 0-7.569.837.837 0 0 1 .021-1.179.832.832 0 0 1 1.179.016 7.172 7.172 0 0 1 0 9.895.844.844 0 0 1-.6.251.825.825 0 0 1-.579-.235zm-2.554-1.857a.857.857 0 0 1-.021-1.179 2.811 2.811 0 0 0 0-3.856.837.837 0 0 1 .021-1.179.832.832 0 0 1 1.179.016 4.474 4.474 0 0 1 0 6.181.842.842 0 0 1-.6.251.825.825 0 0 1-.579-.234z" transform="translate(-1398 97) translate(1680.913 3347.801)"/>
        <path fill="#bdc2d2" d="M21.323 11.158l-5.684 5.325h-3.807a.831.831 0 0 0-.832.832v7.226a.831.831 0 0 0 .832.832h3.8l5.691 5.327a.835.835 0 0 0 1.4-.608V11.766a.835.835 0 0 0-1.4-.608zm-6.255 12.55h-2.4v-5.56h2.4v5.561zm5.994 4.464l-4.325-4.052v-6.376l4.325-4.052z" transform="translate(-1398 97) translate(1387 -107.931)"/>
    </g>
</svg>
