<svg xmlns="http://www.w3.org/2000/svg" width="10" height="9.998" viewBox="0 0 10 9.998">
    <defs>
        <linearGradient id="a95cdltlxa" x2="1" y2="1" gradientUnits="objectBoundingBox">
            <stop offset="0" stop-color="#0ff"/>
            <stop offset="1" stop-color="#a23aff"/>
        </linearGradient>
    </defs>
    <path fill="url(#a95cdltlxa)" d="M131.866 128.66h-1.976l.381-2h1.595a.8.8 0 1 0 0-1.6h-1.29l.276-1.45a.8.8 0 0 0-1.572-.3l-.333 1.749h-1.571l.276-1.45a.8.8 0 0 0-1.572-.3l-.333 1.749h-2.28a.8.8 0 0 0 0 1.6h1.976l-.381 2h-1.595a.8.8 0 0 0 0 1.6h1.29l-.276 1.45a.8.8 0 0 0 1.572.3l.334-1.749h1.571l-.276 1.45a.8.8 0 0 0 1.572.3l.334-1.749h2.28a.8.8 0 1 0 0-1.6zm-3.6 0h-1.576l.381-2h1.571z" transform="translate(-122.667 -122.661)"/>
</svg>
