<svg xmlns="http://www.w3.org/2000/svg" width="20" height="20" viewBox="0 0 20 20">
    <defs>
        <linearGradient id="ilex8gd5na" x2="1" y1=".5" y2=".5" gradientUnits="objectBoundingBox">
            <stop offset="0" stop-color="#c56eac"/>
            <stop offset="1" stop-color="#fb3f79"/>
        </linearGradient>
        <linearGradient id="mcdljt1inb" x1=".838" x2="0" y1=".5" y2=".5" gradientUnits="objectBoundingBox">
            <stop offset="0" stop-color="#c36fab"/>
            <stop offset="1" stop-color="#fa4279"/>
        </linearGradient>
    </defs>
    <g>
        <path fill="none" d="M0 0H20V20H0z" transform="translate(-1343 93.036) translate(1343 -93.036)"/>
        <path fill="url(#ilex8gd5na)" d="M-423.845-1197.549a.835.835 0 0 1-.069-1.177 4.576 4.576 0 0 0 0-5.923.834.834 0 0 1 .069-1.176.834.834 0 0 1 1.176.069 6.284 6.284 0 0 1 0 8.138.836.836 0 0 1-.625.282.82.82 0 0 1-.551-.213zm-1.875-2.112a.832.832 0 0 1-.069-1.176 1.339 1.339 0 0 0 0-1.7.832.832 0 0 1 .069-1.176.834.834 0 0 1 1.176.069 2.986 2.986 0 0 1 0 3.918.833.833 0 0 1-.625.282.82.82 0 0 1-.551-.217z" transform="translate(-1343 93.036) translate(1784.174 1115.669)"/>
        <path fill="url(#mcdljt1inb)" d="M-424.5-1197.618a6.284 6.284 0 0 1 0-8.138.834.834 0 0 1 1.176-.069.833.833 0 0 1 .069 1.176 4.576 4.576 0 0 0 0 5.923.834.834 0 0 1-.069 1.177.812.812 0 0 1-.552.212.836.836 0 0 1-.624-.281zm1.875-2.108a2.992 2.992 0 0 1 0-3.922.834.834 0 0 1 1.176-.069.842.842 0 0 1 .069 1.184 1.339 1.339 0 0 0 0 1.7.832.832 0 0 1-.069 1.176.826.826 0 0 1-.551.209.837.837 0 0 1-.63-.278z" transform="translate(-1343 93.036) translate(1769 1115.669)"/>
        <path fill="#bdc2d2" d="M156.174 52.369h-2.737v-3.836a3.67 3.67 0 0 0 2.827-3.566V38.66a3.66 3.66 0 1 0-7.32 0v6.307a3.67 3.67 0 0 0 2.827 3.566v3.836h-2.737a.833.833 0 0 0 0 1.667h7.136a.833.833 0 0 0 0-1.667zm-5.564-7.4V38.66a1.993 1.993 0 1 1 3.987 0v6.307a1.993 1.993 0 1 1-3.987 0z" transform="translate(-1343 93.036) translate(1200.396 -127.554)"/>
    </g>
</svg>
