<svg xmlns="http://www.w3.org/2000/svg" width="117" height="39" viewBox="0 0 117 39">
    <g fill="none" fill-rule="evenodd">
        <g fill="#1D4592">
            <g>
                <g>
                    <path d="M143.058 54.363h-3.634l-3.227-7.183h-.148l.19 7.183h-3.053v-11.75h3.73l3.15 7.132h.132l-.218-7.132h3.078v11.75zm-14.04-2.841c0 3.225-4.072 3.179-4.072 3.179-4.692 0-4.344-3.325-4.344-3.325v-8.81h3.37l-.003 8.877c0 1.004.929.947.929.947.888 0 .856-.971.856-.971v-8.853h3.264v8.956zm-12.038-.79v1.185c-.194 2.928-4.23 2.853-4.23 2.853-4.208 0-4.1-2.776-4.1-2.776v-1.457h3.278v1.001c0 .852.8.889.8.889.893.032.982-.836.982-.836.108-.849-.816-1.374-.816-1.374-.903-.472-2.439-1.299-2.439-1.299-.754-.503-1.057-.947-1.057-.947-.552-.692-.512-1.752-.512-1.752v-.92c0-1.28.347-1.646.347-1.646.867-1.646 3.899-1.46 3.899-1.46 3.864.12 3.632 2.53 3.632 2.53v1.473h-3.083v-1.004c0-.7-.847-.761-.847-.761-.66 0-.824.462-.824.462-.35.681.27 1.284.27 1.284.32.342 1.914 1.087 1.914 1.087.522.206 1.368.732 1.368.732 1.547.94 1.418 2.736 1.418 2.736zm-14.811 3.625l-.077-8.844h-.221l-1.596 8.844H97.08l-1.619-8.844h-.221l-.043 8.85-3.046-.006.256-11.752h5.15l.981 6.436h.245l1.022-6.428h5.077l.34 11.744h-3.053zm-16.544-.012l-1.205-9.112h-.275l-1.187 9.112h-3.29l2.023-11.746h5.192l2.015 11.746h-3.273zm67.114-24.792c-22.775-2.28-56.056 2.635-79.23 12.062l-1.36.586c.412-.022.688-.008.688-.008 3.854.12 3.626 2.53 3.626 2.53v1.473h-3.08v-1.004c0-.7-.862-.761-.862-.761-.664 0-.809.462-.809.462-.371.681.272 1.284.272 1.284.291.342 1.9 1.087 1.9 1.087.538.206 1.36.732 1.36.732 1.55.94 1.42 2.736 1.42 2.736v1.185c-.176 2.928-4.213 2.853-4.213 2.853-4.203 0-4.106-2.776-4.106-2.776v-1.457h3.275v1.001c0 .852.805.889.805.889.9.032.987-.836.987-.836.109-.849-.816-1.374-.816-1.374-.918-.472-2.444-1.299-2.444-1.299-.75-.503-1.061-.947-1.061-.947-.541-.692-.5-1.752-.5-1.752v-.92c0-1.28.338-1.646.338-1.646l.015-.027c-22.69 10.672-20.1 21.756 1.045 23.809 23.125 2.243 58.042-2.226 81.5-12.779-.09.008-.176.023-.274.023 0 0-3.953.336-4.054-2.888v-6.217s-.493-3.43 3.943-3.43c0 0 2.892-.091 3.657 1.645 0 0 .379.45.278 2.36h-3.083v-.987s0-.78-.797-.78c0 0-.836.04-.836.695v6.439s-.036.869.904.869c0 0 .783-.023.783-.934v-1.854h-.851V47.86h3.969v3.656s-.012.765-.343 1.219c0 0-.241.368-.39.52l1.3-.658c20.772-10.706 18.176-20.94-2.956-23.044z" transform="translate(-535 -3062) translate(0 2839) translate(482 194)"/>
                </g>
            </g>
        </g>
    </g>
</svg>
