<svg xmlns="http://www.w3.org/2000/svg" xmlns:xlink="http://www.w3.org/1999/xlink" width="120" height="43" viewBox="0 0 120 43">
    <defs>
        <path id="6swdrz8nsa" d="M0.669 0.293L25.584 0.293 25.584 27.3 0.669 27.3z"/>
        <path id="xsp51wp33c" d="M0.509 0.139L9.831 0.139 9.831 10.403 0.509 10.403z"/>
        <path id="qh0kvsaf9e" d="M0 41.861L119.174 41.861 119.174 0.7 0 0.7z"/>
    </defs>
    <g fill="none" fill-rule="evenodd">
        <g>
            <g>
                <g>
                    <g transform="translate(-532 -3177) translate(0 2839) translate(482 194) translate(50 144)">
                        <g transform="translate(46.9 14.561)">
                            <mask id="3nxqtjce9b" fill="#fff">
                                <use xlink:href="#6swdrz8nsa"/>
                            </mask>
                            <path fill="#E50113" d="M4.567 14.666c0-6.662 5.403-12.062 12.067-12.062 3.552 0 6.743 1.534 8.95 3.977C23.189 2.802 18.976.293 14.174.293 6.718.293.67 6.34.67 13.796.67 21.258 6.717 27.3 14.175 27.3c1.518 0 2.974-.253 4.339-.715-.613.097-1.241.145-1.88.145-6.664 0-12.067-5.4-12.067-12.064" mask="url(#3nxqtjce9b)"/>
                        </g>
                        <path fill="#E50113" d="M70.878 30.152c.227-5.152-3.766-9.514-8.918-9.741-2.747-.12-5.267.955-7.054 2.77 1.978-2.84 5.322-4.635 9.034-4.472 5.769.254 10.237 5.135 9.985 10.902-.257 5.767-5.141 10.235-10.908 9.983-1.17-.053-2.29-.297-3.325-.702.467.093.953.15 1.445.175 5.148.23 9.511-3.766 9.74-8.915"/>
                        <path fill="#231916" d="M19.163 40.292h6.451s-1.612-.665-1.612-2.467V20.798l7.068 16.6s.757 1.85 2.748 3.368l8.155-20.11v17.5s0 1.518-1.607 2.086h7.067s-1.713-.9-1.899-2.799V18.05s.045-1.567 1.564-1.852h-6.923s0 .914-.488 2.285c-.514 1.444-6.025 15.493-6.025 15.493l-7.574-17.682H19.21s1.663.474 1.663 2.514V37.35s-.14 1.852-1.71 2.942M93.657 16.272h7.35s-1.758.767-1.758 2.478v19.247s-.045 1.397 1.757 2.298h-7.349s1.356-.724 1.714-2.298V18.84s0-1.625-1.714-2.569M117.143 21.003l-.03-4.552s-2.988-.814-5.74-.814c0 0-8.652-.358-9.06 6.495 0 0-.089 4.282 5.366 6.49 0 0 4.327 1.848 5.452 2.748 0 0 1.804.812 1.804 3.022 0 0 .265 3.775-5.205 3.768 0 0-5.118-.025-7.956-3.365l1.262 5.05s2.431.813 6.851.903c0 0 8.917-.18 9.285-7.077 0 0 .212-3.558-3.662-5.516 0 0-3.289-1.558-6.54-3.25 0 0-2.311-1.244-2.311-3.472 0 0 .088-3.155 4.669-3.132 0 0 3.878-.183 5.815 2.702M87.078 26.458s3.47-1.397 3.47-5.049c0 0-.043-4.869-6.674-5.093l-9.823.046s1.715.643 1.715 2.627v19.008s.144 1.68-1.715 2.25h9.783s9.012-.39 9.012-7.478c0 0 .374-4.838-5.768-6.311zm-7.473-7.739c1.334-.177 2.715-.09 2.715-.09 4.18.314 4.002 3.473 4.002 3.473 0 3.916-4.716 3.78-4.716 3.78h-2V18.72zm4.491 18.779l-4.537-.043v-9.08h3.426s5.654-.087 5.654 4.674c0 0 .175 4.093-4.543 4.449z"/>
                        <path fill="#00448D" d="M6.878.7L6.878 4.61 2.442 4.61 2.442.7 0 .7 0 10.963 2.442 10.963 2.442 6.838 6.878 6.838 6.878 10.963 9.323 10.963 9.323.7 9.197.7zM18.28.7L15.724 4.765 13.169.7 10.285.7 14.507 7.409 14.507 10.963 16.946 10.963 16.946 7.409 21.163.7 20.939.7zM29.024.7v7.526c0 .286-.216.514-.517.514h-3.918V.7h-2.445v10.263h7.223c.64 0 1.158-.188 1.534-.562.376-.376.563-.892.563-1.533V.7h-2.44zM40.952.7h-7.224v10.263h2.442v-8.04h3.919c.317 0 .52.247.52.512v7.528h2.438v-8.16c0-.645-.186-1.161-.563-1.537C42.106.89 41.592.7 40.952.7"/>
                        <g transform="translate(44.8 .561)">
                            <mask id="e855q5ihkd" fill="#fff">
                                <use xlink:href="#xsp51wp33c"/>
                            </mask>
                            <path fill="#00448D" d="M7.391 2.892V7.65c0 .278-.203.529-.521.529H2.954V2.36h3.902c.317 0 .535.225.535.531M7.733.138H.51v10.265h7.224c.644 0 1.156-.19 1.535-.563.374-.375.563-.891.563-1.533V2.241c0-.644-.189-1.161-.565-1.536C8.889.33 8.374.138 7.733.138" mask="url(#e855q5ihkd)"/>
                        </g>
                        <path fill="#00448D" d="M63.665 2.922v2.646h-4.438V3.445c0-.251.199-.523.522-.523h3.916zM58.886.7c-.642 0-1.155.192-1.533.565-.375.376-.561.894-.561 1.537v8.161h2.435V7.791h4.438v3.172h2.438V.7h-7.217z"/>
                        <mask id="myv1cd0xhf" fill="#fff">
                            <use xlink:href="#qh0kvsaf9e"/>
                        </mask>
                        <path fill="#00448D" d="M68.484 10.963L70.928 10.963 70.928 0.7 68.484 0.7z" mask="url(#myv1cd0xhf)"/>
                    </g>
                </g>
            </g>
        </g>
    </g>
</svg>
