<svg xmlns="http://www.w3.org/2000/svg" xmlns:xlink="http://www.w3.org/1999/xlink" width="101" height="86" viewBox="0 0 101 86">
    <defs>
        <path id="zb58jjdm5a" d="M0.001 0.015L15.222 0.015 15.222 1.56 0.001 1.56z"/>
    </defs>
    <g fill="none" fill-rule="evenodd">
        <g>
            <g>
                <g>
                    <g>
                        <path fill="#FFF" d="M4.777 84.906h20.095c.322 0 .585-.254.585-.565v-3.568c0-.311-.263-.566-.585-.566H4.777c-.322 0-.586.255-.586.566v3.568c0 .31.264.565.586.565zm18.531-3.463c0-.149.124-.27.276-.27.153 0 .276.121.276.27v2.18c0 .148-.123.268-.276.268-.152 0-.276-.12-.276-.269v-2.18zm-2.226 0c0-.149.124-.27.276-.27.153 0 .276.121.276.27v2.18c0 .148-.123.268-.276.268-.152 0-.276-.12-.276-.269v-2.18zm-2.195 0c0-.149.124-.27.276-.27.153 0 .276.121.276.27v2.18c0 .148-.123.268-.276.268-.152 0-.276-.12-.276-.269v-2.18zm-2.166 0c0-.149.124-.27.276-.27.153 0 .276.121.276.27v2.18c0 .148-.123.268-.276.268-.152 0-.276-.12-.276-.269v-2.18zm-2.138 0c0-.149.124-.27.276-.27.153 0 .276.121.276.27v2.18c0 .148-.123.268-.276.268-.152 0-.276-.12-.276-.269v-2.18zm-2.11 0c0-.149.124-.27.277-.27.152 0 .276.121.276.27v2.18c0 .148-.124.268-.276.268-.153 0-.277-.12-.277-.269v-2.18zm-2.082 0c0-.149.123-.27.276-.27.152 0 .276.121.276.27v2.18c0 .148-.124.268-.276.268-.153 0-.276-.12-.276-.269v-2.18zm-2.056 0c0-.149.123-.27.276-.27.152 0 .276.121.276.27v2.18c0 .148-.124.268-.276.268-.153 0-.276-.12-.276-.269v-2.18zm-2.03 0c0-.149.123-.27.275-.27.153 0 .277.121.277.27v2.18c0 .148-.124.268-.277.268-.152 0-.276-.12-.276-.269v-2.18z" transform="translate(-909 -2486) translate(482 2190) translate(332 235) translate(95.286 61)"/>
                        <path fill="#E6EBF4" d="M94.198 45.01c-1.102 0-1.995.862-1.995 1.926s.893 1.927 1.995 1.927 1.995-.863 1.995-1.927-.893-1.926-1.995-1.926m0-1.278c1.833 0 3.319 1.435 3.319 3.204 0 1.77-1.486 3.205-3.319 3.205s-3.318-1.435-3.318-3.205 1.485-3.204 3.318-3.204" transform="translate(-909 -2486) translate(482 2190) translate(332 235) translate(95.286 61)"/>
                        <path fill="#6979F8" d="M9.218 47.83l-.456-.873-.449.858c-.037.083-.116.146-.215.16l-1 .15.716.685c.064.059.097.147.082.237l-.163.966.901-.448c.078-.038.172-.04.255 0l.901.448-.162-.966c-.014-.083.012-.17.078-.234l.72-.688-1.002-.15c-.086-.013-.164-.064-.206-.145M9.01 46.24l.64 1.225 1.406.21c.153.022.257.16.234.307-.011.066-.046.123-.095.164l-.995.952.228 1.356c.025.146-.078.284-.23.308-.06.01-.12 0-.172-.026l-1.264-.629-1.265.629c-.136.068-.304.016-.374-.116-.03-.055-.038-.114-.027-.17l.228-1.351-1.01-.968c-.11-.104-.11-.274-.002-.38.044-.042.1-.068.156-.076l1.405-.21.64-1.225c.07-.132.237-.186.374-.119.055.027.097.07.123.119" transform="translate(-909 -2486) translate(482 2190) translate(332 235) translate(95.286 61)"/>
                        <path fill="#B8C6D7" d="M1.94 60.394c-.154 0-.28-.12-.28-.269 0-.149.126-.27.28-.27.421 0 .782.288 1.142.575l.015.013c.277.22.554.438.772.438.223 0 .506-.225.789-.45.36-.288.721-.575 1.141-.575.421 0 .782.287 1.143.574l.014.013c.278.22.554.438.773.438.223 0 .505-.225.788-.45.36-.288.721-.575 1.141-.575.422 0 .782.287 1.143.574l.014.013c.278.22.554.438.773.438.154 0 .279.12.279.27 0 .148-.125.269-.279.269-.414 0-.77-.28-1.126-.563l-.016-.012c-.283-.225-.566-.45-.788-.45-.223 0-.505.225-.788.45-.36.287-.721.575-1.141.575-.415 0-.771-.28-1.127-.563l-.016-.012c-.282-.225-.565-.45-.787-.45-.223 0-.506.225-.788.45-.36.287-.721.575-1.142.575-.414 0-.77-.28-1.126-.563l-.016-.012c-.283-.225-.565-.45-.787-.45M82.27 13.97c-.154 0-.28-.121-.28-.27 0-.148.126-.269.28-.269.456 0 .853.316 1.25.633.32.254.639.508.898.508.26 0 .579-.254.898-.508.397-.317.794-.633 1.25-.633.457 0 .854.316 1.251.633.319.254.638.508.898.508.259 0 .578-.254.897-.508.397-.317.794-.633 1.251-.633.457 0 .854.316 1.25.633.32.254.639.508.898.508.154 0 .28.121.28.27 0 .149-.126.27-.28.27-.456 0-.854-.317-1.25-.634-.32-.254-.639-.508-.898-.508-.26 0-.579.254-.898.508-.397.317-.794.633-1.25.633-.457 0-.854-.316-1.251-.633-.32-.254-.638-.508-.898-.508s-.578.254-.897.508c-.397.317-.794.633-1.251.633-.457 0-.854-.316-1.25-.633-.32-.254-.639-.508-.898-.508" transform="translate(-909 -2486) translate(482 2190) translate(332 235) translate(95.286 61)"/>
                        <g transform="translate(-909 -2486) translate(482 2190) translate(332 235) translate(95.286 61) translate(60.89 .062)">
                            <mask id="9jpab5gpqb" fill="#fff">
                                <use xlink:href="#zb58jjdm5a"/>
                            </mask>
                            <path fill="#B8C6D7" d="M5.78.241c.146-.14.346-.226.567-.226.22 0 .42.086.565.226.145.14.235.333.235.546 0 .214-.09.407-.235.547-.144.14-.345.226-.565.226-.221 0-.421-.086-.566-.226-.145-.14-.235-.333-.235-.547 0-.213.09-.406.235-.546zm.567.312c-.067 0-.128.027-.172.069-.043.042-.07.1-.07.165s.027.124.07.166c.044.042.105.068.172.068.067 0 .127-.026.171-.068.044-.042.07-.1.07-.166 0-.064-.026-.123-.07-.165C6.474.58 6.414.553 6.347.553zM2.234.506c.154 0 .28.12.28.269 0 .149-.126.27-.28.27H.28c-.154 0-.28-.121-.28-.27 0-.149.126-.27.28-.27h1.954zm2.49 0c.154 0 .28.12.28.269 0 .149-.126.27-.28.27h-1.37c-.155 0-.28-.121-.28-.27 0-.149.125-.27.28-.27h1.37zm10.219 0c.154 0 .279.12.279.269 0 .148-.125.27-.28.27H8.007c-.154 0-.279-.122-.279-.27 0-.149.125-.27.28-.27h6.936z" mask="url(#9jpab5gpqb)"/>
                        </g>
                        <path fill="#6979F8" d="M11.555 12.122c0-.149.125-.27.279-.27.154 0 .279.121.279.27v2.744c0 .148-.125.269-.28.269-.153 0-.278-.12-.278-.27v-2.743z" transform="translate(-909 -2486) translate(482 2190) translate(332 235) translate(95.286 61)"/>
                        <path fill="#6979F8" d="M13.255 13.224c.153 0 .278.121.278.27 0 .148-.125.27-.278.27h-2.842c-.154 0-.28-.122-.28-.27 0-.149.126-.27.28-.27h2.842z" transform="translate(-909 -2486) translate(482 2190) translate(332 235) translate(95.286 61)"/>
                        <path fill="#E6EBF4" d="M6.342 29.233c-.715 0-1.295.56-1.295 1.25s.58 1.25 1.295 1.25c.716 0 1.295-.56 1.295-1.25s-.58-1.25-1.295-1.25m0-.83c1.19 0 2.155.931 2.155 2.08 0 1.15-.965 2.08-2.155 2.08s-2.154-.93-2.154-2.08c0-1.149.964-2.08 2.154-2.08" transform="translate(-909 -2486) translate(482 2190) translate(332 235) translate(95.286 61)"/>
                        <path fill="#6979F8" d="M93.9 32.798c0-.149.124-.27.278-.27.154 0 .28.121.28.27v2.744c0 .148-.126.269-.28.269-.154 0-.279-.12-.279-.27v-2.743z" transform="translate(-909 -2486) translate(482 2190) translate(332 235) translate(95.286 61)"/>
                        <path fill="#6979F8" d="M95.599 33.9c.154 0 .279.121.279.27 0 .149-.125.27-.28.27h-2.84c-.155 0-.28-.121-.28-.27 0-.149.125-.27.28-.27h2.84z" transform="translate(-909 -2486) translate(482 2190) translate(332 235) translate(95.286 61)"/>
                        <path fill="#FFF" d="M88.5 85.154c-.152 0-.276-.12-.276-.27 0-.148.124-.269.276-.269h6.36c.153 0 .277.121.277.27 0 .149-.124.27-.277.27H88.5zm-54.579 0c-.152 0-.276-.12-.276-.27 0-.148.124-.269.276-.269h40.134c.153 0 .276.121.276.27 0 .149-.123.27-.276.27H33.921zm-33.645 0c-.152 0-.276-.12-.276-.27 0-.148.124-.269.276-.269h2.496c.152 0 .276.121.276.27 0 .149-.124.27-.276.27H.276zM17.35 64.548c.005.149-.115.273-.268.278-.154.005-.283-.11-.288-.259l-1.78-44.506c-.005-.148.115-.272.269-.278.153-.005.282.111.287.26l1.78 44.505zM27.43 7.57c-.153.005-.282-.111-.288-.26-.005-.147.115-.272.268-.277l50.54-1.87c.153-.004.282.112.288.26l.619 16.465c.005.148-.115.273-.268.278-.154.005-.283-.11-.288-.259l-.609-16.196L27.43 7.57z" transform="translate(-909 -2486) translate(482 2190) translate(332 235) translate(95.286 61)"/>
                        <path fill="#6979F8" d="M26.786 7.325l-11.522 12.01 7.596-.28c2.415-.09 4.31-2.065 4.217-4.397l-.29-7.333z" transform="translate(-909 -2486) translate(482 2190) translate(332 235) translate(95.286 61)"/>
                        <path fill="#B8C6D7" d="M37.848 17.443L59.296 16.65 59.199 14.182 37.75 14.975zM43.125 22.193L54.411 21.775 54.313 19.307 43.027 19.724zM89.35 75.444L28.027 77.73c.678-5.114 2.783-12.864 11.696-13.077 10.13-.242 6.836-16.777 11.522-18.358 4.686-1.581 7.446 3.4 12.486 3.213 5.04-.188 7.996-8.802 11.649-15.469 3.128-5.708 6.538-11.378 11.8-12.814l2.168 54.22" transform="translate(-909 -2486) translate(482 2190) translate(332 235) translate(95.286 61)"/>
                        <path fill="#404D61" d="M29.872 71.644c-.058.137-.222.202-.363.146-.142-.057-.21-.215-.15-.352.79-1.835 1.933-3.561 3.602-4.849 1.672-1.29 3.867-2.135 6.756-2.204 5.885-.14 7.089-6.098 8.109-11.145.7-3.466 1.317-6.52 3.328-7.199 2.663-.898 4.692.206 6.829 1.37 1.72.935 3.514 1.911 5.74 1.828 3.813-.142 6.46-5.48 9.175-10.96.735-1.481 1.474-2.973 2.237-4.365 1.184-2.16 2.41-4.318 3.767-6.252 1.362-1.943 2.854-3.653 4.561-4.901.123-.09.298-.066.39.052.093.119.068.288-.054.377-1.655 1.21-3.107 2.877-4.438 4.773-1.336 1.905-2.555 4.05-3.734 6.202-.77 1.404-1.501 2.88-2.228 4.346-2.789 5.627-5.506 11.11-9.657 11.265-2.383.089-4.245-.925-6.031-1.897-2.026-1.102-3.95-2.149-6.374-1.33-1.708.576-2.297 3.488-2.964 6.794-1.06 5.24-2.31 11.427-8.643 11.579-2.753.065-4.838.866-6.422 2.088-1.586 1.223-2.677 2.874-3.436 4.634" transform="translate(-909 -2486) translate(482 2190) translate(332 235) translate(95.286 61)"/>
                        <path fill="#FFF" d="M38.533 43.254c-.005-.148.115-.273.268-.278.154-.005.283.11.288.259l1.544 38.624c.006.148-.114.273-.268.278-.153.005-.282-.111-.287-.259l-1.545-38.624zm-.547-13.684c-.005-.148.115-.273.268-.278.154-.005.282.11.288.259l.34 8.512c.006.148-.114.273-.268.278-.153.005-.282-.111-.287-.259l-.34-8.512zM50.28 29.111c-.005-.148.115-.272.268-.277.154-.005.283.11.288.259L52.928 81.4c.005.148-.115.272-.268.278-.154.005-.283-.111-.288-.26L50.28 29.112zM64.588 77.56c-.003-.147.119-.27.272-.273.154-.002.28.115.283.263l.079 3.397c.003.148-.119.27-.272.273-.154.003-.28-.115-.284-.263l-.078-3.396zm-2.013-48.908c-.005-.148.115-.272.269-.277.153-.004.282.112.286.26l1.093 30.742c.005.148-.116.272-.27.277-.153.005-.281-.112-.286-.26l-1.092-30.742zM76.23 62.226c-.005-.148.114-.272.268-.277.153-.006.282.11.287.258l.43 10.73c.005.148-.115.273-.269.278-.153.005-.282-.11-.287-.259l-.43-10.73zm-1.36-34.031c-.006-.148.114-.273.267-.278.153-.005.282.11.288.259l.846 21.162c.005.148-.115.273-.268.278-.154.005-.282-.11-.288-.259l-.846-21.162z" transform="translate(-909 -2486) translate(482 2190) translate(332 235) translate(95.286 61)"/>
                        <path fill="#404D61" d="M24.902 78.115c-.153.005-.282-.11-.288-.259-.005-.148.115-.272.268-.277l38.674-1.442c.153-.005.282.11.288.259.005.148-.115.272-.268.278l-38.674 1.441z" transform="translate(-909 -2486) translate(482 2190) translate(332 235) translate(95.286 61)"/>
                        <path fill="#FFF" d="M63.744 50.938c.818-.03 1.454-.695 1.423-1.484-.032-.79-.72-1.404-1.537-1.374-.818.03-1.455.695-1.423 1.484.031.79.72 1.405 1.537 1.374" transform="translate(-909 -2486) translate(482 2190) translate(332 235) translate(95.286 61)"/>
                        <path fill="#404D61" d="M64.978 50.663c-.306.319-.739.525-1.224.543-.485.019-.931-.155-1.262-.45-.33-.296-.544-.713-.563-1.182-.018-.468.161-.899.467-1.218.306-.32.739-.526 1.224-.544.484-.018.931.156 1.261.451.331.296.545.713.564 1.182.018.467-.162.899-.467 1.218m-1.244.007c.332-.012.627-.153.836-.371.209-.218.332-.514.32-.835-.014-.32-.16-.606-.385-.807-.226-.202-.532-.32-.865-.308-.332.012-.627.153-.836.37-.21.219-.332.515-.32.836.013.32.16.605.385.807.226.202.532.32.865.308" transform="translate(-909 -2486) translate(482 2190) translate(332 235) translate(95.286 61)"/>
                        <path fill="#FFF" d="M75.438 35.468c.817-.03 1.454-.694 1.423-1.484-.032-.789-.72-1.404-1.537-1.373-.818.03-1.455.694-1.423 1.484.032.789.72 1.404 1.537 1.373" transform="translate(-909 -2486) translate(482 2190) translate(332 235) translate(95.286 61)"/>
                        <path fill="#404D61" d="M76.672 35.193c-.306.319-.739.526-1.224.544-.484.018-.931-.156-1.262-.451-.33-.296-.544-.713-.563-1.182-.019-.468.161-.899.467-1.218.306-.319.739-.526 1.224-.544.484-.018.931.156 1.262.451.33.296.544.713.563 1.182.018.467-.162.899-.467 1.218m-1.244.007c.332-.012.627-.153.836-.371.21-.218.332-.514.32-.835-.014-.32-.16-.606-.385-.807-.226-.202-.532-.32-.865-.308-.332.012-.627.153-.836.371-.21.218-.332.514-.32.835.013.32.16.606.385.807.226.202.532.32.865.308" transform="translate(-909 -2486) translate(482 2190) translate(332 235) translate(95.286 61)"/>
                        <path fill="#FFF" d="M51.303 47.724c.817-.03 1.454-.695 1.423-1.484-.032-.79-.72-1.405-1.537-1.374-.818.03-1.455.695-1.423 1.484.031.79.72 1.404 1.537 1.374" transform="translate(-909 -2486) translate(482 2190) translate(332 235) translate(95.286 61)"/>
                        <path fill="#404D61" d="M52.536 47.448c-.306.32-.738.526-1.223.544-.485.018-.931-.156-1.262-.451-.33-.296-.544-.713-.563-1.182-.019-.467.161-.899.467-1.218.306-.319.738-.525 1.224-.543.484-.018.93.155 1.261.45.33.296.545.713.564 1.182.018.468-.162.899-.468 1.218m-1.243.007c.332-.012.627-.153.836-.37.209-.219.332-.515.319-.836-.013-.32-.159-.605-.385-.807-.225-.202-.532-.32-.865-.308-.331.012-.627.153-.835.371-.21.218-.332.514-.32.835.013.32.16.606.385.808.226.201.532.32.865.307" transform="translate(-909 -2486) translate(482 2190) translate(332 235) translate(95.286 61)"/>
                        <path fill="#FFF" d="M39.724 66.073c.817-.03 1.454-.695 1.423-1.484-.032-.789-.72-1.404-1.537-1.374-.818.03-1.455.695-1.423 1.485.031.789.72 1.404 1.537 1.373" transform="translate(-909 -2486) translate(482 2190) translate(332 235) translate(95.286 61)"/>
                        <path fill="#404D61" d="M40.957 65.798c-.305.319-.738.525-1.223.543-.484.018-.931-.155-1.262-.45-.324-.29-.536-.698-.562-1.156l-.002-.036c-.015-.464.165-.891.468-1.208.3-.313.723-.518 1.197-.543l.037-.002c.48-.015.923.159 1.251.452.325.29.537.698.562 1.156l.003.035c.015.464-.165.892-.469 1.209m-1.243.007c.332-.012.627-.153.836-.371.209-.218.332-.514.32-.835l-.002-.02c-.018-.312-.162-.59-.383-.787-.226-.202-.532-.32-.865-.308h-.02c-.324.018-.612.157-.816.37-.21.219-.332.514-.32.836l.002.02c.017.312.162.59.383.787.226.202.532.32.865.308" transform="translate(-909 -2486) translate(482 2190) translate(332 235) translate(95.286 61)"/>
                        <path fill="#6979F8" d="M99.206 69.61c.32-2.62.024-5.35-.985-7.994-3.306-8.67-13.05-13.25-22.086-10.557l3.185 8.349c4.263-1.017 8.728 1.203 10.28 5.273.43 1.128.594 2.288.524 3.417l9.082 1.511z" transform="translate(-909 -2486) translate(482 2190) translate(332 235) translate(95.286 61)"/>
                        <path fill="#404D61" d="M99.482 65.53c.17 1.381.166 2.76 0 4.11l-.002.015c-.025.146-.17.244-.321.22l-9.082-1.512c-.138-.023-.24-.143-.231-.281.035-.553.01-1.115-.075-1.678-.084-.546-.227-1.092-.432-1.63-.747-1.96-2.192-3.476-3.963-4.384-1.788-.917-3.908-1.215-5.978-.724-.14.04-.289-.032-.34-.165l-3.188-8.363c-.046-.142.037-.292.184-.336 4.6-1.37 9.381-.885 13.429 1.05 4.025 1.924 7.326 5.281 9 9.67.504 1.323.833 2.667.999 4.008zm-.521 3.766c.128-1.219.12-2.46-.033-3.703-.16-1.3-.479-2.603-.968-3.885-1.623-4.255-4.822-7.51-8.724-9.375-3.841-1.836-8.365-2.325-12.737-1.098l2.997 7.858c2.134-.45 4.303-.122 6.141.821 1.888.968 3.428 2.585 4.225 4.674.219.574.37 1.156.46 1.738.079.517.108 1.034.091 1.547l8.548 1.423z" transform="translate(-909 -2486) translate(482 2190) translate(332 235) translate(95.286 61)"/>
                        <path fill="#FFF" d="M64.952 74.446C68.69 82.832 78.621 87.022 87.6 83.83c5.896-2.097 9.966-6.874 11.276-12.38l-9.081-1.511c-.747 2.484-2.664 4.605-5.37 5.567-4.216 1.5-8.862-.343-10.825-4.135l-8.647 3.075z" transform="translate(-909 -2486) translate(482 2190) translate(332 235) translate(95.286 61)"/>
                        <path fill="#404D61" d="M74.235 83.741c-4.151-1.72-7.636-4.92-9.539-9.19l-.005-.013c-.053-.14.02-.294.165-.345l8.64-3.072c.133-.051.288.004.353.13.955 1.845 2.566 3.213 4.452 3.934 1.865.712 3.998.79 6.027.069 1.285-.457 2.386-1.184 3.26-2.09.904-.937 1.565-2.065 1.934-3.284.032-.139.172-.23.319-.206l9.096 1.515c.15.033.243.177.209.322-.677 2.847-2.081 5.502-4.086 7.703-1.933 2.122-4.426 3.823-7.365 4.868-4.546 1.617-9.333 1.37-13.46-.341zm-8.908-9.142c1.869 4.01 5.188 7.016 9.126 8.648 4.001 1.658 8.642 1.898 13.05.33 2.849-1.012 5.265-2.661 7.139-4.719 1.879-2.063 3.213-4.536 3.893-7.19l-8.547-1.424c-.404 1.217-1.083 2.343-1.993 3.286-.932.966-2.106 1.742-3.475 2.229-2.163.769-4.436.686-6.424-.074-1.936-.74-3.601-2.12-4.631-3.98L65.327 74.6z" transform="translate(-909 -2486) translate(482 2190) translate(332 235) translate(95.286 61)"/>
                        <path fill="#6979F8" d="M67.037 57.258c-3.309 4.298-4.493 9.994-2.757 15.426l8.647-3.075c-.599-2.34-.114-4.744 1.191-6.658l-7.081-5.693z" transform="translate(-909 -2486) translate(482 2190) translate(332 235) translate(95.286 61)"/>
                        <path fill="#404D61" d="M63.47 64.626c.487-2.728 1.637-5.31 3.343-7.528l.01-.011c.098-.114.273-.13.391-.035l7.082 5.693c.107.086.133.238.054.353-.64.939-1.076 2-1.275 3.114-.194 1.08-.164 2.208.12 3.321.04.135-.033.28-.172.329l-8.661 3.078c-.147.044-.303-.036-.348-.177-.867-2.715-1.017-5.495-.545-8.137zm3.617-6.979c-1.56 2.097-2.613 4.518-3.069 7.07-.442 2.474-.322 5.071.444 7.616l8.139-2.894c-.252-1.115-.268-2.24-.076-3.318.198-1.106.617-2.164 1.227-3.115l-6.665-5.359z" transform="translate(-909 -2486) translate(482 2190) translate(332 235) translate(95.286 61)"/>
                        <path fill="#FFF" d="M74.31 51.708c-2.352.978-4.387 2.393-6.037 4.113l7.082 5.693c.621-.577 1.339-1.07 2.14-1.457l-3.184-8.35z" transform="translate(-909 -2486) translate(482 2190) translate(332 235) translate(95.286 61)"/>
                        <path fill="#404D61" d="M70.905 53.241c1.015-.691 2.116-1.29 3.296-1.78l.014-.006c.144-.05.304.021.357.16l3.185 8.35c.047.126-.01.27-.138.332-.382.184-.748.396-1.094.632-.348.237-.675.498-.977.778-.1.094-.26.101-.37.013l-7.093-5.703c-.112-.1-.12-.27-.015-.379.85-.885 1.798-1.69 2.835-2.397zm3.247-1.172c-1.044.454-2.022.995-2.927 1.612-.927.632-1.779 1.342-2.547 2.116l6.666 5.359c.271-.238.559-.46.861-.667.298-.203.613-.39.944-.561l-2.997-7.859z" transform="translate(-909 -2486) translate(482 2190) translate(332 235) translate(95.286 61)"/>
                        <path fill="#FFF" d="M25.842 30.022c-.006-.148.114-.272.268-.277.153-.005.282.11.287.259l1.313 32.815c.005.148-.115.272-.268.278-.154.005-.283-.111-.288-.26l-1.312-32.815zM29.507 77.675c-.031-.79-.72-1.404-1.537-1.374-.817.03-1.454.695-1.422 1.484.031.79.72 1.404 1.537 1.374.817-.03 1.454-.695 1.422-1.484" transform="translate(-909 -2486) translate(482 2190) translate(332 235) translate(95.286 61)"/>
                        <path fill="#404D61" d="M29.222 76.484c.33.295.545.713.563 1.181.019.468-.161.9-.467 1.218-.306.32-.738.526-1.223.544-.485.018-.932-.155-1.262-.45-.324-.29-.536-.698-.562-1.157l-.002-.035c-.015-.464.164-.891.468-1.208.3-.313.722-.518 1.197-.543l.036-.002c.48-.014.924.159 1.252.452m.008 1.2c-.013-.32-.16-.605-.385-.807-.225-.201-.532-.32-.865-.308l-.02.001c-.323.018-.61.157-.816.37-.208.219-.331.514-.318.836v.019c.018.312.163.59.384.788.226.202.532.32.865.308.332-.013.627-.154.836-.372.209-.217.331-.513.319-.835M86.96 22.663c-.005-.148.115-.273.268-.278.154-.005.283.11.288.259L88.6 49.778c.005.148-.115.273-.268.278-.153.005-.282-.11-.288-.259L86.96 22.663z" transform="translate(-909 -2486) translate(482 2190) translate(332 235) translate(95.286 61)"/>
                        <path fill="#FFF" d="M23.363 33.283c-.105.109-.28.115-.393.015-.112-.1-.119-.27-.015-.379l2.96-3.088c.105-.109.28-.115.393-.015l3.199 2.859c.112.1.119.27.015.379-.104.108-.28.115-.392.014l-2.995-2.676-2.772 2.891zM88.66 21.17c-.03-.79-.719-1.405-1.536-1.374-.817.03-1.454.695-1.423 1.484.032.789.72 1.404 1.537 1.373.817-.03 1.454-.694 1.423-1.484" transform="translate(-909 -2486) translate(482 2190) translate(332 235) translate(95.286 61)"/>
                        <path fill="#404D61" d="M88.375 19.979c.331.295.545.712.564 1.181.018.467-.162.899-.467 1.218-.306.319-.739.526-1.224.544-.484.018-.931-.156-1.261-.451-.325-.29-.537-.698-.562-1.156l-.003-.035c-.015-.464.165-.892.468-1.209.3-.313.723-.518 1.197-.542l.037-.003c.48-.014.923.16 1.251.453m.008 1.2c-.013-.32-.159-.605-.384-.807-.226-.202-.532-.32-.865-.308h-.02c-.324.018-.611.158-.816.371-.209.218-.332.514-.319.835v.02c.019.312.163.59.384.787.226.202.532.32.865.308.332-.012.627-.153.836-.371.209-.218.332-.514.32-.835" transform="translate(-909 -2486) translate(482 2190) translate(332 235) translate(95.286 61)"/>
                        <path fill="#B8C6D7" d="M25.45 80.183L10.401 80.183 25.45 82.334z" transform="translate(-909 -2486) translate(482 2190) translate(332 235) translate(95.286 61)"/>
                        <path fill="#404D61" d="M25.725 80.83c0 .149-.123.27-.276.27-.152 0-.276-.121-.276-.27 0-.104-.044-.198-.115-.266-.07-.069-.17-.111-.279-.111H4.854c-.11 0-.208.042-.28.11-.07.069-.114.163-.114.267v3.405c0 .104.044.198.115.267.07.068.17.11.279.11h17.503c.152 0 .276.121.276.27 0 .149-.124.27-.276.27H4.854c-.26 0-.496-.104-.668-.27-.172-.166-.278-.395-.278-.647V80.83c0-.252.106-.481.278-.647.172-.166.408-.27.668-.27h19.925c.26 0 .496.104.668.27.172.166.278.395.278.647" transform="translate(-909 -2486) translate(482 2190) translate(332 235) translate(95.286 61)"/>
                        <path fill="#FFF" d="M7.49 80.183h20.095c.322 0 .585-.254.585-.565V76.05c0-.311-.263-.565-.585-.565H7.49c-.322 0-.585.254-.585.565v3.568c0 .31.263.565.585.565" transform="translate(-909 -2486) translate(482 2190) translate(332 235) translate(95.286 61)"/>
                        <path fill="#404D61" d="M27.585 80.453H7.49c-.236 0-.45-.094-.607-.245-.157-.151-.254-.36-.254-.59V76.05c0-.23.097-.439.254-.59.156-.15.371-.245.607-.245h20.095c.236 0 .451.094.608.245.156.151.254.36.254.59v3.568c0 .23-.098.439-.254.59-.157.15-.372.245-.608.245m-20.095-.54h20.095c.086 0 .164-.033.22-.086.055-.054.09-.128.09-.209V76.05c0-.081-.035-.155-.09-.209-.056-.054-.134-.087-.22-.087H7.49c-.086 0-.164.033-.22.087-.055.054-.09.128-.09.209v3.568c0 .081.035.155.09.209.057.053.134.087.22.087" transform="translate(-909 -2486) translate(482 2190) translate(332 235) translate(95.286 61)"/>
                        <path fill="#404D61" d="M25.763 76.744c0-.149.124-.27.276-.27.153 0 .277.121.277.27v2.18c0 .148-.124.269-.277.269-.152 0-.276-.12-.276-.27v-2.179zm-2.226 0c0-.149.124-.27.277-.27.152 0 .276.121.276.27v2.18c0 .148-.124.269-.276.269-.153 0-.277-.12-.277-.27v-2.179zm-2.195 0c0-.149.124-.27.276-.27.153 0 .277.121.277.27v2.18c0 .148-.124.269-.277.269-.152 0-.276-.12-.276-.27v-2.179zm-2.166 0c0-.149.124-.27.276-.27.153 0 .276.121.276.27v2.18c0 .148-.123.269-.276.269-.152 0-.276-.12-.276-.27v-2.179zm-2.138 0c0-.149.124-.27.277-.27.152 0 .276.121.276.27v2.18c0 .148-.124.269-.276.269-.153 0-.277-.12-.277-.27v-2.179zm-2.11 0c0-.149.124-.27.277-.27.152 0 .276.121.276.27v2.18c0 .148-.124.269-.276.269-.153 0-.276-.12-.276-.27v-2.179zm-2.082 0c0-.149.124-.27.276-.27.153 0 .277.121.277.27v2.18c0 .148-.124.269-.277.269-.152 0-.276-.12-.276-.27v-2.179zm-2.056 0c0-.149.124-.27.276-.27.153 0 .276.121.276.27v2.18c0 .148-.123.269-.276.269-.152 0-.276-.12-.276-.27v-2.179zm-2.03 0c0-.149.123-.27.276-.27.152 0 .276.121.276.27v2.18c0 .148-.124.269-.276.269-.153 0-.277-.12-.277-.27v-2.179zM23.33 75.6H3.335c-.204 0-.39-.08-.526-.208l-.007-.006c-.137-.132-.222-.315-.222-.515V71.4c0-.201.085-.383.222-.516.137-.131.326-.214.533-.214H23.33c.203 0 .39.08.526.208l.007.006c.137.133.222.315.222.516v3.47c0 .201-.085.384-.222.516s-.326.214-.533.214m-19.995-.23H23.33c.142 0 .27-.057.364-.147.093-.09.152-.215.152-.352V71.4c0-.137-.059-.262-.152-.352l-.006-.006c-.092-.087-.22-.14-.358-.14H3.335c-.142 0-.271.055-.364.145-.094.091-.152.216-.152.353v3.47c0 .138.058.262.152.353l.005.005c.093.087.22.141.359.141" transform="translate(-909 -2486) translate(482 2190) translate(332 235) translate(95.286 61)"/>
                        <path fill="#FFF" d="M3.335 75.485H23.33c.35 0 .635-.277.635-.614V71.4c0-.338-.286-.614-.635-.614H3.335c-.35 0-.636.276-.636.614v3.47c0 .338.286.615.636.615" transform="translate(-909 -2486) translate(482 2190) translate(332 235) translate(95.286 61)"/>
                        <path fill="#404D61" d="M23.33 75.754H3.335c-.25 0-.478-.1-.643-.26-.166-.16-.269-.38-.269-.623V71.4c0-.243.103-.464.269-.624.165-.16.393-.26.643-.26H23.33c.25 0 .477.1.643.26.165.16.268.38.268.624v3.47c0 .244-.103.465-.268.625-.166.16-.394.259-.643.259m-19.995-.539H23.33c.1 0 .19-.039.254-.101.065-.062.105-.148.105-.243V71.4c0-.095-.04-.181-.105-.243-.064-.063-.155-.102-.254-.102H3.335c-.1 0-.19.039-.255.102-.064.062-.104.148-.104.243v3.47c0 .096.04.182.104.244.065.062.155.101.255.101" transform="translate(-909 -2486) translate(482 2190) translate(332 235) translate(95.286 61)"/>
                        <path fill="#B8C6D7" d="M23.965 70.786L8.917 70.786 23.965 72.937z" transform="translate(-909 -2486) translate(482 2190) translate(332 235) translate(95.286 61)"/>
                        <path fill="#404D61" d="M21.558 72.045c0-.148.124-.269.276-.269.153 0 .276.12.276.27v2.179c0 .148-.123.27-.276.27-.152 0-.276-.122-.276-.27v-2.18zm-2.226 0c0-.148.124-.269.276-.269.153 0 .276.12.276.27v2.179c0 .148-.123.27-.276.27-.152 0-.276-.122-.276-.27v-2.18zm-2.195 0c0-.148.124-.269.276-.269.153 0 .276.12.276.27v2.179c0 .148-.123.27-.276.27-.152 0-.276-.122-.276-.27v-2.18zm-2.166 0c0-.148.124-.269.276-.269.153 0 .276.12.276.27v2.179c0 .148-.123.27-.276.27-.152 0-.276-.122-.276-.27v-2.18zm-2.138 0c0-.148.124-.269.276-.269.153 0 .276.12.276.27v2.179c0 .148-.123.27-.276.27-.152 0-.276-.122-.276-.27v-2.18zm-2.11 0c0-.148.124-.269.277-.269.152 0 .276.12.276.27v2.179c0 .148-.124.27-.276.27-.153 0-.277-.122-.277-.27v-2.18zm-2.082 0c0-.148.124-.269.276-.269.152 0 .276.12.276.27v2.179c0 .148-.124.27-.276.27-.152 0-.276-.122-.276-.27v-2.18zm-2.056 0c0-.148.123-.269.276-.269.152 0 .276.12.276.27v2.179c0 .148-.124.27-.276.27-.153 0-.276-.122-.276-.27v-2.18zm-2.03 0c0-.148.123-.269.275-.269.153 0 .276.12.276.27v2.179c0 .148-.123.27-.276.27-.152 0-.276-.122-.276-.27v-2.18z" transform="translate(-909 -2486) translate(482 2190) translate(332 235) translate(95.286 61)"/>
                        <path fill="#FFF" d="M4.737 70.786h20.16c.304 0 .552-.24.552-.534V66.62c0-.294-.248-.534-.553-.534H4.736c-.304 0-.552.24-.552.534v3.63c0 .295.248.535.553.535" transform="translate(-909 -2486) translate(482 2190) translate(332 235) translate(95.286 61)"/>
                        <path fill="#404D61" d="M24.896 71.055H4.736c-.226 0-.434-.09-.584-.235-.15-.146-.245-.347-.245-.568V66.62c0-.222.094-.423.245-.569.15-.144.358-.234.585-.234h20.16c.217 0 .416.083.565.218l.02.016c.15.146.243.347.243.569v3.63c0 .222-.093.423-.244.569-.15.145-.358.235-.585.235m-20.16-.539h20.16c.077 0 .147-.03.197-.077.05-.048.08-.114.08-.187V66.62c0-.072-.03-.138-.08-.186l-.01-.01c-.05-.043-.115-.069-.187-.069H4.736c-.076 0-.146.03-.196.078v.001c-.05.048-.08.114-.08.186v3.63c0 .074.03.14.08.188.05.048.12.077.197.077" transform="translate(-909 -2486) translate(482 2190) translate(332 235) translate(95.286 61)"/>
                        <path fill="#404D61" d="M23.042 67.347c0-.149.124-.27.276-.27.153 0 .277.121.277.27v2.179c0 .149-.124.27-.277.27-.152 0-.276-.121-.276-.27v-2.18zm-2.226 0c0-.149.124-.27.277-.27.152 0 .276.121.276.27v2.179c0 .149-.124.27-.276.27-.153 0-.277-.121-.277-.27v-2.18zm-2.195 0c0-.149.124-.27.276-.27.153 0 .277.121.277.27v2.179c0 .149-.124.27-.277.27-.152 0-.276-.121-.276-.27v-2.18zm-2.166 0c0-.149.124-.27.276-.27.153 0 .276.121.276.27v2.179c0 .149-.123.27-.276.27-.152 0-.276-.121-.276-.27v-2.18zm-2.138 0c0-.149.124-.27.277-.27.152 0 .276.121.276.27v2.179c0 .149-.124.27-.276.27-.153 0-.277-.121-.277-.27v-2.18zm-2.11 0c0-.149.124-.27.277-.27.152 0 .276.121.276.27v2.179c0 .149-.124.27-.276.27-.153 0-.276-.121-.276-.27v-2.18zm-2.082 0c0-.149.124-.27.276-.27.153 0 .276.121.276.27v2.179c0 .149-.123.27-.276.27-.152 0-.276-.121-.276-.27v-2.18zm-2.056 0c0-.149.124-.27.276-.27.153 0 .276.121.276.27v2.179c0 .149-.123.27-.276.27-.152 0-.276-.121-.276-.27v-2.18zm-2.03 0c0-.149.123-.27.276-.27.152 0 .276.121.276.27v2.179c0 .149-.124.27-.276.27-.153 0-.277-.121-.277-.27v-2.18z" transform="translate(-909 -2486) translate(482 2190) translate(332 235) translate(95.286 61)"/>
                        <path fill="#FFF" d="M27.17 64.505c.562-.013.865-.221 1.27-.183.405.039.845.324 1.244.403.548.117.894-.015 1.277.116.384.131.74.51 1.108.679.503.24.871.192 1.211.407.34.216.593.667.908.915.429.35.798.388 1.075.676.277.289.41.784.654 1.099.33.438.68.56.877.904.197.344.204.856.363 1.217.212.503.52.702.627 1.082.106.379-.014.877.05 1.265.082.537.332.802.342 1.195.009.393-.232.849-.265 1.24-.054.54.123.856.035 1.239-.089.383-.435.77-.565 1.143-.186.512-.092.86-.273 1.211-.18.352-.613.648-.831.98-.308.453-.302.812-.566 1.112-.262.3-.756.488-1.05.76-.41.369-.495.718-.824.949-.33.23-.855.298-1.208.494-.49.264-.659.584-1.036.732-.377.147-.904.092-1.295.2-.542.143-.784.415-1.187.471-.403.057-.9-.119-1.308-.104-.561.013-.864.222-1.27.183-.404-.038-.844-.324-1.243-.403-.548-.117-.894.015-1.277-.116-.384-.131-.74-.51-1.108-.679-.503-.24-.871-.192-1.211-.407-.34-.216-.593-.666-.908-.915-.429-.35-.798-.388-1.075-.676-.277-.289-.41-.784-.654-1.099-.33-.438-.68-.56-.877-.904-.197-.344-.204-.856-.363-1.217-.212-.503-.52-.702-.627-1.082-.106-.379.014-.877-.05-1.265-.082-.537-.332-.802-.342-1.195-.009-.393.232-.849.265-1.24.054-.54-.123-.855-.035-1.239.089-.383.435-.77.565-1.143.186-.512.092-.859.273-1.211.18-.352.613-.648.831-.98.308-.453.302-.812.566-1.112.262-.3.756-.487 1.05-.76.41-.368.495-.718.824-.949.33-.23.855-.298 1.208-.494.49-.264.659-.584 1.036-.732.377-.147.904-.092 1.295-.2.542-.143.784-.415 1.187-.471.403-.057.9.12 1.308.104" transform="translate(-909 -2486) translate(482 2190) translate(332 235) translate(95.286 61)"/>
                        <path fill="#404D61" d="M27.918 64.659c-.204.05-.428.106-.734.114h-.004c-.208.008-.423-.026-.638-.06-.228-.035-.458-.071-.64-.046-.16.022-.303.097-.464.18-.187.097-.394.205-.68.281l-.006.002c-.202.056-.419.073-.637.09-.23.018-.464.036-.632.102-.149.058-.27.164-.405.282-.16.14-.336.293-.6.436-.184.1-.387.166-.592.232-.22.07-.44.142-.588.245-.13.091-.221.222-.323.367-.12.172-.252.36-.476.562-.152.14-.334.25-.518.362-.195.12-.392.24-.51.374-.099.113-.155.255-.215.413l-.006.016c-.073.195-.155.409-.323.656-.114.172-.263.322-.414.473-.16.161-.321.323-.401.479-.07.136-.088.293-.108.469-.024.206-.05.433-.151.711-.066.187-.17.364-.277.542l-.008.014c-.115.193-.232.389-.271.557-.035.15-.013.306.01.48.028.201.058.423.032.708l-.001.013c-.017.2-.078.404-.14.61-.064.212-.128.427-.125.602.004.152.064.3.13.465.079.192.165.404.209.698.033.2.024.408.015.619-.01.222-.019.447.028.615.041.147.136.276.242.42.121.167.256.35.37.62l.004.006c.081.186.125.393.169.601.044.212.09.426.173.579l.007.012c.078.135.2.237.338.352.16.134.337.282.514.515l.005.006c.124.16.218.351.312.544.099.2.198.403.323.533.108.113.254.185.416.265.191.094.402.198.635.388.16.128.297.29.435.453.146.173.293.347.446.443.132.084.292.12.47.161.206.047.432.099.707.229.192.088.366.214.54.34.185.135.371.27.543.329.151.051.315.05.498.048.215-.002.453-.005.747.058.203.041.402.123.602.206.213.087.428.176.609.193.157.015.317-.025.496-.07.204-.05.428-.106.734-.114h.004c.208-.008.423.026.638.06.228.035.458.072.64.046.16-.022.303-.097.464-.18.187-.097.394-.205.68-.281l.006-.002c.202-.056.419-.073.637-.09.231-.018.464-.036.632-.102.149-.058.27-.164.405-.282.16-.14.336-.293.6-.435.184-.102.387-.167.592-.233.22-.07.44-.142.588-.245.13-.091.221-.221.323-.367.12-.172.252-.36.476-.562.143-.131.32-.24.498-.35l.02-.012c.195-.12.392-.24.51-.373.098-.113.154-.253.213-.41l.007-.021c.074-.193.155-.406.324-.655.114-.172.264-.322.414-.473.16-.16.322-.323.401-.479.07-.136.088-.293.108-.468.024-.206.05-.434.151-.712.07-.196.177-.375.285-.556.115-.193.232-.389.271-.557.035-.15.013-.306-.01-.48-.028-.201-.058-.423-.032-.708l.001-.013c.017-.2.078-.404.14-.61.064-.212.128-.427.125-.602-.004-.151-.064-.3-.13-.465-.079-.192-.165-.404-.21-.698-.031-.2-.023-.408-.014-.619.01-.222.019-.447-.028-.615-.041-.146-.136-.276-.242-.42-.121-.167-.256-.35-.37-.62l-.004-.006c-.081-.186-.125-.393-.169-.6-.044-.213-.09-.426-.173-.58l-.007-.011c-.078-.135-.2-.238-.338-.353-.16-.134-.337-.282-.514-.515l-.005-.006c-.124-.16-.218-.351-.312-.544-.099-.2-.198-.403-.323-.532-.108-.114-.253-.185-.416-.266-.191-.094-.402-.198-.635-.388-.16-.128-.297-.29-.435-.453-.146-.173-.293-.347-.446-.443-.132-.084-.292-.12-.47-.161-.207-.047-.434-.1-.707-.229-.192-.088-.366-.214-.54-.34-.185-.135-.371-.27-.543-.328-.15-.052-.315-.05-.498-.049-.215.003-.453.005-.747-.058-.203-.041-.402-.123-.602-.206-.213-.087-.428-.176-.609-.193-.158-.015-.317.025-.496.07zm-.748-.423c.236-.006.433-.055.612-.1.225-.055.427-.105.684-.08.265.024.519.129.77.232.176.072.35.144.503.174h.003c.241.052.443.05.626.048.234-.002.443-.005.684.077.25.086.47.246.689.404.153.111.306.222.444.286l.009.004c.214.102.411.146.59.187.228.051.43.098.646.234.223.141.398.348.57.553.121.142.24.284.362.38l.003.002c.186.151.366.24.53.32.208.104.395.196.569.377.18.189.3.43.417.67.08.164.161.328.256.45l.008.011c.141.186.292.312.429.426.178.15.336.282.46.499l.01.017c.122.221.176.476.23.729.038.18.075.358.136.497l.005.012c.09.212.206.37.311.513.135.185.256.35.324.591.07.25.058.515.047.777-.007.185-.015.368.01.516v.004c.035.23.11.413.177.579.085.21.16.397.167.648v.003c.005.257-.071.512-.147.763-.053.176-.105.351-.118.502l-.002.022c-.021.226.005.415.028.587.03.225.058.425.003.668-.06.254-.197.483-.332.71-.097.162-.193.322-.24.46l-.002.004c-.08.22-.103.415-.123.591-.025.225-.048.426-.164.65-.119.232-.31.424-.499.614-.133.133-.265.266-.346.39l-.003.004c-.13.194-.201.379-.265.546l-.009.02c-.078.205-.15.39-.311.573-.173.197-.406.34-.637.48l-.02.01c-.153.094-.303.188-.413.289l-.003.003c-.178.16-.291.322-.394.469-.131.188-.25.357-.457.502-.215.15-.477.235-.736.318-.183.06-.364.118-.496.19l-.003.003c-.215.115-.364.245-.5.364-.173.152-.33.288-.566.381-.248.097-.522.119-.794.14-.19.014-.38.03-.529.07l-.011.004c-.233.062-.408.153-.568.235-.207.108-.392.204-.644.24-.262.036-.534-.007-.804-.05-.189-.029-.377-.058-.533-.052h-.009c-.236.006-.433.055-.612.1-.225.055-.427.106-.684.081-.265-.025-.519-.13-.77-.233-.176-.072-.35-.144-.503-.174h-.003c-.241-.052-.443-.05-.626-.048-.234.003-.443.005-.684-.077-.25-.086-.47-.246-.689-.404-.153-.111-.306-.222-.444-.286l-.009-.004c-.213-.1-.411-.146-.59-.187-.228-.051-.43-.097-.646-.234-.223-.141-.398-.348-.57-.553-.121-.142-.24-.284-.362-.38l-.003-.002c-.186-.151-.366-.24-.53-.32-.208-.104-.395-.196-.569-.377-.18-.188-.3-.43-.417-.67-.081-.164-.161-.328-.256-.45l-.008-.011c-.141-.186-.292-.312-.429-.426-.177-.149-.336-.282-.46-.498l-.01-.018c-.122-.221-.176-.476-.23-.729-.038-.18-.075-.358-.136-.497l-.005-.012c-.09-.212-.206-.37-.311-.513-.135-.185-.256-.35-.323-.591-.07-.25-.06-.515-.048-.777.007-.185.015-.368-.01-.516v-.004c-.035-.23-.11-.413-.177-.578-.085-.21-.16-.398-.167-.65v-.002c-.005-.257.071-.511.147-.763.053-.176.105-.351.118-.502l.002-.022c.021-.226-.005-.415-.028-.587-.03-.224-.058-.425-.003-.668.06-.254.196-.483.332-.71l.01-.014c.092-.155.183-.31.23-.447l.002-.003c.08-.221.103-.415.123-.591.025-.225.048-.426.164-.65.119-.232.31-.424.499-.613.133-.134.265-.267.346-.391l.003-.004c.132-.195.202-.379.265-.545l.007-.017c.079-.207.152-.392.313-.577.173-.197.406-.34.637-.48.162-.099.322-.197.433-.299l.003-.003c.177-.16.29-.322.394-.469.131-.188.25-.356.457-.502.215-.15.477-.235.736-.318.183-.059.364-.118.496-.19l.003-.003c.215-.115.364-.245.5-.364.174-.152.33-.288.566-.381.248-.097.522-.118.794-.14.19-.014.38-.029.529-.07l.011-.004c.233-.062.408-.153.567-.235.208-.108.393-.204.645-.24.262-.036.534.007.804.05.189.029.377.058.533.052h.009z" transform="translate(-909 -2486) translate(482 2190) translate(332 235) translate(95.286 61)"/>
                        <path fill="#404D61" d="M35.999 74.338l.002.03c.068 2.26-.817 4.334-2.303 5.863-1.49 1.533-3.585 2.518-5.933 2.59-.153 0-.276.122-.276.27 0 .149.123.27.276.27v-.001h.009c2.502-.077 4.735-1.125 6.323-2.759 1.584-1.628 2.526-3.839 2.454-6.247v-.016c0-.149-.123-.27-.276-.27-.152 0-.276.121-.276.27m-13.803 6.71c.12.092.14.26.046.378-.094.116-.267.137-.387.045-1.027-.787-1.876-1.787-2.473-2.933-.574-1.102-.915-2.34-.958-3.655-.08-2.418.864-4.638 2.453-6.272 1.588-1.634 3.821-2.682 6.324-2.759h.003c1.272-.038 2.49.178 3.604.602 1.156.44 2.2 1.104 3.07 1.939.108.104.11.274.003.38-.106.105-.28.107-.389.003-.817-.784-1.797-1.408-2.885-1.822-1.046-.398-2.192-.601-3.387-.565h-.002c-2.351.072-4.45 1.057-5.942 2.592-1.491 1.533-2.376 3.617-2.302 5.885.04 1.233.36 2.395.9 3.43.56 1.074 1.356 2.012 2.322 2.752" transform="translate(-909 -2486) translate(482 2190) translate(332 235) translate(95.286 61)"/>
                        <path fill="#404D61" d="M27.916 69.51c.55.087 1.042.357 1.4.745.352.38.576.875.603 1.42l.02.405-.844.039-.02-.404c-.02-.413-.213-.78-.507-1.037-.293-.257-.688-.407-1.113-.387l-.364.017c-.425.02-.803.205-1.07.488-.267.284-.422.667-.402 1.079.007.148.136.262.288.255.152-.007.27-.133.262-.28-.013-.263.087-.508.258-.69.172-.183.416-.303.69-.316l.364-.016c.274-.013.528.084.718.25.189.166.313.4.326.662l.033.673c.007.148.136.262.288.255l1.394-.064c.152-.007.27-.133.262-.281l-.033-.673c-.034-.676-.31-1.286-.743-1.754-.44-.478-1.044-.81-1.721-.917-.15-.024-.292.076-.316.222-.025.147.077.285.227.308m-1.954 5.173c-.332-.197-.612-.47-.812-.796-.192-.312-.31-.673-.33-1.06l-.045-.912c-.027-.547.147-1.06.459-1.47.319-.42.78-.734 1.32-.871.128-.033.211-.149.205-.273l-.045-.912 1.201-.056c.152-.006.27-.132.262-.28-.007-.149-.136-.263-.288-.256l-1.476.068c-.152.007-.27.133-.262.281l.048.972c-.57.192-1.06.548-1.407 1.007-.385.507-.6 1.14-.567 1.815l.045.912c.024.479.17.925.407 1.311.246.4.591.736 1 .979.13.077.299.036.378-.09.078-.127.037-.292-.093-.369m2.573 6.13l-1.202.055-.045-.912c-.006-.129-.105-.232-.23-.252h-.002c-.55-.088-1.04-.358-1.399-.746-.351-.38-.575-.874-.602-1.42l-.02-.405.844-.039.02.405c.02.412.213.779.507 1.036.293.257.688.407 1.113.387l.364-.016c.425-.02.803-.206 1.07-.489.266-.284.422-.666.401-1.078l-.046-.935c-.027-.403-.218-.76-.505-1.013-.29-.255-.68-.404-1.1-.388l-.378.018c-.152.006-.27.132-.262.28.007.149.136.263.288.256l.365-.017c.274-.012.528.085.718.25.184.163.306.39.324.645.022.306.031.621.046.929.013.263-.086.507-.258.69-.172.182-.416.302-.69.315l-.363.017c-.274.012-.529-.084-.718-.25-.189-.166-.313-.4-.326-.663l-.033-.672c-.008-.149-.137-.263-.288-.256l-1.395.064c-.152.007-.269.133-.262.281l.034.673c.033.676.31 1.286.742 1.755.392.425.914.734 1.501.873l.049.97c.007.149.136.263.288.256l1.476-.068c.152-.007.27-.133.262-.28-.007-.149-.136-.263-.288-.257M30.2 77.3c-.008-.149.11-.274.262-.281.151-.007.28.107.288.255.033.675-.182 1.308-.567 1.815-.391.516-.96.902-1.623 1.071-.148.038-.298-.049-.336-.192-.038-.143.05-.29.198-.327.538-.137 1-.452 1.319-.872.312-.41.486-.923.459-1.47m-4.535-4.512c-.007-.148.11-.274.262-.28.152-.007.281.107.289.255.012.262.136.497.325.662.19.166.444.263.718.25l.365-.016c.81-.038 1.56.247 2.118.736.558.49.924 1.185.962 1.97.008.147-.11.273-.262.28-.151.007-.28-.107-.288-.256-.031-.633-.328-1.197-.781-1.595-.454-.398-1.065-.63-1.723-.599l-.365.017c-.425.02-.82-.13-1.113-.387-.294-.258-.486-.624-.507-1.037" transform="translate(-909 -2486) translate(482 2190) translate(332 235) translate(95.286 61)"/>
                    </g>
                </g>
            </g>
        </g>
    </g>
</svg>
