<svg xmlns="http://www.w3.org/2000/svg" xmlns:xlink="http://www.w3.org/1999/xlink" width="149" height="50" viewBox="0 0 149 50">
    <defs>
        <path id="c108fhi8va" d="M0 0L110.818 0 110.818 37.093 0 37.093z"/>
        <path id="kn39b8fd4c" d="M0 50L149 50 149 0 0 0z"/>
    </defs>
    <g fill="none" fill-rule="evenodd">
        <g>
            <g>
                <g>
                    <g>
                        <g transform="translate(-1483 -3630) translate(0 2839) translate(482 194) translate(970) translate(31 597)">
                            <g>
                                <mask id="bwju3lk45b" fill="#fff">
                                    <use xlink:href="#c108fhi8va"/>
                                </mask>
                                <path fill="#044DA1" d="M97.273 22.441c19.672-10.18 17.209-19.91-2.809-21.917-21.57-2.164-53.082 2.519-75.038 11.471l-3.044 1.318c-22.867 10.323-20.702 21.246-.289 23.24 22.303 2.18 56.208-2.272 78.408-12.71l2.772-1.402z" mask="url(#bwju3lk45b)"/>
                            </g>
                            <path fill="#FEFEFE" d="M93.026 24.436s-3.757.307-3.847-2.752v-5.918s-.466-3.261 3.745-3.261c0 0 2.74-.09 3.464 1.553 0 0 .357.439.263 2.255H93.73v-.93s-.004-.752-.762-.752c0 0-.791.034-.791.663v6.12s-.034.821.857.821c0 0 .732-.017.732-.88v-1.77h-.796v-1.648h3.75v3.476s-.008.732-.31 1.159c0 0-.305.466-.42.553 0 0-1.01 1.311-2.964 1.311M85.297 12.947L82.375 12.947 82.583 19.727 82.457 19.727 79.492 12.949 75.947 12.949 75.947 24.122 78.834 24.122 78.66 17.289 78.79 17.289 81.858 24.122 85.297 24.122zM67.2 12.899h-3.164v8.38s-.325 3.171 4.108 3.171c0 0 3.853.047 3.853-3.024V12.9h-3.093v8.424s.043.923-.804.923c0 0-.89.046-.89-.9L67.2 12.9zM60.4 16.358l-.006-1.4s.223-2.296-3.43-2.397c0 0-2.876-.191-3.7 1.372 0 0-.323.35-.323 1.564v.878s-.033 1.012.48 1.665c0 0 .29.427 1.002.899 0 0 1.448.788 2.317 1.238 0 0 .878.506.762 1.31 0 0-.071.826-.918.793 0 0-.775-.035-.775-.845v-.951h-3.104v1.38s-.087 2.643 3.901 2.643c0 0 3.81.079 3.988-2.71V20.67s.135-1.708-1.348-2.608c0 0-.79-.496-1.28-.685 0 0-1.515-.71-1.816-1.048 0 0-.59-.563-.245-1.214 0 0 .145-.428.768-.428 0 0 .813.045.813.721v.95H60.4zM37.335 12.946L37.091 24.12 39.972 24.122 40.006 15.701 40.233 15.701 41.76 24.119 44.791 24.119 46.3 15.704 46.499 15.704 46.569 24.12 49.465 24.12 49.154 12.946 44.336 12.946 43.36 19.062 43.133 19.062 42.2 12.946zM33.998 24.109L32.082 12.936 27.187 12.936 25.271 24.109 28.371 24.109 29.506 15.445 29.762 15.445 30.896 24.109zM22.229 16.358l-.006-1.4s.223-2.296-3.431-2.397c0 0-2.875-.191-3.699 1.372 0 0-.324.35-.324 1.564v.878s-.033 1.012.48 1.665c0 0 .289.427 1.002.899 0 0 1.45.788 2.317 1.238 0 0 .878.506.762 1.31 0 0-.07.826-.917.793 0 0-.775-.035-.775-.845v-.951h-3.105v1.38s-.086 2.643 3.902 2.643c0 0 3.81.079 3.988-2.71V20.67s.135-1.708-1.348-2.608c0 0-.791-.496-1.28-.685 0 0-1.516-.71-1.817-1.048 0 0-.59-.563-.246-1.214 0 0 .146-.428.77-.428 0 0 .813.045.813.721v.95h2.914z"/>
                            <mask id="cia5433qdd" fill="#fff">
                                <use xlink:href="#kn39b8fd4c"/>
                            </mask>
                            <path fill="#044DA1" d="M138.431 35.919L147.834 35.919 147.834 34.279 138.431 34.279zM133.23 49.486L135.125 49.486 135.125 33.701 133.23 33.701z" mask="url(#cia5433qdd)"/>
                            <path fill="#044DA1" d="M138.25 42.358L140.144 42.358 140.144 34.277 138.25 34.277zM140.145 42.358L140.145 40.718 147.919 40.716 147.919 42.356zM124.876 40.591L130.269 40.591 130.269 38.951 124.876 38.951zM133.658 40.591L136.755 40.591 136.755 38.951 133.658 38.951zM137.557 47.904L149 47.904 149 46.264 137.557 46.264zM107.072 34.087L107.072 42.182 109.004 42.182 109.004 39.164 110.716 39.164 110.716 37.508 109.041 37.508 109.041 34.087zM99.783 49.467h9.257v-6.623h-9.257v6.623zm1.891-1.618h5.475V44.46h-5.475v3.39zM122.378 34.087L122.378 42.182 120.446 42.182 120.446 38.466 117.932 38.466 117.932 36.809 120.41 36.809 120.41 34.087zM117.567 50c-2.874 0-5.205-1.77-5.205-3.956 0-2.184 2.33-3.955 5.205-3.955s5.206 1.771 5.206 3.955c0 2.185-2.33 3.956-5.206 3.956m3.238-3.956c0-1.22-1.45-2.209-3.238-2.209-1.787 0-3.237.99-3.237 2.21s1.45 2.21 3.237 2.21c1.788 0 3.238-.99 3.238-2.21M102.426 34.382s-.258 4.377 3.255 6.192l-1.01 1.41s-2.574-1.715-3.156-3.592c-.584 1.877-3.157 3.591-3.157 3.591l-1.01-1.409c3.513-1.815 3.256-6.192 3.256-6.192h1.822zM114.605 38.392c-.583 1.877-2.942 3.445-2.942 3.445l-1.01-1.407c3.3-1.67 3.04-6.049 3.04-6.049h1.823s-.258 4.378 3.04 6.049l-1.01 1.407s-2.358-1.568-2.941-3.445" mask="url(#cia5433qdd)"/>
                            <path fill="#044DA1" d="M125.087 34.538v1.59h4.886s.284 7.193-5.442 9.34l.781 1.58s6.813-1.789 6.435-12.508l-6.66-.002z" mask="url(#cia5433qdd)"/>
                        </g>
                    </g>
                </g>
            </g>
        </g>
    </g>
</svg>
