<svg xmlns="http://www.w3.org/2000/svg" xmlns:xlink="http://www.w3.org/1999/xlink" width="135" height="30" viewBox="0 0 135 30">
    <defs>
        <path id="h0lyxkimya" d="M0 0.525L27.582 0.525 27.582 28.1 0 28.1z"/>
    </defs>
    <g fill="none" fill-rule="evenodd">
        <g>
            <g>
                <g>
                    <g>
                        <path fill="#00346A" d="M128.477 6.135L128.477 17.042 131.871 17.042 131.871 12.737 134.611 12.737 134.611 9.826 131.871 9.826 131.871 6.135z" transform="translate(-1259 -3067) translate(0 2839) translate(482 194) translate(777 34)"/>
                        <g>
                            <path fill="#00346A" d="M125.39 25.537c1.646 0 2.973-1.232 2.973-2.8 0-1.571-1.327-2.77-2.973-2.77-1.639 0-2.905 1.199-2.905 2.77 0 1.568 1.266 2.8 2.905 2.8m-6.288-2.8c0-3.068 2.685-5.586 6.326-5.586 3.626 0 6.316 2.518 6.316 5.585 0 3.071-2.69 5.613-6.316 5.613-3.64 0-6.326-2.542-6.326-5.613M117.322 6.036c-.019 3.067-.17 5.588-4.659 7.686l1.635 2.497c1.934-.556 4.117-2.24 4.948-3.744.84 1.504 3.017 3.188 4.952 3.744l1.633-2.497c-4.487-2.098-4.642-4.619-4.657-7.686h-3.852zM80.181 11.187L78.389 11.187 78.389 6.074 75.189 6.074 75.189 28.118 78.389 28.118 78.389 14.398 80.181 14.398 80.181 28.118 83.477 28.118 83.477 6.074 80.181 6.074zM105.833 11.187L104.285 11.187 104.285 6.074 101.047 6.074 101.047 28.118 104.285 28.118 104.285 14.398 105.833 14.398 105.833 28.118 109.165 28.118 109.165 6.074 105.833 6.074zM45.133 20.522L48.62 20.522 48.62 24.898 59.002 24.898 59.002 27.752 45.133 27.752zM55.624 17.713L53.048 17.713 53.048 14.878 55.624 14.878 55.624 12.979 53.046 12.979 53.046 10.14 55.624 10.14 55.624 6.063 59.018 6.063 59.018 22.278 55.624 22.278zM96.724 13.27c0 1.169-1.007 2.312-2.311 2.312-1.303 0-2.306-1.143-2.306-2.311 0-1.178 1.003-2.316 2.306-2.316 1.304 0 2.311 1.138 2.311 2.316zm-4.022-8.176v1.758h-3.874v2.692h1.912c-1.145.769-1.812 2.228-1.812 3.781 0 2.684 2.308 4.97 5.492 4.97 3.185 0 5.487-2.286 5.487-4.97 0-1.553-.667-3.012-1.809-3.781h1.913V6.852h-3.87V5.094h-3.439zM48.42 13.05c0 1.173-1.007 2.193-2.311 2.193s-2.306-1.02-2.306-2.194c0-1.172 1.002-2.19 2.306-2.19s2.311 1.018 2.311 2.19zm-4.122-7.937v1.75h-4.307v2.693h2.4c-1.123.745-1.765 2.189-1.765 3.55 0 2.678 2.304 4.853 5.488 4.853 3.181 0 5.493-2.175 5.493-4.853 0-1.361-.649-2.805-1.764-3.55h2.393V6.863h-4.311v-1.75h-3.627zM74.026 17.948L68.484 17.948 68.484 9.59 73.041 9.59 73.041 6.695 65.025 6.695 65.025 20.851 74.026 20.851z" transform="translate(-1259 -3067) translate(0 2839) translate(482 194) translate(777 34) translate(0 .106)"/>
                            <g transform="translate(-1259 -3067) translate(0 2839) translate(482 194) translate(777 34) translate(0 .106)">
                                <mask id="09yhn62d9b" fill="#fff">
                                    <use xlink:href="#h0lyxkimya"/>
                                </mask>
                                <path fill="#F08700" d="M10.342 9.485c4.96 0 8.968-3.997 8.968-8.96h8.272l-.01 27.575H17.237V16.382h-6.894V28.1H-.001V.525h10.343v8.96z" mask="url(#09yhn62d9b)"/>
                            </g>
                        </g>
                    </g>
                </g>
            </g>
        </g>
    </g>
</svg>
