<svg xmlns="http://www.w3.org/2000/svg" xmlns:xlink="http://www.w3.org/1999/xlink" width="135" height="46" viewBox="0 0 135 46">
    <defs>
        <path id="rw71yvm8va" d="M0.435 0.448L27.807 0.448 27.807 27.9 0.435 27.9z"/>
        <path id="5ct37oh2jc" d="M0 0.074L44.024 0.074 44.024 36.656 0 36.656z"/>
        <path id="abegmtynte" d="M0 45.826L135 45.826 135 0.9 0 0.9z"/>
    </defs>
    <g fill="none" fill-rule="evenodd">
        <g>
            <g>
                <g>
                    <g transform="translate(-770 -3059) translate(0 2839) translate(482 194) translate(288 26)">
                        <path fill="#F2AD80" d="M49.491 25.738c-.741-7.24-8.987-13.174-18.418-13.253-9.43-.078-16.488 5.73-15.733 12.972.734 7.25 8.982 13.172 18.413 13.257 9.431.08 16.48-5.73 15.738-12.976m-31.199-1.816c-.642-5.836 5.481-10.52 13.671-10.46 8.195.063 15.361 4.852 16.002 10.692.644 5.84-5.476 10.515-13.672 10.46-8.193-.057-15.357-4.849-16-10.692"/>
                        <g transform="translate(13.5 17.926)">
                            <mask id="0x8y0vi43b" fill="#fff">
                                <use xlink:href="#rw71yvm8va"/>
                            </mask>
                            <path fill="#EB7B3E" d="M4.541 5.005c-5.4 5.64-5.484 14.323-.195 19.388 5.284 5.058 13.95 4.59 19.352-1.048 5.4-5.629 5.49-14.316.2-19.382C18.61-1.104 9.945-.638 4.54 5.005M21.755 20.94c-4.648 4.848-12.106 5.252-16.655.886C.541 17.476.622 10.01 5.272 5.159 9.921.302 17.375-.098 21.928 4.26c4.548 4.358 4.47 11.825-.173 16.68" mask="url(#0x8y0vi43b)"/>
                        </g>
                        <g transform="translate(0 .826)">
                            <mask id="u2gugroyjd" fill="#fff">
                                <use xlink:href="#5ct37oh2jc"/>
                            </mask>
                            <path fill="#E75514" d="M9.564 7.046C-.464 14.986-3.015 26.486 3.862 32.73c6.874 6.246 20.575 4.898 30.598-3.052 10.025-7.936 12.58-19.438 5.7-25.685-6.874-6.247-20.575-4.88-30.596 3.052m8.97-3.105c9.661-3.625 19.217.041 21.337 8.179 2.126 8.142-3.983 17.671-13.646 21.288-9.664 3.643-19.216-.046-21.338-8.174C2.76 17.094 8.871 7.559 18.535 3.94" mask="url(#u2gugroyjd)"/>
                        </g>
                        <path fill="#231815" d="M132.396 14.329L132.396 16.677 129.896 16.677 129.896 18.42 132.396 18.42 132.396 19.494 129.896 19.494 129.896 21.247 132.396 21.247 132.396 23.943 135 23.943 135 14.329zM121.391 16.35h5.25v5.218h-4.183c-.872 0-1.073-.742-1.067-1.122V16.35zm6.369-1.844h-8.853v5.969c-.006.3.198 2.934 3.35 2.934h6.878l-.001-7.677c.005-.294-.003-1.226-1.374-1.226zM109.465 31.536c-1.7 0-3.082-1.2-3.082-2.844 0-1.649 1.382-2.847 3.082-2.847 1.707 0 3.087 1.198 3.087 2.847 0 1.643-1.38 2.844-3.087 2.844m.01-7.494c-3.079 0-5.575 2.085-5.575 4.663 0 2.568 2.496 4.666 5.574 4.666 3.08 0 5.575-2.098 5.575-4.666 0-2.578-2.496-4.663-5.575-4.663M112.952 14.329L112.952 17.907 111.702 17.907 111.702 14.329 109.607 14.329 109.607 23.756 111.702 23.756 111.702 19.815 112.952 19.815 112.952 23.756 115.049 23.756 115.049 14.329zM104.753 18.587c-.072-.22-.175-.46-.203-.714-.173-1.252 0-3.37 0-3.37h-2.617s.136 2.354-.015 3.254c-.052.293-.127.575-.21.83-.416 1.273-1.838 3.224-3.784 3.321v1.826c3.346-.029 5.048-2.498 5.304-3.07.26.572 1.958 3.057 5.302 3.085v-1.841c-1.946-.097-3.367-2.048-3.777-3.321M129.42 31.536c-1.704 0-3.087-1.2-3.087-2.844 0-1.649 1.383-2.847 3.086-2.847 1.706 0 3.084 1.198 3.084 2.847 0 1.643-1.378 2.844-3.084 2.844m.006-7.494c-3.076 0-5.573 2.085-5.573 4.663 0 2.568 2.497 4.666 5.573 4.666 3.08 0 5.574-2.098 5.574-4.666 0-2.578-2.494-4.663-5.574-4.663M75.898 20.62v-1.988h-2.661v-4.3h-2.6v12.693h2.6v-6.404h2.661zM73.237 30.713H63.47c-.558-.002-.949-.192-1.244-.53-.379-.425-.425-.971-.42-1.637v-1.903H59.2v2.918c-.002.782.191 3.121 3.504 3.136h10.533v-1.984z"/>
                        <mask id="sjp6hhoy4f" fill="#fff">
                            <use xlink:href="#abegmtynte"/>
                        </mask>
                        <path fill="#231815" d="M59.313 15.178L65.248 15.178 65.248 13.486 59.313 13.486zM62.32 23.947c-1.373-.005-2.46-1.01-2.456-2.247.006-1.24 1.103-2.112 2.477-2.109 1.37.005 2.476.889 2.471 2.124-.007 1.24-1.124 2.236-2.491 2.232m.015-5.97c-2.925 0-4.939 1.7-4.939 3.797 0 1.837 2.004 3.79 4.94 3.79 2.993 0 4.941-2.006 4.941-3.79 0-2.097-1.919-3.796-4.942-3.796M68.126 15.767H56.568v1.63h11.558v-1.63zM96.43 20.684h-2.654v-6.438h-2.62V25.71c0 1.246-.55 2.055-1.069 2.427-.938.637-2.879.637-2.879.637H84.23V25.64h-2.588v3.134h-4.693V30.8h10.355c.064 0 2.846 0 3.784-1.079.036-.034.068-.067.098-.1v3.705h2.59v-10.55h2.654v-2.09zM79.799 15.106L85.752 15.106 85.752 13.39 79.799 13.39z" mask="url(#sjp6hhoy4f)"/>
                        <path fill="#231815" d="M77.046 17.432L88.663 17.432 88.663 15.747 77.046 15.747zM82.807 18.058c-2.913 0-4.918 1.752-4.918 3.944 0 1.92 2.005 3.979 4.918 3.979v-1.688c-1.36-.034-2.492-1.079-2.46-2.36 0-1.282 1.1-2.191 2.46-2.191v-1.684zm.032 0h-.032v1.684h.032c1.36 0 2.46.909 2.46 2.191 0 1.314-1.1 2.326-2.492 2.36v1.688h.032c2.978 0 4.95-2.127 4.95-3.98 0-2.19-1.94-3.943-4.95-3.943z" mask="url(#sjp6hhoy4f)"/>
                    </g>
                </g>
            </g>
        </g>
    </g>
</svg>
