<svg xmlns="http://www.w3.org/2000/svg" xmlns:xlink="http://www.w3.org/1999/xlink" width="123" height="34" viewBox="0 0 123 34">
    <defs>
        <path id="582krxizta" d="M0.109 0.648L23.021 0.648 23.021 23.558 0.109 23.558z"/>
        <path id="rzl1o70sac" d="M0.518 0.648L23.43 0.648 23.43 23.558 0.518 23.558z"/>
        <path id="tlmw4ayv3e" d="M0 0.648L22.929 0.648 22.929 32.4 0 32.4z"/>
    </defs>
    <g fill="none" fill-rule="evenodd">
        <g>
            <g>
                <g>
                    <g>
                        <path fill="#00578A" d="M95.936 16.048c-1.698 4.736-5.723 7.673-10.881 7.673-6.442 0-11.497-4.975-11.497-11.46 0-6.485 5.055-11.45 11.497-11.45 5.31 0 9.686 3.347 11.067 8.159.344 1.191-.091 1.324-.792 1.48-.712.153-1.769-.067-2.49-.482-.73-.408-1.77-1.96-1.77-1.96-1.317-1.988-3.466-3.246-6.015-3.246-4.093 0-7.359 3.402-7.359 7.5 0 4.051 3.266 7.494 7.359 7.494 2.707 0 5.056-1.509 6.333-3.705 0 0 .756-1.35 2.487-1.759 1.73-.392 2.15.194 2.15.194s.425.188-.089 1.562" transform="translate(-1021 -3065) translate(0 2839) translate(482 194) translate(539 32)"/>
                        <g transform="translate(-1021 -3065) translate(0 2839) translate(482 194) translate(539 32) translate(25.11 .162)">
                            <mask id="o1185gxctb" fill="#fff">
                                <use xlink:href="#582krxizta"/>
                            </mask>
                            <path fill="#00578A" d="M11.566.648C5.146.648.11 5.614.11 12.1c0 6.485 5.037 11.458 11.457 11.458 6.414 0 11.455-4.973 11.455-11.458C23.02 5.614 17.98.648 11.566.648m0 3.952c4.074 0 7.325 3.402 7.325 7.5 0 4.051-3.251 7.494-7.325 7.494-4.083 0-7.334-3.443-7.334-7.494 0-4.098 3.251-7.5 7.334-7.5" mask="url(#o1185gxctb)"/>
                        </g>
                        <g transform="translate(-1021 -3065) translate(0 2839) translate(482 194) translate(539 32) translate(98.01 .162)">
                            <mask id="5yen9dipnd" fill="#fff">
                                <use xlink:href="#rzl1o70sac"/>
                            </mask>
                            <path fill="#00578A" d="M11.976.648C5.563.648.518 5.614.518 12.1c0 6.485 5.045 11.458 11.458 11.458 6.417 0 11.454-4.973 11.454-11.458C23.43 5.614 18.393.648 11.976.648m0 3.952c4.077 0 7.33 3.402 7.33 7.5 0 4.051-3.253 7.494-7.33 7.494-4.078 0-7.331-3.443-7.331-7.494 0-4.098 3.253-7.5 7.331-7.5" mask="url(#5yen9dipnd)"/>
                        </g>
                        <path fill="#00578A" d="M65.972 14.344c1.315.058 1.657.7 1.194 1.857-.842 2.092-3.765 3.758-6.306 3.728-3.129-.041-4.696-1.62-5.883-2.867-1.21-1.261-3.407-1.28-4.118-1.012-.713.266-.38 1.35-.084 1.926 1.883 3.666 5.99 5.691 9.877 5.744 4.137.044 7.845-1.951 10.008-5.455 2.172-3.514 1.234-7.76-3.71-7.826l-11.193-.132c-1.634-.023-1.797-1.05-1.32-2.034C55.491 6.12 58.052 4.566 61 4.602c2.954.033 4.544 1.765 5.532 2.726 1.039 1.02 3.218 1.337 4.174.859.484-.24.457-.903.015-1.743C68.844 2.859 64.876.87 60.82.823c-3.464-.041-7.39 1.556-9.752 5.226-1.96 3.043-1.851 8.095 5.075 8.176l9.83.119z" transform="translate(-1021 -3065) translate(0 2839) translate(482 194) translate(539 32)"/>
                        <g transform="translate(-1021 -3065) translate(0 2839) translate(482 194) translate(539 32) translate(0 .162)">
                            <mask id="fa9iupzy0f" fill="#fff">
                                <use xlink:href="#tlmw4ayv3e"/>
                            </mask>
                            <path fill="#00578A" d="M11.471 19.555c-4.064 0-7.353-3.351-7.353-7.481s3.289-7.48 7.353-7.48c4.06 0 7.355 3.35 7.355 7.48 0 4.13-3.295 7.48-7.355 7.48M11.467.649C5.042.648.017 5.614.017 12.099v15.172s-.2 2.013.76 3.42c.672.976 1.598 1.671 2.616 1.709.725-.07.767-.97.767-.97V21.012c1.973 1.592 4.506 2.545 7.307 2.545 6.418 0 11.462-4.974 11.462-11.459 0-6.485-5.044-11.451-11.462-11.451" mask="url(#fa9iupzy0f)"/>
                        </g>
                    </g>
                </g>
            </g>
        </g>
    </g>
</svg>
