<svg xmlns="http://www.w3.org/2000/svg" xmlns:xlink="http://www.w3.org/1999/xlink" width="123" height="88" viewBox="0 0 123 88">
    <defs>
        <path id="nww2h64sba" d="M0.046 0.021L4.343 0.021 4.343 5.755 0.046 5.755z"/>
    </defs>
    <g fill="none" fill-rule="evenodd">
        <g>
            <g>
                <g>
                    <g>
                        <path fill="#FFF" d="M51.543 7.038c-.103-.057-.139-.185-.08-.284.06-.1.192-.135.296-.077L94.856 30.7c.104.057.14.185.08.285-.06.1-.192.134-.295.077L51.543 7.038z" transform="translate(-566 -2447) translate(482 2190) translate(0 195) translate(84.929 62)"/>
                        <path fill="#B8C6D7" d="M62.913 79.895L62.913 82.207 19.959 58.194 19.959 55.88z" transform="translate(-566 -2447) translate(482 2190) translate(0 195) translate(84.929 62)"/>
                        <path fill="#FFF" d="M49.794 39.28c0 .116-.097.21-.217.21s-.217-.094-.217-.21V8.014c0-.115.098-.21.217-.21.045 0 .087.014.121.036l43.086 24.018c.073.041.112.117.107.194v31.254c0 .115-.096.209-.216.209-.119 0-.216-.094-.216-.209V32.159L49.794 8.376V39.28z" transform="translate(-566 -2447) translate(482 2190) translate(0 195) translate(84.929 62)"/>
                        <path fill="#B8C6D7" d="M51.551 38.186L51.551 11.309 90.67 33.115 90.67 59.992z" transform="translate(-566 -2447) translate(482 2190) translate(0 195) translate(84.929 62)"/>
                        <path fill="#F4F6F8" d="M37.499 65.687l8.121 4.54v.53c0 .319-.203.467-.45.328l-7.22-4.024c-.248-.138-.451-.512-.451-.832v-.542z" transform="translate(-566 -2447) translate(482 2190) translate(0 195) translate(84.929 62)"/>
                        <path fill="#FFF" d="M49.47 39.461c-.104-.057-.14-.185-.08-.285.06-.1.191-.134.295-.076l43.098 24.024c.103.057.139.185.08.285-.06.1-.192.134-.295.077L49.47 39.46z" transform="translate(-566 -2447) translate(482 2190) translate(0 195) translate(84.929 62)"/>
                        <path fill="#404D61" d="M47.983 24.492c0 .116-.097.21-.216.21-.12 0-.216-.094-.216-.21v-8.975c0-.115.096-.208.216-.208.119 0 .216.093.216.208v8.975zm0 4.757c0 .115-.097.209-.216.209-.12 0-.216-.094-.216-.209v-1.403c0-.115.097-.209.216-.209.12 0 .216.094.216.209v1.403z" transform="translate(-566 -2447) translate(482 2190) translate(0 195) translate(84.929 62)"/>
                        <path fill="#6979F8" d="M90.67 59.992L51.551 38.186c.562-2.678 2.1-6.33 7.783-3.093 6.46 3.68 4.782-7.047 7.807-6.188 3.025.86 4.657 4.758 7.872 6.55 3.215 1.793 5.318-2.035 7.814-4.482 2.138-2.096 4.454-4.063 7.843-2.903v31.922z" transform="translate(-566 -2447) translate(482 2190) translate(0 195) translate(84.929 62)"/>
                        <path fill="#404D61" d="M51.765 38.222c-.02.114-.133.19-.251.17-.118-.02-.197-.128-.176-.242.186-1.015.492-1.91.931-2.628.425-.695.975-1.226 1.663-1.544.687-.317 1.503-.418 2.46-.255.89.153 1.905.536 3.053 1.19 2.296 1.309 3.488.695 4.236-.529.467-.764.778-1.77 1.07-2.711.555-1.79 1.044-3.368 2.451-2.968 1.703.483 2.954 1.868 4.272 3.326 1.08 1.195 2.208 2.441 3.647 3.244l.01.005c2.38 1.318 4.166-.706 5.999-2.784.508-.576 1.02-1.156 1.543-1.67l.052-.05c1.656-1.625 4.303-4.22 8.02-2.902.112.04.17.16.128.268-.04.109-.165.164-.278.124-3.455-1.225-5.98 1.252-7.562 2.803l-.052.05c-.523.514-1.025 1.082-1.522 1.647-1.95 2.21-3.851 4.365-6.54 2.878l-.015-.008c-1.5-.836-2.65-2.11-3.755-3.33-1.275-1.411-2.487-2.751-4.069-3.2-.993-.283-1.425 1.108-1.914 2.686-.299.965-.618 1.996-1.113 2.805-.87 1.426-2.237 2.153-4.829.676-1.1-.627-2.066-.993-2.907-1.137-.865-.148-1.594-.061-2.199.219-.605.28-1.093.754-1.476 1.38-.411.673-.7 1.52-.877 2.487" transform="translate(-566 -2447) translate(482 2190) translate(0 195) translate(84.929 62)"/>
                        <path fill="#FFF" d="M59.082 3.034c0-.115.097-.209.216-.209.12 0 .217.094.217.21v39.47c0 .115-.097.209-.217.209s-.216-.094-.216-.21V3.035zM66.924 7.406c0-.115.098-.209.217-.209.12 0 .217.094.217.21v39.47c0 .115-.097.209-.217.209s-.217-.094-.217-.21V7.407zM74.767 11.778c0-.115.097-.21.217-.21s.217.095.217.21v39.47c0 .116-.097.21-.217.21s-.217-.094-.217-.21v-39.47zM82.61 16.15c0-.115.097-.21.217-.21s.217.095.217.21v39.47c0 .116-.097.21-.217.21s-.217-.094-.217-.21V16.15z" transform="translate(-566 -2447) translate(482 2190) translate(0 195) translate(84.929 62)"/>
                        <path fill="#404D61" d="M51.444 38.367c-.104-.058-.14-.185-.08-.285.06-.1.191-.134.295-.077l39.119 21.807c.103.057.139.184.08.284-.06.1-.192.134-.296.077L51.444 38.367z" transform="translate(-566 -2447) translate(482 2190) translate(0 195) translate(84.929 62)"/>
                        <path fill="#F4F6F8" d="M74.984 36.28c.417.233.755.045.755-.42 0-.465-.338-1.03-.755-1.262-.416-.232-.754-.044-.754.42 0 .465.338 1.03.754 1.263" transform="translate(-566 -2447) translate(482 2190) translate(0 195) translate(84.929 62)"/>
                        <path fill="#404D61" d="M75.321 36.59c-.137 0-.288-.042-.444-.129-.243-.135-.46-.362-.614-.62-.154-.26-.25-.554-.25-.822 0-.173.04-.32.109-.437.055-.093.13-.166.22-.216.091-.05.194-.077.305-.077.138 0 .29.041.446.128.237.133.45.355.605.609l.007.011c.155.26.25.554.25.823 0 .172-.038.32-.108.436-.056.093-.13.166-.22.216-.091.051-.194.078-.306.078m-.23-.49c.087.048.165.07.23.07.035 0 .065-.006.088-.02.025-.013.046-.034.063-.063.032-.053.05-.13.05-.227 0-.195-.073-.416-.191-.613l-.007-.012c-.118-.193-.276-.36-.447-.456h-.001c-.086-.048-.164-.071-.229-.071-.035 0-.064.007-.088.02-.024.013-.045.035-.063.064-.031.053-.05.13-.05.227 0 .196.074.416.192.613.119.199.28.37.454.468" transform="translate(-566 -2447) translate(482 2190) translate(0 195) translate(84.929 62)"/>
                        <path fill="#F4F6F8" d="M82.827 31.815c.417.232.755.044.755-.421 0-.465-.338-1.03-.755-1.262-.417-.232-.754-.044-.754.42 0 .465.337 1.03.754 1.263" transform="translate(-566 -2447) translate(482 2190) translate(0 195) translate(84.929 62)"/>
                        <path fill="#404D61" d="M83.164 32.124c-.138 0-.29-.042-.445-.129-.238-.133-.451-.355-.605-.608l-.008-.012c-.155-.258-.25-.553-.25-.822 0-.173.039-.32.109-.437.055-.093.13-.166.22-.216.091-.05.194-.077.305-.077.134 0 .28.04.432.121l.014.007c.237.132.45.355.605.609l.007.011c.155.259.25.554.25.823 0 .172-.039.32-.108.436-.057.094-.132.167-.22.216-.092.051-.195.078-.306.078zm-.228-.49c.086.048.163.07.228.07.035 0 .065-.006.088-.02.025-.013.046-.034.063-.062v-.001c.032-.053.05-.13.05-.227 0-.196-.073-.416-.192-.613l-.006-.012c-.117-.193-.276-.36-.448-.456l-.01-.006c-.082-.044-.156-.065-.219-.065-.035 0-.065.007-.088.02-.024.013-.046.035-.063.064-.032.053-.05.13-.05.227 0 .195.074.415.192.613l.006.011c.118.194.276.361.448.457z" transform="translate(-566 -2447) translate(482 2190) translate(0 195) translate(84.929 62)"/>
                        <path fill="#F4F6F8" d="M67.141 29.746c.417.233.755.044.755-.42 0-.465-.338-1.03-.755-1.262-.416-.233-.754-.044-.754.42 0 .465.338 1.03.754 1.262" transform="translate(-566 -2447) translate(482 2190) translate(0 195) translate(84.929 62)"/>
                        <path fill="#404D61" d="M67.478 30.055c-.138 0-.29-.04-.445-.128-.238-.133-.451-.355-.605-.608l-.007-.012c-.155-.259-.251-.553-.251-.823 0-.165.036-.307.1-.421l.009-.015c.056-.093.13-.166.22-.216.091-.05.194-.077.305-.077.134 0 .28.039.432.12l.014.008c.237.132.45.355.605.608l.007.012c.155.259.25.554.25.823 0 .172-.038.32-.108.436-.057.094-.131.166-.22.216-.091.05-.194.077-.306.077zm-.228-.49c.086.049.164.071.228.071.035 0 .065-.007.088-.02.025-.013.047-.035.063-.063.032-.054.05-.13.05-.227 0-.196-.073-.416-.191-.614l-.007-.01c-.117-.194-.276-.361-.448-.457l-.01-.006c-.082-.044-.156-.065-.219-.065-.035 0-.064.007-.088.02-.024.013-.045.035-.063.064l-.005.007c-.028.053-.044.126-.044.22 0 .195.073.415.191.613l.006.01c.118.195.276.362.448.458z" transform="translate(-566 -2447) translate(482 2190) translate(0 195) translate(84.929 62)"/>
                        <path fill="#F4F6F8" d="M59.298 35.914c.417.232.755.044.755-.42 0-.465-.338-1.03-.755-1.262-.416-.233-.754-.045-.754.42 0 .465.338 1.03.754 1.262" transform="translate(-566 -2447) translate(482 2190) translate(0 195) translate(84.929 62)"/>
                        <path fill="#404D61" d="M59.635 36.223c-.138 0-.29-.041-.445-.128-.242-.135-.458-.363-.612-.62-.155-.26-.251-.554-.251-.823 0-.172.04-.32.109-.436.056-.093.13-.166.22-.216.091-.051.194-.077.305-.077.138 0 .29.04.445.128.242.135.46.362.613.62.155.26.25.554.25.823 0 .172-.038.32-.108.436-.052.087-.122.157-.206.207l-.015.009c-.09.05-.193.077-.305.077zm-.228-.49c.086.048.164.071.228.071.035 0 .065-.007.088-.02l.008-.004c.02-.013.04-.033.055-.06.032-.053.05-.129.05-.226 0-.196-.073-.417-.19-.614-.12-.199-.281-.37-.455-.468-.086-.048-.164-.07-.23-.07-.034 0-.064.006-.088.02-.024.013-.045.035-.063.063-.031.053-.05.13-.05.227 0 .196.074.417.192.614.119.199.28.37.454.467z" transform="translate(-566 -2447) translate(482 2190) translate(0 195) translate(84.929 62)"/>
                        <path fill="#404D61" d="M84.448 29.405c.103.058.138.186.078.286-.06.1-.192.134-.295.076L51.768 11.67v26.515c0 .116-.097.21-.217.21s-.217-.094-.217-.21V11.309c0-.036.01-.072.03-.105.06-.1.192-.134.296-.076l32.788 18.277zM90.471 28.08c0-.115.097-.209.216-.209.12 0 .216.094.216.209l-.017 31.912c0 .115-.097.209-.216.209-.12 0-.216-.094-.216-.209l.017-31.912z" transform="translate(-566 -2447) translate(482 2190) translate(0 195) translate(84.929 62)"/>
                        <path fill="#FFF" d="M20.79 55.569c-.104.057-.236.023-.295-.077-.06-.1-.024-.228.08-.285L49.47 39.1c.103-.058.235-.023.295.077.059.1.023.227-.08.284L20.79 55.57zm71.778 7.555c.103-.057.235-.023.294.077.06.1.024.227-.08.285L63.532 79.792c-.103.057-.236.023-.295-.077-.06-.1-.024-.227.08-.285l29.252-16.306zM49.685 8.194c-.103.058-.236.023-.295-.077-.06-.1-.024-.227.08-.284l2.073-1.156c.104-.058.236-.023.295.077.06.1.024.227-.08.284l-2.073 1.156zM92.783 32.219c-.104.057-.236.022-.295-.077-.06-.1-.024-.228.08-.285l2.073-1.156c.103-.057.236-.023.295.077.06.1.024.227-.08.285l-2.073 1.156z" transform="translate(-566 -2447) translate(482 2190) translate(0 195) translate(84.929 62)"/>
                        <path fill="#B8C6D7" d="M52.45 47.71l-2.944 1.641 3.572 1.99 2.943-1.64-3.571-1.99zm5.066 2.824l-2.943 1.641 3.572 1.991 2.943-1.64-3.572-1.992zm5.067 2.825l3.572 1.99-2.944 1.642L59.64 55l2.943-1.641zm5.067 2.824l-2.944 1.641 3.572 1.991 2.943-1.64-3.571-1.992zm5.067 2.825l-2.944 1.64 3.572 1.992 2.943-1.641-3.571-1.991zm5.066 2.824l3.572 1.991-2.944 1.64-3.571-1.99 2.943-1.64zM49.797 43.54l-1.471.82 3.571 1.991 1.472-.82-3.572-1.991zm5.067 2.824l3.572 1.991-1.472.82-3.572-1.99 1.472-.82zm5.067 2.825l3.572 1.99L62.03 52l-3.572-1.991 1.472-.82zm5.067 2.824l3.571 1.99-1.472.821-3.571-1.99 1.472-.821zm5.066 2.824l3.572 1.991-1.472.82-3.571-1.99 1.471-.82zm5.067 2.825l3.572 1.99-1.472.821-3.572-1.99 1.472-.821zm5.067 2.824l3.571 1.991-1.471.82-3.572-1.99 1.472-.82zM43.497 47.052l-2.944 1.64 3.572 1.992 2.943-1.641-3.571-1.991zm5.067 2.824l-2.944 1.641 3.571 1.991 2.944-1.64-3.571-1.992zm5.066 2.825l3.572 1.99-2.944 1.642-3.571-1.991L53.63 52.7zm5.067 2.824l-2.944 1.641 3.572 1.991 2.944-1.64-3.572-1.992zm5.067 2.825l3.571 1.99-2.943 1.641-3.572-1.99 2.944-1.641zm5.067 2.824l3.571 1.991-2.943 1.641-3.572-1.991 2.944-1.64zM73.897 64l-2.943 1.64 3.571 1.991 2.944-1.64-3.572-1.991zM39.61 49.219l-2.943 1.64 3.572 1.991 2.943-1.64-3.572-1.992zm5.067 2.824l3.572 1.99-2.944 1.642-3.571-1.991 2.943-1.641zm5.067 2.824L46.8 56.508l13.705 7.64 2.944-1.641-13.705-7.64zm15.2 8.473l-2.943 1.641 3.571 1.991 2.944-1.64-3.572-1.992zm5.067 2.825l3.571 1.99-2.943 1.642-3.572-1.991 2.944-1.641zm-22.628-21.28l3.571 1.992-2.943 1.64-3.572-1.99 2.944-1.641zm-.83 13.587l10.43 5.813-6.67 3.719-10.43-5.814 6.67-3.718z" transform="translate(-566 -2447) translate(482 2190) translate(0 195) translate(84.929 62)"/>
                        <path fill="#404D61" d="M92.458 63.305c0-.116.098-.21.217-.21.12 0 .217.094.217.21v2.312c0 .115-.097.21-.217.21s-.217-.095-.217-.21v-2.312z" transform="translate(-566 -2447) translate(482 2190) translate(0 195) translate(84.929 62)"/>
                        <path fill="#FFF" d="M92.568 65.436c.103-.057.235-.023.295.077.059.1.023.227-.08.285L63.531 82.104c-.103.057-.236.023-.295-.077-.06-.1-.024-.228.08-.285l29.252-16.306z" transform="translate(-566 -2447) translate(482 2190) translate(0 195) translate(84.929 62)"/>
                        <path fill="#404D61" d="M45.512 70.408c-.104-.058-.139-.186-.08-.286.06-.1.193-.134.297-.076l14.184 7.93c.103.057.139.185.079.285-.06.1-.193.134-.296.076l-14.184-7.93zm-22.306-12.47c-.103-.057-.139-.185-.079-.285.06-.1.193-.134.296-.076l14.184 7.93c.104.057.14.185.08.285-.06.1-.193.134-.297.076l-14.184-7.93z" transform="translate(-566 -2447) translate(482 2190) translate(0 195) translate(84.929 62)"/>
                        <path fill="#FFF" d="M29.831 14.466c-.103.058-.235.023-.295-.076-.06-.1-.024-.228.08-.285l5.116-2.852c.07-.039.151-.036.216 0l5.9 3.288c.103.058.138.186.078.286-.06.1-.192.134-.296.076l-5.79-3.228-5.009 2.791z" transform="translate(-566 -2447) translate(482 2190) translate(0 195) translate(84.929 62)"/>
                        <path fill="#6979F8" d="M28.94 14.722L34.84 18.011 34.84 41.578 33.127 40.623 33.127 26.402 28.94 24.068z" transform="translate(-566 -2447) translate(482 2190) translate(0 195) translate(84.929 62)"/>
                        <path fill="#FFF" d="M22.228 26.141c-.103.058-.235.023-.295-.077s-.024-.227.08-.284l5.107-2.847c.069-.038.151-.036.216 0l5.899 3.289c.103.057.139.185.079.285-.02.033-.048.059-.08.077L28.13 29.43c-.104.058-.236.024-.296-.076s-.025-.228.079-.286l4.782-2.666-5.467-3.047-4.999 2.786z" transform="translate(-566 -2447) translate(482 2190) translate(0 195) translate(84.929 62)"/>
                        <path fill="#B8C6D7" d="M21.328 26.402L27.227 29.691 27.227 45.822 25.206 44.695 25.206 40.371 21.328 38.209z" transform="translate(-566 -2447) translate(482 2190) translate(0 195) translate(84.929 62)"/>
                        <path fill="#FFF" d="M14.189 40.175c-.103.058-.236.023-.295-.076-.06-.1-.024-.228.08-.285l5.225-2.912c.069-.039.151-.036.216 0l5.9 3.288c.103.058.138.186.078.286-.02.033-.048.059-.08.076l-5.223 2.912c-.104.058-.236.024-.296-.076s-.025-.228.079-.285l4.9-2.732-5.467-3.048-5.117 2.852z" transform="translate(-566 -2447) translate(482 2190) translate(0 195) translate(84.929 62)"/>
                        <path fill="#6979F8" d="M13.407 40.371L19.306 43.66 19.306 50.237 13.407 46.948z" transform="translate(-566 -2447) translate(482 2190) translate(0 195) translate(84.929 62)"/>
                        <path fill="#FFF" d="M35.519 17.873c-.104.057-.236.023-.295-.077-.06-.1-.024-.227.08-.285l5.328-2.97c.103-.057.235-.023.295.077.02.033.028.069.028.104h.001V38.29c0 .084-.052.157-.126.19l-5.311 2.96c-.104.058-.236.023-.295-.076-.06-.1-.024-.228.08-.285l5.218-2.91V15.085l-5.003 2.789zM28.128 29.43c-.104.057-.236.023-.295-.077-.06-.1-.024-.227.08-.285l5.106-2.846c.104-.058.236-.023.295.077.02.032.029.068.029.103v16.13c0 .085-.051.158-.126.191l-5.09 2.837c-.103.058-.235.023-.294-.077-.06-.1-.024-.227.08-.284l4.997-2.786V26.764l-4.782 2.666zM20.089 43.464c-.104.057-.236.023-.295-.077-.06-.1-.024-.227.08-.285l5.224-2.912c.104-.057.236-.023.295.077.02.033.029.068.029.104v6.577c0 .085-.051.157-.126.19l-5.207 2.903c-.104.058-.236.023-.295-.077-.06-.1-.024-.227.08-.284l5.115-2.852v-6.095l-4.9 2.731z" transform="translate(-566 -2447) translate(482 2190) translate(0 195) translate(84.929 62)"/>
                        <path fill="#404D61" d="M26.963 15.778c0-.115.097-.208.216-.208.12 0 .216.093.216.208v5.318c0 .115-.097.209-.216.209-.12 0-.216-.094-.216-.209v-5.318zm0-2.818c0-.115.096-.209.216-.209.119 0 .216.094.216.209v.831c0 .116-.097.21-.216.21-.12 0-.216-.094-.216-.21v-.831z" transform="translate(-566 -2447) translate(482 2190) translate(0 195) translate(84.929 62)"/>
                        <path fill="#FFF" d="M94.533 30.882c0-.115.096-.209.216-.209.119 0 .216.094.216.209v31.267c0 .115-.097.209-.216.209-.12 0-.216-.094-.216-.209V30.882z" transform="translate(-566 -2447) translate(482 2190) translate(0 195) translate(84.929 62)"/>
                        <path fill="#404D61" d="M37.607 65.868c-.104.057-.236.023-.295-.077-.06-.1-.024-.227.08-.285.262-.146.603-.22.939-.22.336 0 .677.073.94.22l6.458 3.613c.165.093.286.207.36.332.06.1.09.206.09.313h.001c0 .107-.03.213-.09.314-.075.123-.195.237-.362.33-.104.057-.236.023-.295-.077-.06-.1-.024-.228.08-.285.097-.054.164-.115.202-.178.02-.034.031-.07.031-.104 0-.034-.01-.07-.031-.105-.037-.062-.105-.123-.203-.178l-6.459-3.613c-.194-.109-.456-.163-.722-.163-.267 0-.53.055-.724.163M56.388 78.324c.104.058.139.186.08.286-.06.1-.193.134-.297.076l-6.948-3.874c-.104-.058-.139-.186-.079-.285.06-.1.192-.134.296-.076l6.948 3.873zm3.682 2.053c.104.057.14.185.08.285-.06.1-.192.134-.295.077l-1.087-.606c-.103-.057-.139-.185-.08-.285.06-.1.192-.134.296-.077l1.086.606z" transform="translate(-566 -2447) translate(482 2190) translate(0 195) translate(84.929 62)"/>
                        <path fill="#B8C6D7" d="M87.23 84.25c.102.058.138.186.078.286-.06.1-.192.134-.296.076l-5.8-3.233c-.103-.058-.138-.186-.078-.286.06-.1.192-.133.295-.076l5.8 3.234zm3.072 1.714c.103.057.14.185.08.285-.06.1-.192.134-.295.077l-.907-.506c-.103-.057-.14-.185-.08-.285.06-.1.192-.134.295-.076l.907.505z" transform="translate(-566 -2447) translate(482 2190) translate(0 195) translate(84.929 62)"/>
                        <path fill="#FFF" d="M26.867 78.023c.103.058.139.186.079.286-.06.1-.193.133-.296.076l-4.107-2.29c-.104-.058-.14-.186-.08-.286.06-.1.193-.134.297-.076l4.107 2.29zm2.176 1.213c.104.058.14.185.08.285-.06.1-.192.134-.295.077l-.642-.358c-.104-.057-.14-.185-.08-.285.06-.1.191-.134.295-.076l.642.357z" transform="translate(-566 -2447) translate(482 2190) translate(0 195) translate(84.929 62)"/>
                        <path fill="#B8C6D7" d="M107.269 38.295c.103.057.139.185.079.285-.06.1-.193.134-.296.076-.216-.12-.474-.027-.73.066-.354.128-.707.257-1.1.037l-.014-.008c-.346-.2-.66-.666-.975-1.13-.291-.43-.583-.861-.843-1.006l-.009-.005c-.215-.113-.468-.02-.722.071-.352.128-.706.256-1.1.037-.35-.195-.669-.667-.988-1.138-.291-.431-.583-.862-.842-1.006-.217-.12-.474-.027-.731.066-.353.128-.706.256-1.1.037-.103-.058-.139-.185-.08-.285.06-.1.192-.134.296-.077.216.12.474.027.731-.066.353-.128.706-.256 1.1-.037.351.197.67.667.989 1.138.291.43.582.861.842 1.006.216.12.474.027.73-.066.35-.127.698-.253 1.087-.044l.014.007c.35.195.67.667.988 1.139.288.425.577.85.833 1l.01.005c.216.12.474.027.73-.066.354-.128.707-.256 1.1-.036M52.112 83.97c.104.058.14.186.08.286-.06.1-.193.134-.297.076-.216-.12-.473-.027-.73.066-.353.128-.706.256-1.1.037l-.014-.009c-.346-.2-.66-.665-.975-1.13-.29-.43-.582-.86-.842-1.005l-.01-.006c-.214-.112-.467-.02-.721.072-.353.128-.706.256-1.1.036l-.014-.008c-.345-.2-.66-.665-.975-1.13-.29-.43-.582-.86-.842-1.006l-.01-.005c-.214-.112-.467-.02-.72.072-.354.128-.707.256-1.101.036-.103-.058-.139-.186-.079-.285.06-.1.193-.134.296-.076.216.12.474.027.73-.067.35-.126.698-.253 1.086-.044l.015.008c.35.195.67.667.988 1.138.288.426.576.851.833 1l.01.006c.216.12.473.027.73-.066.35-.127.698-.253 1.086-.044l.015.007c.35.195.669.667.988 1.138.288.426.576.851.832 1l.01.006c.217.12.474.027.731-.066.353-.128.706-.256 1.1-.037" transform="translate(-566 -2447) translate(482 2190) translate(0 195) translate(84.929 62)"/>
                        <path fill="#6979F8" d="M43.483 10.504l-.277-.766-.195.322c-.053.088-.166.127-.267.089l-.365-.141.36.597c.028.042.042.094.033.147l-.115.725.585-.01c.065-.004.132.02.178.073l.379.428-.059-.435c-.014-.084.026-.171.107-.216l.394-.215-.685-.5c-.032-.024-.059-.057-.073-.098m-.018-1.318l.404 1.12.896.653c.095.07.114.201.042.293-.021.027-.047.048-.076.062l-.544.297.135 1.001c.015.114-.068.22-.187.234-.075.01-.146-.02-.192-.071l-.786-.89-.75.013c-.119.002-.217-.09-.22-.205 0-.012.001-.024.003-.035l.142-.896-.642-1.068c-.06-.1-.024-.227.079-.285.063-.036.137-.037.2-.01l.762.295.337-.558c.06-.1.194-.134.297-.075.051.028.085.074.1.125" transform="translate(-566 -2447) translate(482 2190) translate(0 195) translate(84.929 62)"/>
                        <path fill="#B8C6D7" d="M11.72 61.105c.104-.058.236-.024.296.076s.025.228-.079.286l-1.113.62 1.113.62c.104.058.139.186.079.286-.06.1-.192.134-.296.076l-1.328-.74-1.329.74c-.103.058-.236.024-.296-.076s-.024-.228.079-.286l1.113-.62-1.113-.62c-.103-.058-.139-.186-.079-.286.06-.1.193-.134.296-.076l1.329.74 1.328-.74z" transform="translate(-566 -2447) translate(482 2190) translate(0 195) translate(84.929 62)"/>
                        <path fill="#6979F8" d="M80.27 5.655c0-.116.096-.21.216-.21s.217.094.217.21v1.482l1.329.74c.103.058.138.186.078.286-.06.1-.192.134-.295.076l-1.112-.62v1.24c0 .116-.097.21-.217.21s-.217-.094-.217-.21V7.377l-1.329-.74c-.103-.058-.138-.186-.078-.286.06-.1.192-.134.295-.076l1.112.62v-1.24zM66.58 4.579c1.589.885 2.876 3.038 2.876 4.81 0 1.77-1.287 2.488-2.876 1.602-1.588-.885-2.876-3.038-2.876-4.81 0-1.77 1.288-2.488 2.876-1.602" transform="translate(-566 -2447) translate(482 2190) translate(0 195) translate(84.929 62)"/>
                        <path fill="#FFF" d="M65.503 4.092c-.103.058-.235.024-.295-.076s-.025-.228.078-.286l.283-.157c.305-.17.666-.241 1.064-.203.368.035.77.165 1.186.397.828.46 1.574 1.249 2.113 2.15.54.9.873 1.918.873 2.84 0 .465-.085.865-.238 1.191-.165.352-.409.618-.713.788l-.283.158c-.104.058-.236.024-.296-.076s-.025-.228.079-.286l.283-.157c.225-.126.409-.328.535-.599.128-.272.199-.614.199-1.018 0-.85-.311-1.793-.813-2.632v-.001c-.502-.84-1.194-1.572-1.955-1.996-.361-.202-.704-.314-1.012-.344-.306-.029-.579.023-.805.15l-.283.157z" transform="translate(-566 -2447) translate(482 2190) translate(0 195) translate(84.929 62)"/>
                        <path fill="#F4F6F8" d="M66.58 6.01L67.343 7.908 68.106 9.806 66.58 8.956 65.055 8.106 65.817 7.058z" transform="translate(-566 -2447) translate(482 2190) translate(0 195) translate(84.929 62)"/>
                        <path fill="#B8C6D7" d="M58.73 1.02c1.183.659 2.141 2.261 2.141 3.579s-.958 1.852-2.14 1.193c-1.182-.659-2.14-2.261-2.14-3.579s.958-1.852 2.14-1.193" transform="translate(-566 -2447) translate(482 2190) translate(0 195) translate(84.929 62)"/>
                        <g transform="translate(-566 -2447) translate(482 2190) translate(0 195) translate(84.929 62) translate(57.586 .039)">
                            <mask id="qkinhx6imb" fill="#fff">
                                <use xlink:href="#nww2h64sba"/>
                            </mask>
                            <path fill="#FFF" d="M.371.665C.268.723.135.69.075.59S.051.362.155.304l.21-.118C.6.054.88 0 1.189.03c.282.026.589.125.906.302.624.348 1.187.941 1.592 1.618l.007.013c.401.675.65 1.438.65 2.129 0 .353-.065.658-.182.908-.128.272-.317.478-.554.61l-.21.118c-.104.057-.236.023-.296-.077s-.025-.227.079-.285l.21-.118c.158-.088.287-.23.376-.42.092-.196.142-.443.142-.736 0-.62-.225-1.308-.59-1.922l-.007-.01c-.37-.618-.877-1.156-1.434-1.466-.263-.147-.51-.228-.731-.249C.93.424.739.46.582.548l-.21.117z" mask="url(#qkinhx6imb)"/>
                        </g>
                        <path fill="#6979F8" d="M58.731 4.91L58.163 3.498 57.596 2.085 58.731 2.718 59.866 3.351 59.298 4.13zM82.827 12.944c1.589.885 2.876 3.039 2.876 4.81 0 1.77-1.287 2.488-2.876 1.603-1.588-.886-2.876-3.039-2.876-4.81 0-1.77 1.288-2.489 2.876-1.603" transform="translate(-566 -2447) translate(482 2190) translate(0 195) translate(84.929 62)"/>
                        <path fill="#FFF" d="M81.75 12.457c-.103.058-.235.024-.295-.076s-.025-.228.078-.285l.283-.158c.305-.17.666-.241 1.064-.203.368.035.77.165 1.186.397.828.461 1.574 1.249 2.113 2.15.54.9.873 1.919.873 2.84 0 .465-.085.865-.238 1.191-.165.352-.409.619-.713.788l-.283.158c-.104.058-.236.024-.296-.076s-.025-.228.079-.286l.283-.157c.225-.126.409-.328.535-.598.128-.273.198-.615.198-1.02 0-.848-.31-1.792-.812-2.631v-.001c-.502-.84-1.194-1.572-1.955-1.996-.362-.202-.704-.314-1.013-.343-.305-.03-.578.023-.804.149l-.283.157z" transform="translate(-566 -2447) translate(482 2190) translate(0 195) translate(84.929 62)"/>
                        <path fill="#F4F6F8" d="M82.827 14.375L83.59 16.273 84.353 18.172 82.827 17.321 81.302 16.471 82.064 15.423z" transform="translate(-566 -2447) translate(482 2190) translate(0 195) translate(84.929 62)"/>
                        <path fill="#B8C6D7" d="M74.417 9.764c1.182.659 2.14 2.261 2.14 3.579 0 1.317-.958 1.851-2.14 1.193-1.182-.66-2.14-2.261-2.14-3.58 0-1.317.958-1.85 2.14-1.192" transform="translate(-566 -2447) translate(482 2190) translate(0 195) translate(84.929 62)"/>
                        <path fill="#FFF" d="M73.643 9.448c-.103.058-.236.024-.295-.076-.06-.1-.025-.228.078-.286l.21-.117c.237-.132.517-.187.825-.158.283.027.589.126.906.303l.012.007c.62.35 1.178.939 1.58 1.611l.007.013c.401.675.65 1.437.65 2.128 0 .354-.065.659-.182.908-.128.273-.317.479-.554.61l-.21.118c-.104.058-.236.024-.296-.076s-.025-.228.079-.285l.21-.118c.158-.088.287-.23.376-.42.092-.196.143-.443.143-.737 0-.619-.226-1.307-.59-1.921l-.007-.01c-.368-.615-.871-1.15-1.424-1.46l-.01-.007c-.263-.146-.51-.227-.732-.248-.216-.02-.407.016-.565.104l-.21.117z" transform="translate(-566 -2447) translate(482 2190) translate(0 195) translate(84.929 62)"/>
                        <path fill="#6979F8" d="M74.417 13.654L73.849 12.242 73.282 10.829 74.417 11.462 75.552 12.095 74.984 12.874zM76.38 81.24c1.832 1.022 1.832 2.679 0 3.7-1.833 1.022-4.805 1.022-6.638 0-1.832-1.021-1.832-2.678 0-3.7 1.833-1.021 4.805-1.021 6.637 0" transform="translate(-566 -2447) translate(482 2190) translate(0 195) translate(84.929 62)"/>
                        <path fill="#404D61" d="M77.538 84.062c0-.116.097-.209.216-.209.12 0 .216.093.216.209v.353c0 .385-.132.768-.397 1.124-.246.331-.608.64-1.086.907-.95.53-2.19.794-3.426.794-1.236 0-2.476-.265-3.426-.794-.479-.267-.841-.576-1.088-.908-.264-.356-.396-.74-.395-1.125v-.351c0-.116.097-.209.216-.209.12 0 .216.093.216.209v.351c0 .296.105.597.316.881.212.285.529.555.951.79.882.492 2.044.737 3.21.737s2.329-.245 3.21-.737c.421-.234.737-.503.95-.789.21-.283.316-.583.316-.88v-.353z" transform="translate(-566 -2447) translate(482 2190) translate(0 195) translate(84.929 62)"/>
                        <path fill="#404D61" d="M74.442 82.08c.103-.058.235-.023.295.077.059.1.023.227-.08.284l-2.977 1.66c-.103.057-.235.023-.295-.077s-.024-.227.08-.285l2.977-1.66z" transform="translate(-566 -2447) translate(482 2190) translate(0 195) translate(84.929 62)"/>
                        <path fill="#404D61" d="M74.657 83.74c.103.057.139.184.08.284-.06.1-.192.134-.295.077l-2.977-1.66c-.104-.057-.14-.185-.08-.284.06-.1.192-.135.295-.077l2.977 1.66z" transform="translate(-566 -2447) translate(482 2190) translate(0 195) translate(84.929 62)"/>
                        <path fill="#6979F8" d="M40.501 75.94L22.044 65.652 23.86 64.64 16.598 64.64 14.782 69.7 16.598 68.688 35.055 78.976z" transform="translate(-566 -2447) translate(482 2190) translate(0 195) translate(84.929 62)"/>
                        <path fill="#FFF" d="M40.284 76.486c0-.115.097-.209.217-.209s.217.094.217.21v1.31c0 .085-.052.158-.128.191l-5.428 3.026c-.103.057-.235.023-.295-.077s-.023-.227.08-.285l5.337-2.974v-1.192z" transform="translate(-566 -2447) translate(482 2190) translate(0 195) translate(84.929 62)"/>
                        <path fill="#FFF" d="M34.838 79.522c0-.115.097-.21.217-.21s.217.095.217.21v1.311c0 .116-.098.21-.217.21-.047 0-.09-.015-.126-.04L16.49 70.727c-.07-.039-.108-.109-.108-.181h-.001v-1.311c0-.116.097-.21.217-.21s.217.094.217.21v1.191l18.023 10.046v-.949z" transform="translate(-566 -2447) translate(482 2190) translate(0 195) translate(84.929 62)"/>
                        <path fill="#FFF" d="M16.49 70.364c.104-.057.236-.023.295.077.06.1.024.227-.08.285l-1.815 1.012c-.103.057-.236.022-.295-.077-.02-.033-.029-.069-.029-.104v-1.311c0-.116.097-.21.216-.21.12 0 .217.094.217.21v.949l1.491-.83z" transform="translate(-566 -2447) translate(482 2190) translate(0 195) translate(84.929 62)"/>
                        <path fill="#404D61" d="M23.643 65.186c0-.116.097-.21.216-.21.12 0 .217.094.217.21v1.053c0 .116-.097.21-.217.21s-.216-.094-.216-.21v-1.053z" transform="translate(-566 -2447) translate(482 2190) translate(0 195) translate(84.929 62)"/>
                        <path fill="#E1E9F2" d="M3.345 51.207c-2.99 1.666-2.99 4.368 0 6.035 2.99 1.666 7.836 1.666 10.826 0 2.99-1.667 2.99-4.369 0-6.035-.935-.522-2.052-.88-3.238-1.075v1.931l-.593.331v.42c.187.066.364.144.527.235 1.165.649 1.165 1.702 0 2.351-1.165.65-3.053.65-4.218 0s-1.165-1.702 0-2.351c.187-.105.394-.192.613-.263V51.22l-.594-.331v-.772c-1.217.192-2.365.555-3.323 1.089" transform="translate(-566 -2447) translate(482 2190) translate(0 195) translate(84.929 62)"/>
                        <path fill="#B8C6D7" d="M13.578 56.67c.104.058.139.186.08.286-.06.1-.193.134-.297.076l-2.603-1.451c-.103-.058-.138-.186-.078-.286.06-.1.192-.134.295-.076l2.603 1.451zm1.379.77c.103.057.139.184.08.284-.06.1-.192.134-.295.077l-.407-.227c-.104-.057-.14-.185-.08-.285.06-.1.192-.134.295-.077l.407.227z" transform="translate(-566 -2447) translate(482 2190) translate(0 195) translate(84.929 62)"/>
                        <path fill="#6979F8" d="M7.47 45.07l1.08-.603c.202-.113.482-.097.791.076.618.344 1.119 1.182 1.119 1.87 0 .345-.126.587-.328.7l-.215.12c1.184.708 1.016 1.706 1.016 2.67v2.16l-.593.33v2.38l-1.08.601v-3.04l.593.331v-2.16c0-.986.176-2.008-1.098-2.719.37.003.624-.28.624-.77 0-.69-.5-1.527-1.118-1.871-.31-.172-.589-.189-.791-.076" transform="translate(-566 -2447) translate(482 2190) translate(0 195) translate(84.929 62)"/>
                        <path fill="#404D61" d="M9.075 55.03c.104.058.14.185.08.285-.06.1-.191.134-.295.077l-1.706-.951c-.07-.038-.108-.109-.108-.18h-.001v-2.92l-.485-.27c-.07-.039-.108-.11-.108-.181v-3.213c0-.222.044-.4.125-.535v-.001c.062-.104.144-.182.245-.235.098-.051.21-.077.331-.077l.07.003c-.042-.076-.08-.154-.113-.232-.117-.276-.185-.563-.185-.832 0-.13.016-.25.046-.357.033-.116.082-.219.146-.305.07-.094.204-.117.302-.05.097.067.12.198.05.292-.033.045-.06.103-.08.171-.02.072-.03.155-.03.25 0 .214.056.447.151.672.102.238.247.466.42.657.059.066.072.163.024.242-.059.1-.191.134-.295.077-.199-.111-.371-.169-.506-.169-.05 0-.091.009-.124.026h-.001c-.03.016-.056.041-.077.076-.042.071-.066.18-.066.327v3.093l.471.262c.072.034.123.106.123.189v2.92l1.596.89z" transform="translate(-566 -2447) translate(482 2190) translate(0 195) translate(84.929 62)"/>
                        <path fill="#B8C6D7" d="M2.553 57.925c-.104.058-.236.023-.296-.076-.06-.1-.025-.228.079-.286L6.54 55.22c.104-.058.236-.024.296.076s.025.228-.079.286l-4.204 2.344zm-2.23 1.242c-.103.057-.235.023-.294-.077-.06-.1-.024-.228.08-.285l.657-.366c.103-.058.235-.023.295.077s.023.227-.08.284l-.657.367z" transform="translate(-566 -2447) translate(482 2190) translate(0 195) translate(84.929 62)"/>
                        <path fill="#404D61" d="M92.783 63.486c-.103.057-.236.023-.295-.077-.06-.1-.024-.228.08-.285l2.073-1.156c.104-.057.236-.023.295.077.06.1.024.228-.08.285l-2.073 1.156z" transform="translate(-566 -2447) translate(482 2190) translate(0 195) translate(84.929 62)"/>
                        <path fill="#FFF" d="M96.9 13.996c-.102.057-.235.023-.294-.077-.06-.1-.024-.227.08-.284l1.474-.822c.344-.193.754-.275 1.211-.231.42.04.881.19 1.367.46l.012.008c.633.355 1.225.875 1.732 1.487.505.61.927 1.31 1.226 2.034.656.202 1.298.74 1.78 1.417.5.704.833 1.564.833 2.353 0 .347-.062.636-.177.873-.08.165-.186.304-.313.417.784.666 1.467 1.55 1.964 2.505.533 1.024.853 2.134.853 3.15 0 .587-.106 1.09-.298 1.5-.206.44-.51.771-.89.983l-1.45.809c-.104.057-.236.023-.296-.077s-.023-.228.08-.285l1.451-.809c.3-.167.542-.434.71-.792.167-.356.26-.802.26-1.328 0-.953-.303-1.997-.806-2.965-.514-.988-1.237-1.894-2.063-2.54-.02-.016-.037-.036-.05-.059-.06-.1-.024-.227.079-.284.162-.09.29-.223.377-.402.088-.18.135-.41.135-.696 0-.703-.303-1.478-.757-2.117-.45-.632-1.042-1.125-1.627-1.276-.07-.014-.133-.061-.161-.131-.285-.72-.7-1.419-1.197-2.02-.476-.573-1.027-1.058-1.612-1.387l-.012-.006c-.43-.24-.832-.371-1.192-.406-.364-.036-.686.028-.953.176l-1.475.822zm-4.09 2.685c-.104.058-.236.023-.295-.077-.06-.1-.024-.227.08-.284l1.407-.785c.082-.046.169-.087.262-.124.09-.035.183-.065.277-.09.115-.028.234.039.263.15.03.112-.04.226-.155.255-.078.02-.152.044-.223.072-.069.027-.138.06-.207.098l-1.41.785z" transform="translate(-566 -2447) translate(482 2190) translate(0 195) translate(84.929 62)"/>
                        <path fill="#6979F8" d="M94.596 17.311c.155.087.308.182.46.285-.659-2.75.933-4.315 3.2-3.05 1.25.697 2.34 2.067 2.916 3.519 1.28.32 2.56 2.102 2.56 3.598 0 .639-.24 1.083-.622 1.279 1.682 1.317 2.949 3.68 2.949 5.667 0 2.267-1.649 3.186-3.682 2.053l-7.78-4.338c-2.233-1.244-4.043-4.27-4.043-6.76 0-2.488 1.81-3.497 4.042-2.253" transform="translate(-566 -2447) translate(482 2190) translate(0 195) translate(84.929 62)"/>
                        <path fill="#404D61" d="M101.79 17.961c-.104.058-.236.023-.295-.077-.06-.1-.024-.227.08-.284l1.862-1.039c.103-.057.236-.022.295.077.06.1.024.228-.08.285l-1.862 1.038zM104.308 22.515c-.103.057-.235.023-.294-.077-.06-.1-.024-.227.08-.285l1.281-.714c.103-.057.236-.023.295.077.06.1.024.227-.08.284l-1.282.715z" transform="translate(-566 -2447) translate(482 2190) translate(0 195) translate(84.929 62)"/>
                        <path fill="#FFF" d="M98.777 73.164c0 .116-.097.21-.217.21s-.217-.094-.217-.21v-.857c0-.115.098-.21.217-.21.12 0 .217.095.217.21v.857zm-6.702 6.458c-.12 0-.217-.094-.217-.21 0-.115.097-.21.217-.21h1.537c.12 0 .217.095.217.21 0 .116-.098.21-.217.21h-1.537z" transform="translate(-566 -2447) translate(482 2190) translate(0 195) translate(84.929 62)"/>
                        <path fill="#FFF" d="M99.92 72.954c.12 0 .217.094.217.21 0 .116-.097.21-.217.21h-6.091v3.193c0 .116-.098.21-.218.21s-.216-.094-.216-.21v-3.403c0-.116.097-.21.216-.21h6.309z" transform="translate(-566 -2447) translate(482 2190) translate(0 195) translate(84.929 62)"/>
                        <path fill="#B8C6D7" d="M100.097 73.164c0 1.997-2.904 3.615-6.485 3.615v7.105c3.581 0 6.485-1.618 6.485-3.615v-7.105z" transform="translate(-566 -2447) translate(482 2190) translate(0 195) translate(84.929 62)"/>
                        <path fill="#6979F8" d="M92.075 79.412v-3.49c-3.582 0-6.486-1.618-6.486-3.615v7.105c0 1.997 2.904 3.616 6.486 3.616v-3.616z" transform="translate(-566 -2447) translate(482 2190) translate(0 195) translate(84.929 62)"/>
                        <path fill="#FFF" d="M92.292 75.551c0 .116-.097.21-.217.21s-.217-.094-.217-.21v-3.244c0-.115.097-.21.217-.21h6.256c-.095-.836-.757-1.596-1.778-2.165-1.142-.637-2.725-1.03-4.478-1.03-1.678 0-3.201.36-4.33.95-1.105.577-1.826 1.368-1.927 2.242-.013.115-.12.198-.239.185-.119-.012-.204-.116-.191-.23.117-1.02.922-1.923 2.151-2.565 1.19-.621 2.785-1.002 4.536-1.002 1.829 0 3.489.416 4.694 1.088 1.24.692 2.008 1.66 2.008 2.737 0 .116-.097.21-.217.21h-6.268v3.034z" transform="translate(-566 -2447) translate(482 2190) translate(0 195) translate(84.929 62)"/>
                        <path fill="#6979F8" d="M108.305 67.72c0-.116.097-.21.217-.21s.217.094.217.21v1.482l1.328.74c.104.058.14.186.08.286-.06.1-.193.134-.297.076l-1.111-.62v1.24c0 .116-.097.21-.217.21s-.217-.094-.217-.21v-1.482l-1.329-.74c-.103-.058-.138-.186-.079-.286.06-.1.193-.134.296-.076l1.112.62v-1.24z" transform="translate(-566 -2447) translate(482 2190) translate(0 195) translate(84.929 62)"/>
                        <path fill="#E1E9F2" d="M102.025 51.004c-4.383 2.443-4.383 6.404 0 8.847 4.383 2.443 11.489 2.443 15.872 0 4.382-2.443 4.382-6.404 0-8.847-1.372-.765-3.01-1.29-4.747-1.576v2.831l-.87.485v.617c.275.095.534.21.773.343 1.707.952 1.707 2.495 0 3.447-1.708.952-4.476.952-6.184 0-1.708-.952-1.708-2.495 0-3.447.275-.153.577-.282.898-.386v-2.294l-.87-.485v-1.131c-1.784.28-3.468.813-4.872 1.596" transform="translate(-566 -2447) translate(482 2190) translate(0 195) translate(84.929 62)"/>
                        <path fill="#B8C6D7" d="M116.977 59.097c.103.058.139.186.079.286-.06.1-.193.134-.296.076l-3.816-2.127c-.103-.058-.139-.186-.079-.286.06-.1.193-.134.296-.076l3.816 2.127zM119 60.225c.103.057.139.185.08.285-.06.1-.192.134-.296.076l-.596-.332c-.104-.057-.14-.185-.08-.285.06-.1.192-.134.295-.077l.597.333zM100.813 60.768c-.103.058-.236.024-.295-.076-.06-.1-.025-.228.078-.286l6.164-3.436c.104-.058.236-.024.296.076s.025.228-.079.286l-6.164 3.436zm-3.267 1.821c-.104.057-.236.023-.295-.077-.06-.1-.024-.227.08-.285l.963-.537c.104-.057.236-.023.295.077.06.1.024.228-.08.285l-.963.537z" transform="translate(-566 -2447) translate(482 2190) translate(0 195) translate(84.929 62)"/>
                        <path fill="#FFF" d="M108.819 41.83c-.104.058-.236.023-.295-.076-.06-.1-.024-.228.08-.285l.944-.527c.19-.106.415-.15.662-.127.223.021.464.1.714.238.486.271.924.732 1.238 1.258.315.527.51 1.124.51 1.665 0 .278-.05.519-.143.716-.103.218-.255.384-.445.49l-.017.01c1.352.961 1.329 2.198 1.305 3.435-.002.134-.005.267-.005.466v3.166c0 .083-.05.155-.123.189l-.747.416v3.367c0 .084-.052.157-.127.19l-1.206.673c-.103.057-.235.023-.295-.077s-.024-.228.08-.285l1.114-.621v-3.367c0-.072.04-.142.109-.18l.76-.425v-3.046c0-.114.004-.293.008-.472.023-1.201.045-2.401-1.386-3.262-.033-.017-.061-.043-.081-.077-.06-.1-.025-.228.078-.286l.316-.175c.111-.063.203-.164.267-.3.067-.144.104-.327.104-.545 0-.468-.172-.99-.45-1.455-.28-.467-.662-.872-1.081-1.106-.195-.109-.377-.169-.54-.184-.155-.015-.292.01-.404.073l-.944.527z" transform="translate(-566 -2447) translate(482 2190) translate(0 195) translate(84.929 62)"/>
                        <path fill="#6979F8" d="M107.592 43.03c0-1.009.734-1.418 1.64-.913.906.505 1.64 1.732 1.64 2.742 0 .72-.373 1.135-.916 1.13 1.869 1.042 1.61 2.541 1.61 3.986v3.167l-.87-.485v4.456l-2.929-1.633v-4.456l-.87-.485v-4.71c0-.998.672-1.17 1.611-.647-.543-.6-.916-1.431-.916-2.151" transform="translate(-566 -2447) translate(482 2190) translate(0 195) translate(84.929 62)"/>
                        <path fill="#404D61" d="M113.958 48.814c0-.115.097-.208.216-.208.12 0 .216.093.216.208v3.168c0 .116-.096.209-.216.209-.119 0-.216-.093-.216-.209v-3.168zm0-1.679c0-.115.097-.208.216-.208.12 0 .216.093.216.208v.496c0 .115-.096.208-.216.208-.119 0-.216-.093-.216-.208v-.496z" transform="translate(-566 -2447) translate(482 2190) translate(0 195) translate(84.929 62)"/>
                        <path fill="#6979F8" d="M99.048 44.776l-.277-.766-.195.322c-.053.087-.166.127-.266.088l-.366-.14.36.597c.028.042.042.094.033.147l-.115.724.585-.01c.065-.004.132.021.178.073l.379.429-.059-.435c-.014-.084.026-.172.107-.216l.394-.216-.685-.499c-.032-.024-.059-.058-.073-.098m-.018-1.318l.405 1.12.895.653c.095.07.114.2.042.293-.02.027-.047.047-.076.061l-.544.298.135 1c.015.115-.068.22-.186.235-.076.01-.147-.02-.193-.072l-.786-.888-.75.012c-.119.001-.217-.09-.22-.206 0-.011.001-.023.003-.034l.142-.897-.642-1.067c-.06-.1-.024-.228.079-.286.063-.035.138-.036.2-.008l.762.294.338-.558c.06-.1.193-.134.296-.076.051.029.085.075.1.126" transform="translate(-566 -2447) translate(482 2190) translate(0 195) translate(84.929 62)"/>
                    </g>
                </g>
            </g>
        </g>
    </g>
</svg>
