<svg xmlns="http://www.w3.org/2000/svg" xmlns:xlink="http://www.w3.org/1999/xlink" width="142" height="49" viewBox="0 0 142 49">
    <defs>
        <path id="w0hdfd4kra" d="M0.02 0.05L4.788 0.05 4.788 4.733 0.02 4.733z"/>
        <path id="7zhh8x3v0c" d="M0 48.211L141.588 48.211 141.588 0 0 0z"/>
    </defs>
    <g fill="none" fill-rule="evenodd">
        <g>
            <g>
                <g>
                    <g transform="translate(-1255 -3174) translate(0 2839) translate(482 194) translate(773 141)">
                        <path fill="#231916" d="M52.493 31.483c-.127.06-.343.09-.649.09h-.105V30.35h.105c.38 0 .637.06.773.183.096.088.143.234.143.438 0 .254-.089.425-.267.512m1.309.13c.14-.217.21-.503.21-.858 0-.458-.148-.805-.443-1.04-.294-.236-.756-.355-1.385-.355l-2.093.004s.375.106.443.484v4.195h1.205v-1.827l1.074 1.827h1.434l-1.283-1.88c.388-.1.668-.283.838-.55M54.413 29.364s.407.115.45.534v4.145h2.868v-1.047h-1.625v-.793h1.533V31.2h-1.533v-.819h1.625v-1.021l-3.318.003zM60.73 31.398c-.097.048-.272.071-.524.071H59.905v-1.1h.208c.276 0 .486.035.633.106.146.069.219.221.219.458 0 .23-.079.386-.236.465m.956-1.703c-.305-.223-.796-.334-1.473-.334l-2.018.002s.488.136.505.64v4.04h1.205v-1.546h.36c.66 0 1.138-.104 1.434-.314.336-.24.505-.648.505-1.224 0-.59-.172-1.01-.518-1.264M67.12 31.358V29.36l-1.72.004s.456.124.457.598l.005 1.848c0 .528-.066.882-.196 1.061-.11.148-.314.223-.616.223-.371 0-.613-.134-.727-.4-.065-.157-.098-.454-.098-.89V29.36l-1.717.003s.43.12.453.568v1.912c0 .82.167 1.412.5 1.774.335.363.864.544 1.589.544.62 0 1.09-.089 1.408-.268.284-.162.474-.404.57-.728.065-.222.098-.58.098-1.073-.004-.118-.007-.239-.007-.361v-.373zM70.4 33.015c-.123.052-.315.079-.577.079h-.413v-1.048h.446c.305 0 .526.049.661.144.109.078.164.199.164.36 0 .227-.094.382-.282.465zm-.99-2.725h.341c.244 0 .412.018.504.053.157.061.236.194.236.4 0 .205-.077.344-.23.419-.1.047-.257.072-.471.072l-.38-.007v-.937zm1.421 1.232c.332-.096.564-.234.695-.412.105-.145.157-.336.157-.577 0-.488-.188-.819-.563-.989-.27-.122-.738-.183-1.402-.183l-1.945.003s.384.109.445.498v4.181h1.657c.794 0 1.35-.135 1.663-.406.241-.205.36-.513.36-.924 0-.383-.115-.68-.346-.89-.183-.166-.423-.267-.72-.301zM74.067 29.36l-1.729.004s.418.118.452.549v4.13h2.868v-1.1h-1.591V29.36zM75.964 29.364s.458.124.458.6v-.009 4.088h1.29v-4.682l-1.748.003zM79.225 30.088c-.358.458-.538.998-.538 1.617 0 .656.203 1.216.61 1.683.445.511 1.021.766 1.729.766.397 0 .812-.096 1.244-.287V32.47c-.231.232-.45.393-.655.485-.14.062-.29.092-.452.092-.41 0-.727-.16-.95-.478-.174-.25-.262-.537-.262-.865 0-.428.138-.766.413-1.016.231-.208.498-.314.8-.314.195 0 .383.044.563.132.139.07.32.212.543.425v-1.394c-.406-.188-.82-.281-1.244-.281-.769 0-1.37.277-1.801.83M88.405 32.786c-.227.205-.49.308-.792.308-.406 0-.72-.153-.942-.459-.184-.253-.276-.561-.276-.923 0-.388.115-.717.344-.986.23-.268.52-.402.874-.402.415 0 .733.163.956.491.175.258.262.56.262.91 0 .45-.142.803-.426 1.06m-.792-3.528c-.799 0-1.434.278-1.906.837-.397.472-.595 1.009-.595 1.611 0 .751.27 1.36.812 1.828.48.414 1.037.622 1.67.622.69 0 1.28-.23 1.77-.692.492-.46.738-1.04.738-1.738 0-.62-.204-1.168-.61-1.644-.467-.55-1.093-.824-1.879-.824M90.582 29.362s.405.116.45.53v4.151h1.244v-1.84h1.532V31.2h-1.532v-.819H93.9V29.36l-3.318.002zM101.143 29.36h-1.5l-1.467 2.123v-2.122l-1.729.001s.457.137.457.613l.001-.007v4.075h1.27v-2.096l1.52 2.096h1.585l-1.88-2.39 1.743-2.292zM104.628 32.786c-.228.205-.492.308-.793.308-.407 0-.72-.153-.943-.459-.184-.253-.275-.561-.275-.923 0-.388.115-.717.344-.986.229-.268.52-.402.874-.402.414 0 .734.163.956.491.175.258.262.56.262.91 0 .45-.142.803-.425 1.06m-.793-3.528c-.799 0-1.434.278-1.906.837-.397.472-.595 1.009-.595 1.611 0 .751.27 1.36.811 1.828.48.414 1.037.622 1.67.622.69 0 1.28-.23 1.772-.692.491-.46.736-1.04.736-1.738 0-.62-.202-1.168-.609-1.644-.467-.55-1.093-.824-1.88-.824M109.017 31.483c-.127.06-.343.09-.649.09h-.105V30.35h.105c.38 0 .637.06.773.183.096.088.143.234.143.438 0 .254-.089.425-.267.512m1.31.13c.139-.217.208-.503.208-.858 0-.458-.147-.805-.442-1.04-.294-.236-.756-.355-1.385-.355l-2.102.004s.427.12.452.562v4.117h1.205v-1.827l1.074 1.827h1.435l-1.284-1.88c.389-.1.668-.283.838-.55M110.938 29.365s.399.114.448.521v4.157h2.868v-1.047h-1.624v-.793h1.533V31.2h-1.533v-.819h1.624v-1.021l-3.316.004zM116.468 32.288l.47-1.545c.04-.119.09-.328.151-.63.066.28.122.49.17.63l.472 1.545h-1.263zm-.663-2.923c.1.003.417.087.285.56l-1.417 4.118h1.27l.243-.844H118l.23.844h1.276l-1.623-4.682-2.078.004zM125.916 32.262l-2.14-2.902h-1.683s.42.12.452.553v4.13h1.204v-2.987l2.149 2.987h1.224V29.36h-1.206v2.902zM129.426 32.288l.471-1.545c.04-.119.09-.328.15-.63.066.28.122.49.17.63l.472 1.545h-1.263zm-.665-2.927s.44.025.332.433l-1.462 4.25h1.27l.243-.845h1.814l.23.844h1.276l-1.625-4.682h-2.078zM134.121 32.434c-.025-.127-1.093-3.073-1.093-3.073l-1.684.004c.07.003.333.046.532.466l1.761 4.212h.976l1.958-4.682h-1.363l-1.087 3.073z"/>
                        <g transform="translate(136.8 29.31)">
                            <mask id="s0t35m444b" fill="#fff">
                                <use xlink:href="#w0hdfd4kra"/>
                            </mask>
                            <path fill="#231916" d="M3.327.05s-.78 1.482-.792 1.526C2.526 1.544 1.755.05 1.755.05L.02.054s.37.074.522.4L1.92 2.598v2.136H3.15V2.597L4.788.05H3.327z" mask="url(#s0t35m444b)"/>
                        </g>
                        <path fill="#231916" d="M130.849 29.389h.017-.017"/>
                        <mask id="ojq3fg46bd" fill="#fff">
                            <use xlink:href="#7zhh8x3v0c"/>
                        </mask>
                        <path fill="#231916" d="M84.965 17.953h3.139v-3.63h-3.14v3.63zm-1.975 1.539c.221.22.516.343.83.343h6.722v-7.491l-8.674-.002s.763.21.784 1.002v5.337c0 .304.12.592.338.811zM85.18 24.369v-3.585h-2.524v4.302c0 .31.123.602.345.824.22.222.511.343.819.343h11.899V24.37h-10.54zM79.305 12.264l-3.257.004s.786.214.786 1.032v-.002l-.003 6.551h2.474v-2.937h1.517v-1.985h-1.517v-2.663zM68.757 24.27v-2.824h-2.532v3.49c0 .337.13.654.37.892.24.241.562.374.905.374h11.794V24.27H68.757zM115.954 18.596c-.827 0-1.496-.67-1.496-1.496 0-.827.669-1.497 1.496-1.497.826 0 1.497.67 1.497 1.497 0 .826-.67 1.496-1.497 1.496zm1.31-6.335v-.747h-2.648v.747h-3.257s.745.206.782.976v.98h1.665c-.926.683-1.49 1.775-1.49 2.934 0 .975.38 1.89 1.069 2.58.688.688 1.605 1.067 2.578 1.067 2.012 0 3.648-1.636 3.648-3.647 0-1.16-.564-2.251-1.49-2.934h1.698v-1.956h-2.555zM68.719 15.965c.303-.303.706-.47 1.134-.47.429 0 .832.167 1.134.47.304.303.47.706.47 1.135 0 .885-.719 1.604-1.604 1.604-.428 0-.83-.167-1.134-.47-.303-.303-.47-.705-.47-1.134 0-.429.167-.832.47-1.135m-2.503 1.186c0 .975.379 1.89 1.068 2.58.689.688 1.605 1.067 2.58 1.067 2.01 0 3.646-1.636 3.646-3.647 0-1.16-.564-2.251-1.49-2.934h1.698v-1.956h-2.555v-.705h-2.648v.705l-3.248.004s.676.186.774.867v1.085h1.665c-.927.683-1.49 1.775-1.49 2.934M123.414 12.248s.648.18.766.827l.004 2.657h-1.044V12.25H120s.785.213.785 1.031l.002-.014v12.966h2.354v-8.516h1.044v8.516h2.222V12.245l-2.992.003zM49.858 12.336s.668.188.772.859v6.265c0 .317.119.611.336.828.208.209.49.323.79.323h5.02v-1.926h-3.633v-4.464l3.633.004V12.33l-6.918.006zM61.157 12.247s.634.186.762.819l.004 2.666h-1.044v-3.48l-2.18-.003h-.939s.644.188.765.832v13.152h2.354v-8.516h1.044v8.516h2.221V12.247h-2.987zM93.237 13.298l.005-.028-.005 6.579h2.475v-7.585h-3.261s.786.215.786 1.034M110.37 19.51l-.007-1.895H97.259v1.896h4.713v1.731h-4.713v1.904h10.465v3.09h2.583v-3.725c0-.342-.132-.662-.37-.901-.238-.237-.555-.368-.893-.368h-4.541v-1.731h5.867zM97.28 14.071v.107H107.744v2.424h2.6v-3.045c0-.35-.133-.676-.375-.917-.231-.232-.54-.36-.872-.36H97.28v.003h-.785s.772.212.785 1.013v.775zM128.302 14.253h10.464v2.39h2.583v-3.011c0-.344-.132-.666-.373-.907-.237-.237-.553-.367-.89-.367l-12.564-.003s.78.261.78.923v.975zM128.302 17.669L128.302 19.561 133.477 19.561 133.477 22.127 136.008 22.127 136.008 19.561 141.369 19.561 141.369 17.669z" mask="url(#ojq3fg46bd)"/>
                        <path fill="#231916" d="M130.81 24.327v-3.09h-2.533l.003 3.724c0 .339.131.656.37.895.24.24.562.373.904.373h11.794v-1.902H130.81z" mask="url(#ojq3fg46bd)"/>
                        <path fill="#303187" d="M0 25.683s.07 1.8 1.483 1.996c1.919.268 14.695 4.456 21.53 17.323h-.005c6.835-12.867 19.613-17.055 21.532-17.323 1.412-.196 1.482-1.996 1.482-1.996H0z" mask="url(#ojq3fg46bd)"/>
                        <path fill="#FEFEFE" d="M26.646 36.76c-.013.04-.863 2.627.791 5.406-1.074-1.188-1.855-2.37-2.243-2.957-.095-.144-.17-.257-.228-.34-1.59-2.26-3.334-3.271-5.332-3.093-3.89.35-5.048 3.9-5.095 4.05l-.055.173.03.093c-1.462.64-2.403 1.749-2.847 2.38-2.111-.92-3.743.104-3.934.233-2.73 1.836-2.018 5-1.986 5.134l1.127-.04c.011-.069.3-1.673 2.052-2.165 1.814-.511 2.964.377 3.009.412 0 0 .558.457.56.454l.32-.647c.044-.09 1.122-2.194 4.11-2.253 1.453-.03 2.542.59 3.193.961l.226.128c.162.095 2.536 1.503 3.144 1.799 1.509.734 2.771 1.17 4.222 1.458 1.27.252 3.126.31 4.302.234l.117-.007.104-.052.596-.297c.704.099 1.505.172 2.421.205H35.271c.228 0 .785-.006 1.029-.067l-.023-.64c2.08.447 4.893.836 8.38.836l.094-1.142c-.097-.016-9.78-1.658-13.354-4.923l-.02-.019-.022-.016c-.027-.02-2.32-1.634-3.504-4.953 0 0-.275-.747-.412-1.18 0 0-.413-.022-.74.719l-.053.116z" mask="url(#ojq3fg46bd)"/>
                        <path fill="#303187" d="M24.622 28.023L24.622 8.027 30.776 8.027 31.976 5.996 14.464 5.996 15.642 8.027 21.645 8.027 21.645 28.023z" mask="url(#ojq3fg46bd)"/>
                        <path fill="#303187" d="M23.122 4.871c-.883 0-1.598-.715-1.598-1.598 0-.882.715-1.597 1.598-1.597.882 0 1.598.715 1.598 1.597 0 .883-.716 1.598-1.598 1.598m0-4.871c-1.808 0-3.274 1.466-3.274 3.273 0 1.809 1.466 3.274 3.274 3.274s3.274-1.465 3.274-3.274C26.396 1.466 24.93 0 23.122 0M23.116 30.303c-6.003 0-10.871-4.868-10.871-10.872 0-6.002 4.868-10.871 10.871-10.871 6.004 0 10.871 4.869 10.871 10.871 0 6.004-4.867 10.872-10.87 10.872" mask="url(#ojq3fg46bd)"/>
                        <path fill="#FEFEFE" d="M25.144 11.335c-4.483-1.11-9.02 1.622-10.132 6.107-1.112 4.483 1.623 9.02 6.106 10.132 4.484 1.112 9.02-1.623 10.133-6.107 1.111-4.482-1.623-9.02-6.107-10.132" mask="url(#ojq3fg46bd)"/>
                        <path fill="#FEFEFE" d="M23.1 27.124c4.193 0 7.593-3.398 7.593-7.593 0-4.193-3.4-7.593-7.594-7.593-4.193 0-7.593 3.4-7.593 7.593 0 4.195 3.4 7.593 7.593 7.593" mask="url(#ojq3fg46bd)"/>
                        <path fill="#303187" d="M23.43 18.59c-.306.672-.269 1.3-.929 2.166-1.036 1.358-2.492 1.602-3.3 1.504-2.179-.262-3.144-1.754-3.381-2.803-.225-.992-.049-1.867-.049-1.867-1.042 4.215 1.414 8.293 5.511 9.317 3.762.942 7.54-1.118 8.922-4.66.107-.259.21-.744.21-.744.6-2.152-.534-4.222-2.628-4.794-1.654-.452-3.57.164-4.355 1.882" mask="url(#ojq3fg46bd)"/>
                        <path fill="#00A5E2" d="M27.14 36.831s-1.71 5.48 5.125 8.67c0 0 4.436 2.083 12.392 2.083 0 0-9.905-1.647-13.648-5.066 0 0-2.762-2.07-3.87-5.687" mask="url(#ojq3fg46bd)"/>
                        <path fill="#00A5E2" d="M36.16 47.404c-4.368-.762-5.89-2.116-6.652-2.632-2.732-1.85-4.563-4.932-5.012-5.572-1.994-2.834-3.828-2.938-4.81-2.85-3.554.319-4.6 3.648-4.6 3.648h.002c.582-.54 1.362-1 2.39-1.235.961-.22 2.792-.364 5.152 2.173.532.572 2.764 3.377 5.72 4.842.825.409 2.49 1.514 6.921 1.677 0 0 .688 0 .89-.05" mask="url(#ojq3fg46bd)"/>
                        <path fill="#00A5E2" d="M31.976 47.606c-1.059.068-2.894.026-4.154-.224-1.366-.272-2.562-.673-4.083-1.411-.601-.292-3.108-1.78-3.108-1.78-.582-.315-1.898-1.203-3.718-1.166-3.404.067-4.614 2.576-4.614 2.576s-1.379-1.126-3.529-.522c-2.15.606-2.463 2.628-2.463 2.628s-.684-2.89 1.746-4.525c.375-.253 1.938-1.03 3.82.033 0 0 1.652-3.04 5.012-3.04.705 0 2.418.048 4.396 1.55 2.39 1.818 3.36 3.243 6.026 4.503.851.403 1.96.997 4.67 1.378h-.001z" mask="url(#ojq3fg46bd)"/>
                    </g>
                </g>
            </g>
        </g>
    </g>
</svg>
