<svg xmlns="http://www.w3.org/2000/svg" width="161" height="32" viewBox="0 0 161 32">
    <g fill="none" fill-rule="evenodd">
        <g>
            <g>
                <g>
                    <g>
                        <path fill="#008077" d="M22.573 18.584c-.08-.481-.211-.944-.403-1.373-.604-1.308-1.447-2.404-2.713-3.141-1.965-1.149-4.341-1.141-6.289.037-.878.533-1.603 1.3-2.07 2.218-.158.312-.286.64-.392.972-.514 1.63-.494 3.819.43 5.307.301.487.738.902 1.271 1.108.534.205 1.164.184 1.644-.128.62-.399.73-1.162.615-1.84-.147-.865-.256-1.719.062-2.567.103-.27.246-.529.454-.73.126-.122.276-.224.433-.299.336-.163.72-.238 1.087-.177.647.107 1.171.605 1.457 1.19.286.586.364 1.252.395 1.903.134 2.836-.542 5.779-1.266 8.506-.074.28-.15.56-.232.837-.063.216-.172.492-.033.702.059.089.151.152.25.193.423.17.767-.087 1.048-.372 1.665-1.672 2.732-3.835 3.461-6.056.272-.827.508-1.674.664-2.532.217-1.177.339-2.521.127-3.758" transform="translate(-1001 -3183) translate(0 2839) translate(482 194) translate(519 150)"/>
                        <path fill="#231F20" d="M98.826 7.746L95.505 7.746 95.505 28.427 98.826 28.427 98.826 15.203 101.901 15.203 101.901 13.352 98.826 13.352zM87.601 22.078c-1.426.004-2.59-2.282-2.594-5.11-.003-2.825 1.15-5.113 2.581-5.12 1.43 0 2.593 2.289 2.596 5.111 0 2.82-1.15 5.12-2.583 5.12zm1.631-14.826h-3.315v1.93h-4.52v1.855h3.093c-1.671 1.225-2.786 3.415-2.786 5.922 0 3.85 2.626 6.971 5.872 6.971 3.242 0 5.875-3.121 5.875-6.97 0-2.508-1.117-4.698-2.79-5.923h3.1V9.182h-4.529v-1.93zM122.3 13.352h-3.074V7.746h-3.32v12.507c-.544.536-1.385 1.103-2.532 1.086H108.1c-.785 0-1.412-.63-1.412-1.403l.005-11.253h-3.294l.015 11.253c0 1.803 1.475 3.265 3.296 3.265h5.712s2.015.103 3.486-1.243v6.47h3.319V15.2h3.073v-1.848zM131.54 9.134c1.434-.008 2.602 1.833 2.613 4.117.016 2.278-1.13 4.137-2.56 4.146-1.429.008-2.6-1.837-2.612-4.114-.019-2.284 1.132-4.142 2.558-4.149m5.779 4.122c0-3.308-2.63-5.992-5.872-5.992-3.244 0-5.873 2.684-5.873 5.992 0 2.07 1.033 3.896 2.6 4.972h-6.087v1.933h2.543l.01 4.974c0 1.804 1.475 3.267 3.297 3.267l11.183.004v-1.868h-9.797c-.772 0-1.404-.626-1.404-1.403l.006-4.974h12.73v-1.933h-5.936c1.567-1.076 2.6-2.901 2.6-4.972M146.214 18.595c-.811.01-1.48-1.5-1.492-3.367-.013-1.867.634-3.381 1.45-3.387.812-.005 1.485 1.505 1.498 3.37.007 1.865-.645 3.377-1.456 3.384m4.74-3.38c0-1.709-.744-3.227-1.894-4.178h2.077V9.182h-3.276v-1.93h-3.315v1.93h-3.3v1.855h2.093c-1.152.951-1.895 2.47-1.895 4.178 0 2.898 2.129 5.244 4.753 5.244 2.632 0 4.757-2.346 4.757-5.244" transform="translate(-1001 -3183) translate(0 2839) translate(482 194) translate(519 150)"/>
                        <path fill="#231F20" d="M154.419 27.167c-1.434.004-2.595-1.841-2.6-4.119-.008-2.283 1.146-4.14 2.572-4.142 1.427-.006 2.597 1.84 2.602 4.123.006 2.282-1.147 4.138-2.574 4.138zm2.671-13.429v4.064c-.473-.253-.98-.446-1.515-.558v-3.511l1.515.005zm3.133 9.194V7.761h-3.133v4.13l-1.515-.006v-4.14h-3.157v9.707c-2.29.821-3.931 3.036-3.931 5.651 0 3.309 2.626 5.987 5.875 5.987 3.239 0 5.868-2.678 5.868-5.987 0-.057-.007-.113-.007-.171zM48.59 8.942l-3.447-1.135c-1.682 4.758-5.764 8.187-5.764 8.187V8.378h-3.456v16.697h3.456v-8.72l5.505 8.72h4.353L43.09 16.11s3.91-2.536 5.498-7.168zm23.38 11.005c0-1.47-1.054-2.243-2.327-2.243h-2.934v4.574h2.934c1.285 0 2.327-.86 2.327-2.331zm-5.305-4.83h3.714c.644-.492 1.012-1.224 1.012-2.071 0-1.103-.62-2.005-2.043-2.005h-2.683v4.075zm8.943 4.83c0 3.242-2.257 5.128-5.691 5.128h-6.57V8.378h6.677c2.892 0 4.833 1.815 4.833 4.18 0 1.357-.575 2.48-1.621 3.249 1.288.756 2.372 2.125 2.372 4.14zm-21.505 2.21h6.787v2.918H50.693V8.378h9.977l-.429 2.79h-6.187v3.784h5.25v2.802h-5.201v4.404z" transform="translate(-1001 -3183) translate(0 2839) translate(482 194) translate(519 150)"/>
                        <path fill="#008077" d="M34.488 5.462c0-.427-.374-.707-.783-.698-.41.019-.79.23-1.17.374-7.32 2.782-15.578 3.309-23.293 2.198-1.321-.189-2.657-.455-3.985-.663-.828-.13-1.652-.316-2.488-.381-.713-.052-1.604-.078-2.18.417-.762.657-.706 1.903-.276 2.728.519.986 1.426 1.726 2.371 2.29.917.546 2.012 1.131 3.106 1.062 2.948-.19 5.888-.474 8.82-.854 4.997-.651 10.24-1.264 14.933-3.202 1.534-.633 3.048-1.423 4.364-2.447.238-.181.581-.479.581-.824" transform="translate(-1001 -3183) translate(0 2839) translate(482 194) translate(519 150)"/>
                        <path fill="#D01F37" d="M13.491 2.952c0 1.59 1.29 2.88 2.881 2.88 1.591 0 2.878-1.29 2.878-2.88 0-.237-.053-.475-.155-.69-.245-.523-.526-.778-.494-1.403C18.636.012 17.553 0 16.965 0c-.634 0-1.311.087-1.885.378-.458.23-.852.584-1.13 1.016-.286.442-.446.965-.459 1.49v.068" transform="translate(-1001 -3183) translate(0 2839) translate(482 194) translate(519 150)"/>
                    </g>
                </g>
            </g>
        </g>
    </g>
</svg>
