<svg xmlns="http://www.w3.org/2000/svg" xmlns:xlink="http://www.w3.org/1999/xlink" width="144" height="79" viewBox="0 0 144 79">
    <defs>
        <path id="1lb60twvca" d="M0 77.254L142.33 77.254 142.33 40.657 142.33 0.716 0 0.716z"/>
    </defs>
    <g fill="none" fill-rule="evenodd">
        <g>
            <g>
                <g>
                    <g>
                        <path fill="#E9EEF3" d="M116.931 11.032L120.298 14.281 93.194 40.45 52.526 40.45 26.383 73.399 57.201 51.351 97.869 51.351 128.28 21.988 131.645 25.239 142.33 0.716z" transform="translate(-1226 -2452) translate(482 2190) translate(665 195) translate(79.75 67.006)"/>
                        <path fill="#6979F8" d="M36.355 73.399L47.649 73.399 47.649 51.163 36.355 51.163zM56.414 73.399L67.708 73.399 67.708 35.839 56.414 35.839zM96.533 73.399L107.827 73.399 107.827 19.555 96.533 19.555z" transform="translate(-1226 -2452) translate(482 2190) translate(665 195) translate(79.75 67.006)"/>
                        <g transform="translate(-1226 -2452) translate(482 2190) translate(665 195) translate(79.75 67.006)">
                            <path fill="#FFF" d="M24.247 73.659c-.15 0-.27-.117-.27-.26 0-.144.12-.26.27-.26h88.917c.148 0 .269.116.269.26 0 .143-.12.26-.27.26H24.248z"/>
                            <path fill="#FFF" d="M26.114 38.079c0-.143.12-.26.269-.26.149 0 .27.117.27.26v38.915c0 .143-.121.26-.27.26-.148 0-.27-.117-.27-.26V38.08zm0-35.332c0-.144.12-.26.269-.26.149 0 .27.116.27.26V32.5c0 .144-.121.26-.27.26-.148 0-.27-.116-.27-.26V2.747zM47.648 73.659h-13.46c-.149 0-.27-.117-.27-.26V49.62c0-.143.121-.26.27-.26h13.46c.149 0 .27.117.27.26v23.78c0 .143-.121.26-.27.26zm-13.19-.52h12.921v-23.26H34.457v23.26zM67.708 73.659h-13.46c-.15 0-.27-.117-.27-.26V33.997c0-.143.12-.26.27-.26h13.46c.149 0 .269.117.269.26v39.402c0 .143-.12.26-.27.26zm-13.192-.52h12.922V34.257H54.516v38.882zM107.826 73.659h-13.46c-.148 0-.269-.117-.269-.26V17.942c0-.144.12-.26.269-.26h13.46c.149 0 .27.116.27.26v55.457c0 .143-.121.26-.27.26zm-13.19-.52h12.92V18.202h-12.92v54.937z"/>
                            <mask id="37vxcyi0mb" fill="#fff">
                                <use xlink:href="#1lb60twvca"/>
                            </mask>
                            <path fill="#FFF" d="M54.517 64.174h12.921V58.81H54.517v5.365zm-.27-5.885h13.46c.15 0 .27.116.27.26v5.885c0 .143-.12.26-.27.26h-13.46c-.148 0-.269-.117-.269-.26v-5.886c0-.143.12-.26.27-.26zM54.517 50.75h12.921v-5.366H54.517v5.365zm-.27-5.886h13.46c.15 0 .27.116.27.26v5.885c0 .143-.12.26-.27.26h-13.46c-.148 0-.269-.117-.269-.26v-5.885c0-.144.12-.26.27-.26zM94.635 33.71h12.921v-8.34h-12.92v8.34zm-.269-8.86h13.46c.148 0 .27.117.27.26v8.86c0 .145-.122.26-.27.26h-13.46c-.148 0-.27-.115-.27-.26v-8.86c0-.143.122-.26.27-.26zM94.635 49.84h12.921V41.5h-12.92v8.34zm-.269-8.86h13.46c.148 0 .27.116.27.26v8.86c0 .143-.122.26-.27.26h-13.46c-.148 0-.27-.117-.27-.26v-8.86c0-.144.122-.26.27-.26zM34.457 65.778H47.38v-4.414H34.457v4.414zm-.269-4.934h13.46c.149 0 .27.117.27.26v4.934c0 .143-.121.26-.27.26h-13.46c-.149 0-.27-.117-.27-.26v-4.934c0-.143.121-.26.27-.26zM113.357 73.22c.103.103.1.266-.007.366-.107.099-.277.096-.38-.008l-1.576-1.584c-.102-.103-.098-.267.008-.366.107-.1.277-.097.38.007l1.575 1.584z" mask="url(#37vxcyi0mb)"/>
                            <path fill="#FFF" d="M112.97 73.22c.103-.105.273-.107.38-.009.106.1.11.264.008.367l-1.576 1.584c-.103.104-.273.107-.38.008-.107-.1-.11-.263-.007-.367l1.575-1.584zM26.197 2.56c.107-.1.277-.096.38.007.102.103.1.268-.008.367l-1.641 1.52c-.106.1-.277.096-.38-.006-.102-.104-.099-.268.008-.367l1.64-1.521z" mask="url(#37vxcyi0mb)"/>
                            <path fill="#FFF" d="M26.197 2.934c-.107-.1-.11-.264-.008-.367.103-.103.273-.106.38-.007l1.64 1.52c.108.1.11.264.008.368-.103.102-.273.106-.38.006l-1.64-1.52z" mask="url(#37vxcyi0mb)"/>
                            <path fill="#F4F6F8" d="M26.383 71.931c.84 0 1.52.657 1.52 1.468 0 .81-.68 1.468-1.52 1.468s-1.52-.657-1.52-1.468c0-.81.68-1.468 1.52-1.468" mask="url(#37vxcyi0mb)"/>
                            <path fill="#FFF" d="M27.268 72.545c-.227-.22-.54-.354-.885-.354-.346 0-.659.135-.885.354-.226.218-.366.52-.366.854 0 .334.14.635.366.854.226.219.539.354.885.354s.658-.135.885-.354c.226-.219.366-.52.366-.854 0-.334-.14-.636-.366-.854m-.885-.874c.495 0 .942.193 1.265.506.324.313.525.744.525 1.222 0 .477-.2.909-.525 1.221-.323.314-.77.506-1.265.506-.494 0-.942-.192-1.265-.506-.325-.312-.525-.744-.525-1.22 0-.479.2-.91.525-1.223.323-.313.77-.506 1.265-.506M26.382 68.573c-.148 0-.269-.116-.269-.26 0-.144.12-.26.27-.26h1.05c.149 0 .27.116.27.26 0 .144-.121.26-.27.26h-1.05zM26.382 65.16c-.148 0-.269-.115-.269-.258 0-.145.12-.26.27-.26h1.05c.149 0 .27.115.27.26 0 .143-.121.259-.27.259h-1.05zM26.382 61.75c-.148 0-.269-.116-.269-.26 0-.144.12-.26.27-.26h1.05c.149 0 .27.116.27.26 0 .144-.121.26-.27.26h-1.05zM26.382 58.338c-.148 0-.269-.116-.269-.26 0-.144.12-.26.27-.26h1.05c.149 0 .27.116.27.26 0 .144-.121.26-.27.26h-1.05zM26.382 54.927c-.148 0-.269-.117-.269-.26 0-.144.12-.26.27-.26h1.05c.149 0 .27.116.27.26 0 .143-.121.26-.27.26h-1.05zM26.382 51.515c-.148 0-.269-.116-.269-.26 0-.144.12-.26.27-.26h1.05c.149 0 .27.116.27.26 0 .144-.121.26-.27.26h-1.05zM26.382 48.104c-.148 0-.269-.117-.269-.26 0-.144.12-.26.27-.26h1.05c.149 0 .27.116.27.26 0 .143-.121.26-.27.26h-1.05zM26.382 44.692c-.148 0-.269-.116-.269-.26 0-.143.12-.26.27-.26h1.05c.149 0 .27.117.27.26 0 .144-.121.26-.27.26h-1.05zM26.382 41.28c-.148 0-.269-.116-.269-.26 0-.143.12-.26.27-.26h1.05c.149 0 .27.117.27.26 0 .144-.121.26-.27.26h-1.05zM26.382 31.046c-.148 0-.269-.116-.269-.26 0-.144.12-.26.27-.26h1.307c.15 0 .27.116.27.26 0 .144-.12.26-.27.26h-1.308z" mask="url(#37vxcyi0mb)"/>
                            <path fill="#6979F8" d="M2.284 69.203c.487 0 .884-.383.884-.853s-.397-.853-.884-.853-.884.383-.884.853.397.853.884.853M132.362 27.582c-.149 0-.27-.116-.27-.26 0-.144.121-.26.27-.26h2.454c.148 0 .269.116.269.26 0 .144-.121.26-.27.26h-2.453z" mask="url(#37vxcyi0mb)"/>
                            <path fill="#6979F8" d="M133.32 26.138c0-.144.12-.26.269-.26.149 0 .27.116.27.26v2.369c0 .143-.121.26-.27.26-.149 0-.27-.117-.27-.26v-2.37zM69.906 15.134c.242-.88.954-1.567 1.866-1.8-.912-.235-1.624-.922-1.866-1.801-.242.879-.954 1.566-1.865 1.8.911.234 1.623.92 1.865 1.8" mask="url(#37vxcyi0mb)"/>
                            <path fill="#B8C6D7" d="M10.53 15.72c-.148 0-.269-.117-.269-.26 0-.144.12-.26.27-.26.307 0 .673-.292 1.038-.583.44-.35.88-.701 1.378-.701.498 0 .94.35 1.38.701.365.291.73.583 1.038.583.307 0 .672-.292 1.037-.583l.016-.01c.435-.348.872-.691 1.365-.691.498 0 .938.35 1.379.701.364.291.73.583 1.038.583.308 0 .673-.292 1.038-.583.44-.35.881-.701 1.38-.701.148 0 .268.116.268.26 0 .143-.12.26-.269.26-.307 0-.673.29-1.038.581-.44.351-.88.703-1.379.703-.498 0-.939-.352-1.38-.703-.364-.29-.73-.582-1.037-.582-.304 0-.664.283-1.024.57l-.014.012c-.44.351-.88.703-1.38.703-.498 0-.938-.352-1.379-.703-.365-.29-.73-.582-1.039-.582-.307 0-.672.291-1.037.582-.44.351-.881.703-1.38.703M52.307 9.557c.147 0 .265.115.265.256 0 .142-.118.256-.265.256h-1.879c-.146 0-.264-.114-.264-.256 0-.14.118-.256.264-.256h1.879zm2.394 0c.145 0 .264.115.264.256 0 .142-.119.256-.264.256h-1.319c-.146 0-.264-.114-.264-.256 0-.14.118-.256.264-.256h1.319zm9.82 0c.147 0 .265.114.265.256 0 .14-.118.256-.265.256h-6.666c-.146 0-.265-.115-.265-.256 0-.142.119-.256.265-.256h6.666zM55.718 9.302c.14-.134.33-.216.541-.216.212 0 .403.082.543.216.138.135.224.32.224.523 0 .204-.086.388-.224.522-.14.134-.332.218-.543.218-.21 0-.401-.084-.54-.217-.14-.134-.225-.319-.225-.523 0-.204.085-.39.224-.523m.541.295c-.065 0-.124.026-.166.067-.043.041-.07.098-.07.16 0 .064.027.121.07.162.042.041.101.067.166.067.066 0 .126-.026.168-.066.042-.04.069-.099.069-.162 0-.064-.027-.12-.07-.162-.042-.04-.102-.066-.167-.066" mask="url(#37vxcyi0mb)"/>
                            <path fill="#6979F8" d="M18.73 19.622c-.149 0-.27-.117-.27-.26 0-.144.121-.26.27-.26h2.453c.15 0 .27.116.27.26 0 .143-.12.26-.27.26H18.73z" mask="url(#37vxcyi0mb)"/>
                            <path fill="#6979F8" d="M19.688 18.177c0-.143.12-.26.269-.26.149 0 .27.117.27.26v2.37c0 .143-.121.26-.27.26-.149 0-.27-.117-.27-.26v-2.37zM48 33.103c.362 0 .658-.286.658-.636 0-.351-.296-.637-.659-.637-.363 0-.659.286-.659.637 0 .35.296.636.66.636" mask="url(#37vxcyi0mb)"/>
                            <path fill="#B8C6D7" d="M111.565 23.611c-.149 0-.269-.116-.269-.26 0-.144.12-.26.27-.26.307 0 .672-.29 1.037-.582.44-.35.881-.702 1.38-.702.498 0 .938.351 1.379.702.365.291.73.582 1.038.582.307 0 .673-.29 1.038-.582.44-.35.88-.702 1.38-.702.497 0 .938.351 1.378.702.365.291.732.582 1.039.582.307 0 .673-.29 1.038-.582.44-.35.88-.702 1.38-.702.148 0 .268.117.268.26 0 .143-.12.26-.269.26-.308 0-.673.291-1.038.582-.44.351-.881.702-1.38.702-.497 0-.938-.35-1.379-.702-.365-.29-.73-.582-1.038-.582-.306 0-.672.291-1.037.582-.441.351-.882.702-1.38.702-.498 0-.939-.35-1.38-.702-.364-.29-.73-.582-1.038-.582-.307 0-.673.291-1.038.582-.44.351-.88.702-1.379.702" mask="url(#37vxcyi0mb)"/>
                            <path fill="#FFF" d="M79.393 15.707c.13-.068.294-.023.365.103.07.125.023.283-.107.352-3.925 2.08-3.767 5.362-3.706 6.622.009.182.015.326.01.429-.027.43-.29.795-.528 1.12-.188.261-.35.486-.275.567.144.156.852-.021 1.51-.186.448-.113.877-.22 1.179-.22.323 0 .644.076 1.027.168.535.129 1.204.288 2.169.288.965 0 1.634-.16 2.168-.288.384-.092.705-.169 1.028-.169.301 0 .73.108 1.18.221.656.165 1.364.342 1.508.186.077-.081-.086-.306-.275-.566-.236-.326-.5-.691-.526-1.12l-.001-.005c-.006-.103.001-.245.01-.426.06-1.26.218-4.542-3.707-6.621-.13-.069-.177-.227-.106-.352.072-.126.235-.171.365-.103 4.218 2.235 4.049 5.749 3.984 7.1-.008.163-.014.293-.01.374v.002c.018.285.236.586.43.855.32.44.595.82.236 1.207-.362.392-1.234.174-2.043-.03-.412-.103-.805-.201-1.045-.201-.263 0-.553.068-.9.152-.565.135-1.272.304-2.296.304-1.024 0-1.732-.169-2.296-.304-.347-.084-.637-.152-.9-.152-.24 0-.633.098-1.045.201-.809.203-1.68.422-2.043.03-.36-.387-.084-.767.235-1.207.195-.269.413-.57.43-.855.005-.08-.001-.21-.01-.376-.065-1.35-.234-4.865 3.985-7.1m3.428-1.104c0 .144-.12.26-.269.26-.149 0-.27-.116-.27-.26 0-.22.181-.585.435-.956.248-.366.573-.755.857-1.016-.083-.061-.226-.132-.38-.208-.228-.113-.474-.234-.656-.388l-.017-.016c-.12-.103-.191-.215-.265-.33-.156-.24-.328-.505-1.219-.507-.892.002-1.063.267-1.219.507-.078.12-.154.238-.283.346-.182.154-.427.275-.655.388-.154.076-.298.147-.381.208.284.261.61.65.858 1.016.253.371.433.735.433.956 0 .144-.12.26-.269.26-.148 0-.268-.116-.268-.26 0-.117-.144-.379-.343-.672-.232-.34-.536-.703-.795-.939l-.004-.002c-.268-.233-.253-.445-.071-.65l.015-.017c.128-.137.346-.245.58-.36.197-.098.408-.202.548-.32.067-.055.122-.14.179-.227.23-.357.484-.75 1.675-.752 1.19.003 1.444.395 1.674.75.054.084.106.164.168.22l.012.01c.139.117.35.221.547.318.235.116.453.224.58.361.197.21.22.427-.056.667-.26.236-.566.599-.798.941-.2.293-.343.555-.343.672" mask="url(#37vxcyi0mb)"/>
                            <path fill="#FFF" d="M79.134 15.675h3.805v-.811h-3.805v.811zm-.269-1.332h4.343c.15 0 .27.116.27.26v1.332c0 .143-.12.26-.27.26h-4.343c-.149 0-.269-.117-.269-.26v-1.332c0-.144.12-.26.27-.26zM82.47 19.478c0 .144-.12.26-.269.26-.148 0-.269-.116-.269-.26 0-.24-.1-.455-.262-.612l-.011-.012c-.161-.15-.38-.241-.622-.241-.248 0-.472.097-.633.252-.162.157-.263.373-.263.613s.1.455.261.611c.163.157.387.254.635.254.394 0 .752.155 1.013.405l.001.002c.26.25.42.596.42.977s-.161.727-.42.978l-.002.002c-.26.25-.618.405-1.012.405-.395 0-.754-.156-1.013-.406-.26-.251-.421-.597-.421-.98 0-.142.12-.259.27-.259.148 0 .268.117.268.26 0 .239.1.456.262.612.162.156.386.253.634.253s.471-.097.633-.253c.162-.156.262-.372.262-.612s-.1-.456-.26-.61c-.164-.158-.387-.255-.635-.255-.395 0-.753-.155-1.012-.405l-.002-.002c-.26-.25-.42-.597-.42-.977s.16-.726.42-.978V18.5c.261-.25.62-.406 1.014-.406.387 0 .738.15.997.391l.016.015c.26.25.42.597.42.979" mask="url(#37vxcyi0mb)"/>
                            <path fill="#FFF" d="M80.768 22.852c0-.144.12-.26.269-.26.149 0 .27.116.27.26v.698c0 .144-.121.26-.27.26-.149 0-.27-.116-.27-.26v-.698zm0-5.197c0-.143.12-.26.269-.26.149 0 .27.117.27.26v.699c0 .143-.121.259-.27.259-.149 0-.27-.116-.27-.26v-.698z" mask="url(#37vxcyi0mb)"/>
                            <path fill="#6979F8" d="M76.474 73.399L87.768 73.399 87.768 28.667 76.474 28.667z" mask="url(#37vxcyi0mb)"/>
                            <path fill="#FFF" d="M87.767 73.659h-13.46c-.15 0-.27-.117-.27-.26V26.825c0-.143.12-.26.27-.26h13.46c.149 0 .27.117.27.26v46.574c0 .143-.121.26-.27.26zm-13.191-.52h12.922V27.085H74.576v46.054z" mask="url(#37vxcyi0mb)"/>
                            <path fill="#FFF" d="M74.576 51.852h12.922v-11.25H74.576v11.25zm-.27-11.77h13.46c.15 0 .27.117.27.26v11.77c0 .144-.12.26-.27.26h-13.46c-.148 0-.268-.116-.268-.26v-11.77c0-.143.12-.26.269-.26zM54.567 27.08H67.39v-5.93H54.567v5.93zm-.27-6.45h13.361c.149 0 .27.116.27.26v6.45c0 .144-.121.26-.27.26H54.297c-.148 0-.27-.116-.27-.26v-6.45c0-.144.122-.26.27-.26z" mask="url(#37vxcyi0mb)"/>
                            <path fill="#FFF" d="M56.77 27.34c0 .144-.121.26-.27.26-.149 0-.27-.116-.27-.26 0-.514-.217-.98-.567-1.32-.35-.337-.835-.547-1.366-.547-.149 0-.27-.117-.27-.26 0-.144.121-.26.27-.26.68 0 1.298.268 1.746.701.448.433.726 1.03.726 1.686m10.89-2.388c.148 0 .269.117.269.26 0 .144-.12.26-.27.26-.53 0-1.015.21-1.365.55-.35.337-.568.805-.568 1.318 0 .144-.121.26-.27.26-.148 0-.269-.116-.269-.26 0-.656.278-1.254.726-1.686.448-.433 1.067-.702 1.746-.702m-2.472-4.063c0-.143.12-.26.27-.26.148 0 .269.117.269.26 0 .513.217.981.568 1.319.35.338.835.549 1.365.549.15 0 .27.116.27.26 0 .143-.12.26-.27.26-.68 0-1.298-.27-1.746-.702-.448-.432-.726-1.03-.726-1.686m-10.889 2.387c-.149 0-.27-.116-.27-.26 0-.143.121-.26.27-.26.53 0 1.016-.21 1.365-.548.351-.338.569-.806.569-1.319 0-.143.12-.26.269-.26.149 0 .27.117.27.26 0 .657-.279 1.254-.727 1.686-.448.433-1.066.701-1.746.701M61.958 23.167c-.25-.242-.597-.391-.98-.391s-.73.15-.98.392c-.252.242-.407.577-.407.946 0 .364.15.695.393.935l.013.012c.25.242.598.393.98.393.384 0 .731-.15.981-.392.251-.242.406-.577.406-.948 0-.37-.155-.704-.406-.947m-.98-.911c.53 0 1.011.208 1.36.545.35.336.565.8.565 1.313 0 .512-.216.977-.564 1.314l-.002.001c-.348.337-.83.544-1.36.544-.53 0-1.013-.208-1.36-.545l-.015-.015c-.34-.335-.55-.794-.55-1.299 0-.512.216-.977.565-1.314.347-.336.83-.544 1.36-.544M64.374 24.375c-.15 0-.27-.117-.27-.26 0-.144.12-.26.27-.26h1.544c.149 0 .27.116.27.26 0 .143-.121.26-.27.26h-1.544z" mask="url(#37vxcyi0mb)"/>
                            <path fill="#404D61" d="M56.037 24.375c-.149 0-.27-.117-.27-.26 0-.144.121-.26.27-.26h1.544c.15 0 .27.116.27.26 0 .143-.12.26-.27.26h-1.544z" mask="url(#37vxcyi0mb)"/>
                            <path fill="#FFF" d="M54.297 29.203c-.149 0-.27-.117-.27-.26 0-.144.121-.26.27-.26h13.361c.15 0 .27.116.27.26 0 .143-.12.26-.27.26H54.297zM54.297 30.806c-.149 0-.27-.117-.27-.26 0-.144.121-.26.27-.26h13.361c.15 0 .27.116.27.26 0 .143-.12.26-.27.26H54.297zM54.297 32.409c-.149 0-.27-.116-.27-.26 0-.144.121-.26.27-.26h13.361c.15 0 .27.116.27.26 0 .144-.12.26-.27.26H54.297zM44.23 39.144h-7.825c-.148 0-.27-.116-.27-.26v-1.873c0-.144.122-.26.27-.26h7.825c.149 0 .27.116.27.26v1.873c0 .144-.121.26-.27.26zm-7.556-.52h7.286v-1.353h-7.286v1.353zM46.844 42.21c-.634-.612-1.511-.991-2.479-.991-.968 0-1.846.378-2.479.99-.635.613-1.027 1.459-1.027 2.394 0 .936.392 1.783 1.026 2.393.634.613 1.512.992 2.48.992s1.845-.379 2.479-.992c.635-.61 1.027-1.457 1.027-2.393 0-.928-.388-1.77-1.014-2.38l-.013-.013zm-2.479-1.51c1.116 0 2.128.436 2.86 1.143l.014.015c.724.705 1.17 1.676 1.17 2.745 0 1.078-.453 2.054-1.185 2.76-.73.708-1.743 1.145-2.859 1.145-1.116 0-2.126-.437-2.858-1.143l-.002-.003c-.732-.706-1.184-1.682-1.184-2.759s.453-2.053 1.184-2.76h.002c.733-.707 1.743-1.144 2.858-1.144z" mask="url(#37vxcyi0mb)"/>
                            <path fill="#FFF" d="M45.307 41.017h-7.824c-.148 0-.269-.117-.269-.26v-1.873c0-.143.12-.26.27-.26h7.823c.15 0 .27.117.27.26v1.873c0 .143-.12.26-.27.26zm-7.555-.52h7.286v-1.353h-7.286v1.353z" mask="url(#37vxcyi0mb)"/>
                            <path fill="#FFF" d="M44.202 40.96c0 .144-.121.26-.27.26-.128 0-.235-.087-.262-.203h-7.293v1.353h4.302c.148 0 .269.116.269.26 0 .143-.12.259-.27.259h-4.57c-.149 0-.27-.116-.27-.26v-1.872c0-.144.121-.26.27-.26h7.825c.148 0 .27.116.27.26v.203z" mask="url(#37vxcyi0mb)"/>
                            <path fill="#FFF" d="M41.191 42.37c.15 0 .27.116.27.26 0 .144-.12.26-.27.26h-4.246v1.352h3.647c.148 0 .27.117.27.26 0 .144-.122.26-.27.26h-3.917c-.148 0-.269-.116-.269-.26V42.63c0-.144.12-.26.27-.26h4.515z" mask="url(#37vxcyi0mb)"/>
                            <path fill="#FFF" d="M40.592 44.243c.149 0 .27.116.27.26 0 .143-.121.26-.27.26h-4.214v1.353h4.667c.148 0 .269.116.269.26 0 .142-.12.26-.27.26h-4.936c-.148 0-.269-.118-.269-.26v-1.873c0-.144.12-.26.269-.26h4.484z" mask="url(#37vxcyi0mb)"/>
                            <path fill="#FFF" d="M41.066 46.116c.149 0 .269.116.269.26 0 .143-.12.26-.27.26H36.81v1.352h7.556c.149 0 .27.117.27.26 0 .143-.121.26-.27.26H36.54c-.148 0-.27-.117-.27-.26v-1.872c0-.144.122-.26.27-.26h4.526zM45.589 43.682c0 .144-.12.26-.27.26-.148 0-.269-.116-.269-.26 0-.183-.077-.348-.2-.468l-.012-.012c-.122-.112-.29-.182-.473-.182-.189 0-.361.075-.484.194-.124.12-.201.285-.201.468 0 .184.077.349.2.467.124.12.296.195.485.195.337 0 .644.132.865.346l.016.016c.212.212.343.502.343.819 0 .326-.138.622-.359.835l-.017.015c-.22.205-.52.33-.848.33-.338 0-.644-.131-.865-.345-.221-.213-.358-.509-.358-.835 0-.143.12-.26.268-.26.15 0 .27.117.27.26 0 .182.077.348.2.468.124.12.296.194.485.194.183 0 .35-.07.473-.182l.012-.012c.123-.12.2-.286.2-.468 0-.177-.072-.339-.188-.457l-.012-.01c-.124-.12-.296-.195-.485-.195-.338 0-.644-.132-.865-.345-.221-.215-.358-.51-.358-.836 0-.326.137-.621.358-.835.22-.214.527-.347.865-.347.329 0 .628.127.848.332l.017.015c.221.214.359.509.359.835" mask="url(#37vxcyi0mb)"/>
                            <path fill="#FFF" d="M44.096 46.446c0-.143.12-.26.27-.26.148 0 .268.117.268.26v.572c0 .144-.12.26-.269.26-.149 0-.269-.116-.269-.26v-.572zm0-4.257c0-.144.12-.26.27-.26.148 0 .268.116.268.26v.572c0 .143-.12.26-.269.26-.149 0-.269-.117-.269-.26v-.572zM101.096 13.7h-4.49c-.023-.001-.045-.004-.068-.01-.143-.035-.23-.177-.192-.315l.825-3.06c.022-.123.132-.217.265-.217h2.83c.119.001.228.078.26.195l.823 3.06c.011.027.016.056.016.087 0 .143-.12.26-.269.26zm-4.143-.52h3.796l-.69-2.562h-2.416l-.69 2.562z" mask="url(#37vxcyi0mb)"/>
                            <path fill="#FFF" d="M105.587 13.7h-4.49c-.023-.001-.046-.004-.068-.01-.144-.035-.23-.177-.193-.315l.826-3.06c.02-.123.131-.217.264-.217h2.83c.12.001.228.078.26.195l.824 3.06c.01.027.016.056.016.087 0 .143-.12.26-.27.26zm-4.144-.52h3.797l-.691-2.562h-2.415l-.69 2.562z" mask="url(#37vxcyi0mb)"/>
                            <path fill="#FFF" d="M103.341 10.618h-4.49c-.023 0-.044-.004-.068-.01-.142-.035-.228-.176-.192-.315l.825-3.06c.022-.123.132-.216.265-.216h2.83c.119 0 .228.078.26.194l.824 3.06c.01.027.015.057.015.087 0 .144-.12.26-.269.26zm-4.143-.52h3.796l-.69-2.562h-2.415l-.691 2.562zM98.85 16.781h-4.49c-.022 0-.044-.003-.067-.01-.143-.034-.23-.176-.192-.315l.825-3.06c.02-.123.132-.216.265-.216h2.83c.119 0 .228.079.26.195l.823 3.06c.01.027.016.056.016.086 0 .144-.12.26-.27.26zm-4.143-.52h3.797l-.69-2.561h-2.416l-.69 2.561z" mask="url(#37vxcyi0mb)"/>
                            <path fill="#FFF" d="M103.342 16.781h-4.49c-.023 0-.046-.003-.068-.01-.144-.034-.23-.176-.193-.315l.825-3.06c.021-.123.132-.216.265-.216h2.83c.12 0 .228.079.26.195l.824 3.06c.01.026.016.056.016.086 0 .144-.12.26-.27.26zm-4.144-.52h3.797l-.691-2.561h-2.415l-.691 2.561z" mask="url(#37vxcyi0mb)"/>
                            <path fill="#FFF" d="M107.832 16.781h-4.49c-.023 0-.045-.003-.068-.01-.143-.034-.23-.176-.193-.315l.826-3.06c.02-.123.131-.216.264-.216h2.83c.12 0 .228.079.26.195l.824 3.06c.01.026.016.056.016.086 0 .144-.12.26-.27.26zm-4.144-.52h3.797l-.691-2.561h-2.415l-.69 2.561zM105.418 8.621c-.105.102-.276.102-.38 0-.105-.1-.105-.266 0-.367l1.558-1.504c.104-.101.275-.101.38 0 .105.101.105.266 0 .368l-1.558 1.503zm-4.052-2.794c0 .143-.121.26-.27.26-.149 0-.27-.117-.27-.26V3.699c0-.144.121-.26.27-.26.149 0 .27.116.27.26v2.128zm-4.28 2.427c.104.101.104.266 0 .367-.105.102-.277.102-.381 0l-1.559-1.503c-.104-.102-.104-.267 0-.368.106-.101.276-.101.381 0l1.558 1.504zM26.382 27.635c-.148 0-.269-.117-.269-.26 0-.144.12-.26.27-.26h1.05c.149 0 .27.116.27.26 0 .143-.121.26-.27.26h-1.05zM26.382 24.223c-.148 0-.269-.116-.269-.26 0-.144.12-.26.27-.26h1.05c.149 0 .27.116.27.26 0 .144-.121.26-.27.26h-1.05zM26.382 20.812c-.148 0-.269-.117-.269-.26 0-.144.12-.26.27-.26h1.05c.149 0 .27.116.27.26 0 .143-.121.26-.27.26h-1.05zM26.382 17.4c-.148 0-.269-.116-.269-.26 0-.144.12-.26.27-.26h1.05c.149 0 .27.116.27.26 0 .144-.121.26-.27.26h-1.05zM26.382 13.988c-.148 0-.269-.116-.269-.26 0-.143.12-.26.27-.26h1.05c.149 0 .27.117.27.26 0 .144-.121.26-.27.26h-1.05zM26.382 10.577c-.148 0-.269-.117-.269-.26 0-.143.12-.26.27-.26h1.05c.149 0 .27.117.27.26 0 .143-.121.26-.27.26h-1.05zM26.382 7.165c-.148 0-.269-.116-.269-.26 0-.143.12-.26.27-.26h1.05c.149 0 .27.117.27.26 0 .144-.121.26-.27.26h-1.05z" mask="url(#37vxcyi0mb)"/>
                            <path fill="#F4F6F8" d="M95.216 58.862h5.82v6.874l-.528.113v7.55H83.986v-7.55l-.529-.113v-6.874h5.82v-2.12c0-.217.184-.393.408-.393h5.125c.223 0 .406.176.406.392v2.12z" mask="url(#37vxcyi0mb)"/>
                            <path fill="#404D61" d="M93.772 67.559c-.145.03-.288-.058-.32-.196-.032-.14.06-.28.204-.31l7.11-1.525v-6.406h-17.04v6.406l7.111 1.526c.145.03.236.168.205.309-.033.138-.176.226-.32.196l-7.298-1.566c-.133-.016-.236-.126-.236-.258v-6.873c0-.143.12-.26.27-.26h17.577c.149 0 .27.117.27.26v6.873c-.001.12-.087.226-.212.253l-7.321 1.57z" mask="url(#37vxcyi0mb)"/>
                            <path fill="#404D61" d="M95.485 58.862c0 .143-.12.26-.269.26-.149 0-.269-.117-.269-.26v-2.12c0-.037-.016-.07-.04-.094-.026-.024-.06-.039-.098-.039h-5.124c-.038 0-.073.015-.097.04l-.01.007c-.019.023-.032.053-.032.085v2.121c0 .143-.12.26-.269.26-.148 0-.269-.117-.269-.26v-2.12c0-.17.07-.327.182-.443l.017-.018c.122-.118.292-.192.478-.192h5.124c.186 0 .356.074.477.192.122.118.2.281.2.46v2.121zM100.238 65.848c0-.143.121-.26.27-.26.148 0 .268.117.268.26v7.55c0 .144-.12.26-.269.26h-16.52c-.15 0-.27-.116-.27-.26v-7.55c0-.143.12-.26.27-.26.147 0 .268.117.268.26v7.291h15.983v-7.29z" mask="url(#37vxcyi0mb)"/>
                            <path fill="#404D61" d="M91.049 68.308h2.396v-2.313h-2.396v2.313zm-.27-2.833h2.935c.148 0 .27.117.27.26v2.833c0 .144-.122.26-.27.26H90.78c-.15 0-.27-.116-.27-.26v-2.833c0-.143.12-.26.27-.26z" mask="url(#37vxcyi0mb)"/>
                            <path fill="#6979F8" d="M36.9 22.988c1.048.515 2.235.806 3.492.806 4.122 0 7.49-3.121 7.708-7.048h-3.97c-.208 1.815-1.803 3.227-3.738 3.227-.536 0-1.047-.109-1.508-.304l-1.985 3.32z" mask="url(#37vxcyi0mb)"/>
                            <path fill="#B8C6D7" d="M39.973 8.9c-4.067.21-7.3 3.462-7.3 7.442 0 2.613 1.395 4.912 3.504 6.243l1.985-3.32c-.929-.66-1.531-1.724-1.531-2.923 0-1.869 1.462-3.408 3.342-3.61V8.9z" mask="url(#37vxcyi0mb)"/>
                            <path fill="#6979F8" d="M46.858 12.272c-1.307-1.93-3.515-3.241-6.047-3.372v3.833c1.069.114 2.003.661 2.61 1.455l3.437-1.916z" mask="url(#37vxcyi0mb)"/>
                            <path fill="#B8C6D7" d="M48.1 15.937c-.06-1.064-.35-2.069-.824-2.968l-3.438 1.916c.15.329.25.682.292 1.052h3.97z" mask="url(#37vxcyi0mb)"/>
                            <path fill="#404D61" d="M38.963 25.721c-.149 0-.269-.117-.269-.26 0-.143.12-.26.27-.26h2.095c.15 0 .27.117.27.26 0 .143-.12.26-.27.26h-2.096zm3.538 0c-.149 0-.27-.117-.27-.26 0-.143.121-.26.27-.26h2.059c.149 0 .269.117.269.26 0 .143-.12.26-.27.26h-2.058zm-5.295 1.667c-.149 0-.27-.117-.27-.26 0-.144.121-.26.27-.26h.748c.149 0 .27.116.27.26 0 .143-.121.26-.27.26h-.748zm2.12 0c-.148 0-.27-.117-.27-.26 0-.144.122-.26.27-.26h1.461c.149 0 .27.116.27.26 0 .143-.121.26-.27.26h-1.461zm2.873 0c-.149 0-.27-.117-.27-.26 0-.144.121-.26.27-.26h1.122c.148 0 .269.116.269.26 0 .143-.12.26-.27.26H42.2zm-5.986-1.667c-.149 0-.27-.117-.27-.26 0-.143.121-.26.27-.26h.995c.15 0 .27.117.27.26 0 .143-.12.26-.27.26h-.995z" mask="url(#37vxcyi0mb)"/>
                            <path fill="#FFF" d="M20.698 36.398c-.148-.014-.256-.14-.242-.282.014-.143.145-.247.292-.234l5.027.473 4.474.267.102-2.13-4.497-.324c-.023-.002-.044-.006-.065-.013l-6.787-1.739-.032-.01-2.835-1.113c-.137-.054-.204-.205-.148-.338.055-.132.212-.197.35-.143l2.822 1.108 6.757 1.731 4.735.343c.144.01.254.13.248.27l-.126 2.648c-.009.143-.136.252-.284.243-3.357-.2-6.441-.442-9.791-.757M32.599 34.896c-.147.024-.286-.07-.31-.212-.025-.142.074-.276.22-.3l1.187-.197c.023-.004.047-.005.07-.003.25.015.465.015.652.015.193 0 .36 0 .505.014.625.062.87.303.763 1.317-.196 1.835-1.251 1.787-2.52 1.728l-.2-.01-.056-.007-1.414-.278c-.145-.028-.24-.165-.21-.305.028-.14.17-.23.315-.203l1.407.276.184.009c.99.046 1.816.084 1.96-1.261.063-.59-.032-.725-.283-.75-.124-.013-.276-.013-.451-.013-.196 0-.42 0-.662-.013l-1.157.193zM31.665 34.762c-.058.132-.217.192-.352.135-.136-.056-.198-.208-.14-.34l.29-.646c.023-.053.062-.094.11-.12l.653-.37c.037-.021.077-.033.117-.036l.614-.043c.148-.01.276.098.287.24.01.143-.101.268-.25.278l-.552.039-.522.295-.255.568zM11.54 30.654L7.957 32.31c-.447.206-.72.52-.907.9-.174.352-.266.754-.358 1.175l-1.729 7.93c-.005.024-.006.048-.005.07l.361 7.475c.006.109.08.2.18.234l1.68.644c.138.053.294-.013.349-.145.054-.134-.014-.284-.151-.337l-1.529-.586-.352-7.282 1.722-7.898c.084-.385.168-.754.318-1.058.137-.278.334-.508.653-.655l3.583-1.656c.133-.061.19-.216.126-.345-.064-.13-.224-.183-.358-.122zM9.05 36.767c.025-.142.165-.237.31-.212.147.025.245.16.22.3l-1.07 5.823-.281 7.315c-.006.142-.13.254-.278.249-.148-.004-.263-.125-.258-.268l.284-7.373 1.073-5.834zM5.113 50.504c.094-.11.264-.127.379-.036.115.09.132.255.038.366l-.783.923.256.735 1.798.516.105-.052-.513-.709c-.07-.096-.062-.223.012-.312l.64-.76c.087-.104.24-.125.353-.054l.535.302c.085.048.132.133.133.22l.01.777c.002.144-.117.26-.265.262-.147.002-.269-.113-.27-.256l-.01-.63-.215-.122-.367.438.594.823c.066.128.013.284-.12.35l-.474.232c-.06.029-.13.036-.197.017l-2.034-.583c-.083-.023-.151-.083-.18-.167l-.342-.981c-.036-.086-.024-.187.04-.263l.877-1.036zM10.328 52.988l.12-1.182c.013-.142-.095-.269-.243-.282-.147-.013-.278.092-.292.234l-.119 1.18c-.013.143.095.27.242.283.147.014.279-.092.292-.233m5.218-1.356c.036-.139.181-.224.326-.19.143.036.23.177.195.316l-.43 1.658 1.394 6.815c.005.022.006.042.005.065 0 .003-.056 1.183.093 2.993.131 1.577.539 7.537.64 9.01l2.868-.876-.425-2.12-.005-.059c.048-1.21.086-2.59.12-3.922.056-2.101.11-4.083.196-5.053.078-.87.02-2.108-.113-3.504-.132-1.402-.34-2.971-.556-4.491-.02-.142.083-.272.23-.292.147-.019.282.08.302.222.216 1.52.424 3.093.559 4.515.134 1.429.195 2.698.114 3.595-.088.983-.14 2.943-.195 5.021-.035 1.327-.072 2.705-.119 3.896l.465 2.32c.026.132-.054.258-.182.297l-3.424 1.047c-.143.043-.294-.033-.338-.17-.008-.023-.012-.048-.012-.072-.021-.306-.51-7.512-.66-9.324-.138-1.655-.104-2.81-.096-3.027l-1.168-5.705-1.986 7.652-1.9 9.839c-.027.14-.167.234-.313.208-.023-.004-.044-.01-.064-.02l-1.287-.573-1.353.563c-.136.056-.295-.005-.353-.136-.02-.043-.026-.088-.02-.131l.529-8.214c.008-.143.136-.252.283-.244.148.009.262.132.253.275l-.503 7.806 1.061-.443c.068-.027.147-.029.218.004l1.085.483c1.369-7.089 2.756-13.064 4.566-20.034" mask="url(#37vxcyi0mb)"/>
                            <path fill="#FFF" d="M21.823 72.753c-.424-.116-.923-.252-1.416-.58l-2.076.511-.018.455h4.303c-.125-.205-.423-.285-.793-.386m-1.185-1.056c.44.314.923.445 1.33.557.724.196 1.26.343 1.247 1.148-.002.143-.122.255-.268.255l-4.913.002c-.15 0-.27-.117-.27-.26l.039-.929c.004-.117.09-.213.201-.242l2.39-.587c.09-.022.18.002.244.056M10.542 72.533c-.081-.161-.161-.32-.213-.466l-.57-.355-.6.25c-.174.072-.419.487-.552.857-.043.118-.072.227-.08.311v.011h2.219c.03 0 .042.03.042.018 0-.133-.125-.384-.246-.626m.278-.686c.034.119.119.288.205.461.148.295.301.601.301.851 0 .304-.153.502-.58.502H8.424c-.137 0-.243-.05-.322-.141l-.01-.01c-.085-.107-.114-.255-.099-.424.012-.132.051-.283.106-.438.173-.478.542-1.037.847-1.164l.731-.304c.088-.037.186-.024.26.026l.765.475c.062.04.103.1.118.166M15.013 31.79c.062-.13.221-.187.357-.126.134.06.193.214.13.344l-.697 1.452c-.062.13-.222.187-.357.127-.033-.016-.063-.036-.087-.062l-1.136-1.22c-.1-.106-.09-.27.02-.366.11-.095.28-.087.38.02l.864.927.526-1.096z" mask="url(#37vxcyi0mb)"/>
                            <path fill="#6979F8" d="M14.414 40.411l1.62 1.447 1.129-1.783c-.478-2.376-1.36-4.612-2.605-6.723.331 2.374.304 4.729-.144 7.06" mask="url(#37vxcyi0mb)"/>
                            <path fill="#FFF" d="M15.851 42.048l-1.606-1.436c-.074-.057-.113-.151-.095-.247.221-1.152.339-2.31.36-3.47.02-1.164-.054-2.334-.217-3.51-.014-.1.035-.206.133-.259.13-.07.293-.027.366.097.629 1.068 1.166 2.167 1.607 3.3.442 1.134.786 2.302 1.028 3.503.012.06 0 .127-.034.184l-1.131 1.784-.032.04c-.1.105-.27.111-.379.014m-1.147-1.73l1.27 1.136.906-1.429c-.235-1.138-.565-2.246-.983-3.32-.271-.695-.58-1.38-.924-2.05.062.75.087 1.5.073 2.247-.02 1.144-.132 2.284-.342 3.417M11.74 30.463c.124-.078.29-.044.37.076.082.12.046.28-.078.359-.297.187-.223.488-.053 1.174.17.685.42 1.69.495 3.241l.06 1.153c.242 4.683.575 11.086-.86 15.409-.039.115-.154.187-.274.179-.287-.007-.557-.007-.778-.007-.777-.001-.921-.001-1.73-.385-.101-.048-.157-.15-.15-.252.185-2.398.302-4.984.293-7.335-.007-2.029-.108-3.888-.339-5.306-.022-.142.078-.274.224-.295.147-.023.284.075.307.215.234 1.446.336 3.332.344 5.386.01 2.318-.102 4.848-.28 7.198.559.255.715.255 1.331.255.155-.001.338-.001.6.004 1.336-4.231 1.013-10.464.775-15.041l-.058-1.153c-.075-1.506-.316-2.482-.481-3.146-.232-.933-.333-1.343.281-1.729" mask="url(#37vxcyi0mb)"/>
                            <path fill="#FFF" d="M15.644 30.816c-.11-.096-.116-.26-.015-.365.1-.105.27-.111.378-.015.688.616 1.208 1.512 1.594 2.556.451 1.217.725 2.644.879 4.055.274 2.521.471 4.85.588 7.182.112 2.23.151 4.466.119 6.88l1.707-.33c.059-2.094-.079-5.052-.342-7.897-.258-2.79-.639-5.472-1.073-7.12-.036-.139.05-.28.194-.316.145-.035.291.049.328.188.44 1.667.824 4.38 1.085 7.203.274 2.95.412 6.024.338 8.144.006.126-.084.241-.216.266l-2.242.434-.056.004c-.149-.002-.266-.12-.264-.263.04-2.52.003-4.845-.115-7.169-.115-2.32-.311-4.64-.585-7.153-.15-1.37-.416-2.755-.853-3.934-.36-.972-.833-1.799-1.45-2.35" mask="url(#37vxcyi0mb)"/>
                            <path fill="#FFF" d="M12.59 49.094c-.148-.01-.26-.135-.25-.278.011-.143.14-.25.287-.24.9.064 1.968.066 3.005.024 1.128-.046 2.222-.145 3.031-.27.146-.023.284.074.307.215.023.141-.077.274-.223.296-.828.13-1.946.23-3.094.276-1.06.044-2.149.042-3.063-.023M16.54 25.533c-.039-.138.046-.28.19-.318.143-.036.29.046.329.185.06.217.106.448.133.69.027.232.037.478.03.734-.033 1.193-.353 2.37-.902 3.22-.52.807-1.247 1.33-2.137 1.33-.842 0-1.687-.478-2.334-1.225-.624-.72-1.07-1.697-1.152-2.73-.01-.144.1-.269.248-.279.148-.01.278.097.288.24.074.922.471 1.793 1.028 2.436.548.633 1.245 1.039 1.922 1.039.683 0 1.257-.427 1.681-1.085.5-.774.79-1.854.822-2.958.006-.23-.004-.451-.028-.665-.025-.215-.065-.42-.118-.614" mask="url(#37vxcyi0mb)"/>
                            <path fill="#FFF" d="M13.755 25.758c1.278.018 2.506.036 3.275-.857-.5-.946-.849-1.536-1.193-1.825-.306-.255-.64-.255-1.156-.058-.094.035-.205.018-.283-.055-.173-.158-.418-.23-.678-.25-.409-.033-.844.06-1.126.143l-.011.004c-.91.272-1.37.667-1.586 1.325-.22.666-.215 1.617-.166 2.965.458-.033.815-.174 1.662-1.284.047-.062.123-.103.207-.105.35-.013.705-.008 1.055-.003m3.799-.664c-.925 1.222-2.334 1.203-3.805 1.182-.3-.004-.6-.009-.9-.001-1.057 1.358-1.48 1.375-2.186 1.402l-.08.003c-.148.005-.273-.106-.279-.249v-.003c-.059-1.539-.078-2.611.18-3.399.275-.838.839-1.334 1.939-1.665l.013-.003c.328-.097.839-.205 1.327-.166.313.024.618.107.871.287.643-.22 1.1-.178 1.553.203.433.36.828 1.04 1.4 2.127.049.095.032.206-.033.282M11.42 30.765c.07-.126.233-.173.364-.106.13.068.179.226.109.351l-1.419 2.53c.43.71.807 1.48 1.145 2.292.356.856.67 1.766.954 2.71.041.137-.04.282-.183.321-.142.04-.29-.04-.332-.176-.278-.925-.586-1.818-.938-2.662-.347-.835-.736-1.62-1.178-2.338-.052-.077-.06-.179-.012-.265l1.49-2.657zM16.044 31.233c-.103-.102-.101-.267.005-.366.106-.1.276-.098.38.005l2.563 2.545c.056.054.08.127.076.197l-.39 5.39c-.01.142-.139.25-.286.24-.148-.009-.26-.132-.25-.275l.381-5.274-2.48-2.462zM.417 51.91l9.902 3.266c.12.04.197.157.18.282l-1.092 7.485c-.003.023-.01.047-.02.07-.06.13-.22.189-.354.131L.159 59.291c-.095-.04-.16-.132-.159-.238l.062-6.883c-.001-.032.003-.065.014-.098.047-.136.2-.208.341-.162zm9.519 3.688l-9.34-3.08-.058 6.37 8.388 3.64 1.01-6.93z" mask="url(#37vxcyi0mb)"/>
                            <path fill="#FFF" d="M10.326 55.665c-.139.05-.294-.018-.345-.152-.052-.134.02-.284.158-.333l1.503-.542c.139-.05.293.02.345.153.016.042.02.085.014.126l-1.014 7.053c-.012.084-.063.152-.133.19l-1.568.965c-.125.077-.29.042-.37-.079-.08-.12-.044-.28.081-.357l1.475-.908.935-6.505-1.08.389z" mask="url(#37vxcyi0mb)"/>
                            <path fill="#FFF" d="M11.828 54.638c.139.049.21.198.16.332-.05.135-.206.204-.345.155l-3.835-1.372c-.14-.049-.212-.198-.16-.333.05-.134.205-.203.345-.153l3.835 1.37zM.382 52.41c-.145.028-.287-.064-.315-.205-.028-.14.066-.277.212-.304l1.952-.375c.045-.009.092-.005.134.007l1.488.382c.143.036.23.18.192.317-.038.138-.185.222-.328.185l-1.443-.37-1.892.363zM5.422 57.061c-.139-.05-.21-.199-.158-.333.052-.134.207-.202.345-.152l4.287 1.553c.138.05.21.2.158.333-.052.134-.206.202-.346.152l-4.286-1.553zM.41 55.244c-.14-.05-.21-.199-.158-.333.052-.134.206-.202.345-.152l3.692 1.338c.14.05.21.2.158.334-.052.134-.206.202-.345.152L.41 55.243z" mask="url(#37vxcyi0mb)"/>
                            <path fill="#FFF" d="M5.307 56.254l-.806-.244-.107.992.804.252.11-1zm-.958-.834l1.329.403c.128.038.204.16.186.284l-.166 1.518c-.015.143-.147.246-.295.232-.02-.003-.04-.007-.06-.013l-1.321-.413c-.123-.038-.198-.154-.185-.273l.165-1.517c.015-.143.147-.246.294-.231l.053.01zM6.833 52.432c-.141-.045-.217-.193-.17-.328.047-.136.2-.209.34-.164l1.057.342c.119.038.191.149.183.263l-.09 1.19c-.011.143-.14.25-.288.24-.148-.01-.26-.134-.249-.276l.076-.99-.86-.277zM4.69 51.34c.14.048.215.196.166.33-.049.136-.202.207-.342.16l-.302-.102-.05.634c-.012.142-.141.25-.289.24-.148-.012-.259-.136-.248-.28l.079-.968c.001-.022.006-.044.014-.065.049-.136.202-.207.342-.16l.63.212z" mask="url(#37vxcyi0mb)"/>
                            <path fill="#B8C6D7" d="M110.251 15.583L108.549 13.939 113.439 9.217 112.726 8.529 117 7.423 115.855 11.55 115.142 10.861z" mask="url(#37vxcyi0mb)"/>
                            <path fill="#6979F8" d="M120.906 20.446L119 18.607 124.472 13.325 123.674 12.554 128.455 11.318 127.174 15.933 126.377 15.164z" mask="url(#37vxcyi0mb)"/>
                            <path fill="#B8C6D7" d="M112.03 55.988L110.561 54.569 114.781 50.494 114.166 49.899 117.855 48.945 116.866 52.507 116.251 51.912z" mask="url(#37vxcyi0mb)"/>
                            <path fill="#6979F8" d="M112.201 66.66c-.148 0-.269-.116-.269-.26 0-.144.12-.26.27-.26h2.453c.149 0 .269.116.269.26 0 .144-.12.26-.27.26h-2.453z" mask="url(#37vxcyi0mb)"/>
                            <path fill="#6979F8" d="M113.16 65.216c0-.143.12-.26.268-.26.15 0 .27.117.27.26v2.369c0 .143-.12.26-.27.26-.148 0-.269-.117-.269-.26v-2.37z" mask="url(#37vxcyi0mb)"/>
                        </g>
                    </g>
                </g>
            </g>
        </g>
    </g>
</svg>
