<svg xmlns="http://www.w3.org/2000/svg" width="91" height="37" viewBox="0 0 91 37">
    <defs>
        <filter id="ie5vfw18sa">
            <feColorMatrix in="SourceGraphic" values="0 0 0 0 1.000000 0 0 0 0 1.000000 0 0 0 0 1.000000 0 0 0 1.000000 0"/>
        </filter>
    </defs>
    <g fill="none" fill-rule="evenodd">
        <g>
            <g fill-rule="nonzero" filter="url(#ie5vfw18sa)" transform="translate(-50 -82) translate(50 82)">
                <path fill="#14B7CC" d="M12.42 35.932c-5.953.009-10.994-4.39-11.791-10.29-.798-5.9 2.895-11.478 8.637-13.05C9.742 6.349 14.414 1.233 20.59.194c6.175-1.04 12.264 2.265 14.758 8.01 2.931-1.609 6.466-1.67 9.451-.165 2.985 1.506 5.037 4.385 5.486 7.698 2.855.4 5.407 1.994 7.02 4.384.29.432.327.984.098 1.45-.229.467-.689.776-1.207.81-.518.036-1.016-.208-1.305-.64-1.344-1.995-3.593-3.192-6-3.191H47.44v-1.453c0-2.82-1.639-5.384-4.199-6.568-2.56-1.184-5.575-.772-7.724 1.055l-1.755 1.496-.594-2.23c-1.378-5.207-6.409-8.58-11.749-7.878-5.34.703-9.327 5.262-9.311 10.648v1.377l-1.167.2c-4.588.788-7.812 4.954-7.424 9.593.388 4.64 4.26 8.212 8.915 8.227.54-.033 1.056.237 1.336.7.28.464.28 1.045 0 1.51-.28.463-.795.733-1.336.7l-.011.006z"/>
                <path fill="#002B49" d="M28.512 26.071c-1.123.003-2.192.484-2.938 1.323-.687-.782-1.66-1.254-2.7-1.312h-.248c-1.459.007-2.796.814-3.483 2.1-.29.53-.44 1.125-.432 1.729v5.94h1.966v-6.124c-.004-.49.23-.95.626-1.237.59-.497 1.414-.61 2.115-.289.702.322 1.154 1.02 1.163 1.79v5.876h1.965v-6.14c-.003-.49.23-.95.627-1.237.59-.497 1.413-.61 2.115-.289.701.322 1.154 1.02 1.163 1.79v5.876h1.965v-5.94c.008-.504-.093-1.003-.297-1.464-.624-1.44-2.038-2.376-3.607-2.392zM42.736 27.616c-1.155-1.148-2.803-1.649-4.4-1.337-1.598.311-2.938 1.395-3.576 2.892-.81 1.937-.295 4.175 1.28 5.563 1.576 1.388 3.86 1.618 5.68.571v-1.62c-.077-.136-.209-.232-.362-.263-.154-.031-.313.006-.437.101-.143.119-.306.212-.48.276-1.174.488-2.53.174-3.368-.782-.839-.956-.974-2.34-.337-3.441.23-.44.59-.798 1.032-1.026.913-.53 2.038-.533 2.954-.009.917.524 1.484 1.497 1.49 2.552v4.8h1.965v-4.8c.001-.654-.13-1.303-.383-1.906-.246-.588-.606-1.122-1.058-1.571zM54.934 26.168H52.97v5.654c.002.7-.358 1.351-.95 1.723-.752.543-1.744.622-2.572.204-.827-.419-1.352-1.264-1.36-2.191v-5.4h-1.971v5.4c-.056 1.612.771 3.126 2.159 3.949 1.387.822 3.113.822 4.5 0 1.388-.823 2.216-2.337 2.16-3.95v-5.389zM66.674 26.071c-1.123.003-2.192.484-2.938 1.323-.687-.782-1.66-1.254-2.7-1.312h-.254c-1.458.007-2.796.814-3.483 2.1-.285.531-.432 1.126-.426 1.729v5.94h1.965v-6.124c-.003-.49.23-.95.627-1.237.588-.522 1.428-.65 2.145-.325.716.325 1.175 1.04 1.17 1.827v5.875h1.966v-6.14c-.004-.49.23-.95.626-1.237.59-.497 1.414-.61 2.115-.289.702.322 1.155 1.02 1.163 1.79v5.876h1.966v-5.94c.007-.5-.092-.995-.292-1.453-.627-1.458-2.063-2.403-3.65-2.403zM74.158 34.204c-.399-.322-.976-.292-1.34.07-.363.362-.395.939-.075 1.339.04.06.09.112.152.151.401.298.96.257 1.313-.096.354-.352.397-.91.101-1.313-.039-.06-.09-.112-.15-.151zM89.381 26.082L87.221 26.082 87.221 35.867 89.381 35.867zM83.84 27.616c-.447-.447-.977-.803-1.56-1.048-1.836-.78-3.961-.366-5.371 1.044-1.41 1.41-1.824 3.535-1.044 5.371.545 1.295 1.621 2.292 2.953 2.738 1.332.447 2.792.3 4.007-.405v-1.62c-.077-.138-.21-.235-.365-.266-.155-.031-.315.007-.44.104-.142.117-.302.21-.475.275-1.174.493-2.532.18-3.373-.777-.84-.957-.976-2.344-.336-3.445.232-.439.592-.796 1.031-1.026.913-.53 2.039-.533 2.955-.01.916.525 1.483 1.498 1.49 2.553v4.8h1.965v-4.8c.01-1.309-.508-2.566-1.437-3.488z"/>
                <circle cx="88.322" cy="21.962" r="2.441" fill="#14B7CC"/>
            </g>
        </g>
    </g>
</svg>
