<svg width="36" height="36" viewBox="0 0 36 36" xmlns="http://www.w3.org/2000/svg">
    <path d="M24.838 24.383c0 .621-.504 1.125-1.125 1.125H12.287a1.125 1.125 0 1 1 0-2.25h11.426c.621 0 1.125.503 1.125 1.125m.592-11.463a2.253 2.253 0 1 1-4.506 0 2.253 2.253 0 0 1 4.506 0m-14.86 0a2.253 2.253 0 1 1 2.254 2.253 2.256 2.256 0 0 1-2.254-2.253M18 33.75C9.315 33.75 2.25 26.685 2.25 18 2.25 9.315 9.315 2.25 18 2.25c8.685 0 15.75 7.065 15.75 15.75 0 8.685-7.065 15.75-15.75 15.75M18 0C8.075 0 0 8.075 0 18s8.075 18 18 18 18-8.075 18-18S27.925 0 18 0" fill="#FFF" fill-rule="evenodd"/>
</svg>
