<svg width="16" height="16" viewBox="0 0 16 16" xmlns="http://www.w3.org/2000/svg">
    <path d="M6.857 9.361V6.639L9.58 8 6.857 9.361zm4.256-1.872L6.54 5.203a.574.574 0 0 0-.827.511v4.572a.571.571 0 0 0 .827.51l4.572-2.285a.571.571 0 0 0 0-1.022zm3.173 7.368H12.57v-1.714h2.286v1.143a.572.572 0 0 1-.571.571zm-13.143-.571v-1.143h2.286v1.714H1.714a.572.572 0 0 1-.571-.571zm.571-13.143H3.43v1.714H1.143V1.714c0-.315.256-.571.571-.571zm2.857 1.714H7.43V1.143H4.57v1.714zm4 0h2.858V1.143H8.57v1.714zM1.143 12h13.714V4H1.143v8zm7.428 2.857h2.858v-1.714H8.57v1.714zm-4 0H7.43v-1.714H4.57v1.714zM14.857 1.714v1.143h-2.286V1.143h1.715c.315 0 .571.256.571.571zM14.286 0H1.714C.77 0 0 .769 0 1.714v12.572C0 15.23.769 16 1.714 16h12.572C15.23 16 16 15.231 16 14.286V1.714C16 .77 15.231 0 14.286 0z" fill="#434950" fill-rule="evenodd"/>
</svg>
