<svg width="16" height="16" viewBox="0 0 16 16" xmlns="http://www.w3.org/2000/svg">
    <path d="M1 1.5a.5.5 0 0 1 .5-.5h9a.5.5 0 0 1 .5.5V2H3.5A1.5 1.5 0 0 0 2 3.5V11h-.5a.5.5 0 0 1-.5-.5v-9zM12.5 3a.5.5 0 0 1 .5.5V4H5.5A1.5 1.5 0 0 0 4 5.5V13h-.5a.5.5 0 0 1-.5-.5v-9a.5.5 0 0 1 .5-.5h9zm2 2a.5.5 0 0 1 .5.5v9a.5.5 0 0 1-.5.5h-9a.5.5 0 0 1-.5-.5v-9a.5.5 0 0 1 .5-.5h9zm-13 7H2v.5A1.5 1.5 0 0 0 3.5 14H4v.5A1.5 1.5 0 0 0 5.5 16h9a1.5 1.5 0 0 0 1.5-1.5v-9A1.5 1.5 0 0 0 14.5 4H14v-.5A1.5 1.5 0 0 0 12.5 2H12v-.5A1.5 1.5 0 0 0 10.5 0h-9A1.5 1.5 0 0 0 0 1.5v9A1.5 1.5 0 0 0 1.5 12z" fill="#FFF" fill-rule="evenodd"/>
</svg>
