<svg width="36" height="36" viewBox="0 0 36 36" xmlns="http://www.w3.org/2000/svg">
    <path d="M24.991 26.513c-1.881 1.384-4.364 2.146-6.991 2.146s-5.11-.762-6.991-2.146c-1.985-1.46-3.078-3.435-3.078-5.56 0-.278.02-.556.058-.832.077-.556.553-.97 1.114-.97h17.794c.561 0 1.037.414 1.114.97.038.276.058.554.058.832 0 2.125-1.093 4.1-3.078 5.56zM8.141 11.89l2.272-3.667a1.125 1.125 0 0 1 1.913 0l2.432 3.924a1.125 1.125 0 0 1-1.911 1.188l-.002-.003-1.475-2.381-1.317 2.124a1.125 1.125 0 0 1-1.912-1.185zm12.884.015.01-.015 2.272-3.668a1.125 1.125 0 0 1 1.913 0l2.432 3.925a1.125 1.125 0 1 1-1.913 1.185l-1.476-2.381-1.316 2.124a1.125 1.125 0 1 1-1.922-1.17zM18 0C8.075 0 0 8.075 0 18s8.075 18 18 18 18-8.075 18-18S27.925 0 18 0z" fill="#82868A" fill-rule="evenodd"/>
</svg>
