<svg width="36" height="36" viewBox="0 0 36 36" xmlns="http://www.w3.org/2000/svg">
    <path d="m21.034 11.89 2.273-3.668a1.125 1.125 0 0 1 1.913 0l2.432 3.925a1.125 1.125 0 1 1-1.913 1.185l-1.476-2.381-1.316 2.124a1.125 1.125 0 1 1-1.922-1.17l.01-.015zm-12.894 0 2.273-3.667a1.125 1.125 0 0 1 1.913 0l2.432 3.924a1.125 1.125 0 0 1-1.911 1.188l-.002-.003-1.475-2.381-1.317 2.124a1.125 1.125 0 0 1-1.912-1.185zM23.657 24.7c-1.497 1.103-3.506 1.71-5.657 1.71-2.15 0-4.16-.607-5.657-1.71-1.244-.914-1.989-2.072-2.135-3.3h15.584c-.146 1.228-.891 2.386-2.135 3.3zm3.24-5.55H9.103c-.561 0-1.037.415-1.114.971a6.055 6.055 0 0 0-.058.832c0 2.125 1.093 4.1 3.078 5.56 1.881 1.384 4.364 2.146 6.991 2.146s5.11-.762 6.991-2.146c1.985-1.46 3.078-3.435 3.078-5.56 0-.278-.02-.556-.058-.832a1.125 1.125 0 0 0-1.114-.97zM18 33.75C9.315 33.75 2.25 26.685 2.25 18 2.25 9.315 9.315 2.25 18 2.25c8.685 0 15.75 7.065 15.75 15.75 0 8.685-7.065 15.75-15.75 15.75zM18 0C8.075 0 0 8.075 0 18s8.075 18 18 18 18-8.075 18-18S27.925 0 18 0z" fill="#82868A" fill-rule="evenodd"/>
</svg>
