<svg width="36" height="36" viewBox="0 0 36 36" xmlns="http://www.w3.org/2000/svg">
    <path d="M27.517 25.918a1.125 1.125 0 0 1-1.584-.155c-3.596-4.381-10.063-5.018-14.444-1.422-.52.426-.996.902-1.422 1.422a1.125 1.125 0 0 1-1.738-1.429c4.385-5.341 12.27-6.117 17.61-1.732.633.52 1.213 1.1 1.733 1.732.394.48.325 1.19-.155 1.584zm-19.019-13.7a1.125 1.125 0 1 1 2.25 0v.791c0 .356.511.755 1.195.755s1.196-.399 1.196-.755v-.792a1.125 1.125 0 1 1 2.25 0v.792c0 1.657-1.546 3.005-3.446 3.005-1.9 0-3.445-1.348-3.445-3.005v-.792zm12.113 0a1.125 1.125 0 1 1 2.25 0v.791c0 .356.511.755 1.196.755.684 0 1.195-.399 1.195-.755v-.792a1.125 1.125 0 1 1 2.25 0v.792c0 1.657-1.546 3.005-3.445 3.005-1.9 0-3.446-1.348-3.446-3.005v-.792zM18 0C8.075 0 0 8.075 0 18s8.075 18 18 18 18-8.075 18-18S27.925 0 18 0z" fill="#82868A" fill-rule="evenodd"/>
</svg>
