<svg width="83" height="32" viewBox="0 0 83 32" xmlns="http://www.w3.org/2000/svg">
    <g fill="#434950" fill-rule="evenodd">
        <path d="M27.054 0c1.43 0 2.589 1.251 2.589 2.795v26.41c0 1.544-1.16 2.795-2.59 2.795H2.59C1.159 32 0 30.749 0 29.205V2.795C0 1.25 1.159 0 2.589 0zm0 2.133H2.589c-.338 0-.613.297-.613.662v26.41c0 .365.275.662.613.662h5.269V11.278c0-1.544 1.159-2.795 2.588-2.795h17.22V2.795c0-.365-.274-.662-.612-.662zm.613 8.484h-17.22c-.338 0-.613.296-.613.661v18.589H15.8V19.85c0-1.544 1.159-2.795 2.589-2.795h9.278v-6.44zm0 8.573h-9.278c-.338 0-.613.296-.613.661v10.016h9.278c.337 0 .613-.297.613-.662V19.19zm-7.681 1.052c.682 0 1.235.597 1.235 1.333s-.553 1.333-1.235 1.333-1.235-.597-1.235-1.333.553-1.333 1.235-1.333zm-7.847-8.602c.682 0 1.235.597 1.235 1.333s-.553 1.333-1.235 1.333-1.235-.597-1.235-1.333.553-1.333 1.235-1.333zM4.36 3.28c.681 0 1.234.596 1.234 1.333 0 .736-.553 1.333-1.235 1.333s-1.235-.597-1.235-1.333c0-.737.553-1.334 1.235-1.334z"/>
        <g fill-rule="nonzero">
            <path d="M43.5 7.992 41.56 1.72h-1.016L38.61 7.992h.89l.407-1.392h2.297l.408 1.392h.889zm-1.533-2.2h-1.83l.918-3.152.912 3.152zM45.702 1.72h-.86v6.272h.86zM42.219 19.192h.86V12.92h-.86v2.656h-2.305V12.92h-.86v6.272h.86v-2.808h2.305zM46.962 18.488c-.904 0-1.282-.608-1.282-1.744V12.92h-.86v3.944c0 1.472.697 2.432 2.142 2.432 1.445 0 2.134-.96 2.134-2.432V12.92h-.86v3.824c0 1.136-.378 1.744-1.274 1.744zM54.135 19.192l1.616-4.384v4.384h.86V12.92h-.957l-1.934 5.216-1.934-5.216h-.949v6.272h.853v-4.384l1.623 4.384zM62.828 19.192l-1.942-6.272h-1.015l-1.934 6.272h.89l.407-1.392h2.297l.408 1.392h.889zm-1.534-2.2h-1.83l.918-3.152.912 3.152zM68.275 19.192V12.92h-.86v4.624l-2.371-4.624h-.882v6.272h.86v-4.616l2.371 4.616zM38.647 24.928h1.638v5.464h.86v-5.464h1.637v-.808h-4.135zM44.153 30.392h3.483v-.808h-2.623v-2h2.282v-.808h-2.282v-1.848h2.579v-.808h-3.439zM53.083 28.656c0-.976-.541-1.568-1.512-1.792l-.748-.168c-.6-.136-.89-.408-.89-.936 0-.552.364-.936 1.03-.936.675 0 1.038.384 1.038.936v.096h.867v-.096c0-.952-.652-1.744-1.905-1.744-1.237 0-1.897.792-1.897 1.744 0 .976.564 1.52 1.482 1.728l.749.168c.63.144.919.504.919 1.016 0 .608-.423 1.024-1.141 1.024-.712 0-1.142-.416-1.142-1.024v-.144h-.867v.128c0 1.072.756 1.84 2.009 1.84 1.26 0 2.008-.768 2.008-1.84zM54.09 24.928h1.639v5.464h.86v-5.464h1.637v-.808h-4.135z"/>
        </g>
    </g>
</svg>
