<svg width="112" height="40" viewBox="0 0 112 40" xmlns="http://www.w3.org/2000/svg">
    <g fill="#FFF" fill-rule="evenodd">
        <path d="M36.506 0A3.493 3.493 0 0 1 40 3.493v33.014A3.493 3.493 0 0 1 36.506 40H3.493A3.493 3.493 0 0 1 0 36.507V3.493A3.493 3.493 0 0 1 3.493 0zm0 2.667H3.493a.828.828 0 0 0-.826.826v33.014c0 .455.37.826.826.826h7.11V14.098a3.493 3.493 0 0 1 3.493-3.494h23.237v-7.11a.828.828 0 0 0-.827-.827zm.827 10.604H14.096a.827.827 0 0 0-.826.827v23.235h8.05v-12.52a3.493 3.493 0 0 1 3.494-3.493h12.52v-8.05zm0 10.716h-12.52a.828.828 0 0 0-.826.827v12.52h12.52a.828.828 0 0 0 .826-.827v-12.52zM26.97 25.302a1.667 1.667 0 1 1 0 3.333 1.667 1.667 0 0 1 0-3.333zM16.38 14.55a1.667 1.667 0 1 1 0 3.334 1.667 1.667 0 0 1 0-3.334zM5.88 4.1a1.667 1.667 0 1 1 0 3.333 1.667 1.667 0 0 1 0-3.333z"/>
        <g fill-rule="nonzero">
            <path d="m58.7 9.99-2.62-7.84h-1.37L52.1 9.99h1.2l.55-1.74h3.1l.55 1.74h1.2zm-2.07-2.75h-2.47L55.4 3.3l1.23 3.94zM61.67 2.15h-1.16v7.84h1.16zM56.97 23.99h1.16v-7.84h-1.16v3.32h-3.11v-3.32H52.7v7.84h1.16v-3.51h3.11zM63.37 23.11c-1.22 0-1.73-.76-1.73-2.18v-4.78h-1.16v4.93c0 1.84.94 3.04 2.89 3.04 1.95 0 2.88-1.2 2.88-3.04v-4.93h-1.16v4.78c0 1.42-.51 2.18-1.72 2.18zM73.05 23.99l2.18-5.48v5.48h1.16v-7.84H75.1l-2.61 6.52-2.61-6.52H68.6v7.84h1.15v-5.48l2.19 5.48zM84.78 23.99l-2.62-7.84h-1.37l-2.61 7.84h1.2l.55-1.74h3.1l.55 1.74h1.2zm-2.07-2.75h-2.47l1.24-3.94 1.23 3.94zM92.13 23.99v-7.84h-1.16v5.78l-3.2-5.78h-1.19v7.84h1.16v-5.77l3.2 5.77zM52.15 31.16h2.21v6.83h1.16v-6.83h2.21v-1.01h-5.58zM59.58 37.99h4.7v-1.01h-3.54v-2.5h3.08v-1.01h-3.08v-2.31h3.48v-1.01h-4.64zM71.63 35.82c0-1.22-.73-1.96-2.04-2.24l-1.01-.21c-.81-.17-1.2-.51-1.2-1.17 0-.69.49-1.17 1.39-1.17.91 0 1.4.48 1.4 1.17v.12h1.17v-.12c0-1.19-.88-2.18-2.57-2.18-1.67 0-2.56.99-2.56 2.18 0 1.22.76 1.9 2 2.16l1.01.21c.85.18 1.24.63 1.24 1.27 0 .76-.57 1.28-1.54 1.28-.96 0-1.54-.52-1.54-1.28v-.18h-1.17v.16c0 1.34 1.02 2.3 2.71 2.3 1.7 0 2.71-.96 2.71-2.3zM72.99 31.16h2.21v6.83h1.16v-6.83h2.21v-1.01h-5.58z"/>
        </g>
    </g>
</svg>
