<?xml version="1.0" encoding="utf-8"?>
<!-- Generator: Adobe Illustrator 24.3.0, SVG Export Plug-In . SVG Version: 6.00 Build 0)  -->
<svg version="1.1" id="레이어_1" xmlns="http://www.w3.org/2000/svg" xmlns:xlink="http://www.w3.org/1999/xlink" x="0px"
	 y="0px" viewBox="0 0 150 150" style="enable-background:new 0 0 150 150;" xml:space="preserve">
<style type="text/css">
	.st0{fill:#FFFFFF;}
</style>
<g>
	<rect x="45.9" y="103.6" class="st0" width="3.3" height="1.1"/>
	<path class="st0" d="M85.4,101.2c-0.6,0-1,0.4-1,1c0,0.6,0.4,1,1,1c0.6,0,1-0.4,1-1C86.4,101.6,86,101.2,85.4,101.2z"/>
	<rect x="120.7" y="103.9" class="st0" width="2.7" height="0.6"/>
	<path class="st0" d="M49.3,99.8c0-0.5-0.6-0.7-1.7-0.7c-1.1,0-1.7,0.3-1.7,0.7c0,0.5,0.7,0.7,1.7,0.7
		C48.7,100.5,49.3,100.2,49.3,99.8z"/>
	<path class="st0" d="M123.5,99.7c0-0.4-0.5-0.5-1.4-0.5c-0.9,0-1.4,0.2-1.4,0.5c0,0.4,0.5,0.5,1.4,0.5
		C123,100.2,123.5,100.1,123.5,99.7z"/>
	<path class="st0" d="M101.9,99.6c-0.2,0.7-0.4,1.4-0.5,2.2l-0.2,0.9h1.6l-0.2-0.9C102.3,101.1,102.1,100.4,101.9,99.6L101.9,99.6z"
		/>
	<rect x="112.8" y="99.8" class="st0" width="1.1" height="3"/>
	<rect x="38.1" y="99.6" class="st0" width="1.7" height="3.4"/>
	<path class="st0" d="M0,0v150h150V0H0z M114.6,91.1c0.1,0.1,0.2,0.1,0.2,0.2c0.9,1.4-0.6,2.9-2,2c-0.1-0.1-0.2-0.1-0.2-0.2
		C111.7,91.6,113.2,90.2,114.6,91.1z M40.6,103.7h-3.4v-4.7h3.4V103.7z M43.7,101.7h-1.1v3.7h-0.8v-7.2h0.8v2.8h1.1V101.7z
		 M50.1,105.4h-4.9v-2.4h4.9V105.4z M50.9,102.3h-6.5v-0.7h6.5V102.3z M45,99.8c0-0.9,1-1.4,2.6-1.4c1.6,0,2.6,0.5,2.6,1.4
		c0,0.9-1,1.4-2.6,1.4C46,101.2,45,100.6,45,99.8z M49.4,83.1c-0.6,0.4-0.9,1-0.9,1.7v8.5h-2.7v-8.2c0-2.1-2.4-3.6-4.6-2.1
		c-0.6,0.4-0.9,1-0.9,1.7v8.5h-2.7v-8.3c0-0.8,0.2-1.7,0.6-2.4c1-1.9,2.9-2.9,4.8-2.9c0.1,0,0.2,0,0.3,0c1.4,0.1,2.8,0.7,3.7,1.8
		c1-1.2,2.5-1.8,4.1-1.8c2.1,0,4.1,1.2,5,3.3c0.3,0.6,0.4,1.3,0.4,2v8.3h-2.7v-8.2C53.9,83.1,51.5,81.6,49.4,83.1z M51.6,103.4
		c1-1.1,1.4-2.3,1.5-3.7h-1.2V99h1.9c0,1.9-0.3,3.5-1.6,4.9L51.6,103.4z M54.3,104.3l-0.7-0.5c1-1.2,1.3-2.6,1.4-4.2h-1V99h1.7
		C55.8,100.9,55.6,102.8,54.3,104.3z M58.4,101.8h-1v3.6h-0.8v-7.2h0.8v2.9h1V101.8z M57.7,58.6c-1.7-6.5-7.6-11-14.4-11
		c-8.2,0-14.9,6.7-14.9,14.9l0,0c0,0,0,0.1,0,0.1l0,1.7l-1.7,0.3c-2.9,0.5-5.5,2-7.4,4.2c-1.9,2.3-3,5.1-3,8.1
		c0,6.9,5.6,12.5,12.5,12.5c1.1,0,2,0.9,2,2s-0.9,2-2,2c-9.1,0-16.5-7.4-16.5-16.5c0-3.9,1.4-7.7,4-10.7c2.2-2.5,5-4.3,8.2-5.2
		c0.7-9.8,8.9-17.5,18.9-17.5c7.6,0,14.4,4.6,17.4,11.4c2.1-1.1,4.4-1.7,6.8-1.7c7.1,0,13,5.3,14,12.2c4,0.5,7.5,2.7,9.8,6.1
		c0.6,0.9,0.4,2.2-0.5,2.8c-0.9,0.6-2.2,0.4-2.8-0.5c-1.9-2.8-5-4.4-8.3-4.4h-2v-2c0-5.5-4.5-10-10-10c-2.4,0-4.7,0.8-6.5,2.4
		l-2.4,2.1L57.7,58.6z M73.2,100.8v1.7h-0.8v-4.1h0.8v1.7H74v-1.8h0.8v4.4H74v-1.9H73.2z M63.1,103.9c-0.8-0.4-1.5-1.1-1.8-2.1
		c-0.3,1-1,1.9-1.8,2.3l-0.5-0.7c1.1-0.5,1.9-1.9,1.9-3.1v-0.7h-1.6V99h4v0.7h-1.6v0.7c0,1.2,0.7,2.4,1.9,2.9L63.1,103.9z M65,105.4
		h-0.8v-7.2H65V105.4z M63.5,93c-0.8-0.3-1.5-0.8-2.2-1.5c-0.6-0.6-1.1-1.4-1.5-2.2c-0.4-0.8-0.5-1.7-0.5-2.6c0-0.9,0.2-1.8,0.5-2.6
		c0.3-0.8,0.8-1.5,1.5-2.2c0.6-0.6,1.4-1.1,2.2-1.5c0.8-0.4,1.7-0.5,2.6-0.5s1.8,0.2,2.6,0.5c0.8,0.3,1.5,0.8,2.2,1.5
		c0.6,0.6,1.1,1.4,1.5,2.2c0.4,0.8,0.5,1.7,0.5,2.6v6.7h-2.7v-6.7c0-2.9-3.1-5.1-6.2-3.5c-0.6,0.3-1.1,0.8-1.4,1.4
		c-1.9,3.6,1.5,7.3,5.1,5.9c0.2-0.1,0.5-0.2,0.7-0.4c0.3-0.3,0.8-0.2,1.1,0.2c0,0,0,0,0,0v2.3c-1,0.6-2.2,0.9-3.4,0.9
		C65.2,93.5,64.3,93.3,63.5,93z M68.6,101.8c1-0.4,1.5-1.3,1.5-2.2v-0.9h0.8v0.9c0,0.8,0.5,1.6,1.4,2l-0.4,0.6
		c-0.6-0.2-1.1-0.7-1.4-1.3c-0.3,0.7-0.7,1.2-1.4,1.5L68.6,101.8z M72.3,105.4c-1.5,0-2.4-0.5-2.4-1.3c0-0.8,0.9-1.3,2.4-1.3
		c1.5,0,2.4,0.5,2.4,1.3C74.8,105,73.8,105.4,72.3,105.4z M75.9,101.8c1.7-0.4,2.7-1.3,2.8-2.4h-2.5v-0.7h3.4c0,1.9-1.2,3.2-3.4,3.7
		L75.9,101.8z M81.6,105.5h-0.8v-2h-3.9v-0.7h4.7V105.5z M82.6,100.7h-1v1.8h-0.8v-4.2h0.8v1.8h1V100.7z M85.4,103.9
		c-1,0-1.8-0.7-1.8-1.7c0-1,0.7-1.7,1.8-1.7c1,0,1.8,0.7,1.8,1.7C87.2,103.2,86.5,103.9,85.4,103.9z M87.5,100h-4.2v-0.7H85v-1h0.8
		v1h1.7V100z M87.9,87.4c0,0.8-0.2,1.6-0.5,2.4c-0.3,0.7-0.7,1.4-1.3,1.9c-0.6,0.6-1.2,1-1.9,1.3c-0.8,0.3-1.6,0.5-2.4,0.5
		c-0.8,0-1.6-0.2-2.4-0.5c-0.7-0.3-1.4-0.8-1.9-1.3c-0.6-0.6-1-1.2-1.3-1.9c-0.3-0.8-0.5-1.6-0.5-2.4v-7.5h2.7v7.5
		c0,2.5,2.8,4.4,5.5,2.8c0.8-0.5,1.3-1.4,1.3-2.4l0-7.8h2.7V87.4z M90,101.8h-1.1v3.6h-0.8v-7.2h0.8v2.9H90V101.8z M96.5,105.3h-5
		v-2.1h0.8v1.5h4.2V105.3z M97.2,102.5h-6.5v-0.7h6.5V102.5z M96.5,100.3v0.7h-4.9v-2.5h0.8v1.8H96.5z M103.4,105.3l-0.5-1.8h-2
		l-0.5,1.8h-0.9l1.9-6.5h1.1l1.9,6.5H103.4z M106.1,105.3h-0.9v-6.5h0.9V105.3z M107.5,106.4l-0.2-0.5c0.5-0.2,0.9-0.6,0.9-1.1
		c0,0-0.1,0-0.1,0c-0.3,0-0.6-0.2-0.6-0.6c0-0.4,0.3-0.6,0.6-0.6c0.4,0,0.7,0.4,0.7,1C108.8,105.5,108.3,106.1,107.5,106.4z
		 M109.6,93.4h-2.7v-8.2c0-2.1-2.4-3.6-4.6-2.1c-0.6,0.4-0.9,1-0.9,1.7v8.5h-2.7v-8.2c0-2.1-2.4-3.6-4.6-2.1c-0.6,0.4-0.9,1-0.9,1.7
		v8.5h-2.7v-8.3c0-0.8,0.2-1.7,0.6-2.4c1-1.9,2.9-2.9,4.8-2.9c0.1,0,0.2,0,0.3,0c1.4,0.1,2.8,0.7,3.7,1.8c1-1.2,2.5-1.8,4.1-1.8
		c2.1,0,4.1,1.2,5,3.3c0.3,0.6,0.4,1.3,0.4,2V93.4z M115.2,103.8h-3.7v-5h3.7V103.8z M118.3,101.9h-1v3.7H116v-7.5h1.3v2.7h1V101.9z
		 M124.7,105.5h-5.2v-2.6h5.2V105.5z M125.5,102.5h-6.8v-1h6.8V102.5z M119.3,99.7c0-0.9,1.1-1.5,2.8-1.5s2.8,0.6,2.8,1.5
		c0,0.9-1.1,1.5-2.8,1.5S119.3,100.6,119.3,99.7z M121.1,83.2c-0.6,0.3-1.1,0.8-1.4,1.4c-1.9,3.6,1.5,7.3,5.1,5.9
		c0.2-0.1,0.5-0.2,0.7-0.4c0.3-0.3,0.8-0.2,1.1,0.2c0,0,0,0,0,0v2.3c-1,0.6-2.2,0.9-3.4,0.9c-0.9,0-1.8-0.2-2.6-0.5
		c-0.8-0.3-1.5-0.8-2.2-1.5c-0.6-0.6-1.1-1.4-1.5-2.2c-0.4-0.8-0.5-1.7-0.5-2.6c0-0.9,0.2-1.8,0.5-2.6c0.3-0.8,0.8-1.5,1.5-2.2
		c0.6-0.6,1.4-1.1,2.2-1.5c0.8-0.4,1.7-0.5,2.6-0.5c0.9,0,1.8,0.2,2.6,0.5c0.8,0.3,1.5,0.8,2.2,1.5c0.6,0.6,1.1,1.4,1.5,2.2
		c0.4,0.8,0.5,1.7,0.5,2.6v6.7h-2.7v-6.7C127.3,83.8,124.2,81.6,121.1,83.2z M131.8,105.5l-0.4-1.6h-1.9l-0.4,1.6h-1.6l2-7.1h1.9
		l2,7.1H131.8z M135.7,105.5h-1.6v-7.1h1.6V105.5z M135.7,93.4h-3V79.8h3V93.4z M134.3,77.5c-1.9,0-3.4-1.5-3.4-3.4s1.5-3.4,3.4-3.4
		s3.4,1.5,3.4,3.4S136.1,77.5,134.3,77.5z"/>
	<path class="st0" d="M130.4,99.6L130.4,99.6c-0.2,0.7-0.4,1.6-0.5,2.3l-0.1,0.6h1.3l-0.1-0.6C130.8,101.2,130.6,100.4,130.4,99.6z"
		/>
	<path class="st0" d="M72.3,103.4c-1,0-1.6,0.2-1.6,0.7c0,0.4,0.6,0.7,1.6,0.7c1,0,1.6-0.2,1.6-0.7C74,103.7,73.3,103.4,72.3,103.4z
		"/>
</g>
</svg>
