<svg xmlns="http://www.w3.org/2000/svg" width="24" height="24" viewBox="0 0 24 24">
    <path fill="#d0d5e9" d="M3.067-1156A3.07 3.07 0 0 1 0-1159.067v-17.866A3.07 3.07 0 0 1 3.067-1180h17.866a3.07 3.07 0 0 1 3.067 3.067v17.866a3.07 3.07 0 0 1-3.067 3.067zm3-9.6l-4.653 3.959v2.578a1.655 1.655 0 0 0 1.653 1.653h17.866a1.655 1.655 0 0 0 1.653-1.653v-5.572l-4.461-5.493a.453.453 0 0 0-.332-.168.453.453 0 0 0-.347.134l-6.925 6.935a.707.707 0 0 1-.952.044l-2.914-2.42a.456.456 0 0 0-.292-.106.456.456 0 0 0-.297.109zm-4.653-11.329v13.432l3.737-3.179a1.868 1.868 0 0 1 2.408-.015l2.418 2.008 6.469-6.479a1.877 1.877 0 0 1 1.42-.547 1.874 1.874 0 0 1 1.357.689l3.364 4.142v-10.052a1.655 1.655 0 0 0-1.653-1.653H3.067a1.655 1.655 0 0 0-1.653 1.65zm2.733 3.294a3.412 3.412 0 0 1 3.408-3.408 3.412 3.412 0 0 1 3.408 3.408 3.412 3.412 0 0 1-3.408 3.408 3.412 3.412 0 0 1-3.408-3.412zm1.414 0a2 2 0 0 0 1.995 1.995 2 2 0 0 0 1.995-1.995 2 2 0 0 0-1.995-1.995 2 2 0 0 0-1.996 1.991z" transform="translate(0 1180)"/>
</svg>
