<svg xmlns="http://www.w3.org/2000/svg" width="177" height="75.783" viewBox="0 0 177 75.783">
    <defs>
        <filter id="vmnnv3ieoa" width="177" height="75.783" x="0" y="0" filterUnits="userSpaceOnUse">
            <feOffset dy="3"/>
            <feGaussianBlur result="blur" stdDeviation="1.5"/>
            <feFlood flood-opacity=".078"/>
            <feComposite in2="blur" operator="in"/>
            <feComposite in="SourceGraphic"/>
        </filter>
    </defs>
    <g filter="url(#vmnnv3ieoa)">
        <path fill="#fff" d="M145.122 66.076A9.127 9.127 0 1 1 157.1 54.162a8.839 8.839 0 0 1 .713 3.526v8.858h-3.658v-8.857a5.521 5.521 0 0 0-8.277-4.721 4.58 4.58 0 0 0-1.912 1.9 5.515 5.515 0 0 0 6.9 7.84 3.129 3.129 0 0 0 .889-.5 1.029 1.029 0 0 1 1.484.3v3.057a9.206 9.206 0 0 1-4.565 1.224h-.024a9.153 9.153 0 0 1-3.528-.713zm-10.378.28a1.366 1.366 0 0 1-.285-.28 1.878 1.878 0 0 1 2.635-2.629 1.274 1.274 0 0 1 .283.28 1.878 1.878 0 0 1-2.633 2.629zm-44.968-.28a8.006 8.006 0 0 1-2.621-1.745 8.429 8.429 0 0 1-1.747-2.595 8.209 8.209 0 0 1-.65-3.19v-9.992h3.656v9.992a4.623 4.623 0 0 0 7.406 3.689 3.8 3.8 0 0 0 1.765-3.2V48.554h3.715l-.137 9.992a8.044 8.044 0 0 1-2.395 5.785 7.913 7.913 0 0 1-2.609 1.745 8.188 8.188 0 0 1-6.385 0zm-21.176-.06a9.1 9.1 0 1 1 10-14.806h.031a9.012 9.012 0 0 1 2.664 6.422v8.855h-3.66v-8.855a5.52 5.52 0 0 0-8.277-4.724 4.552 4.552 0 0 0-1.912 1.906 5.513 5.513 0 0 0 6.9 7.836 3.367 3.367 0 0 0 .887-.5 1.026 1.026 0 0 1 1.48.293V65.5a9.181 9.181 0 0 1-8.114.517zM.206 47.59a22.056 22.056 0 0 1 16.031-24.234 25.383 25.383 0 0 1 48.557-8.148 18.923 18.923 0 0 1 27.811 13.966 18.963 18.963 0 0 1 13.123 8.13 2.708 2.708 0 0 1-4.443 2.953 13.447 13.447 0 0 0-11.167-5.9H87.41v-2.7A13.467 13.467 0 0 0 65.2 21.424L61.924 24.2l-1.1-4.13a19.953 19.953 0 0 0-39.21 5.13v2.555l-2.3.384A16.647 16.647 0 0 0 22.1 61.2a2.7 2.7 0 1 1 0 5.4l.053.06h-.024A22.1 22.1 0 0 1 .206 47.59zm161.206 18.957V48.391h4.029v18.156zm-34.565-.047V55.594a3.719 3.719 0 0 0-6.1-2.789 2.82 2.82 0 0 0-1.147 2.3V66.5h-3.677V55.594a3.718 3.718 0 0 0-6.1-2.789 2.845 2.845 0 0 0-1.168 2.3V66.5h-3.662V55.434a6.616 6.616 0 0 1 .742-3.16 7.406 7.406 0 0 1 6.489-3.9h.471a7.3 7.3 0 0 1 5.01 2.449 7.29 7.29 0 0 1 5.466-2.466 7.415 7.415 0 0 1 6.8 4.384 6.237 6.237 0 0 1 .56 2.689V66.5zm-71.088 0V55.594a3.716 3.716 0 0 0-6.1-2.789 2.847 2.847 0 0 0-1.17 2.3V66.5h-3.658V55.594a3.715 3.715 0 0 0-6.1-2.789 2.857 2.857 0 0 0-1.174 2.3V66.5H33.9V55.434a6.592 6.592 0 0 1 .785-3.16 7.4 7.4 0 0 1 6.483-3.9h.463a7.269 7.269 0 0 1 5.018 2.449 7.32 7.32 0 0 1 5.468-2.466 7.407 7.407 0 0 1 6.738 4.353 6.348 6.348 0 0 1 .565 2.72V66.5zm103.15-25.76a4.546 4.546 0 1 1 4.547 4.534 4.538 4.538 0 0 1-4.546-4.53z" opacity="0.3" transform="translate(4.5 1.5)"/>
    </g>
</svg>
