<svg xmlns="http://www.w3.org/2000/svg" width="60" height="60" viewBox="0 0 60 60">
    <defs>
        <clipPath id="29hesoxmza">
            <path fill="none" d="M0 0H60V60H0z"/>
        </clipPath>
    </defs>
    <g clip-path="url(#29hesoxmza)">
        <path fill="#fff" d="M44.486 20.035L10.976.69a5.349 5.349 0 0 0-5.256 0 5.271 5.271 0 0 0-2.632 4.556v38.692a5.258 5.258 0 0 0 7.889 4.556l33.511-19.347a5.262 5.262 0 0 0 0-9.112zM41.974 24.8L8.461 44.145a.225.225 0 0 1-.234 0 .235.235 0 0 1-.115-.2v-38.7a.234.234 0 0 1 .117-.2.227.227 0 0 1 .116-.032.234.234 0 0 1 .119.032l33.5 19.343a.243.243 0 0 1 .121.209.237.237 0 0 1-.111.203z" transform="translate(8.579 5)"/>
    </g>
</svg>
