<svg xmlns="http://www.w3.org/2000/svg" width="99" height="40" viewBox="0 0 99 40">
    <defs>
        <clipPath id="clip-path">
            <path id="사각형_193" fill="#fff" stroke="#707070" d="M0 0H99V40H0z" transform="translate(-.021 .181)"/>
        </clipPath>
        <style>
            .cls-3{fill:#14b7cc}
        </style>
    </defs>
    <g id="maum.ai" clip-path="url(#clip-path)" transform="translate(.021 -.181)">
        <path id="패스_647" d="M12.913 39.052a12.916 12.916 0 0 1-3.458-25.365A14.809 14.809 0 0 1 37.8 8.914a11.04 11.04 0 0 1 16.236 8.178 11.065 11.065 0 0 1 7.66 4.764 1.582 1.582 0 0 1-2.594 1.729 7.85 7.85 0 0 0-6.519-3.458H51v-1.582a7.859 7.859 0 0 0-12.968-5.991l-1.911 1.625-.64-2.421a11.645 11.645 0 0 0-22.893 3.009v1.5l-1.34.225a9.752 9.752 0 0 0 1.625 19.366 1.582 1.582 0 0 1 0 3.164z" class="cls-3"/>
        <path id="패스_648" fill="#c9d0d8" d="M33.5 32.77a4.254 4.254 0 0 0-3.19 1.444 4.247 4.247 0 0 0-2.931-1.435h-.268a4.321 4.321 0 0 0-3.787 2.282 3.859 3.859 0 0 0-.458 1.85V43.4h2.135v-6.679a1.672 1.672 0 0 1 .683-1.349 2.17 2.17 0 0 1 3.562 1.634V43.4h2.135v-6.679a1.672 1.672 0 0 1 .683-1.349 2.17 2.17 0 0 1 3.562 1.634V43.4h2.135v-6.489a3.734 3.734 0 0 0-.329-1.591 4.322 4.322 0 0 0-3.932-2.55zm15.458 1.669a5.326 5.326 0 1 0-1.1 8.369v-1.79a.6.6 0 0 0-.858-.173 1.913 1.913 0 0 1-.519.294 3.225 3.225 0 0 1-4.029-4.591 2.668 2.668 0 0 1 1.115-1.115A3.225 3.225 0 0 1 48.4 38.2v5.187h2.135V38.2a5.291 5.291 0 0 0-1.556-3.761zm13.253-1.556h-2.17v6.138a2.222 2.222 0 0 1-1.025 1.879 2.7 2.7 0 0 1-4.323-2.161v-5.857h-2.135v5.853a4.78 4.78 0 0 0 .38 1.867 4.913 4.913 0 0 0 1.02 1.522 4.66 4.66 0 0 0 1.53 1.02 4.758 4.758 0 0 0 3.726 0 4.615 4.615 0 0 0 1.522-1.02 4.728 4.728 0 0 0 1.4-3.389zm12.761-.112a4.254 4.254 0 0 0-3.19 1.444 4.245 4.245 0 0 0-2.922-1.435h-.277a4.321 4.321 0 0 0-3.783 2.281 3.884 3.884 0 0 0-.432 1.85V43.4H66.5v-6.679a1.672 1.672 0 0 1 .683-1.349 2.17 2.17 0 0 1 3.562 1.634V43.4h2.144v-6.679a1.659 1.659 0 0 1 .674-1.349 2.17 2.17 0 0 1 3.562 1.634V43.4h2.144v-6.489a3.655 3.655 0 0 0-.329-1.573 4.322 4.322 0 0 0-3.968-2.568zm8.135 8.836a1.1 1.1 0 0 0-1.539 1.539.74.74 0 0 0 .164.164 1.1 1.1 0 0 0 1.539-1.539.74.74 0 0 0-.16-.165zm16.547-8.818h-2.348v10.632h2.352zm-6.026 1.651a5.333 5.333 0 0 0-7.53 0 5.349 5.349 0 0 0 1.702 8.704 5.34 5.34 0 0 0 4.738-.3v-1.79a.6.6 0 0 0-.865-.173 1.845 1.845 0 0 1-.519.294 3.225 3.225 0 0 1-4.029-4.591 2.668 2.668 0 0 1 1.115-1.115 3.225 3.225 0 0 1 4.833 2.766v5.187h2.135v-5.188a5.285 5.285 0 0 0-.415-2.066 5.366 5.366 0 0 0-1.161-1.729z" transform="translate(-3.101 -4.438)"/>
        <circle id="타원_43" cx="2.654" cy="2.654" r="2.654" class="cls-3" transform="translate(92.744 21.217)"/>
    </g>
</svg>
