<svg xmlns="http://www.w3.org/2000/svg" width="32" height="32" viewBox="0 0 32 32">
    <g>
        <path fill="none" d="M0 0H32V32H0z" transform="translate(-.105 -.463) translate(.105 .463)"/>
        <path fill="#fff" d="M12.122 17.176a1.1 1.1 0 0 1-1.8.847L4.3 13.039H1.1a1.1 1.1 0 0 1-1.1-1.1V7.555a1.1 1.1 0 0 1 1.1-1.1h3.2l6.02-4.985a1.1 1.1 0 0 1 1.8.847zm4.229-1.719h-.079a1.1 1.1 0 0 1-.778-.322l-.147-.148a1.1 1.1 0 0 1-.106-1.433 6.4 6.4 0 0 0-.169-7.84 1.1 1.1 0 0 1 .076-1.471l.147-.147a1.076 1.076 0 0 1 .833-.321 1.1 1.1 0 0 1 .8.4 8.812 8.812 0 0 1 .229 10.839 1.1 1.1 0 0 1-.8.439m4.549 3.4a1.1 1.1 0 0 1-.795.389h-.046a1.1 1.1 0 0 1-.778-.322l-.144-.145a1.1 1.1 0 0 1-.064-1.486 11.726 11.726 0 0 0-.194-15.321 1.1 1.1 0 0 1 .037-1.5l.144-.145A1.071 1.071 0 0 1 19.878 0a1.1 1.1 0 0 1 .791.369 14.128 14.128 0 0 1 .231 18.488" transform="translate(-.105 -.463) translate(4.22 6.138)"/>
    </g>
</svg>
