<svg xmlns="http://www.w3.org/2000/svg" width="122" height="48" viewBox="0 0 122 48">
    <defs>
        <clipPath id="clip-path">
            <path id="사각형_279" fill="#fff" stroke="#707070" d="M0 0H122V48H0z" transform="translate(225.703 143.633)"/>
        </clipPath>
        <style>
            .cls-7{fill:#414853}
        </style>
    </defs>
    <g id="signature" clip-path="url(#clip-path)" transform="translate(-225.703 -143.633)">
        <path id="bg" fill="none" d="M0 0H29.88V32.015H0z" transform="translate(225.703 143.633)"/>
        <path id="패스_12392" fill="#5d1fff" d="M238.867 150.334l10.792 6.477c.037-.386.057-.777.057-1.172a12.006 12.006 0 0 0-12.006-12.006 12.006 12.006 0 0 0-12.01 12.006v9.337a2.668 2.668 0 0 0 2.668 2.668h4.27v-13.786a4.11 4.11 0 0 1 6.229-3.524z"/>
        <path id="패스_12393" fill="#1db6cc" d="M256.48 164.662l-3.931-2.36a12.006 12.006 0 0 1-11.949 10.833h-5.068v3.887a4.11 4.11 0 0 0 6.225 3.524l14.723-8.836a4.11 4.11 0 0 0 0-7.048z" transform="translate(-2.891 -5.491)"/>
        <path id="패스_12394" fill="#0964ff" d="M252.549 159.356l-10.792-6.477a4.11 4.11 0 0 0-6.225 3.524v13.787h5.068a12.006 12.006 0 0 0 11.949-10.834z" transform="translate(-2.891 -2.545)"/>
        <path id="패스_12395" d="M290.072 169.565q1.562 4.448 2.744 7.894t2.344 6.571l2.284 6.532q1.162 3.326 2.684 7.573h-4.007q-1.4 0-2.244-.08a2.823 2.823 0 0 1-1.362-.44 2.215 2.215 0 0 1-.982-.942 12.01 12.01 0 0 1-.822-1.9l-1.482-4.488h-10.337l-1.683 5.37a5.1 5.1 0 0 1-.7 1.542 2.118 2.118 0 0 1-.862.7 2.337 2.337 0 0 1-1.122.24h-6.251q2.724-7.412 5.108-14.565t4.988-14.084q.321-.76.521-1.343a3.247 3.247 0 0 1 .521-.981 3.541 3.541 0 0 1 .982-.582 6.293 6.293 0 0 1 1.663-.38h3.806a8.688 8.688 0 0 1 1.763.14 2.537 2.537 0 0 1 1.081.5 2.977 2.977 0 0 1 .721 1.062q.282.659.644 1.661zm-2.444 15.026l-3.446-10.138-3.482 10.138z" class="cls-7" transform="translate(-12.521 -6.637)"/>
        <path id="패스_12396" d="M334.831 166.519a2.5 2.5 0 0 1 1.223-.32h6.21L331 198.214h-5.689a5.234 5.234 0 0 1-2.765-.68 6.863 6.863 0 0 1-1.8-1.523 6.4 6.4 0 0 1-1.062-1.643q-.341-.8-.461-1.162L310.45 166.2h5.809a4.5 4.5 0 0 1 1.423.22 1.753 1.753 0 0 1 1.021.982l7.493 23 7.853-23.04a1.641 1.641 0 0 1 .782-.843z" class="cls-7" transform="translate(-24.926 -6.637)"/>
        <path id="패스_12397" d="M374.423 169.565q1.562 4.448 2.744 7.894t2.344 6.571l2.284 6.532q1.162 3.326 2.684 7.573h-4.007q-1.4 0-2.244-.08a2.828 2.828 0 0 1-1.362-.44 2.213 2.213 0 0 1-.981-.942 11.947 11.947 0 0 1-.822-1.9l-1.482-4.488h-10.338l-1.682 5.37a5.119 5.119 0 0 1-.7 1.542 2.114 2.114 0 0 1-.862.7 2.335 2.335 0 0 1-1.122.24h-6.251q2.724-7.412 5.108-14.565t4.988-14.084q.321-.76.521-1.343a3.247 3.247 0 0 1 .521-.981 3.541 3.541 0 0 1 .982-.582 6.3 6.3 0 0 1 1.663-.38h3.806a8.683 8.683 0 0 1 1.763.14 2.54 2.54 0 0 1 1.082.5 2.977 2.977 0 0 1 .721 1.062q.281.659.642 1.661zm-2.444 15.026l-3.445-10.138-3.486 10.138z" class="cls-7" transform="translate(-37.33 -6.637)"/>
    </g>
</svg>
