<svg xmlns="http://www.w3.org/2000/svg" width="122" height="48" viewBox="0 0 122 48">
    <defs>
        <clipPath id="clip-path">
            <path id="사각형_278" fill="#fff" stroke="#707070" d="M0 0H122V48H0z" transform="translate(225.703 269.918)"/>
        </clipPath>
        <style>
            .cls-4{fill:#fff}
        </style>
    </defs>
    <g id="signature-white" clip-path="url(#clip-path)" transform="translate(-225.703 -269.918)">
        <path id="bg" fill="none" d="M0 0H30.025V32.015H0z" transform="translate(225.703 270.122)"/>
        <path id="패스_12387" d="M238.93 276.91l10.844 6.476c.038-.385.057-.776.057-1.172a12.035 12.035 0 0 0-12.064-12.006 12.035 12.035 0 0 0-12.067 12.007v9.337a2.675 2.675 0 0 0 2.68 2.668h4.291v-13.786a4.13 4.13 0 0 1 6.259-3.524z" class="cls-4" transform="translate(0 -.086)"/>
        <path id="패스_12388" d="M256.581 291.237l-3.95-2.36a12.043 12.043 0 0 1-12.006 10.834h-5.093v3.889a4.13 4.13 0 0 0 6.255 3.524l14.794-8.836a4.1 4.1 0 0 0 0-7.051z" class="cls-4" transform="translate(-2.857 -5.576)"/>
        <path id="패스_12389" d="M290.177 296.141q1.569 4.448 2.757 7.893t2.356 6.572l2.3 6.531q1.167 3.327 2.7 7.573h-4.026q-1.411 0-2.255-.08a2.854 2.854 0 0 1-1.369-.44 2.225 2.225 0 0 1-.987-.942 12.009 12.009 0 0 1-.826-1.9l-1.49-4.488h-10.394l-1.691 5.369a5.088 5.088 0 0 1-.7 1.543 2.124 2.124 0 0 1-.866.7 2.349 2.349 0 0 1-1.127.24h-6.281q2.738-7.412 5.133-14.564t5.013-14.084q.322-.761.523-1.343a3.255 3.255 0 0 1 .523-.982 3.58 3.58 0 0 1 .987-.581 6.323 6.323 0 0 1 1.671-.38h3.825a8.72 8.72 0 0 1 1.772.14 2.563 2.563 0 0 1 1.087.5 2.989 2.989 0 0 1 .725 1.062q.276.659.64 1.661zm-2.456 15.025l-3.463-10.137-3.5 10.137z" class="cls-4" transform="translate(-12.375 -6.723)"/>
        <path id="패스_12390" d="M334.949 293.1a2.521 2.521 0 0 1 1.229-.32h6.24L331.1 324.79h-5.717a5.279 5.279 0 0 1-2.778-.681 6.886 6.886 0 0 1-1.812-1.523 6.423 6.423 0 0 1-1.067-1.643q-.343-.8-.463-1.162l-8.817-27.006h5.838a4.524 4.524 0 0 1 1.43.22 1.756 1.756 0 0 1 1.026.982l7.529 23 7.891-23.039a1.641 1.641 0 0 1 .789-.838z" class="cls-4" transform="translate(-24.636 -6.723)"/>
        <path id="패스_12391" d="M374.528 296.141q1.569 4.448 2.758 7.893t2.355 6.572l2.3 6.531q1.172 3.325 2.7 7.573h-4.026q-1.41 0-2.255-.08a2.859 2.859 0 0 1-1.369-.44 2.224 2.224 0 0 1-.986-.942 11.947 11.947 0 0 1-.826-1.9l-1.49-4.488h-10.395l-1.69 5.369a5.1 5.1 0 0 1-.705 1.543 2.12 2.12 0 0 1-.866.7 2.347 2.347 0 0 1-1.127.24h-6.281q2.738-7.412 5.133-14.564t5.013-14.084q.322-.761.523-1.343a3.254 3.254 0 0 1 .523-.982 3.58 3.58 0 0 1 .987-.581 6.33 6.33 0 0 1 1.671-.38h3.825a8.715 8.715 0 0 1 1.772.14 2.565 2.565 0 0 1 1.087.5 2.989 2.989 0 0 1 .724 1.062q.282.659.645 1.661zm-2.456 15.025l-3.462-10.137-3.5 10.137z" class="cls-4" transform="translate(-36.896 -6.723)"/>
    </g>
</svg>
