<svg xmlns="http://www.w3.org/2000/svg" width="96" height="22" viewBox="0 0 96 22">
    <path fill="#070304" d="M5.064 14.949a7 7 0 0 1 1.55-4.4c-.02.024-.042.048-.061.072l-.787-.787a3.771 3.771 0 1 1 1.8-3.209 3.737 3.737 0 0 1-.57 1.987L7 8.6l.786.786a.527.527 0 0 0-.048.04 7.067 7.067 0 0 1 8.75-.022l-.023-.02 2.6-2.593A4.392 4.392 0 1 1 20.3 8.026l-2.6 2.594-.036-.042a7.058 7.058 0 1 1-12.6 4.371zm6.683-3.85a3.878 3.878 0 0 0-1.424.425 3.861 3.861 0 0 0-2.052 3.8 3.783 3.783 0 0 0 .425 1.42 3.872 3.872 0 0 0 2.333 1.911 3.916 3.916 0 0 0 1.094.157 3.711 3.711 0 0 0 .385-.019 3.864 3.864 0 0 0 3.269-5.152 3.831 3.831 0 0 0-.651-1.15l2.259-2.254.013.015-.012-.015 2.514-2.51 1.465-1.462a2.321 2.321 0 1 0 1.86-4.149 2.32 2.32 0 0 0-1.725.286 2.316 2.316 0 0 0-.674 3.323l-1.459 1.459L16.845 9.7l-2.26 2.256a3.865 3.865 0 0 0-2.452-.877q-.193.001-.387.021zm-4.881-.853l-.074.084-.014.016c-.016.018-.032.04-.049.061.052-.062.1-.123.159-.182s.122-.132.184-.195.136-.136.207-.2l.028-.03.077-.07.025-.03-.7-.7-1.232-1.227A2.034 2.034 0 0 0 5.8 6.241a2.034 2.034 0 0 0-.861-1.312 2.052 2.052 0 0 0-1.539-.32 2.068 2.068 0 0 0-.731.288 2.051 2.051 0 0 0-.78 2.52 2.054 2.054 0 0 0 .44.65 2.022 2.022 0 0 0 .651.44 2.066 2.066 0 0 0 1.955-.2l1.234 1.234.7.7zm.518-.518c.026-.025.054-.046.08-.071-.016.015-.033.028-.049.04zm9.461-.028l-.026-.02zm50.447 10.542a2.67 2.67 0 0 1-1.6-1.16l1.177-.927a1.736 1.736 0 0 0 .871.679 2.183 2.183 0 0 0 .7.117 2.062 2.062 0 0 0 .334-.027 1.46 1.46 0 0 0 .6-.245.446.446 0 0 0 .107-.623.4.4 0 0 0-.065-.072 1.149 1.149 0 0 0-.381-.229 4.441 4.441 0 0 0-.78-.206 4.634 4.634 0 0 1-1.256-.4 1.748 1.748 0 0 1-.975-1.559 1.919 1.919 0 0 1 1.051-1.712 3.375 3.375 0 0 1 2.82-.117 2.505 2.505 0 0 1 1.165.967l-1.214.9a1.509 1.509 0 0 0-1.159-.689 1.793 1.793 0 0 0-.433.024 1.026 1.026 0 0 0-.4.165.375.375 0 0 0-.137.159.442.442 0 0 0 .074.494 1.006 1.006 0 0 0 .454.283c.155.047.314.087.472.12.262.054.525.115.784.181a3.537 3.537 0 0 1 .682.252 1.763 1.763 0 0 1 .77.722 1.865 1.865 0 0 1 .127.273 1.936 1.936 0 0 1-1.144 2.488 4.417 4.417 0 0 1-1.552.281 4.474 4.474 0 0 1-1.092-.139zm22.163-.14V9.79h1.032v4.62h.013a3.236 3.236 0 0 1 4.486 0 3.327 3.327 0 0 1 .127 4.662 3.242 3.242 0 0 1-4.613.128h-.006v.9zM90.7 16.8a2.037 2.037 0 1 0 2.036-2.06A2.051 2.051 0 0 0 90.7 16.8zm-4 3.3v-.9h-.009a3.234 3.234 0 0 1-4.485 0 3.324 3.324 0 0 1-.126-4.664 3.22 3.22 0 0 1 2.279-1.03h.091a3.221 3.221 0 0 1 2.242.9v-.9h1.029v6.6zm-4.289-3.3a2.037 2.037 0 1 0 2.038-2.059 2.051 2.051 0 0 0-2.034 2.059zm-7.082 3.3V9.79h1.035v9.075H80.5V20.1zm-19.978 0V9.79h4.4a5.157 5.157 0 1 1 0 10.312zm1.731-1.756h2.671a3.4 3.4 0 1 0 0-6.8h-2.668zM50.99 20.1l-5.272-7.636h-.006V20.1h-1.725V9.79h2.3l5.271 7.637V9.79h1.724V20.1zm-10.79 0V9.79h1.722V20.1zm-3.79 0v-7.633L33.082 20.1h-.923l-3.319-7.63v7.63h-1.732V9.79h2.337l3.171 7.3 3.169-7.3h2.337V20.1zM6.869 10.242l.007-.009-.007.009z"/>
</svg>
