<svg xmlns="http://www.w3.org/2000/svg" width="173" height="68" viewBox="0 0 173 68">
    <defs>
        <clipPath id="clip-path">
            <path id="사각형_279" fill="#fff" stroke="#707070" d="M0 0H173V68H0z" transform="translate(225.703 143.633)"/>
        </clipPath>
        <style>
            .cls-7{fill:#414853}
        </style>
    </defs>
    <g id="signature" clip-path="url(#clip-path)" transform="translate(-225.703 -143.633)">
        <path id="bg" fill="none" d="M0 0H42.331V45.354H0z" transform="translate(225.703 143.633)"/>
        <path id="패스_12392" fill="#5d1fff" d="M244.351 153.126l15.288 9.176c.053-.547.081-1.1.081-1.661a17.008 17.008 0 0 0-17.008-17.008 17.008 17.008 0 0 0-17.012 17.008v13.228a3.779 3.779 0 0 0 3.779 3.78h6.049v-19.53a5.823 5.823 0 0 1 8.823-4.993z"/>
        <path id="패스_12393" fill="#1db6cc" d="M265.208 165.645l-5.569-3.343a17.009 17.009 0 0 1-16.927 15.347h-7.18v5.507a5.822 5.822 0 0 0 8.819 4.992l20.857-12.518a5.822 5.822 0 0 0 0-9.985z"/>
        <path id="패스_12394" fill="#0964ff" d="M259.639 162.3l-15.288-9.176a5.823 5.823 0 0 0-8.819 4.993v19.53h7.18a17.009 17.009 0 0 0 16.927-15.347z"/>
        <path id="패스_12395" d="M299.154 170.967q2.212 6.3 3.887 11.183t3.321 9.309l3.236 9.253q1.648 4.711 3.8 10.728h-5.676q-1.989 0-3.179-.114a4 4 0 0 1-1.93-.624 3.137 3.137 0 0 1-1.391-1.334 17.014 17.014 0 0 1-1.164-2.7l-2.1-6.358h-14.642l-2.384 7.607a7.228 7.228 0 0 1-.993 2.185 3 3 0 0 1-1.221.994 3.311 3.311 0 0 1-1.589.34h-8.855q3.859-10.5 7.237-20.634t7.067-19.952q.455-1.077.738-1.9a4.6 4.6 0 0 1 .738-1.39 5.017 5.017 0 0 1 1.391-.824 8.915 8.915 0 0 1 2.356-.539h5.392a12.309 12.309 0 0 1 2.5.2 3.6 3.6 0 0 1 1.532.71 4.218 4.218 0 0 1 1.022 1.5q.394.941.907 2.36zm-3.463 21.287l-4.882-14.362-4.938 14.362z" class="cls-7"/>
        <path id="패스_12396" d="M344.99 166.653a3.54 3.54 0 0 1 1.732-.454h8.8l-15.951 45.354h-8.06a7.415 7.415 0 0 1-3.917-.964 9.723 9.723 0 0 1-2.554-2.158 9.071 9.071 0 0 1-1.5-2.327q-.483-1.134-.653-1.646L310.45 166.2h8.23a6.379 6.379 0 0 1 2.016.312 2.484 2.484 0 0 1 1.447 1.391l10.615 32.583 11.125-32.64a2.324 2.324 0 0 1 1.107-1.193z" class="cls-7"/>
        <path id="패스_12397" d="M383.505 170.967q2.213 6.3 3.888 11.183t3.32 9.309q1.59 4.542 3.236 9.253t3.8 10.728h-5.676q-1.987 0-3.179-.114a4.006 4.006 0 0 1-1.93-.624 3.135 3.135 0 0 1-1.39-1.334 16.932 16.932 0 0 1-1.164-2.7l-2.1-6.358h-14.643l-2.383 7.607a7.251 7.251 0 0 1-.994 2.185 2.994 2.994 0 0 1-1.221.994 3.308 3.308 0 0 1-1.589.34h-8.855q3.859-10.5 7.237-20.634t7.067-19.952q.455-1.077.738-1.9a4.6 4.6 0 0 1 .738-1.39 5.016 5.016 0 0 1 1.391-.824 8.924 8.924 0 0 1 2.356-.539h5.392a12.3 12.3 0 0 1 2.5.2 3.6 3.6 0 0 1 1.533.71 4.217 4.217 0 0 1 1.021 1.5q.395.941.907 2.36zm-3.463 21.287l-4.881-14.362-4.939 14.362z" class="cls-7"/>
    </g>
</svg>
