<svg xmlns="http://www.w3.org/2000/svg" width="48" height="48" viewBox="0 0 48 48">
    <defs>
        <linearGradient id="apj7mx7rqb" x1=".03" x2=".97" y1=".035" y2=".965" gradientUnits="objectBoundingBox">
            <stop offset="0" stop-color="#0ff"/>
            <stop offset="1" stop-color="#a23aff"/>
        </linearGradient>
        <clipPath id="jwewdumpoa">
            <path fill="none" d="M0 0H48V48H0z" transform="translate(1209.5 183.61)"/>
        </clipPath>
    </defs>
    <g clip-path="url(#jwewdumpoa)" transform="translate(-1209.5 -183.61)">
        <path fill="url(#apj7mx7rqb)" d="M1231.5 217.735a2 2 0 0 0 4 0v-24a2 2 0 1 0-4 0zm-20-24a2 2 0 0 0-2 2v20a2 2 0 0 0 4 0v-20a2 2 0 0 0-2-2zm17 20v-16a2 2 0 1 0-4 0v16a2 2 0 0 0 4 0zm-9-2a2 2 0 0 0 2-2v-8a2 2 0 1 0-4 0v8a2 2 0 0 0 2 2zm23 2v-16a2 2 0 1 0-4 0v16a2 2 0 0 0 4 0zm13-20a2 2 0 0 0-2 2v20a2 2 0 0 0 4 0v-20a2 2 0 0 0-2-2zm-8 6a2 2 0 0 0-2 2v8a2 2 0 0 0 4 0v-8a2 2 0 0 0-2-2z" transform="translate(0 2)"/>
    </g>
</svg>
