<svg xmlns="http://www.w3.org/2000/svg" width="28" height="28" viewBox="0 0 28 28">
    <defs>
        <linearGradient id="w2a6hom3ob" x1=".138" x2=".862" y1=".245" y2=".969" gradientUnits="objectBoundingBox">
            <stop offset="0" stop-color="#0ff"/>
            <stop offset="1" stop-color="#a23aff"/>
        </linearGradient>
        <clipPath id="wlci7peb9a">
            <path fill="#fff" d="M0 0H28V28H0z" transform="translate(571 938)"/>
        </clipPath>
    </defs>
    <g clip-path="url(#wlci7peb9a)" transform="translate(-571 -938)">
        <path fill="url(#w2a6hom3ob)" d="M940.091 545.042l.37-.778a8.508 8.508 0 0 0 .845-3.409v-.212a8.253 8.253 0 0 0-2.765-6.128 9.892 9.892 0 0 0-13.139 0 8.359 8.359 0 0 0-2.722 5.325 6.955 6.955 0 0 0-3.145 5.73 6.679 6.679 0 0 0 1.267 3.91l-1.195 2.956a.989.989 0 0 0 1.315 1.275l3.478-1.533a8.175 8.175 0 0 0 2.792.487h.063a8.107 8.107 0 0 0 4.022-1.089 7.407 7.407 0 0 0 2.555-2.466 9.749 9.749 0 0 0 1.646-.458l4.445 1.96a1 1 0 0 0 1.089-.2.977.977 0 0 0 .233-1.062zm-1.944-.478a1.059 1.059 0 0 0-.012.7l.981 2.943-3.219-1.536a.983.983 0 0 0-.787 0 7.959 7.959 0 0 1-3.134.633c-4.4 0-7.359-3.44-7.359-6.652 0-3.668 3.3-6.651 7.359-6.651 3.92 0 7.359 3.151 7.359 6.744a6.6 6.6 0 0 1-.869 3.267zm-10.99 6.123a6.164 6.164 0 0 1-2.392-.49.987.987 0 0 0-.786 0l-1.629.718.5-1.227a.985.985 0 0 0-.164-1.011 4.745 4.745 0 0 1-1.172-3.111 4.8 4.8 0 0 1 1.312-3.267 8.693 8.693 0 0 0 2.468 4.336 9.544 9.544 0 0 0 5.85 2.6 6.061 6.061 0 0 1-3.95 1.444z" transform="translate(-345.424 409.092)"/>
    </g>
</svg>
