<svg xmlns="http://www.w3.org/2000/svg" width="28" height="28" viewBox="0 0 28 28">
    <defs>
        <linearGradient id="k26081d6ub" x2="1" y2="1" gradientUnits="objectBoundingBox">
            <stop offset="0" stop-color="#ffc500"/>
            <stop offset="1" stop-color="#f83600"/>
        </linearGradient>
        <clipPath id="o96krw26ta">
            <path fill="#fff" stroke="#707070" d="M0 0H28V28H0z" transform="translate(579 890)"/>
        </clipPath>
    </defs>
    <g clip-path="url(#o96krw26ta)" transform="translate(-579 -890)">
        <path fill="url(#k26081d6ub)" d="M584.463 812.4h-.2v-7.1a7.246 7.246 0 0 0-14.491 0v7.1h-.2a3.071 3.071 0 0 0-3.068 3.068v3.781a1.138 1.138 0 0 0 1.137 1.136h18.754a1.138 1.138 0 0 0 1.137-1.136v-3.781a3.072 3.072 0 0 0-3.069-3.068zm-12.418 0v-7.1a4.973 4.973 0 1 1 9.945 0v7.1zm-3.268 3.068a.8.8 0 0 1 .795-.795h14.891a.8.8 0 0 1 .795.795v2.644h-16.481zm7.1-20.052v-1.896a1.136 1.136 0 0 1 2.273 0v1.894a1.136 1.136 0 0 1-2.273 0zm-8.773 2.682a1.137 1.137 0 0 1 1.607-1.607l1.339 1.339a1.137 1.137 0 0 1-1.607 1.607zm16.872 1.339a1.138 1.138 0 0 1 0-1.607l1.339-1.339a1.137 1.137 0 0 1 1.607 1.607l-1.339 1.339a1.136 1.136 0 0 1-1.607 0zm-5.827 2.687a1.138 1.138 0 0 1-1.136 1.137 2.046 2.046 0 0 0-2.043 2.043 1.137 1.137 0 0 1-2.273 0 4.321 4.321 0 0 1 4.316-4.316 1.138 1.138 0 0 1 1.141 1.133z" transform="translate(15.607 97.617)"/>
    </g>
</svg>
