<svg xmlns="http://www.w3.org/2000/svg" width="24" height="24" viewBox="0 0 24 24">
    <defs>
        <clipPath id="clip-path">
            <path id="사각형_28" d="M0 0H24V24H0z" class="cls-1" transform="translate(1570 171)"/>
        </clipPath>
        <style>
            .cls-1{fill:#fff}
        </style>
    </defs>
    <g id="icon-mute-24px" clip-path="url(#clip-path)" transform="translate(-1570 -171)">
        <path id="icon-mute-22px" d="M11.745 22.489l-6.472-6.064H.948A.942.942 0 0 1 0 15.488V7.257a.942.942 0 0 1 .939-.946h4.34L11.743.253a.952.952 0 0 1 1.6.691V21.8a.971.971 0 0 1-.937.952 1.046 1.046 0 0 1-.661-.263zM6.531 7.745V15l4.92 4.61V3.135zM1.9 14.53h2.727V8.206H1.9zm20.493.644L19.916 12.7l-2.475 2.475a.941.941 0 0 1-1.331-1.332l2.473-2.475-2.474-2.475a.941.941 0 0 1 1.331-1.332l2.475 2.473 2.476-2.473a.941.941 0 0 1 1.331 1.332l-2.475 2.475 2.475 2.475a.941.941 0 1 1-1.331 1.332z" class="cls-1" transform="translate(1570 171.667)"/>
    </g>
</svg>
