<svg xmlns="http://www.w3.org/2000/svg" width="24" height="24" viewBox="0 0 24 24">
    <defs>
        <clipPath id="b4cy3n9xca">
            <path fill="none" d="M0 0H24V24H0z" transform="translate(1220 91)"/>
        </clipPath>
    </defs>
    <g clip-path="url(#b4cy3n9xca)" transform="translate(-1220 -91)">
        <g fill="none">
            <path d="M-12261-1160a2 2 0 0 1-2-2v-16a2 2 0 0 1 2-2h2a2 2 0 0 1 2 2v16a2 2 0 0 1-2 2zm-10 0a2 2 0 0 1-2-2v-16a2 2 0 0 1 2-2h2a2 2 0 0 1 2 2v16a2 2 0 0 1-2 2z" transform="translate(13497 1272.999)"/>
            <path fill="#fff" d="M-12259.001-1162l.002-.002v-15.997h-.001-.001l-1.998-.001.002 16h1.996m-10 0l.001-.002.001-15.997-2.001-.001-.001 15.998.002.002h1.998m10 2h-1.999c-1.105 0-1.999-.896-1.999-2.002V-1178c0-1.106.894-1.999 1.999-1.999h1.999c1.105 0 2.002.893 2.002 1.999v15.998c0 1.106-.897 2.002-2.002 2.002zm-9.998 0h-2.002c-1.103 0-1.999-.896-1.999-2.002V-1178c0-1.106.896-1.999 1.999-1.999h2.002c1.103 0 1.999.893 1.999 1.999v15.998c0 1.106-.896 2.002-1.999 2.002z" transform="translate(13497 1272.999)"/>
        </g>
    </g>
</svg>
