<svg xmlns="http://www.w3.org/2000/svg" width="14" height="14" viewBox="0 0 14 14">
    <defs>
        <linearGradient id="1xvpljrsha" x2="1" y2="1" gradientUnits="objectBoundingBox">
            <stop offset="0" stop-color="#0ff"/>
            <stop offset="1" stop-color="#a23aff"/>
        </linearGradient>
    </defs>
    <path fill="url(#1xvpljrsha)" d="M97.073 89.166l-.71-.712a6.98 6.98 0 1 0-2.037 2.082l.691.693a1.451 1.451 0 0 0 2.056 0 1.462 1.462 0 0 0 0-2.063zm-6.6-.382A4.082 4.082 0 1 1 94.22 86.3l-.682-.684a1.456 1.456 0 1 0-2.056 2.062l.715.717a4.034 4.034 0 0 1-1.719.388z" transform="translate(-83.499 -77.7)"/>
</svg>
