<svg xmlns="http://www.w3.org/2000/svg" width="24" height="24" viewBox="0 0 24 24">
    <defs>
        <clipPath id="clip-path">
            <path id="사각형_29" d="M0 0H24V24H0z" class="cls-1" transform="translate(1656 225)"/>
        </clipPath>
        <style>
            .cls-1{fill:#fff}
        </style>
    </defs>
    <g id="icon-speaker-24px" clip-path="url(#clip-path)" transform="translate(-1656 -225)">
        <path id="icon-speaker-22px" d="M11.741 22.487l-6.469-6.06H.947A.945.945 0 0 1 0 15.48V7.261a.945.945 0 0 1 .947-.947h4.33L11.741.258a.95.95 0 0 1 1.6.691V21.8a.97.97 0 0 1-.936.952 1.042 1.042 0 0 1-.664-.265zM6.525 7.749V15l4.919 4.608V3.14zm-4.632 6.784h2.729V8.208H1.893zm17.124 2.487a.956.956 0 0 1-.023-1.341 6.224 6.224 0 0 0 0-8.608.95.95 0 0 1 1.364-1.323 8.156 8.156 0 0 1 0 11.254.958.958 0 0 1-.683.286.938.938 0 0 1-.657-.267zm-2.905-2.112a.974.974 0 0 1-.023-1.341 3.2 3.2 0 0 0 0-4.385.95.95 0 0 1 1.365-1.322 5.088 5.088 0 0 1 0 7.031.959.959 0 0 1-.683.286.938.938 0 0 1-.658-.268z" class="cls-1" transform="translate(1656.667 225.667)"/>
    </g>
</svg>
