<svg xmlns="http://www.w3.org/2000/svg" width="28" height="28" viewBox="0 0 28 28">
    <defs>
        <linearGradient id="b7xjo35m0b" x1=".036" x2=".826" y1=".117" y2=".964" gradientUnits="objectBoundingBox">
            <stop offset="0" stop-color="#0ff"/>
            <stop offset="1" stop-color="#a23aff"/>
        </linearGradient>
        <clipPath id="iggvedu4ea">
            <path fill="#fff" stroke="#707070" d="M0 0H28V28H0z" transform="translate(557 940)"/>
        </clipPath>
    </defs>
    <g clip-path="url(#iggvedu4ea)" transform="translate(-557 -940)">
        <path fill="url(#b7xjo35m0b)" d="M838.5 623.819a1 1 0 0 1-1-.992v-18.16a1 1 0 0 1 1-.993h7.629a.993.993 0 1 1 0 1.986H839.5v16.178h16.306v-6.574a1 1 0 0 1 2 0v7.567a1 1 0 0 1-1 .992zm5.763-7.622a1 1 0 0 1-.65-1.073l.4-2.8a10.181 10.181 0 0 1 10.055-8.648h.212v-2.034a1 1 0 0 1 .586-.9 1.006 1.006 0 0 1 1.075.156l6.1 5.3a.986.986 0 0 1 0 1.494l-6.1 5.3a1.008 1.008 0 0 1-1.074.156 1 1 0 0 1-.586-.9V610.2h-.79a8.125 8.125 0 0 0-6.915 3.8l-1.124 1.789a1.014 1.014 0 0 1-.849.467 1.027 1.027 0 0 1-.342-.061zm2.1-5.089a10.147 10.147 0 0 1 7.128-2.892h1.789a1 1 0 0 1 1 .993v.838l3.582-3.111-3.582-3.111v.839a1 1 0 0 1-1 .992h-1.214a8.2 8.2 0 0 0-7.7 5.45z" transform="translate(-278.944 341.686)"/>
    </g>
</svg>
