<svg xmlns="http://www.w3.org/2000/svg" width="14" height="13.997" viewBox="0 0 14 13.997">
    <defs>
        <linearGradient id="swnnwo1nta" x2="1" y2="1" gradientUnits="objectBoundingBox">
            <stop offset="0" stop-color="#0ff"/>
            <stop offset="1" stop-color="#a23aff"/>
        </linearGradient>
    </defs>
    <path fill="url(#swnnwo1nta)" d="M135.545 131.06h-2.766l.533-2.8h2.233a1.12 1.12 0 1 0 0-2.24h-1.806l.386-2.03a1.12 1.12 0 0 0-2.2-.419l-.466 2.449h-2.2l.386-2.03a1.12 1.12 0 0 0-2.2-.419l-.466 2.449h-3.193a1.12 1.12 0 1 0 0 2.24h2.766l-.533 2.8h-2.233a1.12 1.12 0 1 0 0 2.24h1.806l-.386 2.03a1.12 1.12 0 0 0 2.2.419l.467-2.449h2.2l-.386 2.03a1.12 1.12 0 0 0 2.2.419l.467-2.449h3.193a1.12 1.12 0 1 0 0-2.24zm-5.046 0h-2.2l.533-2.8h2.2z" transform="translate(-122.667 -122.661)"/>
</svg>
