<svg xmlns="http://www.w3.org/2000/svg" width="40" height="40" viewBox="0 0 40 40">
    <defs>
        <linearGradient id="ru5fn3kzwb" x1=".1" x2=".901" y1=".014" y2=".689" gradientUnits="objectBoundingBox">
            <stop offset="0" stop-color="#0ff"/>
            <stop offset="1" stop-color="#a23aff"/>
        </linearGradient>
        <clipPath id="1j9gj2l9ra">
            <path fill="#022b49" stroke="#707070" d="M0 0H40V40H0z" transform="translate(706 883)"/>
        </clipPath>
    </defs>
    <g clip-path="url(#1j9gj2l9ra)" transform="translate(-706 -883)">
        <path fill="url(#ru5fn3kzwb)" d="M889.55 540.887v18.708a1.795 1.795 0 0 1-3.59 0v-18.708a1.795 1.795 0 1 1 3.59 0zm5.489-8.387H880.4a4.872 4.872 0 0 0-4.867 4.867v2.14a1.8 1.8 0 0 0 1.794 1.8 1.8 1.8 0 0 0 1.794-1.8v-2.145a1.273 1.273 0 0 1 1.274-1.272h14.647a1.275 1.275 0 0 1 1.271 1.271v2.146a1.795 1.795 0 0 0 3.59 0v-2.146a4.873 4.873 0 0 0-4.86-4.861z" transform="translate(-161.756 356.056)"/>
    </g>
</svg>
