<svg xmlns="http://www.w3.org/2000/svg" width="36" height="36" viewBox="0 0 36 36">
    <defs>
        <clipPath id="bj8vmv2yla">
            <path fill="#fff" stroke="#707070" d="M0 0H36V36H0z" transform="translate(3432 -141)"/>
        </clipPath>
    </defs>
    <g clip-path="url(#bj8vmv2yla)" transform="translate(-3432 141)">
        <path fill="#fff" d="M279.645 84.268a2.75 2.75 0 0 0-1.5-1.5l-.339-.14-18.116-7.517a2.772 2.772 0 0 0-3.621 1.5 2.788 2.788 0 0 0-.125 1.746l1.778 6.972-1.775 6.971a2.763 2.763 0 0 0 2.679 3.457 2.776 2.776 0 0 0 1.068-.213l18.454-7.658a2.77 2.77 0 0 0 1.5-3.621zM258.35 93.1a.311.311 0 0 1-.014-.191l.034-.135 1.584-6.214h6.23a1.233 1.233 0 0 0-.007-2.465h-6.222l-1.618-6.348a.307.307 0 0 1 .414-.358l18.449 7.659a.3.3 0 0 1 .166.166.292.292 0 0 1 0 .233.3.3 0 0 1-.165.166l-18.451 7.656a.307.307 0 0 1-.4-.167z" transform="translate(3182.142 -208.33)"/>
    </g>
</svg>
