<svg xmlns="http://www.w3.org/2000/svg" width="128" height="128" viewBox="0 0 128 128">
    <defs>
        <linearGradient id="t057hr72yb" x1=".5" x2=".5" y2="1" gradientUnits="objectBoundingBox">
            <stop offset="0" stop-color="#fd9483"/>
            <stop offset=".119" stop-color="#fd72a6"/>
            <stop offset=".541" stop-color="#b85bfa"/>
            <stop offset="1" stop-color="#676aff"/>
        </linearGradient>
        <clipPath id="umbtmesdka">
            <path fill="#fff" d="M0 0H84V84H0z" transform="translate(450.65 268.577)"/>
        </clipPath>
    </defs>
    <g>
        <path fill="none" d="M0 0H128V128H0z" transform="translate(-508 -146) translate(508 146)"/>
        <g clip-path="url(#umbtmesdka)" transform="translate(-508 -146) translate(79.35 -100.577)">
            <path fill="url(#t057hr72yb)" d="M57.044 75.308V47.971L41.395 57.54l-14.989-9.453v35.781L0 69.172V23.057L41.426 0l41.426 23.057v46.58L57.044 84zm7.595-4.231l10.612-5.9v-37.65L41.426 8.694 7.6 27.522v37.185l11.209 6.24V34.314L41.457 48.6l23.189-14.172zm-29.521 12.9v-2.856h3.846V64.035h-3.846v-2.857h12.615v2.857H43.89v17.086h3.844v2.857z" transform="translate(451.306 268.577)"/>
        </g>
    </g>
</svg>
