<svg xmlns="http://www.w3.org/2000/svg" width="24" height="24" viewBox="0 0 24 24">
    <defs>
        <clipPath id="tr5z2i0yfa">
            <path fill="none" d="M0 0H24V24H0z" transform="translate(1236 108)"/>
        </clipPath>
    </defs>
    <g clip-path="url(#tr5z2i0yfa)" transform="translate(-1236 -108)">
        <path fill="#fff" d="M19.906 8.784L5.068.339A2.037 2.037 0 0 0 1.889 2.19v17.63A1.95 1.95 0 0 0 3.77 22a2.485 2.485 0 0 0 1.293-.4l14.905-9.123a2.183 2.183 0 0 0 1.157-1.87 2.177 2.177 0 0 0-1.219-1.823zm-.937 2.066l-14.9 9.121a.949.949 0 0 1-.233.108.991.991 0 0 1-.036-.259V2.191a1.417 1.417 0 0 1 .033-.3.748.748 0 0 1 .292.109l14.836 8.445c.183.1.237.2.255.176a.641.641 0 0 1-.247.229z" transform="translate(1238.111 109)"/>
    </g>
</svg>
