<svg xmlns="http://www.w3.org/2000/svg" width="36" height="36" viewBox="0 0 36 36">
    <defs>
        <clipPath id="59zbmenopa">
            <path fill="#fff" stroke="#707070" d="M0 0H36V36H0z" transform="translate(3721 -111)"/>
        </clipPath>
    </defs>
    <g clip-path="url(#59zbmenopa)" transform="translate(-3721 111)">
        <path fill="#fff" d="M121.582 106.1a1.538 1.538 0 0 1-2.165 2.184l-4.393-4.4-4.376 4.383a1.566 1.566 0 0 1-1.089.443 1.531 1.531 0 0 1-1.085-2.618l4.376-4.381-4.375-4.38a1.538 1.538 0 0 1 0-2.176 1.619 1.619 0 0 1 2.174 0l4.376 4.38 4.376-4.38a1.556 1.556 0 0 1 2.174 0 1.539 1.539 0 0 1 0 2.176l-4.376 4.38z" transform="translate(3623.976 -194.715)"/>
    </g>
</svg>
