<svg xmlns="http://www.w3.org/2000/svg" width="24" height="24.018" viewBox="0 0 24 24.018">
    <path fill="#676c8d" d="M-16526.668 4163.683a1.146 1.146 0 0 1 0-1.617l5.377-5.376a10.13 10.13 0 0 1-1.516-2.576 10.159 10.159 0 0 1-.74-3.831 10.16 10.16 0 0 1 .748-3.83 10.152 10.152 0 0 1 2.238-3.369 10.167 10.167 0 0 1 2.691-1.933 2.849 2.849 0 0 1 1.26-.295 2.836 2.836 0 0 1 1.078.212 2.814 2.814 0 0 1 .934.622l1.354 1.352 2.705-2.706a1.139 1.139 0 0 1 .809-.335 1.141 1.141 0 0 1 .811.335 1.146 1.146 0 0 1 0 1.618l-2.707 2.707 3.967 3.966 2.707-2.706a1.131 1.131 0 0 1 .809-.335 1.137 1.137 0 0 1 .809.335 1.139 1.139 0 0 1 .334.809 1.141 1.141 0 0 1-.334.809l-2.707 2.706 1.293 1.293a2.845 2.845 0 0 1 .539 3.274 10.2 10.2 0 0 1-1.959 2.718 10.179 10.179 0 0 1-3.365 2.224 10.118 10.118 0 0 1-3.816.743 10.13 10.13 0 0 1-3.846-.754 10.178 10.178 0 0 1-2.469-1.442l-5.383 5.384a1.137 1.137 0 0 1-.809.335 1.139 1.139 0 0 1-.812-.337zm9.813-20.481a7.867 7.867 0 0 0-2.088 1.5 7.886 7.886 0 0 0-2.307 5.217 7.886 7.886 0 0 0 1.771 5.373c.166.2.342.4.523.58a8.12 8.12 0 0 0 .686.613 7.916 7.916 0 0 0 4.918 1.723 7.865 7.865 0 0 0 5.57-2.3 7.892 7.892 0 0 0 1.52-2.108.559.559 0 0 0-.105-.643l-9.848-9.847a.555.555 0 0 0-.395-.164.55.55 0 0 0-.245.054zm1.607 12.271l-3.281-3.28a1.146 1.146 0 0 1 0-1.618 1.138 1.138 0 0 1 .809-.335 1.139 1.139 0 0 1 .811.335l3.279 3.28a1.146 1.146 0 0 1 0 1.617 1.138 1.138 0 0 1-.809.335 1.131 1.131 0 0 1-.809-.334zm2.348-2.348l-3.279-3.28a1.143 1.143 0 0 1 0-1.618 1.133 1.133 0 0 1 .809-.335 1.139 1.139 0 0 1 .809.335l3.279 3.28a1.143 1.143 0 0 1 0 1.618 1.131 1.131 0 0 1-.809.335 1.137 1.137 0 0 1-.809-.335z" transform="translate(16527.002 -4140)"/>
</svg>
