<svg xmlns="http://www.w3.org/2000/svg" width="133" height="293" viewBox="0 0 133 293">
    <defs>
        <linearGradient id="widfnjpjcb" x1="1.031" x2="0" y2="1" gradientUnits="objectBoundingBox">
            <stop offset="0" stop-color="#cd368c" stop-opacity=".4"/>
            <stop offset="1" stop-color="#0a65ff" stop-opacity=".4"/>
        </linearGradient>
        <clipPath id="u8wqy8kbua">
            <path fill="#fff" stroke="#707070" d="M0 0H133V293H0z" transform="translate(1858 698)"/>
        </clipPath>
    </defs>
    <g clip-path="url(#u8wqy8kbua)" transform="translate(-1858 -698)">
        <path fill="url(#widfnjpjcb)" d="M139.154 804.528s-3.247 3.771-2.951 5.588 11.375 19.282 20.246 28.223 14.039 14.391 17.436 16.346a8.863 8.863 0 0 0 7.686.981c1.922-.56 6.357-3.633 7.391-2.794a7.025 7.025 0 0 0 1.128.665 66.642 66.642 0 0 0-2.063 8.228c-.592 4.655.588 16.581 1.18 24.4s2.368 38 2.565 45.639 4.53 36.142 6.7 46.2 8.077 31.665 8.274 34.46-1.776 10.247-3.745 15.652a23.808 23.808 0 0 0-1.574 9.5 12.531 12.531 0 0 0-1.184 5.588c.2 2.8.592 6.147.592 8.2s.2 5.588.2 5.588h7.88s-.982-8.759.592-8.759 5.915 3.358 5.915 3.358-.789 5.588 1.18 5.588 17.736-.187 18.324-.187a3.136 3.136 0 0 0 1.381-.556s7.292.556 8.279-.937-5.126-3.722-8.476-4.842a27.77 27.77 0 0 0-2.758-3.726c-1.776-2.048-2.17-12.109-2.363-13.783s-2.561-16.767-1.973-19.188 9.462-41.73 10.247-45.826 8.081-43.778 9.261-49.184 5.786-44.107 5.786-60.128c0 0-.163-.417-.429-1.135.969-.089 1.531-.178 1.883-.628.446-.56 1.63-3.491 2.368-4.469s.146-2.656.738-3.913a116.091 116.091 0 0 0 5.61-22.077c1.184-9.221.446-8.8-1.325-13.552a114.936 114.936 0 0 0-5.619-11.74l-.635-.093c2.329-.584 4.2-1.662 4.478-3.118.292-1.537-7.982-8.52-7.832-11.873s-3.256-11.6-5.177-15.373-4.577-4.607-7.536-5.868-9.162-2.79-10.934-4.047-2.664-1.679-3.693-3.354-2.514-4.055-3.4-4.335c-.3-.093-.6-.2-.884-.3.047-.487 1.184-11.772 1.476-14.5a19.627 19.627 0 0 0 4.727-7.267c1.184-3.909.3-20.677-4.727-26.264a15.5 15.5 0 0 0-12.709-5.308c-4.152 0-15.965 2.794-17.441 12.295s.3 10.336.3 10.336a4.7 4.7 0 0 0 .3 5.312c.661.8 1.463 1.683 2.316 2.668-1.059 1.164-4.229 5.008-3.084 8.349a5.294 5.294 0 0 0 7.112 2.7 6.419 6.419 0 0 0 1.42-2.109c1.411 3.747 2.063 5.584.815 10.008a2.269 2.269 0 0 0-.45.032s-3.843-.422-5.173.7a10.9 10.9 0 0 0-2.81 4.469l-.146.839a15.6 15.6 0 0 1-5.173 3.074c-2.955.977-3.7.276-4.581.7s-2.072 1.257-2.96 1.257-2.951-.422-3.839.839-6.207 4.61-6.353 6.565-.3 2.794-.3 2.794-4.877 4.193-6.649 5.73-7.536 9.919-7.536 9.919l.06.069c-2.201 1.955-12.118 10.946-17.364 18.374zm106.05 28c.446-.559 2.282-1.455 2.432-3.832.09-1.545 1.188-11.3 1.943-18.933a3.227 3.227 0 0 0 .124 1.188s2.805 6.152 3.105 6.707-.742 4.753-.446 7.267-.884 10.9-.884 12.851a22.285 22.285 0 0 0 .146 2.936s-.888.7-1.48.28a2.811 2.811 0 0 0-1.776-.28c-.077 0-.2 0-.352-.008a6.034 6.034 0 0 1-.262-1.577c.2-2.048-.815-2.883-.815-3.816 0-.758-1.068-1.756-2.076-2.6a.391.391 0 0 0 .337-.179zm-54.423 18.69c-.588-.482-.935-.9-.785-1.147.416-.681.686-1.367 1.673-1.715-.297.944-.593 1.905-.889 2.866zM156.744 807.6c2.737-2.972 14.331-11.691 16.977-14.412 1.334-.677 3.809-1.95 4.452-2.352.888-.564 1.33-.142 1.922.28s3.989 7.4 5.615 9.639 2.809 6.987 3.843 7.964.442 1.955 1.18 3.211-.588 2.518-1.18 3.353c-.571.272-.652.888-.716 1.626a13.288 13.288 0 0 0-.317 7.6c1.18 4.047 1.33 6.845 3.251 7.125s2.805.555 3.543.7l-.1 2c-.172 1.5-.378 3.228-.566 4.294a18.082 18.082 0 0 0-2.282 1.95 35.45 35.45 0 0 1-7.1 3.913c-1.922.7-4.727 2.794-5.465 2.23s-3.106-1.253-3.7-1.955-10.934-11.176-15.665-22.352-6.647-11.596-3.692-14.814z" opacity="0.9" transform="translate(1721.817 -1.603)"/>
    </g>
</svg>
