<svg xmlns="http://www.w3.org/2000/svg" width="222" height="32" viewBox="0 0 222 32">
    <defs>
        <clipPath id="clip-path">
            <path id="사각형_27" d="M0 0H222V32H0z" class="cls-1" transform="translate(451.65 268.419)"/>
        </clipPath>
        <style>
            .cls-1{fill:#fff}
        </style>
    </defs>
    <g id="M1-logo" clip-path="url(#clip-path)" opacity="0.75" transform="translate(-451.65 -268.419)">
        <path id="패스_34" d="M517.241 296.239v-7.958a2.244 2.244 0 1 0-4.481-.076v8.034h-3.366v-7.958a2.246 2.246 0 1 0-4.481 0v7.958h-3.367v-13.164h3.289v1.213a4.785 4.785 0 0 1 3.368-1.364 4.22 4.22 0 0 1 3.574 1.668 5.207 5.207 0 0 1 4.041-1.668 4.778 4.778 0 0 1 3.315 1.162 4.9 4.9 0 0 1 1.476 3.739v8.414z" class="cls-1" transform="translate(-9.979 -2.901)"/>
        <path id="패스_35" d="M535.6 296.239V295.1a4.156 4.156 0 0 1-3.315 1.264 4.675 4.675 0 0 1-3.445-1.162 4.159 4.159 0 0 1-1.114-2.956c0-2.1 1.477-3.815 4.61-3.815h3.186v-.658c0-1.44-.725-2.072-2.512-2.072a2.929 2.929 0 0 0-2.59 1.086l-2.149-2.046c1.32-1.415 2.615-1.819 4.869-1.819 3.781 0 5.75 1.566 5.75 4.649v8.666zm-.078-5.558h-2.667c-1.218 0-1.89.556-1.89 1.49 0 .91.622 1.516 1.942 1.516a2.712 2.712 0 0 0 2.124-.631 2.131 2.131 0 0 0 .492-1.668z" class="cls-1" transform="translate(-15.215 -2.901)"/>
        <path id="패스_36" d="M552.967 296.277v-1.213a4.673 4.673 0 0 1-3.367 1.365 4.441 4.441 0 0 1-3.186-1.162 4.807 4.807 0 0 1-1.373-3.739v-8.414h3.367v7.959a2.246 2.246 0 1 0 4.481 0v-7.959h3.367v13.164z" class="cls-1" transform="translate(-18.678 -2.939)"/>
        <path id="패스_37" d="M578.5 296.239v-7.958a2.244 2.244 0 1 0-4.481-.076v8.034h-3.366v-7.958a2.246 2.246 0 1 0-4.481 0v7.958h-3.368v-13.164h3.29v1.213a4.784 4.784 0 0 1 3.367-1.364 4.218 4.218 0 0 1 3.574 1.668 5.209 5.209 0 0 1 4.04-1.668 4.774 4.774 0 0 1 3.315 1.162 4.9 4.9 0 0 1 1.477 3.739v8.414z" class="cls-1" transform="translate(-22.232 -2.901)"/>
        <path id="패스_38" d="M607.034 295.071l-1.088-3.183h-6.552l-1.114 3.183h-3.755l6.708-17.99h2.823l6.734 17.99zm-4.3-12.683l-2.331 6.544h4.585z" class="cls-1" transform="translate(-28.575 -1.732)"/>
        <path id="패스_39" d="M616.725 295.071v-17.99h3.6v17.99z" class="cls-1" transform="translate(-33.015 -1.732)"/>
        <path id="패스_40" d="M642 295.071v-7.53h-6.242v7.53h-3.6v-17.99h3.6v7.353H642v-7.353h3.6v17.99z" class="cls-1" transform="translate(-36.102 -1.732)"/>
        <path id="패스_41" d="M660.767 296.277v-1.213a4.671 4.671 0 0 1-3.367 1.365 4.441 4.441 0 0 1-3.186-1.162 4.807 4.807 0 0 1-1.374-3.739v-8.414h3.368v7.959a2.246 2.246 0 1 0 4.481 0v-7.959h3.367v13.164z" class="cls-1" transform="translate(-40.238 -2.939)"/>
        <path id="패스_42" d="M686.305 296.239v-7.958a2.243 2.243 0 1 0-4.48-.076v8.034h-3.368v-7.958a2.246 2.246 0 1 0-4.481 0v7.958h-3.367v-13.164h3.291v1.213a4.782 4.782 0 0 1 3.367-1.364 4.217 4.217 0 0 1 3.574 1.668 5.206 5.206 0 0 1 4.041-1.668 4.778 4.778 0 0 1 3.315 1.162 4.9 4.9 0 0 1 1.476 3.739v8.414z" class="cls-1" transform="translate(-43.792 -2.901)"/>
        <path id="패스_43" d="M704.665 296.239V295.1a4.159 4.159 0 0 1-3.316 1.264 4.676 4.676 0 0 1-3.449-1.164 4.162 4.162 0 0 1-1.114-2.956c0-2.1 1.476-3.815 4.611-3.815h3.186v-.658c0-1.44-.726-2.072-2.513-2.072a2.925 2.925 0 0 0-2.59 1.086l-2.151-2.046c1.322-1.415 2.617-1.819 4.87-1.819 3.782 0 5.749 1.566 5.749 4.649v8.666zm-.078-5.558h-2.67c-1.216 0-1.889.556-1.889 1.49 0 .91.621 1.516 1.942 1.516a2.711 2.711 0 0 0 2.123-.631 2.125 2.125 0 0 0 .494-1.668z" class="cls-1" transform="translate(-49.028 -2.901)"/>
        <path id="패스_44" d="M722.146 296.239v-7.958a2.246 2.246 0 1 0-4.481 0v7.958H714.3v-13.164h3.288v1.213a4.676 4.676 0 0 1 3.367-1.364 4.442 4.442 0 0 1 3.186 1.162 4.81 4.81 0 0 1 1.373 3.739v8.414z" class="cls-1" transform="translate(-52.53 -2.901)"/>
        <path id="패스_45" d="M482.964 277.291l-15.657-8.714-15.657 8.714v17.43l9.98 5.554v-13.524l5.665 3.573 5.917-3.615v13.616l9.753-5.428zm-2.873 15.918l-4.01 2.232v-13.852l-8.764 5.356-8.56-5.4v13.846l-4.238-2.358v-14.054l12.786-7.116 12.786 7.116z" class="cls-1" transform="translate(0 -.032)"/>
        <path id="패스_46" d="M473.009 305.018h-1.453v-6.458h1.453V297.48h-4.768v1.08h1.453v6.458h-1.453v1.08h4.768v-1.049z" class="cls-1" transform="translate(-3.318 -5.812)"/>
    </g>
</svg>
