<svg xmlns="http://www.w3.org/2000/svg" width="52.364" height="40" viewBox="0 0 52.364 40">
    <defs>
        <clipPath id="clip-path">
            <path id="사각형_30" d="M0 0H52.364V40H0z" class="cls-1" transform="translate(314.138 4.983)"/>
        </clipPath>
        <style>
            .cls-1{fill:#fff}
        </style>
    </defs>
    <g id="m-logo" clip-path="url(#clip-path)" transform="translate(-314.138 -4.983)">
        <path id="패스_51" d="M318.691 164.577v-2.309a.651.651 0 1 0-1.3-.022v2.331h-.976v-2.309a.651.651 0 1 0-1.3 0v2.309h-.977v-3.818h.954v.352a1.388 1.388 0 0 1 .977-.4 1.225 1.225 0 0 1 1.037.484 1.51 1.51 0 0 1 1.172-.484 1.386 1.386 0 0 1 .962.337 1.421 1.421 0 0 1 .428 1.085v2.441z" class="cls-1" transform="translate(0 -119.593)"/>
        <path id="패스_52" d="M342.6 164.577v-.33a1.205 1.205 0 0 1-.962.366 1.355 1.355 0 0 1-1-.337 1.207 1.207 0 0 1-.323-.857c0-.608.428-1.107 1.337-1.107h.924v-.191c0-.418-.21-.6-.729-.6a.85.85 0 0 0-.751.315l-.623-.594a1.666 1.666 0 0 1 1.412-.528c1.1 0 1.668.454 1.668 1.348v2.514zm-.023-1.613h-.774c-.353 0-.548.161-.548.432s.18.44.563.44a.788.788 0 0 0 .616-.183.619.619 0 0 0 .143-.484z" class="cls-1" transform="translate(-20.105 -119.593)"/>
        <path id="패스_53" d="M359.932 164.722v-.352a1.356 1.356 0 0 1-.977.4 1.29 1.29 0 0 1-.924-.337 1.4 1.4 0 0 1-.4-1.085V160.9h.977v2.308a.651.651 0 1 0 1.3 0V160.9h.977v3.818z" class="cls-1" transform="translate(-33.402 -119.739)"/>
        <path id="패스_54" d="M379.953 164.577v-2.309a.651.651 0 1 0-1.3-.022v2.331h-.976v-2.309a.651.651 0 1 0-1.3 0v2.309h-.977v-3.818h.954v.352a1.388 1.388 0 0 1 .977-.4 1.225 1.225 0 0 1 1.037.484 1.51 1.51 0 0 1 1.172-.484 1.386 1.386 0 0 1 .962.337 1.42 1.42 0 0 1 .428 1.085v2.441z" class="cls-1" transform="translate(-47.046 -119.593)"/>
        <path id="패스_55" d="M410.745 160.089l-.316-.923h-1.9l-.323.923h-1.089l1.946-5.218h.819l1.953 5.218zm-1.245-3.679l-.676 1.9h1.33z" class="cls-1" transform="translate(-71.403 -115.106)"/>
        <path id="패스_56" d="M429.317 160.089v-5.218h1.044v5.218z" class="cls-1" transform="translate(-88.452 -115.106)"/>
        <path id="패스_57" d="M447.609 160.089v-2.184H445.8v2.184h-1.044v-5.218h1.044V157h1.811v-2.133h1.044v5.218z" class="cls-1" transform="translate(-100.307 -115.106)"/>
        <path id="패스_58" d="M467.732 164.722v-.352a1.355 1.355 0 0 1-.976.4 1.289 1.289 0 0 1-.924-.337 1.4 1.4 0 0 1-.4-1.085V160.9h.977v2.308a.651.651 0 1 0 1.3 0V160.9h.977v3.818z" class="cls-1" transform="translate(-116.187 -119.739)"/>
        <path id="패스_59" d="M487.754 164.577v-2.309a.651.651 0 1 0-1.3-.022v2.331h-.977v-2.309a.651.651 0 1 0-1.3 0v2.309h-.977v-3.818h.954v.352a1.387 1.387 0 0 1 .977-.4 1.224 1.224 0 0 1 1.037.484 1.51 1.51 0 0 1 1.172-.484 1.386 1.386 0 0 1 .962.337 1.421 1.421 0 0 1 .428 1.085v2.441z" class="cls-1" transform="translate(-129.832 -119.593)"/>
        <path id="패스_60" d="M511.667 164.577v-.33a1.206 1.206 0 0 1-.962.366 1.355 1.355 0 0 1-1-.337 1.207 1.207 0 0 1-.323-.857c0-.608.428-1.107 1.338-1.107h.924v-.191c0-.418-.21-.6-.729-.6a.849.849 0 0 0-.751.315l-.624-.594a1.668 1.668 0 0 1 1.413-.528c1.1 0 1.667.454 1.667 1.348v2.514zm-.023-1.613h-.774c-.353 0-.548.161-.548.432s.18.44.563.44a.788.788 0 0 0 .616-.183.618.618 0 0 0 .143-.484z" class="cls-1" transform="translate(-149.938 -119.593)"/>
        <path id="패스_61" d="M529.168 164.577v-2.309a.651.651 0 1 0-1.3 0v2.309h-.976v-3.818h.954v.352a1.357 1.357 0 0 1 .977-.4 1.289 1.289 0 0 1 .924.337 1.4 1.4 0 0 1 .4 1.085v2.441z" class="cls-1" transform="translate(-163.384 -119.593)"/>
        <path id="패스_62" d="M394.39 17.969l-14.347-7.986-14.343 7.986V33.94l9.145 5.09V26.637l5.191 3.274 5.421-3.313V39.076l8.937-4.974zm-2.633 14.586l-3.675 2.045V21.906l-8.031 4.908-7.844-4.948v12.688l-3.883-2.161V19.515l11.716-6.521 11.716 6.521z" class="cls-1" transform="translate(-39.593 -3.84)"/>
        <path id="패스_63" d="M423.633 114.568h-1.027V110h1.027v-.763h-3.37V110h1.027v4.564h-1.027v.763h3.37v-.741z" class="cls-1" transform="translate(-81.499 -80.065)"/>
    </g>
</svg>
