<svg xmlns="http://www.w3.org/2000/svg" width="48" height="48" viewBox="0 0 48 48">
  <path id="ico__Completion_48px" data-name="ico_ Completion_48px" d="M-66,24A24,24,0,0,1-42,0,24,24,0,0,1-18,24,24,24,0,0,1-42,48,24,24,0,0,1-66,24ZM-50.563,3.728a21.921,21.921,0,0,0-6.993,4.716,21.921,21.921,0,0,0-4.716,6.993A21.867,21.867,0,0,0-64,24a21.86,21.86,0,0,0,1.728,8.563,21.921,21.921,0,0,0,4.716,6.993,21.921,21.921,0,0,0,6.993,4.716A21.86,21.86,0,0,0-42,46a21.867,21.867,0,0,0,8.563-1.728,21.921,21.921,0,0,0,6.993-4.716,21.921,21.921,0,0,0,4.716-6.993A21.86,21.86,0,0,0-20,24a21.867,21.867,0,0,0-1.728-8.564,21.921,21.921,0,0,0-4.716-6.993,21.921,21.921,0,0,0-6.993-4.716A21.867,21.867,0,0,0-42,2,21.86,21.86,0,0,0-50.563,3.728Zm2.2,27.595-5.345-5.345,0,0a1,1,0,0,1,0-1.414l0,0a1,1,0,0,1,1.414,0l5.344,5.349,0,0a1,1,0,0,0,1.414,0l13.818-13.817,0,0a1,1,0,0,1,1.414,0l0,0a1,1,0,0,1,0,1.414L-44.111,31.323a3,3,0,0,1-2.125.879A3,3,0,0,1-48.361,31.323Z" transform="translate(66)" fill="#d0d344"/>
</svg>
