<svg xmlns="http://www.w3.org/2000/svg" xmlns:xlink="http://www.w3.org/1999/xlink" width="56" height="56" viewBox="0 0 56 56">
  <defs>
    <clipPath id="clip-path">
      <rect id="사각형_5" data-name="사각형 5" width="56" height="56" transform="translate(366 1696)" fill="#616c78" stroke="#707070" stroke-width="1"/>
    </clipPath>
  </defs>
  <g id="ico_people_56px" transform="translate(-366 -1696)" clip-path="url(#clip-path)">
    <path id="합치기_1" data-name="합치기 1" d="M-681.767-559.8v-53.671a.875.875,0,0,1,.875-.875.875.875,0,0,1,.875.875v4.127a22.159,22.159,0,0,1,12.993,5.207,22.812,22.812,0,0,1,7.52,12.57.869.869,0,0,1,.033.163,23.117,23.117,0,0,1,.48,4.682,22.72,22.72,0,0,1-6.391,15.879,22,22,0,0,1-14.636,6.744v4.3a.875.875,0,0,1-.875.875A.875.875,0,0,1-681.767-559.8Zm6.143-12.664a.875.875,0,0,1-.285,1.2,9.807,9.807,0,0,1-4.108,1.473v3.935a20.868,20.868,0,0,0,19.276-20.871,21.4,21.4,0,0,0-.334-3.765c-.061-.007-.121-.018-.181-.026-.139-.018-.277-.036-.415-.059-.083-.014-.166-.03-.249-.045-.127-.023-.253-.047-.38-.074-.087-.019-.175-.04-.263-.06-.122-.029-.245-.06-.369-.092-.089-.024-.179-.049-.269-.075q-.184-.053-.371-.113c-.051-.016-.1-.03-.153-.047,1.43,8.424-1.118,14.786-7.942,19.928a.875.875,0,0,1-.856.112.876.876,0,0,1-.536-.677c-.254-1.636-.953-3.561-1.587-3.819a1.474,1.474,0,0,0-.515-.062,19.587,19.587,0,0,0-4.858,1.112v2.938a8.2,8.2,0,0,0,3.189-1.2.869.869,0,0,1,.458-.13A.875.875,0,0,1-675.624-572.461Zm1.64-4.693c1.279.52,1.994,2.375,2.356,3.745,5.755-4.8,7.608-10.56,5.978-18.435-.658-.3-1.306-.625-1.937-.943a19.676,19.676,0,0,0-9.823-2.7,25.079,25.079,0,0,0-2.607.145v19.022a18.944,18.944,0,0,1,4.858-1.02A3.1,3.1,0,0,1-673.984-577.154Zm7.186-17.2c.774.391,1.5.76,2.26,1.087l.011,0c.166.072.329.139.49.2l.146.057q.192.075.381.142l.116.042q.236.082.468.154l.114.034q.184.055.366.1l.134.035c.154.039.308.075.461.107l.015,0c.117.024.234.044.351.064a20.521,20.521,0,0,0-18.532-15.277v10.484c.9-.089,1.775-.134,2.607-.134A21.424,21.424,0,0,1-666.8-594.35ZM-687.621-559.8v-4.267a21.887,21.887,0,0,1-5.7-.876c-8.614-.167-18.06-.759-21.5-5.54a.875.875,0,0,1,.006-1.03c2.583-3.508,4.593-9.018,5.385-14.749,0-.151-.005-.3-.005-.456,0-.243.006-.487.013-.73v0c0-.021,0-.042,0-.063s0-.034,0-.044a22.857,22.857,0,0,1,.374-3.385,22.4,22.4,0,0,1,21.429-18.423v-4.1a.875.875,0,0,1,.875-.875.875.875,0,0,1,.875.875V-559.8a.875.875,0,0,1-.875.875A.875.875,0,0,1-687.621-559.8Zm-20.064-26.452v.032q.009.427.036.85c.01.16.026.318.039.477.01.121.018.243.03.364.027.264.059.526.1.787,0,.015,0,.03.005.045a21.222,21.222,0,0,0,.711,3.212l.005.019c.07.229.145.456.223.682.011.032.021.065.032.1.072.205.149.408.226.611.02.051.037.1.057.155.071.181.147.358.222.536.031.072.059.145.09.216.069.157.142.311.215.466.042.09.082.182.125.272.065.134.135.265.2.4.056.108.109.218.166.325s.124.223.187.334.136.249.208.372c.056.1.116.189.173.283.082.136.163.272.248.406.049.077.1.153.153.23.1.148.194.3.295.442.04.058.083.114.124.172.115.162.229.323.348.481.034.046.071.089.105.135.129.168.258.336.392.5.027.033.056.065.083.1.143.174.288.346.437.515.022.025.045.049.068.074.156.176.315.35.477.52l.043.043c.172.179.346.356.525.529l.02.019q.28.27.569.53l.009.008a20.461,20.461,0,0,0,7.792,4.359,20.135,20.135,0,0,0,5.327.842v-3.969a9.808,9.808,0,0,1-4.108-1.473.875.875,0,0,1-.285-1.2.875.875,0,0,1,1.2-.285,8.2,8.2,0,0,0,3.189,1.2v-22.1l-.056.06c-.059.064-.118.126-.178.188-.087.091-.174.182-.262.271q-.095.1-.191.19-.131.129-.264.256l-.2.187q-.136.125-.274.248c-.067.059-.133.119-.2.177-.1.084-.2.167-.295.249-.064.054-.128.108-.194.16-.114.093-.231.184-.348.275-.051.04-.1.081-.153.12q-.25.19-.507.373c-.055.039-.111.077-.167.116-.12.083-.239.167-.361.248-.073.048-.146.1-.22.143-.107.069-.214.139-.322.206-.079.049-.159.1-.239.146-.1.063-.21.127-.317.188l-.25.144q-.159.09-.321.178l-.254.136c-.111.058-.223.115-.335.172-.084.042-.167.085-.251.126-.121.059-.244.117-.367.175l-.229.107q-.261.118-.527.231l-.16.067q-.264.11-.532.214c-.08.031-.161.06-.241.09-.13.049-.261.1-.392.145l-.272.094c-.124.043-.249.085-.374.126l-.285.09q-.187.059-.375.114l-.288.084q-.193.055-.388.106l-.285.075c-.137.035-.275.068-.414.1-.09.022-.179.044-.269.064-.164.037-.329.072-.495.107l-.2.042q-.346.07-.7.131l-.191.032c-.174.029-.348.058-.523.084l-.27.038c-.151.021-.3.042-.456.061l-.3.035q-.22.026-.442.048l-.3.029q-.222.02-.447.037l-.3.023q-.232.016-.465.028l-.293.015c-.171.007-.343.013-.515.018l-.25.008q-.385.009-.773.009h0c-.37,0-.744-.008-1.119-.021l-.248-.009-.223-.008C-707.688-586.414-707.686-586.332-707.685-586.25Zm-5.335,15.224c2.667,2.98,8.765,3.874,15.154,4.188-.118-.066-.235-.134-.352-.2l-.042-.024q-.357-.209-.706-.43l-.06-.038q-.338-.217-.669-.445l-.023-.016q-.34-.236-.67-.485l-.068-.052q-.325-.246-.641-.5l0,0c-.214-.175-.424-.355-.632-.538l-.073-.065q-.614-.546-1.191-1.14l-.075-.078q-.571-.595-1.1-1.235l-.071-.085c-.176-.214-.35-.431-.52-.653s-.339-.455-.5-.687l-.059-.084q-.244-.348-.474-.7l-.016-.026q-.223-.346-.433-.7l-.043-.072q-.211-.358-.409-.722l-.046-.087q-.193-.361-.374-.727l-.009-.019c-.122-.248-.237-.5-.35-.751l-.05-.114q-.33-.755-.6-1.533l-.041-.117c-.089-.257-.174-.515-.254-.775l-.023-.076q-.111-.369-.211-.741l-.027-.1c-.008-.031-.017-.062-.025-.094A32.843,32.843,0,0,1-713.02-571.026Zm5.69-19.6a21.183,21.183,0,0,0-.305,2.373c.077,0,.154.009.231.012l.245.009c.355.012.71.019,1.061.019q.381,0,.758-.008l.281-.01c.156,0,.312-.009.467-.016.11-.005.219-.013.328-.019.137-.008.275-.014.411-.024.116-.008.231-.019.346-.028s.256-.02.383-.032.236-.025.354-.037.245-.025.366-.039.237-.031.355-.046.237-.03.354-.047.236-.037.354-.055.231-.035.345-.055.233-.042.35-.064.226-.041.338-.063.233-.049.349-.073.219-.045.328-.07.23-.054.344-.082.216-.051.323-.078.226-.06.338-.09.211-.056.316-.085.223-.065.334-.1.207-.061.31-.093.218-.071.327-.107.2-.067.3-.1.214-.076.32-.115.2-.072.3-.109.209-.081.313-.123.2-.077.295-.117.2-.087.307-.131.193-.082.288-.125.2-.092.3-.138.19-.088.284-.133.2-.1.292-.146.186-.093.278-.141.191-.1.286-.154.182-.1.271-.149.186-.107.278-.161.178-.1.266-.157.18-.111.27-.168.175-.109.261-.166.175-.116.262-.175.171-.115.255-.174.17-.121.254-.182.167-.121.249-.182.164-.125.246-.188.163-.127.244-.191.159-.13.238-.195.159-.132.237-.2.154-.134.23-.2.155-.137.231-.207l.221-.207c.075-.072.151-.144.225-.216s.142-.141.212-.213.147-.149.219-.225.136-.146.2-.219.142-.155.212-.234.13-.149.195-.224.138-.162.206-.244.124-.152.185-.229.133-.167.2-.253.118-.156.177-.234l.109-.15v-11.213A20.651,20.651,0,0,0-707.33-590.623Zm13.547,7.841a1.364,1.364,0,0,0-1.344-1.381,1.364,1.364,0,0,0-1.343,1.381.875.875,0,0,1-.875.875.875.875,0,0,1-.875-.875,3.116,3.116,0,0,1,3.094-3.131,3.116,3.116,0,0,1,3.094,3.131.875.875,0,0,1-.875.875A.875.875,0,0,1-693.783-582.782Zm18.665-.874a.875.875,0,0,1-.875-.875,3.118,3.118,0,0,1,3.1-3.133,3.116,3.116,0,0,1,3.092,3.133.875.875,0,0,1-.875.875Zm1.179-1.75h2.079a1.325,1.325,0,0,0-1.038-.508A1.329,1.329,0,0,0-673.939-585.406Z" transform="translate(1080.99 2310.344)" fill="#616c78"/>
  </g>
</svg>
