<svg xmlns="http://www.w3.org/2000/svg" xmlns:xlink="http://www.w3.org/1999/xlink" width="56" height="56" viewBox="0 0 56 56">
  <defs>
    <clipPath id="clip-path">
      <rect id="사각형_4" data-name="사각형 4" width="56" height="56" transform="translate(371 1193)" fill="#fff" stroke="#707070" stroke-width="1"/>
    </clipPath>
  </defs>
  <g id="ico__browser_56px" data-name="ico_ browser_56px" transform="translate(-371 -1193)" clip-path="url(#clip-path)">
    <path id="합치기_7" data-name="합치기 7" d="M845.871-888.875c-3.136,0-4.863-1.728-4.863-4.866v-31.391c0-3.139,1.727-4.868,4.863-4.868h46.275c3.136,0,4.863,1.729,4.863,4.868v31.391c0,3.138-1.727,4.866-4.863,4.866Zm-3.113-4.866c0,2.184.931,3.116,3.113,3.116h46.275c2.182,0,3.113-.932,3.113-3.116V-922.6h-52.5Zm0-31.391v.781h52.5v-.781c0-2.186-.931-3.119-3.113-3.119H845.871C843.69-928.251,842.759-927.318,842.759-925.132ZM886.354-894.7l-5.1-7.08a9.242,9.242,0,0,1-2.8.434,9.335,9.335,0,0,1-7.557-3.867,9.319,9.319,0,0,1,2.113-12.992,9.253,9.253,0,0,1,5.435-1.756A9.329,9.329,0,0,1,886-916.091a9.273,9.273,0,0,1-.028,10.915l5.095,7.078a2.747,2.747,0,0,1,.492,3.009,3.18,3.18,0,0,1-2.8,1.824A2.79,2.79,0,0,1,886.354-894.7Zm-1.571-9.128c-.1.095-.21.185-.317.276-.039.033-.076.068-.116.1q-.223.182-.459.352t-.476.321c-.053.034-.108.063-.162.1-.11.067-.22.134-.332.2l-.011.007,4.887,6.789c.016.022.031.045.045.069a1.054,1.054,0,0,0,.917.608,1.418,1.418,0,0,0,1.212-.8,1.033,1.033,0,0,0-.246-1.167c-.018-.021-.035-.042-.051-.064l-4.886-6.788Zm-10.749-12.956a7.567,7.567,0,0,0-1.715,10.55,7.581,7.581,0,0,0,6.137,3.139,7.5,7.5,0,0,0,2.8-.54,7.482,7.482,0,0,0,1.609-.883,7.35,7.35,0,0,0,1.343-1.242,7.53,7.53,0,0,0,.373-9.308,7.576,7.576,0,0,0-6.137-3.142A7.516,7.516,0,0,0,874.034-916.785Zm-27.146,19.961a.875.875,0,0,1-.875-.875v-5.25a.875.875,0,0,1,.875-.875H867.04a.875.875,0,0,1,.875.875v5.25a.875.875,0,0,1-.875.875Zm.875-1.75h18.4v-3.5h-18.4Zm-.875-9.932a.875.875,0,0,1-.875-.875v-5.25a.875.875,0,0,1,.875-.875h14.717a.875.875,0,0,1,.875.875v5.25a.875.875,0,0,1-.875.875Zm.875-1.75h12.968v-3.5H847.763Zm-1.347-15.056a.875.875,0,0,1-.875-.875.875.875,0,0,1,.875-.875h2.257a.875.875,0,0,1,.875.875.875.875,0,0,1-.875.875Zm45-.256a.881.881,0,0,1-.256-.619.88.88,0,0,1,.256-.617.878.878,0,0,1,.619-.258.882.882,0,0,1,.619.258.88.88,0,0,1,.256.617.882.882,0,0,1-.256.619.88.88,0,0,1-.619.256A.88.88,0,0,1,891.415-925.569Zm-3.526,0a.871.871,0,0,1-.256-.617.872.872,0,0,1,.256-.619.878.878,0,0,1,.619-.258.882.882,0,0,1,.619.258.882.882,0,0,1,.256.619.881.881,0,0,1-.256.617.88.88,0,0,1-.619.256A.876.876,0,0,1,887.889-925.569Zm-3.526,0a.882.882,0,0,1-.256-.619.89.89,0,0,1,.256-.619.89.89,0,0,1,.619-.256.889.889,0,0,1,.619.256.889.889,0,0,1,.256.619.881.881,0,0,1-.256.619.88.88,0,0,1-.619.256A.881.881,0,0,1,884.363-925.569Z" transform="translate(-470.009 2130)" fill="#414853"/>
  </g>
</svg>
