<svg xmlns="http://www.w3.org/2000/svg" xmlns:xlink="http://www.w3.org/1999/xlink" width="56" height="56" viewBox="0 0 56 56">
  <defs>
    <clipPath id="clip-path">
      <rect id="사각형_7" data-name="사각형 7" width="56" height="56" transform="translate(368 2213)" fill="#fff" stroke="#707070" stroke-width="1"/>
    </clipPath>
  </defs>
  <g id="ico_brief_56px" transform="translate(-368 -2213)" clip-path="url(#clip-path)">
    <path id="합치기_6" data-name="합치기 6" d="M2972-237.8a3,3,0,0,1-3-2.986v-32.958a3,3,0,0,1,3-2.986h14.507v-3.523c0-.619,0-2.5,10.49-2.5s10.49,1.883,10.49,2.5v3.523H3022a3,3,0,0,1,3,2.986v32.958a3,3,0,0,1-3,2.986Zm-1.252-2.986A1.246,1.246,0,0,0,2972-239.55h50a1.246,1.246,0,0,0,1.252-1.236v-21.872l-.024.04-.14.229-.036.059q-.087.141-.177.284l-.027.043q-.079.126-.161.253l-.04.062q-.19.3-.39.6l-.041.062-.19.283-.013.02-.211.307-.037.054-.185.263-.036.051-.219.3-.025.034-.2.269-.045.06q-.224.3-.454.591l-.049.062q-.105.132-.211.262l-.022.027q-.117.143-.235.283l-.045.054-.2.234-.045.051q-.119.135-.239.267l-.032.035q-.1.114-.209.225l-.056.059q-.24.251-.483.484l-.058.056q-.107.1-.214.2l-.032.029q-.121.108-.243.211l-.055.046q-.1.084-.2.163l-.055.043c-.081.063-.161.124-.242.183l-.04.028q-.1.074-.207.143l-.063.042c-.161.105-.323.2-.484.286l-.064.033c-.068.035-.136.068-.2.1l-.041.019c-.079.035-.158.067-.237.1l-.058.02c-.064.022-.127.043-.191.062l-.058.017c-.078.021-.156.041-.234.056l-.042.007c-.065.012-.13.021-.2.029l-.063.007c-.077.007-.155.012-.231.012h-13.426v1.3a1.7,1.7,0,0,1-.058.425c-.007.029-.01.058-.019.087l0,.013v0l-.006.015c-.015.045-.03.086-.046.125s-.039.084-.06.125c-.01.019-.018.04-.028.058a1.821,1.821,0,0,1-.188.271c-.036.042-.072.081-.108.117a1.735,1.735,0,0,1-.9.479,1.768,1.768,0,0,1-.346.034h-6.146c-.059,0-.116,0-.174-.009a1.77,1.77,0,0,1-1.072-.507c-.034-.034-.072-.075-.106-.115a1.836,1.836,0,0,1-.186-.267q-.013-.022-.024-.045c-.012-.024-.024-.049-.036-.074l-.012-.024c-.007-.015-.013-.029-.019-.044-.02-.049-.038-.1-.054-.15a1.7,1.7,0,0,1-.08-.52v-1.3H2978.74c-.085,0-.17,0-.255-.012l-.074-.007c-.064-.007-.128-.015-.192-.025l-.071-.012c-.085-.015-.169-.033-.254-.055l-.027-.008c-.076-.02-.152-.043-.229-.068l-.076-.026c-.065-.023-.13-.047-.195-.073l-.066-.026c-.084-.035-.168-.073-.253-.113l-.043-.022c-.071-.035-.142-.072-.212-.11l-.075-.042q-.1-.056-.2-.116l-.057-.034c-.084-.052-.167-.106-.25-.163l-.052-.036c-.067-.047-.135-.095-.2-.144l-.073-.054q-.1-.077-.2-.158l-.047-.037q-.123-.1-.246-.206l-.057-.05q-.1-.084-.192-.171l-.07-.064c-.071-.066-.141-.132-.211-.2l-.031-.029q-.12-.118-.24-.241l-.058-.061c-.062-.064-.123-.129-.185-.194l-.065-.07c-.074-.081-.148-.162-.221-.244l-.012-.013q-.116-.132-.231-.267l-.06-.071-.176-.21-.059-.072q-.225-.276-.443-.561l-.059-.077-.17-.226-.05-.068q-.107-.145-.212-.291l-.02-.027q-.094-.132-.187-.265l-.056-.081-.159-.232-.045-.066c-.066-.1-.132-.2-.2-.294l-.029-.044-.163-.249-.053-.083-.15-.234-.037-.058-.18-.288-.035-.057q-.072-.116-.141-.23l-.048-.08-.14-.233-.028-.047-.161-.273-.011-.018Zm29.341-12.795-.008.017.77.413-.76-.434Zm-.009.016,0-.011,0,0h0l0-2.162v-2.169l-.005-.007h-6.15l-.012.016v4.33l.005.007h6.157Zm-.007-6.105a1.744,1.744,0,0,1,1.243.516c.034.033.07.072.1.112l0,0h0c.033.039.065.081.1.126s.061.092.09.142a1.5,1.5,0,0,1,.09.186c.02.049.039.1.054.15,0,.015.009.031.013.047h0c.008.028.017.056.023.082s.008.036.011.053l0,.027,0,.018c.006.036.01.068.014.1v.014c0,.01,0,.02,0,.03s0,.038,0,.057,0,.061,0,.092v1.3h13.426a1.257,1.257,0,0,0,.2-.016c.022,0,.046-.011.069-.016.045-.009.091-.018.137-.032.029-.009.059-.021.088-.031s.085-.029.129-.047.064-.031.1-.045.085-.039.129-.062.069-.04.1-.059.086-.048.13-.076.073-.048.109-.073.087-.057.131-.089.076-.057.114-.085.089-.066.134-.1.078-.065.118-.1.09-.073.135-.113.081-.072.121-.108.092-.081.138-.124.082-.079.124-.119.093-.088.14-.135.084-.086.127-.129l.141-.145.128-.138.143-.154c.043-.048.086-.1.13-.146s.1-.108.144-.163.087-.1.131-.153l.145-.171.133-.161.145-.178.132-.167.147-.186.131-.171.147-.193.133-.178.146-.2.132-.182.145-.2.132-.186.145-.207.13-.188.143-.209.131-.195.139-.208.129-.2.139-.213.125-.195.138-.216.123-.2.135-.215.121-.2.131-.215.118-.2.127-.213.115-.194.124-.214.111-.193.12-.211.107-.19.116-.208.1-.188.11-.2.1-.185.054-.1v-7.554a1.246,1.246,0,0,0-1.252-1.236h-50a1.246,1.246,0,0,0-1.252,1.236v7.574l.04.084.1.2.083.169.1.2.087.171.107.207c.03.059.062.118.093.177l.11.208.1.184.113.208c.034.063.069.126.1.189l.116.208.109.193.12.209.114.2.122.208.118.2.124.206.124.2.125.2.128.2.126.2.131.2.128.2.135.2.129.191.138.2.129.185.142.2.129.179.144.195.13.174c.049.064.1.127.146.19s.087.113.13.168.1.123.148.184.086.108.13.161.1.119.149.178.086.1.13.154.1.114.15.171.086.1.129.145.1.108.15.162.086.093.129.138.1.1.15.152.086.087.129.129.1.095.15.142.085.081.127.12.1.088.15.131.084.074.125.109.1.08.15.12.082.066.123.1.1.072.149.107.081.059.121.086.1.063.148.094.079.051.118.074.1.053.148.079.077.043.115.061.1.044.149.065.072.033.108.047.1.033.151.049c.034.01.068.023.1.032.055.015.109.023.163.033.028.005.056.013.083.017a1.754,1.754,0,0,0,.24.017h13.425v-1.3c0-.022,0-.045,0-.068s0-.056,0-.082,0-.026,0-.04l0-.009v0c0-.039.013-.087.022-.135h0c.007-.04.019-.085.031-.13,0-.016.01-.036.015-.052.016-.052.035-.1.054-.15.006-.015.012-.029.019-.044l.011-.022c.012-.026.024-.052.037-.076s.016-.03.024-.045a1.807,1.807,0,0,1,.188-.27,1.748,1.748,0,0,1,1.35-.629Zm-3.076-20.4h0c2.629,0,5.939.158,6.776.91l.031.029c.025.025.05.05.07.073a1.047,1.047,0,0,1,.27.7v1.632h1.594v-3.3c-.7-.416-3.752-.971-8.74-.971s-8.043.555-8.74.971v3.3h1.594v-1.632s0-.009,0-.014a1.052,1.052,0,0,1,.015-.159c0-.01,0-.021.006-.031a1.057,1.057,0,0,1,.044-.152l.01-.026a1.089,1.089,0,0,1,.072-.145l.017-.029a1.119,1.119,0,0,1,.079-.112l.018-.021.011-.011v0a1.108,1.108,0,0,1,.1-.1l.011-.012.02-.015c.8-.68,3.729-.86,6.242-.88l.5,0Zm-5.395,2.154v1.188H3002.4v-1.188a25.686,25.686,0,0,0-5.4-.4A25.665,25.665,0,0,0,2991.6-277.919Zm4.243,23.051a.875.875,0,0,1-.875-.875.875.875,0,0,1,.875-.875h2.3a.875.875,0,0,1,.875.875.875.875,0,0,1-.875.875Z" transform="translate(-2601 2500.757)" fill="#636c77"/>
  </g>
</svg>
