<svg xmlns="http://www.w3.org/2000/svg" width="25" height="25" viewBox="0 0 25 25">
  <path id="ico_choose_inactive_24px" d="M-546-1015.563a12,12,0,0,1,12-12,12,12,0,0,1,12,12,12.013,12.013,0,0,1-12,12A12,12,0,0,1-546-1015.563Zm2,0a10,10,0,0,0,10,10,10,10,0,0,0,10-10,10.011,10.011,0,0,0-10-10A10,10,0,0,0-544-1015.563Zm6.878,2.06h0l-1.585-1.585,1.414-1.414,1.586,1.585a1.023,1.023,0,0,0,1.414,0l3.586-3.585,1.414,1.414-3.586,3.585a2.992,2.992,0,0,1-2.122.879A2.99,2.99,0,0,1-537.122-1013.5Z" transform="translate(546.5 1028.063)" fill="#c9d0d8" stroke="rgba(0,0,0,0)" stroke-miterlimit="10" stroke-width="1"/>
</svg>
