<svg xmlns="http://www.w3.org/2000/svg" xmlns:xlink="http://www.w3.org/1999/xlink" width="56" height="56" viewBox="0 0 56 56">
  <defs>
    <clipPath id="clip-path">
      <rect id="사각형_6" data-name="사각형 6" width="56" height="56" transform="translate(363 1882)" fill="#fff" stroke="#707070" stroke-width="1"/>
    </clipPath>
  </defs>
  <g id="ico_list_56px" transform="translate(-363 -1882)" clip-path="url(#clip-path)">
    <path id="합치기_2" data-name="합치기 2" d="M-232.222-203a3.947,3.947,0,0,1-3.955-3.93v-43.134a3.947,3.947,0,0,1,3.955-3.93h4.147v-.653a.875.875,0,0,1,.875-.875h3.092v-2.6a.875.875,0,0,1,.875-.875h16.188a.875.875,0,0,1,.875.875v2.6h3.092a.875.875,0,0,1,.875.875v.653h4.147a3.947,3.947,0,0,1,3.955,3.93v43.134a3.947,3.947,0,0,1-3.955,3.93Zm-2.2-47.064v43.134a2.2,2.2,0,0,0,2.2,2.18h34.168a2.2,2.2,0,0,0,2.2-2.18v-43.134a2.2,2.2,0,0,0-2.2-2.18H-202.2v3.369a.875.875,0,0,1-.875.875H-227.2a.875.875,0,0,1-.875-.875v-3.369h-4.147A2.2,2.2,0,0,0-234.426-250.064Zm8.1-3.055v3.37h22.373v-4.022h-3.092a.875.875,0,0,1-.875-.875v-2.6h-14.438v2.6a.875.875,0,0,1-.875.875h-3.092Zm5.7,42.092a.875.875,0,0,1-.875-.875V-217a.875.875,0,0,1,.875-.875h20.659a.875.875,0,0,1,.875.875v5.092a.875.875,0,0,1-.875.875Zm.875-1.75h18.908v-3.342h-18.908Zm-8.869.711L-230.563-214a.875.875,0,0,1,0-1.238.875.875,0,0,1,1.237,0l1.33,1.319,2.934-2.911a.876.876,0,0,1,1.238,0,.875.875,0,0,1-.005,1.237l-3.55,3.522a.873.873,0,0,1-.616.254A.872.872,0,0,1-228.617-212.067Zm7.994-10.885a.875.875,0,0,1-.875-.875v-5.092a.875.875,0,0,1,.875-.875h20.659a.875.875,0,0,1,.875.875v5.092a.875.875,0,0,1-.875.875Zm.875-1.75h18.908v-3.342h-18.908Zm-8.869.711-1.946-1.931a.875.875,0,0,1,0-1.237.875.875,0,0,1,1.237,0l1.33,1.319,2.934-2.911a.875.875,0,0,1,1.238,0,.875.875,0,0,1-.005,1.237l-3.55,3.522a.874.874,0,0,1-.616.254A.873.873,0,0,1-228.617-223.991Zm7.994-10.885a.875.875,0,0,1-.875-.875v-5.092a.875.875,0,0,1,.875-.875h20.659a.875.875,0,0,1,.875.875v5.092a.875.875,0,0,1-.875.875Zm.875-1.75h18.908v-3.342h-18.908Zm-8.869.711-1.946-1.931a.875.875,0,0,1,0-1.237.875.875,0,0,1,1.237,0l1.33,1.319,2.934-2.911a.875.875,0,0,1,1.238,0,.875.875,0,0,1-.005,1.238l-3.55,3.522a.873.873,0,0,1-.616.254A.872.872,0,0,1-228.617-235.915Zm10.441-17.516a.875.875,0,0,1-.875-.875.875.875,0,0,1,.875-.875h6.074a.875.875,0,0,1,.875.875.875.875,0,0,1-.875.875Z" transform="translate(606.176 2141)" fill="#636c77"/>
  </g>
</svg>
