<svg xmlns="http://www.w3.org/2000/svg" xmlns:xlink="http://www.w3.org/1999/xlink" width="56" height="56" viewBox="0 0 56 56">
  <defs>
    <clipPath id="clip-path">
      <rect id="사각형_8" data-name="사각형 8" width="56" height="56" transform="translate(364 2056)" fill="#fff" stroke="#707070" stroke-width="1"/>
    </clipPath>
  </defs>
  <g id="ico_kiosk_56px" transform="translate(-364 -2056)" clip-path="url(#clip-path)">
    <path id="합치기_8" data-name="합치기 8" d="M-470.44-1818.13a2.056,2.056,0,0,1-2.058-2.144,2.056,2.056,0,0,1,2.058-2.144h1.671v-50.839a.874.874,0,0,1,.875-.873H-438.6a.874.874,0,0,1,.875.873v50.839h1.67a2.056,2.056,0,0,1,2.058,2.144,2.056,2.056,0,0,1-2.058,2.144Zm-.308-2.144c0,.182.054.4.308.4h34.383c.255,0,.308-.217.308-.4s-.054-.4-.308-.4H-470.44C-470.695-1820.672-470.748-1820.456-470.748-1820.274Zm3.729-2.225h27.542v-49.885h-27.542Zm4.485-17.1a.881.881,0,0,1-.886-.875v-27.562a.881.881,0,0,1,.886-.875h18.859a.881.881,0,0,1,.886.875v27.562a.88.88,0,0,1-.886.875Zm.886-1.75h17.087v-25.812h-17.087Z" transform="translate(845.498 3930.13)" fill="#616c78"/>
  </g>
</svg>
