<svg xmlns="http://www.w3.org/2000/svg" xmlns:xlink="http://www.w3.org/1999/xlink" width="56" height="56" viewBox="0 0 56 56">
  <defs>
    <clipPath id="clip-path">
      <rect id="사각형_9" data-name="사각형 9" width="56" height="56" transform="translate(363 1865)" fill="#fff" stroke="#707070" stroke-width="1"/>
    </clipPath>
  </defs>
  <g id="ico_job_56px" transform="translate(-363 -1865)" clip-path="url(#clip-path)">
    <path id="합치기_5" data-name="합치기 5" d="M-97.824-1976.474l-2.781-3.873a.871.871,0,0,1-.487.148h-29.4a.875.875,0,0,1-.875-.875v-13.009c-.278.106-.559.205-.846.288-.009.067-.018.134-.027.2-.152,1.142-.342,2.564-1.64,2.564h-1.344l-.062,0H-136.7c-1.3,0-1.488-1.426-1.64-2.568q-.017-.13-.035-.261a10.5,10.5,0,0,1-1.888-.8l-.222.17a3.742,3.742,0,0,1-2.051,1.045,1.294,1.294,0,0,1-.934-.385l-.993-.992s-.422-.423-1-1c-.914-.923-.044-2.062.656-2.977l.2-.257a10.629,10.629,0,0,1-.787-1.916l-.28-.038c-1.148-.153-2.577-.343-2.577-1.644v-1.345c0-.02,0-.041,0-.061v-1.408c0-1.3,1.426-1.489,2.568-1.641l.3-.041a10.532,10.532,0,0,1,.769-1.873l-.187-.247c-.7-.917-1.57-2.059-.654-2.976.522-.523.916-.916.986-.985.052-.055.179-.183.625-.631l.374-.375a1.3,1.3,0,0,1,.933-.384,3.73,3.73,0,0,1,2.044,1.039l.214.163a10.609,10.609,0,0,1,1.989-.834c.019-.132.037-.266.054-.4.153-1.146.343-2.572,1.642-2.572h1.342l.062,0h1.409c1.3,0,1.488,1.428,1.639,2.572.018.132.035.266.054.4.242.073.48.158.716.25v-4.709a.873.873,0,0,1,.257-.619.874.874,0,0,1,.618-.256h0l23.84.064h.011a.869.869,0,0,1,.317.064l.028.012a.92.92,0,0,1,.117.064l.022.014a.839.839,0,0,1,.124.1l5.517,5.571c.017.014.029.032.044.047h0a.867.867,0,0,1,.262.618c0,.021,0,.042-.006.063v12.411a9.493,9.493,0,0,1,1.993,2.044,9.549,9.549,0,0,1-.041,11.239l5.257,7.316a2.81,2.81,0,0,1,.5,3.077,3.247,3.247,0,0,1-2.863,1.863A2.847,2.847,0,0,1-97.824-1976.474Zm-1.643-9.43c-.1.094-.206.184-.312.273-.046.04-.091.081-.138.12q-.232.19-.478.368l-.189.134-.016.01q-.207.141-.418.269c-.047.029-.1.055-.143.083-.089.052-.178.106-.268.155l.014.02,5.033,7.009a.791.791,0,0,1,.044.068,1.11,1.11,0,0,0,.966.639,1.487,1.487,0,0,0,1.27-.837,1.1,1.1,0,0,0-.256-1.236c-.018-.021-.035-.042-.051-.064l-5.046-7.022Zm-30.155,3.956h27.655v-.294l-1.111-1.547-.121.036-.152.046q-.138.039-.276.074l-.126.032c-.133.032-.267.062-.4.088l-.073.013q-.168.031-.337.057l-.138.019q-.141.019-.282.034l-.146.014c-.1.009-.195.015-.292.021l-.129.008c-.14.006-.279.01-.42.01h0a9.58,9.58,0,0,1-6.64-2.685c-.025-.024-.047-.049-.071-.073-.154-.152-.3-.311-.446-.473a9.394,9.394,0,0,1-.6-.745,9.594,9.594,0,0,1,2.167-13.359,9.5,9.5,0,0,1,5.581-1.805c.156,0,.311.005.466.013l.123.007q.2.012.4.032l.064.006c.152.017.3.038.453.062l.116.02q.187.032.372.071l.093.02c.148.033.295.07.44.109l.1.029q.18.051.357.11l.106.035c.143.049.285.1.426.157l.076.031q.18.073.356.154l.062.027v-10.547h-4.689a.871.871,0,0,1-.341-.069.875.875,0,0,1-.534-.806v-4.748l-22.09-.059v4.059q.123-.093.243-.18l.073-.051c.057-.04.113-.079.169-.117l.092-.059c.049-.031.1-.062.148-.091.032-.019.065-.037.1-.055.048-.026.1-.051.143-.074l.1-.045c.048-.021.1-.04.145-.057.031-.011.062-.023.093-.032.053-.016.106-.028.159-.04.026-.006.053-.013.08-.018a1.557,1.557,0,0,1,.241-.021,1.29,1.29,0,0,1,.933.385l1,1s.42.418,1,.995c.912.921.044,2.058-.654,2.971l-.19.25a10.589,10.589,0,0,1,.767,1.864l.314.042c1.146.152,2.571.342,2.571,1.644v1.345c0,.021,0,.041,0,.062v1.408c0,1.3-1.425,1.49-2.567,1.642l-.311.042a10.566,10.566,0,0,1-.8,1.938c.07.093.14.186.21.277a4.013,4.013,0,0,1,1.05,2.066,1.235,1.235,0,0,1-.4.913l-.954.958-.034.036s-.421.424-1,1a1.293,1.293,0,0,1-.931.383,1.522,1.522,0,0,1-.24-.021c-.027,0-.053-.012-.079-.017-.053-.011-.106-.023-.159-.039-.031-.01-.061-.021-.092-.032-.048-.017-.1-.036-.145-.056-.032-.014-.064-.029-.1-.045-.047-.023-.095-.047-.142-.073l-.1-.054q-.073-.042-.145-.089l-.094-.06c-.052-.034-.105-.071-.158-.109l-.084-.059-.2-.147-.045-.033,0,0Zm19.082-17.306a7.841,7.841,0,0,0-1.769,10.918,7.755,7.755,0,0,0,.99,1.125,7.824,7.824,0,0,0,5.346,2.122,7.717,7.717,0,0,0,2.894-.559,7.667,7.667,0,0,0,1.493-.8l.171-.122a7.79,7.79,0,0,0,.74-.6,7.273,7.273,0,0,0,.643-.676,7.8,7.8,0,0,0,.386-9.635,7.737,7.737,0,0,0-1.939-1.895h0q-.243-.166-.5-.312a7.747,7.747,0,0,0-3.311-1.02q-.293-.022-.589-.022A7.755,7.755,0,0,0-110.54-1999.255Zm-29.316,2.811a8.767,8.767,0,0,0,2.474,1.05.874.874,0,0,1,.647.694c.053.294.092.589.13.873a9.216,9.216,0,0,0,.18,1.05h1.07l.062,0h1.133a9.045,9.045,0,0,0,.179-1.046c.036-.267.072-.542.121-.82a.874.874,0,0,1,.666-.7,8.788,8.788,0,0,0,2.274-.866c.126-.068.246-.137.362-.208a.9.9,0,0,1,.113-.058.876.876,0,0,1,.834.081c.276.188.539.389.794.583a9.137,9.137,0,0,0,.862.61l.139-.138.626-.628.036-.038.8-.8a9.031,9.031,0,0,0-.615-.871c-.1-.127-.2-.256-.293-.388s-.195-.266-.287-.4a.876.876,0,0,1-.025-.944,8.809,8.809,0,0,0,1.037-2.519.875.875,0,0,1,.691-.657c.316-.059.633-.1.939-.142a9.125,9.125,0,0,0,1.048-.179v-1.075c0-.02,0-.041,0-.062v-1.136a9.074,9.074,0,0,0-1.052-.179c-.306-.041-.623-.083-.939-.142a.874.874,0,0,1-.69-.654,8.818,8.818,0,0,0-1.009-2.455.874.874,0,0,1,.029-.945c.18-.263.372-.514.558-.758a9.123,9.123,0,0,0,.612-.866c-.471-.472-.8-.8-.8-.8l-.8-.805a9.051,9.051,0,0,0-.876.622c-.227.174-.461.353-.7.524a.875.875,0,0,1-.965.025c-.141-.088-.279-.168-.409-.238a8.748,8.748,0,0,0-2.154-.839.875.875,0,0,1-.654-.681c-.068-.347-.115-.7-.159-1.036a9.078,9.078,0,0,0-.179-1.051h-1.073l-.062,0h-1.132a9.1,9.1,0,0,0-.18,1.053c-.045.337-.092.686-.16,1.031a.875.875,0,0,1-.652.681,8.879,8.879,0,0,0-2.563,1.075.875.875,0,0,1-.958-.026c-.25-.174-.491-.357-.723-.535a9.151,9.151,0,0,0-.868-.615l-.179.18c-.322.323-.547.55-.594.6l-.025.027-.8.8a9.164,9.164,0,0,0,.615.87c.185.242.376.493.555.754a.874.874,0,0,1,.029.946,8.789,8.789,0,0,0-1.011,2.462.875.875,0,0,1-.691.655c-.311.058-.622.1-.923.14a8.992,8.992,0,0,0-1.05.18v1.074q0,.03,0,.062v1.134a9.039,9.039,0,0,0,1.058.181c.294.039.6.08.9.135a.876.876,0,0,1,.694.656,8.872,8.872,0,0,0,1.027,2.5.875.875,0,0,1-.028.945c-.182.266-.377.521-.565.767a9.086,9.086,0,0,0-.615.869l.8.8.8.8a9.139,9.139,0,0,0,.875-.62c.236-.181.48-.367.733-.543a.874.874,0,0,1,.5-.156A.875.875,0,0,1-139.855-1996.444Zm34.074-17.451h2.594l-2.594-2.619Zm-35.092,9.857a5.692,5.692,0,0,1,5.683-5.689,5.717,5.717,0,0,1,5.546,4.441l0,.005q.034.151.06.3a5.687,5.687,0,0,1,.077.938,5.623,5.623,0,0,1-.137,1.24,5.717,5.717,0,0,1-5.547,4.448A5.692,5.692,0,0,1-140.874-2004.038Zm1.75,0a3.94,3.94,0,0,0,3.933,3.939,3.956,3.956,0,0,0,3.819-3v-1.871a3.956,3.956,0,0,0-3.819-3A3.94,3.94,0,0,0-139.124-2004.038Z" transform="translate(511.252 3890.579)" fill="#636c77"/>
  </g>
</svg>
