<svg xmlns="http://www.w3.org/2000/svg" width="481.376" height="45.528" viewBox="0 0 481.376 45.528">
  <path id="패스_41" data-name="패스 41" d="M-241.164,4.48l17.584-45.36h8.512L-196.7,3.92q.224.56-.336.56h-6.272L-208.348-7.9h-21.28L-234.22,4.032q-.28.448-.616.448Zm22.176-39.76q-.28-.336-.5,0l-8.232,21.952h17.416Zm27.216,39.76V-40.88h6.72V3.472q0,1.008-.9,1.008Zm57.456,0V-16.128h-19.712V3.528a.841.841,0,0,1-.952.952h-5.656V-40.88h6.608v19.32h19.712V-40.88h6.5V3.528a.946.946,0,0,1-.252.7.806.806,0,0,1-.588.252Zm35.56-32.312H-92.2V1.96a2.488,2.488,0,0,1-.588,1.652,1.914,1.914,0,0,1-1.54.7l-11.592.112a21.375,21.375,0,0,1-5.488-.56,11.763,11.763,0,0,1-4.368-2.016,9.5,9.5,0,0,1-2.884-3.612,12.685,12.685,0,0,1-1.036-5.4v-20.72h6.5V-7a5.1,5.1,0,0,0,1.82,4.312,6.655,6.655,0,0,0,4.34,1.344l7.672-.168q.616,0,.616-.672ZM-77.868,3.192a1.28,1.28,0,0,1-.364.9,1.09,1.09,0,0,1-.812.392h-5.32V-25.368a2.065,2.065,0,0,1,.7-1.792,2.752,2.752,0,0,1,1.652-.5l26.152-.224a26,26,0,0,1,5.628.5,7.1,7.1,0,0,1,3.472,1.736,6.5,6.5,0,0,1,1.736,3.22,21.721,21.721,0,0,1,.476,4.956V3.416q0,1.064-1.008,1.064h-5.432V-18.032a7.283,7.283,0,0,0-.28-2.24,2.768,2.768,0,0,0-.868-1.316,3.3,3.3,0,0,0-1.512-.644A12.559,12.559,0,0,0-55.86-22.4H-61.4V3.528a1.142,1.142,0,0,1-.2.672.73.73,0,0,1-.644.28H-67.9V-22.4l-9.3.168q-.672,0-.672.448ZM-29.092,4.48a10.548,10.548,0,0,1-6.384-1.652q-2.408-1.708-2.408-5.964V-9.688a6.117,6.117,0,0,1,.7-2.968,6.8,6.8,0,0,1,1.876-2.184,9.12,9.12,0,0,1,2.716-1.4,11.534,11.534,0,0,1,3.22-.56q1.68-.056,3.612,0t3.556.112q.952.056,1.9.084t1.9.084V-18.2q-.056-2.408-.952-3.248A4.937,4.937,0,0,0-22.2-22.512q-.616-.056-1.82-.056H-26.18q-1.344,0-2.968.056t-3.08.168l-1.68.112q-.84.056-1.624.112V-27.5l1.54-.112,1.54-.112q1.344-.112,3.024-.168t3.36-.056q2.464,0,4.788.168a18.957,18.957,0,0,1,4.228.756,8.22,8.22,0,0,1,3.164,1.736,5.3,5.3,0,0,1,1.6,3.164,30.82,30.82,0,0,1,.336,5.04V1.96a2.488,2.488,0,0,1-.588,1.652,1.914,1.914,0,0,1-1.54.7Zm10.08-5.656q.672,0,.672-.616v-9.3q-.784-.056-1.624-.084t-1.624-.084q-1.4-.056-3.08-.112t-3.136,0a4.323,4.323,0,0,0-2.716.84,2.918,2.918,0,0,0-1.092,2.464v3.7A2.751,2.751,0,0,0-30.38-1.82a5.287,5.287,0,0,0,2.576.812q1.456.056,3,.028t2.828-.084q.784-.056,1.512-.056T-19.012-1.176Zm21.056,4.7q0,.952-.84.952H-4.508V-25.872a1.8,1.8,0,0,1,.476-1.288,1.652,1.652,0,0,1,1.26-.5l13.216-.168a24.45,24.45,0,0,1,5.824.588,8.35,8.35,0,0,1,3.78,1.932,7.53,7.53,0,0,1,2.044,3.556,20.662,20.662,0,0,1,.616,5.46V3.472q0,1.008-.9,1.008h-5.6V-16.24q0-3.584-1.764-4.844a8.533,8.533,0,0,0-5.012-1.26l-6.944.112q-.448,0-.448.392ZM78.316-6.216Q77.98-.728,74.648,1.876a13.738,13.738,0,0,1-8.708,2.6H48.076a1.972,1.972,0,0,1-1.512-.672A2.181,2.181,0,0,1,45.948,2.3V-40.88H64.764a25.017,25.017,0,0,1,4.312.392,13.708,13.708,0,0,1,4.088,1.372,8.63,8.63,0,0,1,3.052,2.688,7.356,7.356,0,0,1,1.2,4.34v4.7a10.68,10.68,0,0,1-.952,4.564,8.829,8.829,0,0,1-3.024,3.5,5,5,0,0,1,2.072,1.176,8.415,8.415,0,0,1,1.54,1.96,9,9,0,0,1,.952,2.408,10.814,10.814,0,0,1,.308,2.52Zm-7.392-24.36a4.211,4.211,0,0,0-.616-2.38A4.767,4.767,0,0,0,68.74-34.44a6.163,6.163,0,0,0-2.156-.756,14.794,14.794,0,0,0-2.38-.2H52.612V-21.5H64.2a11.855,11.855,0,0,0,2.632-.28,5.805,5.805,0,0,0,2.128-.924,4.584,4.584,0,0,0,1.428-1.708,5.711,5.711,0,0,0,.532-2.576ZM65.436-1.064a6.042,6.042,0,0,0,2.52-.532,6.961,6.961,0,0,0,2.072-1.428,6.647,6.647,0,0,0,1.4-2.044,5.861,5.861,0,0,0,.5-2.38V-10.3a4.756,4.756,0,0,0-.5-2.1,6.4,6.4,0,0,0-1.4-1.876,7.556,7.556,0,0,0-2.072-1.372,6.042,6.042,0,0,0-2.52-.532H52.612V-1.568q0,.5.672.5Zm39.928-26.768h6.552V1.96a2.488,2.488,0,0,1-.588,1.652,1.914,1.914,0,0,1-1.54.7L98.2,4.424a21.375,21.375,0,0,1-5.488-.56A11.763,11.763,0,0,1,88.34,1.848a9.5,9.5,0,0,1-2.884-3.612,12.685,12.685,0,0,1-1.036-5.4v-20.72h6.5V-7a5.1,5.1,0,0,0,1.82,4.312,6.655,6.655,0,0,0,4.34,1.344l7.672-.168q.616,0,.616-.672Zm14.5-4.984V-40.88h7.168v8.064Zm.392,37.3V-27.832h6.5V3.36q0,1.12-1.064,1.12Zm15.456,0V-40.88h6.664v43.9a1.526,1.526,0,0,1-.364,1.036,1.063,1.063,0,0,1-.812.42ZM161.7,4.424q-5.6.112-8.6-2.464t-3-8.568V-16.24a17.653,17.653,0,0,1,.728-5.46,7.839,7.839,0,0,1,2.324-3.584,9.5,9.5,0,0,1,4.088-1.96,26.88,26.88,0,0,1,6.076-.588q1.232,0,2.548.028t2.436.028q.616.056,1.288.056h1.288V-40.712h6.608V1.96a2.412,2.412,0,0,1-.588,1.6,1.914,1.914,0,0,1-1.54.7Zm8.4-5.544q.784,0,.784-.56V-22.288q-.616-.056-1.232-.056T168.42-22.4q-1.12-.056-2.38-.084t-2.436-.028a20.655,20.655,0,0,0-2.968.2,5.023,5.023,0,0,0-2.268.868,4.311,4.311,0,0,0-1.428,1.876,8.493,8.493,0,0,0-.5,3.22V-6.5q0,3.024,1.428,4.284t4.62,1.26Zm31.976,5.768q-8.288,0-12.74-3.108T184.884-8.4v-7.336a11.469,11.469,0,0,1,1.064-4.984,11.44,11.44,0,0,1,2.884-3.808A13.479,13.479,0,0,1,193-26.964a14.12,14.12,0,0,1,4.928-.868h2.856a17.081,17.081,0,0,1,4.844.7,13.008,13.008,0,0,1,4.228,2.1,11.187,11.187,0,0,1,3,3.416A9.228,9.228,0,0,1,214-16.968v4.648a3.527,3.527,0,0,1-.98,2.464,3.116,3.116,0,0,1-2.38,1.064H191.268v1.008a6.434,6.434,0,0,0,.952,3.724,5.96,5.96,0,0,0,2.52,2.072,11.428,11.428,0,0,0,3.556.9q1.988.2,4,.252a49.222,49.222,0,0,0,5.572-.084q2.548-.2,5.236-.532v4.2q0,1.064-1.176,1.232-3.08.448-5.292.56T202.076,4.648Zm-3.584-27.1a8.066,8.066,0,0,0-5.292,1.6q-1.932,1.6-1.932,5.012v1.68h15.9q.784,0,.784-.56V-16.52a5.158,5.158,0,0,0-1.988-4.536,8.6,8.6,0,0,0-5.068-1.4ZM220.22,4.48V-16.128q0-5.432,2.8-8.568t8.064-3.136h9.128V-22.4h-7.5a5.745,5.745,0,0,0-4.452,1.736,6.518,6.518,0,0,0-1.6,4.592V2.912a1.574,1.574,0,0,1-.42,1.12,1.364,1.364,0,0,1-1.036.448Z" transform="translate(241.164 40.88)" fill="#fff"/>
</svg>
