<svg xmlns="http://www.w3.org/2000/svg" width="210.76" height="19.38" viewBox="0 0 210.76 19.38">
  <path id="패스_42" data-name="패스 42" d="M-103.32-10.26a3.774,3.774,0,0,0,.24,1.39,3.26,3.26,0,0,0,.64,1.04,2.665,2.665,0,0,0,.92.65,2.745,2.745,0,0,0,1.08.22,2.666,2.666,0,0,0,1.19-.26,2.735,2.735,0,0,0,.9-.7,3.138,3.138,0,0,0,.57-1.04,4.087,4.087,0,0,0,.2-1.3,3.76,3.76,0,0,0-.21-1.27,3.3,3.3,0,0,0-.58-1.03,2.623,2.623,0,0,0-.9-.69,2.708,2.708,0,0,0-1.17-.25,2.54,2.54,0,0,0-1.17.27,2.9,2.9,0,0,0-.91.72,3.321,3.321,0,0,0-.59,1.04A3.583,3.583,0,0,0-103.32-10.26Zm-2.3.02a5.494,5.494,0,0,1,.4-2.15,4.886,4.886,0,0,1,1.1-1.63,4.758,4.758,0,0,1,1.65-1.04,5.681,5.681,0,0,1,2.03-.36,5.6,5.6,0,0,1,2.02.36,4.674,4.674,0,0,1,1.63,1.04,4.963,4.963,0,0,1,1.09,1.63,5.494,5.494,0,0,1,.4,2.15,5.583,5.583,0,0,1-.39,2.12,4.924,4.924,0,0,1-1.08,1.65A4.845,4.845,0,0,1-98.4-5.4a5.392,5.392,0,0,1-2.04.38,5.544,5.544,0,0,1-2-.36,4.964,4.964,0,0,1-1.65-1.03,4.78,4.78,0,0,1-1.12-1.64A5.576,5.576,0,0,1-105.62-10.24Zm12.98,8.38V-15.6h2.24V-2.26a.384.384,0,0,1-.12.28.384.384,0,0,1-.28.12Zm2.72,4.9a.384.384,0,0,1-.12.28.384.384,0,0,1-.28.12H-101.8a1.2,1.2,0,0,1-.85-.35,1.149,1.149,0,0,1-.37-.87V-2.66h2.28v4a.184.184,0,0,0,.06.15.188.188,0,0,0,.12.05h10.64ZM-72.5-.24a3.067,3.067,0,0,1-.53,1.8,4.045,4.045,0,0,1-1.45,1.25,7.692,7.692,0,0,1-2.14.73,13.57,13.57,0,0,1-2.62.24,13.615,13.615,0,0,1-2.61-.24A7.688,7.688,0,0,1-84,2.81a4.045,4.045,0,0,1-1.45-1.25,3.067,3.067,0,0,1-.53-1.8,3.067,3.067,0,0,1,.53-1.8A4.134,4.134,0,0,1-84-3.3a7.483,7.483,0,0,1,2.15-.74,13.615,13.615,0,0,1,2.61-.24,13.57,13.57,0,0,1,2.62.24,7.486,7.486,0,0,1,2.14.74,4.134,4.134,0,0,1,1.45,1.26A3.067,3.067,0,0,1-72.5-.24ZM-85.86-13.58v-1.84h12.04a1.209,1.209,0,0,1,.86.34,1.132,1.132,0,0,1,.36.86v1.8q0,.38-.05.88a9.663,9.663,0,0,1-.17,1.06,10.893,10.893,0,0,1-.32,1.16,8.844,8.844,0,0,1-.48,1.16l-2.18-.02q.12-.36.28-.91t.31-1.15q.15-.6.25-1.16a5.443,5.443,0,0,0,.1-.92v-1.06a.177.177,0,0,0-.2-.2ZM-83.6-.24a1.5,1.5,0,0,0,.32.95,2.412,2.412,0,0,0,.89.68,5.126,5.126,0,0,0,1.37.4,11.148,11.148,0,0,0,1.78.13,7.9,7.9,0,0,0,3.17-.53A1.727,1.727,0,0,0-74.88-.24a1.752,1.752,0,0,0-1.19-1.63,7.646,7.646,0,0,0-3.17-.55,10.368,10.368,0,0,0-1.78.14,5.37,5.37,0,0,0-1.37.41,2.412,2.412,0,0,0-.89.68A1.5,1.5,0,0,0-83.6-.24Zm13.36-5.44a.384.384,0,0,1-.12.28.384.384,0,0,1-.28.12H-88.26V-7.16h6.84v-4.1h2.26v4.1h8.92Zm3.12-4.58a3.774,3.774,0,0,0,.24,1.39,3.26,3.26,0,0,0,.64,1.04,2.665,2.665,0,0,0,.92.65,2.745,2.745,0,0,0,1.08.22,2.666,2.666,0,0,0,1.19-.26,2.735,2.735,0,0,0,.9-.7,3.138,3.138,0,0,0,.57-1.04,4.087,4.087,0,0,0,.2-1.3,3.76,3.76,0,0,0-.21-1.27,3.3,3.3,0,0,0-.58-1.03,2.622,2.622,0,0,0-.9-.69,2.708,2.708,0,0,0-1.17-.25,2.54,2.54,0,0,0-1.17.27,2.9,2.9,0,0,0-.91.72,3.321,3.321,0,0,0-.59,1.04A3.583,3.583,0,0,0-67.12-10.26Zm-2.3.02a5.494,5.494,0,0,1,.4-2.15,4.886,4.886,0,0,1,1.1-1.63,4.758,4.758,0,0,1,1.65-1.04,5.681,5.681,0,0,1,2.03-.36,5.6,5.6,0,0,1,2.02.36,4.674,4.674,0,0,1,1.63,1.04,4.963,4.963,0,0,1,1.09,1.63,5.494,5.494,0,0,1,.4,2.15,5.583,5.583,0,0,1-.39,2.12,4.924,4.924,0,0,1-1.08,1.65A4.845,4.845,0,0,1-62.2-5.4a5.392,5.392,0,0,1-2.04.38,5.544,5.544,0,0,1-2-.36,4.964,4.964,0,0,1-1.65-1.03,4.78,4.78,0,0,1-1.12-1.64A5.576,5.576,0,0,1-69.42-10.24Zm12.98,8.38V-15.6h2.24V-2.26a.384.384,0,0,1-.12.28.384.384,0,0,1-.28.12Zm2.72,4.9a.384.384,0,0,1-.12.28.384.384,0,0,1-.28.12H-65.6a1.2,1.2,0,0,1-.85-.35,1.149,1.149,0,0,1-.37-.87V-2.66h2.28v4a.184.184,0,0,0,.06.15.188.188,0,0,0,.12.05h10.64Zm2.36-18.06h7.22a1.209,1.209,0,0,1,.86.34,1.132,1.132,0,0,1,.36.86v3.04a4.914,4.914,0,0,1-.71,2.67,6.874,6.874,0,0,1-1.84,1.94,10.882,10.882,0,0,1-2.55,1.34,28.025,28.025,0,0,1-2.82.89L-52.1-5.42a27.158,27.158,0,0,0,2.61-.83,10.862,10.862,0,0,0,2.21-1.11,5.386,5.386,0,0,0,1.53-1.5,3.536,3.536,0,0,0,.57-2v-2.12a.177.177,0,0,0-.2-.2h-5.98ZM-34.1-8.48h-3.08V-2.2a.384.384,0,0,1-.12.28.384.384,0,0,1-.28.12h-1.86V-15.6h2.26v5.2h3.08ZM-36.6,3.04a.384.384,0,0,1-.12.28.384.384,0,0,1-.28.12H-48.26a1.2,1.2,0,0,1-.85-.35,1.149,1.149,0,0,1-.37-.87V-3.06h2.26v4.4a.184.184,0,0,0,.06.15.188.188,0,0,0,.12.05H-36.6Zm9.42-18.28h14.36v1.74h-2.24v2.04a2.035,2.035,0,0,1-.04.4q-.04.2-.08.42h2.78V-8.9H-27.56v-1.74h2.7a3.792,3.792,0,0,1-.1-.84V-13.5h-2.22Zm-1.88,9.52V-7.58h18.02v1.46a.359.359,0,0,1-.17.33.606.606,0,0,1-.23.07Zm11.46-4.92a.177.177,0,0,0,.2-.2V-13.5h-5.24v2.66a.177.177,0,0,0,.2.2ZM-13.16,3.2a.384.384,0,0,1-.12.28.384.384,0,0,1-.28.12H-25.22a1.07,1.07,0,0,1-1.22-1.2V-1.26h10.4a.177.177,0,0,0,.2-.2V-2.5h-10.6V-4.36h12.88V-.68a1.133,1.133,0,0,1-.35.88,1.241,1.241,0,0,1-.87.32H-24.2V1.56a.177.177,0,0,0,.2.2h10.84Zm4.82-1.32a21.757,21.757,0,0,0,2.52-.61A11.431,11.431,0,0,0-3.69.39,5.066,5.066,0,0,0-2.21-.78a2.253,2.253,0,0,0,.55-1.48v-1.5H.64v1.58A2.129,2.129,0,0,0,1.23-.71,5.892,5.892,0,0,0,2.73.45a10.982,10.982,0,0,0,2.04.87q1.13.36,2.21.6L5.8,3.5q-.84-.2-1.78-.49a15.824,15.824,0,0,1-1.81-.68,10.765,10.765,0,0,1-1.6-.88A4.31,4.31,0,0,1-.54.36,4.658,4.658,0,0,1-1.79,1.52a11.334,11.334,0,0,1-1.67.89,14.643,14.643,0,0,1-1.86.66q-.96.27-1.8.45ZM1.62-4.9a.384.384,0,0,1-.12.28.384.384,0,0,1-.28.12H-.62V-15.6H1.62v3.78H3.64V-15.6h2.2V-3.54a.384.384,0,0,1-.12.28.384.384,0,0,1-.28.12H3.64V-9.86H1.62ZM-8.04-7.04a.177.177,0,0,0,.2.2q1.38.02,2.87-.09t3.37-.41v1.76q-.76.12-1.52.22t-1.64.17q-.88.07-1.91.11T-9-5.04a1.173,1.173,0,0,1-.88-.35,1.175,1.175,0,0,1-.34-.85v-4.82h5.3q.2,0,.2-.22V-13.3h-5.5v-1.8h7.7v4.58a1.148,1.148,0,0,1-.35.86,1.2,1.2,0,0,1-.87.34h-4.3ZM8.62-8.28V-10.1h2.7a3.713,3.713,0,0,1-.1-.82v-2.72H9v-1.8H23.34v1.8H21.12v2.74a2.5,2.5,0,0,1-.03.39q-.03.19-.07.41H23.8v1.82H17.34V-6.6h7.82v1.48a.359.359,0,0,1-.17.33.606.606,0,0,1-.23.07H7.14V-6.6h7.92V-8.28ZM9.7-3.36h13V2.3a1.124,1.124,0,0,1-.36.87,1.229,1.229,0,0,1-.86.33H10.92a1.2,1.2,0,0,1-.87-.34A1.148,1.148,0,0,1,9.7,2.3ZM11.9-1.5V1.44a.177.177,0,0,0,.2.2h8.18a.177.177,0,0,0,.2-.2V-1.5Zm6.78-8.6a.177.177,0,0,0,.2-.2v-3.34H13.46v3.34a.177.177,0,0,0,.2.2ZM33.6,1.14a.457.457,0,0,1-.13.32.389.389,0,0,1-.29.14h-1.9V-9.06a.737.737,0,0,1,.25-.64.983.983,0,0,1,.59-.18l9.34-.08a9.286,9.286,0,0,1,2.01.18,2.536,2.536,0,0,1,1.24.62,2.322,2.322,0,0,1,.62,1.15,7.758,7.758,0,0,1,.17,1.77V1.22q0,.38-.36.38H43.2V-6.44a2.6,2.6,0,0,0-.1-.8.989.989,0,0,0-.31-.47,1.177,1.177,0,0,0-.54-.23A4.485,4.485,0,0,0,41.46-8H39.48V1.26a.408.408,0,0,1-.07.24.261.261,0,0,1-.23.1H37.16V-8l-3.32.06q-.24,0-.24.16Zm16.92.46a3.767,3.767,0,0,1-2.28-.59,2.434,2.434,0,0,1-.86-2.13V-3.46a2.185,2.185,0,0,1,.25-1.06,2.428,2.428,0,0,1,.67-.78,3.257,3.257,0,0,1,.97-.5A4.119,4.119,0,0,1,50.42-6q.6-.02,1.29,0t1.27.04q.34.02.68.03t.68.03v-.6A1.642,1.642,0,0,0,54-7.66a1.763,1.763,0,0,0-1.02-.38q-.22-.02-.65-.02h-.77q-.48,0-1.06.02t-1.1.06l-.6.04-.58.04V-9.82l.55-.04.55-.04q.48-.04,1.08-.06t1.2-.02q.88,0,1.71.06a6.77,6.77,0,0,1,1.51.27,2.936,2.936,0,0,1,1.13.62,1.894,1.894,0,0,1,.57,1.13,11.007,11.007,0,0,1,.12,1.8V.7a.888.888,0,0,1-.21.59.684.684,0,0,1-.55.25Zm3.6-2.02q.24,0,.24-.22V-3.96q-.28-.02-.58-.03t-.58-.03q-.5-.02-1.1-.04t-1.12,0a1.544,1.544,0,0,0-.97.3,1.042,1.042,0,0,0-.39.88v1.32a.983.983,0,0,0,.44.91,1.888,1.888,0,0,0,.92.29q.52.02,1.07.01t1.01-.03q.28-.02.54-.02T54.12-.42ZM66.1-9.94h2.34V.7a.888.888,0,0,1-.21.59.684.684,0,0,1-.55.25l-4.14.04a7.634,7.634,0,0,1-1.96-.2A4.2,4.2,0,0,1,60.02.66,3.393,3.393,0,0,1,58.99-.63a4.53,4.53,0,0,1-.37-1.93v-7.4h2.32V-2.5a1.82,1.82,0,0,0,.65,1.54,2.377,2.377,0,0,0,1.55.48l2.74-.06q.22,0,.22-.24ZM73.06,1.14a.457.457,0,0,1-.13.32.389.389,0,0,1-.29.14h-1.9V-9.06a.737.737,0,0,1,.25-.64.983.983,0,0,1,.59-.18l9.34-.08a9.286,9.286,0,0,1,2.01.18,2.536,2.536,0,0,1,1.24.62,2.322,2.322,0,0,1,.62,1.15,7.758,7.758,0,0,1,.17,1.77V1.22q0,.38-.36.38H82.66V-6.44a2.6,2.6,0,0,0-.1-.8.989.989,0,0,0-.31-.47,1.177,1.177,0,0,0-.54-.23A4.485,4.485,0,0,0,80.92-8H78.94V1.26a.408.408,0,0,1-.07.24.261.261,0,0,1-.23.1H76.62V-8l-3.32.06q-.24,0-.24.16Zm13.84.54V-.54h2.28V1.68Zm7.36-.08a3.767,3.767,0,0,1-2.28-.59,2.434,2.434,0,0,1-.86-2.13V-3.46a2.185,2.185,0,0,1,.25-1.06,2.428,2.428,0,0,1,.67-.78,3.257,3.257,0,0,1,.97-.5A4.119,4.119,0,0,1,94.16-6q.6-.02,1.29,0t1.27.04q.34.02.68.03t.68.03v-.6a1.642,1.642,0,0,0-.34-1.16,1.763,1.763,0,0,0-1.02-.38q-.22-.02-.65-.02H95.3q-.48,0-1.06.02t-1.1.06l-.6.04-.58.04V-9.82l.55-.04.55-.04q.48-.04,1.08-.06t1.2-.02q.88,0,1.71.06a6.77,6.77,0,0,1,1.51.27,2.936,2.936,0,0,1,1.13.62,1.894,1.894,0,0,1,.57,1.13,11.007,11.007,0,0,1,.12,1.8V.7a.888.888,0,0,1-.21.59.684.684,0,0,1-.55.25Zm3.6-2.02q.24,0,.24-.22V-3.96q-.28-.02-.58-.03t-.58-.03q-.5-.02-1.1-.04t-1.12,0a1.544,1.544,0,0,0-.97.3,1.042,1.042,0,0,0-.39.88v1.32a.983.983,0,0,0,.44.91,1.888,1.888,0,0,0,.92.29q.52.02,1.07.01T96.8-.38q.28-.02.54-.02T97.86-.42Zm4.72-11.3V-14.6h2.56v2.88Zm.14,13.32V-9.94h2.32V1.2q0,.4-.38.4Z" transform="translate(105.62 15.6)" fill="#fff"/>
</svg>
