<svg xmlns="http://www.w3.org/2000/svg" width="25" height="25" viewBox="0 0 25 25">
    <g>
        <path fill="#1fa5ee" d="M954.573 914.013a.784.784 0 0 1-.251.569l-3.8 3.8c-.153.152-.154.152 0 .3l3.832 3.831a.771.771 0 0 1 .171.932.727.727 0 0 1-.841.361 1.022 1.022 0 0 1-.412-.253c-.571-.556-1.13-1.124-1.694-1.688l-2.728-2.727a.765.765 0 0 1-.006-1.191c1.462-1.464 2.932-2.921 4.384-4.4a.767.767 0 0 1 1.28.182 1.911 1.911 0 0 1 .065.284z" transform="translate(-1602 -250) translate(661.893 -656.287)"/>
        <g fill="none">
            <path d="M12.5 0A12.5 12.5 0 1 1 0 12.5 12.5 12.5 0 0 1 12.5 0z" transform="translate(-1602 -250) translate(1602 250)"/>
            <path fill="#1fa5ee" d="M12.5 1.5c-2.938 0-5.7 1.144-7.778 3.222C2.644 6.799 1.5 9.562 1.5 12.5c0 2.938 1.144 5.7 3.222 7.778C6.799 22.356 9.562 23.5 12.5 23.5c2.938 0 5.7-1.144 7.778-3.222 2.078-2.077 3.222-4.84 3.222-7.778 0-2.938-1.144-5.7-3.222-7.778C18.201 2.644 15.438 1.5 12.5 1.5m0-1.5C19.404 0 25 5.596 25 12.5S19.404 25 12.5 25 0 19.404 0 12.5 5.596 0 12.5 0z" transform="translate(-1602 -250) translate(1602 250)"/>
        </g>
    </g>
</svg>
