<svg xmlns="http://www.w3.org/2000/svg" width="25" height="25" viewBox="0 0 25 25">
    <path fill="#1fa5ee" d="M948.59 914.013a.784.784 0 0 0 .251.569l3.8 3.8c.153.152.154.152 0 .3l-3.832 3.831a.771.771 0 0 0-.171.932.727.727 0 0 0 .841.361 1.022 1.022 0 0 0 .412-.253c.571-.556 1.13-1.124 1.694-1.688l2.728-2.727a.765.765 0 0 0 .006-1.191c-1.462-1.464-2.932-2.921-4.384-4.4a.767.767 0 0 0-1.28.182 1.911 1.911 0 0 0-.065.284z" transform="translate(-938.056 -906.287)"/>
    <g fill="none" stroke="#1fa5ee" stroke-width="1.5px">
        <circle cx="12.5" cy="12.5" r="12.5" stroke="none"/>
        <circle cx="12.5" cy="12.5" r="11.75"/>
    </g>
</svg>
