<?xml version="1.0" encoding="UTF-8"?>
<svg width="57px" height="68px" viewBox="0 0 57 68" version="1.1" xmlns="http://www.w3.org/2000/svg" xmlns:xlink="http://www.w3.org/1999/xlink">
    <title>Triangle</title>
    <defs>
        <path d="M963.496833,330.607086 L990.579015,373.862084 C991.458262,375.266396 991.032613,377.117586 989.628302,377.996833 C989.151057,378.295638 988.599354,378.454102 988.036284,378.454102 L933.871919,378.454102 C932.215065,378.454102 930.871919,377.110956 930.871919,375.454102 C930.871919,374.891032 931.030382,374.339329 931.329188,373.862084 L958.411371,330.607086 C959.290617,329.202774 961.141807,328.777125 962.546119,329.656372 C962.93087,329.897267 963.255938,330.222335 963.496833,330.607086 Z" id="path-1"></path>
        <filter x="-7.0%" y="-4.6%" width="114.1%" height="122.0%" filterUnits="objectBoundingBox" id="filter-2">
            <feOffset dx="0" dy="2" in="SourceAlpha" result="shadowOffsetOuter1"></feOffset>
            <feMorphology radius="5" operator="erode" in="SourceAlpha" result="shadowInner"></feMorphology>
            <feOffset dx="0" dy="2" in="shadowInner" result="shadowInner"></feOffset>
            <feComposite in="shadowOffsetOuter1" in2="shadowInner" operator="out" result="shadowOffsetOuter1"></feComposite>
            <feGaussianBlur stdDeviation="2" in="shadowOffsetOuter1" result="shadowBlurOuter1"></feGaussianBlur>
            <feColorMatrix values="0 0 0 0 0   0 0 0 0 0   0 0 0 0 0  0 0 0 0.1 0" type="matrix" in="shadowBlurOuter1"></feColorMatrix>
        </filter>
    </defs>
    <g id="Page-1" stroke="none" stroke-width="1" fill="none" fill-rule="evenodd">
        <g id="main" transform="translate(-929.000000, -2293.000000)">
            <g id="3" transform="translate(0.000000, 1975.000000)">
                <g id="Triangle" transform="translate(960.954102, 352.500000) rotate(90.000000) translate(-960.954102, -352.500000) ">
                    <use fill="black" fill-opacity="1" filter="url(#filter-2)" xlink:href="#path-1"></use>
                    <path stroke="#FFFFFF" stroke-width="5" d="M960.842059,331.711819 C961.283563,331.815464 961.337741,331.869642 961.37789,331.933767 L961.37789,331.933767 L988.460073,375.188765 C988.533343,375.305791 988.552243,375.441437 988.523569,375.566144 C988.494895,375.690851 988.418646,375.804619 988.301621,375.87789 C988.22208,375.927691 988.130129,375.954102 988.036284,375.954102 L988.036284,375.954102 L933.871919,375.954102 C933.733848,375.954102 933.608848,375.898137 933.518365,375.807655 C933.427883,375.717173 933.371919,375.592173 933.371919,375.454102 C933.371919,375.360257 933.398329,375.268306 933.44813,375.188765 L933.44813,375.188765 L960.530313,331.933767 C960.603584,331.816741 960.717352,331.740493 960.842059,331.711819 Z" stroke-linejoin="square"></path>
                </g>
            </g>
        </g>
    </g>
</svg>