<svg xmlns="http://www.w3.org/2000/svg" xmlns:xlink="http://www.w3.org/1999/xlink" width="347" height="203" viewBox="0 0 347 203">
    <defs>
        <path id="q9gb74v9ba" d="M0 0.217L335.436 0.217 335.436 10 0 10z"/>
        <path id="j3qtq254ic" d="M0 202.781L346.139 202.781 346.139 0 0 0z"/>
    </defs>
    <g fill="none" fill-rule="evenodd">
        <g transform="translate(0 192.781)">
            <mask id="4hv8c7h4lb" fill="#fff">
                <use xlink:href="#q9gb74v9ba"/>
            </mask>
            <path fill="#C9C9C9" d="M335.436 5.109c0 2.7-75.09 4.892-167.718 4.892C75.09 10 0 7.81 0 5.109 0 2.407 75.09.217 167.72.217c92.627 0 167.717 2.19 167.717 4.892" mask="url(#4hv8c7h4lb)"/>
        </g>
        <path fill="#CAE5E1" d="M77.659 197.707V152.94c0-14.905 8.059-27.52 27.15-27.52h46.408c18.132 0 23.238 14.141 23.238 27.52v44.768H77.659z"/>
        <path fill="#DAF2F0" d="M151.216 125.418H104.81c-19.093 0-27.152 12.616-27.152 27.522v8.103c0-14.906 8.06-27.52 27.152-27.52h46.406c18.133 0 23.238 14.14 23.238 27.52v-8.103c0-13.38-5.105-27.522-23.238-27.522"/>
        <path fill="#CAE5E1" d="M191.417 196.708h33.587c11.615 0 36.874-3.48 37.405-38.066.531-34.584-25.844-39.649-39.794-41.637-13.95-1.988-28.363-1.035-28.363-1.035l-2.835 80.738z"/>
        <path fill="#DAF2F0" d="M222.615 117.005c-13.951-1.988-28.362-1.035-28.362-1.035l-2.836 80.738h.025l2.334-66.438s14.41-.954 28.362 1.034c13.1 1.867 37.152 6.448 39.599 35.631.392-2.545.627-5.3.673-8.292.53-34.585-25.844-39.65-39.795-41.638"/>
        <path fill="#E4F4F2" d="M213.279 186.076c8.61 0 38.464 2.06 38.464-27.268 0-29.327-25.458-31.122-33.694-31.122-8.237 0-11.29 1.596-12.332 9.586-1.042 7.99-2.605 32.117-1.563 40.808 1.042 8.69 9.125 7.996 9.125 7.996"/>
        <path fill="#94C4BF" d="M235.894 131.203c7.432 4.102 13.85 11.883 13.85 26.605 0 29.327-29.855 27.268-38.465 27.268 0 0-1.67.134-3.587-.523 2.582 1.77 5.587 1.523 5.587 1.523 8.61 0 38.464 2.06 38.464-27.268 0-16.029-7.608-23.824-15.849-27.605"/>
        <path fill="#64847E" d="M162.914 62.038c.697.325 1 1.153.676 1.85-.324.698-1.153 1-1.851.676-.697-.324-1-1.152-.676-1.85.325-.697 1.154-1 1.85-.676m-10.481 29.95l13.615-26.952c1.094-2.133.196-4.747-1.977-5.757-2.174-1.011-4.751-.012-5.677 2.198l-11.832 27.78c-4.668-.644-9.406 1.777-11.497 6.272-1.32 2.84-1.323 5.954-.265 8.657l2.028.943 3.192-6.865 6.364-.721 3.38 5.25-3.193 6.867 2.029.942c2.749-.933 5.127-2.941 6.447-5.782 2.09-4.496.888-9.68-2.614-12.832"/>
        <path fill="#5D7E93" d="M306.627 194.15c-1.112 0-2.014-.901-2.014-2.013 0-1.111.902-2.013 2.014-2.013 1.111 0 2.013.902 2.013 2.013 0 1.112-.901 2.014-2.013 2.014m.046-7.121h-23.97c-2.82 0-5.105 2.287-5.105 5.107 0 2.82 2.286 5.108 5.106 5.108h25.49c2.4 0 4.345-1.947 4.345-4.347 0-3.241-2.626-5.868-5.866-5.868"/>
        <path fill="#5D7E93" d="M274.851 172.072s9.38-3.32 12.067 5.819c2.69 9.139 0 15.053-3.225 17.74-3.225 2.689-6.289.944-6.289.944l-2.553-24.502zM138.614 171.456c-1.112.007-2.02-.89-2.025-2-.007-1.113.888-2.02 2-2.026 1.112-.007 2.019.89 2.026 2.001.006 1.112-.89 2.018-2.001 2.025zm5.094-2.09c-.02-3.24-2.662-5.85-5.903-5.832-2.4.015-4.335 1.972-4.32 4.373l.184 30.596 5.106-.03c2.82-.018 5.094-2.318 5.077-5.139l-.144-23.968z"/>
        <path fill="#5D7E93" d="M159.457 198.849s2.246-9.693-7.137-11.338c-9.384-1.644-14.48 1.214-16.79 4.72-2.307 3.509-1.66 6.357-1.66 6.357l25.587.26zM26.025 186.042l.022.212c.122 1.184 1.117 2.084 2.307 2.09l6.023.281c1.104.052 1.986.938 2.033 2.043.05 1.177-.863 2.172-2.04 2.224l-5.968.265c-1.181.116-2.086 1.104-2.098 2.291-.014 1.292 1.026 2.347 2.318 2.352 2.132.007 5.378.006 8.25-.047 4.782-.087 7.244-3.243 7.103-7.29-.14-4.048-2.847-7.733-8.122-7.637-3.067.055-5.967.4-7.855.676-1.233.181-2.1 1.301-1.973 2.54M160.118 88.503s17.06 7.45 20.02 21.949c2.959 14.499-11.162 22.08-11.162 22.08l3.62 9.173s21.549-8.78 14.933-34.266c-4.35-16.756-25.286-22.99-25.286-22.99l-2.125 4.054z"/>
        <path fill="#64847E" d="M232.011 147.606c-.505.506-1.332.506-1.837 0l-5.645-5.646c-.506-.504-.506-1.332 0-1.836.504-.506 1.332-.506 1.836 0l5.646 5.645c.506.505.506 1.332 0 1.837"/>
        <path fill="#64847E" d="M224.529 147.606c-.506-.505-.506-1.332 0-1.837l5.646-5.645c.504-.506 1.332-.506 1.836 0 .506.504.506 1.332 0 1.836l-5.645 5.646c-.505.506-1.332.506-1.837 0M232.011 176.885c-.505.506-1.332.506-1.837 0l-5.645-5.646c-.506-.504-.506-1.332 0-1.836.504-.506 1.332-.506 1.836 0l5.646 5.645c.506.505.506 1.332 0 1.837"/>
        <path fill="#64847E" d="M224.529 176.885c-.506-.505-.506-1.332 0-1.837l5.646-5.645c.504-.506 1.332-.506 1.836 0 .506.504.506 1.332 0 1.836l-5.645 5.646c-.505.506-1.332.506-1.837 0"/>
        <path fill="#5D7E93" d="M97.486 182.353c0-3.766 3.053-6.817 6.817-6.817 3.766 0 6.819 3.05 6.819 6.817 0 3.766-3.053 6.817-6.82 6.817-3.763 0-6.816-3.051-6.816-6.817m20.046-3.526h-.16c-.34-1.266-.858-2.458-1.528-3.55l.155-.153c.865-.865.865-2.268 0-3.133l-1.667-1.667c-.866-.865-2.268-.865-3.133 0l-.242.242c-1.072-.606-2.234-1.07-3.461-1.367v-.41c0-1.222-.992-2.214-2.216-2.214h-2.357c-1.223 0-2.215.992-2.215 2.215v.513c-1.176.324-2.288.8-3.314 1.41l-.39-.39c-.865-.864-2.267-.864-3.132 0l-1.667 1.668c-.865.865-.865 2.268 0 3.133l.408.409c-.597 1.02-1.064 2.125-1.378 3.294h-.563c-1.224 0-2.216.992-2.216 2.215v2.357c0 1.224.992 2.216 2.216 2.216h.494c.298 1.202.757 2.34 1.35 3.39l-.311.313c-.865.865-.865 2.267 0 3.133l1.667 1.667c.865.865 2.267.865 3.133 0l.224-.225c1.07.658 2.239 1.168 3.479 1.509v.249c0 1.223.992 2.216 2.215 2.216h2.357c1.224 0 2.216-.993 2.216-2.216v-.145c1.292-.311 2.51-.81 3.629-1.463l.074.075c.865.865 2.267.865 3.133 0l1.667-1.667c.865-.866.865-2.268 0-3.133l-.056-.056c.667-1.121 1.177-2.347 1.498-3.647h.09c1.225 0 2.217-.992 2.217-2.216v-2.357c0-1.223-.992-2.215-2.216-2.215"/>
        <mask id="3qt4k0uced" fill="#fff">
            <use xlink:href="#j3qtq254ic"/>
        </mask>
        <path fill="#5D7E93" d="M51.313 197.331L68.996 197.331 68.996 190.793 51.313 190.793z" mask="url(#3qt4k0uced)"/>
        <path fill="#5D7E93" d="M57.153 191.826L63.156 191.826 63.156 173.491 57.153 173.491z" mask="url(#3qt4k0uced)"/>
        <path fill="#618C91" d="M63.156 178.62L57.153 176.713 57.153 175.121 63.156 177.027zM63.139 182.103L57.136 180.197 57.136 178.604 63.139 180.511zM63.156 185.39L57.153 183.483 57.153 181.891 63.156 183.798z" mask="url(#3qt4k0uced)"/>
        <path fill="#5D7E93" d="M101.207 155.791c-.71 0-1.326-.527-1.417-1.25-.1-.782.452-1.495 1.232-1.598.538-.073 5.246-.874 5.22-6.236-.011-2.118-2.047-4.394-4.405-7.029-4.154-4.643-9.325-10.422-7.785-19.749 1.297-7.852 7.828-13.916 14.929-13.916.079 0 .157 0 .235.002 6.719.126 11.416 5.607 12.563 14.662.1.784-.456 1.5-1.24 1.6-.778.1-1.498-.457-1.598-1.24-.966-7.632-4.531-12.064-9.78-12.163h-.156c-4.95 0-10.948 4.36-12.131 11.521-1.316 7.976 3.15 12.97 7.094 17.375 2.746 3.07 5.118 5.72 5.134 8.923.03 6.412-5.033 8.747-7.714 9.087-.061.008-.121.011-.181.011" mask="url(#3qt4k0uced)"/>
        <path fill="#5D7E93" d="M122.691 121.334c-.056 0-.111-.003-.167-.01-.784-.092-1.347-.802-1.255-1.586.016-.13 1.44-13.185-5.172-16.972-10.826-6.2-16.937 3.145-17.192 3.546-.422.666-1.304.866-1.972.444-.666-.42-.867-1.3-.448-1.968.077-.122 7.798-12.084 21.033-4.504 8.248 4.724 6.663 19.173 6.592 19.785-.085.73-.703 1.265-1.419 1.265M78.675 117.334c-1.646 1.978-4.585 2.246-6.562.6-1.978-1.647-2.247-4.584-.6-6.563 1.646-1.977 4.584-2.246 6.562-.599 1.978 1.646 2.246 4.584.6 6.562m-11.719 14.077c-1.646 1.978-4.585 2.246-6.562.6-1.979-1.647-2.247-4.585-.6-6.563 1.647-1.978 4.584-2.246 6.563-.599 1.977 1.646 2.246 4.584.6 6.562m-.74-24.448c-2.387 2.868-3.147 6.55-2.389 9.928-3.46-.134-6.942 1.282-9.33 4.15-4.08 4.901-3.415 12.184 1.488 16.265 4.901 4.081 12.184 3.415 16.265-1.487 1.362-1.637 2.194-3.54 2.517-5.5l8.298 6.908c1.42 1.18 3.525.988 4.706-.43 1.18-1.418.988-3.525-.43-4.705l-8.28-6.894c1.851-.676 3.555-1.832 4.908-3.456 4.081-4.902 3.416-12.184-1.486-16.265-4.903-4.08-12.185-3.416-16.267 1.486M148.24 74.969l-.067.202c-.373 1.13.167 2.36 1.25 2.85l5.38 2.72c.987.5 1.429 1.67 1.02 2.697-.436 1.094-1.675 1.629-2.77 1.195l-5.554-2.2c-1.126-.376-2.356.155-2.853 1.233-.541 1.174-.023 2.562 1.154 3.095 1.943.878 4.905 2.204 7.547 3.332 4.4 1.876 7.937.002 9.464-3.748 1.528-3.751.564-8.221-4.288-10.291-2.821-1.204-5.607-2.077-7.445-2.596-1.198-.34-2.448.329-2.838 1.51" mask="url(#3qt4k0uced)"/>
        <path fill="#5D7E93" d="M104.101 125.418L148.048 125.418 148.048 119.401 104.101 119.401z" mask="url(#3qt4k0uced)"/>
        <path fill="#CAE5E1" d="M274.703 130.09c3.229.812 5.84 2.016 7.576 2.961 1.333-1.093 3.304-1.024 4.558.215 1.34 1.324 1.352 3.484.028 4.824-1.324 1.341-3.484 1.354-4.824.029-.927-.916-1.22-2.231-.872-3.399-1.638-.877-4.071-1.983-7.024-2.717-7.372-1.836-14.334-.617-20.691 3.622l-1.105-1.657c8.553-5.702 16.877-5.256 22.354-3.878" mask="url(#3qt4k0uced)"/>
        <path fill="#FF8806" d="M241.153 67.13h-29.277c-10.041 0-16.014-3.833-16.014-23.09V19.055C195.862 8.313 203.235 0 223.569 0h99.972c12.337 0 22.598.352 22.598 14.951v42.013c0 8.442-3.185 12.722-16.995 12.722S264.3 67.648 264.3 67.648s-.96 21.983-26.346 30.584c0 0 9.742-20.349 3.198-31.102" mask="url(#3qt4k0uced)"/>
        <path fill="#FFF" d="M268.866 48.985c0-1.45.422-2.57 1.265-3.357.842-.788 2.085-1.182 3.723-1.182 1.576 0 2.786.398 3.629 1.194.843.796 1.266 1.91 1.266 3.345 0 1.435-.438 2.546-1.314 3.334-.874.788-2.067 1.182-3.581 1.182-1.56 0-2.781-.39-3.665-1.17-.882-.781-1.323-1.895-1.323-3.346zm1.017-8.274v-2.033c0-1.545.315-2.85.945-3.913.63-1.064 1.75-2.1 3.357-3.11 1.278-.803 2.196-1.528 2.755-2.174.559-.646.839-1.387.839-2.223 0-.661-.3-1.185-.898-1.571-.6-.387-1.38-.58-2.341-.58-2.38 0-5.162.843-8.345 2.53l-3.287-6.43c3.925-2.238 8.023-3.357 12.294-3.357 3.515 0 6.273.772 8.274 2.316 2 1.545 3.002 3.649 3.002 6.313 0 1.907-.444 3.557-1.335 4.953-.89 1.394-2.312 2.715-4.266 3.959-1.657 1.072-2.693 1.856-3.11 2.353-.418.496-.626 1.084-.626 1.76v1.207h-7.258z" mask="url(#3qt4k0uced)"/>
    </g>
</svg>
