<svg xmlns="http://www.w3.org/2000/svg" xmlns:xlink="http://www.w3.org/1999/xlink" width="252" height="257" viewBox="0 0 252 257">
    <defs>
        <path id="dwizyd487a" d="M0 0.626L158.078 0.626 158.078 13 0 13z"/>
        <path id="8y77uhbtxc" d="M0.167 0.379L123.704 0.379 123.704 94.147 0.167 94.147z"/>
    </defs>
    <g fill="none" fill-rule="evenodd">
        <g transform="translate(0 242.621)">
            <mask id="8z1v8a1hkb" fill="#fff">
                <use xlink:href="#dwizyd487a"/>
            </mask>
            <path fill="#C9C9C9" d="M158.078 6.813c0 3.417-35.387 6.187-79.04 6.187C35.388 13 0 10.23 0 6.813 0 3.395 35.387.626 79.039.626s79.039 2.769 79.039 6.187" mask="url(#8z1v8a1hkb)"/>
        </g>
        <path fill="#728589" d="M46.026 247.742h23.625s-.253-8.685-9.075-9.94c-3.21-.457-5.934-.47-8.109-.307l2.965-32.062-10.48-3.503 2.178 36.496c-.375.115-.572.192-.572.192l-.532 9.124zM100.51 247.742h23.626s-.253-8.685-9.076-9.94c-3.21-.457-5.934-.47-8.108-.307l2.965-32.062-10.48-3.503 2.177 36.496c-.374.115-.57.192-.57.192l-.534 9.124z"/>
        <path fill="#CAE5E1" d="M29.883 157.392c0 10.383.273 26.67.418 40.16.046 4.369 3.602 7.882 7.972 7.882h75.997c4.403 0 7.972-3.57 7.972-7.973v-51.784s1.977-15.145-17.25-15.145c-24.056 0-46.74 1.2-59.846 3.47-13.107 2.27-15.264 13.89-15.264 23.39"/>
        <path fill="#DAF2F0" d="M42.244 197.552c-.145-13.489-.418-29.777-.418-40.16 0-9.499 2.157-21.12 15.264-23.39 11.35-1.966 26.348-3.128 45.788-3.405-.837-.042-1.705-.066-2.616-.066-24.055 0-42.01 1.201-55.116 3.471-13.106 2.27-15.263 13.891-15.263 23.39 0 10.383.273 26.671.418 40.16.046 4.369 3.6 7.882 7.97 7.882h11.945c-4.37 0-7.926-3.513-7.972-7.882"/>
        <path fill="#CAE5E1" d="M43.713 127.495h61.052c13.029 0 17.477-6.493 17.477-24.844 0-18.35-10.447-42.99-43.163-42.99-32.716 0-45 19.69-47.678 37.856-2.677 18.167-.545 29.978 12.312 29.978"/>
        <path fill="#DAF2F0" d="M42.13 98.52c2.595-17.56 15.84-32.307 47.537-32.307 5.97 0 11.089.268 15.49.764-6.435-4.47-14.97-7.316-26.078-7.316-32.716 0-45 19.69-47.678 37.857-2.677 18.166-.546 29.977 12.312 29.977h10.346c-12.457 0-14.523-11.416-11.928-28.976"/>
        <path fill="#E4F4F2" d="M117.074 102.652c0-5.948-1.1-12.555-3.696-18.771-2.062-4.931-6.89-8.14-12.234-8.14H71.58c-16.493 0-28.907 17.486-24.852 31.538 4.056 14.053 21.067 11.993 35.397 11.993h24.134c5.474 0 10.066-4.17 10.543-9.622.184-2.112.272-4.44.272-6.998"/>
        <path fill="#AECEC8" d="M113.378 83.881c-1.517-3.628-4.532-6.318-8.147-7.49 2.568 1.415 4.654 3.67 5.833 6.49 2.597 6.215 3.696 12.823 3.696 18.77 0 2.56-.087 4.887-.273 6.998-.476 5.454-5.068 9.623-10.543 9.623H79.81c-8.734 0-18.458.758-25.644-1.826 7.308 3.766 18.246 2.826 27.958 2.826h24.134c5.474 0 10.066-4.169 10.543-9.623.185-2.11.272-4.439.272-6.997 0-5.948-1.098-12.556-3.696-18.77"/>
        <path fill="#6E868E" d="M76.25 96.547c0 3.02-2.446 5.468-5.466 5.468s-5.468-2.448-5.468-5.468 2.448-5.468 5.468-5.468 5.467 2.448 5.467 5.468M110.071 96.547c0 1.838-1.49 3.33-3.329 3.33-1.838 0-3.328-1.492-3.328-3.33s1.49-3.329 3.328-3.329c1.839 0 3.329 1.491 3.329 3.33"/>
        <path fill="#728589" d="M25.279 196.96c-.827-6.245-4.47-9.005-7.868-9.472-.031-.005-.053.001-.083-.002-.126-.039-.227-.096-.358-.13-3.676-.984-7.864.3-9.965 2.324-2.74 2.64-2.835 6.384-2.835 6.384-.088.381-.113.788-.06 1.202l.627 4.863c.21 1.631 1.543 2.768 2.963 2.526.708-.12 1.309-.56 1.707-1.174l.021.541c.065 1.648 1.291 2.935 2.725 2.86.596-.03 1.136-.294 1.561-.707l-.003.034c-.161 1.533.8 2.938 2.134 3.121l.331.046c1.334.184 2.557-.92 2.717-2.452l.295-2.82v-8.198s2.254.634 2.63 4.621c.377 3.987 4.289 2.677 3.461-3.567"/>
        <path fill="#728589" d="M40.3 143.402c-.731-2.387-3.512-3.486-5.656-2.207-10.12 6.036-17.026 15.201-20.18 24.49-4.902 14.434-3.662 28.312-3.662 28.312l5.916.671c1.605-24.516 12.095-35.585 19.585-40.408 3.611-2.326 5.259-6.75 3.998-10.858M74.797 141.028l-7.702-4.071c-1.191-.629-1.65-2.118-1.021-3.308s2.119-1.649 3.308-1.02l7.703 4.071c1.19.629 1.65 2.118 1.02 3.308-.63 1.19-2.118 1.649-3.308 1.02"/>
        <path fill="#2D769E" d="M71.045 116.263c-9.742-.619-17.137-9.019-16.518-18.76.62-9.742 9.02-17.137 18.76-16.518 9.743.62 17.138 9.02 16.519 18.761-.62 9.742-9.02 17.137-18.761 16.517m2.506-39.409C61.527 76.09 51.16 85.217 50.396 97.24c-.765 12.023 8.363 22.39 20.386 23.155 12.024.764 22.39-8.362 23.156-20.386.763-12.024-8.364-22.39-20.387-23.155"/>
        <path fill="#2D769E" d="M67.728 168.406c-1.319-.084-2.32-1.222-2.237-2.542l2.972-46.742 4.78.304-2.973 46.742c-.084 1.32-1.222 2.322-2.542 2.238"/>
        <path fill="#728589" d="M77.085 136.7c-1.847-.976-3.272.949-3.998 2.284-.168-.168-.355-.322-.575-.44l-7.702-4.07c-1.191-.63-2.68-.17-3.308 1.02-.543 1.026-.272 2.27.574 2.999-.93-.053-1.851.42-2.312 1.293-.63 1.19-.17 2.679 1.02 3.308l.829.439c-1.19-.63-2.678-.171-3.307 1.019-.63 1.19-.17 2.679 1.02 3.309l7.702 4.07s7.23 3.866 11.096-3.45c3.867-7.315 1.678-10.345-1.04-11.781"/>
        <path fill="#728589" d="M104.571 130.71c11.669 1.02 15.7 6.184 17.056 10.165 3.09.762 6.275 2.514 7.379 6.41 1.445 5.103-.189 12.607-16.178 11.347-15.989-1.258-35.189-14.787-35.189-14.787l-1.85 5.477s9.993 8.08 25.061 14.107c13.682 5.472 37.163 4.609 37.163-14.185s-28.373-18.533-33.442-18.533"/>
        <path fill="#CAE5E1" d="M36.913 53.41c-3.354-1.492-6.44-2.226-8.588-2.586-.413-1.855-2.168-3.137-4.1-2.915-2.062.236-3.543 2.101-3.307 4.165.237 2.064 2.102 3.545 4.166 3.308 1.428-.163 2.575-1.107 3.069-2.355 2.018.353 4.88 1.05 7.942 2.422 7.644 3.425 12.853 9.22 15.484 17.223l2.086-.685C50.125 61.22 42.6 55.942 36.913 53.41"/>
        <g transform="translate(128 .621)">
            <mask id="p46e0266cd" fill="#fff">
                <use xlink:href="#8y77uhbtxc"/>
            </mask>
            <path fill="#FF8806" d="M68.578 73.12h37.81c11.96 0 17.316-3.84 17.316-20.892 0-17.053-.9-21.46-.9-31.697 0-10.237-3.63-20.152-22.093-20.152S28.36 3.492 16.21 3.492C4.058 3.492.167 12.412.167 24.758c0 12.345.325 28.24.325 34.133 0 5.893 4.555 13.484 15.937 13.484 11.38 0 28.553-.38 28.553-.38s.03 10.968-12.097 19.856c-.983.72-.48 2.277.74 2.294 5.996.083 19.11-2.325 34.953-21.025" mask="url(#p46e0266cd)"/>
        </g>
        <text fill="#FFF" font-family="NotoSansCJKkr-Bold, Noto Sans CJK KR" font-size="34" font-weight="bold" letter-spacing="-.68">
            <tspan x="160.481" y="53">404</tspan>
        </text>
    </g>
</svg>
