<svg xmlns="http://www.w3.org/2000/svg" xmlns:xlink="http://www.w3.org/1999/xlink" width="62" height="57" viewBox="0 0 62 57">
    <defs>
        <path id="ydszwii81a" d="M0.184 0.303L1.415 0.303 1.415 5.415 0.184 5.415z"/>
        <path id="vamlz9gfbc" d="M0.249 0.303L1.479 0.303 1.479 5.415 0.249 5.415z"/>
        <path id="ip312qy8ie" d="M0.313 0.303L1.544 0.303 1.544 5.415 0.313 5.415z"/>
        <path id="3tfpoy7jvg" d="M0 0.295L23.762 0.295 23.762 1.526 0 1.526z"/>
        <path id="p5hths3sci" d="M0.392 0.077L14.893 0.077 14.893 3.262 0.392 3.262z"/>
    </defs>
    <g fill="none" fill-rule="evenodd">
        <g>
            <g>
                <g>
                    <path fill="#45B4FF" d="M49.969 33.962c0-1.472-2.666-4.77-2.666-4.77s-2.666 3.298-2.666 4.77c0 1.473 1.194 2.666 2.666 2.666s2.666-1.193 2.666-2.666" transform="translate(-1157 -1400) translate(1142 1382) translate(15 18)"/>
                    <path fill="#344154" d="M47.36 52.449c-.323 0-.594-.252-.614-.578-.02-.339.236-.63.574-.652.13-.009 3.065-.247 4.507-3.285 1.165-2.455.296-4.509-.12-5.262-.844.154-2.986.78-4.152 3.235-.358.754-.552 1.535-.578 2.322-.01.339-.287.602-.634.595-.34-.011-.607-.295-.596-.635.031-.957.265-1.902.696-2.81 1.762-3.712 5.388-3.976 5.541-3.985.213-.012.414.084.537.255.09.125 2.18 3.1.417 6.813-1.761 3.713-5.387 3.976-5.54 3.985l-.038.002" transform="translate(-1157 -1400) translate(1142 1382) translate(15 18)"/>
                    <path fill="#344154" d="M47.247 52.449c-.012 0-.025 0-.039-.002-.153-.009-3.778-.272-5.54-3.985-1.763-3.712.327-6.688.417-6.813.124-.171.325-.266.537-.255.074.005 1.837.126 3.51 1.427.268.209.316.596.108.864-.209.268-.595.317-.864.108-.966-.752-1.965-1.024-2.478-1.12-.415.753-1.283 2.807-.118 5.261 1.443 3.04 4.382 3.277 4.506 3.285.339.023.595.316.573.654-.02.326-.29.576-.612.576" transform="translate(-1157 -1400) translate(1142 1382) translate(15 18)"/>
                    <g transform="translate(-1157 -1400) translate(1142 1382) translate(15 18) translate(46.479 50.915)">
                        <mask id="xaropkl31b" fill="#fff">
                            <use xlink:href="#ydszwii81a"/>
                        </mask>
                        <path fill="#344154" d="M.8 5.415c-.34 0-.616-.275-.616-.615V.919C.184.579.46.303.8.303c.34 0 .616.276.616.616v3.88c0 .34-.275.616-.616.616" mask="url(#xaropkl31b)"/>
                    </g>
                    <path fill="#344154" d="M31.179 52.449c-.323 0-.594-.252-.614-.578-.02-.339.236-.63.575-.652.13-.009 3.065-.247 4.506-3.285 1.165-2.454.296-4.509-.12-5.262-.844.154-2.986.78-4.151 3.235-.358.754-.553 1.535-.578 2.322-.012.34-.283.604-.636.595-.34-.011-.606-.295-.594-.635.03-.957.265-1.902.695-2.81 1.762-3.712 5.388-3.976 5.541-3.985.213-.012.414.084.537.255.09.125 2.18 3.1.418 6.813-1.762 3.713-5.388 3.976-5.541 3.985l-.038.002" transform="translate(-1157 -1400) translate(1142 1382) translate(15 18)"/>
                    <path fill="#344154" d="M31.066 52.449c-.012 0-.025 0-.038-.002-.154-.009-3.78-.272-5.541-3.985-1.762-3.712.328-6.688.418-6.813.123-.171.321-.266.537-.255.074.005 1.837.126 3.51 1.427.268.209.316.596.108.864-.21.268-.596.317-.865.108-.966-.752-1.964-1.024-2.478-1.12-.415.753-1.282 2.807-.118 5.261 1.442 3.04 4.382 3.277 4.506 3.285.339.023.596.316.574.654-.021.326-.29.576-.613.576" transform="translate(-1157 -1400) translate(1142 1382) translate(15 18)"/>
                    <g transform="translate(-1157 -1400) translate(1142 1382) translate(15 18) translate(30.234 50.915)">
                        <mask id="c66kze2hwd" fill="#fff">
                            <use xlink:href="#vamlz9gfbc"/>
                        </mask>
                        <path fill="#344154" d="M.864 5.415C.524 5.415.25 5.14.25 4.8V.919c0-.34.275-.616.615-.616.34 0 .615.276.615.616v3.88c0 .34-.275.616-.615.616" mask="url(#c66kze2hwd)"/>
                    </g>
                    <path fill="#344154" d="M14.998 52.449c-.323 0-.594-.252-.613-.578-.021-.339.236-.63.574-.652.13-.009 3.065-.247 4.506-3.285 1.165-2.455.297-4.509-.12-5.262-.844.154-2.986.78-4.151 3.235-.358.754-.552 1.535-.578 2.322-.01.333-.284.596-.614.596h-.02c-.34-.012-.607-.296-.596-.636.031-.957.265-1.902.696-2.81 1.762-3.712 5.387-3.976 5.54-3.985.214-.012.415.084.538.255.09.125 2.18 3.1.417 6.813-1.761 3.713-5.387 3.976-5.54 3.985l-.04.002" transform="translate(-1157 -1400) translate(1142 1382) translate(15 18)"/>
                    <path fill="#344154" d="M14.886 52.449c-.013 0-.026 0-.038-.002-.154-.009-3.78-.272-5.542-3.985-1.761-3.712.328-6.688.418-6.813.123-.171.321-.266.537-.255.074.005 1.837.126 3.51 1.427.268.209.316.596.108.864-.209.268-.595.317-.864.108-.957-.745-1.962-1.02-2.48-1.118-.415.754-1.28 2.807-.116 5.26 1.442 3.04 4.382 3.276 4.506 3.284.338.023.595.316.573.654-.02.326-.29.576-.612.576" transform="translate(-1157 -1400) translate(1142 1382) translate(15 18)"/>
                    <g transform="translate(-1157 -1400) translate(1142 1382) translate(15 18) translate(13.989 50.915)">
                        <mask id="dub0ix3tnf" fill="#fff">
                            <use xlink:href="#ip312qy8ie"/>
                        </mask>
                        <path fill="#344154" d="M.928 5.415c-.34 0-.615-.275-.615-.615V.919c0-.34.275-.616.615-.616.34 0 .616.276.616.616v3.88c0 .34-.276.616-.616.616" mask="url(#dub0ix3tnf)"/>
                    </g>
                    <path fill="#45B4FF" d="M33.788 33.962c0-1.472-2.665-4.77-2.665-4.77s-2.666 3.298-2.666 4.77c0 1.473 1.193 2.666 2.666 2.666 1.472 0 2.665-1.193 2.665-2.666M16.473 33.962c0-1.472-2.666-4.77-2.666-4.77s-2.666 3.298-2.666 4.77c0 1.473 1.194 2.666 2.666 2.666s2.666-1.193 2.666-2.666" transform="translate(-1157 -1400) translate(1142 1382) translate(15 18)"/>
                    <g transform="translate(-1157 -1400) translate(1142 1382) translate(15 18) translate(0 9.4)">
                        <mask id="6h9hmwm5ah" fill="#fff">
                            <use xlink:href="#3tfpoy7jvg"/>
                        </mask>
                        <path fill="#344154" d="M23.147 1.526H.615C.275 1.526 0 1.25 0 .91 0 .57.275.295.615.295h22.532c.34 0 .615.276.615.616 0 .34-.275.615-.615.615" mask="url(#6h9hmwm5ah)"/>
                    </g>
                    <path fill="#344154" d="M60.53 10.925H38c-.34 0-.616-.275-.616-.615 0-.34.275-.616.616-.616H60.53c.34 0 .615.276.615.616 0 .34-.275.615-.615.615M14.01 8.055c-.34 0-.616-.275-.616-.615V5.782c0-.742-.604-1.346-1.346-1.346-.742 0-1.345.604-1.345 1.346V7.44c0 .34-.276.615-.616.615-.34 0-.616-.275-.616-.615V5.782c0-1.42 1.156-2.576 2.577-2.576 1.42 0 2.577 1.155 2.577 2.576V7.44c0 .34-.276.615-.616.615M51.225 8.055c-.34 0-.615-.275-.615-.615V5.782c0-.742-.604-1.346-1.346-1.346-.741 0-1.345.604-1.345 1.346V7.44c0 .34-.275.615-.616.615-.34 0-.616-.275-.616-.615V5.782c0-1.42 1.157-2.576 2.577-2.576 1.421 0 2.577 1.155 2.577 2.576V7.44c0 .34-.276.615-.616.615" transform="translate(-1157 -1400) translate(1142 1382) translate(15 18)"/>
                    <path fill="#344154" d="M46.37 17.982H14.942c-.854 0-1.55-.695-1.55-1.549V10.31c0-.34.276-.615.616-.615.34 0 .616.275.616.615v6.123c0 .176.143.318.318.318h31.426c.176 0 .319-.142.319-.318V10.31c0-.34.275-.615.615-.615.34 0 .616.275.616.615v6.123c0 .854-.695 1.55-1.55 1.55" transform="translate(-1157 -1400) translate(1142 1382) translate(15 18)"/>
                    <g transform="translate(-1157 -1400) translate(1142 1382) translate(15 18) translate(23.014 .375)">
                        <mask id="qh7ydiqbhj" fill="#fff">
                            <use xlink:href="#p5hths3sci"/>
                        </mask>
                        <path fill="#344154" d="M1.008 3.262c-.202 0-.4-.1-.518-.283-.184-.286-.101-.667.185-.85C2.763.786 5.172.076 7.643.076c2.47 0 4.88.71 6.967 2.051.286.184.369.565.185.85-.184.287-.565.37-.85.186-1.89-1.214-4.069-1.856-6.302-1.856-2.234 0-4.413.642-6.303 1.856-.102.066-.218.098-.332.098" mask="url(#qh7ydiqbhj)"/>
                    </g>
                    <path fill="#344154" d="M33.354 7.29c-.114 0-.23-.031-.332-.098-.71-.456-1.528-.697-2.366-.697-.838 0-1.656.241-2.366.697-.285.184-.666.101-.85-.185-.184-.286-.101-.667.185-.85.908-.584 1.957-.892 3.031-.892 1.075 0 2.123.308 3.031.892.286.183.37.564.186.85-.118.183-.317.283-.519.283M30.656 9.578c-.183 0-.333.15-.333.333 0 .184.15.333.333.333.184 0 .333-.15.333-.333 0-.183-.149-.333-.333-.333m0 1.231c-.495 0-.898-.403-.898-.898s.403-.898.898-.898.898.403.898.898-.403.898-.898.898" transform="translate(-1157 -1400) translate(1142 1382) translate(15 18)"/>
                    <path fill="#344154" d="M49.786 26.799h-5.463c-.622 0-1.202-.277-1.595-.76-.391-.481-.543-1.106-.416-1.714l.304-1.457H35.82l.304 1.457c.127.608-.025 1.233-.417 1.715-.391.482-.972.759-1.593.759h-5.961c-.622 0-1.203-.277-1.595-.76-.392-.481-.544-1.106-.417-1.714l.304-1.457h-7.74l.304 1.457c.126.608-.026 1.233-.418 1.715-.391.482-.972.759-1.593.759h-5.472c-1.133 0-2.055-.922-2.055-2.055V10.31c0-.34.276-.615.616-.615.34 0 .616.275.616.615v14.434c0 .454.369.824.823.824h5.472c.249 0 .482-.111.639-.304.157-.193.218-.444.167-.688l-.46-2.197c-.037-.181.009-.37.126-.514.117-.144.292-.228.477-.228h9.255c.186 0 .361.084.478.228.117.144.163.333.125.514l-.459 2.197c-.05.244.01.495.168.688.156.193.39.304.639.304h5.96c.25 0 .483-.111.64-.304.156-.193.217-.444.166-.688l-.459-2.197c-.038-.181.009-.37.125-.514.117-.144.293-.228.478-.228h8.31c.185 0 .36.084.478.228.116.144.162.333.124.514l-.459 2.197c-.05.244.01.495.168.688.156.193.39.304.639.304h5.463c.455 0 .824-.37.824-.824V10.31c0-.34.276-.615.615-.615.34 0 .616.275.616.615v14.434c0 1.133-.921 2.055-2.055 2.055" transform="translate(-1157 -1400) translate(1142 1382) translate(15 18)"/>
                </g>
            </g>
        </g>
    </g>
</svg>
