<svg xmlns="http://www.w3.org/2000/svg" xmlns:xlink="http://www.w3.org/1999/xlink" width="28" height="27" viewBox="0 0 28 27">
    <defs>
        <path id="a" d="M0 .146h27.857V27H0z"/>
        <path id="c" d="M0 27h27.857V.146H0z"/>
    </defs>
    <g fill="none" fill-rule="evenodd">
        <path fill="#FFF" d="M13.5 16.22L.296 9 0 9.617l13.352 7.302.148.081L27 9.617 26.704 9z"/>
        <g>
            <mask id="b" fill="#fff">
                <use xlink:href="#a"/>
            </mask>
            <path fill="#FFF" d="M.661 9.763v16.115c0 .255.21.463.466.463H26.73a.465.465 0 0 0 .466-.463V9.763L13.928.938.661 9.763zM26.73 27H1.127A1.126 1.126 0 0 1 0 25.878V9.41L13.928.146 27.857 9.41v16.467c0 .619-.506 1.122-1.128 1.122z" mask="url(#b)"/>
            <path fill="#FFF" d="M13.928 18.96c-.303 0-.606-.073-.876-.21l-3.387-1.727a.328.328 0 0 1-.144-.443.331.331 0 0 1 .446-.143l3.387 1.726c.354.18.796.18 1.149 0l3.387-1.726a.331.331 0 0 1 .445.143.328.328 0 0 1-.144.443l-3.387 1.726c-.27.138-.572.21-.876.21M21.22 12.97h-.662V8.116H7.298v4.852h-.661V7.46H21.22z"/>
            <mask id="d" fill="#fff">
                <use xlink:href="#c"/>
            </mask>
            <path fill="#FFF" d="M9.993 10.62h7.871v-.658H9.993zM9.993 12.68h7.871v-.658H9.993zM26.236 25.386v-4.039a52.946 52.946 0 0 1-24.615 0v4.04h24.615z" mask="url(#d)"/>
        </g>
    </g>
</svg>
