<svg xmlns="http://www.w3.org/2000/svg" xmlns:xlink="http://www.w3.org/1999/xlink" width="57" height="56" viewBox="0 0 57 56">
    <defs>
        <path id="7vfapi27ca" d="M0 54.9L56.312 54.9 56.312 0.151 0 0.151z"/>
    </defs>
    <g fill="none" fill-rule="evenodd">
        <g>
            <g>
                <g>
                    <path fill="#344154" d="M0 47.444L0 50.908 1.35 50.908 1.35 48.794 5.138 48.794 5.138 50.908 6.488 50.908 6.488 47.444z" transform="translate(-704 -1683) translate(686 1665) translate(18 18)"/>
                    <path fill="#344154" d="M11.625 50.908L10.275 50.908 10.275 48.793 6.488 48.793 6.488 50.908 5.138 50.908 5.138 47.443 11.625 47.443z" transform="translate(-704 -1683) translate(686 1665) translate(18 18)"/>
                    <path fill="#344154" d="M9.056 48.118L7.706 48.118 7.706 46.005 3.919 46.005 3.919 48.118 2.569 48.118 2.569 44.655 9.056 44.655z" transform="translate(-704 -1683) translate(686 1665) translate(18 18)"/>
                    <path fill="#45B4FF" d="M36.911 24.866L42.846 24.866 42.846 18.931 36.911 18.931z" transform="translate(-704 -1683) translate(686 1665) translate(18 18)"/>
                    <path fill="#344154" d="M28.146 54.541L26.796 54.541 26.796 49.154 23.285 49.154 23.285 54.541 21.935 54.541 21.935 47.804 28.146 47.804z" transform="translate(-704 -1683) translate(686 1665) translate(18 18)"/>
                    <g transform="translate(-704 -1683) translate(686 1665) translate(18 18) translate(0 .3)">
                        <path fill="#344154" d="M25.04 35.05c-.464 0-.842.377-.842.842 0 .465.378.843.843.843.465 0 .843-.378.843-.843 0-.465-.378-.843-.843-.843m0 3.036c-1.21 0-2.193-.984-2.193-2.193 0-1.208.984-2.193 2.193-2.193s2.193.985 2.193 2.193c0 1.21-.984 2.193-2.193 2.193"/>
                        <mask id="jm0mpfh97b" fill="#fff">
                            <use xlink:href="#7vfapi27ca"/>
                        </mask>
                        <path fill="#344154" d="M24.366 43.823L25.716 43.823 25.716 39.21 24.366 39.21z" mask="url(#jm0mpfh97b)"/>
                        <path fill="#344154" d="M28.146 48.855L21.935 48.855 21.935 42.296 23.285 42.296 23.285 47.505 26.796 47.505 26.796 42.296 28.146 42.296z" mask="url(#jm0mpfh97b)"/>
                        <path fill="#344154" d="M21.346 45.93h-1.35v-4.696c0-1.59.983-2.699 2.39-2.699h5.309v1.35h-5.309c-.965 0-1.04 1.032-1.04 1.349v4.696zM30.085 45.93h-1.35v-4.696c0-.317-.075-1.349-1.04-1.349v-1.35c1.407 0 2.39 1.11 2.39 2.699v4.696zM43.538 47.632h4.585v-4.585h-4.585v4.585zm-1.35 1.35h7.285v-7.285h-7.285v7.285z" mask="url(#jm0mpfh97b)"/>
                        <path fill="#344154" d="M43.538 41.697h4.585V37.11h-4.585v4.586zm-1.35 1.35h7.285v-7.285h-7.285v7.285z" mask="url(#jm0mpfh97b)"/>
                        <path fill="#344154" d="M43.538 35.761h4.585v-4.585h-4.585v4.585zm-1.35 1.35h7.285v-7.285h-7.285v7.285z" mask="url(#jm0mpfh97b)"/>
                        <path fill="#344154" d="M43.538 29.826h4.585v-4.585h-4.585v4.585zm-1.35 1.35h7.285v-7.285h-7.285v7.285z" mask="url(#jm0mpfh97b)"/>
                        <path fill="#344154" d="M43.538 23.891h4.585v-4.585h-4.585v4.585zm-1.35 1.35h7.285v-7.285h-7.285v7.285z" mask="url(#jm0mpfh97b)"/>
                        <path fill="#344154" d="M43.538 17.956h4.585V13.37h-4.585v4.585zm-1.35 1.35h7.285V12.02h-7.285v7.285zM43.538 6.085h4.585V1.501h-4.585v4.584zm-1.35 1.35h7.285V.151h-7.285v7.284zM19.78 12.02h4.586V7.437H19.78v4.585zm-1.35 1.35h7.286V6.087H18.43v7.285z" mask="url(#jm0mpfh97b)"/>
                        <path fill="#344154" d="M25.716 12.02H30.3V7.437h-4.584v4.585zm-1.35 1.35h7.285V6.087h-7.285v7.285z" mask="url(#jm0mpfh97b)"/>
                        <path fill="#344154" d="M31.65 12.02h4.586V7.437H31.65v4.585zm-1.35 1.35h7.286V6.087H30.3v7.285z" mask="url(#jm0mpfh97b)"/>
                        <path fill="#344154" d="M37.586 12.02h4.585V7.437h-4.585v4.585zm-1.35 1.35h7.285V6.087h-7.285v7.285z" mask="url(#jm0mpfh97b)"/>
                        <path fill="#344154" d="M43.521 12.02h4.585V7.437h-4.585v4.585zm-1.35 1.35h7.285V6.087h-7.285v7.285z" mask="url(#jm0mpfh97b)"/>
                        <path fill="#344154" d="M49.473 12.02h4.586V7.437h-4.586v4.585zm-1.35 1.35h7.286V6.087h-7.285v7.285zM25.716 22.7L24.366 22.7 24.366 17.956 42.846 17.956 42.846 19.306 25.716 19.306z" mask="url(#jm0mpfh97b)"/>
                        <path fill="#344154" d="M33.168 36.239L31.818 36.239 31.818 31.063 25.041 23.697 18.263 31.063 18.263 36.239 16.913 36.239 16.913 30.537 25.041 21.702 33.168 30.537zM.675 54.866L36.945 54.866 36.945 53.516.675 53.516zM11.801 27.511c-.873 0-1.584.71-1.584 1.584 0 .873.711 1.583 1.584 1.583.873 0 1.584-.71 1.584-1.583s-.711-1.584-1.584-1.584m0 4.517c-1.618 0-2.934-1.316-2.934-2.933 0-1.618 1.316-2.934 2.934-2.934s2.934 1.316 2.934 2.934c0 1.617-1.316 2.933-2.934 2.933" mask="url(#jm0mpfh97b)"/>
                        <path fill="#344154" d="M1.35 40.699L0 40.699 0 31.956 11.89 20.145 20.053 28.153 19.107 29.116 11.897 22.042 1.35 32.518zM38.574 53.55h14.479l-4.568-4.568h-5.342l-4.569 4.568zm17.738 1.35H35.315l7.269-7.268h6.46l7.268 7.268zM42.863 25.241L36.236 25.241 36.236 18.631 37.586 18.631 37.586 23.891 42.863 23.891zM1.35 53.516h15.563v-2.261H1.35v2.261zM0 54.866h18.263v-4.961H0v4.961z" mask="url(#jm0mpfh97b)"/>
                    </g>
                </g>
            </g>
        </g>
    </g>
</svg>
