<svg xmlns="http://www.w3.org/2000/svg" xmlns:xlink="http://www.w3.org/1999/xlink" width="53" height="66" viewBox="0 0 53 66">
    <defs>
        <path id="f3sbdhmhta" d="M0 0.336L52.791 0.336 52.791 35.779 0 35.779z"/>
    </defs>
    <g fill="none" fill-rule="evenodd">
        <g>
            <g>
                <g>
                    <path fill="#45B4FF" d="M22.058 23.086h19.349l-3.495-6.407c-.2-.368-.585-.596-1.004-.596H15.883c-.419 0-.804.228-1.004.596l-3.495 6.407h10.674z" transform="translate(-706 -1396) translate(686 1383) translate(20 13)"/>
                    <path fill="#344154" d="M16.396 36.08H8.038c-.349 0-.632-.283-.632-.63 0-.35.283-.633.632-.633h7.095v-.727c0-1.047-.78-1.95-1.815-2.1l-5.366-.738c-.345-.048-.587-.367-.54-.712.048-.346.362-.585.713-.54l5.37.74c1.656.241 2.901 1.68 2.901 3.35v1.99z" transform="translate(-706 -1396) translate(686 1383) translate(20 13)"/>
                    <g transform="translate(-706 -1396) translate(686 1383) translate(20 13) translate(0 11.498)">
                        <mask id="gkbsihmqkb" fill="#fff">
                            <use xlink:href="#f3sbdhmhta"/>
                        </mask>
                        <path fill="#344154" d="M12.12 29.471h28.552v2.44c0 1.437 1.168 2.605 2.604 2.605h1.808c1.437 0 2.605-1.168 2.605-2.605v-15.44l3.737-1.364c.06-.022.102-.082.102-.147v-2.648c0-.086-.07-.156-.156-.156H47.62c-1.301 0-2.496-.71-3.12-1.851l-3.74-6.859C40.138 2.307 38.945 1.6 37.647 1.6H15.144c-1.299 0-2.491.708-3.112 1.847L8.29 10.305c-.624 1.141-1.818 1.85-3.119 1.85H1.42c-.086 0-.156.07-.156.157v2.648c0 .065.041.125.103.147l3.735 1.365v15.44c0 1.436 1.169 2.604 2.605 2.604h1.809c1.436 0 2.604-1.168 2.604-2.605v-2.44zm32.964 6.308h-1.808c-2.132 0-3.867-1.735-3.867-3.868v-1.176H13.382v1.176c0 2.133-1.735 3.868-3.867 3.868h-1.81c-2.132 0-3.866-1.735-3.866-3.868V17.355L.932 16.293C.374 16.09 0 15.553 0 14.96v-2.648c0-.782.636-1.42 1.419-1.42h3.753c.838 0 1.609-.456 2.01-1.193l3.741-6.858c.843-1.544 2.46-2.505 4.22-2.505h22.504c1.761 0 3.378.96 4.22 2.506L45.609 9.7c.402.736 1.172 1.193 2.01 1.193h3.754c.782 0 1.42.637 1.42 1.419v2.648c0 .593-.375 1.128-.932 1.333l-2.908 1.062V31.91c0 2.133-1.735 3.868-3.868 3.868z" mask="url(#gkbsihmqkb)"/>
                    </g>
                    <path fill="#344154" d="M12.447 22.454h27.896l-2.986-5.473c-.09-.164-.262-.267-.449-.267H15.882c-.187 0-.36.103-.45.268l-2.985 5.472zm30.023 1.264H10.32l4.004-7.342c.311-.57.908-.924 1.558-.924h21.026c.65 0 1.247.354 1.558.924l4.004 7.342zM44.753 36.08h-8.358v-1.99c0-1.67 1.244-3.109 2.896-3.35l5.375-.74c.349-.046.664.194.712.54.047.345-.194.664-.54.712l-5.37.74c-1.03.149-1.811 1.051-1.811 2.098v.727h7.096c.348 0 .631.283.631.632 0 .348-.283.632-.631.632M32.043 36.204H20.747c-.348 0-.63-.283-.63-.631 0-.35.282-.632.63-.632h11.296c.348 0 .631.282.631.632 0 .348-.283.63-.63.63" transform="translate(-706 -1396) translate(686 1383) translate(20 13)"/>
                    <path fill="#344154" d="M32.044 36.204c-.025 0-.049-.001-.073-.004-.347-.04-.595-.354-.556-.7l.436-3.769H20.94l.435 3.77c.04.345-.208.658-.555.699-.346.04-.66-.209-.7-.555l-.597-5.176h13.745l-.598 5.176c-.037.322-.31.559-.626.559M12.75 42.232H9.367c-.349 0-.632-.282-.632-.63 0-.35.283-.633.632-.633h3.385c.348 0 .631.283.631.632 0 .349-.283.631-.631.631M43.425 42.232h-3.384c-.35 0-.632-.282-.632-.63 0-.35.283-.633.632-.633h3.384c.349 0 .632.283.632.632 0 .349-.283.631-.632.631M14.435 13.272c-.03 0-.06-.003-.09-.007-.345-.05-.585-.37-.536-.715L15.535.543c.05-.346.367-.586.715-.535.346.05.585.37.535.715L15.06 12.73c-.045.314-.315.542-.624.542M21.34 13.272h-.02c-.35-.012-.623-.304-.611-.652L21.092.613c.012-.349.3-.64.651-.611.349.01.622.302.611.65L21.97 12.66c-.01.342-.29.612-.63.612M36.21 13.272c-.31 0-.58-.228-.625-.542L33.859.723c-.05-.345.19-.666.535-.715.348-.05.665.19.715.535l1.726 12.007c.05.345-.19.666-.535.715-.03.004-.06.007-.09.007M29.304 13.272c-.34 0-.62-.27-.63-.612L28.29.653c-.011-.349.262-.64.61-.651.359-.01.641.262.652.61l.383 12.008c.012.348-.262.64-.61.651h-.021M11.05 64.895c-.032 0-.065-.003-.099-.009-.344-.053-.58-.376-.525-.72l3.476-22.186c.054-.344.375-.583.721-.526.345.054.58.377.526.722L11.673 64.36c-.049.311-.317.534-.623.534M21.336 64.895h-.022c-.349-.013-.622-.306-.61-.653l.773-22.186c.013-.348.31-.628.653-.61.349.013.622.306.61.654l-.774 22.185c-.011.34-.291.61-.63.61M41.518 64.895c-.305 0-.574-.223-.623-.534L37.42 42.176c-.054-.345.181-.668.526-.722.346-.056.668.182.721.526l3.477 22.186c.054.344-.182.667-.526.72-.033.006-.066.009-.099.009M31.232 64.895c-.338 0-.618-.27-.63-.61L29.829 42.1c-.012-.348.26-.641.61-.653.345-.021.64.26.653.61l.772 22.185c.012.347-.26.64-.61.652h-.022M16.171 65.048l-.062-.003c-.347-.034-.601-.342-.567-.69l.194-2.014c.034-.348.348-.605.69-.568.347.034.6.342.568.69l-.195 2.014c-.032.327-.307.57-.628.57M16.905 58.511c-.02 0-.042 0-.063-.003-.347-.035-.6-.344-.565-.69l.133-1.344c.035-.347.342-.603.691-.565.347.034.6.343.565.69l-.133 1.343c-.032.326-.307.57-.628.57M17.467 52.778c-.021 0-.043-.001-.064-.004-.347-.034-.6-.343-.565-.69l.067-.672c.034-.348.347-.608.69-.566.348.035.601.344.566.69l-.067.672c-.033.327-.307.57-.627.57M36.397 65.048c-.321 0-.596-.244-.627-.57l-.195-2.015c-.034-.348.22-.656.568-.69.342-.036.655.22.689.568l.194 2.015c.035.347-.22.656-.567.689-.02.002-.041.003-.062.003M35.663 58.511c-.32 0-.594-.243-.627-.569l-.134-1.343c-.036-.347.218-.656.565-.69.35-.037.656.218.691.565l.134 1.343c.035.347-.218.656-.565.69-.021.003-.043.004-.064.004M35.101 52.778c-.32 0-.594-.243-.627-.57l-.067-.671c-.035-.347.218-.656.566-.69.341-.04.656.218.69.565l.067.672c.036.347-.218.656-.565.69-.02.003-.043.004-.064.004" transform="translate(-706 -1396) translate(686 1383) translate(20 13)"/>
                </g>
            </g>
        </g>
    </g>
</svg>
