<svg id="레이어_1" data-name="레이어 1" xmlns="http://www.w3.org/2000/svg" viewBox="0 0 88.5 100"><defs><style>.cls-1{fill:#111d27;}</style></defs><path class="cls-1" d="M86,52.93H14.47A8.48,8.48,0,0,0,6,61.4V91.53A8.48,8.48,0,0,0,14.47,100H86a8.48,8.48,0,0,0,8.47-8.47V61.4A8.48,8.48,0,0,0,86,52.93Zm2.82,38.6A2.83,2.83,0,0,1,86,94.35H14.47a2.83,2.83,0,0,1-2.82-2.82V61.4a2.83,2.83,0,0,1,2.82-2.83H86a2.83,2.83,0,0,1,2.82,2.83Z" transform="translate(-6 0)"/><path class="cls-1" d="M28.76,83H25v-16a2.83,2.83,0,1,0-5.65,0V85.86a2.84,2.84,0,0,0,2.35,2.79,19,19,0,0,0,2.44,0h4.65a2.83,2.83,0,0,0,0-5.65Z" transform="translate(-6 0)"/><path class="cls-1" d="M38.18,64.22a2.83,2.83,0,0,0-2.83,2.83V85.88a2.83,2.83,0,0,0,5.65,0V67.05A2.83,2.83,0,0,0,38.18,64.22Z" transform="translate(-6 0)"/><path class="cls-1" d="M78.33,69.87a2.83,2.83,0,1,0,0-5.65H70.4a2.83,2.83,0,0,0-2.83,2.83V85.88A2.83,2.83,0,0,0,70.4,88.7h7.93a2.83,2.83,0,1,0,0-5.65H73.22V79.29h4.53a2.83,2.83,0,0,0,0-5.65H73.22V69.87Z" transform="translate(-6 0)"/><path class="cls-1" d="M61.87,64.4a2.82,2.82,0,0,0-3.57,1.79L54.38,78,50.26,66.12A2.82,2.82,0,1,0,44.93,68l6.43,18.55v0a3.24,3.24,0,0,0,3.06,2.16h0a3.25,3.25,0,0,0,3.06-2.2v0L63.66,68A2.82,2.82,0,0,0,61.87,64.4Z" transform="translate(-6 0)"/><path class="cls-1" d="M80.27,21.07,38.37.18a1.67,1.67,0,0,0-2.24.74L27.19,18.85a1.65,1.65,0,0,0-.08,1.27,1.69,1.69,0,0,0,.83,1l12.51,6.24-1.11,2.22a1.67,1.67,0,0,0,.75,2.24l.4.2-2.16,3.84H25.62A7.09,7.09,0,0,0,19.3,32V46.2a7.12,7.12,0,0,0,6.24-3.7H40.29a3.35,3.35,0,0,0,2.91-1.7L46.47,35l.57.29a1.68,1.68,0,0,0,2.24-.75l1.11-2.23,9.34,4.66a1.66,1.66,0,0,0,1.68-.11L64,35.09l4.61,2.29a1.63,1.63,0,0,0,.75.18,1.58,1.58,0,0,0,.52-.09,1.68,1.68,0,0,0,1-.84l4.71-9.45L80.45,24a1.68,1.68,0,0,0,.74-1.5A1.65,1.65,0,0,0,80.27,21.07Z" transform="translate(-6 0)"/></svg>