<svg xmlns="http://www.w3.org/2000/svg" width="24" height="24" viewBox="0 0 24 24">
    <defs>
        <style>
            .cls-2{opacity:.53}.cls-3{fill:#00aeee}.cls-4{fill:#fff}
        </style>
    </defs>
    <g id="ico_product_24px" transform="translate(8623 506)">
        <path id="사각형_1724" fill="none" d="M0 0H24V24H0z" transform="translate(-8623 -506)"/>
        <g id="그룹_2118" transform="translate(-8622.783 -505.711)">
            <g id="그룹_2109" class="cls-2" transform="translate(1.703 10.332)">
                <g id="그룹_2108">
                    <path id="사각형_1725" d="M0 0H2.586V9.389H0z" class="cls-3"/>
                </g>
            </g>
            <g id="그룹_2111" transform="translate(4.727 12.321)">
                <g id="그룹_2110">
                    <path id="패스_2350" d="M4.816 13.605l3.222-1.042 2.4 1.262 3.5.135 1.56 2.253 5.228-.968.789.183.4 1.472-8.41 3.063-4.2-.756s-4.5-1.193-4.5-1.352z" class="cls-4" transform="translate(-4.816 -12.563)"/>
                </g>
            </g>
            <g id="그룹_2113" class="cls-2" transform="translate(7.113 3.649)">
                <g id="그룹_2112">
                    <path id="패스_2351" d="M7.425 3.662h13.327v11.06l-5.49 1.262-.6-1.7-3.859-.6-2.025-1.35H7.266z" class="cls-3" transform="translate(-7.266 -3.662)"/>
                </g>
            </g>
            <g id="그룹_2115" transform="translate(11.841 3.649)">
                <g id="그룹_2114">
                    <path id="패스_2352" d="M12.118 3.662V9.39l2.025-1.781 1.94 1.706V3.7z" class="cls-4" transform="translate(-12.118 -3.662)"/>
                </g>
            </g>
            <g id="그룹_2117" transform="translate(1.338 3.159)">
                <g id="그룹_2116">
                    <path id="패스_2353" fill="#003575" d="M22.1 15.348a1.529 1.529 0 0 0-.947-.912.22.22 0 0 1-.15-.208V3.609a.451.451 0 0 0-.451-.45H7.15a.45.45 0 0 0-.45.45v8.248a.212.212 0 0 1-.145.123 8.212 8.212 0 0 0-1.236.411.222.222 0 0 1-.208-.019.221.221 0 0 1-.1-.184v-1.877a.45.45 0 0 0-.45-.45H1.788a.45.45 0 0 0-.45.45v9.382a.45.45 0 0 0 .45.45h2.774a.45.45 0 0 0 .45-.45v-1.306a.22.22 0 0 1 .088-.177.217.217 0 0 1 .13-.042.225.225 0 0 1 .067.01c1.832.591 6.253 1.966 7.746 1.966 1.6 0 7.3-2.071 8.937-3.118.164-.103.654-.418.12-1.678zM4.112 19.023a.22.22 0 0 1-.22.22H2.458a.22.22 0 0 1-.22-.22v-8.042a.22.22 0 0 1 .22-.22h1.434a.22.22 0 0 1 .22.22zm8.179-14.744a.22.22 0 0 1 .22-.22h2.681a.22.22 0 0 1 .219.22v3.744a.22.22 0 0 1-.135.2.211.211 0 0 1-.084.017.221.221 0 0 1-.156-.064l-.866-.866a.449.449 0 0 0-.637 0l-.866.866a.222.222 0 0 1-.156.064.211.211 0 0 1-.084-.017.22.22 0 0 1-.136-.2zm-4.691 0a.22.22 0 0 1 .22-.22h3.35a.22.22 0 0 1 .22.22v5.362a.449.449 0 0 0 .278.416.454.454 0 0 0 .172.034.449.449 0 0 0 .319-.132L13.7 8.422a.223.223 0 0 1 .156-.064.219.219 0 0 1 .155.064l1.537 1.537a.447.447 0 0 0 .318.132.454.454 0 0 0 .172-.034.448.448 0 0 0 .279-.416V4.279a.22.22 0 0 1 .219-.22h3.352a.22.22 0 0 1 .219.22V14.2a.22.22 0 0 1-.176.215c-.033.007-.065.012-.1.017s-.08.013-.125.024c-.382.1-.775.208-1.154.314l-.036.01a22.642 22.642 0 0 1-2.728.646h-.033a.22.22 0 0 1-.217-.187l-.007-.045c0-.029-.008-.058-.015-.089-.194-.848-1.013-1.753-2.731-1.753a5.54 5.54 0 0 0-.693.045 5.148 5.148 0 0 1-.645.046 1.813 1.813 0 0 1-1.64-.788 2.11 2.11 0 0 0-.7-.616 2.81 2.81 0 0 0-1.225-.234H7.82a.221.221 0 0 1-.155-.063.218.218 0 0 1-.065-.152zm13.72 12.1c-1.795 1.045-7.053 2.867-8.274 2.867-1.542 0-7.238-1.846-7.882-2.057a.22.22 0 0 1-.152-.208V13.67a.22.22 0 0 1 .115-.193 6.32 6.32 0 0 1 2.759-.777 1.923 1.923 0 0 1 .834.158 1.436 1.436 0 0 1 .4.381 2.663 2.663 0 0 0 2.356 1.108 5.947 5.947 0 0 0 .724-.047 4.6 4.6 0 0 1 .6-.041 2.01 2.01 0 0 1 1.59.572 1.11 1.11 0 0 1 .268.607.221.221 0 0 1-.141.227c-.087.032-.178.068-.274.105h-.012a5.841 5.841 0 0 1-1.6.458.687.687 0 0 1-.169-.019c-.222-.055.042.009-1.179-.309l-1.411-.364-1.02-.263a.45.45 0 0 0-.229.871c.7.18 1.831.478 2.667.693.372.1.714.186.958.246a1.514 1.514 0 0 0 .369.042 6.032 6.032 0 0 0 1.951-.519l.017-.007c.164-.063.319-.124.452-.169a.4.4 0 0 1 .041-.019.226.226 0 0 1 .066-.016 18.583 18.583 0 0 0 3.614-.747c.383-.107.778-.218 1.169-.319a2.564 2.564 0 0 1 .62-.093.684.684 0 0 1 .725.462 2.775 2.775 0 0 1 .151.437.221.221 0 0 1-.104.241z" transform="translate(-1.338 -3.159)"/>
                </g>
            </g>
        </g>
    </g>
</svg>
