<svg id="레이어_1" data-name="레이어 1" xmlns="http://www.w3.org/2000/svg" viewBox="0 0 100 100"><defs><style>.cls-1{fill:#fff;}</style></defs><path class="cls-1" d="M96,53.63a4,4,0,0,0,0-8.07H85.64V34.27H96a4,4,0,0,0,0-8.06H85.64V19a6.59,6.59,0,0,0-6.57-6.61H73.4V4a4,4,0,1,0-8,0V12.4H54.14V4a4,4,0,1,0-8,0V12.4H34.63V4a4,4,0,1,0-8,0V12.4H20.55A6.6,6.6,0,0,0,14,19v7.2H4a4,4,0,0,0,0,8.06H14V45.56H4a4,4,0,0,0,0,8.07H14V65.19H4a4,4,0,0,0,0,8.06H14v6.2a6.6,6.6,0,0,0,6.57,6.61H26.6V96a4,4,0,1,0,8,0V86.06H46.12V96a4,4,0,1,0,8,0V86.06H65.37V96a4,4,0,1,0,8,0V86.06h5.67a6.59,6.59,0,0,0,6.57-6.61v-6.2H96a4,4,0,0,0,0-8.06H85.64V53.63ZM77.4,71a6.59,6.59,0,0,1-6.57,6.61h-42A6.59,6.59,0,0,1,22.22,71V27.47a6.58,6.58,0,0,1,6.57-6.6h42a6.58,6.58,0,0,1,6.57,6.6Z"/><rect class="cls-1" x="33.75" y="32.91" width="32.5" height="34.18"/></svg>