<svg xmlns="http://www.w3.org/2000/svg" width="24" height="24" viewBox="0 0 24 24">
    <defs>
        <style>
            .cls-2{fill:#fff}.cls-3{fill:#00aeee;opacity:.53}.cls-5{fill:#003575}
        </style>
    </defs>
    <g id="ico_estimate_24px" transform="translate(-12 -402)">
        <path id="사각형_1692" fill="none" d="M0 0H24V24H0z" transform="translate(12 402)"/>
        <g id="그룹_2076" transform="translate(-54.5 230.398)">
            <path id="사각형_1681" d="M0 0H15.368V16.54H0z" class="cls-2" transform="translate(68.859 176.58)"/>
            <path id="사각형_1682" d="M0 0H13.746V2.55H0z" class="cls-3" transform="translate(71.458 182.965)"/>
            <path id="패스_2286" d="M102.964 191.542l-3.784 3.784 1.82 1.814 3.78-3.78z" class="cls-2" transform="translate(-16.729 -9.782)"/>
            <path id="사각형_1683" d="M0 0H11.176V2.55H0z" class="cls-3" transform="translate(71.458 185.518)"/>
            <path id="패스_2287" fill="#73d7ff" d="M97.483 200.43l1.826 1.826-.944.944-1.7-1.7z" transform="translate(-15.362 -14.632)"/>
            <path id="사각형_1684" d="M0 0H8.703V2.55H0z" class="cls-3" transform="translate(71.458 188.074)"/>
            <path id="패스_2288" d="M93.894 203.323l-1.441 1.441-.384 1.812.592.151 1.938-.565 1.12-1.12z" class="cls-2" transform="translate(-12.854 -16.209)"/>
            <path id="패스_2289" d="M82.482 175.754a1.642 1.642 0 0 0-3.2 0H76.5v2.552h8.76v-2.552z" class="cls-3" transform="translate(-4.361 -.474)"/>
            <g id="그룹_2075" transform="translate(68.5 173.602)">
                <g id="그룹_2074">
                    <path id="패스_2290" d="M69.567 193.6a1.068 1.068 0 0 1-1.067-1.067v-15.312a1.068 1.068 0 0 1 1.067-1.067h1.915a.209.209 0 0 0 .21-.21v-.638a.43.43 0 0 1 .429-.429h2.265a.208.208 0 0 0 .181-.1 2.33 2.33 0 0 1 4.043 0 .209.209 0 0 0 .181.1h2.265a.43.43 0 0 1 .429.429v.638a.209.209 0 0 0 .21.21h1.915a1.068 1.068 0 0 1 1.067 1.067v3.829a.429.429 0 0 1-.857 0v-3.829a.21.21 0 0 0-.21-.21h-1.916a.21.21 0 0 0-.21.21v.638a.429.429 0 0 1-.429.429H72.12a.429.429 0 0 1-.429-.429v-.638a.21.21 0 0 0-.21-.21h-1.914a.21.21 0 0 0-.21.21v15.314a.21.21 0 0 0 .21.209h14.042a.21.21 0 0 0 .21-.209v-2.553a.429.429 0 0 1 .857 0v2.553a1.068 1.068 0 0 1-1.067 1.067zm3.191-17.867a.21.21 0 0 0-.21.209v1.276a.21.21 0 0 0 .21.21h7.659a.21.21 0 0 0 .21-.21v-1.276a.21.21 0 0 0-.21-.209h-2.031a.43.43 0 0 1-.4-.285 1.475 1.475 0 0 0-2.787 0 .429.429 0 0 1-.4.285z" class="cls-5" transform="translate(-68.5 -173.602)"/>
                    <path id="패스_2291" d="M74.543 188.5a.428.428 0 1 1 0-.856h10.2a.428.428 0 0 1 0 .856z" class="cls-5" transform="translate(-71.565 -181.259)"/>
                    <path id="패스_2292" d="M74.543 201.761a.429.429 0 0 1-.428-.428v-7.649a.429.429 0 0 1 .428-.428h10.2a.428.428 0 0 1 0 .856h-9.562a.209.209 0 0 0-.209.209v1.279a.209.209 0 0 0 .209.209h7.649a.428.428 0 0 1 0 .856h-7.649a.209.209 0 0 0-.209.209v1.275a.209.209 0 0 0 .209.209h5.737a.428.428 0 1 1 0 .856h-5.737a.209.209 0 0 0-.209.209v1.277a.209.209 0 0 0 .209.209h5.1a.428.428 0 1 1 0 .856z" class="cls-5" transform="translate(-71.565 -184.311)"/>
                    <path id="패스_2293" d="M91.389 200.228a.428.428 0 0 1-.415-.531l.638-2.55a.426.426 0 0 1 .112-.2l6.374-6.374a.429.429 0 0 1 .606 0l1.913 1.912a.429.429 0 0 1 0 .606l-6.375 6.374a.427.427 0 0 1-.2.113l-2.55.638a.42.42 0 0 1-.103.012zm1.913-3.56a.207.207 0 0 0-.148.061l-.7.7a.211.211 0 0 0-.055.1l-.337 1.348a.209.209 0 0 0 .2.26.193.193 0 0 0 .051-.006l1.348-.337a.208.208 0 0 0 .1-.055l.7-.7a.209.209 0 0 0 0-.3l-1.011-1.011a.207.207 0 0 0-.15-.06zm1.275-1.275a.208.208 0 0 0-.148.061l-.374.374a.209.209 0 0 0 0 .3l1.011 1.011a.209.209 0 0 0 .3 0l.373-.373a.209.209 0 0 0 0-.3l-1.011-1.011a.209.209 0 0 0-.151-.062zm3.825-3.825a.207.207 0 0 0-.148.061l-2.923 2.923a.209.209 0 0 0 0 .3l1.011 1.011a.209.209 0 0 0 .3 0l2.923-2.923a.209.209 0 0 0 0-.3l-1.011-1.011a.209.209 0 0 0-.154-.061z" class="cls-5" transform="translate(-80.742 -182.778)"/>
                </g>
                <circle id="타원_211" cx=".454" cy=".454" r=".454" class="cls-5" transform="translate(7.632 1.677)"/>
            </g>
        </g>
    </g>
</svg>
