<svg xmlns="http://www.w3.org/2000/svg" xmlns:xlink="http://www.w3.org/1999/xlink" width="65" height="54" viewBox="0 0 65 54">
    <defs>
        <path id="sl626xb2ca" d="M0 0.172L25.032 0.172 25.032 1.64 0 1.64z"/>
        <path id="ze9r0pkiuc" d="M0.073 0.226L5.643 0.226 5.643 5.479 0.073 5.479z"/>
        <path id="b8wiwb95ke" d="M0.092 0.226L5.662 0.226 5.662 5.479 0.092 5.479z"/>
        <path id="cmjlzqbbmg" d="M0.099 0.325L25.695 0.325 25.695 17.955 0.099 17.955z"/>
        <path id="4eno08cn3i" d="M0 53.211L64.128 53.211 64.128 0.427 0 0.427z"/>
    </defs>
    <g fill="none" fill-rule="evenodd">
        <g>
            <g>
                <g transform="translate(-1156 -1683) translate(1142 1664) translate(14 19)">
                    <path fill="#344154" d="M34.642 32.496h-5.014c-.924 0-1.676-.752-1.676-1.676v-4.242c0-.405.328-.735.733-.735.406 0 .735.33.735.735v4.242c0 .115.093.208.208.208h5.014c.115 0 .209-.093.209-.208v-4.242c0-.405.328-.735.734-.735.405 0 .734.33.734.735v4.242c0 .924-.753 1.676-1.677 1.676"/>
                    <g transform="translate(0 7.041)">
                        <mask id="ueoptj3mrb" fill="#fff">
                            <use xlink:href="#sl626xb2ca"/>
                        </mask>
                        <path fill="#344154" d="M24.298 1.64H.734C.329 1.64 0 1.311 0 .906 0 .501.329.172.734.172h23.564c.405 0 .734.33.734.734 0 .405-.329.734-.734.734" mask="url(#ueoptj3mrb)"/>
                    </g>
                    <path fill="#344154" d="M63.394 8.682H39.83c-.406 0-.734-.33-.734-.734 0-.405.328-.735.734-.735h23.564c.405 0 .734.33.734.735 0 .405-.329.734-.734.734"/>
                    <g transform="translate(9.832 .201)">
                        <mask id="ite3oxnzbd" fill="#fff">
                            <use xlink:href="#ze9r0pkiuc"/>
                        </mask>
                        <path fill="#344154" d="M4.91 5.479c-.406 0-.735-.329-.735-.734V3.01c0-.726-.59-1.317-1.317-1.317-.726 0-1.317.59-1.317 1.317v1.734c0 .405-.329.734-.734.734-.405 0-.734-.329-.734-.734V3.01C.073 1.475 1.322.226 2.858.226s2.785 1.25 2.785 2.785v1.734c0 .405-.329.734-.734.734" mask="url(#ite3oxnzbd)"/>
                    </g>
                    <g transform="translate(48.735 .201)">
                        <mask id="sx7g61awsf" fill="#fff">
                            <use xlink:href="#b8wiwb95ke"/>
                        </mask>
                        <path fill="#344154" d="M4.928 5.479c-.405 0-.734-.329-.734-.734V3.01c0-.726-.591-1.317-1.317-1.317-.727 0-1.317.59-1.317 1.317v1.734c0 .405-.329.734-.734.734-.406 0-.734-.329-.734-.734V3.01C.092 1.475 1.341.226 2.877.226s2.785 1.25 2.785 2.785v1.734c0 .405-.328.734-.734.734" mask="url(#sx7g61awsf)"/>
                    </g>
                    <g transform="translate(19.238 35.256)">
                        <mask id="6vbqnhdrih" fill="#fff">
                            <use xlink:href="#cmjlzqbbmg"/>
                        </mask>
                        <path fill="#344154" d="M1.613 1.794c-.025 0-.045.02-.045.045v14.603c0 .024.02.045.045.045h22.57c.024 0 .044-.02.044-.045V1.839c0-.025-.02-.045-.045-.045H1.613zm22.57 16.161H1.612c-.834 0-1.514-.679-1.514-1.513V1.839C.1 1.005.78.325 1.613.325h22.57c.833 0 1.512.68 1.512 1.514v14.603c0 .834-.679 1.513-1.513 1.513z" mask="url(#6vbqnhdrih)"/>
                    </g>
                    <path fill="#344154" d="M32.135 37.05c-.405 0-.734-.33-.734-.734v-4.554c0-.405.329-.734.734-.734.405 0 .734.329.734.734v4.554c0 .405-.33.734-.734.734M42.102 41.222H40.73c-.792 0-1.437-.644-1.437-1.437v-1.373c0-.405.329-.734.734-.734.405 0 .734.33.734.734v1.373l1.341-.03c.406 0 .734.328.734.733 0 .405-.328.734-.734.734M23.126 25.437h18.05v-2.064c0-2.579 2.098-4.677 4.676-4.677h3.709c1.857 0 3.368-1.511 3.368-3.368V8.682h-2.634v5.67c0 .943-.767 1.71-1.71 1.71H15.718c-.943 0-1.71-.767-1.71-1.71v-5.67h-2.635v6.646c0 1.857 1.512 3.368 3.369 3.368h3.708c2.579 0 4.676 2.098 4.676 4.677v2.064zm19.518 1.468H21.658v-3.532c0-1.77-1.44-3.209-3.208-3.209h-3.708c-2.667 0-4.837-2.17-4.837-4.836V7.214h5.57v7.138c0 .134.109.242.243.242h32.867c.133 0 .242-.108.242-.242V7.214h5.57v8.114c0 2.667-2.17 4.836-4.836 4.836h-3.709c-1.769 0-3.208 1.44-3.208 3.209v3.532z"/>
                    <mask id="7fnfgckckj" fill="#fff">
                        <use xlink:href="#4eno08cn3i"/>
                    </mask>
                    <path fill="#344154" d="M26.813 21.675L28.281 21.675 28.281 20.207 26.813 20.207zM31.401 21.675L32.869 21.675 32.869 20.207 31.401 20.207zM35.988 21.675L37.457 21.675 37.457 20.207 35.988 20.207z" mask="url(#7fnfgckckj)"/>
                    <path fill="#45B4FF" d="M34.078 44.993c-.33 0-.597-.267-.597-.596 0-.742-.604-1.346-1.346-1.346-.33 0-.597-.267-.597-.597 0-.33.267-.597.597-.597 1.4 0 2.54 1.14 2.54 2.54 0 .33-.267.596-.597.596m-1.943-5.45c-2.677 0-4.854 2.178-4.854 4.854s2.177 4.854 4.854 4.854c2.676 0 4.854-2.178 4.854-4.854s-2.178-4.854-4.854-4.854" mask="url(#7fnfgckckj)"/>
                </g>
            </g>
        </g>
    </g>
</svg>
