<svg width="31" height="31" viewBox="0 0 31 31" fill="none" xmlns="http://www.w3.org/2000/svg">
<path fill-rule="evenodd" clip-rule="evenodd" d="M7.91264 17.2255C7.27856 17.2255 6.764 16.7112 6.764 16.0771C6.764 15.4431 7.27856 14.929 7.91264 14.929C8.54672 14.929 9.0608 15.4431 9.0608 16.0771C9.0608 16.7112 8.54672 17.2255 7.91264 17.2255ZM8.30624 13.2967C8.30624 13.2967 7.50944 13.2967 6.78728 14.0002V11.1665H5V18.6111H6.80576V18.0281C6.80576 18.0281 7.23152 18.7971 8.30624 18.7971C8.30624 18.7971 10.8246 18.7044 10.8246 16.0193C10.8246 16.0193 10.7317 13.2967 8.30624 13.2967Z" fill="#D2D8F7"/>
<path fill-rule="evenodd" clip-rule="evenodd" d="M11.3983 11V12.7225C11.3983 12.7225 12.2136 12.6853 12.2136 14.2042V18.6111H13.9361V13.7967C13.9361 13.7967 14.01 11 11.3983 11Z" fill="#D2D8F7"/>
<path fill-rule="evenodd" clip-rule="evenodd" d="M18.1478 17.2256C17.5137 17.2256 16.9994 16.7113 16.9994 16.0772C16.9994 15.4431 17.5137 14.929 18.1478 14.929C18.7818 14.929 19.2959 15.4431 19.2959 16.0772C19.2959 16.7113 18.7818 17.2256 18.1478 17.2256ZM18.1473 13.3201C18.1473 13.3201 15.195 13.3203 15.195 16.0772C15.195 16.0772 15.0995 18.7971 18.1473 18.7971C18.1473 18.7971 21.1677 18.7928 21.1677 16.0772C21.1677 16.0772 21.2661 13.3201 18.1473 13.3201Z" fill="#D2D8F7"/>
<path fill-rule="evenodd" clip-rule="evenodd" d="M25.03 17.2254C24.3957 17.2254 23.8821 16.7111 23.8821 16.077C23.8821 15.4429 24.3957 14.9288 25.03 14.9288C25.6641 14.9288 26.1782 15.4429 26.1782 16.077C26.1782 16.7111 25.6641 17.2254 25.03 17.2254ZM26.098 13.5003V14C26.098 14 25.5844 13.3199 24.5985 13.3199C24.5985 13.3199 22.0706 13.2128 22.0706 16.0583C22.0706 16.0583 22.0427 18.7086 24.5289 18.7086C24.5289 18.7086 25.5429 18.7501 26.098 18.0279V18.4451C26.098 18.4451 26.2238 19.7504 24.9592 19.7504H24.5289V21.3335H25.2232C25.2232 21.3335 27.8342 21.3613 27.8342 18.5418V13.5003H26.098Z" fill="#D2D8F7"/>
</svg>
