<svg xmlns="http://www.w3.org/2000/svg" xmlns:xlink="http://www.w3.org/1999/xlink" width="63" height="51" viewBox="0 0 63 51">
    <defs>
        <path id="7ymrrepl3a" d="M0 0.376L22.57 0.376 22.57 4.887 0 4.887z"/>
    </defs>
    <g fill="none" fill-rule="evenodd">
        <g>
            <g>
                <g>
                    <path fill="#344154" d="M61.344 50.824c-.385 0-.697-.312-.697-.697V39.31c0-.385.312-.697.697-.697.385 0 .696.312.696.697v10.817c0 .385-.311.697-.696.697M17.197 50.824c-.385 0-.696-.312-.696-.697V33.22c0-1.214-.988-2.202-2.202-2.202H8.271c-1.214 0-2.201.988-2.201 2.202v16.907c0 .385-.312.697-.697.697-.384 0-.697-.312-.697-.697V33.22c0-1.982 1.613-3.595 3.595-3.595H14.3c1.982 0 3.595 1.613 3.595 3.595v16.907c0 .385-.312.697-.697.697" transform="translate(-701 -1545) translate(686 1524) translate(15 21)"/>
                    <path fill="#344154" d="M14.514 31.018c-.385 0-.697-.311-.697-.696v-3.229c0-1.397-1.136-2.533-2.532-2.533-1.396 0-2.532 1.136-2.532 2.533v3.229c0 .385-.312.696-.697.696-.385 0-.697-.311-.697-.696v-3.229c0-2.165 1.761-3.926 3.926-3.926s3.926 1.761 3.926 3.926v3.229c0 .385-.312.696-.697.696" transform="translate(-701 -1545) translate(686 1524) translate(15 21)"/>
                    <path fill="#344154" d="M11.285 24.417c-.385 0-.697-.312-.697-.697v-4.27c0-.384.312-.696.697-.696.385 0 .697.312.697.697v4.27c0 .384-.312.696-.697.696M27.061 50.824c-.384 0-.696-.312-.696-.697v-9.562l-4.236-3.961-4.456 4.168c-.281.262-.722.247-.985-.034-.263-.28-.248-.722.033-.984l4.932-4.613c.268-.25.684-.25.952 0l4.932 4.613c.141.131.221.316.221.509v9.864c0 .385-.311.697-.697.697" transform="translate(-701 -1545) translate(686 1524) translate(15 21)"/>
                    <path fill="#344154" d="M36.926 40.96c-.17 0-.341-.063-.475-.189l-4.457-4.168-4.457 4.168c-.28.263-.721.248-.984-.033-.263-.28-.248-.721.032-.985l4.933-4.612c.267-.25.684-.25.952 0l4.932 4.612c.281.264.296.704.033.985-.137.147-.323.221-.51.221" transform="translate(-701 -1545) translate(686 1524) translate(15 21)"/>
                    <path fill="#344154" d="M49.52 50.824c-.385 0-.697-.312-.697-.697V24.561h-11.2v25.566c0 .385-.312.697-.697.697-.384 0-.696-.312-.696-.697V23.864c0-.385.312-.697.696-.697H49.52c.384 0 .696.312.696.697v26.263c0 .385-.312.697-.696.697" transform="translate(-701 -1545) translate(686 1524) translate(15 21)"/>
                    <path fill="#344154" d="M61.344 40.006c-.202 0-.402-.087-.54-.256l-5.765-7.063h-5.52c-.384 0-.696-.312-.696-.697 0-.384.312-.696.696-.696h5.85c.21 0 .408.094.54.256l5.974 7.319c.244.298.2.737-.099.98-.13.106-.285.157-.44.157M11.285 37.598c-.385 0-.697-.312-.697-.697v-1.25c0-.386.312-.698.697-.698.385 0 .697.312.697.697v1.251c0 .385-.312.697-.697.697M11.285 42.047c-.385 0-.697-.312-.697-.697V40.1c0-.385.312-.696.697-.696.385 0 .697.311.697.696v1.251c0 .385-.312.697-.697.697M43.223 39.279c-.385 0-.697-.312-.697-.697V37.33c0-.386.312-.697.697-.697.385 0 .697.311.697.697v1.25c0 .386-.312.698-.697.698M43.223 43.727c-.385 0-.697-.311-.697-.696v-1.252c0-.384.312-.696.697-.696.385 0 .697.312.697.696v1.252c0 .385-.312.696-.697.696M43.223 48.176c-.385 0-.697-.311-.697-.696v-1.251c0-.386.312-.697.697-.697.385 0 .697.311.697.697v1.25c0 .386-.312.697-.697.697M22.13 43.727c-.385 0-.697-.311-.697-.696v-1.252c0-.384.312-.696.696-.696.385 0 .697.312.697.696v1.252c0 .385-.312.696-.697.696M22.13 48.176c-.385 0-.697-.311-.697-.696v-1.251c0-.386.312-.697.696-.697.385 0 .697.311.697.697v1.25c0 .386-.312.697-.697.697M31.994 43.727c-.385 0-.697-.311-.697-.696v-1.252c0-.384.312-.696.697-.696.385 0 .697.312.697.696v1.252c0 .385-.312.696-.697.696M31.994 48.176c-.385 0-.697-.311-.697-.696v-1.251c0-.386.312-.697.697-.697.385 0 .697.311.697.697v1.25c0 .386-.312.697-.697.697M54.724 43.727c-.384 0-.696-.311-.696-.696v-1.252c0-.384.312-.696.696-.696.385 0 .697.312.697.696v1.252c0 .385-.312.696-.697.696M54.724 39.279c-.384 0-.696-.312-.696-.697V37.33c0-.386.312-.697.696-.697.385 0 .697.311.697.697v1.25c0 .386-.312.698-.697.698M54.724 48.176c-.384 0-.696-.311-.696-.696v-1.251c0-.386.312-.697.696-.697.385 0 .697.311.697.697v1.25c0 .386-.312.697-.697.697M4.282 9.371c-.23 0-.454-.113-.587-.32-.208-.323-.114-.755.21-.963 2.212-1.42 4.764-2.172 7.38-2.172 2.616 0 5.168.751 7.38 2.172.324.208.418.64.21.963-.208.324-.64.417-.963.21-1.987-1.277-4.278-1.951-6.627-1.951s-4.64.674-6.627 1.951c-.117.075-.247.11-.376.11" transform="translate(-701 -1545) translate(686 1524) translate(15 21)"/>
                    <g transform="translate(-701 -1545) translate(686 1524) translate(15 21) translate(0 .024)">
                        <mask id="ttitk3ow5b" fill="#fff">
                            <use xlink:href="#7ymrrepl3a"/>
                        </mask>
                        <path fill="#344154" d="M.697 4.887c-.229 0-.453-.113-.586-.32-.208-.324-.114-.755.21-.963C3.605 1.493 7.397.377 11.284.376c3.887 0 7.679 1.117 10.965 3.228.323.208.417.64.21.963-.209.324-.64.417-.963.21-3.062-1.968-6.592-3.008-10.212-3.008S4.135 2.81 1.073 4.777c-.116.074-.247.11-.376.11" mask="url(#ttitk3ow5b)"/>
                    </g>
                    <path fill="#344154" d="M14.133 13.229c-.129 0-.26-.036-.376-.11-.742-.478-1.596-.73-2.472-.73-.876 0-1.73.252-2.472.73-.323.206-.755.113-.962-.21-.209-.324-.114-.756.209-.964.966-.62 2.081-.949 3.225-.949 1.143 0 2.258.329 3.225.95.324.207.417.639.21.962-.133.207-.358.32-.587.32M11.284 15.55c-.104 0-.206.042-.28.116-.075.075-.118.177-.118.282 0 .22.18.399.4.399.219 0 .398-.179.398-.399 0-.22-.18-.398-.399-.398zm.002 1.393h-.002c-.548 0-.994-.447-.994-.995s.446-.994.995-.994c.548 0 .995.446.995.994 0 .266-.104.516-.292.704-.188.188-.437.29-.702.29z" transform="translate(-701 -1545) translate(686 1524) translate(15 21)"/>
                    <path fill="#45B4FF" d="M46.733 32.991v-6.34h-7.02v6.34c1.059-.688 2.25-1.076 3.51-1.076 1.26 0 2.451.388 3.51 1.076" transform="translate(-701 -1545) translate(686 1524) translate(15 21)"/>
                </g>
            </g>
        </g>
    </g>
</svg>
