<?xml version="1.0" encoding="utf-8"?>
<!-- Generator: Adobe Illustrator 24.3.0, SVG Export Plug-In . SVG Version: 6.00 Build 0)  -->
<svg version="1.1" id="Capa_1" xmlns="http://www.w3.org/2000/svg" xmlns:xlink="http://www.w3.org/1999/xlink" x="0px" y="0px"
	 viewBox="0 0 438.5 438.5" style="enable-background:new 0 0 438.5 438.5;" xml:space="preserve">
<style type="text/css">
	.st0{fill:#FFFFFF;}
</style>
<g>
	<g>
		<path class="st0" d="M431.2,230.8c-23.6-75.8-98.3-127.5-187.9-129V13.2c0-4.1-3.6-7.7-7.7-7.7C234,5.5,232.5,6,231,7L3.1,171.9
			c-3.6,2.6-4.1,7.2-1.5,10.8c0.5,0.5,1,1,1.5,1.5L231,348c3.6,2.6,8.2,1.5,10.8-1.5c1-1.5,1.5-3.1,1.5-4.6v-88.1
			c55.3,0,101.9,26.1,118.3,65.5c13.8,33.8,2.6,70.1-30.2,100.4c-3.1,3.1-3.6,7.7-0.5,10.8c1.5,1.5,3.6,2.6,5.6,2.6h6.1
			c1.5,0,3.1-0.5,4.1-1.5C422,381.8,454.2,304.5,431.2,230.8z"/>
	</g>
</g>
</svg>
