<svg xmlns="http://www.w3.org/2000/svg" xmlns:xlink="http://www.w3.org/1999/xlink" width="63" height="53" viewBox="0 0 63 53">
    <defs>
        <path id="3o87vzl6aa" d="M0 0.159L49.683 0.159 49.683 19.695 0 19.695z"/>
        <path id="cabtz3evpc" d="M0 51.443L62.65 51.443 62.65 0.307 0 0.307z"/>
    </defs>
    <g fill="none" fill-rule="evenodd">
        <g>
            <g>
                <g>
                    <path fill="#45B4FF" d="M18.087 41.046L31.597 41.046 31.597 37.668 18.087 37.668z" transform="translate(-1157 -1543) translate(1142 1523) translate(15 20)"/>
                    <g transform="translate(-1157 -1543) translate(1142 1523) translate(15 20) translate(0 .144)">
                        <g transform="translate(0 5.415)">
                            <mask id="90pmdqc2pb" fill="#fff">
                                <use xlink:href="#3o87vzl6aa"/>
                            </mask>
                            <path fill="#344154" d="M49.006 19.695c-.141 0-.284-.045-.406-.137L24.841 1.683 1.083 19.558c-.297.225-.722.165-.947-.134-.225-.298-.165-.722.134-.947L24.435.296c.24-.182.572-.182.813 0l24.165 18.181c.299.225.359.649.134.947-.132.178-.335.27-.54.27" mask="url(#90pmdqc2pb)"/>
                        </g>
                        <path fill="#344154" d="M5.21 51.443c-.373 0-.677-.304-.677-.677V21.022c0-.374.304-.677.677-.677.374 0 .677.303.677.677v29.744c0 .373-.303.677-.677.677M44.473 42.607c-.374 0-.677-.303-.677-.676V21.02c0-.373.303-.676.677-.676.373 0 .676.303.676.677V41.93c0 .373-.303.676-.676.676"/>
                        <mask id="25rr3k1hbd" fill="#fff">
                            <use xlink:href="#cabtz3evpc"/>
                        </mask>
                        <path fill="#344154" d="M18.763 40.225H30.92V28.068H18.763v12.157zm-1.353 1.354h14.864V26.714H17.41V41.58z" mask="url(#25rr3k1hbd)"/>
                        <path fill="#344154" d="M24.841 34.823c-.373 0-.676-.303-.676-.677v-6.755c0-.374.303-.677.676-.677.374 0 .677.303.677.677v6.755c0 .374-.303.677-.677.677" mask="url(#25rr3k1hbd)"/>
                        <path fill="#344154" d="M31.597 34.918h-13.51c-.375 0-.677-.304-.677-.677 0-.374.302-.677.677-.677h13.51c.374 0 .677.303.677.677 0 .373-.303.677-.677.677M29.165 51.443H5.21c-.373 0-.677-.304-.677-.677 0-.374.304-.677.677-.677h23.955c.374 0 .677.303.677.677 0 .373-.303.677-.677.677M34.074 19.973c-.142 0-.285-.045-.406-.137l-8.827-6.64-8.826 6.64c-.298.226-.723.166-.947-.134-.224-.298-.164-.722.134-.947l9.233-6.946c.24-.182.572-.182.813 0l9.233 6.946c.299.225.359.65.134.947-.133.178-.336.27-.541.27M32.51 49.437c-.387 0-.724-.05-1.013-.151-.287-.1-.529-.241-.723-.422-.195-.18-.342-.395-.443-.645-.101-.25-.156-.525-.166-.823h.979c.016.191.063.358.14.5.077.14.175.257.294.35.118.092.254.16.407.204.153.044.316.066.489.066.163 0 .313-.017.448-.05s.25-.08.347-.14c.096-.06.17-.135.223-.223.051-.087.078-.186.078-.295 0-.111-.026-.206-.077-.284-.051-.079-.133-.148-.247-.21-.114-.062-.264-.119-.449-.17-.184-.05-.412-.103-.682-.158-.309-.068-.574-.149-.797-.24-.223-.09-.406-.199-.55-.324-.143-.124-.25-.267-.318-.43-.069-.162-.103-.35-.103-.56 0-.228.048-.437.142-.628.095-.19.23-.356.404-.495.174-.138.382-.246.624-.325.242-.078.511-.117.808-.117.307 0 .589.042.844.127.255.083.475.204.66.361.185.159.33.352.436.58.105.23.161.489.169.778h-.968c-.071-.614-.442-.921-1.113-.921-.327 0-.578.054-.75.165-.174.11-.26.261-.26.454 0 .078.019.146.057.204.037.058.098.111.18.16.084.049.19.094.32.134.131.04.29.079.474.117.162.033.327.07.497.11.17.04.335.09.497.146.163.057.316.126.46.208.143.082.27.18.378.297.11.117.195.253.258.41.063.159.094.343.094.554 0 .249-.05.477-.153.683-.102.206-.243.384-.425.532-.181.148-.398.264-.65.347-.25.082-.524.124-.82.124M42.211 49.352L41.233 49.352 41.233 45.894 40.07 49.352 39.224 49.352 38.067 45.894 38.067 49.352 37.093 49.352 37.093 43.952 38.402 43.952 39.651 47.801 40.906 43.952 42.211 43.952zM47.546 46.95l-.654-1.71-.62 1.71h1.274zm2.027 2.402H48.45l-.59-1.544H45.97l-.562 1.544h-1.067l2.074-5.4h.96l2.198 5.4zM52.656 46.254h1.341c.18 0 .335-.013.464-.038.13-.025.235-.066.317-.122.081-.057.141-.132.18-.225.037-.092.056-.205.056-.337 0-.24-.074-.416-.224-.529-.15-.113-.38-.17-.69-.17h-1.444v1.42zm3.635 3.098h-1.085l-.515-1.47c-.038-.1-.088-.195-.15-.28-.062-.085-.133-.159-.215-.221-.082-.062-.173-.11-.272-.146-.1-.035-.205-.053-.317-.053h-1.081v2.17H51.65v-5.4h2.418c.145 0 .282.003.413.01.13.005.255.02.375.045.12.025.235.062.345.11.11.05.215.116.315.202.087.075.165.16.23.254.067.093.122.192.167.297.043.104.077.213.099.325.022.113.034.225.034.337 0 .329-.08.612-.239.847-.158.237-.378.417-.658.543.23.176.417.453.562.832l.58 1.598zM62.65 44.88L60.971 44.88 60.971 49.352 59.96 49.352 59.96 44.88 58.289 44.88 58.289 43.952 62.65 43.952z" mask="url(#25rr3k1hbd)"/>
                        <path fill="#45B4FF" d="M42.854 11.533c0-.597-.503-1.081-1.124-1.081-.621 0-1.125.484-1.125 1.08 0 .598.504 1.082 1.125 1.082.62 0 1.124-.484 1.124-1.081" mask="url(#25rr3k1hbd)"/>
                        <path fill="#344154" d="M39.179 9.078l-1-.953c.945-.916 2.205-1.42 3.548-1.42 1.344 0 2.606.502 3.553 1.413l-.996.957c-.68-.655-1.589-1.016-2.557-1.016-.964 0-1.87.362-2.548 1.02" mask="url(#25rr3k1hbd)"/>
                        <path fill="#344154" d="M46.572 6.875c-1.293-1.245-3.014-1.93-4.844-1.93-1.831 0-3.551.685-4.845 1.93l-.995-.958c1.559-1.5 3.633-2.325 5.84-2.325 2.206 0 4.28.826 5.84 2.325l-.996.958z" mask="url(#25rr3k1hbd)"/>
                        <path fill="#344154" d="M48.99 4.55c-1.943-1.863-4.522-2.889-7.263-2.889-2.739 0-5.318 1.026-7.261 2.89l-.995-.959C35.68 1.474 38.613.307 41.727.307c3.116 0 6.049 1.167 8.258 3.285l-.995.959z" mask="url(#25rr3k1hbd)"/>
                    </g>
                </g>
            </g>
        </g>
    </g>
</svg>
