<?xml version="1.0" encoding="utf-8"?>
<!-- Generator: Adobe Illustrator 24.3.0, SVG Export Plug-In . SVG Version: 6.00 Build 0)  -->
<svg version="1.1" id="Capa_1" xmlns="http://www.w3.org/2000/svg" xmlns:xlink="http://www.w3.org/1999/xlink" x="0px" y="0px"
	 viewBox="0 0 28.3 28.3" style="enable-background:new 0 0 28.3 28.3;" xml:space="preserve">
<style type="text/css">
	.st0{fill:#FFFFFF;}
</style>
<g>
	<path class="st0" d="M14.1,28.3c-7.1,0-12.8-5.8-12.8-12.8c0-7.1,5.7-12.8,12.8-12.8c0.5,0,0.9,0,1.4,0.1V0.7
		c0-0.3,0.2-0.5,0.4-0.6c0.3-0.1,0.5,0,0.7,0.1l4.5,4.5c0.3,0.3,0.3,0.7,0,0.9l-4.5,4.6c-0.2,0.2-0.5,0.2-0.7,0.1
		c-0.2-0.1-0.4-0.3-0.4-0.6V7.5c-0.5-0.1-0.9-0.1-1.4-0.1C9.7,7.3,6,11,6,15.5c0,4.5,3.6,8.1,8.1,8.1s8.1-3.6,8.1-8.1
		c0-0.4,0.3-0.7,0.7-0.7h3.4c0.4,0,0.7,0.3,0.7,0.7C26.9,22.5,21.2,28.3,14.1,28.3z"/>
</g>
</svg>
