<?xml version="1.0" encoding="utf-8"?>
<!-- Generator: Adobe Illustrator 24.3.0, SVG Export Plug-In . SVG Version: 6.00 Build 0)  -->
<svg version="1.1" id="레이어_1" xmlns="http://www.w3.org/2000/svg" xmlns:xlink="http://www.w3.org/1999/xlink" x="0px"
	 y="0px" viewBox="0 0 20 20" style="enable-background:new 0 0 20 20;" xml:space="preserve">
<style type="text/css">
	.st0{fill:#3E5366;}
</style>
<g id="ico_lang" transform="translate(-28.224 -28.225)">
	<path id="패스_15" class="st0" d="M33.7,42.4c1.3-0.4,2.7-0.7,4.1-0.7v-3H33C33.1,40,33.3,41.2,33.7,42.4z"/>
	<path id="패스_16" class="st0" d="M33.1,37.2c0,0.2,0,0.4,0,0.6h4.7v-3c-1.4,0-2.7-0.3-4-0.7C33.4,35.1,33.2,36.1,33.1,37.2z"/>
	<path id="패스_17" class="st0" d="M34,33.1c1.2,0.4,2.4,0.6,3.7,0.6v-5.5h-0.1C36.1,29.6,34.8,31.3,34,33.1z"/>
	<path id="패스_18" class="st0" d="M36.1,46.8c0.4,0.5,0.9,1,1.3,1.4l0.2,0v-5.5c-1.3,0-2.5,0.3-3.7,0.7
		C34.5,44.6,35.3,45.8,36.1,46.8z"/>
	<path id="패스_19" class="st0" d="M32.1,37.1c0.1-1.1,0.3-2.3,0.7-3.3c-0.9-0.4-1.8-0.8-2.6-1.4c-1.1,1.6-1.8,3.4-1.9,5.4H32
		C32,37.5,32.1,37.3,32.1,37.1z"/>
	<path id="패스_20" class="st0" d="M33.1,43.7c-0.8,0.3-1.6,0.7-2.3,1.2c1.3,1.5,3.1,2.6,5.1,3.1c-0.1-0.2-0.3-0.3-0.4-0.5
		C34.4,46.3,33.6,45,33.1,43.7z"/>
	<path id="패스_21" class="st0" d="M35.9,28.5c-1.8,0.4-3.5,1.4-4.8,2.7c-0.1,0.1-0.3,0.3-0.4,0.4c0.8,0.5,1.5,0.9,2.4,1.2
		C33.8,31.2,34.7,29.7,35.9,28.5z"/>
	<path id="패스_22" class="st0" d="M43.3,32.8c0.8-0.3,1.6-0.7,2.4-1.2c-1.4-1.5-3.2-2.6-5.2-3.1c0.2,0.2,0.4,0.4,0.5,0.6
		C42,30.2,42.8,31.5,43.3,32.8z"/>
	<path id="패스_23" class="st0" d="M32,38.7h-3.8c0.1,1.9,0.8,3.8,1.9,5.4c0.8-0.5,1.7-1,2.6-1.4C32.3,41.4,32.1,40.1,32,38.7z"/>
	<path id="패스_24" class="st0" d="M44.4,37.7h3.8c-0.1-1.9-0.8-3.8-1.9-5.4c-0.8,0.5-1.7,1-2.6,1.4C44.1,35,44.4,36.4,44.4,37.7z
		"/>
	<path id="패스_25" class="st0" d="M40.7,47.9c1.8-0.4,3.4-1.4,4.7-2.7c0.1-0.1,0.3-0.3,0.4-0.4c-0.7-0.5-1.5-0.9-2.3-1.2
		C42.7,45.2,41.8,46.7,40.7,47.9z"/>
	<path id="패스_26" class="st0" d="M44.4,39.5c-0.1,1.1-0.3,2.2-0.7,3.3c0.9,0.4,1.8,0.8,2.6,1.4c1.1-1.6,1.8-3.4,1.9-5.4h-3.8
		C44.4,39,44.4,39.2,44.4,39.5z"/>
	<path id="패스_27" class="st0" d="M40.3,29.7c-0.5-0.5-1-1-1.5-1.5h-0.1v5.5c1.3,0,2.5-0.3,3.7-0.6
		C41.9,31.9,41.2,30.8,40.3,29.7z"/>
	<path id="패스_28" class="st0" d="M42.8,34.1c-1.3,0.4-2.7,0.7-4,0.7v3h4.7C43.4,36.5,43.1,35.3,42.8,34.1z"/>
	<path id="패스_29" class="st0" d="M43.4,38.7h-4.7v3c1.4,0,2.7,0.3,4.1,0.7C43.2,41.2,43.4,40,43.4,38.7z"/>
	<path id="패스_30" class="st0" d="M38.7,42.7v5.5l0.2,0c1.5-1.3,2.7-3,3.5-4.9C41.2,42.9,40,42.7,38.7,42.7z"/>
</g>
</svg>
