<svg xmlns="http://www.w3.org/2000/svg" xmlns:xlink="http://www.w3.org/1999/xlink" width="44" height="43" viewBox="0 0 44 43">
    <defs>
        <path id="jnq65v6aaa" d="M0 0L8.329 0 8.329 1.969 0 1.969z"/>
        <path id="xbi41ldsnc" d="M0 0L8.329 0 8.329 1.969 0 1.969z"/>
        <path id="f3k9ydqgie" d="M0 0L22.249 0 22.249 32.302 0 32.302z"/>
    </defs>
    <g fill="none" fill-rule="evenodd">
        <g>
            <g>
                <g>
                    <g>
                        <path fill="#9B7149" d="M26.852 9.324c-.034 0-.069-.006-.103-.019-.156-.056-.236-.23-.18-.386l2.684-7.389c.057-.157.23-.237.386-.18.156.057.237.23.18.386l-2.684 7.39c-.045.122-.16.198-.283.198M7.837 39.6c-.068 0-.137-.023-.193-.07-.128-.108-.145-.298-.038-.426l5.044-6.023c.106-.128.297-.145.424-.038.127.108.144.298.037.425l-5.043 6.024c-.06.07-.145.108-.231.108M31.12 11.793c-.07 0-.138-.023-.194-.07-.128-.108-.144-.298-.037-.426l5.043-6.023c.107-.128.297-.145.424-.037.127.107.144.297.037.424l-5.043 6.024c-.06.07-.145.108-.23.108M2.918 33.725c-.104 0-.205-.054-.26-.15-.084-.145-.034-.33.11-.413l6.795-3.932c.144-.083.328-.034.41.11.084.145.035.33-.11.413L3.07 33.685c-.048.027-.1.04-.15.04M34.287 15.575c-.104 0-.205-.054-.261-.15-.083-.145-.034-.33.11-.412l6.795-3.932c.144-.083.328-.034.411.11.083.145.034.33-.11.412l-6.795 3.932c-.047.027-.1.04-.15.04" transform="translate(-565 -3799) translate(0 3369) translate(541 422) translate(24 8)"/>
                        <g transform="translate(-565 -3799) translate(0 3369) translate(541 422) translate(24 8) translate(0 24.55)">
                            <mask id="41gdv7cn4b" fill="#fff">
                                <use xlink:href="#jnq65v6aaa"/>
                            </mask>
                            <path fill="#9B7149" d="M.3 1.969c-.143 0-.27-.103-.296-.25-.028-.164.081-.32.245-.35L7.976.005c.162-.027.32.081.348.245.03.164-.08.32-.244.35L.353 1.964c-.017.003-.035.005-.052.005" mask="url(#41gdv7cn4b)"/>
                        </g>
                        <path fill="#9B7149" d="M35.971 20.215c-.143 0-.27-.103-.296-.249-.028-.164.08-.32.244-.35l7.728-1.365c.162-.028.32.08.348.245.03.164-.08.32-.244.35l-7.727 1.365c-.018.003-.035.004-.053.004M8.028 20.215c-.017 0-.035-.001-.052-.004L.249 18.846c-.164-.03-.273-.186-.244-.35.029-.164.184-.273.348-.245l7.727 1.366c.164.029.273.185.245.35-.026.145-.153.248-.297.248" transform="translate(-565 -3799) translate(0 3369) translate(541 422) translate(24 8)"/>
                        <g transform="translate(-565 -3799) translate(0 3369) translate(541 422) translate(24 8) translate(35.67 24.55)">
                            <mask id="l9s21ibtwd" fill="#fff">
                                <use xlink:href="#xbi41ldsnc"/>
                            </mask>
                            <path fill="#9B7149" d="M8.029 1.969c-.018 0-.035-.002-.053-.005L.249.6C.085.569-.024.413.005.249.034.085.189-.024.353.004L8.081 1.37c.163.029.272.185.244.35-.026.146-.153.249-.296.249" mask="url(#l9s21ibtwd)"/>
                        </g>
                        <path fill="#9B7149" d="M9.713 15.575c-.051 0-.103-.013-.15-.04l-6.795-3.932c-.144-.083-.194-.267-.11-.412.082-.144.267-.193.41-.11l6.796 3.932c.144.083.193.267.11.412-.056.096-.157.15-.26.15M41.081 33.725c-.05 0-.102-.013-.15-.04l-6.795-3.932c-.144-.083-.193-.268-.11-.412.083-.145.267-.194.411-.11l6.795 3.931c.144.083.193.268.11.412-.055.097-.157.151-.26.151M12.88 11.793c-.085 0-.17-.037-.23-.108L7.606 5.66c-.106-.127-.09-.317.037-.424.128-.108.318-.09.425.037l5.043 6.023c.107.128.09.318-.037.425-.056.048-.125.07-.193.07M36.163 39.6c-.086 0-.171-.037-.23-.108l-5.044-6.024c-.107-.127-.09-.317.037-.425.127-.107.317-.09.424.038l5.043 6.023c.107.128.09.318-.037.425-.056.048-.125.07-.193.07M17.148 9.324c-.123 0-.239-.076-.283-.199L14.18 1.736c-.057-.156.024-.33.18-.386.156-.057.329.023.386.18l2.683 7.389c.057.157-.023.33-.18.386-.033.013-.068.019-.102.019M22 8.466c-.166 0-.301-.135-.301-.301V.302c0-.167.135-.302.301-.302.166 0 .301.135.301.302v7.863c0 .166-.135.301-.301.301M12.751 38.738c-.051 0-.103-.013-.15-.04-.144-.084-.193-.268-.11-.412l2.154-3.741c.083-.144.268-.193.412-.11.144.083.193.267.11.412l-2.155 3.74c-.056.097-.157.151-.26.151M29.093 10.371c-.05 0-.102-.013-.15-.04-.144-.083-.193-.268-.11-.412l2.155-3.74c.083-.145.267-.194.41-.111.145.083.194.268.111.412l-2.155 3.74c-.055.097-.157.151-.26.151M7.83 34.6c-.086 0-.171-.037-.23-.108-.107-.128-.09-.318.037-.425l3.301-2.776c.128-.107.318-.09.425.037.106.128.09.318-.038.425L8.024 34.53c-.057.048-.125.07-.194.07M32.868 13.545c-.086 0-.171-.037-.23-.107-.108-.128-.09-.318.037-.425l3.301-2.777c.127-.107.317-.09.424.037.107.128.09.318-.037.425l-3.302 2.777c-.056.047-.125.07-.193.07M4.618 29.025c-.123 0-.238-.076-.283-.199-.057-.157.024-.33.18-.386l4.05-1.478c.156-.056.33.024.386.18.057.157-.024.33-.18.387l-4.05 1.477c-.034.013-.069.019-.103.019M35.332 17.821c-.123 0-.239-.076-.283-.198-.057-.157.024-.33.18-.386l4.05-1.478c.156-.056.329.024.385.18.057.157-.023.33-.18.387l-4.05 1.477c-.033.013-.068.018-.102.018M7.812 22.684h-4.31c-.166 0-.3-.135-.3-.301 0-.167.134-.302.3-.302h4.31c.167 0 .301.135.301.302 0 .166-.134.301-.3.301M40.497 22.684h-4.31c-.166 0-.3-.135-.3-.301 0-.167.134-.302.3-.302h4.31c.166 0 .301.135.301.302 0 .166-.135.301-.3.301M8.668 17.821c-.034 0-.069-.005-.103-.018l-4.05-1.477c-.156-.057-.236-.23-.18-.386.057-.157.23-.237.386-.18l4.05 1.477c.156.056.237.23.18.386-.045.122-.16.198-.283.198M39.382 29.025c-.035 0-.07-.006-.103-.019l-4.05-1.477c-.157-.057-.237-.23-.18-.386.057-.157.23-.238.385-.18l4.05 1.477c.157.057.237.23.18.386-.044.123-.16.199-.282.199M11.132 13.545c-.069 0-.137-.023-.194-.07l-3.301-2.777c-.128-.107-.144-.297-.038-.425.107-.127.297-.144.425-.037l3.301 2.777c.128.107.144.297.037.425-.059.07-.144.107-.23.107M36.17 34.6c-.069 0-.137-.023-.194-.07l-3.301-2.777c-.128-.107-.144-.297-.038-.425.107-.127.297-.144.424-.037l3.302 2.776c.128.107.144.297.037.425-.06.071-.144.108-.23.108M14.906 10.371c-.104 0-.205-.054-.26-.15L12.49 6.48c-.083-.144-.034-.329.11-.412.144-.083.328-.034.411.11l2.155 3.74c.083.145.034.33-.11.413-.048.027-.1.04-.15.04M31.249 38.738c-.104 0-.205-.054-.261-.15l-2.155-3.741c-.083-.145-.034-.329.11-.412.144-.083.328-.034.411.11l2.155 3.74c.083.145.034.33-.11.413-.047.027-.1.04-.15.04M19.536 8.682c-.143 0-.27-.103-.296-.249L18.49 4.18c-.029-.165.08-.32.245-.35.162-.028.32.08.348.245l.749 4.253c.029.165-.08.32-.244.35-.018.003-.036.004-.053.004M24.464 8.682c-.018 0-.035-.001-.053-.004-.163-.03-.273-.185-.244-.35l.748-4.253c.03-.164.187-.273.35-.245.163.03.272.185.243.35l-.748 4.253c-.026.146-.153.25-.296.25" transform="translate(-565 -3799) translate(0 3369) translate(541 422) translate(24 8)"/>
                        <g transform="translate(-565 -3799) translate(0 3369) translate(541 422) translate(24 8) translate(10.876 10.698)">
                            <mask id="yqqunqlt3f" fill="#fff">
                                <use xlink:href="#f3k9ydqgie"/>
                            </mask>
                            <path fill="#9B7149" d="M18.546 30.616V31.7H3.749v-1.083h14.797zm-11.76-3.76h8.677v3.157H6.786v-3.156zm3.635-8.902l.704-.37.703.37v8.3H10.42v-8.3zm-4.27-4.295l4.182-1.358-5.17 7.13.989-5.772zM1.8 9.015l8.349 2.712-4.182 1.358-4.167-4.07zm14.484 4.07L12.1 11.727l8.35-2.713-4.167 4.071zm.802 6.346l-5.169-7.13 4.181 1.358.988 5.772zm-5.66-6.78l5.173 7.135-5.172-2.726v-4.41zm-.601 4.41L5.65 19.785l5.173-7.135v4.41zm-.483-5.906l-8.4-2.728 5.81-.846 2.59 3.574zm.483-.361L8.237 7.226l2.587-5.252v8.82zm.602 0v-8.82l2.586 5.252-2.586 3.568zm3.073-3.213l5.808.846-8.4 2.728L14.5 7.581zm1.566 18.672H12.43v-7.982L18 21.206l-1.314-7.673L22.25 8.1l-7.687-1.12L11.125 0 7.687 6.98 0 8.1l5.562 5.433-1.313 7.673 5.57-2.935v7.982H6.184v3.76H3.147v2.29h16v-2.29h-3.082v-3.76z" mask="url(#yqqunqlt3f)"/>
                        </g>
                    </g>
                </g>
            </g>
        </g>
    </g>
</svg>
