<svg xmlns="http://www.w3.org/2000/svg" width="15" height="15" viewBox="0 0 15 15">
    <g opacity="0.9" transform="translate(-1050 -447)">
        <circle cx="7.5" cy="7.5" r="7.5" fill="#f44e81" transform="translate(1050 447)"/>
        <path fill="#fff" d="M607.667 255.235l2.185-2.185a.543.543 0 0 0 0-.767.543.543 0 0 0-.767 0l-2.185 2.185-2.185-2.185a.543.543 0 0 0-.767 0 .543.543 0 0 0 0 .767l2.185 2.185-2.185 2.185a.543.543 0 0 0 0 .767.543.543 0 0 0 .767 0L606.9 256l2.185 2.185a.543.543 0 1 0 .767-.767z" transform="translate(450.601 199.876)"/>
    </g>
</svg>
