<?xml version="1.0" encoding="UTF-8"?>
<svg width="30px" height="44px" viewBox="0 0 30 44" version="1.1" xmlns="http://www.w3.org/2000/svg" xmlns:xlink="http://www.w3.org/1999/xlink">
    <title>Group 8</title>
    <defs>
        <polygon id="path-1" points="0 0 17.1887669 0 17.1887669 44 0 44"></polygon>
    </defs>
    <g id="Page-1" stroke="none" stroke-width="1" fill="none" fill-rule="evenodd">
        <g id="실신-배회-침입-차량" transform="translate(-1704.000000, -1696.000000)">
            <g id="Group-8" transform="translate(1704.000000, 1696.000000)">
                <path d="M17.0460851,24.6985455 C16.9796649,24.6969286 16.9132447,24.6945033 16.8472296,24.6904611 C16.8391296,24.6900569 16.8318396,24.6900569 16.8237395,24.6896526 C16.7508394,24.6852062 16.6775342,24.6787387 16.604634,24.671867 C16.581549,24.6694417 16.5580589,24.6666122 16.5345689,24.6637826 C16.4912338,24.658932 16.4470887,24.6540814 16.4037535,24.6480181 C16.3786435,24.6443801 16.3535334,24.6407421 16.3284234,24.6375084 C16.2850883,24.6310409 16.2425632,24.623765 16.1996331,24.6168932 C16.175333,24.612851 16.150628,24.6084046 16.1263279,24.6043624 C16.0862328,24.5966823 16.0461377,24.5890021 16.0060426,24.5805135 C15.9825526,24.5756629 15.9586575,24.5716207 15.9351674,24.5663659 C15.8894023,24.5558562 15.8432322,24.5453465 15.7974671,24.5344326 C15.7804571,24.5299862 15.763447,24.5263482 15.746437,24.5219018 C15.6852819,24.5065415 15.6237217,24.4903727 15.5633766,24.4729913 C15.5564916,24.4713744 15.5500115,24.4689491 15.5431265,24.4673322 C15.4892614,24.4515677 15.4353963,24.4353989 15.3819361,24.4184217 C15.3584461,24.4107416 15.335361,24.4026572 15.312276,24.394977 C15.2766359,24.3832547 15.2409958,24.3711281 15.2057607,24.3585973 C15.1814607,24.3501087 15.1567556,24.3408117 15.1316456,24.3319189 C15.0984355,24.3197923 15.0644154,24.3068573 15.0312053,24.2943265 C15.0056903,24.284221 14.9797702,24.2737113 14.9542551,24.2632017 C14.9226651,24.2506709 14.89148,24.2377359 14.8602949,24.2248009 C14.8339699,24.2138869 14.8084548,24.2021646 14.7825347,24.1912507 C14.7521597,24.1775072 14.7213796,24.164168 14.6910045,24.1504246 C14.6646795,24.138298 14.6387594,24.1257672 14.6124343,24.1136406 C14.5828693,24.099493 14.5533042,24.0853453 14.5233341,24.0707934 C14.4974141,24.0578584 14.471899,24.0449234 14.4459789,24.0319884 C14.4168189,24.0166281 14.3876588,24.001672 14.3580937,23.9863117 C14.3329837,23.9729725 14.3070636,23.9588248 14.2815486,23.9450813 C14.2527935,23.9293168 14.2232284,23.913148 14.1940684,23.8965751 C14.1689583,23.8820232 14.1438482,23.8674713 14.1183332,23.8529194 C14.0899831,23.8359422 14.061228,23.818965 14.032878,23.8019878 C14.0077679,23.7870317 13.9834679,23.7720756 13.9587628,23.7567153 C13.9291977,23.7385255 13.8996327,23.7195272 13.8700676,23.7005289 C13.8465775,23.6851686 13.8222775,23.6698082 13.7983824,23.6540437 C13.7688174,23.6346412 13.7396573,23.6144302 13.7104972,23.5950277 C13.6874122,23.578859 13.6639221,23.5630944 13.6412421,23.5469257 C13.610867,23.5255021 13.5796819,23.50327 13.5493068,23.481038 C13.5274368,23.4652735 13.5055667,23.4495089 13.4836967,23.4333402 C13.4525116,23.4098955 13.4217315,23.3864508 13.3909515,23.3626018 C13.3702964,23.3468373 13.3496414,23.331477 13.3293913,23.3153082 C13.2901062,23.2841834 13.2508211,23.2526543 13.211536,23.220721 C13.198981,23.2098071 13.186021,23.1997016 13.173061,23.1891919 C13.1216258,23.1459405 13.0701907,23.1022848 13.0195656,23.0574165 C13.0098456,23.0493322 13.0009356,23.0404393 12.9912155,23.032355 C12.9478804,22.9939542 12.9049503,22.9551492 12.8628302,22.9155357 C12.8454152,22.8993669 12.8280001,22.882794 12.8105851,22.866221 C12.775755,22.8334793 12.7417349,22.8003333 12.7077149,22.7667831 C12.6898948,22.7494017 12.6720748,22.7320203 12.6546597,22.7142347 C12.6149696,22.6738128 12.5748746,22.6333909 12.5355895,22.5917563 C12.5222244,22.5780129 12.5088594,22.5642694 12.4958994,22.550526 C12.4444642,22.4955522 12.3934341,22.4401742 12.343214,22.3835836 C12.334709,22.3738823 12.326609,22.3645853 12.3181039,22.3544798 C12.2703138,22.3003145 12.2237387,22.2457449 12.1775686,22.1903669 C12.1633936,22.1737939 12.1496236,22.157221 12.1358535,22.1402438 C12.0827984,22.0755687 12.0301483,22.0104895 11.9787131,21.9437934 C11.9766881,21.941368 11.9750681,21.9389427 11.9734481,21.9361132 C11.912293,21.8572905 11.8531629,21.7764467 11.7944377,21.6943903 C11.7855277,21.6818595 11.7766177,21.6697329 11.7677077,21.6576063 C11.7110075,21.5771668 11.6551174,21.4951103 11.6012523,21.4126497 C11.5874822,21.3920345 11.5741172,21.3722278 11.5611572,21.3516126 C11.5372621,21.3152329 11.5141771,21.2780448 11.491092,21.2412608 C11.476107,21.2170077 11.4607169,21.1927546 11.4461369,21.1685014 C11.4218368,21.1296964 11.3987518,21.0900829 11.3752617,21.0508737 C11.3618967,21.0278332 11.3485317,21.005197 11.3347616,20.9829649 C11.3084366,20.9364797 11.2825165,20.8899946 11.2561915,20.8435094 C11.2468764,20.8265322 11.2371564,20.8103634 11.2282464,20.7933862 C11.1934163,20.7299239 11.1589912,20.6652488 11.1253761,20.6005738 C11.0954061,20.5427705 11.065436,20.4841588 11.0366809,20.425547 C11.0342509,20.4202922 11.0318209,20.4150373 11.0293909,20.4101867 C11.0026609,20.3560213 10.9767408,20.3014518 10.9508207,20.246478 C10.9419107,20.2266713 10.9325957,20.2060561 10.9232807,20.1858452 C10.9050556,20.1454233 10.8864256,20.1058098 10.8686055,20.0649837 C10.8580755,20.0411348 10.8475455,20.0164774 10.8374205,19.9922243 C10.8212204,19.9554404 10.8054254,19.9182522 10.7896304,19.8806599 C10.7786953,19.8551941 10.7681653,19.8285156 10.7580403,19.8026456 C10.7430552,19.7666701 10.7280702,19.7306946 10.7138952,19.6943149 C10.7033652,19.6672323 10.6928351,19.6393412 10.6823051,19.6122585 C10.6689401,19.576283 10.65517,19.5407117 10.641805,19.5051405 C10.63168,19.4768451 10.621555,19.448954 10.6110249,19.4202545 C10.5984699,19.3846832 10.5859149,19.3495162 10.5733598,19.3135407 C10.5632348,19.2844369 10.5535148,19.2557374 10.5437948,19.2270378 C10.5316447,19.1910624 10.5198997,19.1550869 10.5077497,19.1191114 C10.4988397,19.0900076 10.4895247,19.0609039 10.4802096,19.0313959 C10.4688696,18.9954204 10.4575296,18.9590407 10.4465945,18.9222568 C10.4376845,18.893153 10.4287745,18.863645 10.4202695,18.834137 C10.4093345,18.7969489 10.3992094,18.7605692 10.3886794,18.7229768 C10.3801744,18.6938731 10.3720744,18.6639608 10.3639744,18.6344529 C10.3542543,18.5968605 10.3441293,18.5592681 10.3344093,18.5216758 C10.3267143,18.4921678 10.3190192,18.4622556 10.3117292,18.4327476 C10.3020092,18.3939426 10.2926942,18.3555418 10.2837842,18.3167368 C10.2764941,18.287633 10.2700141,18.2585292 10.2631291,18.2294255 C10.2538141,18.1890036 10.2449041,18.1481775 10.2363991,18.1073514 C10.230324,18.0794603 10.223844,18.0519734 10.218579,18.023678 C10.209264,17.9800224 10.200759,17.9359625 10.192254,17.8914984 C10.1869889,17.8664369 10.1821289,17.8413753 10.1776739,17.8167179 C10.1671439,17.7605315 10.1574239,17.7043451 10.1481088,17.6485629 C10.1456788,17.6344152 10.1428438,17.621076 10.1404138,17.6073325 C10.1391988,17.5992482 10.1379838,17.5911638 10.1367688,17.5826752 C10.1254288,17.5143622 10.1148988,17.4452407 10.1047737,17.3757151 C10.1015337,17.3490366 10.0978887,17.3223582 10.0942437,17.2960839 C10.0873587,17.2447481 10.0804737,17.1934123 10.0743987,17.1416723 C10.0703487,17.1109517 10.0675137,17.0798268 10.0638687,17.0491062 C10.0581986,17.0010041 10.0529336,16.9533063 10.0484786,16.9052042 C10.0452386,16.8728667 10.0424036,16.840125 10.0391636,16.8073832 C10.0351136,16.7600896 10.0314686,16.7136044 10.0274186,16.6663108 C10.0253936,16.6384197 10.0233686,16.6097202 10.0213436,16.5818291 C10.0144585,16.4755195 10.0079785,16.3696141 10.0035235,16.2624961 C10.0031185,16.251178 10.0031185,16.2394556 10.0027135,16.2285417 C9.9990685,16.1282954 9.99704349,16.0276449 9.99582849,15.9269944 C9.99582849,15.8910189 9.99501849,15.8554476 9.99501849,15.8194721 C9.99501849,15.7337777 9.99623349,15.6480833 9.9982585,15.5627931 C9.9986635,15.5361147 9.9998785,15.509032 10.0006885,15.4819493 C10.0023085,15.4233376 10.0043335,15.3647258 10.0071685,15.3065183 C10.0083835,15.2757977 10.0100035,15.2454812 10.0116235,15.215569 C10.0148635,15.1573615 10.0185085,15.1003666 10.0225586,15.0425633 C10.0245836,15.0134596 10.0266086,14.98476 10.0290386,14.955252 C10.0343036,14.8897686 10.0395686,14.8246893 10.0460486,14.7596101 C10.0480736,14.7402076 10.0496936,14.7208051 10.0513136,14.7018068 C10.0594136,14.620963 10.0683237,14.5409276 10.0784487,14.4612965 C10.0804737,14.4459362 10.0829037,14.4313843 10.0849287,14.4164282 C10.0930287,14.3513489 10.1019387,14.2870781 10.1108488,14.2232115 C10.1157088,14.1928951 10.1201638,14.1625787 10.1250238,14.1322623 C10.1323138,14.0861813 10.1396038,14.0396961 10.1472988,13.9940194 L10.1639039,13.8990279 C10.1720039,13.8549681 10.1801039,13.8100998 10.1882039,13.7660399 C10.194684,13.7332982 10.201569,13.7001522 10.208049,13.6674105 C10.216149,13.6269886 10.224249,13.5873751 10.232754,13.5473575 C10.2396391,13.5142115 10.2473341,13.4810656 10.2546241,13.4479196 C10.2635341,13.4083061 10.2724441,13.3690969 10.2817592,13.3294835 C10.2894542,13.2963375 10.2975542,13.2635958 10.3056542,13.2304498 C10.3153742,13.192049 10.3246893,13.1536482 10.3348143,13.1156516 L10.3607343,13.0174264 C10.3712644,12.9794298 10.3813894,12.9414333 10.3919194,12.9034367 C10.4012344,12.870695 10.4105495,12.8383574 10.4202695,12.8060199 C10.4307995,12.769236 10.4417345,12.7324521 10.4530746,12.6960724 C10.4627946,12.6637349 10.4729196,12.6309931 10.4830446,12.5986556 C10.4943847,12.5622759 10.5065347,12.5263004 10.5182797,12.4899207 C10.5284047,12.4579874 10.5393398,12.4260541 10.5498698,12.3941208 C10.5620198,12.3573369 10.5749799,12.320553 10.5883449,12.283769 C10.5988749,12.2530484 10.6094049,12.2223278 10.62115,12.1916071 C10.634515,12.154419 10.648285,12.1176351 10.6620551,12.0808511 C10.6733951,12.0509389 10.6843301,12.0210267 10.6956701,11.9911145 C10.7106552,11.9527137 10.7264502,11.9143129 10.7422452,11.8755079 C10.7531803,11.848021 10.7641153,11.8201299 10.7754553,11.792643 C10.7920604,11.7526254 10.8090704,11.7130119 10.8260804,11.6729942 C10.8370155,11.6475284 10.8475455,11.6216584 10.8588855,11.5965968 C10.8819706,11.5432399 10.9062706,11.489883 10.9305707,11.4369304 C10.9362407,11.425208 10.9415057,11.4134857 10.9467707,11.4013591 C10.9771458,11.3366841 11.0075209,11.2728175 11.0391109,11.2093551 C11.046806,11.194399 11.054096,11.1794429 11.061791,11.1640826 C11.0869011,11.1139594 11.1124161,11.0642405 11.1379312,11.0141173 C11.1496762,10.9914811 11.1626362,10.9688448 11.1743813,10.9462086 C11.1966563,10.9049782 11.2185264,10.8633437 11.2412064,10.8229218 C11.2541664,10.7990729 11.2675315,10.7756282 11.2808965,10.7517793 C11.3043866,10.7105489 11.3282816,10.6689144 11.3521767,10.6272798 C11.3667567,10.6034309 11.3809317,10.5787735 11.3951068,10.5549246 C11.4194068,10.5140985 11.4441119,10.4740808 11.468817,10.4336589 C11.482992,10.4110227 11.496762,10.3891949 11.510532,10.3669628 C11.5465771,10.3099679 11.5826222,10.2537815 11.6198823,10.1979993 C11.6247423,10.1903191 11.6296023,10.182639 11.6348673,10.1745546 C11.6769874,10.1114964 11.7203225,10.0492467 11.7636576,9.98740123 C11.7745927,9.97163669 11.7863377,9.95627637 11.7972727,9.94051183 C11.8349378,9.88836759 11.8730079,9.83622335 11.911078,9.78529176 C11.924443,9.76750613 11.9386181,9.74931627 11.9523881,9.73112642 C12.0001782,9.66806827 12.0483733,9.60581855 12.0977834,9.54518571 C12.0989984,9.54356883 12.0998084,9.54235617 12.1010234,9.54114352 C12.1597486,9.46878833 12.2188787,9.39845423 12.2792239,9.32933279 C12.2921839,9.31437669 12.3047389,9.29942059 12.3176989,9.28486871 C12.3768291,9.21776836 12.4367692,9.15147646 12.4983294,9.08639721 C12.5169594,9.06618626 12.5359945,9.04637953 12.5554345,9.0265728 C12.5801396,9.00110701 12.6044396,8.975237 12.6299547,8.9497712 C12.6502047,8.92875182 12.6716698,8.90854087 12.6927298,8.88752149 C12.7174349,8.86286413 12.7421399,8.83820677 12.767655,8.81395364 C12.7887151,8.79293425 12.8105851,8.77312752 12.8320502,8.75291658 C12.8571602,8.72906766 12.8826753,8.70521874 12.9081903,8.68177404 C12.9300604,8.6615631 12.9523354,8.64175637 12.9742055,8.62235386 C13.0001256,8.59931338 13.0252356,8.57667712 13.0511557,8.55444508 C13.0815307,8.52776663 13.1119058,8.50189661 13.1426859,8.4760266 C13.1536209,8.46713378 13.1641509,8.45743253 13.174681,8.44894393 C13.2184211,8.41256423 13.2617562,8.37739718 13.3059013,8.34223013 C13.3148113,8.33535841 13.3245313,8.32808247 13.3338463,8.32040231 C13.3690814,8.29291542 13.4043165,8.26583275 13.4399566,8.23875008 C13.4541316,8.22824039 13.4687117,8.21732648 13.4832917,8.20641257 C13.5156918,8.18256365 13.5484968,8.15831051 13.5813019,8.13486581 C13.5950719,8.12516456 13.608032,8.11586752 13.621802,8.10576205 C13.6671621,8.07382875 13.7129272,8.04229968 13.7590973,8.01117482 C13.7619323,8.00955794 13.7643623,8.00753685 13.7671974,8.00591997 C13.8109375,7.97681621 13.8542726,7.94852088 13.8988227,7.92022555 C13.9129977,7.91133274 13.9275777,7.9020357 13.9417528,7.89314288 C13.9753678,7.8721235 14.0093879,7.85110411 14.043408,7.83089317 C14.058798,7.82159613 14.0737831,7.81270332 14.0887681,7.8038105 C14.1288632,7.7803658 14.1689583,7.75732532 14.2086484,7.73428484 C14.2171534,7.72983843 14.2248484,7.72539202 14.2329484,7.72094562 C14.2807386,7.69426716 14.3289337,7.66799293 14.3775338,7.64293136 C14.3908988,7.63565542 14.4046689,7.6287837 14.4180339,7.62191197 C14.454079,7.6033179 14.4901241,7.58512805 14.5265741,7.5669382 C14.5423692,7.55925804 14.5585692,7.55117366 14.5747693,7.54389772 C14.6120293,7.52570787 14.6492894,7.50832645 14.6869545,7.49094504 C14.6999145,7.48488175 14.7124696,7.47881847 14.7258346,7.4731594 C14.7756497,7.45092736 14.8254648,7.42869532 14.875685,7.40808015 C14.88581,7.40363374 14.895935,7.39959156 14.90687,7.39514515 C14.9469651,7.37857217 14.9878702,7.36199919 15.0287753,7.34623465 C15.0449754,7.34017137 15.0615804,7.33370387 15.0781854,7.32764058 C15.1146355,7.31349292 15.1518956,7.3001537 15.1891557,7.28681447 L15.2353258,7.27024149 C15.2867609,7.25245586 15.338601,7.23507445 15.3904412,7.21850147 C15.3924662,7.21809725 15.3940862,7.21728881 15.3961112,7.21688459 C15.4463313,7.20112005 15.4969564,7.18575973 15.5475815,7.17120785 C15.5633766,7.16676144 15.5795766,7.16191082 15.5957767,7.15746441 C15.6338467,7.14695472 15.6715118,7.13684924 15.7095819,7.12714799 C15.726592,7.12270158 15.743602,7.11825517 15.760612,7.11421298 C15.8043521,7.10329907 15.8480922,7.09278938 15.8918323,7.08308812 C15.9019574,7.08066281 15.9112724,7.0782375 15.9213974,7.0762164 C15.9744525,7.06449405 16.0279127,7.05398436 16.0817778,7.04347467 C16.0959528,7.04064513 16.1105329,7.03821982 16.1255179,7.03579451 C16.165208,7.02811435 16.2057081,7.02124262 16.2458032,7.01477512 C16.2636232,7.01194559 16.2814433,7.00871184 16.2992633,7.00628652 C16.3401684,7.00022324 16.3806685,6.99415995 16.4215736,6.98890511 C16.4361536,6.98728823 16.4507337,6.98526714 16.4649087,6.98324604 C16.5195838,6.97637432 16.574664,6.97071526 16.6297441,6.96546041 C16.6402741,6.96424775 16.6508041,6.96343932 16.6617392,6.96263088 C16.7062893,6.95858869 16.7508394,6.95495072 16.7961995,6.95212118 C16.8140195,6.95090853 16.8322446,6.94969587 16.8500646,6.94888743 C16.8897547,6.94646212 16.9302548,6.94444102 16.9703499,6.94322837 C16.9869549,6.94241993 17.003965,6.94161149 17.020975,6.94120727 C17.0768651,6.9395904 17.1331603,6.93837774 17.1894554,6.93837774 L12.8113951,6.93837774 C12.7551,6.93837774 12.6992098,6.9395904 12.6433197,6.94120727 C12.6263097,6.94161149 12.6092996,6.94241993 12.5922896,6.94322837 C12.5517895,6.94444102 12.5120994,6.94646212 12.4720043,6.94888743 C12.4541843,6.95010009 12.4359592,6.95090853 12.4181392,6.95212118 C12.3731841,6.95495072 12.328634,6.95858869 12.2836789,6.96263088 C12.2731488,6.96343932 12.2618088,6.96424775 12.2512788,6.96546041 C12.1966037,6.97071526 12.1419285,6.97637432 12.0872534,6.98324604 C12.0726734,6.98526714 12.0584983,6.98728823 12.0435133,6.98890511 C12.0030132,6.99415995 11.9621081,7.00022324 11.921608,7.00628652 C11.903788,7.00871184 11.8859679,7.01194559 11.8681479,7.01477512 C11.8276478,7.02124262 11.7875527,7.02811435 11.7474576,7.03579451 C11.7328776,7.03821982 11.7182975,7.04064513 11.7037175,7.04347467 C11.6502574,7.05398436 11.5963923,7.06449405 11.5433371,7.0762164 C11.5336171,7.0782375 11.5234921,7.08066281 11.5137721,7.08308812 C11.469627,7.09278938 11.4262919,7.10329907 11.3829567,7.11421298 C11.3659467,7.11825517 11.3489367,7.12270158 11.3319266,7.12714799 C11.2938565,7.13684924 11.2557865,7.14695472 11.2177164,7.15746441 C11.2015163,7.16191082 11.1853163,7.16676144 11.1695212,7.17120785 C11.1188961,7.18575973 11.068676,7.20071584 11.0184559,7.21648037 C11.0164309,7.21728881 11.0144059,7.21809725 11.0127859,7.21850147 C10.9609458,7.23507445 10.9091056,7.25245586 10.8576705,7.27024149 C10.8422805,7.27549634 10.8264854,7.2811554 10.8106904,7.28681447 C10.7738353,7.3001537 10.7369802,7.31349292 10.7001251,7.32723636 L10.65031,7.34623465 C10.6098099,7.36199919 10.5693098,7.37857217 10.5288097,7.39514515 C10.5186847,7.39959156 10.5077497,7.40363374 10.4976247,7.40808015 C10.4474046,7.42909954 10.3975894,7.45092736 10.3477743,7.4731594 C10.3348143,7.47881847 10.3214493,7.48528597 10.3084892,7.49134926 C10.2712291,7.50832645 10.2343741,7.52570787 10.197114,7.5434935 L10.1485138,7.5669382 C10.1124688,7.58512805 10.0760187,7.6033179 10.0399736,7.62191197 C10.0266086,7.6287837 10.0132435,7.63565542 9.9998785,7.64293136 C9.95087338,7.66799293 9.90267827,7.69426716 9.85488816,7.72094562 C9.84678814,7.72539202 9.83868812,7.72983843 9.8305881,7.73468906 C9.79049301,7.75732532 9.75039791,7.7803658 9.71111282,7.80340628 C9.69612779,7.81270332 9.68033275,7.82159613 9.66534771,7.83089317 C9.63132763,7.85110411 9.59771255,7.8721235 9.56409748,7.89314288 L9.52035737,7.92022555 C9.47702227,7.94852088 9.43328217,7.97641199 9.39035207,8.00511153 C9.38711206,8.00713263 9.38387205,8.00915372 9.38063204,8.01157904 C9.33486694,8.04229968 9.28950683,8.07382875 9.24374172,8.10576205 C9.22997169,8.11586752 9.21660666,8.12556878 9.20324163,8.13486581 C9.17043655,8.15871473 9.13803647,8.18256365 9.1056364,8.20600835 L9.06149129,8.2391543 C9.02625621,8.26583275 8.99102113,8.29291542 8.95619105,8.31999809 C8.94687603,8.32767825 8.937561,8.33535841 8.92743598,8.34263435 C8.88410088,8.37739718 8.84036077,8.41256423 8.79743067,8.44853971 C8.78609065,8.45783675 8.77515562,8.46713378 8.7642206,8.47643082 C8.74194554,8.49502489 8.72007549,8.51321474 8.69820544,8.53221303 C8.68970042,8.53908476 8.6820054,8.54676492 8.67350038,8.55404086 C8.64758032,8.57667712 8.62166026,8.5997176 8.5965502,8.62235386 C8.57427515,8.64216059 8.5520001,8.6615631 8.53053505,8.68177404 C8.50461499,8.70521874 8.47950493,8.72906766 8.45398987,8.75291658 C8.43252482,8.77312752 8.41105977,8.79333847 8.38959472,8.81395364 C8.36407966,8.83820677 8.3397796,8.86286413 8.31466954,8.88752149 C8.29360949,8.90854087 8.27254944,8.92875182 8.25189439,8.9497712 C8.22718933,8.975237 8.20248428,9.00070279 8.17777922,9.0265728 C8.16157918,9.04314578 8.14537914,9.05931454 8.1291791,9.07629173 L8.11986408,9.08680142 C8.05911394,9.15147646 7.9987688,9.21776836 7.94004366,9.28486871 C7.92667863,9.29942059 7.9141236,9.31437669 7.90116357,9.32933279 C7.84081843,9.39845423 7.78128329,9.46878833 7.72296315,9.5407393 C7.72296315,9.54114352 7.72255815,9.54114352 7.72255815,9.54154774 C7.72174815,9.54316461 7.72053314,9.54437727 7.71931814,9.54599414 C7.67031303,9.60662699 7.62171291,9.66806827 7.5743278,9.7307222 C7.56055777,9.74931627 7.54678773,9.76750613 7.5330177,9.78569598 C7.49494761,9.83662756 7.45687752,9.88796337 7.41961744,9.94010761 C7.41192242,9.95142574 7.4034174,9.96193544 7.39572238,9.97244513 C7.39248237,9.97769998 7.38883736,9.98295482 7.38519236,9.98780545 C7.34185725,10.0496509 7.29933215,10.1114964 7.25680705,10.1745546 C7.25154204,10.182639 7.24708703,10.1903191 7.24141702,10.1984035 C7.20456193,10.2537815 7.16851685,10.3095637 7.13247176,10.3665586 C7.12842175,10.3738345 7.12315674,10.3807063 7.11870173,10.3883864 C7.10938671,10.4033425 7.10007169,10.4187028 7.09075666,10.4340632 C7.06605161,10.4740808 7.04134655,10.5140985 7.01704649,10.5549246 C7.00287146,10.5787735 6.98829142,10.6034309 6.97452139,10.6272798 C6.95022133,10.6685102 6.92673128,10.7101447 6.90324122,10.751375 C6.8947362,10.7667354 6.88542118,10.7816915 6.87691616,10.7970518 C6.87205615,10.8059446 6.86760114,10.8144332 6.86274113,10.823326 C6.84046608,10.8637479 6.81859602,10.904574 6.79632097,10.9462086 C6.78457594,10.9688448 6.77202091,10.9914811 6.76027589,11.0141173 C6.73395082,11.0646447 6.70843576,11.1151721 6.6829207,11.1656995 C6.67644069,11.1786345 6.66996067,11.1911652 6.66348066,11.2041002 L6.66105065,11.2089509 C6.62986558,11.2724133 6.59908551,11.3362798 6.56911544,11.4013591 C6.56263542,11.4146983 6.55737041,11.4280375 6.55089039,11.4413768 C6.52699534,11.4927126 6.50391028,11.5444526 6.48082523,11.5961926 C6.47961023,11.5998306 6.47799022,11.6030643 6.47637022,11.6058939 C6.4666502,11.6289344 6.45693017,11.6523791 6.44721015,11.6750153 C6.43060511,11.7142246 6.41400007,11.7530296 6.39739503,11.7922388 C6.38605501,11.8205341 6.37471498,11.8488295 6.36337495,11.8771248 C6.34838992,11.9151214 6.33299988,11.953118 6.31841985,11.9911145 C6.31558484,11.9979863 6.31234483,12.004858 6.30991483,12.0117297 C6.30100481,12.0347702 6.29249979,12.0582149 6.28399477,12.0816596 C6.27022474,12.1180393 6.2560497,12.1548232 6.24268467,12.1916071 C6.23174964,12.2219235 6.22081462,12.2526442 6.21028459,12.2833648 C6.19732456,12.3201488 6.18436453,12.3573369 6.1714045,12.394525 C6.1685695,12.4042263 6.16492449,12.4139275 6.16168448,12.424033 C6.15398946,12.4458608 6.14750945,12.4672844 6.14021943,12.4891123 C6.1284744,12.5258962 6.11672937,12.5622759 6.10457935,12.5986556 L6.07501428,12.6960724 C6.06407925,12.7320479 6.05273922,12.7688318 6.0422092,12.8056157 C6.03815919,12.8181465 6.03451418,12.8310815 6.03086917,12.8436123 C6.02479416,12.8638232 6.01952915,12.88363 6.01426413,12.9038409 C6.00332911,12.9414333 5.99279908,12.9794298 5.98307906,13.0174264 C5.97416904,13.0497639 5.96566402,13.0829099 5.956754,13.1156516 C5.94703398,13.1536482 5.93731395,13.192049 5.92799893,13.230854 C5.92394892,13.2466186 5.91949391,13.2619789 5.9162539,13.2777434 C5.91179889,13.2947206 5.90815388,13.312102 5.90410387,13.3290792 C5.89478885,13.3686927 5.88547383,13.4079019 5.87696881,13.4479196 C5.86927379,13.4810656 5.86198378,13.5142115 5.85469376,13.5477617 C5.84659374,13.5873751 5.83808872,13.6269886 5.8303937,13.6666021 C5.82634369,13.6864088 5.82188868,13.7062155 5.81783867,13.725618 C5.81540867,13.7393615 5.81338366,13.7531049 5.81054865,13.7664441 C5.80204363,13.810504 5.79394362,13.8545639 5.7858436,13.8986237 C5.78057858,13.930557 5.77490857,13.9616819 5.76923856,13.9940194 C5.76154354,14.0401004 5.75425352,14.0865855 5.74736851,14.1330707 C5.7433185,14.1561112 5.73926849,14.1791517 5.73562348,14.2021922 C5.73481348,14.2090639 5.73400347,14.2155314 5.73278847,14.2228073 C5.72387845,14.2866739 5.71496843,14.3509447 5.70686841,14.4156198 C5.70484341,14.4309801 5.7024134,14.4459362 5.7003884,14.4612965 C5.69066837,14.5409276 5.68135335,14.620963 5.67365833,14.7014025 C5.67325333,14.7050405 5.67244333,14.7086785 5.67244333,14.7123165 C5.67041833,14.7284852 5.66960832,14.7450582 5.66798832,14.761227 C5.66191331,14.8254978 5.65583829,14.8901728 5.65057328,14.955252 L5.64490327,15.0429676 C5.64044826,15.1003666 5.63680325,15.1573615 5.63356324,15.2147606 C5.63275324,15.232142 5.63113323,15.248715 5.63032323,15.2660964 C5.63032323,15.2794356 5.62991823,15.2927749 5.62910823,15.3069225 C5.62667822,15.3647258 5.62424822,15.4233376 5.62262821,15.4815451 C5.62181821,15.509032 5.62060321,15.5357104 5.62019821,15.5627931 C5.6181732,15.6472749 5.6169582,15.7317566 5.6169582,15.8162384 L5.6169582,15.8194721 L5.6169582,15.8869767 C5.6169582,15.8999117 5.6177682,15.9132509 5.6177682,15.9261859 C5.6189832,16.0276449 5.62100821,16.1286996 5.62505822,16.2289459 C5.62546322,16.2398598 5.62546322,16.251178 5.62586822,16.2620919 C5.63032323,16.3692099 5.63599324,16.4751153 5.64368826,16.5814249 C5.64449826,16.5931472 5.64490327,16.6052738 5.64571327,16.6169961 C5.64692827,16.6335691 5.64814327,16.6501421 5.64935828,16.6671193 C5.65340829,16.7136044 5.65705329,16.7600896 5.6615083,16.806979 C5.66393831,16.8397208 5.66717832,16.8724625 5.67041833,16.9052042 C5.67527834,16.9533063 5.68054335,17.0014083 5.68580836,17.0491062 C5.68945337,17.0798268 5.69269338,17.1109517 5.69633839,17.1416723 C5.7024134,17.1938166 5.70970342,17.2455566 5.71658843,17.2968924 C5.72023344,17.3231666 5.72347345,17.3490366 5.72711846,17.3753109 C5.73724348,17.4464534 5.74817851,17.5167875 5.75951853,17.5871216 C5.76073354,17.5931849 5.76154354,17.5996524 5.76275854,17.6053114 L5.76275854,17.6069283 C5.76518855,17.6226929 5.76802355,17.6384574 5.77085856,17.6546261 C5.78057858,17.7083873 5.78948861,17.7625526 5.79920863,17.8163137 L5.81500367,17.894328 C5.82310368,17.9371752 5.8316087,17.9804266 5.84011372,18.0232738 C5.84618874,18.0523776 5.85266875,18.0806729 5.85874377,18.1093725 C5.86724879,18.1493901 5.87615881,18.1890036 5.88506883,18.2290213 C5.89195385,18.2585292 5.89924386,18.2884415 5.90572388,18.3179494 C5.9150389,18.3563502 5.92394892,18.3943468 5.93366894,18.4323434 C5.94095896,18.4622556 5.94905898,18.4921678 5.956754,18.5224842 C5.96647402,18.5596724 5.97578904,18.5968605 5.98591407,18.6340486 C5.99401409,18.6639608 6.0021141,18.6942773 6.01102413,18.7237853 C6.02114915,18.7605692 6.03167917,18.7969489 6.0422092,18.8337328 C6.05111922,18.8632408 6.05962424,18.8935572 6.06893926,18.9230652 C6.07987429,18.9590407 6.09080931,18.9954204 6.10214934,19.0309917 C6.11146436,19.0609039 6.12077938,19.0900076 6.13049941,19.1195156 C6.14183943,19.1554911 6.15358446,19.1910624 6.16573449,19.2266336 C6.17545451,19.2557374 6.18557954,19.2844369 6.19570456,19.3139449 C6.20785459,19.3495162 6.22040962,19.3846832 6.23296465,19.4194461 C6.24349467,19.4485498 6.2540247,19.4772494 6.26414972,19.5055447 C6.27710975,19.5407117 6.29047478,19.5758788 6.30424481,19.6110458 C6.31477484,19.6389369 6.32530486,19.6672323 6.33664489,19.6947192 C6.35041492,19.7302904 6.36499496,19.7658617 6.37916999,19.801433 C6.39010502,19.8281114 6.40104004,19.8547899 6.41197507,19.8810641 C6.4269601,19.917848 6.44275514,19.9546319 6.45855018,19.9910116 C6.4694852,20.015669 6.48001523,20.0407306 6.49095025,20.0653879 C6.50836529,20.1050014 6.52618534,20.1438064 6.54400538,20.1830156 C6.5541304,20.2044392 6.56344542,20.2258628 6.57357045,20.246478 C6.5978705,20.2994307 6.62298056,20.3515749 6.64809062,20.4037192 C6.65214063,20.4109951 6.65538064,20.4182711 6.65902565,20.4259512 C6.68697071,20.4825419 6.71572578,20.5395367 6.74488585,20.5961274 C6.74569585,20.5973401 6.74650585,20.5985527 6.74731586,20.6001696 C6.78093094,20.6652488 6.81495102,20.7299239 6.8501861,20.7933862 C6.85950112,20.8103634 6.86922114,20.8269364 6.87853616,20.8439136 C6.90445623,20.8899946 6.93037629,20.9364797 6.95710635,20.9825607 C6.97047138,21.0056012 6.98383641,21.0282374 6.99760644,21.0512779 C7.0206915,21.0904872 7.04418155,21.1296964 7.06767161,21.1685014 C7.08265664,21.1927546 7.09845168,21.2174119 7.11343672,21.2412608 C7.13611677,21.278449 7.15960683,21.3148287 7.18269188,21.3512084 C7.1911969,21.3637392 7.19929692,21.3766742 7.20739694,21.389205 C7.21266195,21.3972893 7.21792696,21.4049695 7.22319197,21.4126497 C7.2778671,21.4955145 7.33335223,21.5771668 7.38964737,21.6576063 C7.39855739,21.6701371 7.40746741,21.6818595 7.41637743,21.693986 C7.47469757,21.7764467 7.53423271,21.8568863 7.59498285,21.935709 C7.59660285,21.9377301 7.59822286,21.9401554 7.59984286,21.9421765 C7.60024786,21.9425807 7.60065286,21.9433891 7.60146286,21.9441976 C7.65249298,22.0104895 7.70514311,22.0755687 7.75738823,22.1402438 C7.77156326,22.1568167 7.7857383,22.1737939 7.79950833,22.1903669 C7.84567844,22.2457449 7.89225355,22.3003145 7.93963866,22.3540756 C7.94611867,22.3617557 7.95219369,22.3690317 7.9590787,22.3767118 C7.96069871,22.3791372 7.96312871,22.3815625 7.96515372,22.3835836 C8.01537384,22.4401742 8.06640396,22.4955522 8.11743408,22.550526 C8.13079911,22.5642694 8.14456914,22.5780129 8.15793417,22.5921605 C8.19681426,22.6333909 8.23650436,22.6738128 8.27700445,22.7142347 L8.30170951,22.7401047 C8.31142953,22.7494017 8.32074455,22.7578903 8.33005958,22.7671873 C8.36407966,22.8007375 8.39809974,22.8334793 8.43252482,22.866221 C8.44993986,22.882794 8.4669499,22.8993669 8.48436494,22.9155357 C8.52729504,22.9555534 8.57063014,22.9943584 8.61396524,23.0331634 C8.62166026,23.0396309 8.62976028,23.0473111 8.6370503,23.0541828 C8.6386703,23.0553955 8.6398853,23.0566081 8.64150531,23.0574165 C8.69213043,23.1022848 8.74316055,23.1459405 8.79500067,23.1891919 C8.8079607,23.1997016 8.82092073,23.2098071 8.83428576,23.220721 C8.87276085,23.2526543 8.91204594,23.2841834 8.95133104,23.3153082 C8.95619105,23.3193504 8.96105106,23.3233926 8.96591107,23.3270306 C8.98130111,23.3391571 8.99750114,23.3508795 9.01289118,23.3626018 C9.04367125,23.3864508 9.07445132,23.4098955 9.1060414,23.4333402 C9.12750645,23.4495089 9.1497815,23.4652735 9.17165155,23.4814422 C9.20202662,23.50327 9.2324017,23.5255021 9.26318177,23.5469257 C9.27249679,23.5533932 9.28140681,23.5602649 9.29112683,23.5667324 C9.30489687,23.5764337 9.3186669,23.5853265 9.33243693,23.5950277 C9.361597,23.6144302 9.39116207,23.6346412 9.42072714,23.6540437 C9.44421719,23.6698082 9.46811225,23.6851686 9.49241231,23.7005289 C9.52157238,23.7195272 9.55113745,23.7381212 9.58070251,23.7567153 C9.59406755,23.7647997 9.60662258,23.7732883 9.61998761,23.7809685 C9.63132763,23.7882444 9.64347766,23.7951161 9.65481769,23.8019878 C9.68316776,23.8193693 9.71232782,23.8359422 9.74067789,23.8529194 C9.76578795,23.8674713 9.79089801,23.8820232 9.81600807,23.8965751 C9.84557314,23.913148 9.87473321,23.9293168 9.90389327,23.9450813 C9.91968831,23.9535699 9.93507835,23.962867 9.95127839,23.9713556 C9.96099841,23.9766104 9.97071843,23.981461 9.98043845,23.9863117 C10.0095985,24.001672 10.0387586,24.0166281 10.0683237,24.0319884 C10.0938387,24.0449234 10.1193538,24.0578584 10.1452738,24.0703892 C10.1748389,24.0853453 10.204809,24.0998972 10.2351841,24.1140449 C10.2534091,24.1221292 10.2708241,24.1314263 10.2890492,24.1395107 C10.2971492,24.1435528 10.3048442,24.1467866 10.3125392,24.1504246 C10.3433193,24.164168 10.3736944,24.1775072 10.4048795,24.1912507 C10.4303945,24.2021646 10.4563146,24.2138869 10.4822346,24.2248009 C10.5134197,24.2377359 10.5450098,24.2506709 10.5761949,24.2636059 C10.5964449,24.271286 10.6162899,24.2801788 10.636135,24.2874548 C10.641805,24.2898801 10.647475,24.2919012 10.65355,24.2943265 C10.6867601,24.3068573 10.7203752,24.3193881 10.7539903,24.3319189 C10.7782903,24.3408117 10.8034004,24.3501087 10.8277004,24.3590015 C10.8629355,24.3711281 10.8981706,24.3828505 10.9338107,24.3945728 C10.9544657,24.4018488 10.9747158,24.4087205 10.9957758,24.4155922 C10.9982058,24.4164006 11.0010409,24.4172091 11.0038759,24.4184217 C11.057336,24.4353989 11.1112011,24.4515677 11.1650662,24.466928 C11.1715463,24.4689491 11.1784313,24.4713744 11.1853163,24.4729913 C11.2460664,24.4903727 11.3068166,24.5065415 11.3679717,24.5219018 C11.3704017,24.522306 11.3724267,24.5231144 11.3748567,24.5235187 C11.3898418,24.5275608 11.4048268,24.5307946 11.4198118,24.5344326 C11.4655769,24.5453465 11.5113421,24.5558562 11.5571072,24.5663659 C11.5810022,24.5716207 11.6044923,24.5756629 11.6283873,24.5805135 C11.6684824,24.5890021 11.7081725,24.5966823 11.7482676,24.6043624 C11.7571776,24.6059793 11.7664927,24.6075962 11.7754027,24.6092131 C11.7907927,24.6120426 11.8061827,24.6140637 11.8219778,24.6168932 C11.8645029,24.6241692 11.907433,24.6310409 11.9503631,24.6375084 C11.9754731,24.6407421 12.0005832,24.6443801 12.0256933,24.6480181 C12.0694334,24.6540814 12.1127685,24.658932 12.1569136,24.6637826 C12.1731136,24.6658037 12.1893136,24.668229 12.2059187,24.6698459 C12.2123987,24.6706543 12.2196887,24.6710586 12.2269787,24.671867 C12.2994739,24.6787387 12.3727791,24.6852062 12.4460842,24.6896526 C12.4537793,24.6900569 12.4614743,24.6900569 12.4691693,24.6904611 C12.5351845,24.6945033 12.6016046,24.6969286 12.6680248,24.6985455 C12.6777448,24.6989497 12.6866548,24.6997581 12.6959698,24.6997581 C12.7344449,24.7005665 12.772515,24.7009708 12.8113951,24.7009708 L17.1894554,24.7009708 C17.1412603,24.7009708 17.0938752,24.6997581 17.0460851,24.6985455" id="Fill-1" fill="#FCBA06"></path>
                <g id="Group-5" transform="translate(12.811233, 0.000000)">
                    <mask id="mask-2" fill="white">
                        <use xlink:href="#path-1"></use>
                    </mask>
                    <g id="Clip-4"></g>
                    <path d="M17.1007602,17.8579887 C17.1056202,17.8026107 17.1100752,17.7476369 17.1145302,17.6918547 C17.1185802,17.6397105 17.1222252,17.5875662 17.1258702,17.535422 C17.1299203,17.480044 17.1339703,17.4250702 17.1376153,17.3696922 C17.1408553,17.317548 17.1436903,17.2658079 17.1469303,17.2136637 C17.1501703,17.1582857 17.1534103,17.1029077 17.1566503,17.0471255 C17.1574603,17.031361 17.1582703,17.0151922 17.1590803,16.9994277 C17.1611053,16.9569847 17.1627253,16.9149459 17.1643453,16.8725029 C17.1663703,16.8292515 17.1688003,16.7860001 17.1704204,16.7419402 C17.1728504,16.6792863 17.1748754,16.6170365 17.1764954,16.5539784 C17.1777104,16.5139607 17.1793304,16.4735388 17.1805454,16.4331169 C17.1821654,16.3639955 17.1837854,16.2944698 17.1850004,16.2253484 C17.1854054,16.191394 17.1862154,16.1578438 17.1866204,16.1238894 C17.1882404,16.0208136 17.1890504,15.9177378 17.1890504,15.8146619 C17.1890504,15.7750485 17.1890504,15.7350308 17.1886454,15.6946089 C17.1882404,15.6218495 17.1866204,15.5490901 17.1854054,15.4759265 C17.1850004,15.4472269 17.1850004,15.4185274 17.1841904,15.390232 C17.1813554,15.2657326 17.1777104,15.1416374 17.1728504,15.0187548 C17.1716354,14.9892469 17.1700153,14.9601431 17.1688003,14.9310393 C17.1643453,14.8360479 17.1598903,14.7418649 17.1542203,14.6476819 C17.1517903,14.6056431 17.1489553,14.5644127 17.1461203,14.5227782 C17.1432853,14.4803352 17.1412603,14.437488 17.1380203,14.3954492 C17.1359953,14.3651328 17.1327553,14.336029 17.1303253,14.3065211 C17.1242502,14.223252 17.1169602,14.1399829 17.1096702,14.057118 C17.1044052,13.998102 17.0991402,13.9398945 17.0930652,13.8812827 C17.0849651,13.7959925 17.0756501,13.7111066 17.0663351,13.6262206 C17.0598551,13.5712468 17.0541851,13.5154646 17.0473001,13.4604908 C17.036365,13.3687331 17.024215,13.2773796 17.01166,13.1860262 C17.005585,13.1387325 16.9995099,13.0910347 16.9926249,13.0441453 C16.9748049,12.9204543 16.9561748,12.7971675 16.9359248,12.6750934 L16.9298498,12.6346715 C16.9294448,12.6334589 16.9294448,12.6322462 16.9290398,12.6314378 C16.9249898,12.6075888 16.9209398,12.5841441 16.9168898,12.5602952 C16.8998797,12.4596447 16.8820597,12.3589942 16.8634296,12.2587479 C16.8553296,12.2142838 16.8460146,12.1702239 16.8379146,12.1253556 C16.8225245,12.0469372 16.8071345,11.9681145 16.7909345,11.889696 C16.7804044,11.8395729 16.7694694,11.7898539 16.7585344,11.7397308 C16.7431443,11.6677798 16.7277543,11.5958288 16.7111493,11.5238779 C16.6994042,11.4717336 16.6872542,11.4199936 16.6746992,11.3678493 C16.6580941,11.2987279 16.6418941,11.2304149 16.6248841,11.1616977 C16.611519,11.108745 16.598154,11.0557923 16.584384,11.0032439 C16.5669689,10.9361435 16.5495539,10.8694474 16.5317338,10.8027513 C16.5171538,10.7493944 16.5021688,10.6964417 16.4871837,10.643489 C16.4689587,10.5780055 16.4507337,10.5125221 16.4316986,10.4474428 C16.4163086,10.3944901 16.4005135,10.3415374 16.3839085,10.2885848 C16.3648735,10.224314 16.3450284,10.1600431 16.3247784,10.0961765 C16.3085783,10.0432239 16.2915683,9.9906754 16.2745582,9.93853116 C16.2539032,9.87466457 16.2328431,9.81160641 16.2117831,9.74814404 C16.1943681,9.69640401 16.176548,9.64466399 16.158728,9.59292396 C16.1364529,9.52946159 16.1141779,9.46640343 16.0919028,9.4037495 C16.0732728,9.35281791 16.0550477,9.30188632 16.0364177,9.25135896 C16.0129276,9.1883008 15.9890326,9.12524265 15.9647325,9.06258871 C15.9456975,9.013274 15.9274724,8.96355507 15.9080324,8.91464458 C15.8829223,8.85077798 15.8574073,8.78812405 15.8314872,8.72466167 C15.8120472,8.67696384 15.7930121,8.629266 15.7731671,8.58237661 C15.746032,8.51689314 15.7180869,8.45181389 15.6901419,8.38754307 C15.6711068,8.34307899 15.6520718,8.29861491 15.6326317,8.25415082 C15.6018517,8.18422095 15.5698566,8.11469529 15.5382665,8.04557385 C15.5208515,8.00757727 15.5038414,7.96877225 15.4860214,7.93117989 C15.4418763,7.83699687 15.3969212,7.7436223 15.3515611,7.65065194 L15.333741,7.61265536 C15.2835209,7.51079219 15.2324908,7.40973745 15.1802457,7.30949115 C15.1790307,7.30666162 15.1774107,7.30423631 15.1757907,7.30140677 C15.1162555,7.18580016 15.0546954,7.0714062 14.9927302,6.95782067 C14.9765302,6.92790847 14.9591152,6.89880471 14.9425101,6.86848829 C14.896745,6.7856234 14.8497649,6.70316274 14.8023798,6.62110629 C14.7788897,6.5806844 14.7545897,6.53985828 14.7302896,6.49903217 C14.6889795,6.42910229 14.6472644,6.35957664 14.6051443,6.29005098 C14.5780093,6.24639533 14.5512792,6.20354812 14.5245491,6.16070092 C14.483239,6.09440901 14.4419289,6.02892554 14.3998088,5.96384629 C14.3852288,5.94201847 14.3714588,5.91897799 14.3568787,5.89634173 C14.3390587,5.86925906 14.3208337,5.84217639 14.3026086,5.81549794 C14.2787136,5.77911823 14.2548185,5.74273853 14.2305184,5.70676304 C14.1912333,5.64936395 14.1523533,5.59196486 14.1126632,5.53496999 L14.042598,5.43431947 C13.9980479,5.3708571 13.9530928,5.30860738 13.9073277,5.24635767 C13.8882926,5.22008343 13.8696626,5.1938092 13.8510325,5.16793919 C13.7870424,5.08224477 13.7234573,4.99695458 13.6582521,4.91287704 C13.6570371,4.91126016 13.6558221,4.90964329 13.6542021,4.90762219 L13.636382,4.88498593 C13.5788719,4.81060964 13.5201468,4.73663758 13.4614216,4.66347395 C13.4423866,4.64002925 13.4233515,4.61658455 13.4043165,4.59354407 C13.3532864,4.53089014 13.3022563,4.46904464 13.2504161,4.40760336 C13.2346211,4.38900929 13.2188261,4.370011 13.203031,4.35101271 C13.1422809,4.27987017 13.0807207,4.20872764 13.0187556,4.13920198 C13.0151106,4.13475557 13.0110606,4.13071338 13.0074156,4.12626697 C12.9179104,4.02561646 12.8271901,3.92698703 12.7360649,3.82957027 C12.7121699,3.80450869 12.6878698,3.77985134 12.6643798,3.75478976 C12.5947196,3.68203036 12.5242494,3.60967516 12.4529693,3.53812841 C12.4375792,3.52276809 12.4229992,3.50659933 12.4076092,3.49164323 C12.3914091,3.47507026 12.3743991,3.45970994 12.357794,3.44354118 C12.2974489,3.38371677 12.2366988,3.32550925 12.1755436,3.26730172 C12.1443585,3.23779374 12.1135785,3.20828575 12.0819884,3.17918199 C12.0066582,3.10884789 11.930113,3.03972645 11.8535679,2.97141345 C11.8393928,2.95888267 11.8252178,2.94513922 11.8102328,2.93220422 C11.8082077,2.93018312 11.8053727,2.92775781 11.8029427,2.92614093 C11.7126275,2.8465098 11.6219073,2.76889976 11.5299721,2.69209816 C11.506482,2.67309987 11.482587,2.65410158 11.4586919,2.63429485 C11.3898418,2.57810842 11.3209916,2.52232621 11.2517364,2.46775665 C11.2428264,2.46048071 11.2347264,2.45360899 11.2254114,2.44633305 C11.1974663,2.42450522 11.1687112,2.40348584 11.1403612,2.38165801 C11.0860911,2.34002346 11.0322259,2.29838891 10.9771458,2.2575628 C10.9374557,2.22845903 10.8977656,2.19975949 10.8580755,2.17065573 C10.8042104,2.13185071 10.7507503,2.09344991 10.6964801,2.05545333 C10.6798751,2.04373098 10.6632701,2.03120019 10.646665,2.01947784 C10.62196,2.00209643 10.5964449,1.98592767 10.5717398,1.96895047 C10.5198997,1.93378343 10.4680596,1.8990206 10.4162195,1.86466199 C10.3736944,1.83636666 10.3307643,1.80847555 10.2882392,1.78098866 C10.2355891,1.74743849 10.1829389,1.71429254 10.1302888,1.68114659 C10.1067988,1.6665947 10.0845237,1.6516386 10.0610336,1.63749094 C10.0403786,1.62496015 10.0197235,1.6132378 9.9990685,1.60070702 C9.94844338,1.56998638 9.89700826,1.54007417 9.84597814,1.51016197 C9.80102303,1.48388774 9.75606793,1.45801773 9.71111282,1.43214772 C9.6592727,1.40304395 9.60743258,1.37434441 9.55518745,1.34564486 C9.52724239,1.33028454 9.49889232,1.31411578 9.47094726,1.29915968 C9.45353222,1.28986265 9.43611717,1.28137405 9.41910713,1.27248123 C9.36726701,1.24499435 9.31502189,1.2183159 9.26318177,1.19204166 C9.21701166,1.16819275 9.17124655,1.14474805 9.12507644,1.12211179 C9.07242632,1.09583756 9.0193712,1.0711802 8.96631607,1.04571441 C8.93391599,1.03035409 8.90192092,1.01418533 8.86952084,0.999229228 C8.85534581,0.992761725 8.84076578,0.98710266 8.82699574,0.980635157 C8.77313062,0.955977801 8.71886049,0.932128883 8.66418536,0.907875747 C8.61801525,0.888069019 8.57184514,0.867453852 8.52527003,0.847647124 C8.4697849,0.824202425 8.41429977,0.802374603 8.35881464,0.779738342 C8.32276956,0.76518646 8.28712947,0.74982614 8.25108439,0.736082696 C8.24095937,0.731636287 8.23083434,0.727998317 8.22030432,0.723956128 C8.16117418,0.701319867 8.10163904,0.679492044 8.0421039,0.657664221 C7.9979588,0.641495463 7.95421869,0.624518267 7.91007359,0.609157948 C7.84689344,0.586925906 7.78411829,0.56631074 7.72134315,0.545291355 C7.68448806,0.533164786 7.64844297,0.519825561 7.61158789,0.508103212 L7.59619785,0.503252584 C7.50183263,0.473340383 7.4062524,0.444640838 7.31107718,0.41715395 C7.29852215,0.413515979 7.28637212,0.40947379 7.27341209,0.405835819 C7.16527684,0.37471096 7.05633158,0.346011416 6.94738633,0.318120308 C6.94374132,0.317311871 6.93969131,0.316503433 6.9356413,0.315694995 C6.90972124,0.308823273 6.88299118,0.303164208 6.85666611,0.297100923 C6.77526092,0.277294195 6.69345073,0.257891686 6.61123554,0.240106052 C6.56911544,0.231213236 6.52699534,0.222724638 6.48447024,0.21423604 C6.41359507,0.199279939 6.34271991,0.185132276 6.27143974,0.17219727 C6.2548347,0.169367737 6.23903966,0.165325548 6.22243462,0.162900234 C6.15439446,0.150369447 6.0863543,0.139455535 6.01790914,0.128541624 C6.00778412,0.126924748 5.9980641,0.125712091 5.98834407,0.124095216 C5.89762386,0.110351772 5.80690365,0.0974167653 5.71618343,0.085694416 C5.7020084,0.0836733213 5.68823837,0.0816522266 5.67406333,0.0804395697 C5.60156816,0.071142534 5.52947799,0.0630581552 5.45617282,0.0553779952 C5.43632778,0.0533569005 5.41607773,0.0517400247 5.39623268,0.04971893 C5.37233762,0.0472936164 5.34803757,0.0452725217 5.32454751,0.0432514269 C5.23625731,0.0351670481 5.1475621,0.028295326 5.05927189,0.0222320419 C5.04955187,0.0218278229 5.04064185,0.0210193851 5.03132682,0.0202109472 C4.9349366,0.014147663 4.83814137,0.0101054736 4.74094114,0.00687172204 C4.71745109,0.00606328415 4.69315103,0.00525484626 4.66966097,0.00444640838 C4.64050091,0.00363797049 4.61215084,0.00242531366 4.58339577,0.00202109472 C4.51495061,0.000808437887 4.44650545,0 4.37806029,0 L0,0 C0.0976052294,0 0.194400457,0.00202109472 0.291195684,0.00444640838 L0.363690855,0.00687172204 C0.460486082,0.0101054736 0.556876309,0.014147663 0.653266535,0.0202109472 C0.662581557,0.0210193851 0.67230158,0.0218278229 0.681616602,0.0222320419 C0.77031181,0.028295326 0.858602018,0.0351670481 0.946082223,0.0432514269 C0.97038228,0.0452725217 0.994277337,0.0472936164 1.01817239,0.04971893 C1.11132261,0.0590159657 1.20406783,0.0687172204 1.29640805,0.0804395697 C1.31058308,0.0816522266 1.32435311,0.0836733213 1.33812314,0.085694416 C1.42924836,0.0974167653 1.51956357,0.110351772 1.61028378,0.124095216 C1.62000381,0.125712091 1.63012883,0.126924748 1.63984885,0.128541624 C1.72449405,0.141880849 1.80873425,0.15683695 1.89297445,0.17219727 C1.96465962,0.185132276 2.03593978,0.199684158 2.10721995,0.21423604 C2.14893505,0.222724638 2.19146015,0.231213236 2.23317525,0.240106052 C2.31498544,0.257891686 2.39679563,0.277294195 2.47860582,0.297100923 C2.5089809,0.304376864 2.53935597,0.310844367 2.56932604,0.318120308 C2.67867629,0.346011416 2.78721655,0.37471096 2.89575681,0.405835819 C2.90790683,0.40947379 2.92046186,0.413515979 2.93342189,0.41715395 C3.02859712,0.444640838 3.12377234,0.473340383 3.21854256,0.503252584 C3.25985266,0.516996029 3.30116276,0.531547911 3.34247285,0.545291355 C3.406058,0.56631074 3.46923815,0.586925906 3.5320133,0.609157948 C3.5761584,0.624518267 3.61989851,0.641495463 3.66404361,0.657664221 C3.72357875,0.679492044 3.78311389,0.701319867 3.84264903,0.723956128 C3.88881914,0.74214598 3.93498925,0.76114427 3.98075435,0.779738342 C4.03664449,0.802374603 4.09212962,0.824202425 4.14761475,0.847647124 C4.19418986,0.867453852 4.24035996,0.888069019 4.28653007,0.908279966 C4.3408002,0.932128883 4.39507033,0.955977801 4.44934046,0.980635157 C4.49591557,1.00205876 4.54208567,1.02388658 4.58825578,1.04571441 C4.64131091,1.0711802 4.69436603,1.09583756 4.74701616,1.12211179 C4.79318626,1.14474805 4.83935637,1.16819275 4.88552648,1.19204166 C4.9373666,1.2183159 4.98961173,1.24499435 5.04104685,1.27248123 C5.08681195,1.29633015 5.13217206,1.32139173 5.17793717,1.34604908 C5.22937229,1.37474863 5.28121241,1.40304395 5.33305253,1.43214772 C5.37841264,1.45801773 5.42296274,1.48388774 5.46791785,1.51016197 C5.51894797,1.53966996 5.56997809,1.56998638 5.62100821,1.60070702 C5.66515331,1.62738547 5.70889342,1.65406392 5.75263352,1.68114659 C5.80487864,1.71429254 5.85752877,1.74743849 5.90977389,1.78098866 C5.95310899,1.80847555 5.99563409,1.83636666 6.03856419,1.86466199 C6.09040431,1.8990206 6.14224443,1.93378343 6.19367956,1.96895047 C6.23579965,1.99765002 6.27710975,2.02634956 6.31882485,2.05504911 C6.37309498,2.09344991 6.4265551,2.13185071 6.48001523,2.17065573 C6.51970532,2.19975949 6.55980042,2.22845903 6.59908551,2.2575628 C6.65376064,2.29838891 6.70803076,2.33961924 6.76230089,2.38165801 C6.79915598,2.40995334 6.83682107,2.43865289 6.87408115,2.46775665 C6.94333632,2.52232621 7.01218648,2.57810842 7.08063164,2.63429485 C7.10412169,2.65410158 7.12842175,2.67269565 7.15231681,2.69209816 C7.24384702,2.76889976 7.33497224,2.8465098 7.42488245,2.92614093 C7.44189249,2.94069281 7.45809253,2.95605313 7.47469757,2.97100923 C7.55205275,3.03932224 7.62819293,3.10884789 7.70433311,3.17918199 C7.73551818,3.20828575 7.76629825,3.23779374 7.79748332,3.26730172 C7.85904347,3.32550925 7.91979361,3.38412099 7.97973375,3.44354118 C8.01213383,3.47466604 8.0437239,3.50619511 8.07490898,3.53772419 C8.14618914,3.60927095 8.21665931,3.68203036 8.28631947,3.75519398 C8.31021453,3.78025556 8.33410959,3.80450869 8.35800464,3.82957027 C8.44953486,3.92698703 8.53985007,4.02561646 8.62935528,4.12626697 C8.69496543,4.20023904 8.76017059,4.27542376 8.82497074,4.35141693 C8.84076578,4.370011 8.85656081,4.38860507 8.87235585,4.40760336 C8.92419597,4.46904464 8.97563109,4.53089014 9.02625621,4.59354407 L9.08336135,4.66306973 C9.14289649,4.7370418 9.20121662,4.81101386 9.25953676,4.88579437 C9.26480177,4.89307031 9.27087679,4.89994203 9.2765468,4.90762219 C9.34256196,4.99331661 9.40817211,5.08022368 9.47297226,5.16793919 C9.49200731,5.1938092 9.51063735,5.22008343 9.52967239,5.24635767 C9.5750325,5.30860738 9.61998761,5.3708571 9.66494271,5.43431947 C9.68802777,5.46786965 9.71151782,5.50141982 9.73500788,5.53537421 C9.77429297,5.59196486 9.81357806,5.64936395 9.85286315,5.70676304 C9.87675821,5.74273853 9.90065327,5.77871401 9.92454832,5.81509372 C9.9573534,5.86440843 9.98934847,5.91412736 10.0217486,5.96425051 C10.0638687,6.02932976 10.1055837,6.09440901 10.1464888,6.16070092 C10.1736239,6.20354812 10.200354,6.24639533 10.226679,6.29005098 C10.2692041,6.35957664 10.3109192,6.42950651 10.3526343,6.49903217 C10.3765294,6.53985828 10.4008294,6.5806844 10.4247245,6.62110629 C10.4721096,6.70316274 10.5182797,6.7856234 10.5644498,6.86848829 C10.5810549,6.89880471 10.5980649,6.92790847 10.6146699,6.95782067 C10.6770401,7.07100198 10.7381952,7.18580016 10.7977304,7.30100255 C10.8511905,7.4044826 10.9038406,7.50836687 10.9556807,7.61305958 C10.9609458,7.62356927 10.9658058,7.63367475 10.9702608,7.64378022 C11.0172409,7.73958011 11.063006,7.83497578 11.1079611,7.93117989 C11.1253761,7.96836803 11.1419812,8.00596039 11.1589912,8.04274432 C11.1909863,8.11348263 11.2233864,8.18341251 11.2545714,8.25455504 C11.2740115,8.29821069 11.2922365,8.34227055 11.3112716,8.38552198 C11.3396216,8.45140967 11.3679717,8.51689314 11.3955118,8.58278082 C11.4149518,8.629266 11.4339869,8.67655962 11.4534269,8.72344902 C11.478942,8.78731561 11.504862,8.85077798 11.5299721,8.91464458 C11.5494121,8.96355507 11.5680422,9.01286978 11.5870772,9.06218449 C11.6109723,9.12524265 11.6352723,9.1883008 11.6583574,9.25176318 C11.6769874,9.30188632 11.6952125,9.35281791 11.7134375,9.40334528 C11.7361176,9.46640343 11.7587976,9.52946159 11.7806677,9.59332818 C11.7984877,9.64466399 11.8159028,9.69640401 11.8337228,9.74814404 C11.8551879,9.81120219 11.8762479,9.87466457 11.896498,9.93853116 C11.913508,9.99107962 11.930113,10.0432239 11.9467181,10.0961765 C11.9669681,10.1600431 11.9868132,10.224314 12.0062532,10.2885848 C12.0224533,10.3415374 12.0382483,10.3944901 12.0536383,10.4474428 C12.0726734,10.5125221 12.0913034,10.5780055 12.1095285,10.643489 C12.1245135,10.6964417 12.1390935,10.7493944 12.1536736,10.8027513 C12.1714936,10.8694474 12.1889086,10.9361435 12.2063237,11.0032439 C12.2196887,11.0557923 12.2334587,11.108745 12.2472288,11.1616977 C12.2642388,11.2304149 12.2804389,11.2991321 12.2970439,11.3682536 C12.3091939,11.4199936 12.321344,11.4717336 12.333494,11.5238779 C12.350099,11.5958288 12.3654891,11.668184 12.3808791,11.7405392 C12.3914091,11.7902581 12.4023441,11.8395729 12.4132792,11.8892918 C12.4294792,11.9685187 12.4444642,12.0477456 12.4598543,12.1269725 C12.4683593,12.1710324 12.4772693,12.214688 12.4853693,12.2583437 C12.5044044,12.3606111 12.5222244,12.4628785 12.5396395,12.5659543 C12.5432845,12.5877821 12.5477395,12.6092057 12.5513845,12.6310335 C12.5538145,12.6467981 12.5558395,12.6629668 12.5586745,12.6787314 C12.5785196,12.7999971 12.5971496,12.921667 12.6145646,13.0437411 C12.6214497,13.0914389 12.6275247,13.1391368 12.6340047,13.1868346 C12.6461547,13.2777839 12.6583047,13.3691373 12.6696448,13.4600866 C12.6761248,13.5154646 12.6821998,13.5712468 12.6882748,13.6262206 C12.6979948,13.7111066 12.7069049,13.7959925 12.7154099,13.881687 C12.7214849,13.9398945 12.7263449,13.9976978 12.7316099,14.0563095 C12.7388999,14.1395786 12.74619,14.223252 12.75267,14.3069253 C12.757935,14.378472 12.763605,14.4500188 12.76806,14.5219698 C12.770895,14.5640085 12.77373,14.6060473 12.77616,14.6480861 C12.78183,14.7414606 12.78669,14.8352394 12.7903351,14.9294225 C12.7919551,14.9593347 12.7935751,14.9888426 12.7947901,15.0191591 C12.8000551,15.1420416 12.8037001,15.2657326 12.8061301,15.3898278 C12.8065351,15.4189316 12.8069401,15.4484396 12.8073451,15.4775433 C12.8093701,15.5903204 12.8109901,15.7022891 12.8109901,15.8146619 C12.8109901,15.918142 12.8101801,16.0212178 12.8085601,16.1242937 C12.8081551,16.1570354 12.8073451,16.1901813 12.8069401,16.2229231 C12.8061301,16.2932572 12.8045101,16.363187 12.8028901,16.4335211 C12.8016751,16.4731346 12.8000551,16.5135565 12.7988401,16.5535742 C12.7968151,16.6166323 12.7947901,16.6792863 12.7923601,16.7419402 C12.7907401,16.7855958 12.7887151,16.828443 12.78669,16.8720987 C12.78426,16.9303062 12.781425,16.9893222 12.778185,17.0479339 C12.77535,17.1029077 12.77211,17.1582857 12.769275,17.2128553 C12.766035,17.2654037 12.762795,17.317548 12.759555,17.3696922 C12.75591,17.4250702 12.752265,17.480044 12.748215,17.535422 C12.7441649,17.5875662 12.7405199,17.6397105 12.7368749,17.6918547 C12.7324199,17.7472327 12.7275599,17.8018023 12.7226999,17.856776 C12.7186499,17.9093245 12.7141949,17.961873 12.7093349,18.0144214 C12.7044749,18.0685868 12.6992098,18.1231563 12.6935398,18.1773217 C12.6882748,18.2306786 12.6838198,18.2836312 12.6781498,18.3369881 C12.6724798,18.3887282 12.6672148,18.4404682 12.6611398,18.4926124 C12.6550647,18.547182 12.6493947,18.6017516 12.6433197,18.6559169 L12.6242847,18.8119454 C12.6182097,18.8661107 12.6113246,18.9202761 12.6044396,18.9744414 C12.5979596,19.0269899 12.5906696,19.0795383 12.5837846,19.1320868 C12.5764946,19.1854437 12.5696095,19.2388006 12.5619145,19.2921575 C12.5546245,19.3459186 12.5469295,19.3992755 12.5388295,19.4522282 C12.5315394,19.5043725 12.5238444,19.5565167 12.5161494,19.6086609 C12.5072394,19.6676769 12.4979244,19.7262887 12.4886093,19.7849004 C12.4809143,19.8342151 12.4732193,19.8835298 12.4655243,19.9324403 L12.4355542,20.1086798 C12.4274542,20.1575903 12.4193542,20.206905 12.4108492,20.2558155 C12.4007241,20.3156399 12.3893841,20.3754643 12.3788541,20.4348845 C12.3699441,20.4825823 12.3618441,20.5298759 12.352529,20.577978 C12.341594,20.6386108 12.329849,20.6996479 12.3176989,20.7606849 C12.3087889,20.8071701 12.2998789,20.8532511 12.2909689,20.8997362 C12.2767939,20.9728999 12.2618088,21.0460635 12.2468238,21.1188229 C12.2391288,21.1547984 12.2322437,21.1907739 12.2249537,21.2267494 C12.2030837,21.3302294 12.1812136,21.4337095 12.1585336,21.5367853 L12.1548886,21.5533583 C12.1309935,21.661689 12.1066935,21.7700196 12.0815834,21.8783503 C12.0734834,21.91473 12.0645734,21.9507055 12.0560683,21.9870852 C12.0390583,22.0594404 12.0224533,22.1313914 12.0050382,22.2033423 C11.9961282,22.2393178 11.9872182,22.2752933 11.9787131,22.3108646 C11.9596781,22.3880704 11.9406431,22.4652762 11.920798,22.5428863 C11.910268,22.5857335 11.898523,22.6289849 11.8875879,22.6718321 C11.8697679,22.741762 11.8515429,22.8116918 11.8333178,22.8812175 C11.8215728,22.92649 11.8094228,22.9717626 11.7968677,23.0174393 C11.7786427,23.0853481 11.7604176,23.1528526 11.7421926,23.2207614 C11.7292326,23.2660339 11.7166775,23.3113065 11.7041225,23.3569832 C11.6850875,23.4257004 11.6652424,23.4944176 11.6458024,23.5631349 C11.6336523,23.6055779 11.6219073,23.6476166 11.6093523,23.6900596 C11.5781672,23.7975819 11.5465771,23.9051041 11.5145821,24.0126263 C11.5109371,24.0235402 11.507697,24.0348584 11.504862,24.0461765 C11.469222,24.1642084 11.4327719,24.2822404 11.3959168,24.4002723 C11.3849818,24.4354393 11.3732367,24.4710106 11.3623017,24.5065819 C11.3359766,24.5902552 11.3092466,24.6735243 11.2825165,24.7567934 C11.2695565,24.7980237 11.2557865,24.8388499 11.2428264,24.879676 C11.2160964,24.9617324 11.1885563,25.0437889 11.1614212,25.1258453 C11.1492712,25.1618208 11.1371212,25.1977963 11.1253761,25.2333675 C11.083256,25.3586754 11.0403259,25.4835791 10.9969908,25.6080785 L10.9706658,25.6824548 C10.9346207,25.7855306 10.8981706,25.8886064 10.8613155,25.9912781 L10.8220304,26.0992045 C10.7819353,26.2091521 10.7418402,26.3190996 10.7009351,26.4282387 C10.6952651,26.4444075 10.6891901,26.460172 10.6831151,26.4763408 C10.63735,26.5996276 10.5903699,26.7229143 10.5433898,26.8453927 C10.5308347,26.8769218 10.5190897,26.9080466 10.5069397,26.9391715 C10.4579346,27.0660962 10.4085245,27.1926168 10.3583043,27.3183288 L10.3392693,27.3656225 C10.2845942,27.5026527 10.229109,27.6388745 10.1732189,27.7750963 C10.1602589,27.8066253 10.1472988,27.8377502 10.1343388,27.8696835 C10.0780437,28.0055011 10.0213436,28.1413186 9.96383342,28.2763277 C9.9585684,28.2888585 9.95370839,28.3005809 9.94844338,28.3123032 C9.89417325,28.4396322 9.83909312,28.5661527 9.78441799,28.6926733 C9.77186296,28.7205644 9.76011794,28.7480513 9.74796791,28.7759424 C9.68033275,28.930354 9.61188759,29.083553 9.54263243,29.236752 C9.5308874,29.2634304 9.51873737,29.2897046 9.50658734,29.3159789 C9.43733218,29.4687736 9.36726701,29.6211642 9.29679685,29.7723421 C9.28545682,29.7965952 9.2745218,29.8208483 9.26277677,29.8446972 C9.1910916,29.9991089 9.11819143,30.1527121 9.04448125,30.3055068 L9.0197762,30.3576511 C8.94242101,30.5169133 8.86547083,30.6761756 8.78730565,30.8342252 C8.78568565,30.8370548 8.78447064,30.8402885 8.78285064,30.8435223 C8.68605541,31.0391642 8.58804518,31.2335935 8.48962995,31.426406 C8.48152993,31.4425747 8.47342991,31.4583393 8.46532989,31.474508 C8.37258468,31.6555981 8.27943446,31.8354755 8.18547424,32.0141403 C8.17494421,32.0343513 8.16441419,32.0549664 8.15307416,32.0755816 C8.06073394,32.2518211 7.96717872,32.4268479 7.8732185,32.600662 L7.84365343,32.65604 C7.7460482,32.8359174 7.64803797,33.0137738 7.55002774,33.1908217 C7.54354773,33.2021398 7.53787771,33.2134579 7.5313977,33.224776 C7.47105256,33.3331067 7.41030241,33.4414374 7.34955227,33.5485554 C7.33497224,33.5752339 7.3199872,33.6011039 7.30500217,33.6273781 C7.25640205,33.7134768 7.20739694,33.7991712 7.15879682,33.8840571 C7.14300179,33.911544 7.12761175,33.9386267 7.11181671,33.9661136 C7.05106657,34.0716147 6.98991143,34.1771159 6.92916128,34.2822128 C6.92025126,34.2971689 6.91134124,34.312125 6.90243122,34.3270811 C6.8493761,34.4184346 6.79591597,34.5089796 6.74245584,34.5995247 C6.72585081,34.62782 6.70884077,34.6569238 6.69183073,34.6852191 C6.6367506,34.7777852 6.58126547,34.8703514 6.52659034,34.9621091 C6.51970532,34.9738314 6.51282031,34.9851495 6.50593529,34.9964677 C6.44437514,35.0987351 6.382815,35.200194 6.32165986,35.3012488 C6.30545982,35.3279272 6.28966478,35.3537972 6.27346474,35.3804757 C6.22405463,35.4613195 6.17423951,35.541759 6.12482939,35.6213902 C6.11065436,35.6448349 6.09688433,35.6678753 6.08270929,35.6905116 C6.02155415,35.7895452 5.95999401,35.8877704 5.89924386,35.9855914 C5.89033384,35.9993349 5.88223382,36.0126741 5.8733238,36.0260133 C5.7882736,36.1622351 5.7028184,36.29684 5.6181732,36.4302323 C5.6157432,36.4342745 5.61331319,36.4383166 5.61088319,36.4419546 C5.52502298,36.5765595 5.43956778,36.7091433 5.35451758,36.8405145 C5.34965757,36.8477904 5.34479756,36.8558748 5.33993755,36.863555 C5.25691235,36.9912882 5.17469716,37.1174045 5.09207697,37.2423081 C5.08235694,37.25686 5.07304192,37.2718161 5.0629169,37.286368 C4.98394171,37.4068252 4.90496653,37.5256656 4.82599134,37.6436975 C4.81384131,37.6618874 4.80169128,37.6800772 4.78994626,37.6978629 C4.71259107,37.8130653 4.63604589,37.9266508 4.55950071,38.0394279 C4.54613568,38.0592346 4.53317565,38.0782329 4.52021562,38.0976354 C4.44407544,38.2096041 4.36874527,38.3195516 4.29382009,38.4286907 C4.28086006,38.4472848 4.26749503,38.4658789 4.25494,38.4844729 C4.17960982,38.5940163 4.10468465,38.7015385 4.03056947,38.8082523 C4.01841944,38.8248253 4.00707942,38.8413983 3.99573939,38.8579712 C3.92000421,38.9658977 3.84507904,39.0726115 3.77015386,39.1781126 C3.75719383,39.1963025 3.7442338,39.2144924 3.73127377,39.2326822 C3.68874867,39.2925066 3.64622357,39.3527352 3.60410347,39.4117512 C3.58709343,39.4356001 3.56967839,39.459449 3.55266835,39.4832979 C3.50487824,39.5499941 3.45708812,39.6158818 3.41010801,39.6813652 C3.403628,39.6906623 3.39674298,39.6999593 3.39026297,39.7092563 C3.33639784,39.7836326 3.28293771,39.8572005 3.22988259,39.9299599 C3.21530256,39.9501708 3.20072252,39.9699776 3.18614249,39.9901885 C3.14523739,40.0459707 3.1047373,40.1013487 3.0646422,40.1563225 C3.05046717,40.175725 3.03588713,40.1951275 3.0217121,40.2141258 C2.96987198,40.2844599 2.91843686,40.3539856 2.86700174,40.423107 C2.86052172,40.4328082 2.85323171,40.4417011 2.84675169,40.4514023 C2.80139158,40.5112267 2.75724648,40.5710511 2.71310138,40.6300671 C2.69852134,40.6490654 2.68434631,40.6684679 2.67017127,40.6874662 C2.62886118,40.74244 2.58755108,40.7974137 2.54664598,40.8515791 C2.53733096,40.8637056 2.52801594,40.8762364 2.51829592,40.8887672 C2.4692908,40.9538465 2.42069069,41.0181173 2.37209057,41.0815797 C2.36075055,41.0961315 2.34981552,41.1106834 2.3388805,41.1252353 C2.30040541,41.1757627 2.26233532,41.2254816 2.22467023,41.2747963 C2.2117102,41.2913693 2.19915517,41.3079423 2.18619514,41.3245152 C2.14002503,41.3851481 2.09344992,41.4449725 2.04808981,41.5035842 C2.04768481,41.5039884 2.04727981,41.5047969 2.04687481,41.5052011 C2.0007047,41.5646213 1.9553446,41.623233 1.90998449,41.6814406 C1.89783446,41.6972051 1.88568443,41.7125654 1.8731294,41.72833 C1.83870432,41.7723898 1.80427924,41.8160455 1.77066416,41.8592969 C1.75972914,41.8730403 1.74879411,41.887188 1.73745408,41.9009314 C1.69492898,41.9550968 1.65280888,42.0084537 1.61149879,42.0610022 C1.60299377,42.0711076 1.59529875,42.0816173 1.58679373,42.092127 C1.55277365,42.1349742 1.51915857,42.1766088 1.48635349,42.2182433 L1.44949841,42.2643243 C1.41669333,42.3051504 1.38388825,42.3463807 1.35189318,42.3863984 C1.34500816,42.3952912 1.33731314,42.4045883 1.33042813,42.4130769 C1.29195304,42.4607747 1.25469295,42.5068556 1.21743286,42.5529366 C1.20690284,42.5662758 1.19596781,42.5796151 1.18503278,42.5929543 C1.15830272,42.6261002 1.13157266,42.6584377 1.1056526,42.6907753 C1.09471757,42.7041145 1.08418755,42.7170495 1.07365752,42.7299845 C1.04085245,42.7700022 1.00885737,42.8096156 0.977267297,42.847208 C0.975242292,42.8504417 0.972407285,42.8536755 0.969977279,42.8569093 C0.9363622,42.8973311 0.903962124,42.9369446 0.871967049,42.9757496 L0.843211982,43.0101082 C0.819316925,43.039212 0.795421869,43.0675073 0.772741816,43.0958026 C0.764236796,43.1055039 0.756136777,43.1156094 0.747631757,43.1257148 C0.717661687,43.1616903 0.688501618,43.1968574 0.65974655,43.231216 C0.656101542,43.2352582 0.652456533,43.2397046 0.648811525,43.244151 C0.623701466,43.273659 0.599401409,43.3027627 0.575506352,43.3314623 C0.567406333,43.3407593 0.559306314,43.3504606 0.551206295,43.3601618 C0.530551247,43.384415 0.510301199,43.4082639 0.490861154,43.4317086 C0.48519114,43.4385803 0.478711125,43.4458563 0.473041112,43.4523238 C0.447931053,43.482236 0.423630996,43.5105313 0.400545941,43.537614 C0.396495932,43.5424646 0.392445922,43.5473152 0.388395913,43.5513574 C0.368955867,43.5743979 0.350730824,43.5966299 0.332505781,43.6180535 C0.326430767,43.624521 0.320355753,43.6313927 0.31509074,43.6378602 C0.2976757,43.6580712 0.28066566,43.6778779 0.264465621,43.6968762 C0.260820613,43.7009184 0.257175604,43.7049606 0.253530596,43.7090028 C0.234495551,43.7312348 0.21708051,43.75185 0.20007047,43.7712525 C0.194805458,43.77772 0.189540445,43.7833791 0.184275433,43.7890381 C0.172935406,43.8027816 0.16159538,43.8157166 0.150660354,43.8282474 C0.145395342,43.8343107 0.139725328,43.8403739 0.134460316,43.8464372 C0.122715288,43.8597764 0.111780263,43.8727115 0.101250238,43.884838 C0.0992252332,43.8876676 0.0963902265,43.8900929 0.0943652218,43.8929224 C0.0818101923,43.9070701 0.0704701656,43.9204093 0.0599401409,43.9321316 C0.0550801294,43.9377907 0.050625119,43.9422371 0.0465751095,43.947492 C0.041715098,43.9527468 0.0368550866,43.9580017 0.0328050771,43.9628523 C0.0198450466,43.9774042 0.00891002094,43.9899349 0,44.0000404 L4.37806029,44.0000404 C4.37846529,43.999232 4.37968029,43.9980193 4.38008529,43.9976151 C4.38535031,43.9915518 4.39102032,43.9854885 4.39750033,43.9778084 C4.40074034,43.9741704 4.40357535,43.9713409 4.40681536,43.9672987 C4.41289037,43.960427 4.41937039,43.9535552 4.4258504,43.9454709 C4.42990041,43.9410245 4.43354542,43.9369823 4.43759543,43.9321316 C4.44853045,43.9204093 4.45946548,43.9070701 4.47202051,43.8929224 C4.47404551,43.8900929 4.47688052,43.8876676 4.47931053,43.884838 C4.48943555,43.8727115 4.50077558,43.8601807 4.5125206,43.8464372 C4.51778562,43.8403739 4.52305063,43.8347149 4.52872064,43.8278432 C4.53925067,43.8157166 4.55059069,43.8031858 4.56233572,43.7894424 C4.56760073,43.7833791 4.57246075,43.77772 4.57813076,43.7712525 C4.5947358,43.75185 4.61296084,43.7312348 4.63159088,43.709407 C4.63523589,43.7049606 4.6388809,43.7005142 4.64293091,43.6960678 C4.65872595,43.6778779 4.67492599,43.6588796 4.69193603,43.6390729 L4.71097107,43.6168409 C4.72879111,43.5958215 4.74701616,43.5743979 4.7660512,43.5521658 C4.77050621,43.5477194 4.77415122,43.5428688 4.77860623,43.537614 C4.80169128,43.5105313 4.82558634,43.482236 4.8506964,43.452728 C4.85677141,43.4458563 4.86284643,43.4385803 4.86892144,43.4317086 C4.88876649,43.4078597 4.90901654,43.3836065 4.93007659,43.3589492 C4.9377716,43.3496521 4.94506162,43.3411635 4.95275664,43.3322707 C4.9766517,43.3035712 5.00135675,43.2744674 5.02687181,43.244151 C5.03011182,43.2397046 5.03375683,43.2352582 5.03780684,43.2308118 C5.0657519,43.1972616 5.09491197,43.1620946 5.12488204,43.1265233 C5.13379206,43.1156094 5.14270209,43.1050997 5.15161211,43.0941858 C5.17429216,43.0666989 5.19737721,43.0388078 5.22127227,43.0105124 C5.23058729,42.9987901 5.24030731,42.987472 5.24962234,42.9757496 C5.28202241,42.9365404 5.31442249,42.8969269 5.34844257,42.8561008 C5.34925257,42.8544839 5.35087257,42.8528671 5.35168258,42.8516544 C5.38448765,42.8116367 5.41810273,42.7708106 5.45212281,42.7291761 C5.46224784,42.7170495 5.47196786,42.7049229 5.48249788,42.6923921 C5.50963295,42.6584377 5.53717301,42.6244834 5.56592808,42.5897205 C5.57200309,42.5816361 5.57848311,42.573956 5.58496312,42.5658716 C5.58779813,42.5618294 5.59144314,42.5577872 5.59427815,42.5545535 C5.63194324,42.5076641 5.66960832,42.4607747 5.70889342,42.4122684 L5.72792846,42.3888237 C5.76073354,42.3479976 5.79394362,42.3059588 5.8279637,42.2639201 C5.83970872,42.248964 5.85226375,42.2336036 5.86441378,42.2182433 C5.89762386,42.1766088 5.93083394,42.1349742 5.96485402,42.092127 C5.97295404,42.0816173 5.98105406,42.0711076 5.98915407,42.0610022 C6.03086917,42.0084537 6.07298927,41.9550968 6.11551437,41.9009314 C6.1264494,41.887188 6.13778942,41.8730403 6.14872445,41.8588927 C6.18233953,41.8164497 6.21635961,41.772794 6.25037969,41.7295426 C6.26293472,41.7129696 6.27589475,41.6968009 6.28885478,41.6802279 C6.33340488,41.6228288 6.37835999,41.5646213 6.4245301,41.5056053 C6.4261501,41.5039884 6.4273651,41.5019674 6.42858011,41.4999463 C6.47313021,41.4429514 6.51808532,41.3843396 6.56344542,41.3257279 C6.57681046,41.3083465 6.59017549,41.2909651 6.60354052,41.2735836 C6.6403956,41.2250774 6.67806069,41.1765711 6.71532078,41.1268522 C6.72747081,41.1114919 6.73881084,41.0961315 6.75055586,41.0807712 C6.79875098,41.0177131 6.84735109,40.9542507 6.89595121,40.8895757 C6.90607623,40.8758322 6.91620125,40.862493 6.92632628,40.849558 C6.96642137,40.7962011 7.00651647,40.74244 7.04742156,40.6882746 C7.0620016,40.6688721 7.07658163,40.6490654 7.09156667,40.6292587 C7.13571177,40.5702427 7.17985687,40.5112267 7.22400198,40.4514023 C7.23129199,40.4417011 7.23817701,40.4328082 7.24546703,40.423107 C7.29649715,40.3539856 7.34793227,40.2844599 7.39977239,40.2141258 C7.41394742,40.1951275 7.42812246,40.175725 7.44229749,40.1563225 C7.48279758,40.1013487 7.52329768,40.0459707 7.56379777,39.9901885 C7.57837781,39.9699776 7.59295784,39.9501708 7.60794288,39.9299599 C7.660998,39.8572005 7.71445813,39.7836326 7.76832326,39.7092563 C7.77480327,39.6999593 7.78128329,39.6910665 7.7881683,39.6817695 C7.83555341,39.6158818 7.88293852,39.5495899 7.93113364,39.4824895 C7.94773868,39.459449 7.96434372,39.4364086 7.98094876,39.4129639 C8.02468886,39.352331 8.06802396,39.2908897 8.11216906,39.2290442 C8.12107908,39.2161092 8.13039411,39.2035784 8.13970913,39.1902392 C8.14213913,39.1870055 8.14497414,39.1829633 8.14740415,39.1793253 C8.22232932,39.0730157 8.2984695,38.9650893 8.37460968,38.8559501 C8.38554471,38.8405898 8.39647973,38.8252295 8.40741476,38.809465 C8.48233993,38.7019427 8.55767011,38.5932078 8.63381029,38.4832603 C8.64596032,38.4650704 8.65851535,38.447689 8.67107038,38.4299034 C8.74640055,38.3199558 8.82254073,38.2087956 8.89868091,38.0964228 L8.936751,38.0410448 C9.01329618,37.9274592 9.09065136,37.8130653 9.16800654,37.6974587 C9.17975157,37.679673 9.1919016,37.6622916 9.20324163,37.644506 C9.28221681,37.5260698 9.362002,37.4068252 9.44138219,37.2859638 C9.45069721,37.2718161 9.46001223,37.2572642 9.46932725,37.2431166 C9.55194745,37.1178087 9.63456764,36.9912882 9.71799784,36.863555 C9.72245285,36.8558748 9.72771786,36.8477904 9.73257787,36.8405145 C9.81762807,36.7091433 9.90308327,36.5765595 9.98853847,36.4419546 C9.99096848,36.4383166 9.99339848,36.4342745 9.99623349,36.4302323 C10.0808787,36.2976485 10.1655239,36.1634478 10.2505741,36.0280344 C10.2562441,36.0187374 10.2619141,36.0094403 10.2679891,36.0005475 C10.2712291,35.9948885 10.2744691,35.9896336 10.2777092,35.984783 C10.3384593,35.8877704 10.3988044,35.7899495 10.4599596,35.6917243 C10.4749446,35.6678753 10.4899297,35.6436222 10.5045097,35.6189649 C10.5531098,35.5405464 10.6013049,35.4617237 10.649905,35.3824968 C10.6665101,35.3546057 10.6835201,35.327523 10.7001251,35.3000361 C10.7612803,35.1997898 10.8224354,35.0987351 10.8831856,34.9972761 C10.8912856,34.9843411 10.8989806,34.9714061 10.9066756,34.9584711 C10.9609458,34.8683303 11.0148109,34.777381 11.068676,34.686836 C11.0860911,34.657328 11.1035061,34.6274158 11.1213261,34.5979078 C11.1735713,34.5089796 11.2262214,34.4204557 11.2784665,34.3307191 C11.2881865,34.3141461 11.2979066,34.2975731 11.3072216,34.2810001 C11.3683767,34.1771159 11.4287219,34.072019 11.489472,33.9673262 C11.505672,33.9390309 11.5218721,33.9107356 11.5380721,33.8824403 C11.5858622,33.7987669 11.6340573,33.7142852 11.6818475,33.6298034 L11.7280176,33.547747 C11.7883627,33.4410332 11.8487078,33.3335109 11.909053,33.2255845 C11.911483,33.2207339 11.914318,33.215479 11.917153,33.2106284 C11.921203,33.2037567 11.924848,33.1964807 11.928493,33.189609 C12.0265033,33.0133695 12.1241085,32.8355132 12.2209037,32.6564442 C12.2314337,32.6374459 12.2411538,32.6188519 12.2512788,32.6002578 C12.345239,32.4264436 12.4383892,32.2514168 12.5315394,32.0755816 L12.5635345,32.0141403 C12.6570897,31.8358798 12.75024,31.6564065 12.8425802,31.4753165 C12.8510852,31.4587435 12.8595902,31.4421705 12.8680952,31.4255975 C12.9661055,31.2335935 13.0633057,31.0395684 13.1601009,30.8447349 C13.1609109,30.8423096 13.1625309,30.8394801 13.1637459,30.8366505 C13.1641509,30.8354379 13.1649609,30.8346294 13.1653659,30.8334168 C13.2435311,30.6757714 13.3208863,30.5169133 13.3974315,30.3576511 L13.4225415,30.3055068 C13.4962517,30.1527121 13.5687469,29.9987047 13.6412421,29.844293 C13.6521771,29.8204441 13.6635171,29.7965952 13.6748571,29.7727463 C13.7453273,29.6211642 13.8153925,29.4691778 13.8846476,29.3159789 C13.8967977,29.2893004 13.9085427,29.2634304 13.9202877,29.236752 C13.9891379,29.0839572 14.057583,28.9307582 14.1252182,28.7767508 C14.1300782,28.7654327 14.1349382,28.7553272 14.1393932,28.7444133 C14.1474932,28.7270319 14.1551883,28.7092462 14.1624783,28.6914606 C14.2175584,28.5657485 14.2718285,28.4400364 14.3256937,28.3135159 C14.3309587,28.3013893 14.3366287,28.2888585 14.3418937,28.2759235 C14.3989988,28.1409144 14.456104,28.0055011 14.5119941,27.8696835 C14.5253591,27.8377502 14.5383192,27.8066253 14.5508742,27.7750963 C14.6071693,27.6388745 14.6622495,27.5022485 14.7173296,27.3656225 C14.7234046,27.3502621 14.7294796,27.3349018 14.7355546,27.3195415 C14.7857747,27.193021 14.8355899,27.0652878 14.885,26.9379588 C14.89229,26.919769 14.899175,26.9019833 14.906465,26.8837935 C14.911325,26.8712627 14.9157801,26.8591361 14.9206401,26.8462011 C14.9680252,26.7233186 15.0154103,26.6000318 15.0611754,26.4763408 C15.0672504,26.460172 15.0729204,26.4444075 15.0789954,26.4282387 C15.1194955,26.3190996 15.1599956,26.2095563 15.2000907,26.100013 L15.2389708,25.9908738 C15.2762309,25.8882022 15.312681,25.7855306 15.3487261,25.6824548 L15.3746461,25.6080785 C15.4183862,25.4831748 15.4613163,25.3582712 15.5038414,25.2325591 C15.5066764,25.2228578 15.5103214,25.2127524 15.5139665,25.2026469 C15.5224715,25.1775853 15.5301665,25.152928 15.5386715,25.1278664 C15.5662116,25.0450015 15.5937516,24.9621366 15.6208867,24.8788675 C15.6342517,24.8388499 15.6472118,24.7980237 15.6601718,24.7571976 C15.6873069,24.6739285 15.7140369,24.5902552 15.740362,24.5065819 C15.751702,24.4710106 15.762637,24.4354393 15.7739771,24.4002723 C15.8104272,24.2822404 15.8468772,24.1642084 15.8825173,24.0457723 C15.8857573,24.0352626 15.8885923,24.0251571 15.8918323,24.0146474 C15.9242324,23.9063167 15.9562275,23.7979861 15.9878176,23.6892512 C15.9914626,23.6767204 15.9955126,23.6641896 15.9987526,23.6516588 C16.0072576,23.6229593 16.0149526,23.5938555 16.0234577,23.5647517 C16.0433027,23.4952261 16.0627427,23.4257004 16.0821828,23.356579 C16.0951428,23.3113065 16.1072929,23.2660339 16.1198479,23.2211656 C16.1384779,23.1532569 16.156703,23.0853481 16.174928,23.0174393 C16.187078,22.9717626 16.1992281,22.92649 16.2113781,22.8812175 C16.2296031,22.8120961 16.2478282,22.7425704 16.2652432,22.673449 C16.2765832,22.6297933 16.2879233,22.5857335 16.2992633,22.5420778 C16.3178933,22.4660847 16.3369284,22.3900915 16.3555584,22.3136941 C16.3632535,22.2833777 16.3705435,22.2534655 16.3782385,22.2231491 L16.3830985,22.2029381 C16.4001085,22.1321998 16.4167136,22.0618657 16.4333186,21.9915316 C16.4418236,21.953535 16.4511387,21.9159427 16.4596437,21.8779461 C16.4847537,21.7700196 16.5090538,21.661689 16.5329489,21.5537625 C16.5349739,21.5448697 16.5361889,21.5367853 16.5382139,21.5282967 C16.5600839,21.4276462 16.581954,21.3273999 16.603014,21.2271536 C16.610304,21.1895612 16.6179991,21.1523731 16.6252891,21.1151849 C16.6398691,21.0436382 16.6544491,20.9720914 16.6690292,20.9001405 C16.6706492,20.8932687 16.6714592,20.886397 16.6730792,20.8795253 C16.6811792,20.838295 16.6884692,20.7974689 16.6965692,20.7566427 C16.7079093,20.6972226 16.7196543,20.6378024 16.7305893,20.5783822 C16.7394993,20.5294717 16.7484094,20.4805612 16.7569144,20.4316507 C16.7678494,20.3734432 16.7783794,20.3148314 16.7885045,20.2566239 C16.7974145,20.2065008 16.8055145,20.1563776 16.8140195,20.1062545 C16.8237395,20.0484512 16.8338646,19.9906478 16.8427746,19.9332488 C16.8512796,19.8831256 16.8589746,19.8330025 16.8670746,19.7828793 C16.8759847,19.7246718 16.8852997,19.6672727 16.8938047,19.6094694 C16.8958297,19.5957259 16.8982597,19.5815783 16.9002847,19.5674306 C16.9063597,19.5290298 16.9116247,19.4898206 16.9172948,19.4510156 C16.9245848,19.3984671 16.9326848,19.3455144 16.9403798,19.2925617 C16.9472648,19.2392048 16.9545548,19.1858479 16.9614399,19.1328952 C16.9687299,19.0795383 16.9756149,19.0269899 16.9824999,18.9740372 C16.9893849,18.9206803 16.9954599,18.8673234 17.002345,18.8139665 C17.00842,18.7610138 17.0149,18.7084654 17.02138,18.6551085 L17.0392,18.4950378 C17.0444651,18.4416809 17.0505401,18.3887282 17.0562101,18.3361797 C17.0578301,18.322032 17.0590451,18.3082886 17.0602601,18.2945452 C17.0643101,18.2561444 17.0679551,18.2181478 17.0716001,18.179747 C17.0768651,18.1239648 17.0821301,18.0685868 17.0873952,18.013613 C17.0922552,17.961873 17.0963052,17.9097287 17.1007602,17.8579887" id="Fill-3" fill="#FCBA06" mask="url(#mask-2)"></path>
                </g>
                <path d="M12.8113951,24.7008899 C8.83793077,24.7008899 5.6169582,20.724184 5.6169582,15.8193913 C5.6169582,10.9145986 8.83793077,6.93870112 12.8113951,6.93870112 C16.7848594,6.93870112 20.005427,10.9145986 20.005427,15.8193913 C20.005427,20.724184 16.7848594,24.7008899 12.8113951,24.7008899 M12.8113951,0.00028295326 C5.73562348,0.00028295326 0,7.08058197 0,15.8149449 C0,28.3356267 12.1706836,43.2169471 12.8113951,43.9999192 C13.4517016,43.2743462 25.6223852,29.4888633 25.6223852,15.8149449 C25.6223852,7.08058197 19.8867617,0.00028295326 12.8113951,0.00028295326" id="Fill-6" fill="#FFD03E"></path>
            </g>
        </g>
    </g>
</svg>