<?xml version="1.0" encoding="utf-8"?>
<!-- Generator: Adobe Illustrator 24.3.0, SVG Export Plug-In . SVG Version: 6.00 Build 0)  -->
<svg version="1.1" id="레이어_1" xmlns="http://www.w3.org/2000/svg" xmlns:xlink="http://www.w3.org/1999/xlink" x="0px"
	 y="0px" viewBox="0 0 20 20" style="enable-background:new 0 0 20 20;" xml:space="preserve">
<style type="text/css">
	.st0{fill:#3E5366;}
</style>
<g id="ico_user" transform="translate(241.75 38)">
	<path id="패스_53" class="st0" d="M-231.8-38c-5.5,0-10,4.5-10,10l0,0c0,5.5,4.5,10,10,10l0,0c5.5,0,10-4.5,10-10l0,0
		C-221.8-33.5-226.2-38-231.8-38L-231.8-38z M-227.3-23.2c-0.1,0.8-2.3,1.2-4.4,1.1c-2.1,0-4.3-0.3-4.4-1.1
		c-0.2-1.6,0.3-2.3,1.2-2.5c0.7-0.1,1.8-0.8,1.8-1.2v-0.8c-0.1-0.5-0.3-0.9-0.6-1.4c0,0-0.1,0-0.2-0.1c-0.1-0.2-0.2-0.5-0.3-0.7
		c-0.1-0.3,0.2-0.3,0.2-0.3c-0.1-0.7-0.1-1.4,0-2.1c0.4-1,1.3-1.6,2.3-1.7c1,0.1,1.9,0.7,2.3,1.7c0.1,0.7,0.1,1.4,0,2.1
		c0,0,0.3,0,0.2,0.3c0,0.3-0.1,0.5-0.3,0.7c-0.1,0.1-0.2,0.1-0.2,0.1c-0.2,0.4-0.4,0.9-0.6,1.4v0.8c0,0.3,1,1,1.8,1.2
		C-227.6-25.5-227.1-24.9-227.3-23.2L-227.3-23.2z"/>
</g>
</svg>
