<svg xmlns="http://www.w3.org/2000/svg" id="그룹_416" width="23" height="16" viewBox="0 0 23 16">
    <defs>
        <style>
            .cls-1{fill:#fff}
        </style>
    </defs>
    <path id="패스_371" d="M21.357 0H1.643A1.624 1.624 0 0 0 0 1.6v12.8A1.624 1.624 0 0 0 1.643 16h19.714A1.624 1.624 0 0 0 23 14.4V1.6A1.624 1.624 0 0 0 21.357 0zm.821 14.4a.812.812 0 0 1-.821.8H1.643a.812.812 0 0 1-.821-.8V1.6a.812.812 0 0 1 .821-.8h19.714a.812.812 0 0 1 .821.8z" class="cls-1"/>
    <path id="패스_372" d="M20.879 2.117a.423.423 0 0 0-.584 0l-5.781 5.6-2.427 2.35a.847.847 0 0 1-1.169 0L8.49 7.72l-5.781-5.6a.423.423 0 0 0-.584 0 .392.392 0 0 0 0 .566L7.611 8l-5.49 5.317a.392.392 0 0 0 0 .566.424.424 0 0 0 .292.117.418.418 0 0 0 .292-.117L8.2 8.566l2.136 2.068a1.691 1.691 0 0 0 2.336 0L14.8 8.566l5.49 5.317a.424.424 0 0 0 .292.117.418.418 0 0 0 .292-.117.392.392 0 0 0 0-.566L15.389 8l5.49-5.317a.392.392 0 0 0 0-.566z" class="cls-1"/>
</svg>
