<svg xmlns="http://www.w3.org/2000/svg" width="16" height="16" viewBox="0 0 16 16">
    <path fill="#fff" d="M-233.8-38a8.024 8.024 0 0 0-8 8 8.024 8.024 0 0 0 8 8 8.024 8.024 0 0 0 8-8 7.972 7.972 0 0 0-8-8zm3.6 11.84c-.08.64-1.84.96-3.52.88-1.68 0-3.44-.24-3.52-.88-.16-1.28.24-1.84.96-2 .56-.08 1.44-.64 1.44-.96v-.64a3.388 3.388 0 0 0-.48-1.12.248.248 0 0 1-.16-.08c-.08-.16-.16-.4-.24-.56a.164.164 0 0 1 .16-.24 5.909 5.909 0 0 1 0-1.68 2.181 2.181 0 0 1 1.84-1.36 2.181 2.181 0 0 1 1.84 1.36 5.909 5.909 0 0 1 0 1.68.164.164 0 0 1 .16.24.726.726 0 0 1-.24.56.248.248 0 0 1-.16.08c-.16.32-.32.72-.48 1.12v.64c0 .24.8.8 1.44.96.72.16 1.12.64.96 2z" transform="translate(241.8 38)"/>
</svg>
