<?xml version="1.0" encoding="utf-8"?>
<!-- Generator: Adobe Illustrator 24.3.0, SVG Export Plug-In . SVG Version: 6.00 Build 0)  -->
<svg version="1.1" id="레이어_1" xmlns="http://www.w3.org/2000/svg" xmlns:xlink="http://www.w3.org/1999/xlink" x="0px"
	 y="0px" viewBox="0 0 29 23" style="enable-background:new 0 0 29 23;" xml:space="preserve">
<style type="text/css">
	.st0{fill:#3E5366;}
</style>
<g id="ico_MINDsLab" transform="translate(-135.554 -156.282)">
	<path id="패스_9" class="st0" d="M154.2,167L154.2,167l-2.4,2.4c1.4,1.7,1.2,4.3-0.6,5.7c-0.6,0.5-1.4,0.8-2.2,0.9
		c-0.1,0-0.3,0-0.4,0c-2.3,0-4.1-1.8-4.1-4s1.9-4,4.1-4c1,0,1.9,0.3,2.6,0.9l2.4-2.4l0,0c-0.1-0.1-0.2-0.2-0.3-0.3
		c-2.8-2.1-6.6-2.1-9.4,0c-0.1,0.1-0.2,0.2-0.3,0.2c0,0-0.1,0.1-0.1,0.1l-0.1,0.1l0,0c-0.1,0.1-0.1,0.1-0.2,0.2s-0.1,0.1-0.2,0.2
		c-0.1,0.1-0.1,0.1-0.2,0.2c0,0.1-0.1,0.1-0.1,0.1c-2.6,3.2-2.1,7.8,1.2,10.4c3.3,2.5,8,2,10.6-1.1c2.2-2.7,2.2-6.5,0-9.2
		c-0.1-0.1-0.1-0.1-0.2-0.2L154.2,167z"/>
	<path id="패스_10" class="st0" d="M159.9,156.3c-2.6,0-4.7,2.1-4.7,4.6c0,0.9,0.3,1.8,0.8,2.5l-2.8,2.7l0,0
		c0.1,0.1,0.2,0.2,0.3,0.3l0,0l0,0l2.7-2.6l0,0l1.6-1.5c-0.8-1.1-0.5-2.6,0.6-3.4s2.7-0.5,3.5,0.6s0.5,2.6-0.6,3.4
		c-0.3,0.2-0.7,0.4-1,0.4c-0.1,0-0.3,0-0.4,0c-0.5,0-1-0.2-1.4-0.4l-1.6,1.5l0,0l-2.7,2.6l0,0l0.1,0.1c0.1,0.1,0.1,0.1,0.2,0.2
		c0,0,0,0.1,0.1,0.1l2.8-2.7c2.2,1.4,5.1,0.8,6.5-1.3s0.8-4.9-1.3-6.3C161.7,156.5,160.8,156.3,159.9,156.3L159.9,156.3z"/>
	<path id="패스_11" class="st0" d="M143.1,165.3L143.1,165.3c1.2-1.8,0.6-4.3-1.3-5.4c-1.9-1.1-4.4-0.6-5.6,1.3s-0.6,4.3,1.3,5.4
		c1.3,0.8,3,0.8,4.3,0h0l0.8,0.8l0,0c0,0,0-0.1,0.1-0.1c0-0.1,0.1-0.1,0.1-0.1c0,0,0,0,0.1-0.1l0,0l0.1-0.1l0,0l0,0l-0.8-0.7l0,0
		l-1.3-1.3c-1,0.7-2.4,0.4-3.1-0.6c-0.7-1-0.4-2.3,0.6-3s2.4-0.4,3.1,0.6c0.5,0.7,0.5,1.7,0,2.4l1.3,1.3l0,0l0.8,0.7l0,0l0,0l0,0
		l0,0c0,0,0,0,0.1,0c0.1-0.1,0.2-0.2,0.3-0.2c0,0,0,0,0.1,0l0,0l0,0L143.1,165.3z"/>
</g>
</svg>
