<svg width="31" height="31" viewBox="0 0 31 31" fill="none" xmlns="http://www.w3.org/2000/svg">
<path fill-rule="evenodd" clip-rule="evenodd" d="M13.1739 25.5386C13.1759 25.4899 13.179 25.441 13.179 25.392C13.1792 22.4407 13.1792 19.4892 13.1792 16.5379V16.4249H13.053H10.2291C10.0983 16.4249 10.0979 16.4246 10.0979 16.2989C10.0979 15.1942 10.0991 14.0894 10.0955 12.9847C10.0952 12.8837 10.1259 12.8585 10.2236 12.859C11.1649 12.8626 12.1064 12.8611 13.0477 12.8611H13.1792V12.7543C13.1809 11.8358 13.1737 10.9174 13.1871 9.99913C13.1979 9.26041 13.3403 8.5452 13.6628 7.87464C14.1003 6.96456 14.7872 6.31417 15.7208 5.92633C16.3453 5.66713 16.9983 5.54617 17.6708 5.55625C18.4415 5.56801 19.2121 5.60256 19.9827 5.63016C20.126 5.6352 20.2686 5.65969 20.4119 5.66689C20.4915 5.67121 20.5187 5.70072 20.5182 5.7804C20.5153 6.23808 20.5167 6.69553 20.5167 7.15321C20.5167 7.69249 20.5146 8.23176 20.5187 8.77104C20.5191 8.86488 20.4923 8.89369 20.3977 8.89297C19.8126 8.88913 19.2272 8.88193 18.6426 8.89513C18.3769 8.90137 18.1074 8.93017 17.8479 8.98705C17.3471 9.09697 17.0507 9.42793 16.9511 9.92545C16.911 10.1258 16.8884 10.3327 16.8863 10.5367C16.8788 11.285 16.8831 12.0336 16.8831 12.7824C16.8831 12.8045 16.886 12.8268 16.8882 12.8611H17.0159H20.2515C20.3929 12.8611 20.3951 12.8616 20.3778 12.9953C20.3012 13.5838 20.2223 14.1722 20.1469 14.7607C20.0835 15.2525 20.0219 15.7442 19.9631 16.2365C19.9405 16.4244 19.9451 16.4249 19.7564 16.4249H17.0108H16.8829V16.567V25.3234C16.8829 25.3949 16.8812 25.4669 16.8805 25.5386H13.1739Z" fill="#D2D8F7"/>
</svg>
