<?xml version="1.0" encoding="utf-8"?>
<!-- Generator: Adobe Illustrator 16.0.0, SVG Export Plug-In . SVG Version: 6.00 Build 0)  -->
<!DOCTYPE svg PUBLIC "-//W3C//DTD SVG 1.1//EN" "http://www.w3.org/Graphics/SVG/1.1/DTD/svg11.dtd">
<svg version="1.1" id="레이어_1" xmlns="http://www.w3.org/2000/svg" xmlns:xlink="http://www.w3.org/1999/xlink" x="0px"
	 y="0px" width="40px" height="40px" viewBox="0 0 40 40" enable-background="new 0 0 40 40" xml:space="preserve">
<g>
	<path fill="#FFFFFF" d="M31.857,15.702c-0.926,0-1.676,0.75-1.676,1.674c0,5.615-4.566,10.185-10.182,10.185
		c-5.617,0-10.184-4.569-10.184-10.185c0-0.924-0.75-1.674-1.674-1.674c-0.927,0-1.677,0.75-1.677,1.674
		c0,6.895,5.188,12.589,11.859,13.417v3.452v0.64v3.349c0,0.924,0.75,1.675,1.674,1.675c0.924,0,1.674-0.751,1.674-1.675h0.004
		v-3.349v-0.886v-3.206c6.67-0.828,11.859-6.522,11.859-13.417C33.535,16.452,32.783,15.702,31.857,15.702z"/>
	<path fill="#FFFFFF" d="M20,24.841c4.101,0,7.441-3.338,7.441-7.451V7.451c0-4.114-3.34-7.451-7.443-7.451
		c-4.102,0-7.444,3.337-7.444,7.451v9.938C12.554,21.503,15.896,24.841,20,24.841z"/>
</g>
</svg>
