<svg xmlns="http://www.w3.org/2000/svg" width="24" height="24" viewBox="0 0 24 24">
    <defs>
        <style>
            .cls-3{fill:#73d7ff}.cls-4{fill:#003575}
        </style>
    </defs>
    <g id="ico_price_24px" transform="translate(-84 -437)">
        <path id="사각형_1727" fill="none" d="M0 0H24V24H0z" transform="translate(84 437)"/>
        <g id="그룹_2120" transform="translate(-29.368 320.196)">
            <path id="패스_2354" fill="#fff" d="M122.188 147.292l2.784-1.336 1.818.635 1.137 1.184 2.926.142.966.767.313.989 4.858-.989 1.307.284.284 1.193-8.069 3.125-8.5-2.245z" transform="translate(-3.627 -14.809)"/>
            <path id="사각형_1726" d="M0 0H2.415V8.58H0z" class="cls-3" transform="translate(115.834 129.585)"/>
            <circle id="타원_215" cx="5.474" cy="5.474" r="5.474" class="cls-3" transform="translate(123.722 119.586)"/>
            <g id="그룹_2119" transform="translate(115.368 118.804)">
                <path id="패스_2355" d="M143.727 130.144a.9.9 0 0 1-.861-.525.43.43 0 0 0-.4-.277.431.431 0 0 0-.391.253.425.425 0 0 0-.01.328 1.717 1.717 0 0 0 1.1 1.013.209.209 0 0 1 .147.2v.092a.429.429 0 0 0 .857 0v-.121a.209.209 0 0 1 .14-.2 1.745 1.745 0 0 0 .6-.35 1.6 1.6 0 0 0 .539-1.2c0-.417-.2-1.2-1.547-1.727-.375-.147-1-.464-1-.928a.747.747 0 0 1 .257-.561.961.961 0 0 1 1.466.306.431.431 0 0 0 .4.277.428.428 0 0 0 .4-.58 1.717 1.717 0 0 0-1.1-1.013.209.209 0 0 1-.147-.2v-.091a.429.429 0 1 0-.857 0v.12a.209.209 0 0 1-.14.2 1.745 1.745 0 0 0-.6.35 1.6 1.6 0 0 0-.539 1.2c0 .417.2 1.2 1.547 1.726.376.147 1 .464 1 .928a.748.748 0 0 1-.257.561.9.9 0 0 1-.604.219z" class="cls-4" transform="translate(-129.913 -121.866)"/>
                <path id="패스_2356" d="M132.644 125.819a.431.431 0 0 0-.421.526 6.01 6.01 0 0 0 .2.688 6.2 6.2 0 1 0 3.809-7.878.429.429 0 0 0 .14.834.42.42 0 0 0 .143-.025 5.45 5.45 0 0 1 1.8-.3 5.315 5.315 0 1 1-5.08 7.082 5.128 5.128 0 0 1-.173-.591.43.43 0 0 0-.418-.336z" class="cls-4" transform="translate(-124.555 -118.804)"/>
                <path id="패스_2357" d="M132.641 121.7a.429.429 0 0 0 .429-.429v-.638a.429.429 0 0 0-.857 0v.638a.429.429 0 0 0 .428.429z" class="cls-4" transform="translate(-124.555 -119.57)"/>
                <path id="패스_2358" d="M132.641 128.722a.429.429 0 0 0 .429-.429v-.638a.429.429 0 1 0-.857 0v.638a.429.429 0 0 0 .428.429z" class="cls-4" transform="translate(-124.555 -123.397)"/>
                <path id="패스_2359" d="M135.448 125.276h.638a.429.429 0 0 0 0-.858h-.638a.429.429 0 0 0 0 .858z" class="cls-4" transform="translate(-126.086 -121.866)"/>
                <path id="패스_2360" d="M128.43 125.276h.638a.429.429 0 0 0 0-.858h-.638a.429.429 0 0 0 0 .858z" class="cls-4" transform="translate(-122.258 -121.866)"/>
                <path id="패스_2361" d="M133.646 145.527a3.31 3.31 0 0 0-.8.111c-.361.091-.732.2-1.091.3l-.045.013a21.908 21.908 0 0 1-2.585.606h-.032a.209.209 0 0 1-.2-.155 2.37 2.37 0 0 0-2.508-1.653 5.007 5.007 0 0 0-.674.048 4.3 4.3 0 0 1-.584.045 1.644 1.644 0 0 1-1.52-.794 2.024 2.024 0 0 0-.648-.616 2.506 2.506 0 0 0-1.164-.251 6.276 6.276 0 0 0-2.707.743.205.205 0 0 1-.1.024.21.21 0 0 1-.21-.21v-2.042a.429.429 0 0 0-.429-.429H115.8a.429.429 0 0 0-.429.429v8.934a.429.429 0 0 0 .429.428h2.552a.429.429 0 0 0 .429-.428v-1.247a.21.21 0 0 1 .21-.21.207.207 0 0 1 .064.01c1.754.564 5.988 1.874 7.421 1.874 1.527 0 6.989-1.974 8.553-2.971.155-.1.624-.4.114-1.6a1.492 1.492 0 0 0-1.497-.959zm-15.726 4.46a.209.209 0 0 1-.209.209h-1.276a.209.209 0 0 1-.209-.209v-7.658a.209.209 0 0 1 .209-.209h1.276a.209.209 0 0 1 .209.209zm16.468-2.522c-1.718 1-6.749 2.731-7.916 2.731-1.476 0-6.932-1.76-7.549-1.96a.21.21 0 0 1-.145-.2v-2.712c0-.234.356-.447.357-.448a5.562 5.562 0 0 1 2.655-.845 1.656 1.656 0 0 1 .764.156 1.383 1.383 0 0 1 .366.383 2.446 2.446 0 0 0 2.205 1.124 5.066 5.066 0 0 0 .7-.052 4.09 4.09 0 0 1 .555-.04 1.79 1.79 0 0 1 1.428.539 1.22 1.22 0 0 1 .286.73.209.209 0 0 1-.13.2l-.265.11-.017.007a4.982 4.982 0 0 1-1.462.455.56.56 0 0 1-.146-.017c-.355-.1-1.773-.493-2.912-.813l-1.068-.3a.447.447 0 0 0-.117-.016.431.431 0 0 0-.412.314.425.425 0 0 0 .295.528l1.149.322c1.111.312 2.493.7 2.84.793a1.384 1.384 0 0 0 .355.043 5.3 5.3 0 0 0 1.833-.526c.153-.065.312-.131.445-.18a.634.634 0 0 0 .312-.26.208.208 0 0 1 .15-.093 20.492 20.492 0 0 0 3-.668c.366-.1.745-.208 1.118-.3a2.465 2.465 0 0 1 .594-.089.646.646 0 0 1 .691.439 2.769 2.769 0 0 1 .145.417.21.21 0 0 1-.104.227z" class="cls-4" transform="translate(-115.368 -131.053)"/>
            </g>
        </g>
    </g>
</svg>
