<?xml version="1.0" encoding="utf-8"?>
<!-- Generator: Adobe Illustrator 16.0.0, SVG Export Plug-In . SVG Version: 6.00 Build 0)  -->
<!DOCTYPE svg PUBLIC "-//W3C//DTD SVG 1.1//EN" "http://www.w3.org/Graphics/SVG/1.1/DTD/svg11.dtd">
<svg version="1.1" id="레이어_1" xmlns="http://www.w3.org/2000/svg" xmlns:xlink="http://www.w3.org/1999/xlink" x="0px"
	 y="0px" width="40px" height="40px" viewBox="0 0 40 40" enable-background="new 0 0 40 40" xml:space="preserve">
<path fill="#FFFFFF" d="M14.483,8.803V2.168h-0.075c-0.277,0-0.542,0.11-0.738,0.306L6.961,9.183
	C6.766,9.379,6.656,9.644,6.656,9.921v0.074h6.635C13.948,9.995,14.483,9.461,14.483,8.803z"/>
<path fill="#FFFFFF" d="M30.063,2.168H16.919v6.635c0,1.808-1.82,3.627-3.628,3.627H6.656v22.091c0,1.808,1.471,3.28,3.28,3.28
	h20.128c1.803,0,3.281-1.458,3.281-3.28V5.448C33.345,3.645,31.886,2.168,30.063,2.168z M27.38,25.27
	c-0.577,0.578-1.513,0.579-2.091,0l-3.811-3.81v10.684c0,0.816-0.662,1.479-1.479,1.479c-0.817,0-1.479-0.662-1.479-1.479V21.46
	l-3.811,3.81c-0.577,0.578-1.514,0.578-2.091,0c-0.577-0.576-0.577-1.512,0-2.09l6.336-6.335c0.577-0.578,1.513-0.578,2.09,0
	l6.335,6.335C27.958,23.758,27.958,24.693,27.38,25.27z"/>
</svg>
