<svg xmlns="http://www.w3.org/2000/svg" width="24" height="24" viewBox="0 0 24 24">
    <defs>
        <style>
            .cls-3{fill:#fff}.cls-4{fill:#003675}
        </style>
    </defs>
    <g id="ico_service_24px" transform="translate(-44 -175)">
        <path id="사각형_1688" fill="none" d="M0 0H24V24H0z" transform="translate(44 175)"/>
        <g id="그룹_2084" transform="translate(-22.315 -69.49)">
            <path id="사각형_1687" fill="#00aeee" d="M0 0h18.282v13.486a1 1 0 0 1-1 1H0V0z" opacity="0.527" transform="translate(69.359 247.349)"/>
            <path id="패스_2309" d="M91.911 267.054l5.537 1.324-1.11 1.253 2.548 2.647-1.779 1.779-2.847-2.334-1.11 1.11z" class="cls-3" transform="translate(-12.788 -11.227)"/>
            <g id="그룹_2082" transform="translate(74.454 253.091)">
                <path id="패스_2310" d="M88.22 261.018h-5.115a1.486 1.486 0 0 0-.063 2.97h5.242a1.486 1.486 0 0 0-.064-2.97z" class="cls-3" transform="translate(-81.617 -261.018)"/>
            </g>
            <g id="그룹_2083" transform="translate(68.5 246.49)">
                <path id="패스_2311" d="M86.968 246.49H70.032a1.534 1.534 0 0 0-1.532 1.532v13.107a1.534 1.534 0 0 0 1.532 1.532h5.278a.21.21 0 0 1 .21.21c0 1.819-.628 2.506-.9 2.717a.208.208 0 0 1-.129.045h-1.734a.429.429 0 1 0 0 .857h11.486a.429.429 0 1 0 0-.857h-1.736a.207.207 0 0 1-.125-.042 2.8 2.8 0 0 1-.875-2.114.419.419 0 0 0-.41-.394h-.054a.43.43 0 0 0-.39.464 4.917 4.917 0 0 0 .463 1.779.21.21 0 0 1-.188.3h-4.853a.21.21 0 0 1-.188-.3 5.5 5.5 0 0 0 .489-2.459.21.21 0 0 1 .21-.21H78.5a.429.429 0 1 0 0-.857h-8.468a.676.676 0 0 1-.675-.675v-13.103a.676.676 0 0 1 .675-.675h16.936a.676.676 0 0 1 .675.675v13.107a.429.429 0 1 0 .857 0v-13.107a1.534 1.534 0 0 0-1.532-1.532z" class="cls-4" transform="translate(-68.5 -246.49)"/>
                <path id="패스_2312" d="M82.078 259.984h5.115a1.49 1.49 0 0 1 1.488 1.489.43.43 0 0 0 .859 0 2.348 2.348 0 0 0-2.348-2.347h-5.114a2.347 2.347 0 0 0 0 4.695h.639a.429.429 0 0 0 0-.859h-.639a1.489 1.489 0 1 1 0-2.977z" class="cls-4" transform="translate(-74.636 -253.385)"/>
                <path id="패스_2313" d="M96.621 269.279a.21.21 0 0 1 0-.3l.827-.827a.43.43 0 0 0-.211-.723l-5.753-1.279a.432.432 0 0 0-.093-.01.43.43 0 0 0-.42.523l1.278 5.754a.43.43 0 0 0 .3.319.442.442 0 0 0 .119.017.432.432 0 0 0 .3-.126l.827-.827a.21.21 0 0 1 .3 0l2.105 2.106a.43.43 0 0 0 .608 0l1.918-1.918a.431.431 0 0 0 0-.608zm1.046 2.557l-1.014 1.014a.21.21 0 0 1-.3 0l-2.105-2.106a.43.43 0 0 0-.608 0l-.455.455a.211.211 0 0 1-.148.061.2.2 0 0 1-.059-.008.211.211 0 0 1-.146-.156l-.808-3.636a.21.21 0 0 1 .2-.255.222.222 0 0 1 .046.005l3.636.808a.21.21 0 0 1 .1.353l-.455.455a.429.429 0 0 0 0 .607l2.105 2.106a.21.21 0 0 1 .011.297z" class="cls-4" transform="translate(-80.77 -257.221)"/>
            </g>
        </g>
    </g>
</svg>
