<?xml version="1.0" encoding="utf-8"?>
<!-- Generator: Adobe Illustrator 18.0.0, SVG Export Plug-In . SVG Version: 6.00 Build 0)  -->
<!DOCTYPE svg PUBLIC "-//W3C//DTD SVG 1.1//EN" "http://www.w3.org/Graphics/SVG/1.1/DTD/svg11.dtd">
<svg version="1.1" id="Layer_1" xmlns="http://www.w3.org/2000/svg" xmlns:xlink="http://www.w3.org/1999/xlink" x="0px" y="0px"
	 viewBox="0 0 64 64" enable-background="new 0 0 64 64" xml:space="preserve">
<g>
	<g>
		<g>
			<path fill="#316CFF" d="M32,0c17.7,0,32,14.3,32,32S49.7,64,32,64S0,49.7,0,32S14.3,0,32,0z"/>
		</g>
	</g>
	<g>
		<g>
			<polygon fill="#FFD41D" points="32,9 13,22 13,35 32,35 51,35 51,22 			"/>
		</g>
	</g>
	<g>
		<g>
			<path fill="#FFFFFF" d="M45,13v30c0,0.5-0.5,1-1,1H20c-0.5,0-1-0.5-1-1V13c0-0.6,0.5-1,1-1h24C44.5,12,45,12.4,45,13z"/>
		</g>
	</g>
	<g>
		<g>
			<path fill="#D3D5DD" d="M40.1,18c0.5,0,0.9,0.5,0.9,1s-0.4,1-0.9,1H23.9c-0.5,0-0.9-0.5-0.9-1s0.4-1,0.9-1H40.1z"/>
		</g>
	</g>
	<g>
		<g>
			<path fill="#D3D5DD" d="M40.1,23c0.5,0,0.9,0.5,0.9,1s-0.4,1-0.9,1H23.9c-0.5,0-0.9-0.5-0.9-1s0.4-1,0.9-1H40.1z"/>
		</g>
	</g>
	<g>
		<g>
			<polygon fill="#D1D5DB" points="32,35 13,22 13,48 51,48 51,22 			"/>
		</g>
	</g>
	<g>
		<g>
			<path fill="#E1E5EA" d="M51,48L35.2,32.2h-6.4L13,48H51z"/>
		</g>
	</g>
</g>
</svg>
