<svg xmlns="http://www.w3.org/2000/svg" width="23" height="16" viewBox="0 0 23 16">
    <defs>
        <filter id="82ihhfd6sa">
            <feColorMatrix in="SourceGraphic" values="0 0 0 0 1.000000 0 0 0 0 1.000000 0 0 0 0 1.000000 0 0 0 1.000000 0"/>
        </filter>
    </defs>
    <g fill="none" fill-rule="evenodd">
        <g>
            <g>
                <g>
                    <g filter="url(#82ihhfd6sa)" transform="translate(-1356 -3771) translate(0 3699) translate(382 60) translate(974 9)">
                        <g fill="#3A3A3C">
                            <path d="M1.6.8c-.441 0-.8.359-.8.8v12.8c0 .441.359.8.8.8h19.2c.441 0 .8-.359.8-.8V1.6c0-.441-.359-.8-.8-.8H1.6zM20.8 16H1.6C.718 16 0 15.282 0 14.4V1.6C0 .718.718 0 1.6 0h19.2c.882 0 1.6.718 1.6 1.6v12.8c0 .882-.718 1.6-1.6 1.6z" transform="translate(0 3)"/>
                            <path d="M11.2 11.102c-.41 0-.82-.156-1.131-.468L2.117 2.683c-.156-.156-.156-.41 0-.566.156-.156.41-.156.566 0l7.951 7.952c.151.15.352.234.566.234.214 0 .415-.083.566-.234l7.951-7.952c.156-.156.41-.156.566 0 .156.156.156.41 0 .566l-7.952 7.951c-.312.312-.721.468-1.131.468" transform="translate(0 3)"/>
                            <path d="M20 14c-.102 0-.205-.04-.283-.117l-5.6-5.6c-.156-.156-.156-.41 0-.566.156-.156.41-.156.566 0l5.6 5.6c.156.156.156.41 0 .566-.078.078-.18.117-.283.117M2.4 14c-.102 0-.205-.04-.283-.117-.156-.156-.156-.41 0-.566l5.6-5.6c.156-.156.41-.156.566 0 .156.156.156.41 0 .566l-5.6 5.6c-.078.078-.18.117-.283.117" transform="translate(0 3)"/>
                        </g>
                    </g>
                </g>
            </g>
        </g>
    </g>
</svg>
