<?xml version="1.0" encoding="utf-8"?>
<!-- Generator: Adobe Illustrator 24.3.0, SVG Export Plug-In . SVG Version: 6.00 Build 0)  -->
<svg version="1.1" id="레이어_1" xmlns="http://www.w3.org/2000/svg" xmlns:xlink="http://www.w3.org/1999/xlink" x="0px"
	 y="0px" viewBox="0 0 24 24" style="enable-background:new 0 0 24 24;" xml:space="preserve">
<style type="text/css">
	.st0{fill:#111D27;}
</style>
<g id="Icons">
	<path id="search-big" class="st0" d="M23.7,21.3l-6.2-6.2c-0.1-0.1-0.3-0.2-0.5-0.3c1.1-1.5,1.7-3.4,1.7-5.4c0-5.2-4.2-9.4-9.4-9.4
		S0,4.2,0,9.4s4.2,9.4,9.4,9.4c2,0,3.9-0.6,5.4-1.7c0,0.2,0.1,0.3,0.3,0.5l6.2,6.2c0.5,0.5,1.5,0.4,2.1-0.3
		C24.1,22.7,24.2,21.8,23.7,21.3z M9.4,15.4c-3.3,0-6-2.7-6-6s2.7-6,6-6s6,2.7,6,6S12.7,15.4,9.4,15.4z"/>
</g>
<g id="Guides">
</g>
</svg>
