<svg xmlns="http://www.w3.org/2000/svg" width="24" height="24" viewBox="0 0 24 24">
    <defs>
        <style>
            .cls-4{fill:#003575}
        </style>
    </defs>
    <g id="ico_user_24px" transform="translate(-56 -108)">
        <path id="사각형_1693" fill="none" d="M0 0H24V24H0z" transform="translate(56 108)"/>
        <g id="그룹_2091" transform="translate(-90.923 -223.425)">
            <path id="패스_2315" fill="#73d7ff" d="M156.162 349.716a5.074 5.074 0 0 0 6.249.01l5.142 3.334v4.932h-16.725v-5.34l4.242-2.262z" transform="translate(-.301 -5.417)"/>
            <ellipse id="타원_212" cx="2.689" cy="4.253" fill="#fff" rx="2.689" ry="4.253" transform="translate(156.312 334.094)"/>
            <g id="그룹_2090" transform="translate(149.923 333.425)">
                <path id="패스_2318" d="M161.786 343.118c-1.93 0-3.441-2.394-3.441-5.449 0-3.83 2.406-4.244 3.441-4.244s3.44.414 3.44 4.244c0 3.055-1.511 5.449-3.44 5.449zm0-8.434c-.539 0-2.181 0-2.181 2.985 0 2.232 1.019 4.19 2.181 4.19s2.181-1.958 2.181-4.19c0-2.985-1.642-2.985-2.181-2.985z" class="cls-4" transform="translate(-152.723 -333.425)"/>
                <path id="패스_2319" d="M150.552 358.559a.63.63 0 0 1-.629-.629v-3.747a.513.513 0 0 1 0-.064 6.25 6.25 0 0 1 .579-2.237 2.765 2.765 0 0 1 2.117-1.188 3.418 3.418 0 0 0 2.039-1.452.633.633 0 0 1 .577-.375.62.62 0 0 1 .254.054.632.632 0 0 1 .321.83 4.639 4.639 0 0 1-2.88 2.165c-.777.145-1.1.221-1.362.633a5.78 5.78 0 0 0-.387 1.649.3.3 0 0 0 0 .034v2.759a.307.307 0 0 0 .307.307h1.874a.307.307 0 0 0 .308-.307v-1.874a.629.629 0 0 1 1.259 0v1.874a.307.307 0 0 0 .308.307h7.5a.308.308 0 0 0 .308-.307v-1.874a.629.629 0 0 1 1.259 0v1.874a.307.307 0 0 0 .308.307h1.874a.307.307 0 0 0 .308-.307v-2.759a.309.309 0 0 0 0-.035 5.846 5.846 0 0 0-.386-1.647c-.26-.413-.6-.493-1.284-.621a3.894 3.894 0 0 1-1.436-.6 3.8 3.8 0 0 1-1.524-1.583.632.632 0 0 1 .322-.831.643.643 0 0 1 .254-.053.632.632 0 0 1 .577.376 2.622 2.622 0 0 0 1.048 1.03 2.553 2.553 0 0 0 .911.406 2.856 2.856 0 0 1 2.2 1.2 6.222 6.222 0 0 1 .579 2.234.591.591 0 0 1 0 .067v3.747a.63.63 0 0 1-.629.629z" class="cls-4" transform="translate(-149.923 -338.559)"/>
            </g>
        </g>
    </g>
</svg>
