<svg xmlns="http://www.w3.org/2000/svg" width="19" height="19" viewBox="0 0 19 19">
    <path fill="#fff" fill-rule="evenodd" d="M16.625 6.333h-.792v-.791A5.548 5.548 0 0 0 10.292 0H8.708a5.548 5.548 0 0 0-5.541 5.542v.792h-.792A2.378 2.378 0 0 0 0 8.708v2.375a2.378 2.378 0 0 0 2.375 2.375h1.187a1.188 1.188 0 0 0 1.188-1.187v-4.75a1.178 1.178 0 0 0-.792-1.107v-.872a4.755 4.755 0 0 1 4.75-4.75h1.583a4.755 4.755 0 0 1 4.75 4.75v.872a1.178 1.178 0 0 0-.792 1.107v4.75a1.178 1.178 0 0 0 .792 1.107v1.475a1.978 1.978 0 0 1-1.762 1.967l-1.4.154v-.746a.4.4 0 0 0-.4-.4H8.312a.4.4 0 0 0-.4.4V18.6a.4.4 0 0 0 .4.4h3.167a.4.4 0 0 0 .4-.4v-.832l1.49-.164a2.768 2.768 0 0 0 2.468-2.754v-1.4h.792A2.378 2.378 0 0 0 19 11.083V8.708a2.378 2.378 0 0 0-2.375-2.375zM3.958 12.271a.4.4 0 0 1-.4.4H2.375a1.585 1.585 0 0 1-1.583-1.588V8.708a1.585 1.585 0 0 1 1.583-1.583h1.187a.4.4 0 0 1 .4.4zm7.125 5.937H8.708v-1.583h2.375zm7.125-7.125a1.585 1.585 0 0 1-1.583 1.583h-1.187a.4.4 0 0 1-.4-.4V7.521a.4.4 0 0 1 .4-.4h1.187a1.585 1.585 0 0 1 1.583 1.583z"/>
</svg>
