<svg xmlns="http://www.w3.org/2000/svg" width="17" height="30" viewBox="0 0 17 30">
    <defs>
        <style>
            .cls-7{fill:#fb9d75}.cls-8{fill:#ffb088}.cls-9{fill:#fcb191}
        </style>
    </defs>
    <g id="그룹_199" transform="translate(-35.745 -176.627)">
        <path id="패스_171" fill="#fb9f70" d="M162.152 675.53h-5.324a27.673 27.673 0 0 0-3.265-5.955 5.8 5.8 0 0 1-2.79-.575c-.052-.032-.107-.06-.161-.093-.437-.266.356-2.579.356-2.579.4-1.127.569-1.693 1.14-1.812.033-.007.066-.012.1-.016a1.845 1.845 0 0 1 .439.011c.14.018.278.039.41.061.321.053.609.11.82.149a2.267 2.267 0 0 1 1.788 1.815c.043.172.06.292.069.315a3.613 3.613 0 0 0 .225.431l.012.019c.637 1.029 5.88 7.837 6.168 8.21z" transform="translate(-109.563 -468.903)"/>
        <g id="그룹_198" transform="translate(35.745 176.627)">
            <g id="그룹_187">
                <g id="그룹_185" transform="translate(6.428 8.434)">
                    <path id="패스_172" fill="#9b8579" d="M188.332 344.5v18.614a.282.282 0 0 0 .282.282h.938a.282.282 0 0 0 .282-.282V344.5z" transform="translate(-188.332 -344.497)"/>
                    <path id="패스_173" d="M188.332 436.282v4.471l1.5-1.2v-2.924z" transform="translate(-188.332 -433.262)" style="mix-blend-mode:multiply;isolation:isolate" fill="#58595b" opacity="0.25"/>
                </g>
                <g id="그룹_186">
                    <ellipse id="타원_89" cx="7.49" cy="7.5" fill="#26b4bf" rx="7.49" ry="7.5"/>
                    <path id="패스_174" fill="#fff" d="M105.066 246.639a.694.694 0 0 0-.77.111l-3.282 3.564-1.747-1.573a.706.706 0 0 0-.781-.061.334.334 0 0 0-.084.567l2.695 2.426 4.121-4.476a.342.342 0 0 0-.152-.558z" transform="translate(-94.307 -241.767)"/>
                </g>
            </g>
            <g id="그룹_193" transform="translate(4.497 18.347)">
                <path id="패스_175" d="M150.605 668.911l.161.094c.266-.113.574-.264.574-.264a1.212 1.212 0 0 0 .527.014c.836-.1 1.211-.455 1.07-.977.278-.13.8-.611.09-1.283.44-.158.572-.926-.218-1.252.61-.149.326-.56.242-.665-.132-.022-.27-.043-.41-.061a1.637 1.637 0 0 0-.54 0c-.571.119-.743.685-1.14 1.812 0 .003-.792 2.316-.356 2.582z" transform="translate(-149.785 -663.961)" style="mix-blend-mode:multiply;isolation:isolate" fill="#eb8c64" opacity="0.3"/>
                <g id="그룹_192">
                    <g id="그룹_188" transform="translate(.37 3.75)">
                        <path id="패스_176" d="M141.067 763.257c.286.337.645 0 .738-.095l.023-.025a.205.205 0 0 0 .03.008 1.691 1.691 0 0 0 .5.005c.388-.038.831-.2.909-.378.231-.52-.532-.575-1.419-.56l-.25.005h-.1c-1.021.034-.761.65-.431 1.04z" class="cls-7" transform="translate(-140.774 -762.211)"/>
                        <path id="패스_177" d="M141.067 763.474c.286.337.645 0 .738-.095a2.965 2.965 0 0 0-.033-.53 1.572 1.572 0 0 0-.178-.414h-.1c-1.017.032-.757.649-.427 1.039z" class="cls-8" transform="translate(-140.774 -762.428)"/>
                        <path id="패스_178" d="M194.252 766.952a.941.941 0 0 1 .224-.026c.158 0 .232.113.229.262a.465.465 0 0 1-.012.094c-.049.213-.274.2-.446.151a.261.261 0 0 1 .005-.481z" class="cls-9" transform="translate(-192.337 -766.77)"/>
                    </g>
                    <g id="그룹_189" transform="translate(0 2.574)">
                        <path id="패스_179" d="M129.568 727.261a1.044 1.044 0 0 0 .275.283 1.656 1.656 0 0 0 .877.144h.234a10.5 10.5 0 0 0 1.473-.138c.429-.068.519-.29.5-.5a.556.556 0 0 0-.47-.485 9.056 9.056 0 0 0-1.4-.1h-.284a4.194 4.194 0 0 0-.514.027c-.653.102-.789.474-.691.769z" class="cls-7" transform="translate(-129.539 -726.462)"/>
                        <path id="패스_180" d="M129.568 727.261a1.044 1.044 0 0 0 .275.283 1.656 1.656 0 0 0 .877.144 1.009 1.009 0 0 0 .262-.773.972.972 0 0 0-.164-.453h-.048a4.194 4.194 0 0 0-.514.027c-.65.105-.786.477-.688.772z" class="cls-8" transform="translate(-129.539 -726.462)"/>
                        <path id="패스_181" d="M206.517 735.85a1.25 1.25 0 0 1 .287-.028.276.276 0 0 1 .284.326.549.549 0 0 1-.018.115c-.069.261-.357.246-.575.176a.316.316 0 0 1 .022-.589z" class="cls-9" transform="translate(-203.778 -735.515)"/>
                    </g>
                    <g id="그룹_190" transform="translate(.006 1.195)">
                        <path id="패스_182" d="M130 685.719a2.645 2.645 0 0 0 1 .221l.184.008c.273.007.609 0 1.033-.026.784-.046.9-.327.855-.554a.558.558 0 0 0-.3-.385 4.969 4.969 0 0 0-1.516-.395c-.066-.008-.133-.014-.2-.02-.14-.012-.283-.018-.426-.019-1.156-.002-1.022.996-.63 1.17z" class="cls-7" transform="translate(-129.72 -684.55)"/>
                        <path id="패스_183" d="M130 685.719a2.645 2.645 0 0 0 1 .221 1.007 1.007 0 0 0 .307-.712 1 1 0 0 0-.252-.659c-.14-.012-.283-.018-.426-.019-1.155-.003-1.021.995-.629 1.169z" class="cls-8" transform="translate(-129.72 -684.55)"/>
                        <path id="패스_184" d="M206.389 700.678a1.1 1.1 0 0 1 .275 0c.18.019.253.168.239.342a.583.583 0 0 1-.019.109c-.067.246-.324.231-.531.159a.328.328 0 0 1 .036-.61z" class="cls-9" transform="translate(-203.646 -700.139)"/>
                    </g>
                    <g id="그룹_191" transform="translate(.725)">
                        <path id="패스_185" d="M152.1 649.4h.01l.072.018q.1.024.215.043c.2.032.433.061.692.1 1.033.139.951-.459.951-.459s.064-.466-1.043-.722c-.178-.041-.326-.093-.458-.115a1.917 1.917 0 0 0-.2-.026c-.55-.042-.665.241-.741.592-.062.281.12.463.502.569z" class="cls-7" transform="translate(-151.586 -648.236)"/>
                        <path id="패스_186" d="M152.1 649.4h.01l.072.018a1.106 1.106 0 0 0 .26-.88 1.009 1.009 0 0 0-.1-.3c-.55-.042-.665.241-.741.592-.065.282.117.464.499.57z" class="cls-8" transform="translate(-151.586 -648.236)"/>
                        <path id="패스_187" d="M203.073 665.448a.957.957 0 0 1 .241.021c.167.031.221.178.186.342a.548.548 0 0 1-.032.1c-.1.226-.333.167-.5.068a.3.3 0 0 1 .105-.531z" class="cls-9" transform="translate(-201.159 -664.88)"/>
                    </g>
                </g>
            </g>
            <g id="그룹_194" transform="translate(6.486 17.841)">
                <path id="패스_188" fill="#feb386" d="M195.466 642.6c.115-2.254-2.349-6.423-2.667-7.454a.777.777 0 0 0-.273-.378.841.841 0 0 1-.3-.467 5.416 5.416 0 0 1 .017-2.388s.01-.108-.048-.119c-.192-.037-.314.947-1.224 1.048-.348.038-.5-.062-.531-.232a1.5 1.5 0 0 1 .292-.856c.038-.063.076-.124.114-.183l.014-.022c.347-.527.207-.756.823-.867l.056-.009c.383-.06.865-.364 1.3-.162a3.531 3.531 0 0 1 .912 1.107 10.193 10.193 0 0 1 .434 1.963 2.445 2.445 0 0 0 .213.774.11.11 0 0 0 .012.019c.637 1.029 5.88 7.837 6.168 8.21l.012.016z" transform="translate(-190.433 -630.437)"/>
                <path id="패스_189" fill="#fec29e" d="M190.438 671.151a.468.468 0 0 0 .4.105.773.773 0 0 0 .353-.728c-.065-.175-.329-.238-.466-.233a1.493 1.493 0 0 0-.287.856z" transform="translate(-190.431 -668.984)"/>
            </g>
            <g id="그룹_197" transform="translate(8.6 22.378)">
                <g id="그룹_195">
                    <path id="패스_190" fill="#f1f2f2" d="M298.432 769.452l-.68-1.119-1.415 1.21.587.909z" transform="translate(-294.966 -768.333)"/>
                    <path id="패스_191" fill="#e6e7e8" d="M256.041 805.111l-1.371 1.172.469.724 1.489-.987z" transform="translate(-254.67 -803.901)"/>
                </g>
                <g id="그룹_196" transform="translate(.219 .57)">
                    <path id="패스_192" fill="#4a494b" d="M261.336 824.79l2.6 4.6h2.692l-3.747-5.8z" transform="translate(-261.336 -822.333)"/>
                    <path id="패스_193" fill="#565658" d="M309.854 785.667l-1.593 1.247 3.747 5.8h2.89z" transform="translate(-306.718 -785.667)"/>
                </g>
            </g>
        </g>
    </g>
</svg>
