<svg xmlns="http://www.w3.org/2000/svg" width="24" height="24" viewBox="0 0 24 24">
    <defs>
        <style>
            .cls-4{fill:#003575}
        </style>
    </defs>
    <g id="ico_Edgeanalysis_24px" transform="translate(-40 -231)">
        <path id="사각형_1689" fill="none" d="M0 0H24V24H0z" transform="translate(40 231)"/>
        <g id="그룹_2078" transform="translate(-245.5 59.433)">
            <path id="사각형_1685" fill="#fff" d="M1.531 0h15.607a1.531 1.531 0 0 1 1.531 1.531v12.7a1.53 1.53 0 0 1-1.53 1.53H1.53A1.53 1.53 0 0 1 0 14.233V1.531A1.531 1.531 0 0 1 1.531 0z" transform="translate(288.344 173.567)"/>
            <path id="패스_2294" fill="#00aeee" d="M315.179 199.606l6.216 1.486-1.246 1.406 2.86 2.972-2 2-3.2-2.621-1.246 1.246z" opacity="0.53" transform="translate(-16.06 -15.241)"/>
            <g id="그룹_2077" transform="translate(287.5 173.602)">
                <path id="패스_2295" d="M320.4 207.732a.479.479 0 0 1-.341-.142l-2.364-2.363a.236.236 0 0 0-.333 0l-.928.928a.489.489 0 0 1-.342.141.463.463 0 0 1-.132-.019.483.483 0 0 1-.338-.359l-1.435-6.46a.483.483 0 0 1 .47-.587.5.5 0 0 1 .106.011l6.459 1.435a.483.483 0 0 1 .236.812l-.928.928a.236.236 0 0 0 0 .333l2.364 2.363a.484.484 0 0 1 0 .682l-2.154 2.153a.48.48 0 0 1-.34.144zm-2.871-3.836a.479.479 0 0 1 .341.141l2.364 2.364a.235.235 0 0 0 .333 0l1.138-1.138a.236.236 0 0 0 0-.333l-2.363-2.363a.483.483 0 0 1 0-.682l.511-.511a.236.236 0 0 0-.116-.4l-4.083-.907a.245.245 0 0 0-.051-.006.236.236 0 0 0-.23.287l.907 4.083a.235.235 0 0 0 .164.175.226.226 0 0 0 .066.01.236.236 0 0 0 .167-.069l.511-.511a.48.48 0 0 1 .337-.136z" class="cls-4" transform="translate(-303.067 -188.484)"/>
                <path id="패스_2296" d="M291.75 193.567a.428.428 0 0 1 0-.856h1.731a.207.207 0 0 0 .129-.044c.27-.211.9-.9.9-2.712a.209.209 0 0 0-.209-.209h-5.271a1.531 1.531 0 0 1-1.53-1.53v-13.084a1.531 1.531 0 0 1 1.53-1.53h16.906a1.531 1.531 0 0 1 1.53 1.53v9.727a.428.428 0 0 1-.856 0v-9.727a.674.674 0 0 0-.674-.674H289.03a.674.674 0 0 0-.674.674v13.084a.674.674 0 0 0 .674.673h9.726a.428.428 0 1 1 0 .856h-3.185a.209.209 0 0 0-.209.209 5.493 5.493 0 0 1-.488 2.454.209.209 0 0 0 .187.3h7.516a.428.428 0 0 1 0 .856z" class="cls-4" transform="translate(-287.5 -173.602)"/>
                <path id="패스_2297" d="M296.437 183.053a.474.474 0 0 1-.165-.033l-.012-.007-.04-.022-.042-.02-.017-.008a.4.4 0 0 0-.036-.036.338.338 0 0 0-.046-.032l-1.419-1.419a.482.482 0 0 1 .682-.682l.85.851a.235.235 0 0 0 .167.069h.017a.236.236 0 0 0 .172-.094l1.657-2.21a.482.482 0 1 1 .771.578l-2.135 2.848a.317.317 0 0 0-.042.039.345.345 0 0 0-.032.044l-.031.018c-.016.009-.033.018-.049.029l-.046.032-.015.011a.477.477 0 0 1-.189.043z" class="cls-4" transform="translate(-291.437 -176.346)"/>
                <path id="패스_2298" d="M296.437 192.88a.462.462 0 0 1-.165-.033l-.012-.007-.04-.022-.042-.02-.017-.008a.347.347 0 0 0-.036-.036.265.265 0 0 0-.046-.032l-1.419-1.419a.482.482 0 0 1 .682-.682l.85.851a.237.237 0 0 0 .167.069h.017a.235.235 0 0 0 .172-.094l1.657-2.209a.477.477 0 0 1 .386-.193.481.481 0 0 1 .386.771l-2.135 2.847a.317.317 0 0 0-.042.039.381.381 0 0 0-.032.044l-.031.018-.049.029-.046.032-.015.011a.469.469 0 0 1-.189.043z" class="cls-4" transform="translate(-291.437 -182.221)"/>
                <path id="패스_2299" d="M306.231 194.219a.482.482 0 0 1 0-.964h2.154a.482.482 0 1 1 0 .964z" class="cls-4" transform="translate(-297.638 -184.388)"/>
                <path id="패스_2300" d="M314.654 194.219a.482.482 0 0 1 0-.964h4.307a.482.482 0 1 1 0 .964z" class="cls-4" transform="translate(-302.54 -184.388)"/>
                <path id="패스_2301" d="M306.231 184.393a.482.482 0 0 1 0-.964h4.307a.482.482 0 1 1 0 .964z" class="cls-4" transform="translate(-297.79 -178.995)"/>
                <path id="패스_2302" d="M318.865 184.393a.482.482 0 0 1 0-.964h2.154a.482.482 0 0 1 0 .964z" class="cls-4" transform="translate(-304.656 -178.995)"/>
                <path id="패스_2303" d="M295 202.642a.482.482 0 1 1 0-.964h7.178a.482.482 0 1 1 0 .964z" class="cls-4" transform="translate(-291.555 -189.011)"/>
            </g>
        </g>
    </g>
</svg>
