<svg xmlns="http://www.w3.org/2000/svg" id="ico_app_g" width="16" height="16" viewBox="0 0 16 16">
    <defs>
        <style>
            .cls-1{fill:#fff}
        </style>
    </defs>
    <path id="사각형_1100" d="M0 0H4V4H0z" class="cls-1"/>
    <path id="사각형_1101" d="M0 0H4V4H0z" class="cls-1" transform="translate(6)"/>
    <path id="사각형_1102" d="M0 0H4V4H0z" class="cls-1" transform="translate(12)"/>
    <path id="사각형_1103" d="M0 0H4V4H0z" class="cls-1" transform="translate(0 6)"/>
    <path id="사각형_1104" d="M0 0H4V4H0z" class="cls-1" transform="translate(6 6)"/>
    <path id="사각형_1105" d="M0 0H4V4H0z" class="cls-1" transform="translate(12 6)"/>
    <path id="사각형_1106" d="M0 0H4V4H0z" class="cls-1" transform="translate(0 12)"/>
    <path id="사각형_1107" d="M0 0H4V4H0z" class="cls-1" transform="translate(6 12)"/>
    <path id="사각형_1108" d="M0 0H4V4H0z" class="cls-1" transform="translate(12 12)"/>
</svg>
