<svg width="31" height="31" viewBox="0 0 31 31" fill="none" xmlns="http://www.w3.org/2000/svg">
<path fill-rule="evenodd" clip-rule="evenodd" d="M13.3485 18.3628V12.435L18.3901 15.3073L13.3485 18.3628ZM24.1333 9.23508C23.7777 8.91252 23.4397 8.71044 22.0883 8.58468C20.3973 8.42748 18.1069 8.4054 16.3756 8.40276C15.6613 8.40156 14.9464 8.40156 14.2321 8.40276C12.5008 8.40564 10.2105 8.42748 8.51941 8.58468C7.16797 8.71044 6.83006 8.91252 6.47438 9.23508C5.53742 10.0847 5.34086 12.4091 5.31566 14.6968C5.31134 15.1228 5.31134 15.5497 5.31638 15.9762C5.34398 18.2447 5.54534 20.5374 6.47438 21.3796C6.83006 21.7019 7.16797 21.9042 8.51941 22.0297C10.2105 22.1872 12.5008 22.209 14.2321 22.2119C14.9464 22.2131 15.6613 22.2131 16.3756 22.2119C18.1069 22.209 20.3973 22.1872 22.0883 22.0297C23.4397 21.9042 23.7777 21.7019 24.1333 21.3796C25.0545 20.5444 25.2601 18.2838 25.2906 16.0343C25.2971 15.55 25.2971 15.0644 25.2906 14.5801C25.2601 12.3308 25.0545 10.07 24.1333 9.23508Z" fill="#D2D8F7"/>
</svg>
