<svg xmlns="http://www.w3.org/2000/svg" width="24" height="24" viewBox="0 0 24 24">
    <g>
        <path fill="none" d="M0 0H24V24H0z" transform="translate(-37 -349) translate(37 349)"/>
        <g>
            <path fill="#00aeee" d="M8.71 0A8.71 8.71 0 1 1 0 8.71 8.71 8.71 0 0 1 8.71 0z" opacity="0.53" transform="translate(-37 -349) translate(-100.286 178.868) rotate(-80.721 181.025 12.717)"/>
            <path fill="#fff" d="M156.777 184.746l-.277-2.174-1.523-1.1-1.662 1.122-.987 1.794 2.224 5.5 3.453 3.52 2.423-.5 1.212-1.225-.571-1.6-1.748-1.1-1.246.6-.952-.4-1.532-3.356.8-.785z" transform="translate(-37 -349) translate(-100.286 178.868) translate(-7.643 -5.457)"/>
            <g>
                <path fill="#003575" d="M150.62 191.842a8.986 8.986 0 0 1-5.765-2.061l-.026-.02-.012-.01c-.187-.155-.366-.324-.517-.47l-.068-.064c-.03-.028-.061-.056-.09-.085s-.042-.041-.063-.06-.039-.035-.057-.054c-.072-.075-.138-.154-.207-.237l-.1-.125-.061-.07c-.035-.04-.071-.08-.1-.122-.121-.149-.247-.318-.4-.529l-.046-.064-.08-.115c-.116-.175-.233-.367-.357-.587l-.031-.054c-.022-.039-.044-.077-.064-.116-.1-.192-.2-.4-.3-.622l-.009-.02-.074-.171c-.081-.2-.155-.4-.228-.621-.027-.083-.054-.165-.079-.249-.054-.184-.105-.381-.151-.586-.024-.109-.048-.218-.068-.329-.032-.172-.059-.347-.082-.536-.017-.137-.031-.273-.042-.4-.012-.158-.021-.321-.025-.5 0-.039 0-.078-.007-.117s-.006-.082-.006-.124v-.105c0-.035 0-.071.006-.107s0-.074 0-.111v-.113c0-.038.007-.092.013-.138s.009-.08.012-.12c.012-.162.026-.3.042-.436s.035-.248.061-.394c.035-.2.071-.387.112-.559.013-.055.028-.111.043-.167a9.132 9.132 0 0 1 7.653-6.785l.087-.013.09-.014c.1-.011.207-.017.318-.022l.126-.007.15-.012c.089-.007.173-.015.258-.016h.299c.189 0 .38.014.567.029l.064.005c.089.007.177.013.265.024.227.027.454.061.674.1.093.018.186.039.278.061l.05.012c.16.036.321.078.482.124l.074.021c.062.018.124.035.186.055.247.079.492.168.728.267l.041.018.042.019c.229.1.463.211.695.335l.075.04.08.042.045.023a.191.191 0 0 0 .048.04 9.156 9.156 0 0 1 4.574 7.894 9.056 9.056 0 0 1-.759 3.649c-.09.206-.188.41-.293.608a.391.391 0 0 1-.347.209.379.379 0 0 1-.181-.046.391.391 0 0 1-.163-.529c.1-.182.186-.369.268-.556a8.342 8.342 0 0 0-3.647-10.65l-.065-.035c-.221-.119-.446-.227-.666-.321l-.031-.014c-.229-.1-.471-.186-.722-.265l-.065-.019-.043-.012c-.212-.064-.433-.121-.655-.169l-.107-.024c-.251-.05-.5-.089-.758-.116l-.067-.006h-.039c-.219-.02-.45-.032-.687-.035h-.143c-.117 0-.232.009-.343.016l-.106.007-.117.006c-.1 0-.2.01-.3.021-.032 0-.064.009-.1.015l-.061.01a8.485 8.485 0 0 0-7 6.193l-.015.054-.028.111c-.042.174-.074.352-.1.506-.02.117-.04.241-.056.365s-.027.238-.039.4-.019.3-.022.438 0 .264 0 .417.012.312.022.45c.009.114.022.233.039.374.024.187.047.342.075.488q.029.152.063.3c.045.2.09.374.138.535.022.076.047.153.072.228.069.21.137.4.209.568l.059.136.017.038c.091.207.181.393.275.569l.059.107.027.048c.112.2.218.374.326.536l.081.117.036.05c.132.188.246.341.359.48.034.041.069.082.1.122l.053.06c.119.138.249.286.389.427.031.032.063.061.1.091l.057.054c.136.131.295.281.464.422l.031.024.014.011a8.349 8.349 0 0 0 5.263 1.878c1.4 0 3.508 0 4.351-1.046a.6.6 0 0 0 .021-.62.183.183 0 0 0-.028-.036l-.664-.66a.192.192 0 0 0-.135-.056.187.187 0 0 0-.081.018 6.682 6.682 0 0 1-2.414.565h-.008a.391.391 0 0 1-.238-.081 18.166 18.166 0 0 1-3.62-4.019l-.008-.011-.014-.02-.086-.136c0-.008-.01-.018-.015-.029l-.007-.012a18.643 18.643 0 0 1-2.091-5.023.391.391 0 0 1 .015-.22c.045-.12 1.127-2.961 3.177-3.163h.039a.389.389 0 0 1 .133.023 2.372 2.372 0 0 1 .343.168 2.971 2.971 0 0 1 1.22 1.477 3.44 3.44 0 0 1 .254 1.522 1.107 1.107 0 0 1-.334.757 2.642 2.642 0 0 1-.306.219l-.529.349a.192.192 0 0 0-.085.177 7.769 7.769 0 0 0 2.2 3.518.191.191 0 0 0 .206 0l.517-.345a2.579 2.579 0 0 1 .32-.2.871.871 0 0 1 .388-.088 1.315 1.315 0 0 1 .437.084 3.309 3.309 0 0 1 1.257.865 3 3 0 0 1 .813 1.736 2.332 2.332 0 0 1 .01.392.393.393 0 0 1-.047.156 2.779 2.779 0 0 1-.584.723.191.191 0 0 0-.007.277l.529.529a1.347 1.347 0 0 1 .028 1.658c-1.071 1.339-3.405 1.339-4.951 1.339zm-2.228-7.245a.18.18 0 0 0 .024.039l.022.03a18.053 18.053 0 0 0 3.29 3.723.191.191 0 0 0 .12.042h.016a4.126 4.126 0 0 0 2.987-1.36.191.191 0 0 0 .031-.118c0-.038-.006-.075-.01-.111a2.236 2.236 0 0 0-.6-1.27 2.5 2.5 0 0 0-.943-.662.539.539 0 0 0-.177-.041.193.193 0 0 0-.125.046c-.017.014-.069.052-.144.1l-.645.431a.649.649 0 0 1-.382.119.722.722 0 0 1-.09-.005c-.553-.067-1.22-.724-2.039-2.01s-1.122-2.184-.956-2.722a.639.639 0 0 1 .276-.376l.655-.433.039-.025a1.484 1.484 0 0 0 .167-.117c.062-.048.066-.094.079-.249a2.667 2.667 0 0 0-.2-1.166 2.2 2.2 0 0 0-.882-1.084l-.079-.045a.2.2 0 0 0-.091-.023.2.2 0 0 0-.039 0c-1.333.275-2.2 2.245-2.295 2.469a.19.19 0 0 0-.01.119 18.07 18.07 0 0 0 1.98 4.65l.013.022z" transform="translate(-37 -349) translate(-100.286 178.868) translate(140.206 172.743) translate(-141.5 -173.602)"/>
            </g>
        </g>
    </g>
</svg>
