<svg xmlns="http://www.w3.org/2000/svg" width="24" height="24" viewBox="0 0 24 24">
    <defs>
        <style>
            .cls-2{fill:#fff}.cls-4{fill:#003575}
        </style>
    </defs>
    <g id="ico_FAQ_24px" transform="translate(-36 -287)">
        <path id="사각형_1690" fill="none" d="M0 0H24V24H0z" transform="translate(36 287)"/>
        <g id="그룹_2071" transform="translate(-176.5 188.398)">
            <path id="패스_2275" d="M240.193 102.051l3.8 3.8v.433h-4.333v-4.234z" class="cls-2" transform="translate(-13.733 -.789)"/>
            <path id="패스_2276" fill="#00aeee" d="M226.692 105.526v-2.595a.882.882 0 0 0-.883-.88h-9.182a.881.881 0 0 0-.883.88v17.149a.882.882 0 0 0 .883.881h13.45a.882.882 0 0 0 .883-.881v-12.794a.881.881 0 0 0-.883-.88h-2.5a.881.881 0 0 1-.885-.88z" opacity="0.53" transform="translate(-.678 -.789)"/>
            <path id="패스_2277" d="M247.121 130.086a3.137 3.137 0 1 1-3.137-3.137 3.137 3.137 0 0 1 3.137 3.137z" class="cls-2" transform="translate(-14.392 -14.392)"/>
            <g id="그룹_2070" transform="translate(214.5 100.602)">
                <path id="패스_2278" d="M215.566 120.6a1.068 1.068 0 0 1-1.066-1.067v-17.864a1.068 1.068 0 0 1 1.066-1.067h10.841a.426.426 0 0 1 .3.125l3.826 3.829a.426.426 0 0 1 .125.3v5.744a.428.428 0 1 1-.857 0v-4.466a.21.21 0 0 0-.209-.21h-3.3a.961.961 0 0 1-.959-.96v-3.3a.209.209 0 0 0-.209-.21h-9.565a.209.209 0 0 0-.209.21v17.866a.21.21 0 0 0 .209.21h11.479a.429.429 0 0 1 0 .857zm10.841-18.879a.21.21 0 0 0-.209.21v2.926a.21.21 0 0 0 .209.21h2.925a.21.21 0 0 0 .148-.358l-2.924-2.926a.21.21 0 0 0-.149-.06z" class="cls-4" transform="translate(-214.5 -100.602)"/>
                <path id="패스_2279" d="M227.564 116.9a.43.43 0 0 1 0-.859h3.836a.43.43 0 1 1 0 .859z" class="cls-4" transform="translate(-221.396 -109.026)"/>
                <path id="패스_2280" d="M224.757 122.518a.43.43 0 1 1 0-.859h6.4a.43.43 0 0 1 0 .859z" class="cls-4" transform="translate(-219.867 -112.089)"/>
                <path id="패스_2281" d="M224.757 128.134a.43.43 0 1 1 0-.859h4.478a.43.43 0 1 1 0 .859z" class="cls-4" transform="translate(-219.864 -115.153)"/>
                <path id="패스_2282" d="M224.757 133.749a.43.43 0 1 1 0-.859h4.478a.43.43 0 1 1 0 .859z" class="cls-4" transform="translate(-219.864 -118.216)"/>
                <path id="패스_2283" d="M247.875 134.407a.426.426 0 0 1-.3-.126l-1.805-1.8a.209.209 0 0 0-.27-.022 3.643 3.643 0 1 1 .855-.856.211.211 0 0 0 .023.271l1.8 1.8a.43.43 0 0 1-.3.734zm-4.475-7.677a2.769 2.769 0 1 0 2.769 2.769 2.772 2.772 0 0 0-2.769-2.769z" class="cls-4" transform="translate(-228.305 -114.407)"/>
            </g>
        </g>
    </g>
</svg>
