<svg xmlns="http://www.w3.org/2000/svg" width="28" height="20" viewBox="0 0 28 20">
    <defs>
        <filter id="dsmgo33wla">
            <feColorMatrix in="SourceGraphic" values="0 0 0 0 0.137255 0 0 0 0 0.176471 0 0 0 0 0.282353 0 0 0 1.000000 0"/>
        </filter>
        <filter id="4yvw4xr87b">
            <feColorMatrix in="SourceGraphic" values="0 0 0 0 1.000000 0 0 0 0 1.000000 0 0 0 0 1.000000 0 0 0 1.000000 0"/>
        </filter>
    </defs>
    <g fill="none" fill-rule="evenodd">
        <g>
            <g>
                <g filter="url(#dsmgo33wla)" transform="translate(-1068 -377) translate(565 356) translate(503.47 18)">
                    <g filter="url(#4yvw4xr87b)">
                        <g fill="#3A3A3C">
                            <path d="M1.914.96c-.528 0-.957.43-.957.96v15.36c0 .53.43.96.957.96h22.97c.528 0 .958-.43.958-.96V1.92c0-.53-.43-.96-.958-.96H1.914zm22.97 18.24H1.914C.86 19.2 0 18.339 0 17.28V1.92C0 .861.859 0 1.914 0h22.97C25.94 0 26.8.861 26.8 1.92v15.36c0 1.059-.86 1.92-1.915 1.92z" transform="translate(0 3.6)"/>
                            <path d="M13.4 13.323c-.49 0-.981-.188-1.354-.562L2.533 3.22c-.187-.187-.187-.49 0-.678.187-.188.49-.188.677 0l9.513 9.541c.18.182.42.282.676.282.256 0 .496-.1.677-.282l9.513-9.541c.187-.188.49-.188.677 0 .187.187.187.49 0 .678l-9.513 9.542c-.373.374-.863.562-1.354.562" transform="translate(0 3.6)"/>
                            <path d="M23.927 16.8c-.122 0-.245-.047-.338-.14l-6.7-6.72c-.187-.188-.187-.492 0-.68.187-.187.49-.187.677 0l6.7 6.72c.187.188.187.492 0 .68-.094.093-.216.14-.339.14M2.871 16.8c-.122 0-.245-.047-.338-.14-.187-.188-.187-.492 0-.68l6.7-6.72c.186-.187.49-.187.676 0 .187.188.187.492 0 .68l-6.7 6.72c-.093.093-.215.14-.338.14" transform="translate(0 3.6)"/>
                        </g>
                    </g>
                </g>
            </g>
        </g>
    </g>
</svg>
