<svg xmlns="http://www.w3.org/2000/svg" width="16.838" height="30" viewBox="0 0 16.838 30">
    <defs>
        <style>
            .cls-5{fill:#f55f8d}.cls-6{fill:#fff}.cls-8{fill:#fb9d75}.cls-9{fill:#ffb088}.cls-10{fill:#fcb191}
        </style>
    </defs>
    <g id="그룹_285" transform="translate(-948 -421)">
        <g id="그룹_214" transform="translate(421.966 243.411)">
            <path id="패스_194" fill="#fb9f70" d="M652.887 676.228h-5.661a29.419 29.419 0 0 0-3.471-6.331 6.165 6.165 0 0 1-2.966-.611c-.055-.034-.114-.064-.172-.1-.464-.283.378-2.742.378-2.742.422-1.2.605-1.8 1.212-1.926.035-.007.07-.013.107-.017a1.95 1.95 0 0 1 .467.012c.149.02.3.042.436.065.341.056.647.117.871.158a2.41 2.41 0 0 1 1.9 1.929c.046.183.063.311.074.335a3.871 3.871 0 0 0 .24.458l.013.021c.677 1.094 6.252 8.332 6.558 8.729z" transform="translate(-110.18 -468.639)"/>
            <g id="그룹_213" transform="translate(525.873 177.589)">
                <g id="그룹_202" opacity="0.9">
                    <g id="그룹_200" transform="translate(6.665 7.071)">
                        <path id="패스_195" fill="#9b8579" d="M678.329 344.5v19.791a.3.3 0 0 0 .3.3h1a.3.3 0 0 0 .3-.3V344.5z" transform="translate(-678.329 -344.497)"/>
                        <path id="패스_196" d="M678.329 436.282v4.754l1.6-1.272v-3.109z" transform="translate(-678.329 -433.071)" style="mix-blend-mode:multiply;isolation:isolate" fill="#58595b" opacity="0.25"/>
                    </g>
                    <g id="그룹_201">
                        <path id="패스_220" d="M7.5 0A7.5 7.5 0 1 1 0 7.5 7.5 7.5 0 0 1 7.5 0z" class="cls-5" transform="translate(.162)"/>
                        <path id="패스_197" d="M606.931 254.629l1.77-1.759a.435.435 0 0 0 0-.618.442.442 0 0 0-.622 0l-1.77 1.759-1.77-1.759a.442.442 0 0 0-.622 0 .435.435 0 0 0 0 .618l1.77 1.759-1.77 1.759a.435.435 0 0 0 0 .618.442.442 0 0 0 .622 0l1.77-1.759 1.77 1.759a.442.442 0 0 0 .622 0 .435.435 0 0 0 0-.618z" class="cls-6" transform="translate(-598.626 -246.842)"/>
                    </g>
                </g>
                <g id="그룹_208" transform="translate(4.309 17.833)">
                    <path id="패스_198" d="M640.611 669.19l.171.1c.283-.12.611-.281.611-.281a1.289 1.289 0 0 0 .56.014c.889-.1 1.287-.484 1.137-1.039.3-.139.851-.649.1-1.365.467-.168.608-.985-.232-1.331.649-.158.347-.6.258-.707-.14-.023-.287-.045-.436-.065a1.737 1.737 0 0 0-.574.005c-.607.127-.79.729-1.212 1.926-.005.001-.847 2.46-.383 2.743z" transform="translate(-639.739 -663.927)" style="mix-blend-mode:multiply;isolation:isolate" fill="#eb8c64" opacity="0.3"/>
                    <g id="그룹_207">
                        <g id="그룹_203" transform="translate(.393 3.987)">
                            <path id="패스_199" d="M631.083 763.323c.3.358.686 0 .784-.1.016-.016.024-.027.024-.027a.2.2 0 0 0 .032.009 1.8 1.8 0 0 0 .527.005c.412-.041.884-.216.966-.4.246-.552-.566-.612-1.508-.6l-.266.006h-.1c-1.087.037-.811.692-.459 1.107z" class="cls-8" transform="translate(-630.771 -762.211)"/>
                            <path id="패스_200" d="M631.083 763.539c.3.358.686 0 .784-.1a3.158 3.158 0 0 0-.035-.564 1.673 1.673 0 0 0-.189-.44h-.1c-1.088.034-.812.69-.46 1.104z" class="cls-9" transform="translate(-630.771 -762.427)"/>
                            <path id="패스_201" d="M684.259 766.954a1 1 0 0 1 .238-.028c.168 0 .247.12.244.278a.493.493 0 0 1-.012.1c-.052.227-.292.218-.475.161a.278.278 0 0 1 .005-.511z" class="cls-10" transform="translate(-682.223 -766.761)"/>
                        </g>
                        <g id="그룹_204" transform="translate(0 2.736)">
                            <path id="패스_202" d="M619.567 727.311a1.11 1.11 0 0 0 .292.3 1.759 1.759 0 0 0 .932.154h.249a11.141 11.141 0 0 0 1.566-.147c.456-.072.552-.309.534-.527a.591.591 0 0 0-.5-.516 9.619 9.619 0 0 0-1.493-.11h-.302a4.457 4.457 0 0 0-.546.029c-.691.106-.837.506-.732.817z" class="cls-8" transform="translate(-619.536 -726.462)"/>
                            <path id="패스_203" d="M619.567 727.311a1.11 1.11 0 0 0 .292.3 1.759 1.759 0 0 0 .932.154 1.073 1.073 0 0 0 .279-.822 1.034 1.034 0 0 0-.174-.482h-.051a4.457 4.457 0 0 0-.546.029c-.691.11-.837.51-.732.821z" class="cls-9" transform="translate(-619.536 -726.462)"/>
                            <path id="패스_204" d="M696.528 735.852a1.33 1.33 0 0 1 .3-.029.293.293 0 0 1 .3.347.593.593 0 0 1-.019.122c-.074.277-.38.261-.611.187a.336.336 0 0 1 .03-.627z" class="cls-10" transform="translate(-693.615 -735.495)"/>
                        </g>
                        <g id="그룹_205" transform="translate(.006 1.27)">
                            <path id="패스_205" d="M620.019 685.793a2.812 2.812 0 0 0 1.062.235c.062 0 .127.006.2.008.29.008.647 0 1.1-.027.833-.049.954-.348.91-.589a.593.593 0 0 0-.321-.409 5.278 5.278 0 0 0-1.611-.42c-.07-.008-.141-.015-.213-.021-.149-.012-.3-.019-.453-.02-1.238-.003-1.093 1.058-.674 1.243z" class="cls-8" transform="translate(-619.717 -684.55)"/>
                            <path id="패스_206" d="M620.019 685.793a2.812 2.812 0 0 0 1.062.235 1.07 1.07 0 0 0 .327-.757 1.058 1.058 0 0 0-.268-.7c-.149-.012-.3-.019-.453-.02-1.232-.004-1.087 1.057-.668 1.242z" class="cls-9" transform="translate(-619.717 -684.55)"/>
                            <path id="패스_207" d="M696.4 700.678a1.174 1.174 0 0 1 .293 0c.191.02.269.178.254.363a.616.616 0 0 1-.02.116c-.072.262-.344.246-.565.169a.348.348 0 0 1 .038-.648z" class="cls-10" transform="translate(-693.484 -700.106)"/>
                        </g>
                        <g id="그룹_206" transform="translate(.771)">
                            <path id="패스_208" d="M642.13 649.477h.01l.076.02c.071.017.147.032.229.045.209.034.461.065.736.1 1.1.148 1.011-.488 1.011-.488s.068-.495-1.109-.768c-.189-.044-.347-.1-.487-.123a2.018 2.018 0 0 0-.214-.028c-.585-.044-.707.256-.788.629-.064.303.129.497.536.613z" class="cls-8" transform="translate(-641.583 -648.236)"/>
                            <path id="패스_209" d="M642.13 649.477h.01l.076.02a1.176 1.176 0 0 0 .276-.936 1.072 1.072 0 0 0-.11-.323c-.585-.044-.707.256-.788.629-.064.3.129.494.536.61z" class="cls-9" transform="translate(-641.583 -648.236)"/>
                            <path id="패스_210" d="M693.085 665.448a1.028 1.028 0 0 1 .257.022c.178.033.235.189.2.364a.579.579 0 0 1-.034.108c-.1.24-.354.177-.534.073a.321.321 0 0 1 .111-.567z" class="cls-10" transform="translate(-691.049 -664.844)"/>
                        </g>
                    </g>
                </g>
                <g id="그룹_209" transform="translate(5.821 17.073)">
                    <path id="패스_211" fill="#feb386" d="M685.781 643.364c.122-2.4-2.5-6.829-2.835-7.925a.825.825 0 0 0-.291-.4.893.893 0 0 1-.319-.5 5.758 5.758 0 0 1 .019-2.539s.01-.115-.051-.127c-.2-.04-.334 1.006-1.3 1.114-.37.041-.53-.066-.565-.246a1.59 1.59 0 0 1 .31-.911c.04-.067.081-.132.122-.194l.015-.023c.369-.561.22-.8.876-.922l.06-.01c.407-.064.919-.387 1.381-.172a3.753 3.753 0 0 1 .97 1.177 10.836 10.836 0 0 1 .462 2.087 2.6 2.6 0 0 0 .226.823.11.11 0 0 0 .013.021c.677 1.094 6.252 8.332 6.558 8.73l.013.017z" transform="translate(-680.43 -630.437)"/>
                    <path id="패스_212" fill="#fec29e" d="M680.436 671.206a.5.5 0 0 0 .43.112.822.822 0 0 0 .375-.774c-.069-.186-.349-.253-.5-.248a1.588 1.588 0 0 0-.305.91z" transform="translate(-680.428 -668.901)"/>
                </g>
                <g id="그룹_212" transform="translate(8.068 21.896)">
                    <g id="그룹_210">
                        <path id="패스_213" fill="#f1f2f2" d="M788.561 769.523l-.723-1.189-1.5 1.286.624.966z" transform="translate(-784.876 -768.333)"/>
                        <path id="패스_214" fill="#e6e7e8" d="M746.124 805.111l-1.458 1.247.5.77 1.583-1.05z" transform="translate(-744.667 -803.825)"/>
                    </g>
                    <g id="그룹_211" transform="translate(.233 .606)">
                        <path id="패스_215" fill="#4a494b" d="M751.333 824.866l2.763 4.885h2.862l-3.984-6.171z" transform="translate(-751.333 -822.254)"/>
                        <path id="패스_216" fill="#565658" d="M799.952 785.667l-1.693 1.326 3.984 6.171h3.073z" transform="translate(-796.617 -785.667)"/>
                    </g>
                </g>
            </g>
        </g>
        <g id="그룹_282" transform="translate(28 -61)">
            <circle id="타원_91" cx="7.5" cy="7.5" r="7.5" class="cls-5" transform="translate(920 482)"/>
            <path id="패스_218" d="M607.667 255.235l2.185-2.185a.543.543 0 0 0 0-.767.543.543 0 0 0-.767 0l-2.185 2.185-2.185-2.185a.543.543 0 0 0-.767 0 .543.543 0 0 0 0 .767l2.185 2.185-2.185 2.185a.543.543 0 0 0 0 .767.543.543 0 0 0 .767 0L606.9 256l2.185 2.185a.543.543 0 1 0 .767-.767z" class="cls-6" transform="translate(320.601 234.876)"/>
        </g>
    </g>
</svg>
