<svg xmlns="http://www.w3.org/2000/svg" xmlns:xlink="http://www.w3.org/1999/xlink" width="29" height="29" viewBox="0 0 29 29">
    <defs>
        <path id="a" d="M0 29h29V0H0z"/>
    </defs>
    <g fill="none" fill-rule="evenodd">
        <path fill="#FFF" d="M4.423 3.679c-.304 0-.59.118-.804.334L1.164 6.469a1.657 1.657 0 0 0-.386 1.735 33.624 33.624 0 0 0 20.018 20.018c.6.22 1.281.068 1.735-.386l2.456-2.455c.215-.215.334-.5.334-.805 0-.304-.118-.59-.333-.804l-4.144-4.144a1.14 1.14 0 0 0-1.61 0l-2.081 2.082a1.93 1.93 0 0 1-2.383.272c-3.19-2.03-5.802-4.64-7.763-7.755a1.93 1.93 0 0 1 .277-2.374l2.088-2.088c.215-.215.333-.5.333-.804 0-.304-.118-.59-.333-.805L5.228 4.012a1.13 1.13 0 0 0-.805-.333M21.357 29c-.267 0-.536-.046-.795-.14A34.301 34.301 0 0 1 .141 8.437a2.338 2.338 0 0 1 .543-2.45l2.455-2.455C3.482 3.189 3.938 3 4.423 3c.486 0 .942.189 1.285.532l4.144 4.144c.343.343.532.8.532 1.285 0 .485-.189.941-.532 1.284l-2.088 2.088a1.246 1.246 0 0 0-.183 1.532c1.908 3.03 4.449 5.569 7.553 7.544.482.306 1.129.23 1.539-.18l2.081-2.081a1.819 1.819 0 0 1 2.57 0l4.144 4.143c.343.344.532.8.532 1.286 0 .485-.19.941-.533 1.285l-2.455 2.454a2.343 2.343 0 0 1-1.655.684"/>
        <mask id="b" fill="#fff">
            <use xlink:href="#a"/>
        </mask>
        <path fill="#FFF" d="M26 3h3V0h-3zM15 3h3V0h-3zM20 3h3V0h-3zM26 9h3V6h-3zM15 9h3V6h-3zM20 9h3V6h-3zM26 14h3v-3h-3zM15 14h3v-3h-3zM20 14h3v-3h-3z" mask="url(#b)"/>
    </g>
</svg>
