<svg xmlns="http://www.w3.org/2000/svg" width="24" height="24" viewBox="0 0 24 24">
    <defs>
        <style>
            .cls-3{fill:#003575}
        </style>
    </defs>
    <g id="ico_logout_24px" transform="translate(-90 -734)">
        <path id="사각형_1711" fill="none" d="M0 0H24V24H0z" transform="translate(90 734)"/>
        <g id="그룹_2102" transform="translate(-11.388 -.565)">
            <g id="그룹_2101" transform="translate(105.388 736.565)">
                <rect id="사각형_1710" width="11" height="18" fill="#75d2f5" rx="2" transform="translate(1.612 .435)"/>
                <g id="그룹_2099">
                    <path id="패스_2329" d="M260.227 185.35v14.321a2.648 2.648 0 0 0 2.842 2.387h7.958a2.647 2.647 0 0 0 2.842-2.387v-1.91a.577.577 0 0 0-1.137 0v1.909a1.588 1.588 0 0 1-1.705 1.432h-7.958a1.589 1.589 0 0 1-1.705-1.432v-14.32a1.589 1.589 0 0 1 1.705-1.432h7.958a1.588 1.588 0 0 1 1.705 1.432v1.909a.577.577 0 0 0 1.137 0v-1.909a2.552 2.552 0 0 0-2.347-2.35h-8.949a2.552 2.552 0 0 0-2.347 2.35z" class="cls-3" transform="translate(-260.227 -183)"/>
                </g>
                <g id="그룹_2100" transform="translate(10.587 6.955)">
                    <path id="패스_2330" d="M32.93 21.176H27.5a.429.429 0 1 1 0-.858h5.43a.429.429 0 1 1 0 .858z" class="cls-3" transform="translate(-27.069 -18.173)"/>
                    <path id="패스_2331" d="M39.471 17.653a.429.429 0 0 1-.3-.733l1.841-1.841-1.841-1.841a.429.429 0 1 1 .607-.607l2.144 2.144a.429.429 0 0 1 0 .607l-2.144 2.144a.425.425 0 0 1-.307.127z" class="cls-3" transform="translate(-35.754 -12.506)"/>
                </g>
                <g id="그룹_2097" transform="translate(.001)">
                    <path id="패스_2322" fill="#64b5f6" d="M6.3 20.508L1.159 18.8A1.718 1.718 0 0 1 0 17.174V1.791A1.722 1.722 0 0 1 2.255.166l5.139 1.712A1.718 1.718 0 0 1 8.552 3.5v15.383a1.712 1.712 0 0 1-1.71 1.709 1.8 1.8 0 0 1-.542-.084zM1.283 1.791v15.383a.441.441 0 0 0 .288.409l5.117 1.7a.447.447 0 0 0 .581-.405V3.5a.441.441 0 0 0-.288-.409l-5.118-1.7a.487.487 0 0 0-.153-.023.428.428 0 0 0-.427.423z" transform="translate(0 -.081)"/>
                    <path id="패스_2325" d="M6.842 20.527a1.765 1.765 0 0 1-.53-.079l-5.147-1.714A1.725 1.725 0 0 1 0 17.108V1.725A1.712 1.712 0 0 1 1.711.016a1.766 1.766 0 0 1 .53.084l5.147 1.709a1.725 1.725 0 0 1 1.164 1.625v15.384a1.712 1.712 0 0 1-1.71 1.709zM1.711 1.3a.429.429 0 0 0-.428.427v15.381a.444.444 0 0 0 .3.412L6.7 19.226a.465.465 0 0 0 .14.019.429.429 0 0 0 .427-.427V3.434a.444.444 0 0 0-.3-.412L1.85 1.317a.464.464 0 0 0-.139-.017z" class="cls-3" transform="translate(0 -.016)"/>
                    <path id="패스_2321" fill="#3cb9e8" d="M22.7 18.672V33.38a1 1 0 0 1-.985 1.022 1.015 1.015 0 0 1-.315-.049l-4.73-1.635a1.033 1.033 0 0 1-.67-.972V17.037a1 1 0 0 1 .985-1.021 1.015 1.015 0 0 1 .315.049l4.727 1.635a1.033 1.033 0 0 1 .673.972z" transform="translate(-15.071 -14.948)"/>
                </g>
            </g>
            <path id="패스_2332" fill="#053575" d="M-8065.089-223.435h1.533l-.764.582z" transform="translate(8172.021 960)"/>
        </g>
    </g>
</svg>
