<svg xmlns="http://www.w3.org/2000/svg" xmlns:xlink="http://www.w3.org/1999/xlink" width="24" height="24" viewBox="0 0 24 24">
    <defs>
        <filter id="ag11aaomma">
            <feColorMatrix in="SourceGraphic" values="0 0 0 0 0.137255 0 0 0 0 0.176471 0 0 0 0 0.282353 0 0 0 1.000000 0"/>
        </filter>
        <filter id="gt2dq0kw7b">
            <feColorMatrix in="SourceGraphic" values="0 0 0 0 1.000000 0 0 0 0 1.000000 0 0 0 0 1.000000 0 0 0 1.000000 0"/>
        </filter>
        <path id="qmom8hnlxc" d="M0 22.812L22.922 22.812 22.922 0 0 0z"/>
    </defs>
    <g fill="none" fill-rule="evenodd">
        <g>
            <g filter="url(#ag11aaomma)" transform="translate(-703 -375) translate(565 356)">
                <g filter="url(#gt2dq0kw7b)" transform="translate(138.29 18)">
                    <g transform="translate(0 1.307)">
                        <path fill="#3A3A3C" d="M18.624 8.554c-.263 0-.477.214-.477.476v5.703c0 .262.214.475.477.475h1.433c1.053 0 1.91-.853 1.91-1.901v-2.852c0-1.048-.857-1.9-1.91-1.9h-1.433zm1.433 7.604h-1.433c-.79 0-1.432-.64-1.432-1.425V9.03c0-.786.643-1.426 1.432-1.426h1.433c1.58 0 2.865 1.28 2.865 2.851v2.852c0 1.572-1.285 2.851-2.865 2.851zM2.865 8.554c-1.053 0-1.91.853-1.91 1.901v2.852c0 1.048.857 1.9 1.91 1.9h1.433c.263 0 .478-.212.478-.474V9.03c0-.262-.215-.476-.478-.476H2.865zm1.433 7.604H2.865C1.285 16.158 0 14.88 0 13.307v-2.852c0-1.572 1.285-2.851 2.865-2.851h1.433c.79 0 1.433.64 1.433 1.426v5.703c0 .786-.643 1.425-1.433 1.425z"/>
                        <path fill="#3A3A3C" d="M18.624 8.554c-.263 0-.477-.212-.477-.475V6.653c0-3.144-2.57-5.703-5.73-5.703h-1.91c-3.16 0-5.731 2.559-5.731 5.703V8.08c0 .263-.214.475-.478.475s-.478-.212-.478-.475V6.653C3.82 2.985 6.82 0 10.506 0h1.91c3.687 0 6.686 2.985 6.686 6.653V8.08c0 .263-.214.475-.478.475"/>
                        <mask id="dk2hk2xuod" fill="#fff">
                            <use xlink:href="#qmom8hnlxc"/>
                        </mask>
                        <path fill="#3A3A3C" d="M10.506 21.861h2.865v-1.9h-2.865v1.9zm3.343.95h-3.82c-.264 0-.478-.212-.478-.474v-2.852c0-.262.214-.475.478-.475h3.82c.264 0 .478.213.478.475v2.852c0 .262-.214.475-.478.475z" mask="url(#dk2hk2xuod)"/>
                        <path fill="#3A3A3C" d="M13.848 21.386c-.24 0-.447-.18-.474-.423-.029-.261.16-.496.423-.525l2.223-.243c1.213-.133 2.127-1.148 2.127-2.362v-2.15c0-.262.214-.475.478-.475.263 0 .477.213.477.475v2.15c0 1.7-1.28 3.121-2.977 3.307l-2.224.243c-.018.002-.035.003-.053.003" mask="url(#dk2hk2xuod)"/>
                    </g>
                </g>
            </g>
        </g>
    </g>
</svg>
