<?xml version="1.0" encoding="UTF-8"?>
<svg width="31px" height="44px" viewBox="0 0 31 44" version="1.1" xmlns="http://www.w3.org/2000/svg" xmlns:xlink="http://www.w3.org/1999/xlink">
    <title>www</title>
    <g id="Page-1" stroke="none" stroke-width="1" fill="none" fill-rule="evenodd">
        <g id="FAQ" transform="translate(-380.000000, -634.000000)" fill="#6B67E9">
            <g id="www" transform="translate(380.000000, 634.000000)">
                <g id="Group-3" transform="translate(0.000000, 9.686482)">
                    <path d="M15.5,1.7 C17.4,1.7 19.2,2.1 20.9,2.8 C22.5,3.5 24,4.5 25.3,5.7 C26.6,7 27.6,8.4 28.3,10 C29,11.7 29.4,13.5 29.4,15.3 C29.4,17 29.1,18.6 28.5,20.1 C27.9,21.6 27.1,23 26,24.2 C23.8,26.6 20.9,28.3 17.7,28.7 C17.4,28.7 17.2,28.9 17.1,29.1 L15.6,31.7 L14,29.2 C13.9,29 13.6,28.8 13.4,28.8 C10.2,28.3 7.2,26.7 5.1,24.3 C4,23 3.2,21.6 2.6,20.1 C2,18.6 1.7,16.9 1.7,15.3 C1.7,13.5 2.1,11.7 2.8,10 C3.5,8.4 4.5,6.9 5.8,5.7 C7,4.4 8.5,3.4 10.1,2.7 C11.8,2 13.6,1.7 15.5,1.7 M29.8,9.3 C29,7.5 27.9,5.8 26.5,4.4 C25,3.1 23.4,2 21.5,1.2 C19.6,0.4 17.6,0 15.5,0 C13.4,0 11.4,0.4 9.5,1.2 C7.6,2 6,3.1 4.5,4.5 C3.1,5.9 2,7.5 1.2,9.3 C0.4,11.2 0,13.2 0,15.3 C0,17.2 0.3,19 1,20.7 C1.6,22.4 2.6,23.9 3.8,25.3 C6.1,27.9 9.3,29.7 12.8,30.3 L14.8,33.9 C14.9,34.2 15.2,34.3 15.5,34.3 C15.8,34.3 16.1,34.1 16.2,33.9 L18.2,30.3 C21.7,29.7 24.8,27.9 27.2,25.3 C28.4,23.9 29.3,22.4 30,20.7 C30.7,19 31,17.1 31,15.3 C31,13.2 30.6,11.2 29.8,9.3" id="Fill-1"></path>
                </g>
                <g id="Group-6" transform="translate(14.653693, 0.000000)">
                    <path d="M0.8,6.4 C1.3,6.4 1.6,6 1.6,5.6 L1.6,0.8 C1.7,0.4 1.3,0 0.8,0 C0.3,0 0,0.4 0,0.8 L0,5.5 C0,6 0.4,6.4 0.8,6.4" id="Fill-4"></path>
                </g>
                <path d="M23.4,8.8 C23.5,8.9 23.7,9 23.9,9 C24.2,9 24.4,8.9 24.5,8.7 L27.6,5.1 C27.7,4.9 27.8,4.7 27.8,4.5 C27.8,4.3 27.7,4.1 27.5,3.9 C27.3,3.8 27.1,3.7 26.9,3.7 C26.7,3.7 26.5,3.8 26.3,4 L23.2,7.6 C23.1,7.8 23,8 23,8.2 C23.1,8.4 23.2,8.6 23.4,8.8" id="Fill-7"></path>
                <path d="M6.4,8.6 C6.6,8.8 6.8,8.9 7,8.9 C7.2,8.9 7.4,8.8 7.5,8.7 C7.7,8.6 7.8,8.4 7.8,8.1 C7.8,7.9 7.8,7.7 7.6,7.5 L4.7,3.9 C4.5,3.7 4.3,3.6 4.1,3.6 C3.9,3.6 3.7,3.6 3.5,3.8 C3.3,4 3.2,4.2 3.2,4.4 C3.2,4.6 3.2,4.8 3.4,5 L6.4,8.6 Z" id="Fill-9"></path>
                <path d="M10.8,24 C10.9,23.5 11,22.9 11.2,22.4 C11.4,21.9 11.6,21.4 11.9,20.9 C12.2,20.4 12.5,20 12.9,19.7 C13.2,19.4 13.6,19.2 14,19 C14.4,18.9 14.8,18.8 15.2,18.7 L15.2,18.7 C15.8,18.7 16.4,18.7 16.9,18.9 C17.4,19.1 17.9,19.4 18.3,19.7 C18.7,20.1 19,20.5 19.2,21 C19.4,21.5 19.6,22.1 19.7,22.7 L19.7,22.7 C19.8,23.6 19.7,24.6 19.4,25.5 C19.2,26.4 18.7,27.3 18.1,28.1 L17.9,28.3 L17.7,28.1 C17.3,27.6 16.8,27 16.3,26.3 C16,26.1 15.8,26 15.4,26 C15.2,26 15,26.1 14.9,26.2 C14.8,26.3 14.7,26.5 14.7,26.6 C14.8,26.8 14.8,26.9 14.8,26.9 C14.8,26.9 14.8,27 14.9,27.1 C15.1,27.4 15.4,27.8 15.6,28.1 C15.8,28.4 16.1,28.7 16.4,29 L16.7,29.3 L16.4,29.4 C16.2,29.5 16,29.5 15.8,29.6 C15.6,29.6 15.4,29.7 15.3,29.7 L15.3,29.7 L15.3,29.7 C15.2,29.7 15.1,29.7 15,29.7 C14.5,29.7 14,29.6 13.5,29.4 C13,29.2 12.5,28.9 12.1,28.5 C11.7,28.1 11.4,27.6 11.2,27.1 C11,26.6 10.9,26 10.8,25.4 C10.7,25 10.7,24.5 10.8,24 M9.7,27.9 C10,28.6 10.5,29.3 11,29.8 C11.5,30.3 12.2,30.7 12.9,31 C13.6,31.3 14.5,31.4 15.4,31.3 C15.6,31.3 15.9,31.2 16.1,31.2 C16.3,31.2 16.5,31.1 16.6,31 C16.8,30.9 16.9,30.9 17.1,30.8 C17.3,30.7 17.5,30.6 17.7,30.5 L17.8,30.4 L17.9,30.5 C18.8,31.2 19.9,31.7 21.1,32.2 L21.3,32.3 C21.4,32.3 21.5,32.3 21.6,32.3 L21.6,32.3 C21.8,32.3 22,32.2 22.2,32 C22.3,31.9 22.4,31.7 22.4,31.6 C22.4,31.3 22.2,31.1 21.8,30.9 L21.8,30.9 L21.8,30.9 C21.3,30.7 20.9,30.5 20.5,30.3 C20.1,30.1 19.7,29.8 19.3,29.5 L19.1,29.3 L19.3,29.1 C20,28.2 20.6,27.2 20.9,26 C21.2,24.9 21.4,23.7 21.3,22.4 C21.3,21.9 21.2,21.4 21,20.9 C20.9,20.4 20.6,19.9 20.4,19.5 C19.8,18.6 19,18 18.1,17.6 C17.2,17.2 16.2,17.1 15.2,17.1 C14.6,17.1 14,17.3 13.5,17.5 C12.9,17.7 12.4,18 11.9,18.4 C11.4,18.8 11,19.3 10.6,19.8 C10.2,20.4 10,20.9 9.7,21.6 C9.5,22.2 9.3,22.9 9.2,23.5 C9.1,24.2 9.1,24.8 9.1,25.4 C9.2,26.3 9.4,27.1 9.7,27.9" id="Fill-11"></path>
            </g>
        </g>
    </g>
</svg>