<?xml version="1.0" encoding="utf-8"?>
<!-- Generator: Adobe Illustrator 24.3.0, SVG Export Plug-In . SVG Version: 6.00 Build 0)  -->
<svg version="1.1" id="레이어_1" xmlns="http://www.w3.org/2000/svg" xmlns:xlink="http://www.w3.org/1999/xlink" x="0px"
	 y="0px" viewBox="0 0 20 20" style="enable-background:new 0 0 20 20;" xml:space="preserve">
<style type="text/css">
	.st0{fill:#FFFFFF;}
</style>
<g>
	<path class="st0" d="M10,0C4.5,0,0,4.5,0,10s4.5,10,10,10s10-4.5,10-10S15.5,0,10,0z M9.6,15.9L9.6,15.9
		C9.6,15.9,9.6,15.9,9.6,15.9c-0.8,0-1.4-0.7-1.4-1.4c0,0,0,0,0-0.1c0-0.8,0.6-1.4,1.4-1.4c0,0,0,0,0.1,0c0.8,0,1.4,0.7,1.3,1.4
		c0,0,0,0,0,0.1C11,15.3,10.4,15.9,9.6,15.9z M10.6,12H8.7c-0.4-2.4,2.2-3.4,2.2-4.8c0-0.1,0-0.1,0-0.2c-0.1-0.6-0.6-1.1-1.3-1.1
		c-0.7,0-1.3,0.3-1.7,0.8L6.7,5.6c0.8-0.9,1.9-1.5,3.2-1.5C11.7,4.1,13,5.1,13,7C13,9.1,10.4,9.8,10.6,12z"/>
</g>
</svg>
