<svg xmlns="http://www.w3.org/2000/svg" xmlns:xlink="http://www.w3.org/1999/xlink" viewBox="0 0 96.14 73.29"><defs><style>.cls-1{fill:none;}.cls-2{isolation:isolate;}.cls-3{fill:#362e94;}.cls-4{fill:#1e1c6b;}.cls-5{fill:#bbc0e6;}.cls-6{fill:#121244;}.cls-7{fill:#423eaf;}.cls-8{fill:#5652cc;}.cls-9{fill:url(#linear-gradient);}.cls-10{fill:url(#linear-gradient-2);}.cls-11,.cls-17,.cls-18{mix-blend-mode:screen;}.cls-11{fill:url(#linear-gradient-3);}.cls-12,.cls-27{fill:#ced3f8;}.cls-13{fill:#f6f6fb;}.cls-14{fill:#6b67e9;}.cls-15,.cls-19{fill:#dfe4f4;}.cls-16{fill:#20196f;}.cls-17{fill:url(#linear-gradient-4);}.cls-18{fill:url(#linear-gradient-5);}.cls-19,.cls-21,.cls-26,.cls-27{mix-blend-mode:multiply;}.cls-20{fill:url(#linear-gradient-6);}.cls-21{fill:url(#linear-gradient-7);}.cls-22{fill:#ffaf6d;}.cls-23{fill:#e57139;}.cls-24{fill:#fb944b;}.cls-25{fill:url(#linear-gradient-8);}.cls-26{fill:url(#linear-gradient-9);}.cls-28{clip-path:url(#clip-path);}.cls-29{fill:url(#linear-gradient-10);}</style><linearGradient id="linear-gradient" x1="83.71" y1="35.64" x2="54.82" y2="37.28" gradientUnits="userSpaceOnUse"><stop offset="0" stop-color="#20196f"/><stop offset="0.02" stop-color="#15124c"/><stop offset="0.03" stop-color="#131147"/><stop offset="1" stop-color="#20196f"/></linearGradient><linearGradient id="linear-gradient-2" x1="21.07" y1="34.15" x2="55.36" y2="34.15" gradientUnits="userSpaceOnUse"><stop offset="0" stop-color="#362e94"/><stop offset="0.04" stop-color="#352d92"/><stop offset="1" stop-color="#20196f"/></linearGradient><linearGradient id="linear-gradient-3" x1="-512.04" y1="30.29" x2="-504.98" y2="42.53" gradientTransform="matrix(-1, 0, 0, 1, -470.39, 0)" gradientUnits="userSpaceOnUse"><stop offset="0"/><stop offset="1" stop-color="#20196f"/></linearGradient><linearGradient id="linear-gradient-4" x1="43.48" y1="32.82" x2="37.62" y2="42.97" gradientUnits="userSpaceOnUse"><stop offset="0"/><stop offset="0.21" stop-color="#010103"/><stop offset="0.4" stop-color="#04030e"/><stop offset="0.57" stop-color="#090720"/><stop offset="0.75" stop-color="#110d3a"/><stop offset="0.91" stop-color="#1a145a"/><stop offset="1" stop-color="#20196f"/></linearGradient><linearGradient id="linear-gradient-5" x1="49.61" y1="36.36" x2="43.19" y2="47.49" gradientTransform="translate(27.18 -17.58) rotate(30)" gradientUnits="userSpaceOnUse"><stop offset="0"/><stop offset="0.44" stop-color="#030303"/><stop offset="0.82" stop-color="#0a0d0e"/><stop offset="1" stop-color="#101416"/></linearGradient><linearGradient id="linear-gradient-6" x1="26.94" y1="61.05" x2="28.75" y2="64.19" gradientUnits="userSpaceOnUse"><stop offset="0" stop-color="#fff"/><stop offset="0.18" stop-color="#edeef8"/><stop offset="0.5" stop-color="#d2d5ee"/><stop offset="0.78" stop-color="#c1c5e8"/><stop offset="1" stop-color="#bbc0e6"/></linearGradient><linearGradient id="linear-gradient-7" x1="87.34" y1="24.39" x2="92.58" y2="24.39" gradientUnits="userSpaceOnUse"><stop offset="0" stop-color="#c4cae9"/><stop offset="1" stop-color="#fff"/></linearGradient><linearGradient id="linear-gradient-8" x1="4.27" y1="47.96" x2="6.09" y2="51.1" xlink:href="#linear-gradient-6"/><linearGradient id="linear-gradient-9" x1="61.5" y1="4.9" x2="68.05" y2="4.9" gradientUnits="userSpaceOnUse"><stop offset="0" stop-color="#dae0f5"/><stop offset="1" stop-color="#f6f6fb"/></linearGradient><clipPath id="clip-path"><rect class="cls-1" x="-974.41" y="-866.81" width="1922" height="550"/></clipPath><linearGradient id="linear-gradient-10" x1="-240.81" y1="154.95" x2="-240.81" y2="-1312.46" gradientUnits="userSpaceOnUse"><stop offset="0" stop-color="#7f7ff4"/><stop offset="0.29" stop-color="#5d5cc4"/><stop offset="0.61" stop-color="#3b3a94"/><stop offset="0.86" stop-color="#262476"/><stop offset="1" stop-color="#1e1c6b"/></linearGradient></defs><g class="cls-2"><g id="Layer_2" data-name="Layer 2"><polygon class="cls-3" points="85.69 35.82 90.38 38.53 90.38 33.31 85.69 30.6 85.69 35.82"/><polygon class="cls-3" points="43.05 60.44 47.74 63.15 47.74 57.93 43.05 55.22 43.05 60.44"/><path class="cls-4" d="M38.06,73a3.62,3.62,0,0,1-1.52-3.34,11.38,11.38,0,0,1,5.16-8.93,3.61,3.61,0,0,1,3.65-.37,3.64,3.64,0,0,1,1.51,3.34,11.42,11.42,0,0,1-5.16,8.94A3.61,3.61,0,0,1,38.06,73Z"/><path class="cls-5" d="M38.86,68.27a6.28,6.28,0,0,1,2.84-4.92c1.57-.9,2.84-.17,2.84,1.64a6.28,6.28,0,0,1-2.84,4.92C40.13,70.82,38.86,70.08,38.86,68.27Z"/><path class="cls-6" d="M36.54,69.61a11.38,11.38,0,0,1,5.16-8.93,3.61,3.61,0,0,1,3.65-.37L41.4,58a3.64,3.64,0,0,0-3.65.37,11.37,11.37,0,0,0-5.15,8.93,3.62,3.62,0,0,0,1.51,3.34L38.05,73A3.64,3.64,0,0,1,36.54,69.61Z"/><path class="cls-4" d="M80.69,48.33A3.63,3.63,0,0,1,79.18,45a11.38,11.38,0,0,1,5.16-8.93,3.15,3.15,0,0,1,5.16,3A11.4,11.4,0,0,1,84.34,48,3.63,3.63,0,0,1,80.69,48.33Z"/><path class="cls-5" d="M81.5,43.65a6.28,6.28,0,0,1,2.84-4.92c1.57-.9,2.84-.17,2.84,1.64a6.27,6.27,0,0,1-2.84,4.92C82.77,46.2,81.5,45.47,81.5,43.65Z"/><path class="cls-6" d="M79.18,45a11.38,11.38,0,0,1,5.16-8.93A3.63,3.63,0,0,1,88,35.7L84,33.42a3.63,3.63,0,0,0-3.65.36,11.38,11.38,0,0,0-5.16,8.93,3.63,3.63,0,0,0,1.51,3.34l4,2.28A3.63,3.63,0,0,1,79.18,45Z"/><polygon class="cls-7" points="87.99 29.29 57.73 11.82 64.62 7.85 94.87 25.31 87.99 29.29"/><polygon class="cls-7" points="31.52 72.51 1.27 55.04 1.27 44.42 31.52 61.88 31.52 72.51"/><polygon class="cls-8" points="31.52 61.88 1.27 44.42 19.57 33.86 49.82 51.32 31.52 61.88"/><polygon class="cls-7" points="49.82 51.32 19.57 33.86 27.25 15.42 57.51 32.88 49.82 51.32"/><polygon class="cls-8" points="57.51 32.88 27.25 15.42 47.87 3.52 78.12 20.98 57.51 32.88"/><path class="cls-3" d="M49.82,51.32l7.69-18.44L78.12,21,88,29.29l6.88-4V35.93l-4.49,2.6h0c0-3.85-2.71-5.41-6-3.49a13.35,13.35,0,0,0-6,10.46h0L47.74,63.15c0-3.86-2.7-5.42-6-3.49a13.36,13.36,0,0,0-6,10.46l-4.14,2.39V61.89Z"/><path class="cls-9" d="M77.66,23.06l-8.58,5V40.2l14.84-8.57ZM51.43,50.39l15.58-9V29.21l-8.56,4.94Z"/><polygon class="cls-10" points="48.38 50.49 21.07 34.73 28.04 17.82 55.36 33.59 48.38 50.49"/><polygon class="cls-11" points="53.79 37.3 48.38 50.49 21.07 34.73 22.01 32.45 33.7 25.7 53.79 37.3"/><polygon class="cls-12" points="31.52 73.24 0 55.04 0 50.11 31.52 68.31 31.52 73.24"/><polygon class="cls-5" points="35.32 71.05 31.52 73.24 31.52 68.31 35.32 66.12 35.32 71.05"/><polygon class="cls-13" points="34.69 65.75 31.52 67.58 1.27 50.11 1.27 49.38 0 50.11 31.52 68.31 35.32 66.12 34.69 65.75"/><polygon class="cls-5" points="96.14 35.93 91.79 38.44 91.79 33.52 96.14 31 96.14 35.93"/><polygon class="cls-12" points="91.79 38.44 91.16 38.08 91.16 33.15 91.79 33.52 91.79 38.44"/><polygon class="cls-13" points="91.16 33.15 94.87 31 94.87 30.27 96.14 31 91.79 33.52 91.16 33.15"/><path class="cls-14" d="M63.13,45.86a1.26,1.26,0,0,1,.52-1l2.06-1.18a.34.34,0,0,1,.21-.06.58.58,0,0,1,.54.48.9.9,0,0,1-.38,1L64,46.29A.55.55,0,0,1,63.13,45.86Z"/><path class="cls-8" d="M66.49,44.25a.9.9,0,0,1-.41.82L64,46.29c-.65.37-.9-.15-.87-.43a1.53,1.53,0,0,1,.07-.4.56.56,0,0,0,.81.47c.17-.08,1.61-.86,1.91-1.06A1.43,1.43,0,0,0,66.49,44.25Z"/><polygon class="cls-15" points="91.16 33.15 92.43 33.15 96.14 31 94.87 30.27 94.87 31 91.16 33.15"/><polygon class="cls-15" points="31.52 67.58 32.8 67.58 35.32 66.12 34.69 65.75 31.52 67.58"/><path class="cls-16" d="M9.74,54.11,23.06,61.8c.64.37,1.16.07,1.16-.67h0a2.57,2.57,0,0,0-1.16-2L9.74,51.43c-.65-.37-1.16-.07-1.16.67h0A2.54,2.54,0,0,0,9.74,54.11Z"/><polygon class="cls-7" points="29.39 53.06 16.56 45.65 17.69 45 28.26 51.1 29.39 53.06"/><polygon class="cls-14" points="29.41 38.23 17.69 45 28.26 51.1 39.98 44.33 29.41 38.23"/><polygon class="cls-17" points="41.13 31.47 29.41 38.23 39.98 44.33 51.69 37.56 41.13 31.47"/><rect class="cls-18" x="39.63" y="40.8" width="13.53" height="2.27" transform="translate(-14.75 28.82) rotate(-30)"/><rect class="cls-3" x="27.92" y="47.56" width="13.53" height="2.27" transform="translate(-19.7 23.87) rotate(-30)"/><path class="cls-19" d="M29.37,64a2.82,2.82,0,0,0-1.28-2.22c-.71-.41-1.28-.08-1.28.74a2.82,2.82,0,0,0,1.28,2.22C28.8,65.13,29.37,64.8,29.37,64Z"/><path class="cls-20" d="M26.69,61.92l-.31-.54.44-.26h0a.86.86,0,0,1,.9.09A2.81,2.81,0,0,1,29,63.43a.92.92,0,0,1-.37.83h0l-.45.26L27.87,64A2.83,2.83,0,0,1,26.69,61.92Z"/><path class="cls-13" d="M28.56,63.69a2.82,2.82,0,0,0-1.28-2.22c-.71-.41-1.28-.08-1.28.74a2.84,2.84,0,0,0,1.28,2.22C28,64.84,28.56,64.51,28.56,63.69Z"/><polygon class="cls-3" points="86.57 25.09 87.34 25.53 87.34 22.64 86.57 22.2 86.57 25.09"/><polygon class="cls-16" points="87.34 25.53 91.91 22.9 91.91 20.01 87.34 22.64 87.34 25.53"/><polygon class="cls-3" points="64.23 12.19 65 12.64 65 9.75 64.23 9.3 64.23 12.19"/><polygon class="cls-16" points="65 12.64 69.57 10 69.57 7.11 65 9.75 65 12.64"/><polygon class="cls-21" points="87.34 25.53 92.58 25.53 92.58 23.99 91.3 23.25 87.34 25.53"/><polygon class="cls-22" points="90.07 22.71 94.64 20.07 66.07 3.58 61.5 6.22 90.07 22.71"/><polygon class="cls-22" points="60.66 3.02 65.23 0.38 64.58 0 60.01 2.64 60.66 3.02"/><polygon class="cls-22" points="91.57 20.86 96.13 18.22 95.48 17.84 90.91 20.48 91.57 20.86"/><polygon class="cls-23" points="90.91 24.71 95.48 22.07 96.13 18.22 91.57 20.86 90.91 24.71"/><polygon class="cls-23" points="61.5 6.22 66.07 3.58 65.23 0.38 60.66 3.02 61.5 6.22"/><polygon class="cls-24" points="90.91 20.48 90.07 22.71 61.5 6.22 60.66 3.02 60.01 2.64 60.66 7.24 90.91 24.71 91.57 20.86 90.91 20.48"/><path class="cls-19" d="M6.7,50.89a2.82,2.82,0,0,0-1.28-2.22c-.71-.41-1.28-.08-1.28.74a2.82,2.82,0,0,0,1.28,2.22C6.13,52,6.7,51.71,6.7,50.89Z"/><path class="cls-25" d="M4,48.83l-.31-.54L4.16,48h0a.91.91,0,0,1,.9.09,2.83,2.83,0,0,1,1.29,2.22.91.91,0,0,1-.38.83H6l-.45.26-.31-.55A2.79,2.79,0,0,1,4,48.83Z"/><path class="cls-13" d="M5.89,50.6a2.82,2.82,0,0,0-1.28-2.22c-.71-.41-1.28-.08-1.28.74a2.82,2.82,0,0,0,1.28,2.22C5.32,51.75,5.89,51.42,5.89,50.6Z"/><polygon class="cls-26" points="61.5 6.22 66.55 5.55 68.05 4.72 66.07 3.58 61.5 6.22"/><polygon class="cls-27" points="65 12.64 70.01 12.64 67.51 11.19 65 12.64"/><g class="cls-28"><g class="cls-28"><rect class="cls-29" x="-1464.92" y="-1312.46" width="2448.23" height="1467.41"/></g></g></g></g></svg>