<svg xmlns="http://www.w3.org/2000/svg" xmlns:xlink="http://www.w3.org/1999/xlink" viewBox="0 0 92.77 67.95"><defs><style>.cls-1{fill:none;}.cls-2{isolation:isolate;}.cls-3{fill:#362e94;}.cls-4{fill:#1e1c6b;}.cls-5{fill:#bbc0e6;}.cls-6{fill:#121244;}.cls-7{fill:#fb944b;}.cls-8{fill:#ffaf6d;}.cls-9{fill:#e57139;}.cls-10{fill:url(#linear-gradient);}.cls-11{fill:#423eaf;}.cls-12{fill:url(#linear-gradient-2);}.cls-13{mix-blend-mode:screen;fill:url(#linear-gradient-3);}.cls-14{fill:#ced3f8;}.cls-15{fill:#f6f6fb;}.cls-16{fill:#6b67e9;}.cls-17{fill:#5652cc;}.cls-18{fill:#f1f1f6;}.cls-19,.cls-20{fill:#dfe4f4;}.cls-19{mix-blend-mode:multiply;}.cls-21{clip-path:url(#clip-path);}.cls-22{fill:url(#linear-gradient-4);}.cls-23{fill:url(#linear-gradient-5);}</style><linearGradient id="linear-gradient" x1="77.19" y1="32.73" x2="50.72" y2="34.22" gradientUnits="userSpaceOnUse"><stop offset="0" stop-color="#362e94"/><stop offset="0.64" stop-color="#4a45b7"/><stop offset="0.99" stop-color="#5652cc"/></linearGradient><linearGradient id="linear-gradient-2" x1="17.05" y1="31.85" x2="48.69" y2="31.85" gradientUnits="userSpaceOnUse"><stop offset="0.01" stop-color="#5652cc"/><stop offset="0.36" stop-color="#4a45b7"/><stop offset="1" stop-color="#362e94"/></linearGradient><linearGradient id="linear-gradient-3" x1="-334.28" y1="26.95" x2="-327.16" y2="39.29" gradientTransform="matrix(-1, 0, 0, 1, -296.57, 0)" gradientUnits="userSpaceOnUse"><stop offset="0"/><stop offset="1" stop-color="#5b3600"/></linearGradient><clipPath id="clip-path"><rect class="cls-1" x="-887.51" y="-709.18" width="1922" height="550"/></clipPath><linearGradient id="linear-gradient-4" x1="-153.9" y1="312.58" x2="-153.9" y2="-1154.83" gradientUnits="userSpaceOnUse"><stop offset="0" stop-color="#7f7ff4"/><stop offset="0.29" stop-color="#5d5cc4"/><stop offset="0.61" stop-color="#3b3a94"/><stop offset="0.86" stop-color="#262476"/><stop offset="1" stop-color="#1e1c6b"/></linearGradient><linearGradient id="linear-gradient-5" x1="313.56" y1="-1203.13" x2="313.56" y2="434.67" gradientUnits="userSpaceOnUse"><stop offset="0" stop-color="#1e1c6b"/><stop offset="0.14" stop-color="#262476"/><stop offset="0.39" stop-color="#3b3a94"/><stop offset="0.71" stop-color="#5d5cc4"/><stop offset="1" stop-color="#7f7ff4"/></linearGradient></defs><g class="cls-2"><g id="Layer_2" data-name="Layer 2"><polygon class="cls-3" points="82.22 32.58 86.95 35.31 86.95 30.05 82.22 27.32 82.22 32.58"/><polygon class="cls-3" points="43.42 54.98 48.15 57.72 48.15 52.45 43.42 49.72 43.42 54.98"/><path class="cls-4" d="M38.39,67.6a3.63,3.63,0,0,1-1.53-3.36,11.5,11.5,0,0,1,5.2-9,3.64,3.64,0,0,1,3.68-.36,3.66,3.66,0,0,1,1.52,3.37,11.48,11.48,0,0,1-5.2,9A3.64,3.64,0,0,1,38.39,67.6Z"/><path class="cls-5" d="M39.2,62.88a6.35,6.35,0,0,1,2.86-5c1.58-.91,2.87-.17,2.87,1.66a6.36,6.36,0,0,1-2.87,5C40.48,65.45,39.2,64.71,39.2,62.88Z"/><path class="cls-6" d="M36.86,64.24a11.5,11.5,0,0,1,5.2-9,3.64,3.64,0,0,1,3.68-.36l-4-2.3a3.66,3.66,0,0,0-3.68.36,11.52,11.52,0,0,0-5.2,9A3.65,3.65,0,0,0,34.4,65.3l4,2.3A3.65,3.65,0,0,1,36.86,64.24Z"/><path class="cls-4" d="M77.19,45.2a3.67,3.67,0,0,1-1.53-3.37,11.49,11.49,0,0,1,5.21-9,3.17,3.17,0,0,1,5.2,3,11.49,11.49,0,0,1-5.2,9A3.67,3.67,0,0,1,77.19,45.2Z"/><path class="cls-5" d="M78,40.48a6.3,6.3,0,0,1,2.87-5c1.58-.91,2.86-.17,2.86,1.65a6.35,6.35,0,0,1-2.86,5C79.28,43.05,78,42.31,78,40.48Z"/><path class="cls-6" d="M75.66,41.83a11.49,11.49,0,0,1,5.21-9,3.62,3.62,0,0,1,3.67-.36l-4-2.3a3.64,3.64,0,0,0-3.68.36,11.5,11.5,0,0,0-5.2,9,3.64,3.64,0,0,0,1.53,3.37l4,2.3A3.65,3.65,0,0,1,75.66,41.83Z"/><polygon class="cls-7" points="79.07 29.15 48.56 11.53 60.97 4.36 91.49 21.98 79.07 29.15"/><polygon class="cls-7" points="31.8 67.16 1.28 49.54 1.28 38.83 31.8 56.44 31.8 67.16"/><polygon class="cls-8" points="31.8 56.44 1.28 38.83 15.53 30.6 46.05 48.22 31.8 56.44"/><polygon class="cls-7" points="46.05 48.22 15.53 30.6 20.05 13.87 50.56 31.49 46.05 48.22"/><polygon class="cls-8" points="50.56 31.49 20.05 13.87 44.08 0 74.59 17.62 50.56 31.49"/><path class="cls-9" d="M46.05,48.22l4.51-16.73,24-13.87,4.48,11.53L91.49,22V32.69L87,35.31h0c0-3.88-2.72-5.46-6.08-3.51a13.43,13.43,0,0,0-6.09,10.54h0L48.15,57.71c0-3.88-2.72-5.45-6.09-3.51A13.46,13.46,0,0,0,36,64.75L31.8,67.16V56.44Z"/><path class="cls-10" d="M73.54,20.05,63.6,25.79V38.08l13.85-8ZM47.67,47.28l13.85-8V27L51.6,32.72Z"/><polygon class="cls-11" points="11.76 50.62 21.32 56.14 21.32 52.54 11.76 47.02 11.76 50.62"/><polygon class="cls-12" points="44.6 47.38 17.05 31.48 21.14 16.32 48.69 32.23 44.6 47.38"/><polygon class="cls-13" points="48.44 33.15 44.6 47.38 17.05 31.48 17.61 29.4 29.78 22.37 48.44 33.15"/><polygon class="cls-14" points="31.8 67.9 0 49.54 0 44.57 31.8 62.93 31.8 67.9"/><polygon class="cls-5" points="35.63 65.69 31.8 67.9 31.8 62.93 35.63 60.71 35.63 65.69"/><polygon class="cls-15" points="34.99 60.34 31.8 62.19 1.28 44.57 1.28 43.83 0 44.57 31.8 62.93 35.63 60.71 34.99 60.34"/><polygon class="cls-5" points="92.77 32.69 88.38 35.23 88.38 30.26 92.77 27.72 92.77 32.69"/><polygon class="cls-14" points="88.38 35.23 87.74 34.86 87.74 29.89 88.38 30.26 88.38 35.23"/><polygon class="cls-15" points="87.74 29.89 91.49 27.72 91.49 26.98 92.77 27.72 88.38 30.26 87.74 29.89"/><path class="cls-16" d="M72.83,34.94a1.27,1.27,0,0,1,.53-1l2.07-1.2a.48.48,0,0,1,.21-.06.58.58,0,0,1,.55.49.89.89,0,0,1-.39,1c-1,.61-1.76,1-2.09,1.24A.56.56,0,0,1,72.83,34.94Z"/><path class="cls-17" d="M76.22,33.31a.89.89,0,0,1-.42.82c-1,.61-1.76,1-2.09,1.24-.65.37-.91-.16-.88-.43a1.56,1.56,0,0,1,.08-.41.57.57,0,0,0,.8.48c.18-.09,1.64-.88,1.93-1.08A1.4,1.4,0,0,0,76.22,33.31Z"/><path class="cls-16" d="M57.19,44a1.27,1.27,0,0,1,.53-1l2.07-1.2A.45.45,0,0,1,60,41.7a.58.58,0,0,1,.55.49.89.89,0,0,1-.39,1c-1,.61-1.77,1.05-2.09,1.24A.56.56,0,0,1,57.19,44Z"/><path class="cls-17" d="M60.58,42.34a.89.89,0,0,1-.42.82c-1,.61-1.77,1.05-2.09,1.24-.66.37-.91-.16-.88-.43a1.53,1.53,0,0,1,.07-.41.57.57,0,0,0,.81.48C58.25,44,59.7,43.16,60,43A1.4,1.4,0,0,0,60.58,42.34Z"/><polygon class="cls-18" points="28.21 60.86 22.59 57.61 22.59 54.01 28.21 57.26 28.21 60.86"/><polygon class="cls-14" points="28.86 60.49 28.21 60.86 28.21 57.26 28.86 56.89 28.86 60.49"/><polygon class="cls-15" points="28.86 56.89 28.21 57.26 22.59 54.01 23.23 53.64 28.86 56.89"/><polygon class="cls-18" points="9.21 49.89 3.58 46.64 3.58 43.04 9.21 46.28 9.21 49.89"/><polygon class="cls-14" points="9.85 49.52 9.21 49.89 9.21 46.28 9.85 45.91 9.85 49.52"/><polygon class="cls-15" points="9.85 45.91 9.21 46.28 3.58 43.04 4.22 42.67 9.85 45.91"/><polygon class="cls-19" points="9.85 45.91 10.49 47 10.49 49.89 9.85 49.52 9.85 45.91"/><polygon class="cls-20" points="9.21 49.89 10.49 49.89 9.85 49.52 9.21 49.89"/><polygon class="cls-19" points="28.86 56.89 29.5 57.97 29.5 60.86 28.86 60.49 28.86 56.89"/><polygon class="cls-20" points="28.21 60.86 29.5 60.86 28.86 60.49 28.21 60.86"/><polygon class="cls-20" points="87.74 29.89 89.02 29.89 92.77 27.72 91.49 26.98 91.49 27.72 87.74 29.89"/><polygon class="cls-20" points="31.8 62.19 33.08 62.19 35.63 60.71 34.99 60.34 31.8 62.19"/><g class="cls-21"><g class="cls-21"><rect class="cls-22" x="-1378.02" y="-1154.83" width="2448.23" height="1467.41"/><polygon class="cls-23" points="-91.41 11.52 -91.41 -11.78 -250.04 -103.27 -253.61 -101.21 -253.61 -105.33 -259.15 -108.52 718.53 -677.68 724.07 -674.48 724.07 -670.37 877.16 -582.08 880.73 -584.13 886.27 -580.94 886.27 -557.64 -91.41 11.52"/></g></g></g></g></svg>