<?xml version="1.0" encoding="utf-8"?>
<!-- Generator: Adobe Illustrator 25.2.1, SVG Export Plug-In . SVG Version: 6.00 Build 0)  -->
<svg version="1.1" id="Layer_1" xmlns="http://www.w3.org/2000/svg" xmlns:xlink="http://www.w3.org/1999/xlink" x="0px" y="0px"
	 viewBox="0 0 110 80" style="enable-background:new 0 0 110 80;" xml:space="preserve">
<style type="text/css">
	.st0{fill:#344154;}
	.st1{fill-rule:evenodd;clip-rule:evenodd;fill:#6663E5;}
</style>
<g id="Page-1">
	<g id="main" transform="translate(-1306.000000, -2908.000000)">
		<g id="_x34_" transform="translate(429.500000, 2749.000000)">
			<g id="Group-29" transform="translate(0.000000, 119.000000)">
				<g id="Group-26" transform="translate(801.000000, 0.000000)">
					<g id="Group-25" transform="translate(77.500000, 42.000000)">
						<path class="st0" d="M2.6,42.9c-0.4,0-0.7-0.2-0.9-0.5c-0.4-0.5-0.3-1.2,0.2-1.6l35.8-26.9c0.5-0.4,1.2-0.3,1.6,0.2
							c0.4,0.5,0.3,1.2-0.2,1.6L3.3,42.6C3.1,42.8,2.8,42.9,2.6,42.9z"/>
						<path class="st0" d="M9.3,72.2c-0.6,0-1.2-0.5-1.2-1.2V42.7c0-0.6,0.5-1.2,1.2-1.2s1.2,0.5,1.2,1.2V71
							C10.5,71.7,10,72.2,9.3,72.2z"/>
						<path class="st0" d="M48.4,67.2h-20c-0.6,0-1.2-0.5-1.2-1.2v-20c0-0.6,0.5-1.2,1.2-1.2h20c0.6,0,1.2,0.5,1.2,1.2v20
							C49.6,66.7,49.1,67.2,48.4,67.2z M29.6,64.9h17.7V47.2H29.6V64.9z"/>
						<polygon id="Fill-5" class="st1" points="32.8,61.7 44.1,61.7 44.1,50.4 32.8,50.4 						"/>
						<path class="st0" d="M24.7,35.2c-0.4,0-0.7-0.2-0.9-0.5c-0.4-0.5-0.3-1.2,0.2-1.6l13.7-10.3c0.5-0.4,1.2-0.3,1.6,0.2
							c0.4,0.5,0.3,1.2-0.2,1.6L25.4,35C25.2,35.2,25,35.2,24.7,35.2z"/>
						<path class="st0" d="M74.3,42.9c-0.2,0-0.5-0.1-0.7-0.2L37.7,15.7c-0.5-0.4-0.6-1.1-0.2-1.6s1.1-0.6,1.6-0.2L75,40.8
							c0.5,0.4,0.6,1.1,0.2,1.6C75,42.7,74.6,42.9,74.3,42.9z"/>
						<path class="st0" d="M67.5,72.2c-0.6,0-1.2-0.5-1.2-1.2V42.7c0-0.6,0.5-1.2,1.2-1.2c0.6,0,1.2,0.5,1.2,1.2V71
							C68.7,71.7,68.2,72.2,67.5,72.2z"/>
						<path class="st0" d="M52.1,35.2c-0.2,0-0.5-0.1-0.7-0.2L37.7,24.7c-0.5-0.4-0.6-1.1-0.2-1.6c0.4-0.5,1.1-0.6,1.6-0.2
							l13.7,10.3c0.5,0.4,0.6,1.1,0.2,1.6C52.8,35.1,52.5,35.2,52.1,35.2z"/>
						<g id="Group-24">
							<path class="st0" d="M77.4,77.8c-3.8,0-7.4-1.6-9.8-4.3c-2.4,2.7-6,4.3-9.8,4.3c-3.8,0-7.4-1.6-9.8-4.3
								c-2.4,2.7-6,4.3-9.8,4.3c-3.8,0-7.4-1.6-9.8-4.3c-2.4,2.7-6,4.3-9.8,4.3c-3.8,0-7.4-1.6-9.8-4.3c-2.4,2.7-6,4.3-9.8,4.3
								c-0.6,0-1.2-0.5-1.2-1.2c0-0.6,0.5-1.2,1.2-1.2c3.6,0,7-1.7,8.8-4.6c0.2-0.3,0.6-0.5,1-0.5h0c0.4,0,0.8,0.2,1,0.5
								c1.8,2.8,5.2,4.6,8.8,4.6c3.6,0,7-1.7,8.8-4.6c0.4-0.7,1.5-0.7,1.9,0c1.8,2.8,5.2,4.6,8.8,4.6c3.6,0,7-1.7,8.8-4.6
								c0.4-0.7,1.5-0.7,1.9,0c1.8,2.8,5.2,4.6,8.8,4.6c3.6,0,7-1.7,8.8-4.6c0.2-0.3,0.6-0.5,1-0.5l0,0c0.4,0,0.8,0.2,1,0.5
								c1.8,2.8,5.2,4.6,8.8,4.6c0.6,0,1.2,0.5,1.2,1.2C78.5,77.2,78,77.8,77.4,77.8z"/>
							<path class="st0" d="M103.8,3.6c-0.2,0-0.4-0.1-0.6-0.2c-3.2-1.9-6.8-2.9-10.6-2.9c-3.7,0-7.4,1-10.6,2.9
								c-0.5,0.3-1.3,0.1-1.6-0.4c-0.3-0.6-0.1-1.3,0.4-1.6c3.5-2.1,7.6-3.2,11.8-3.2c4.2,0,8.2,1.1,11.8,3.2c0.5,0.3,0.7,1,0.4,1.6
								C104.6,3.4,104.2,3.6,103.8,3.6z"/>
							<path class="st0" d="M97.7,9.2c-0.2,0-0.3,0-0.5-0.1c-2.4-1.2-5.7-1.2-8.1,0c-0.6,0.3-1.3,0-1.5-0.5C87.2,8,87.5,7.3,88,7
								c3.1-1.5,7.1-1.5,10.2,0c0.6,0.3,0.8,1,0.5,1.5C98.5,9,98.1,9.2,97.7,9.2z"/>
							<path class="st0" d="M93.1,15.1c-1,0-1.7-0.7-1.7-1.5c0-0.9,0.7-1.5,1.7-1.5c1,0,1.7,0.7,1.7,1.5
								C94.8,14.5,94.1,15.1,93.1,15.1z M93.1,12.8c-0.3,0-0.6,0.3-0.6,0.8s0.3,0.8,0.6,0.8c0.3,0,0.6-0.3,0.6-0.8
								S93.4,12.8,93.1,12.8z"/>
							<path class="st0" d="M87.2,77.8h-9.9c-0.6,0-1.2-0.5-1.2-1.2c0-0.6,0.5-1.2,1.2-1.2h9.9c2.3,0,4.2-1.8,4.2-3.9V46.1
								c0-0.6,0.5-1.2,1.2-1.2c0.6,0,1.2,0.5,1.2,1.2v25.4C93.8,75,90.8,77.8,87.2,77.8z"/>
							<path class="st0" d="M93.1,47.3c-8.2,0-14.9-6.4-14.9-14.4c0-7.9,6.7-14.4,14.9-14.4c8.2,0,14.9,6.4,14.9,14.4
								C108,40.8,101.3,47.3,93.1,47.3z M93.1,20.9c-6.9,0-12.6,5.4-12.6,12c0,6.6,5.6,12,12.6,12c6.9,0,12.6-5.4,12.6-12
								C105.7,26.3,100.1,20.9,93.1,20.9z"/>
							<path class="st0" d="M98.7,34.1c-0.6,0-1.2-0.5-1.2-1.2c0-2.7-2.2-4.9-4.9-4.9s-4.9,2.2-4.9,4.9c0,0.6-0.5,1.2-1.2,1.2
								c-0.6,0-1.2-0.5-1.2-1.2c0-4,3.3-7.3,7.3-7.3s7.3,3.3,7.3,7.3C99.9,33.6,99.4,34.1,98.7,34.1z"/>
						</g>
					</g>
				</g>
			</g>
		</g>
	</g>
</g>
</svg>
