<svg xmlns="http://www.w3.org/2000/svg" xmlns:xlink="http://www.w3.org/1999/xlink" width="81" height="82" viewBox="0 0 81 82">
    <defs>
        <path id="js4c3suw6a" d="M0 80L80 80 80 0 0 0z"/>
    </defs>
    <g fill="none" fill-rule="evenodd">
        <g>
            <g>
                <g>
                    <g>
                        <g transform="translate(-920 -2870) translate(429.5 2749) translate(0 76) translate(401) translate(90 46)">
                            <path stroke="#464646" stroke-linecap="round" stroke-linejoin="round" stroke-width="2.56" d="M70 70.625c0 4.487-3.638 8.125-8.125 8.125s-8.125-3.638-8.125-8.125 3.638-8.125 8.125-8.125S70 66.138 70 70.625zM27.5 70.625c0 4.487-3.637 8.125-8.125 8.125-4.488 0-8.125-3.638-8.125-8.125s3.637-8.125 8.125-8.125c4.488 0 8.125 3.638 8.125 8.125zM55 38.75v5c0 2.761 2.239 5 5 5h5"/>
                            <path stroke="#464646" stroke-linecap="round" stroke-linejoin="round" stroke-width="2.56" d="M71.25 71.25h2.5c2.761 0 5-2.239 5-5v-4.17c0-4.58-1.573-9.024-4.455-12.582L63.504 36.166c-3.798-4.69-9.51-7.416-15.545-7.416H6.25c-2.761 0-5 2.239-5 5v32.5c0 2.761 2.239 5 5 5h5M27.5 71.25L53.75 71.25M28.75 17.5L23.75 17.5M63.165 14.248C61.93 10.962 58.837 8.751 55 8.751c-5 0-8.75 3.75-8.75 8.75H35M63.165 14.248c.545-.307 1.165-.497 1.835-.497 2.07 0 3.75 1.677 3.75 3.75h2.5M31.25 7.5c0-3.451-2.799-6.25-6.25-6.25s-6.25 2.799-6.25 6.25h-10"/>
                            <path stroke="#464646" stroke-linecap="round" stroke-linejoin="round" stroke-width="2.56" d="M39.968 49.97H15.031c-.688 0-1.25-.562-1.25-1.25v-9.94c0-.688.562-1.25 1.25-1.25h24.937c.688 0 1.25.562 1.25 1.25v9.94c0 .688-.562 1.25-1.25 1.25z"/>
                            <mask id="vb6et1mn7b" fill="#fff">
                                <use xlink:href="#js4c3suw6a"/>
                            </mask>
                            <path fill="#6663E5" d="M17.995 45.99L37.239 45.99 37.239 41.51 17.995 41.51z" mask="url(#vb6et1mn7b)"/>
                        </g>
                    </g>
                </g>
            </g>
        </g>
    </g>
</svg>
