<?xml version="1.0" encoding="utf-8"?>
<!-- Generator: Adobe Illustrator 25.2.1, SVG Export Plug-In . SVG Version: 6.00 Build 0)  -->
<svg version="1.1" id="Layer_1" xmlns="http://www.w3.org/2000/svg" xmlns:xlink="http://www.w3.org/1999/xlink" x="0px" y="0px"
	 viewBox="0 0 100 80" style="enable-background:new 0 0 100 80;" xml:space="preserve">
<style type="text/css">
	.st0{fill:#344154;}
	.st1{fill-rule:evenodd;clip-rule:evenodd;fill:#6663E5;}
</style>
<g id="Page-1">
	<g id="main" transform="translate(-510.000000, -2906.000000)">
		<g id="_x34_" transform="translate(429.500000, 2749.000000)">
			<g id="Group-29" transform="translate(0.000000, 119.000000)">
				<g id="Group-25" transform="translate(82.500000, 40.000000)">
					<path class="st0" d="M44.7,24c0,0-0.1,0-0.1,0c-0.6-0.1-1.1-0.6-1-1.2c0-0.4,1.1-10.1,5.2-14.4c2.1-2.2,6.1-2.9,9.6-3.5
						c1-0.2,2-0.3,2.8-0.5l0.4-0.1c4.2-1,7.2-1.7,13.6-1.7h6.4c0.6,0,1.1,0.5,1.1,1.1s-0.5,1.1-1.1,1.1h-6.4
						c-6.1,0-8.9,0.6-13.1,1.6l-0.4,0.1c-0.9,0.2-1.9,0.4-2.9,0.6c-3,0.5-6.8,1.2-8.4,2.8c-3.6,3.8-4.6,13-4.6,13.1
						C45.8,23.6,45.3,24,44.7,24z"/>
					<path class="st0" d="M81.6,16.3h-6c-0.6,0-1.1-0.5-1.1-1.1c0-0.6,0.5-1.1,1.1-1.1h6c0.6,0,1.1,0.5,1.1,1.1
						C82.8,15.8,82.3,16.3,81.6,16.3z"/>
					<path class="st0" d="M94.9,20.7H83.2c-1.4,0-2.6-1.2-2.6-2.6V0.4c0-1.4,1.2-2.6,2.6-2.6h11.7c0.6,0,1.1,0.5,1.1,1.1
						S95.5,0,94.9,0H83.2c-0.2,0-0.4,0.2-0.4,0.4V18c0,0.2,0.2,0.4,0.4,0.4h11.7c0.6,0,1.1,0.5,1.1,1.1S95.5,20.7,94.9,20.7z"/>
					<path class="st0" d="M49.9,41.1c-2.4,0-4.3-1.9-4.3-4.3c0-0.6,0.5-1.1,1.1-1.1c0.6,0,1.1,0.5,1.1,1.1c0,1.2,0.9,2.1,2.1,2.1
						c1.1,0,2.1-0.9,2.1-2.1c0-0.9-0.4-1.5-2.4-2.2c-2.6-0.9-4-2.3-4-4.3c0-1.3,0.6-2.5,1.6-3.4c0.5-0.4,1.2-0.3,1.6,0.2
						c0.4,0.5,0.3,1.2-0.2,1.6c-0.5,0.4-0.8,1-0.8,1.6c0,0.6,0.3,1.5,2.4,2.2c1.2,0.4,4,1.3,4,4.3C54.2,39.1,52.3,41.1,49.9,41.1z"
						/>
					<path class="st0" d="M49.9,42.9c-0.6,0-1.1-0.5-1.1-1.1v-1.8c0-0.6,0.5-1.1,1.1-1.1c0.6,0,1.1,0.5,1.1,1.1v1.8
						C51,42.4,50.5,42.9,49.9,42.9z"/>
					<path class="st0" d="M49.9,46.5c-7.1,0-12.9-5.8-12.9-13c0-7.2,5.8-13,12.9-13c1,0,1.9,0.1,2.9,0.3c0.6,0.1,1,0.7,0.8,1.3
						s-0.7,1-1.3,0.8c-0.8-0.2-1.6-0.3-2.4-0.3c-5.9,0-10.6,4.8-10.6,10.8S44,44.3,49.9,44.3c5.9,0,10.6-4.8,10.6-10.8
						c0-1-0.1-2.1-0.4-3.1c-0.2-0.6,0.2-1.2,0.8-1.4c0.6-0.2,1.2,0.2,1.4,0.8c0.3,1.2,0.5,2.4,0.5,3.7C62.8,40.7,57,46.5,49.9,46.5z
						"/>
					<path class="st0" d="M53.8,31.8c-0.8,0-1.7-0.3-2.5-1.3c0,0,0,0,0,0c0,0,0,0,0,0l-0.1-0.1c-0.6-0.8-0.9-1.7-0.8-2.7
						c0.1-1,0.6-1.8,1.4-2.4l0.3-0.2c1.7-1.3,4-3.1,6.2-6.1c0.2-0.2,0.1-0.5,0-0.6c-0.1-0.1-0.2-0.3-0.5-0.3c-0.2,0-2.1-0.1-3.7,1.7
						c-0.4,0.5-1.1,0.5-1.6,0.1c-0.5-0.4-0.5-1.1-0.1-1.6c2.3-2.8,5.3-2.5,5.5-2.5c0,0,0,0,0,0c1,0,1.9,0.6,2.4,1.5
						c0.5,0.9,0.4,2-0.2,2.9c-2.4,3.3-4.9,5.2-6.7,6.6L53.2,27c-0.3,0.2-0.5,0.6-0.5,0.9c0,0.3,0,0.7,0.2,0.9l0.1,0.1
						c0.5,0.5,0.7,0.9,2.4-0.2c0.7-0.5,1.5-1,2.2-1.6c0.8-0.6,1.6-1.2,2.3-1.6c1.2-0.8,2.6-1.5,4.3-2.2c4.2-1.7,6-4.4,6.8-6.3
						c0.8-1.9,2.6-3.1,4.6-3.1c0.6,0,1.1,0.5,1.1,1.1c0,0.6-0.5,1.1-1.1,1.1h0c-1.1,0-2.1,0.7-2.5,1.7c-0.9,2.3-3.1,5.6-8,7.6
						c-1.6,0.7-2.9,1.3-4,2c-0.6,0.4-1.4,1-2.2,1.5c-0.8,0.6-1.5,1.1-2.3,1.6C55.8,31.2,54.9,31.8,53.8,31.8z"/>
					<path class="st0" d="M51.6,70.2c-1.8,0-3.5-0.4-4.9-1.2L2.5,43.2c-1.4-0.8-2.3-2.1-2.3-3.4c0-1.3,0.8-2.5,2.3-3.4l22.7-13.2
						c0.5-0.3,1-0.5,1.6-0.7c2.4-0.8,5.2-0.4,7.5,1l2.2,1.3c0.5,0.3,0.7,1,0.4,1.5c-0.3,0.5-1,0.7-1.5,0.4l-2.2-1.3
						c-1.8-1.1-3.8-1.4-5.7-0.8c-0.4,0.1-0.8,0.3-1.1,0.5L3.6,38.4c-0.7,0.4-1.2,1-1.2,1.5c0,0.5,0.4,1,1.2,1.5l44.3,25.8
						c2,1.2,5.5,1.2,7.5,0L77.9,54c0.8-0.4,1.2-1,1.2-1.5c0-0.5-0.4-1.1-1.2-1.5l-14.3-8.3c-0.5-0.3-0.7-1-0.4-1.5
						c0.3-0.5,1-0.7,1.5-0.4l14.3,8.3c1.5,0.8,2.3,2.1,2.3,3.4c0,1.3-0.8,2.6-2.3,3.4L56.5,69C55.2,69.8,53.4,70.2,51.6,70.2z"/>
					<path class="st0" d="M51.6,78c-1.8,0-3.5-0.4-4.9-1.2L2.5,51c-1.5-0.9-2.3-2.1-2.3-3.4c0-0.6,0.5-1.1,1.1-1.1s1.1,0.5,1.1,1.1
						c0,0.5,0.4,1,1.2,1.5l44.3,25.8c2,1.2,5.5,1.2,7.5,0l22.5-13.1c0.8-0.4,1.2-1,1.2-1.5c0-0.6,0.5-1.1,1.1-1.1s1.1,0.5,1.1,1.1
						c0,1.3-0.8,2.6-2.3,3.4L56.5,76.8C55.2,77.6,53.4,78,51.6,78z"/>
					<path class="st0" d="M12.4,38.8c-1.1,0-2.1-0.2-2.9-0.7l-3.3-1.9c-0.5-0.3-0.7-1-0.4-1.5c0.3-0.5,1-0.7,1.5-0.4l3.3,1.9
						c1,0.6,2.7,0.6,3.6,0L24.8,30c0.4-0.2,0.4-0.4,0.4-0.4c0,0-0.1-0.2-0.4-0.4l-3.3-1.9c-0.5-0.3-0.7-1-0.4-1.5
						c0.3-0.5,1-0.7,1.5-0.4l3.3,1.9c1,0.6,1.5,1.4,1.5,2.3c0,0.9-0.6,1.8-1.5,2.3l-10.6,6.2C14.5,38.6,13.5,38.8,12.4,38.8z"/>
					<path class="st0" d="M80.2,61.4c-0.6,0-1.1-0.5-1.1-1.1l0-7.9c0-0.6,0.5-1.1,1.1-1.1h0c0.6,0,1.1,0.5,1.1,1.1l0,7.9
						C81.3,60.9,80.9,61.4,80.2,61.4L80.2,61.4z"/>
					<path id="Fill-23" class="st1" d="M51.6,65.1c0.9,0,1.7-0.2,2.3-0.5l20.8-12.1l-0.4-0.2l-6.1-3.5l-9,5.3
						c-4.8,2.8-10.7,2.8-15.4-0.2L23,40.8l-7.2,4.2l33.4,19.5C49.9,64.9,50.8,65.1,51.6,65.1"/>
				</g>
			</g>
		</g>
	</g>
</g>
</svg>
