<svg xmlns="http://www.w3.org/2000/svg" xmlns:xlink="http://www.w3.org/1999/xlink" width="128.988" height="128" viewBox="0 0 128.988 128">
    <defs>
        <linearGradient id="linear-gradient" x1="2.061" x2="1.569" y1="2.325" y2="1.738" gradientUnits="objectBoundingBox">
            <stop offset="0" stop-color="#09005d"/>
            <stop offset="1" stop-color="#0f5f91"/>
        </linearGradient>
        <linearGradient id="linear-gradient-2" x1="1.672" x2="-1.823" y1="-.04" y2="1.658" gradientUnits="objectBoundingBox">
            <stop offset="0" stop-color="#09005d"/>
            <stop offset="1" stop-color="#1a0f91"/>
        </linearGradient>
        <linearGradient id="linear-gradient-3" x1="1.746" x2="-1.531" y1="-.033" y2="1.608" gradientUnits="objectBoundingBox">
            <stop offset="0" stop-color="#09005d"/>
            <stop offset="1" stop-color="#0f5091"/>
        </linearGradient>
        <linearGradient id="linear-gradient-4" x1="0" x2="1" y1=".5" y2=".5" xlink:href="#linear-gradient-3"/>
        <linearGradient id="linear-gradient-5" x1="1.143" x2="-.727" y1="-.668" y2="3.002" gradientUnits="objectBoundingBox">
            <stop offset="0" stop-color="#09005d"/>
            <stop offset="1" stop-color="#0f4691"/>
        </linearGradient>
        <linearGradient id="linear-gradient-6" x1="1.463" x2="1.198" y1="-3.853" y2="-2.648" gradientUnits="objectBoundingBox">
            <stop offset="0" stop-color="#ef70b0"/>
            <stop offset="1" stop-color="#fe6292"/>
        </linearGradient>
        <linearGradient id="linear-gradient-7" x1=".522" x2=".498" y1="1.591" y2=".48" gradientUnits="objectBoundingBox">
            <stop offset="0" stop-color="#febbba"/>
            <stop offset="1" stop-color="#ff928e"/>
        </linearGradient>
        <linearGradient id="linear-gradient-8" x1="66.963" x2="65.851" y1=".35" y2="1.106" xlink:href="#linear-gradient-7"/>
        <linearGradient id="linear-gradient-9" x1="1.807" x2=".766" y1="-2.091" y2="-.096" xlink:href="#linear-gradient-2"/>
        <linearGradient id="linear-gradient-10" x1="270.427" x2="265.877" y1="-.685" y2="1.784" xlink:href="#linear-gradient-7"/>
        <linearGradient id="linear-gradient-11" x1="3.106" x2="2.403" y1="-5.021" y2="-3.524" gradientUnits="objectBoundingBox">
            <stop offset="0" stop-color="#ff928e"/>
            <stop offset="1" stop-color="#f44e81"/>
        </linearGradient>
        <linearGradient id="linear-gradient-12" x1="8.232" x2="6.157" y1="-16.137" y2="-11.674" gradientUnits="objectBoundingBox">
            <stop offset="0" stop-color="#e1473d"/>
            <stop offset="1" stop-color="#e9605a"/>
        </linearGradient>
        <linearGradient id="linear-gradient-13" x1=".311" x2=".746" y1="-.394" y2="1.885" xlink:href="#linear-gradient-7"/>
        <linearGradient id="linear-gradient-14" x1="-.165" x2=".749" y1="-3.58" y2="2.625" xlink:href="#linear-gradient-7"/>
        <linearGradient id="linear-gradient-15" x1=".816" x2=".609" y1="-1.365" y2="-.035" xlink:href="#linear-gradient-2"/>
        <linearGradient id="linear-gradient-16" x1=".992" x2=".426" y1="-1.488" y2=".798" xlink:href="#linear-gradient-2"/>
        <linearGradient id="linear-gradient-17" x1=".634" x2="1.551" y1=".593" y2="-1.426" xlink:href="#linear-gradient-2"/>
        <linearGradient id="linear-gradient-18" x1=".927" x2="2.246" y1="-3.838" y2="-17.85" xlink:href="#linear-gradient-2"/>
        <linearGradient id="linear-gradient-19" x1="1.24" x2="2.088" y1="-2.249" y2="-5.397" xlink:href="#linear-gradient-2"/>
        <style>
            .cls-18,.cls-2,.cls-20{fill:#fff}.cls-2{opacity:.28}.cls-6{opacity:.3}.cls-7{fill:#91b3fa}.cls-9{fill:#bdd0fb}.cls-20{opacity:.33}
        </style>
    </defs>
    <g id="그룹_147" transform="translate(-1685.015 -13.656)">
        <g id="그룹_126" transform="translate(1685.015 87.505)">
            <path id="패스_95" fill="#91b9fa" d="M1685.054 474.782c2.7 8.632 20.291 58.187 65.662 48.967 0 0-3.922-35.8-64.858-49.964a.739.739 0 0 0-.804.997z" transform="translate(-1685.015 -473.768)"/>
            <path id="패스_96" d="M1731.487 514.129c1.722 2.26 3.536 4.462 5.38 6.631s3.742 4.3 5.678 6.383 3.921 4.13 5.949 6.127 4.1 3.951 6.23 5.834 4.3 3.725 6.547 5.465 4.531 3.431 6.91 4.977c.586.4 1.188.774 1.792 1.146s1.2.762 1.817 1.1l1.842 1.058 1.879.987a58.216 58.216 0 0 0 7.791 3.3h.007a.574.574 0 1 1-.365 1.089h-.006a66.777 66.777 0 0 1-15.3-7.868c-2.39-1.586-4.679-3.312-6.923-5.088s-4.412-3.647-6.535-5.563-4.187-3.9-6.2-5.922-3.987-4.1-5.911-6.207-3.8-4.265-5.632-6.457-3.623-4.414-5.336-6.708a.243.243 0 0 1 .388-.293z" class="cls-2" transform="translate(-1724.267 -508.1)"/>
        </g>
        <g id="그룹_127" transform="translate(1686.894 13.656)">
            <path id="패스_97" fill="#bde6fb" d="M1698.192 15.844c-1.182 14.613-4.77 99.948 70.508 117.885 0 0 16.067-55.538-68.659-118.8a1.168 1.168 0 0 0-1.849.915z" transform="translate(-1697.772 -14.705)"/>
            <path id="패스_98" d="M1750.83 101.1c1.241 4.79 2.671 9.534 4.188 14.238s3.147 9.37 4.882 13.989a272.582 272.582 0 0 0 11.783 27.056 173.779 173.779 0 0 0 15.181 25c1.438 1.953 2.946 3.846 4.5 5.7s3.163 3.64 4.839 5.359a76.168 76.168 0 0 0 10.827 9.322.5.5 0 0 1 .127.665.434.434 0 0 1-.624.135 77.091 77.091 0 0 1-10.913-9.484q-2.526-2.615-4.857-5.428c-1.554-1.871-3.064-3.785-4.5-5.758a174.68 174.68 0 0 1-15.14-25.184 273.286 273.286 0 0 1-11.693-27.178q-2.577-6.954-4.829-14.036c-1.5-4.721-2.909-9.472-4.134-14.288a.205.205 0 0 1 .134-.249.19.19 0 0 1 .234.143z" class="cls-2" transform="translate(-1742.695 -88.245)"/>
        </g>
        <g id="그룹_128" transform="translate(1726.749 14.113)">
            <path id="패스_99" fill="#8ec3f8" d="M1948.159 18.677c-3.186 13.178-18.76 90.667 47.552 119.143 0 0 22.7-48.23-45.728-119.679a1.072 1.072 0 0 0-1.824.536z" transform="translate(-1944.299 -17.808)"/>
            <path id="패스_100" fill="#fff" d="M2004.025 103.267c.642 4.327 1.369 8.646 2.131 12.954s1.574 8.608 2.431 12.9c1.714 8.576 3.608 17.112 5.747 25.576s4.521 16.859 7.32 25.091q2.08 6.181 4.582 12.179a112.81 112.81 0 0 0 5.6 11.649.585.585 0 0 1-.182.773.511.511 0 0 1-.726-.194 114 114 0 0 1-5.586-11.8q-2.486-6.049-4.536-12.276c-2.763-8.286-5.1-16.72-7.2-25.211s-3.941-17.054-5.607-25.651q-1.25-6.448-2.359-12.925c-.737-4.319-1.44-8.642-2.059-12.985a.237.237 0 0 1 .188-.272.226.226 0 0 1 .255.2z" opacity="0.4" transform="translate(-1994.848 -90.507)"/>
        </g>
        <g id="그룹_140" transform="translate(1767.642 15.458)">
            <g id="그룹_134">
                <g id="그룹_129" class="cls-6" transform="translate(0 10.958)">
                    <path id="패스_101" d="M2228.229 145.673a.479.479 0 0 1-.335.545c-.519.153-1.052.285-1.585.394a.479.479 0 0 1-.564-.373v-.009a.478.478 0 0 1 .375-.555c.506-.1 1.012-.229 1.505-.374a.479.479 0 0 1 .594.324l.01.048zm-4.107.725a.472.472 0 0 1 .007.056.479.479 0 0 1-.447.508c-.542.035-1.091.047-1.631.036a.479.479 0 1 1 .02-.957c.513.01 1.035 0 1.55-.034a.479.479 0 0 1 .501.393zm-4.164-.2a.486.486 0 0 1 0 .163.479.479 0 0 1-.549.4c-.535-.086-1.073-.2-1.6-.329a.479.479 0 1 1 .233-.929c.5.125 1.01.231 1.518.313a.479.479 0 0 1 .398.384zm-4.017-1.124a.478.478 0 0 1-.651.53c-.5-.2-1-.432-1.485-.678a.479.479 0 0 1 .435-.853c.458.234.933.45 1.411.644a.478.478 0 0 1 .29.359zm-3.665-1.991a.479.479 0 0 1-.745.479c-.443-.31-.88-.643-1.3-.99a.479.479 0 0 1 .613-.736c.4.33.811.646 1.233.941a.479.479 0 0 1 .2.308zm-3.133-2.752a.478.478 0 0 1-.824.409c-.365-.4-.717-.822-1.047-1.253a.479.479 0 1 1 .76-.582c.313.409.647.809.994 1.19a.473.473 0 0 1 .118.238zm-4.3-17.044a.473.473 0 0 1-.007.2c-.125.5-.229 1.01-.31 1.519a.479.479 0 0 1-.946-.151c.086-.536.2-1.074.327-1.6a.479.479 0 0 1 .936.029zm1.853 13.669a.479.479 0 0 1-.888.322c-.266-.472-.515-.961-.74-1.454a.479.479 0 0 1 .871-.4c.213.468.45.933.7 1.381a.482.482 0 0 1 .061.152zm-2.4-9.535a.479.479 0 0 1 .008.1c-.01.515 0 1.036.037 1.551a.479.479 0 0 1-.955.063c-.036-.541-.049-1.09-.039-1.632a.479.479 0 0 1 .949-.078zm.772 5.7a.479.479 0 0 1-.93.222c-.154-.519-.288-1.052-.4-1.583v-.01a.479.479 0 0 1 .94-.183c.1.5.231 1.011.377 1.5.01.019.015.033.018.053z" class="cls-7" transform="translate(-2203.348 -119.721)"/>
                    <path id="패스_102" d="M2213.785 101.735a.473.473 0 0 1-.035.284c-.1.225-.2.455-.294.686a.479.479 0 0 1-.887-.36c.1-.242.2-.485.31-.721a.478.478 0 0 1 .906.111z" class="cls-7" transform="translate(-2211.181 -101.342)"/>
                </g>
                <g id="그룹_130" class="cls-6" transform="translate(11.676)">
                    <path id="패스_103" d="M2284.286 34.628a.479.479 0 0 1-.311.537c-.232.082-.467.171-.7.264a.479.479 0 0 1-.357-.888c.243-.1.49-.191.735-.278a.479.479 0 0 1 .611.291.514.514 0 0 1 .022.074z" class="cls-7" transform="translate(-2282.62 -33.161)"/>
                    <path id="패스_104" d="M2327.187 42.58q.06.325.109.654a.479.479 0 0 1-.947.142c-.076-.507-.173-1.009-.288-1.5a.479.479 0 0 1 .932-.219c.072.304.137.614.194.923zm.311 3.173a.492.492 0 0 1 .008.081c.007.534-.009 1.074-.047 1.606a.479.479 0 0 1-.955-.068c.036-.5.051-1.018.045-1.525a.479.479 0 0 1 .949-.093zm-1.25-6.5a.478.478 0 0 1-.917.258c-.183-.472-.387-.942-.609-1.4a.479.479 0 1 1 .861-.419c.234.48.45.976.641 1.473a.483.483 0 0 1 .024.087zm.85 10.587a.481.481 0 0 1 0 .186c-.111.522-.245 1.046-.4 1.556a.479.479 0 1 1-.916-.277c.146-.485.273-.982.379-1.478a.479.479 0 0 1 .939.013zm-2.741-14.227a.479.479 0 0 1-.868.353c-.281-.42-.584-.834-.9-1.23a.479.479 0 1 1 .748-.6c.333.417.653.853.949 1.3a.471.471 0 0 1 .071.176zm-2.643-3.137a.479.479 0 0 1-.8.434c-.367-.349-.754-.687-1.148-1a.479.479 0 1 1 .6-.746c.416.334.822.689 1.209 1.057a.48.48 0 0 1 .139.255zm-3.265-2.486a.478.478 0 0 1-.717.5c-.435-.261-.886-.507-1.34-.731a.479.479 0 0 1 .423-.859c.477.235.952.494 1.41.769a.476.476 0 0 1 .224.321zm-3.728-1.714a.47.47 0 0 1-.017.237.478.478 0 0 1-.6.3c-.481-.16-.975-.3-1.467-.419a.479.479 0 1 1 .224-.931c.518.125 1.038.273 1.545.441a.478.478 0 0 1 .315.372zm-4.016-.854a.479.479 0 0 1-.518.563c-.5-.05-1.016-.079-1.523-.086a.479.479 0 1 1 .014-.957c.534.007 1.073.038 1.6.09a.479.479 0 0 1 .427.389zm-4.1.049v.029a.478.478 0 0 1-.417.533c-.371.045-.744.1-1.11.17q-.2.036-.4.077a.478.478 0 0 1-.565-.372.473.473 0 0 1 .371-.566q.208-.043.417-.081c.385-.071.778-.131 1.168-.178a.478.478 0 0 1 .531.387z" class="cls-7" transform="translate(-2300.942 -26.942)"/>
                    <path id="패스_105" d="M2443.984 206.654a.475.475 0 0 1-.036.286c-.108.236-.223.473-.342.706a.479.479 0 0 1-.853-.435c.113-.222.222-.447.325-.671a.479.479 0 0 1 .906.114z" class="cls-7" transform="translate(-2419.122 -179.85)"/>
                </g>
                <g id="그룹_133" transform="translate(4.547 4.707)">
                    <path id="패스_106" fill="#91c1fa" d="M2260.632 81.364a.223.223 0 0 0 .022-.259l-1.387-2.343a11.867 11.867 0 0 0 1.18-3.657l2.492-1.093a.223.223 0 0 0 .133-.223l-.265-3.256a.224.224 0 0 0-.167-.2l-2.64-.674a11.864 11.864 0 0 0-1.755-3.419l.991-2.536a.224.224 0 0 0-.064-.252l-2.489-2.115a.223.223 0 0 0-.259-.022l-2.343 1.387a11.87 11.87 0 0 0-3.658-1.179l-1.092-2.492a.224.224 0 0 0-.223-.133l-3.256.265a.224.224 0 0 0-.2.167l-.676 2.636a11.854 11.854 0 0 0-3.419 1.755l-2.536-.99a.224.224 0 0 0-.252.063l-2.115 2.489a.224.224 0 0 0-.022.259l1.387 2.343a11.867 11.867 0 0 0-1.179 3.657l-2.492 1.093a.224.224 0 0 0-.133.223l.265 3.255a.223.223 0 0 0 .167.2l2.636.676a11.838 11.838 0 0 0 1.755 3.419l-.991 2.537a.224.224 0 0 0 .063.252l2.489 2.115a.224.224 0 0 0 .259.022l2.344-1.387a11.867 11.867 0 0 0 3.657 1.179l1.093 2.492a.223.223 0 0 0 .223.133l3.255-.265a.225.225 0 0 0 .2-.167l.675-2.636a11.866 11.866 0 0 0 3.419-1.755l2.536.99a.224.224 0 0 0 .252-.063z" transform="translate(-2234.219 -58.896)"/>
                    <g id="그룹_131" transform="translate(11.142 11.143)">
                        <path id="패스_107" d="M2316.38 137.244a3.285 3.285 0 1 1-.122-.466 3.33 3.33 0 0 1 .122.466zm-5.707 1.043a2.636 2.636 0 0 0 .094.361 2.514 2.514 0 1 0-.094-.361z" class="cls-9" transform="translate(-2309.865 -134.553)"/>
                    </g>
                    <g id="그룹_132" transform="translate(6.297 6.313)">
                        <path id="패스_108" d="M2292.982 108.355a8.243 8.243 0 0 1 .109.822q.011.131.017.262a8.151 8.151 0 0 1-.039 1.292v.017c0 .016 0 .033-.006.05l-.012.1a.192.192 0 0 1-.155.163.2.2 0 0 1-.061 0 .192.192 0 0 1-.164-.215 7.7 7.7 0 0 0-4.042-7.816 7.64 7.64 0 0 0-4.206-.863 7.835 7.835 0 0 0-.785.1 7.69 7.69 0 0 0 2.031 15.225 7.693 7.693 0 0 0 3.848-1.406.19.19 0 0 1 .077-.033.191.191 0 0 1 .146.344 8.049 8.049 0 0 1-3.226 1.368 8.074 8.074 0 0 1-9.513-7.284 8.075 8.075 0 0 1 6.568-8.591 8.233 8.233 0 0 1 .824-.109 8.074 8.074 0 0 1 8.592 6.57z" class="cls-9" transform="translate(-2276.972 -101.758)"/>
                    </g>
                </g>
            </g>
            <g id="그룹_139" transform="translate(22.516 27.087)">
                <g id="그룹_135" class="cls-6" transform="translate(0 11.252)">
                    <path id="패스_109" d="M2467.857 357.616a.275.275 0 0 1-.147.3c-.209.106-.425.206-.64.3a.276.276 0 0 1-.219-.507c.205-.089.41-.185.609-.285a.277.277 0 0 1 .372.122.293.293 0 0 1 .025.07z" class="cls-7" transform="translate(-2450.414 -347.058)"/>
                    <path id="패스_110" d="M2371.686 298.58a.277.277 0 0 1-.194.315 12.027 12.027 0 0 1-1.182.28l-.252.044a.286.286 0 0 1-.317-.228.276.276 0 0 1 .228-.317l.241-.042a11.551 11.551 0 0 0 1.127-.267.277.277 0 0 1 .343.188l.006.027zm-2.829.459a.263.263 0 0 1 0 .039.276.276 0 0 1-.265.287 11.973 11.973 0 0 1-1.469-.033.276.276 0 1 1 .046-.55 11.418 11.418 0 0 0 1.4.031.275.275 0 0 1 .287.226zM2366 298.8a.277.277 0 0 1-.329.32 11.9 11.9 0 0 1-1.417-.393.276.276 0 0 1 .18-.522 11.357 11.357 0 0 0 1.351.375.276.276 0 0 1 .215.22zm-2.71-.935a.276.276 0 0 1-.393.3 11.933 11.933 0 0 1-1.277-.727.276.276 0 1 1 .3-.462 11.305 11.305 0 0 0 1.218.694.274.274 0 0 1 .153.193zm-2.4-1.569a.276.276 0 0 1-.45.261 12.133 12.133 0 0 1-1.062-1.015.276.276 0 1 1 .405-.375 11.464 11.464 0 0 0 1.013.969.276.276 0 0 1 .097.159zm-1.945-2.1a.276.276 0 0 1-.5.211 11.84 11.84 0 0 1-.782-1.243.276.276 0 0 1 .485-.264 11.362 11.362 0 0 0 .745 1.185.273.273 0 0 1 .054.106zm-1.372-2.514a.276.276 0 0 1-.528.151 11.958 11.958 0 0 1-.453-1.4.276.276 0 0 1 .535-.138 11.5 11.5 0 0 0 .431 1.333.237.237 0 0 1 .018.049zm-.81-4.208a.287.287 0 0 1 0 .048 11.529 11.529 0 0 0 .073 1.217l.022.182a.276.276 0 0 1-.548.072l-.023-.192a11.949 11.949 0 0 1-.076-1.274.276.276 0 0 1 .548-.052z" class="cls-7" transform="translate(-2356.218 -287.243)"/>
                </g>
                <g id="그룹_136" class="cls-6" transform="translate(14.899)">
                    <path id="패스_111" d="M2466.093 219.99a.276.276 0 0 1-.542.1 11.382 11.382 0 0 0-.348-1.334.276.276 0 0 1 .525-.172 12.072 12.072 0 0 1 .365 1.4zm.19 1.4v.03a12.047 12.047 0 0 1 .021 1.445.276.276 0 0 1-.552-.025 11.452 11.452 0 0 0-.021-1.379.276.276 0 0 1 .547-.071zm-1.067-4.078a.276.276 0 0 1-.521.167 11.419 11.419 0 0 0-.661-1.21.276.276 0 0 1 .468-.293 12.051 12.051 0 0 1 .692 1.269.279.279 0 0 1 .022.066zm.938 6.9a.276.276 0 0 1 0 .1 11.881 11.881 0 0 1-.328 1.409.276.276 0 1 1-.529-.158 11.192 11.192 0 0 0 .313-1.343.276.276 0 0 1 .543 0zm-2.436-9.282a.276.276 0 0 1-.486.224 11.345 11.345 0 0 0-.932-1.016.276.276 0 0 1 .384-.4 12.042 12.042 0 0 1 .977 1.065.274.274 0 0 1 .057.121zm-2.027-1.958a.276.276 0 0 1-.438.27 11.518 11.518 0 0 0-1.148-.764.276.276 0 1 1 .277-.477 12.078 12.078 0 0 1 1.2.8.275.275 0 0 1 .109.165zm-2.438-1.416a.271.271 0 0 1-.018.158.276.276 0 0 1-.363.145 11.289 11.289 0 0 0-1.3-.466.276.276 0 1 1 .155-.53 11.956 11.956 0 0 1 1.361.488.276.276 0 0 1 .164.199z" class="cls-7" transform="translate(-2457.375 -210.847)"/>
                    <path id="패스_112" d="M2506.6 318.667a.274.274 0 0 1-.018.161c-.095.217-.2.431-.3.638a.276.276 0 0 1-.492-.251c.1-.2.2-.4.289-.608a.276.276 0 0 1 .524.061z" class="cls-7" transform="translate(-2498.629 -302.594)"/>
                </g>
                <g id="그룹_138" transform="translate(2.817 2.457)">
                    <path id="패스_113" d="M2391.848 241.565a.141.141 0 0 0 .014-.162l-.867-1.464a7.4 7.4 0 0 0 .737-2.285l1.557-.683a.141.141 0 0 0 .083-.139l-.166-2.034a.14.14 0 0 0-.1-.124l-1.647-.422a7.407 7.407 0 0 0-1.1-2.136l.619-1.585a.139.139 0 0 0-.04-.157l-1.555-1.321a.141.141 0 0 0-.162-.014l-1.464.867a7.408 7.408 0 0 0-2.285-.737l-.683-1.557a.139.139 0 0 0-.139-.083l-2.034.165a.14.14 0 0 0-.124.1l-.422 1.647a7.406 7.406 0 0 0-2.136 1.1l-1.585-.619a.139.139 0 0 0-.157.04l-1.322 1.555a.139.139 0 0 0-.014.162l.867 1.464a7.389 7.389 0 0 0-.737 2.285l-1.557.683a.141.141 0 0 0-.083.139l.165 2.034a.14.14 0 0 0 .1.124l1.646.422a7.408 7.408 0 0 0 1.1 2.136l-.618 1.585a.139.139 0 0 0 .04.157l1.555 1.321a.14.14 0 0 0 .162.014l1.464-.867a7.406 7.406 0 0 0 2.285.737l.683 1.557a.14.14 0 0 0 .139.083l2.034-.165a.14.14 0 0 0 .124-.1l.422-1.647a7.413 7.413 0 0 0 2.136-1.1l1.585.619a.14.14 0 0 0 .157-.04z" class="cls-7" transform="translate(-2375.346 -227.528)"/>
                    <path id="패스_114" fill="#91b3fa" d="M2426.508 276.254a2.093 2.093 0 1 1-.078-.3 2.019 2.019 0 0 1 .078.3zm-3.565.651a1.536 1.536 0 1 0 2.965-.773 1.536 1.536 0 0 0-2.965.773z" opacity="0.56" transform="translate(-2415.441 -267.614)"/>
                    <g id="그룹_137" transform="translate(3.778 3.788)">
                        <path id="패스_115" d="M2411.308 257.5a5.263 5.263 0 0 1 .048 1.584l-.006.047a.276.276 0 0 1-.223.235.271.271 0 0 1-.087 0 .276.276 0 0 1-.237-.31 4.668 4.668 0 0 0 .024-.989v-.054a4.6 4.6 0 0 0-.758-2.147 4.669 4.669 0 0 0-.829-.938l-.008-.007-.024-.02a4.618 4.618 0 0 0-3.386-1.091 4.726 4.726 0 0 0-.474.063 4.648 4.648 0 1 0 3.553 8.353.273.273 0 0 1 .11-.047.276.276 0 0 1 .21.5 5.187 5.187 0 0 1-2.078.882 5.254 5.254 0 0 1-.524.069 5.2 5.2 0 0 1-1.373-10.3 5.322 5.322 0 0 1 .531-.07 5.208 5.208 0 0 1 5.531 4.24z" class="cls-9" transform="translate(-2400.994 -253.246)"/>
                    </g>
                </g>
            </g>
        </g>
        <path id="패스_116" fill="#2a81b7" d="M2106.922 273.991l.785-35.735 44.791-21.473a1.736 1.736 0 0 1 2.468 1.822l-3.538 23.734a6.585 6.585 0 0 1-2.987 4.591z" transform="translate(-353.483 -170.336)"/>
        <path id="패스_117" fill="#31b2ce" d="M1761.521 209.1l76.641-27.044a20.8 20.8 0 0 1 11.141-.818l16.057 4.5a.508.508 0 0 1 .1.957l-44.588 21.886z" transform="translate(-65.238 -141.077)"/>
        <path id="패스_118" fill="url(#linear-gradient)" d="M1747.184 367.886c.562 6.939 1.693 19.378 3.139 27.26a3.177 3.177 0 0 0 2.907 2.593c8.291.586 35.586 2.224 45.769-.77a3.169 3.169 0 0 0 2.231-2.632c.7-5.215 2.606-20.033 3.012-28.7a3.2 3.2 0 0 0-2.721-3.312c-6.779-1.015-37.357-.133-49.617.272a4.894 4.894 0 0 0-4.72 5.289z" transform="translate(-52.999 -293.315)"/>
        <path id="패스_119" fill="url(#linear-gradient-2)" d="M2230.022 610.043h-6.187a2.438 2.438 0 0 1-2.307-1.677c-2.08-6.215-1.734-13.324.152-21a2.423 2.423 0 0 1 2.353-1.84h5.989a2.417 2.417 0 0 1 2.374 2.884 47.744 47.744 0 0 0 0 18.75 2.417 2.417 0 0 1-2.374 2.883z" transform="translate(-451.797 -481.56)"/>
        <path id="패스_120" fill="url(#linear-gradient-3)" d="M1992.484 560.244l5.358 21.556a3.9 3.9 0 0 0 3.789 2.962h4.378a2.4 2.4 0 0 0 2.394-2.3l1.268-30.847z" transform="translate(-259.486 -452.646)"/>
        <path id="패스_121" fill="#5d9ecd" d="M1756.47 373.84c.539 6.816 1.626 19.034 3.013 26.776a3.077 3.077 0 0 0 2.792 2.547c7.96.575 34.164 2.185 43.94-.757a3.094 3.094 0 0 0 2.142-2.585c.669-5.123 2.5-19.678 2.893-28.189a3.121 3.121 0 0 0-2.613-3.253c-6.508-1-35.865-.13-47.635.268a4.768 4.768 0 0 0-4.532 5.193z" transform="translate(-60.917 -298.447)"/>
        <g id="그룹_141" transform="translate(1709.068 70.391)">
            <circle id="타원_38" cx="14.046" cy="14.046" r="14.046" fill="#7db8f4" transform="translate(2.173 2.173)"/>
            <circle id="타원_39" cx="11.705" cy="11.705" r="11.705" class="cls-18" transform="rotate(-45 19.982 8.277)"/>
            <circle id="타원_40" cx="10.368" cy="10.368" r="10.368" fill="url(#linear-gradient-4)" transform="translate(6.186 6.186)"/>
            <path id="패스_122" d="M1914.757 440.971a1.672 1.672 0 1 1-1.672-1.672 1.672 1.672 0 0 1 1.672 1.672z" class="cls-20" transform="translate(-1900.545 -429.768)"/>
            <path id="패스_123" d="M1935.123 468.554a1 1 0 1 1 1-1 1 1 0 0 1-1 1z" class="cls-20" transform="translate(-1919.906 -453.003)"/>
        </g>
        <path id="패스_124" fill="url(#linear-gradient-5)" d="M2032.186 652.789l32.253-6.138v-11.8l-36.478 9.535 2.448 7.334a1.6 1.6 0 0 0 1.777 1.069z" transform="translate(-288.754 -523.616)"/>
        <path id="패스_125" fill="url(#linear-gradient-6)" d="M2117.5 601.093a68.231 68.231 0 0 1 23.3-1.128 11.64 11.64 0 0 1 8.17 5.319c3.276 5.183 7.907 14.42 6.927 24.054l-5.141 1.271s-3.553-11.432-7.552-16.085c0 0-4.735 10.795-4.5 16.723q.01.251.032.491c.544 5.8-22.734 1.082-22.734 1.082z" transform="translate(-362.688 -493.403)"/>
        <path id="패스_126" fill="url(#linear-gradient-7)" d="M2188.2 520.187l.517 8.038a1.745 1.745 0 0 0 1.211 1.582 11.516 11.516 0 0 0 7.407-.145 1.151 1.151 0 0 0 .623-1.412l-3.826-12.291z" transform="translate(-424.944 -424.187)"/>
        <g id="그룹_142" transform="translate(1758.821 77.643)">
            <path id="패스_127" fill="url(#linear-gradient-8)" d="M2163.421 465.633s-2.444 5.615-2.609 8.562-.8 4.859 2.609 5.453a7.244 7.244 0 0 0 7.833-4.04s2.437-4.524 1.89-6.376-9.723-3.599-9.723-3.599z" transform="translate(-2160.253 -459.5)"/>
            <path id="패스_128" fill="url(#linear-gradient-9)" d="M2167.749 437.994h-.43s1.775-3.641.216-4.28-7.738-1.9-9.07-4.092a4.076 4.076 0 0 1 1.575-5.607.229.229 0 0 1 .292.108l.142.269a.231.231 0 0 0 .427-.044.231.231 0 0 1 .415-.063c.408.656 1.513 1.721 4.476 2.268 4.2.776 6.984 2.478 7.052 5.383a.232.232 0 0 0 .359.19c.31-.189.807-.278 1.471.28 1.155.971.682 3.489-1.849 5.56a.23.23 0 0 0 .011.371c.459.3 1.143 1.009-.629 1.957a4.726 4.726 0 0 1-3.291.76.232.232 0 0 1-.175-.239l.159-2.575a.231.231 0 0 0-.231-.246z" transform="translate(-2157.913 -423.997)"/>
            <path id="패스_129" fill="url(#linear-gradient-10)" d="M2223.975 506.713s.933-3.587 2.541-2.581-.834 4.019-2.127 4.153z" transform="translate(-2214.245 -492.177)"/>
        </g>
        <g id="그룹_143" transform="translate(1743.81 107.689)">
            <path id="패스_130" fill="url(#linear-gradient-11)" d="M2070.347 633.919c-.5-3.544 3.169-8.755 4.687-10.732a3.29 3.29 0 0 0 .683-1.97c.044-5.02-2.063-8.244-5.441-10.409 0 0-12.257 14.28-9.136 25.264a9.236 9.236 0 0 0 1.521 3.079c.492-4.139 5.275-5.042 7.686-5.232z" transform="translate(-2060.632 -610.808)"/>
            <path id="패스_131" fill="url(#linear-gradient-12)" d="M2125.441 703.383l-.467-.053c.4-3.476 3.446-7.767 4.739-9.451l.373.286c-1.269 1.653-4.262 5.859-4.645 9.218z" transform="translate(-2115.497 -681.643)"/>
            <path id="패스_132" fill="url(#linear-gradient-13)" d="M2082.191 768.2a4.09 4.09 0 0 1-.1-.491c-2.411.191-7.195 1.094-7.686 5.232 5.47 7.234 20.547 4.625 20.547 4.625v-2.815s-11.576-2.151-12.761-6.551z" transform="translate(-2072.38 -744.603)"/>
        </g>
        <path id="패스_133" fill="url(#linear-gradient-14)" d="M2204.07 807.421s2.226-5.253 6.148-3.39 3.615 3.082 3.615 3.082z" transform="translate(-438.352 -667.541)"/>
        <path id="패스_134" fill="url(#linear-gradient-15)" d="M2200.661 814.8a.745.745 0 0 0 .769.686l20.326-.709a.744.744 0 0 0 .685-.522l.59-1.888a.745.745 0 0 0-.671-.966l-7.412-.394a.75.75 0 0 0-.2.017l-13.5 2.991a.744.744 0 0 0-.587.785z" transform="translate(-434.938 -673.827)"/>
        <path id="패스_135" fill="url(#linear-gradient-16)" d="M2293.181 816.635l.559-2.606 7.614.363-.5 2.162z" transform="translate(-513.677 -676.407)"/>
        <path id="패스_136" fill="#1277b5" d="M2249.7 624.6c-.431 3.521-2.369 17.827-2.924 21.914a.939.939 0 0 0 .958 1.064l32.885-.941a.94.94 0 0 0 .89-.736l5.116-23.038a.94.94 0 0 0-.972-1.142l-35.075 2.054a.939.939 0 0 0-.878.825z" transform="translate(-472.73 -512.42)"/>
        <path id="패스_137" fill="url(#linear-gradient-17)" d="M2328.287 733.133l-4.86 13.794 11.3.24.941-13.951a1.084 1.084 0 0 0-1.154-1.155l-5.277.35a1.084 1.084 0 0 0-.95.722z" transform="translate(-538.099 -606.51)"/>
        <path id="패스_138" fill="url(#linear-gradient-18)" d="M2292.149 827.61a.587.587 0 0 0 .558.77h17.7a.587.587 0 0 0 .587-.587v-.759a.587.587 0 0 0-.612-.586l-17.7.759a.587.587 0 0 0-.533.403z" transform="translate(-511.403 -686.997)"/>
        <path id="패스_139" d="M2261.956 647.164l-.233-.03 1.615-12.742a1.66 1.66 0 0 1 1.545-1.447l30.31-1.83.014.235-30.31 1.83a1.423 1.423 0 0 0-1.326 1.242z" class="cls-7" transform="translate(-485.484 -520.435)"/>
        <path id="사각형_352" d="M0 0H2.781V0.235H0z" class="cls-7" transform="rotate(-82.76 962.3 -939.946)"/>
        <g id="그룹_144" transform="translate(1708.64 111.917)">
            <path id="패스_140" d="M1849.987 705.317a24.38 24.38 0 0 0 14.3-4.593.935.935 0 0 0-1.091-1.52 22.685 22.685 0 0 1-26.416 0 .935.935 0 0 0-1.09 1.52 24.38 24.38 0 0 0 14.297 4.593z" class="cls-18" transform="translate(-1835.298 -690.263)"/>
            <path id="패스_141" d="M1864.973 674.3a19.844 19.844 0 0 0 11.714-3.8.935.935 0 0 0-1.1-1.515 18.1 18.1 0 0 1-21.232 0 .935.935 0 0 0-1.1 1.515 19.842 19.842 0 0 0 11.718 3.8z" class="cls-18" transform="translate(-1850.285 -664.493)"/>
            <path id="패스_142" d="M1884.93 643.927a13.8 13.8 0 0 0 8.274-2.729.935.935 0 1 0-1.114-1.5 12.038 12.038 0 0 1-14.321 0 .935.935 0 0 0-1.114 1.5 13.8 13.8 0 0 0 8.275 2.729z" class="cls-18" transform="translate(-1870.242 -639.512)"/>
        </g>
        <g id="그룹_146" transform="translate(1685.824 38.02)">
            <g id="그룹_145">
                <path id="패스_143" fill="#f07281" d="M1690.879 174.607a1.165 1.165 0 0 1 .9-.31c3.538.318 10.139-1.386 14.453-5.8.3-.307.846-.133 1.189.123 4.8 3.586 12.752 4.329 15.512 4.481a1.165 1.165 0 0 1 1.094 1.043c2.511 24.251-13.278 33.038-16.553 34.59a1.168 1.168 0 0 1-1.116-.065c-16.321-10.166-15.623-23.387-15.849-33.183a1.167 1.167 0 0 1 .37-.879z" transform="translate(-1690.51 -168.333)"/>
                <path id="패스_144" fill="#fff" d="M1717.194 219.15a.388.388 0 0 1-.209-.061c-6.257-4-10.336-8.782-12.468-14.619-1.9-5.213-2-10.522-2.08-15.206l-.011-.624a.382.382 0 0 1 .11-.277.387.387 0 0 1 .278-.116 22.516 22.516 0 0 0 13.957-5.534.386.386 0 0 1 .472-.034c4.687 3.11 11.373 4.016 14.942 4.279a.385.385 0 0 1 .356.352c.829 9.462-1.139 17.464-5.85 23.782a28.082 28.082 0 0 1-9.321 8.015.385.385 0 0 1-.176.043zm.1-.184l.036.071-.036-.071a27.911 27.911 0 0 0 9.266-7.969c4.687-6.286 6.645-14.251 5.819-23.673a.227.227 0 0 0-.209-.208c-3.584-.264-10.3-1.175-15.018-4.3a.228.228 0 0 0-.278.02 22.684 22.684 0 0 1-14.06 5.574.23.23 0 0 0-.168.069.224.224 0 0 0-.065.162l.011.624c.082 4.671.175 9.966 2.07 15.154 2.12 5.8 6.177 10.559 12.4 14.539a.229.229 0 0 0 .238.008z" opacity="0.7" transform="translate(-1700.671 -180.511)"/>
            </g>
            <path id="패스_145" d="M1725.772 261.255s5.081 5.94 11.348 5.94 11.348-5.94 11.348-5.94-5.081-5.94-11.348-5.94-11.348 5.94-11.348 5.94z" class="cls-18" transform="translate(-1720.578 -242.503)"/>
            <circle id="타원_41" cx="4.917" cy="4.917" r="4.917" fill="url(#linear-gradient-19)" transform="rotate(-45 27.36 -1.919)"/>
            <circle id="타원_42" cx="1.625" cy="1.625" r="1.625" class="cls-18" transform="rotate(-76.7 17.892 1.258)"/>
        </g>
    </g>
</svg>
