<svg xmlns="http://www.w3.org/2000/svg" xmlns:xlink="http://www.w3.org/1999/xlink" width="243" height="121" viewBox="0 0 243 121">
    <defs>
        <path id="pvijb2f9ta" d="M0 121L243 121 243 0 0 0z"/>
    </defs>
    <g fill="none" fill-rule="evenodd">
        <g>
            <g>
                <path fill="#14B6CB" d="M16.012 48.408C7.18 48.419.011 41.274 0 32.45c-.005-3.818 1.357-7.51 3.84-10.41 2.106-2.406 4.855-4.161 7.924-5.06C12.543 6.854 21.39-.723 31.524.056c6.783.52 12.724 4.738 15.45 10.965 2.035-1.1 4.306-1.688 6.617-1.714 6.825.093 12.556 5.16 13.479 11.918 3.861.5 7.315 2.642 9.477 5.877.596.888.357 2.09-.532 2.686-.87.582-2.044.369-2.653-.482-1.801-2.704-4.838-4.327-8.088-4.326h-1.961v-1.96c-.01-5.375-4.38-9.724-9.759-9.713-2.288.004-4.502.813-6.253 2.286l-2.37 2.04-.816-3.02C42.053 6.903 34.128 2.324 26.412 4.384c-6.335 1.69-10.738 7.43-10.726 13.982v1.878l-1.634.246C7.468 21.62 3.048 27.87 4.179 34.45c.997 5.798 6.028 10.036 11.915 10.04 1.083.022 1.942.916 1.92 1.998-.023 1.083-.92 1.942-2.002 1.92" transform="translate(-839 -1116) translate(839 1116)"/>
                <path fill="#002B49" d="M54.817 35.836c-.806-.32-1.666-.485-2.532-.49-.87-.003-1.73.163-2.534.49-.782.336-1.501.806-2.123 1.388-.6.607-1.073 1.328-1.39 2.122-.318.806-.485 1.663-.49 2.532-.01.867.156 1.728.49 2.529.337.783.807 1.501 1.39 2.123.607.599 1.33 1.072 2.123 1.388.807.318 1.666.485 2.534.49 1.148-.009 2.276-.318 3.267-.899v-2.204c-.327-.409-.816-.49-1.062-.245-.206.155-.424.291-.653.409-2.039.849-4.38-.115-5.229-2.152-.483-1.16-.393-2.479.245-3.563.333-.577.812-1.056 1.388-1.387 1.883-1.108 4.309-.48 5.417 1.4.362.615.552 1.315.548 2.028v6.448h2.614v-6.448c.01-.868-.156-1.73-.49-2.53-.338-.758-.808-1.45-1.39-2.04-.607-.6-1.33-1.074-2.123-1.389zM73.361 35.264h-2.614v7.592c-.008.96-.5 1.85-1.307 2.368-1.5 1.082-3.594.743-4.676-.755-.409-.564-.63-1.243-.634-1.94v-7.265h-2.614v7.265c-.004.79.164 1.57.49 2.286.646 1.407 1.777 2.538 3.185 3.184.722.318 1.5.484 2.288.49.789.003 1.569-.165 2.287-.49 1.41-.646 2.54-1.777 3.186-3.184.32-.72.486-1.498.49-2.286v-7.265h-.08zM97.46 46.365c-.37.482-.37 1.152 0 1.634l.246.244c.586.451 1.428.344 1.88-.243.37-.481.37-1.153 0-1.633-.083-.164-.165-.246-.246-.246-.586-.45-1.428-.341-1.88.244zM102.996 37.224c-2.5 2.47-2.478 6.827 0 9.306 2.038 2.044 5.45 2.474 7.924.98v-2.205c-.327-.409-.816-.49-1.061-.245-.207.155-.425.291-.654.409-3.02 1.207-5.53-.992-5.53-3.674 0-1.27.527-2.564 1.935-3.428 1.883-1.108 4.309-.48 5.417 1.4.362.615.551 1.315.548 2.028v6.448h2.614v-6.448c.01-.868-.156-1.73-.49-2.53-.339-.758-.808-1.45-1.39-2.04-2.47-2.501-6.833-2.477-9.313 0z" transform="translate(-839 -1116) translate(839 1116)"/>
                <g transform="translate(-839 -1116) translate(839 1116)"/>
                <path fill="#002B49" d="M116.7 48.408L119.641 48.408 119.641 35.184 116.7 35.184z" transform="translate(-839 -1116) translate(839 1116)"/>
                <path fill="#14B6CB" d="M119.952 31.658c0 .984-.798 1.781-1.782 1.781-.985 0-1.783-.797-1.783-1.781 0-.985.798-1.782 1.783-1.782.984 0 1.782.797 1.782 1.782z" transform="translate(-839 -1116) translate(839 1116)"/>
                <path fill="#002B49" d="M27.204 48.407v-8.326c-.005-.643.3-1.25.817-1.632 1.149-.947 2.848-.785 3.796.362.39.474.607 1.065.616 1.679v7.917h2.695v-8.326c-.005-.643.3-1.25.817-1.632 1.149-.947 2.848-.785 3.796.362.39.474.607 1.065.616 1.679v7.917h2.614v-8c.03-.677-.11-1.35-.409-1.958-.778-1.978-2.693-3.275-4.82-3.265-1.508-.012-2.945.645-3.921 1.795-.868-1.112-2.338-1.795-3.92-1.795-1.986.01-3.805 1.106-4.739 2.857-.39.727-.587 1.542-.572 2.366v8h2.614zM94.03 38.449c-.78-1.977-2.693-3.274-4.82-3.266-1.509-.01-2.945.646-3.921 1.795-.868-1.11-2.34-1.795-3.922-1.795-1.984.01-3.803 1.107-4.738 2.857-.39.728-.586 1.543-.572 2.368v7.999h2.615V40.08c-.006-.643.299-1.25.816-1.632 1.148-.948 2.848-.785 3.796.362.39.473.607 1.065.616 1.678v7.918h2.696V40.08c-.006-.643.298-1.25.817-1.632 1.149-.948 2.847-.785 3.795.362.39.473.607 1.065.616 1.678v7.918h2.615v-8c.03-.677-.11-1.35-.41-1.958M129.871 65.137c-5.46-3.154-11.796-3.969-17.98-1.53-9 3.55-14.932 12.092-14.278 21.736.766 11.266 10.185 20.198 21.648 20.198 11.42 0 20.923-8.926 21.644-20.397l.053-36.721h-9.312l-.002 34.841c-.004 6.862-5.335 12.873-12.202 12.971-7.823.112-14.034-7.065-12.258-15.156 1.105-5.032 5.473-8.919 10.595-9.506 3.321-.38 6.372.519 8.785 2.467.719.643 2.417.298 3.307-1.038v-7.865zM167.723 96.114c-5.181-.722-9.496-4.81-10.428-9.952-1.603-8.846 6.279-16.435 15.194-14.315 5.62 1.336 9.363 6.693 9.363 12.466l.002 17.386c0 6.526-8.102 11.355-15.37 9.645-2.311-.543-4.363-1.877-6.042-3.554l-1.313-1.313-6.59 6.585 1.151 1.152c3.291 3.29 7.45 5.702 12.04 6.472 13.604 2.282 25.436-8.186 25.436-21.365V84.492c0-10.629-7.387-20.177-17.87-21.98-14.238-2.447-26.564 9.087-25.455 23.103.606 7.666 5.562 14.394 12.482 17.757 6.72 3.265 13.62 2.672 19.508-.634l.144-8.168c-1.217-1.533-2.735-1.183-2.916-1.07-2.543 2.11-5.84 3.101-9.336 2.614zM68.408 106.52c-12.505 0-22.68-10.164-22.68-22.659 0-12.492 10.175-22.657 22.68-22.657 12.505 0 22.679 10.165 22.679 22.657v4.575H73.683c-1.567 1.591-3.272 2.407-5.275 2.407-3.85 0-6.988-3.13-6.988-6.982 0-3.847 3.137-6.979 6.988-6.979 1.96 0 3.77.792 5.103 2.227l7.483.104-.178-.442c-2.065-5.07-6.931-8.348-12.408-8.348-7.415 0-13.445 6.03-13.445 13.438 0 7.411 6.03 13.44 13.445 13.44 3.588 0 6.963-1.4 9.5-3.94l1.462-1.459 6.53 6.527-1.453 1.454c-4.284 4.28-9.979 6.637-16.04 6.637" transform="translate(-839 -1116) translate(839 1116)"/>
                <path fill="#14B6CB" d="M68.402 76.882c-3.851 0-6.986 3.13-6.986 6.98 0 3.85 3.135 6.98 6.986 6.98 3.852 0 6.99-3.13 6.99-6.98 0-3.85-3.138-6.98-6.99-6.98" transform="translate(-839 -1116) translate(839 1116)"/>
                <path fill="#002B49" d="M220.32 106.52c-12.504 0-22.679-10.164-22.679-22.659 0-12.492 10.175-22.657 22.68-22.657 12.504 0 22.678 10.165 22.678 22.657v4.575h-17.407c-1.567 1.591-3.271 2.407-5.272 2.407-3.851 0-6.988-3.13-6.988-6.982 0-3.847 3.137-6.979 6.988-6.979 1.961 0 3.77.792 5.103 2.227l7.48.104-.178-.442c-2.065-5.07-6.931-8.348-12.405-8.348-7.414 0-13.445 6.03-13.445 13.438 0 7.411 6.03 13.44 13.445 13.44 3.585 0 6.96-1.4 9.5-3.94l1.459-1.459 6.53 6.527-1.452 1.454c-4.281 4.28-9.977 6.637-16.037 6.637" transform="translate(-839 -1116) translate(839 1116)"/>
                <path fill="#14B6CB" d="M220.315 76.882c-3.853 0-6.987 3.13-6.987 6.98 0 3.85 3.134 6.98 6.987 6.98 3.852 0 6.99-3.13 6.99-6.98 0-3.85-3.138-6.98-6.99-6.98" transform="translate(-839 -1116) translate(839 1116)"/>
            </g>
        </g>
    </g>
</svg>
