<svg xmlns="http://www.w3.org/2000/svg" xmlns:xlink="http://www.w3.org/1999/xlink" width="99" height="50" viewBox="0 0 99 50">
    <defs>
        <path id="st9hd1r3eb" d="M0 0L27.057 0 27.057 17.051 0 17.051z"/>
        <path id="00hbn9gj0d" d="M0 50L98.174 50 98.174 0 0 0z"/>
        <filter id="f9rfulpe3a">
            <feColorMatrix in="SourceGraphic" values="0 0 0 0 1.000000 0 0 0 0 1.000000 0 0 0 0 1.000000 0 0 0 1.000000 0"/>
        </filter>
    </defs>
    <g fill="none" fill-rule="evenodd">
        <g filter="url(#f9rfulpe3a)" transform="translate(-361 -10)">
            <g transform="translate(361 10)">
                <g>
                    <mask id="h6rp8ri0oc" fill="#fff">
                        <use xlink:href="#st9hd1r3eb"/>
                    </mask>
                    <path fill="#14B6CB" d="M5.636 17.05C2.527 17.056.004 14.539 0 11.43c-.002-1.345.478-2.645 1.352-3.666.74-.848 1.708-1.467 2.789-1.783.274-3.567 3.387-6.236 6.954-5.962 2.387.184 4.479 1.67 5.438 3.863.716-.388 1.515-.595 2.329-.604 2.402.033 4.42 1.817 4.744 4.198 1.359.176 2.575.931 3.336 2.07.209.313.125.737-.188.946-.306.205-.72.13-.934-.17-.634-.952-1.702-1.524-2.847-1.523h-.69v-.69c-.003-1.894-1.54-3.426-3.434-3.422-.806.001-1.585.286-2.201.805l-.834.719-.287-1.064C14.8 2.431 12.012.818 9.297 1.544c-2.23.596-3.78 2.618-3.776 4.926v.66l-.575.087c-2.318.399-3.873 2.6-3.475 4.917.35 2.043 2.121 3.535 4.193 3.536.381.008.684.324.676.705-.008.381-.323.684-.704.676" mask="url(#h6rp8ri0oc)"/>
                </g>
                <path fill="#002B49" d="M20.04 13.112c-.213-.212-.467-.378-.747-.489-.284-.113-.586-.171-.891-.173-.306 0-.608.058-.891.173-.276.118-.53.284-.748.489-.211.214-.377.468-.489.747-.112.284-.17.586-.172.892-.004.305.054.609.172.89.118.277.284.53.489.748.214.212.468.378.748.49.283.112.586.17.89.172.405-.003.802-.112 1.151-.316v-.777c-.115-.144-.287-.172-.374-.086-.072.054-.15.102-.23.144-.717.299-1.54-.04-1.84-.758-.17-.408-.138-.873.086-1.255.117-.203.286-.372.49-.489.662-.39 1.515-.17 1.906.494.127.216.193.463.192.714v2.271h.92v-2.271c.004-.306-.055-.61-.173-.892-.118-.266-.284-.51-.488-.718M25.82 12.422h-.92v2.674c-.003.337-.176.65-.46.834-.528.38-1.265.262-1.646-.266-.143-.2-.221-.438-.223-.683v-2.56h-.92v2.56c-.001.277.058.552.172.805.228.496.626.893 1.122 1.121.254.112.528.17.805.173.278 0 .552-.058.805-.173.496-.228.894-.625 1.121-1.121.112-.254.171-.528.173-.805v-2.56h-.029z"/>
                <path fill="#040201" d="M34.964 16.246c-.207-.16-.503-.12-.662.086-.13.17-.13.405 0 .575l.086.086c.207.16.503.12.662-.086.13-.17.13-.405 0-.575-.029-.058-.058-.086-.086-.086"/>
                <path fill="#002B49" d="M39.528 13.112c-.87-.88-2.405-.872-3.277 0-.88.87-.873 2.405 0 3.277.717.72 1.918.872 2.789.346v-.777c-.116-.144-.288-.172-.374-.086-.073.054-.15.102-.23.144-1.064.425-1.947-.35-1.947-1.294 0-.447.186-.903.681-1.208.663-.39 1.517-.17 1.907.494.127.216.194.463.192.714v2.271h.92v-2.271c.005-.306-.054-.61-.172-.892-.119-.266-.284-.51-.489-.718"/>
                <mask id="s4dqkpkdse" fill="#fff">
                    <use xlink:href="#00hbn9gj0d"/>
                </mask>
                <path fill="#002B49" d="M41.073 17.051L42.109 17.051 42.109 12.393 41.073 12.393z" mask="url(#s4dqkpkdse)"/>
                <path fill="#14B6CB" d="M41.591 10.524c.347 0 .628.28.628.627 0 .346-.281.628-.628.628-.346 0-.627-.282-.627-.628 0-.347.28-.627.627-.627" mask="url(#s4dqkpkdse)"/>
                <path fill="#002B49" d="M9.575 17.05v-2.932c-.002-.227.105-.44.287-.575.405-.334 1.003-.276 1.336.128.138.166.214.375.217.59v2.79h.949v-2.933c-.002-.227.105-.44.287-.575.405-.334 1.003-.276 1.336.128.138.166.214.375.217.59v2.79h.92v-2.818c.011-.238-.039-.476-.144-.69-.274-.697-.947-1.153-1.696-1.15-.53-.004-1.037.228-1.38.632-.306-.39-.823-.632-1.38-.632-.699.004-1.34.39-1.668 1.006-.137.256-.207.543-.201.834v2.818h.92zM33.095 13.543c-.274-.697-.948-1.153-1.697-1.15-.53-.004-1.036.227-1.38.632-.305-.39-.823-.632-1.38-.632-.699.003-1.34.39-1.668 1.006-.137.256-.206.543-.201.834v2.818h.92v-2.933c-.002-.227.105-.44.288-.575.404-.334 1.002-.276 1.335.128.138.166.214.375.217.59v2.79h.949v-2.933c-.002-.227.105-.44.288-.575.404-.334 1.002-.276 1.335.128.138.166.214.375.217.59v2.79h.92v-2.818c.011-.238-.038-.476-.143-.69M46.848 24.635c-2.477-1.432-5.351-1.802-8.158-.694-4.083 1.611-6.774 5.49-6.476 9.869.347 5.115 4.62 9.17 9.82 9.17 5.182 0 9.493-4.052 9.82-9.26l.025-16.674h-4.225l-.001 15.82c-.002 3.116-2.421 5.845-5.536 5.89-3.55.05-6.367-3.209-5.561-6.882.5-2.285 2.482-4.05 4.807-4.316 1.506-.173 2.89.235 3.985 1.12.326.292 1.097.135 1.5-.471v-3.572zM68.257 37.513c-1.153.96-2.65 1.409-4.236 1.187-2.35-.328-4.308-2.184-4.73-4.519-.728-4.016 2.848-7.461 6.892-6.499 2.55.607 4.248 3.039 4.248 5.66l.001 7.894c0 2.964-3.676 5.156-6.973 4.38-1.048-.247-1.98-.853-2.74-1.614l-.597-.596-2.99 2.99.523.522c1.493 1.495 3.38 2.59 5.463 2.94 6.172 1.036 11.54-3.717 11.54-9.701v-6.734c0-4.826-3.352-9.161-8.108-9.98-6.46-1.11-12.052 4.126-11.549 10.49.275 3.481 2.523 6.536 5.663 8.063 3.049 1.482 6.18 1.213 8.85-.288L69.58 38c-.552-.697-1.24-.537-1.323-.487M18.963 43.425c-5.673 0-10.29-4.615-10.29-10.288 0-5.672 4.617-10.287 10.29-10.287 5.673 0 10.29 4.615 10.29 10.287v2.077h-7.896c-.712.722-1.484 1.093-2.394 1.093-1.747 0-3.17-1.422-3.17-3.17 0-1.747 1.423-3.168 3.17-3.168.89 0 1.71.359 2.315 1.01l3.395.048-.08-.201c-.937-2.303-3.146-3.79-5.63-3.79-3.364 0-6.1 2.737-6.1 6.101 0 3.365 2.736 6.102 6.1 6.102 1.628 0 3.16-.635 4.31-1.789l.663-.662 2.963 2.963-.66.661c-1.943 1.943-4.527 3.013-7.276 3.013" mask="url(#s4dqkpkdse)"/>
                <path fill="#14B6CB" d="M18.96 29.969c-1.747 0-3.169 1.42-3.169 3.168 0 1.748 1.422 3.17 3.17 3.17 1.747 0 3.17-1.422 3.17-3.17 0-1.747-1.423-3.168-3.17-3.168" mask="url(#s4dqkpkdse)"/>
                <path fill="#002B49" d="M87.884 43.425c-5.673 0-10.289-4.615-10.289-10.288 0-5.672 4.616-10.287 10.29-10.287 5.672 0 10.288 4.615 10.288 10.287v2.077h-7.897c-.71.722-1.484 1.093-2.392 1.093-1.747 0-3.17-1.422-3.17-3.17 0-1.747 1.423-3.168 3.17-3.168.89 0 1.71.359 2.315 1.01l3.394.048-.081-.201c-.936-2.303-3.145-3.79-5.628-3.79-3.364 0-6.1 2.737-6.1 6.101 0 3.365 2.736 6.102 6.1 6.102 1.627 0 3.158-.635 4.31-1.789l.662-.662 2.963 2.963-.66.661c-1.942 1.943-4.526 3.013-7.275 3.013" mask="url(#s4dqkpkdse)"/>
                <path fill="#14B6CB" d="M87.882 29.969c-1.748 0-3.17 1.42-3.17 3.168 0 1.748 1.422 3.17 3.17 3.17s3.17-1.422 3.17-3.17c0-1.747-1.422-3.168-3.17-3.168" mask="url(#s4dqkpkdse)"/>
            </g>
        </g>
    </g>
</svg>
