<?xml version="1.0" encoding="utf-8"?>
<!-- Generator: Adobe Illustrator 25.2.0, SVG Export Plug-In . SVG Version: 6.00 Build 0)  -->
<svg version="1.1" id="Layer_1" xmlns="http://www.w3.org/2000/svg" xmlns:xlink="http://www.w3.org/1999/xlink" x="0px" y="0px"
	 viewBox="0 0 439.9 595.2" style="enable-background:new 0 0 439.9 595.2;" xml:space="preserve">
<style type="text/css">
	.st0{fill:#FFFFFF;}
	.st1{fill:#E6E6E6;}
	.st2{enable-background:new    ;}
	.st3{fill:#FFDFBA;}
	.st4{fill:#4D3B35;}
	.st5{fill:#5A483F;}
	.st6{fill:#342723;}
	.st7{fill:#FFEBD2;}
	.st8{fill:#FFBC83;}
	.st9{clip-path:url(#SVGID_2_);}
	.st10{fill:#8E5517;}
	.st11{clip-path:url(#SVGID_4_);}
	.st12{fill:#E55D2E;}
	.st13{fill:#661A00;}
	.st14{fill:#FFF2EE;}
	.st15{fill:#661300;}
	.st16{fill:#CC5700;}
	.st17{fill:#F2A261;}
</style>
<g id="img-mina" transform="translate(-228.219 -401.582)">
	<g id="img-bubble-02" transform="translate(85.069 384.917)">
		<path id="패스_1461" class="st0" d="M215.4,318.4c-1.1-13.2,1.6-23.5,8.2-31.3c13.5-16,41.8-18.1,65-18.1
			c13.8,0,28.5,0.8,44,1.6c16,0.9,32.5,1.8,48.4,1.8c61.8,0,141-13.7,178.1-52.2c14.7-15.3,21.8-33.5,21-54.3
			C577.3,87.9,477,19.5,365.6,19.5c-4.9,0-9.9,0.1-14.8,0.4c-109.6,6.3-189.7,97.6-192.9,175.6C155.3,256,199.6,303.4,215.4,318.4z"
			/>
		<g id="그룹_75" transform="translate(210.081 70.822)">
			<path id="패스_1462" class="st1" d="M67.2,196.5c13.6-1.9,28.3-3.2,43.8-4.5c15.9-1.4,32.4-2.8,48.2-5
				c61.2-8.6,137.7-33.2,169-76.5c12.4-17.2,16.9-36.2,13.3-56.7c-3.5-19.7-13.4-37.9-27.8-53.8c33.6,26,55.2,59.6,56.5,95.1
				c0.8,20.7-6.3,39-21,54.3C312,187.9,232.8,201.6,171,201.6c-15.9,0-32.4-0.9-48.4-1.8c-15.5-0.8-30.2-1.6-44-1.6
				c-11.2,0-23.5,0.5-34.9,2.8C51.5,199.1,59.3,197.6,67.2,196.5z"/>
			<path id="패스_1463" class="st1" d="M5.3,223.5c4.1-6.5,10.4-11.4,17.8-15.2c-3.6,2.1-6.8,4.7-9.5,7.9
				C7,224,4.3,234.3,5.4,247.6c-1.5-1.5-3.4-3.2-5.4-5.3C0,235.6,1.8,229.1,5.3,223.5z"/>
		</g>
		<path id="패스_1464" d="M365.6,22.3c51.8,0,104.8,15.7,145.4,43c41.4,27.8,64.9,63.6,66.3,100.7c0.7,19.9-6.1,37.5-20.2,52.2
			c-36.5,37.8-114.8,51.3-176,51.3c-15.8,0-32.3-0.9-48.3-1.8c-15.6-0.8-30.3-1.6-44.2-1.6c-25.3,0-53,2.3-67.2,19.1
			c-5.8,6.9-8.9,15.6-9.1,26.3c-18.2-18.5-54-62-51.8-115.9c1.5-37,21.9-78.6,54.4-111.2c36.7-36.8,85-58.7,135.9-61.6
			C355.8,22.4,360.7,22.3,365.6,22.3L365.6,22.3 M365.6,16.7c-5,0-10,0.1-15,0.4C236,23.7,158.2,119.9,155,195.4
			s64.1,130.1,64.1,130.1c-7.8-45,24.6-53.7,69.5-53.7c28.1,0,61.2,3.4,92.4,3.4c81,0,205-24.1,201.9-109.4
			C580,84.2,475,16.7,365.6,16.7L365.6,16.7z"/>
		<g class="st2">
			<path d="M280,104.3c-0.3,0-0.7,0-1,0c-0.3,0-0.6,0-0.9,0.1c-0.1,0.4-0.1,0.9-0.1,1.4c0,0.5,0,1-0.1,1.4c-0.1,1.2-0.2,2.3-0.3,3.5
				c-0.1,1.2-0.3,2.4-0.5,3.6c-0.1,0.3-0.2,0.5-0.2,0.7c-0.1,0.2-0.2,0.4-0.3,0.6c-0.1,0.2-0.3,0.3-0.6,0.4c-0.3,0.1-0.5,0-0.7,0
				c-0.5-0.3-0.9-0.6-1.2-1s-0.3-0.9-0.2-1.5c0.1-0.7,0.2-1.5,0.3-2.3s0.2-1.6,0.3-2.3c0.1-0.4,0.1-0.8,0.1-1.3c0-0.4,0-0.8,0.1-1.3
				c0-0.1,0-0.4,0.1-0.8c0-0.4,0.1-0.8,0.1-1.1h-0.6l-4.3,0.5c-1.1,0.2-1.8,0.1-2.2-0.3c-0.4-0.4-0.7-0.9-0.8-1.6
				c-0.1-0.5-0.1-0.8,0-1s0.4-0.3,0.7-0.4c1-0.1,2.2-0.2,3.5-0.4s2.6-0.2,3.9-0.3c1.4-0.1,2.7-0.1,4-0.1c1.3,0,2.7,0,4.1-0.1
				c0.9,0,1.8,0,2.9,0c1,0,2,0.1,2.9,0.1l1.5,0.1c0.5,0,0.9,0.2,1.1,0.5c0.3,0.3,0.5,0.6,0.6,0.9c0.1,0.3,0.2,0.6,0.2,0.9
				s-0.1,0.5-0.2,0.7c-0.1,0.2-0.3,0.3-0.4,0.3c-0.2,0-0.3,0-0.5,0c-1.2-0.1-2.4-0.2-3.5-0.2c-0.4,0-0.8,0-1.3,0c-0.4,0-0.8,0-1.3,0
				l0.1,0.6c0,0.5,0.1,1,0.1,1.3c0,0.4,0.1,0.7,0.1,1c0,0.3,0.1,0.6,0.1,1s0,0.7,0,1.2v2.5c0,0.2,0,0.5,0,0.8c0,0.3,0,0.9-0.1,1.7
				c0,0.6-0.1,1.2-0.1,1.7s0,1.1-0.1,1.7c0,0.3,0,0.6-0.1,0.9c-0.1,0.4-0.4,0.6-0.8,0.7c-0.3,0-0.6,0-0.9-0.1
				c-0.3-0.1-0.6-0.3-1-0.6c-0.2-0.2-0.4-0.5-0.4-1c0-0.4,0-0.8,0-1c0.1-1.2,0.2-2.2,0.3-3.1c0-0.9,0-2,0.1-3.1V109
				c0-0.7,0-1.3-0.1-1.8c-0.1-0.5-0.1-1.2-0.2-1.9c0-0.1,0-0.2,0-0.4c0-0.2-0.1-0.4-0.1-0.6H280z M277.2,83.2c0.4,0,0.8-0.1,1.1-0.1
				c0.3-0.1,0.7-0.1,1,0s0.8,0.1,1.3,0.2s0.9,0.3,1.2,0.4c1,0.5,1.8,1.1,2.5,1.9c0.7,0.7,1.2,1.6,1.6,2.5c0.6,1.3,0.8,2.5,0.5,3.7
				c-0.3,1.2-0.8,2.3-1.6,3.3c-0.3,0.4-0.7,0.7-1.3,1c-0.6,0.3-1.1,0.4-1.6,0.6c-1.6,0.4-3.2,0.5-4.8,0.2c-0.5-0.1-0.9-0.3-1.4-0.4
				c-0.4-0.1-0.9-0.4-1.3-0.7c-0.3-0.3-0.6-0.5-0.8-0.8c-0.2-0.2-0.5-0.5-0.6-0.8c-0.8-1.4-1.2-3.1-1.1-4.9c0.1-1.8,0.7-3.6,2-5.1
				c0.4-0.4,0.9-0.7,1.6-0.7C276.1,83.2,276.6,83.2,277.2,83.2z M280.3,93.4c0.6-0.1,1.2-0.3,1.6-0.7c0.4-0.4,0.8-0.8,1.1-1.3
				c0.2-0.4,0.3-1,0.3-1.6c0-0.7-0.1-1.2-0.5-1.7c-0.3-0.3-0.6-0.5-0.9-0.7s-0.6-0.3-1-0.5c-0.1,0-0.3-0.1-0.5-0.1
				c-0.2,0-0.4-0.1-0.7-0.1c-0.2-0.1-0.4-0.1-0.6-0.1c-0.2,0-0.3-0.1-0.4-0.1c-0.3,0-0.7,0-1.2,0.1c-0.5,0.1-0.9,0.3-1.1,0.5
				c-0.5,0.4-0.9,1-1.1,1.7c-0.2,0.7-0.3,1.5-0.2,2.1c0.1,0.4,0.2,0.8,0.5,1.1s0.5,0.5,0.8,0.7c0.4,0.3,1,0.6,1.7,0.7
				C278.9,93.6,279.6,93.6,280.3,93.4z"/>
			<path d="M305.2,91.2c0.6-0.1,1-0.1,1.4-0.2c0.4,0,0.8-0.1,1.1-0.1c0.3,0,0.7,0,1.1-0.1c0.4,0,0.9,0,1.4-0.1h1.3
				c0.5,0,1,0.1,1.3,0.2c0.3,0.1,0.8,0.3,1.5,0.4c0-0.1,0-0.3,0-0.6s-0.1-0.4-0.1-0.6s0-0.5-0.1-1c0-0.5-0.1-1.1-0.1-1.7
				c-0.1-0.6-0.1-1.2-0.2-1.7c-0.1-0.5-0.1-0.9-0.2-1c-0.1-0.4,0.1-0.8,0.6-1c0.5-0.2,1-0.3,1.5-0.1c0.3,0.3,0.6,0.6,0.7,1.1
				c0.1,0.5,0.3,1.1,0.4,1.9s0.2,1.3,0.3,1.6c0,0.3,0.1,0.8,0.1,1.6c0.1,1.6,0.1,3,0.2,4.4c0,1.4,0,2.8,0,4.4c0,0.3,0,0.8-0.1,1.6
				c-0.1,0.8-0.1,1.7-0.2,2.6c-0.1,0.9-0.2,1.8-0.3,2.6c-0.1,0.8-0.2,1.3-0.3,1.5l-0.3,0.7c-0.1,0.1-0.3,0.2-0.6,0.3
				c-0.3,0.1-0.6,0.1-0.7-0.1c-0.4-0.1-0.7-0.3-0.8-0.5c-0.1-0.2-0.2-0.6-0.3-1.1c0-0.1,0-0.3,0.1-0.7c0-0.4,0.1-0.8,0.1-1.2
				s0.1-1,0.2-1.5c0.1-0.5,0.1-1,0.2-1.4c0-0.1,0.1-0.3,0.1-0.6v-0.7l-4,0.5c-0.4,0-0.7,0.1-0.9,0.1c-0.2,0-0.4,0.1-0.6,0.1
				c-0.2,0-0.4,0-0.6,0.1c-0.2,0-0.5,0-0.8,0c-0.7,0-1.1-0.2-1.4-0.6c-0.2-0.3-0.3-0.5-0.4-0.8c-0.1-0.2-0.1-0.5-0.2-0.9
				c0-0.6,0.3-0.9,0.8-0.9c0.3,0,0.7,0,1.2,0c0.5,0,0.9,0,1.2-0.1c0.3,0,0.6-0.1,0.9-0.1c0.2,0,0.5-0.1,0.7-0.1
				c0.2,0,0.5-0.1,0.7-0.1c0.3,0,0.6-0.1,1-0.1c0.3,0,0.5-0.1,0.6-0.1c0.1,0,0.3,0,0.5-0.1c0.2,0,0.4,0,0.6-0.1s0.5-0.1,1-0.2v-1.3
				c0-0.7,0-1.2-0.1-1.3c-0.6-0.1-1.3-0.2-2.1-0.2h-1.6c-0.2,0-0.3,0-0.6,0c-0.2,0-0.6,0-1.1,0.1c-0.1,0-0.2,0-0.4,0
				c-0.1,0-0.3,0-0.5,0.1l-1,0.1c-0.2,0-0.4,0.1-0.5,0.1s-0.3,0-0.4,0h-0.9c0,0.1,0,0.2,0,0.4s0,0.3-0.1,0.5
				c-0.1,0.7-0.3,1.6-0.5,2.4c-0.2,0.9-0.5,1.7-0.8,2.3c-0.2,0.5-0.4,1-0.7,1.4c-0.2,0.4-0.5,0.8-0.8,1.4c-0.2,0.4-0.6,0.6-1.1,0.7
				c-0.5,0.1-0.9,0.1-1.2-0.1l-0.3-0.2c-0.6,0.2-1.2,0.2-1.7,0.3c-0.5,0-1.1,0.1-1.7,0.2l-1.7,0.2c-0.8,0.1-1.3,0-1.5-0.3
				s-0.3-0.6-0.4-1c-0.1-0.6-0.2-1.2-0.3-1.6c-0.1-0.4-0.2-1-0.3-1.6c-0.2-1-0.3-2-0.4-3.1s-0.2-2.2-0.4-3.1
				c-0.1-0.5-0.1-0.9-0.2-1.1c0-0.2-0.1-0.6-0.3-1.1c-0.1-0.4-0.3-0.7-0.3-0.9s-0.1-0.5-0.1-1.1c0-0.1,0.1-0.3,0.2-0.5
				c0.1-0.2,0.3-0.3,0.6-0.5c0.2-0.1,0.5-0.2,0.7-0.2s0.5,0.1,0.7,0.2c0.2,0.1,0.3,0.3,0.4,0.4c0.1,0.1,0.2,0.2,0.2,0.3
				c1-0.4,1.9-0.6,2.8-0.8c0.5-0.1,1.2-0.1,2-0.1s1.4,0.1,2,0.3c1,0.3,1.7,0.7,2.3,1.1c0.6,0.4,1.1,0.9,1.7,1.6
				c0.2,0.2,0.4,0.5,0.6,0.8L305.2,91.2z M296.5,100.4c0.1,0,0.3,0,0.6,0c0.3,0,0.6,0,0.9-0.1l0.9-0.1l0.7-0.1
				c0.4-0.1,0.7-0.1,0.8-0.2c0.1-0.1,0.3-0.2,0.4-0.5c0.2-0.3,0.3-0.5,0.3-0.6l0.2-0.4c0.1-0.1,0.1-0.2,0.2-0.4s0.1-0.4,0.3-0.6
				c0.2-0.4,0.3-1,0.4-1.6c0.1-0.6,0.2-1.2,0.3-1.6c0-0.3,0-0.7-0.1-1.1c-0.1-0.5-0.3-0.8-0.5-1c-0.4-0.3-0.8-0.6-1-0.7
				c-0.3-0.1-0.7-0.2-1.2-0.3c-0.4-0.1-0.8-0.1-1.4-0.1c-0.5,0-1,0.1-1.3,0.2c-0.3,0.1-0.6,0.1-0.9,0.2c-0.2,0.1-0.5,0.1-0.7,0.2
				c-0.2,0.1-0.4,0.2-0.5,0.4c-0.2,0.2-0.2,0.5-0.1,1l1,6.9c0,0.3,0.1,0.5,0.3,0.6C296.2,100.4,296.4,100.4,296.5,100.4z
				 M307.1,108.2c1-0.5,2.1-0.7,3-0.6c1,0.1,1.9,0.5,2.9,1.1c0.3,0.2,0.6,0.4,0.8,0.6c0.2,0.2,0.5,0.4,0.6,0.7
				c0.3,0.3,0.6,0.8,0.8,1.3c0.2,0.5,0.4,1.1,0.4,1.7c0.1,0.6,0,1.2-0.1,1.8c-0.1,0.6-0.4,1.2-0.8,1.7c-0.3,0.3-0.5,0.6-0.8,0.8
				c-0.3,0.2-0.6,0.4-1,0.6c-0.4,0.3-1,0.5-1.7,0.6c-0.7,0.1-1.3,0.2-1.8,0.1c-0.4-0.1-0.8-0.2-1.3-0.3c-0.4-0.1-0.8-0.4-1.1-0.7
				c-0.9-0.8-1.5-1.8-2-3c-0.1-0.3-0.2-0.6-0.3-0.8c-0.1-0.3-0.1-0.5-0.2-0.8c-0.2-1-0.1-2,0.3-3.2c0.1-0.4,0.2-0.6,0.4-0.8
				c0.1-0.1,0.3-0.3,0.5-0.3c0.2-0.1,0.4-0.1,0.6-0.2C306.5,108.4,306.8,108.3,307.1,108.2z M310.9,110.6c-1,0-1.9,0.3-2.6,0.8
				c-0.9,0.6-1.2,1.3-1,2.4c0.1,0.6,0.4,1.1,0.8,1.5c0.4,0.3,1,0.5,1.6,0.4c0.4-0.1,0.8-0.2,1.1-0.3c0.3-0.1,0.7-0.3,1-0.6
				c0.5-0.4,0.8-0.8,0.9-1.2c0.1-0.4,0.2-0.9,0.2-1.5c0-0.2-0.1-0.4-0.2-0.6c-0.1-0.2-0.2-0.3-0.3-0.4
				C311.9,110.7,311.4,110.6,310.9,110.6z"/>
			<path d="M318.3,92.6c0.5-0.7,1.1-1.5,1.8-2.3c0.7-0.8,1.7-1.3,2.9-1.6c1.2-0.4,2.4-0.4,3.7-0.1s2.3,1,3.2,1.8
				c1,1.1,1.7,2.2,2,3.3c0.4,1.1,0.6,2.4,0.6,3.9c0,0.7-0.1,1.4-0.4,2.1s-0.7,1.3-1.2,1.7c-0.6,0.4-1.2,0.8-2,1.1
				c-0.8,0.3-1.5,0.5-2.3,0.5c-3.4,0-5.8-1.3-7.4-3.9c-0.4-0.7-0.7-1.4-0.9-2.1c-0.2-0.7-0.3-1.4-0.4-2.1c0-0.4,0-0.8,0-1.3
				C318,93.2,318.1,92.9,318.3,92.6z M321.7,97.2c0.1,0.2,0.3,0.5,0.5,0.8c0.3,0.4,0.6,0.7,0.9,0.9c1.6,1,3.1,1,4.7,0.2
				c0.3-0.2,0.6-0.5,0.9-0.8c0.3-0.4,0.5-0.7,0.6-1.1c0.1-0.3,0.1-0.6,0.1-0.9s0-0.7-0.1-1c-0.1-0.4-0.2-0.7-0.3-1s-0.2-0.5-0.4-0.7
				c-1.1-1.2-2.3-1.8-3.6-1.6c-1,0.1-1.9,0.5-2.6,1.2l-0.8,0.8c-0.2,0.2-0.3,0.4-0.3,0.7s0,0.6,0,0.9c0,0.3,0.1,0.6,0.1,0.9
				C321.5,96.8,321.6,97,321.7,97.2z M334.9,114c0.9,0,2-0.1,3.2-0.2c1.2-0.1,2.3-0.2,3.3-0.3c0.3,0,0.8,0,1.3,0.1
				c0.5,0.1,0.8,0.4,0.8,1c0,0.3,0,0.6-0.2,1c-0.2,0.4-0.3,0.7-0.6,0.8l-0.4,0.2c-0.2,0.1-0.4,0.1-0.4,0.1c-1.1,0.1-2.1,0.3-3.1,0.4
				c-1,0.1-2,0.2-3,0.3c-0.3,0-0.6,0-1,0c-0.4,0-0.7,0-1.1,0c-0.6,0-1.1-0.2-1.5-0.5s-0.8-0.7-1.1-1.2c-0.3-0.6-0.5-1.4-0.6-2.3
				c-0.1-0.9-0.2-1.8-0.3-2.5c0-0.3-0.1-0.6-0.1-0.9s0-0.5,0-0.8v-1.7c0.1-0.7,0.5-0.9,1.3-0.6c0.1,0.1,0.4,0.2,0.6,0.3
				s0.5,0.3,0.7,0.6c0.2,0.2,0.3,0.4,0.3,0.6v0.7c0,0.6,0,1.3,0,1.9c0,0.6,0,1.3,0.1,1.8c0.1,0.6,0.3,0.9,0.6,0.9
				C334,114,334.4,114,334.9,114z M342.1,99.2c0,0.6,0,1.2-0.1,1.8c0,0.6-0.1,1.2-0.1,1.8c-0.1,0.5-0.1,1-0.1,1.4
				c0,0.4-0.1,0.6-0.1,0.7c-0.1,0.3-0.2,0.7-0.2,1.2s-0.2,0.9-0.3,1.2c-0.1,0.3-0.4,0.6-1,0.7c-0.6,0.1-1,0.2-1.3,0.1
				c-0.3-0.1-0.4-0.2-0.6-0.4c-0.1-0.2-0.2-0.5-0.2-0.7c0-0.2,0-0.5,0.1-0.9c0.1-0.4,0.1-0.7,0.2-0.9c0.1-0.6,0.2-1.2,0.3-1.8
				c0.1-0.6,0.1-1.2,0.2-1.8c0-0.6,0.1-1.1,0.1-1.8c0-0.6,0-1.2,0-1.9v-3.7c0-0.5,0-1,0-1.5s-0.1-1-0.1-1.5c0-0.3,0-0.7-0.1-1.2
				c-0.1-0.5-0.2-1-0.3-1.4l-0.1-0.7c-0.3-0.6-0.4-1-0.5-1.2c-0.1-0.3-0.3-0.6-0.5-1c-0.1-0.2-0.2-0.5-0.3-0.7
				c-0.1-0.2-0.1-0.5-0.1-0.8c0-0.2,0.1-0.4,0.3-0.6c0.2-0.2,0.5-0.3,0.8-0.3c0.2,0,0.5,0,0.8,0.1c0.3,0.1,0.5,0.2,0.6,0.4
				c0.3,0.3,0.6,0.6,0.9,1.1c0.3,0.4,0.5,0.9,0.7,1.4c0.1,0.4,0.3,1,0.4,1.5c0.1,0.6,0.2,1.1,0.4,1.7c0.1,0.6,0.2,1.2,0.3,1.8
				c0.1,0.6,0.1,1.1,0.1,1.6c0,0.4,0,1,0,1.5s0,1.2,0,1.8v1.7c0,0.3,0,0.6,0,0.8C342.2,98.9,342.2,99.1,342.1,99.2z"/>
			<path d="M356.9,100.5c-0.1,0.4-0.2,0.9-0.3,1.4c-0.1,0.5-0.4,1-0.6,1.4c-0.3,0.5-0.6,0.9-1,1.1c-0.3,0.3-0.7,0.5-1.2,0.8
				c-1.1,0.4-2.2,0.6-3.2,0.6c-0.9,0-1.8-0.1-2.7-0.4c-0.9-0.3-1.7-0.8-2.4-1.5c-0.5-0.6-0.9-1.2-1.2-1.8c-0.3-0.6-0.5-1.2-0.7-1.9
				c0-0.2-0.1-0.4-0.1-0.8c-0.1-0.3-0.1-0.6-0.2-1c-0.1-0.3-0.1-0.6-0.2-0.9s-0.1-0.5-0.1-0.5c-0.1-0.2-0.2-0.4-0.2-0.8
				c0-0.3,0-0.7,0-1c0.1-0.4,0.1-0.7,0.2-1c0.1-0.3,0.2-0.5,0.4-0.7c0.3-0.3,0.4-0.5,0.5-0.5c0.1-0.1,0.3-0.2,0.6-0.4
				c1-0.4,1.9-0.7,2.7-1c0.8-0.2,1.8-0.3,3-0.1c0.4,0.1,1,0.2,1.6,0.4c0.6,0.2,1.1,0.4,1.5,0.7c1.3,1,2.3,2.1,2.9,3.2
				C356.7,97.3,356.9,98.7,356.9,100.5z M346.2,97.8c0.1,0.6,0.2,1.1,0.3,1.7c0.1,0.5,0.3,1.1,0.6,1.6c0.6,0.9,1.5,1.4,2.6,1.4
				c0.4,0.1,0.8,0.1,1.1,0c0.4-0.1,0.7-0.2,1.1-0.4c0.7-0.4,1.3-0.9,1.5-1.6c0.3-0.7,0.4-1.4,0.3-2.2c0-0.7-0.3-1.3-0.8-1.9
				s-1.1-0.9-1.8-1.1c-0.9-0.3-1.6-0.4-2.3-0.3c-0.7,0.1-1.3,0.3-1.9,0.6c-0.4,0.1-0.6,0.4-0.8,0.8
				C346.1,96.9,346.1,97.3,346.2,97.8z M365,87.5c0.1,0.6,0.3,1,0.4,1.4c0.1,0.4,0.2,0.7,0.2,1c0.1,0.3,0.1,0.7,0.2,1
				c0.1,0.4,0.2,0.8,0.3,1.4c0.1,0.4,0.1,0.7,0.2,1c0,0.3,0.1,0.6,0.1,1c0,0.4,0,0.8,0.1,1.2c0,0.5,0.1,1,0.1,1.7
				c0.1,1.5,0.1,2.9,0,4.2c-0.1,1.4-0.2,2.7-0.3,4l-0.2,1.1c-0.1,0.6-0.2,1.3-0.3,2.1s-0.3,1.3-0.4,1.7c-0.1,0.4-0.2,0.9-0.3,1.4
				c-0.1,0.5-0.3,1-0.6,1.5c-0.2,0.4-0.5,0.6-0.8,0.7c-0.3,0-0.7,0-1.1-0.1c-0.4-0.1-0.7-0.3-1-0.8c-0.3-0.5-0.3-0.9-0.1-1.4
				c0.3-0.7,0.5-1.5,0.6-2.1c0.1-0.7,0.3-1.4,0.5-2.2c0.1-0.7,0.2-1.3,0.3-1.9c0.1-0.5,0.1-1.1,0.2-1.6c0-0.5,0.1-1.1,0.1-1.6
				c0-0.5,0.1-1.2,0.1-1.9c0-0.6,0-1.1,0-1.4c0-0.4,0-0.7,0-1s0-0.6,0-0.9c0-0.3,0-0.8-0.1-1.4c-0.1-1.1-0.2-2.3-0.3-3.5
				c-0.2-1.3-0.4-2.3-0.6-3.2c-0.1-0.4-0.2-0.6-0.3-0.8c-0.1-0.2-0.1-0.3-0.1-0.5c0-0.1-0.1-0.3-0.1-0.5c0-0.2-0.1-0.4-0.2-0.8
				c-0.1-0.1-0.1-0.3,0.1-0.6c0.1-0.2,0.3-0.4,0.5-0.6c0.2-0.1,0.5-0.2,0.8-0.3c0.3,0,0.6,0.1,1,0.4C364.3,85.8,364.7,86.6,365,87.5
				z"/>
			<path d="M370.8,107.3c-0.9-0.1-1.5-0.4-1.9-0.8c-0.4-0.4-0.7-1.1-0.9-1.9c-0.1-0.3-0.1-0.7-0.2-1.1c-0.1-0.4-0.1-0.8-0.1-1.1
				c0-0.4-0.1-0.9-0.1-1.5s-0.1-1.3-0.1-2c0-0.7-0.1-1.3-0.1-2c0-0.6,0-1.2,0-1.6c0-0.3,0-0.7,0.1-1.1c0.1-0.3,0.3-0.5,0.7-0.7
				c0.2,0,0.5,0,0.8,0.1s0.6,0.2,0.8,0.4c0.3,0.4,0.5,0.8,0.6,1.2c0.1,0.4,0.2,0.8,0.3,1.4c0,0,0,0.3,0.1,0.9c0,0.6,0.1,1.2,0.1,1.9
				c0.1,0.7,0.1,1.3,0.1,1.9c0,0.6,0.1,0.9,0.1,1c0,0.9,0.4,1.4,1.2,1.3c0.6,0,1.1-0.1,1.4-0.2c0.3-0.1,0.8-0.2,1.4-0.3
				c1-0.3,2-0.6,3-0.9c1-0.3,2.1-0.6,3-0.9c0.4-0.1,0.7-0.2,1.1-0.3c0.4-0.1,0.7-0.2,1.1-0.3c0.9-0.2,1.3,0.1,1.5,1
				c0,0.3,0,0.7,0,1.1c-0.1,0.4-0.2,0.7-0.5,0.9c-0.3,0.2-0.6,0.4-1,0.6c-1,0.4-2.1,0.8-3.3,1.2c-1.2,0.4-2.3,0.7-3.4,1.1
				c-0.6,0.1-1.1,0.3-1.7,0.4c-0.6,0.1-1.1,0.2-1.7,0.3c-0.4,0.1-0.8,0.1-1.3,0.1C371.3,107.4,371,107.4,370.8,107.3z M389.6,97.4
				c0.1,0,0.3,0.1,0.5,0.1h0.5c0.7,0.1,1.3,0.1,1.8,0.1c0.4,0,1,0.1,1.8,0.2c0.7,0.1,1.4,0.3,2.1,0.6c0.3,0.1,0.5,0.3,0.8,0.6
				c0.3,0.2,0.4,0.4,0.5,0.5c0.2,0.3,0.2,0.7,0,1.1c-0.2,0.4-0.5,0.7-0.9,0.7c-0.2,0.1-0.4,0.1-0.7,0c-0.6-0.1-1.1-0.1-1.6-0.2
				c-0.5-0.1-1-0.1-1.5-0.1h-1.5c-0.3,0-0.5,0-0.8,0c-0.3,0-0.6,0-0.9,0.1v3.8c0,0.5,0,1-0.1,1.4c0,0.4-0.1,1-0.1,1.9
				c0,0.8-0.1,1.7-0.1,2.5c0,0.9-0.1,1.7-0.2,2.5c0,0.2-0.1,0.4-0.1,0.6c0,0.2-0.1,0.4-0.2,0.5c-0.3,0.6-0.8,0.8-1.5,0.7
				c-0.2,0-0.4-0.1-0.7-0.3c-0.3-0.1-0.5-0.3-0.6-0.4c-0.2-0.3-0.3-0.6-0.3-1s0-0.8,0.1-1.3l0.2-2.4c0.1-0.4,0.1-1,0.2-1.8
				c0.1-0.8,0.1-1.4,0.1-1.8v-1.7c0-0.3,0-0.5,0-0.8c0-0.2,0-0.6,0-1c-0.1-1.7-0.1-3.3-0.2-4.7c-0.1-1.5-0.2-3-0.4-4.6l-0.6-4.9
				c-0.1-0.5-0.2-1.1-0.3-1.7c-0.1-0.6,0.1-1,0.5-1.2c0.1-0.1,0.4-0.1,0.7-0.1s0.6,0.1,0.8,0.2c0.4,0.2,0.7,0.6,0.9,1.1
				c0.2,0.5,0.4,1.1,0.6,1.7c0.1,0.4,0.2,0.8,0.3,1.1c0.1,0.3,0.1,0.6,0.1,0.9s0,0.6,0.1,0.9c0,0.3,0.1,0.7,0.2,1.2
				c0.1,0.7,0.2,1.6,0.3,2.5C389.4,95.8,389.5,96.7,389.6,97.4z"/>
			<path d="M417.6,95.7c0.2,0.2,0.4,0.4,0.6,0.6c0.2,0.2,0.5,0.4,0.6,0.6c0.2,0.2,0.4,0.4,0.6,0.6c0.2,0.2,0.5,0.5,0.8,0.8l1.6,1.6
				c0.1,0.1,0.2,0.2,0.4,0.4c0.2,0.2,0.3,0.4,0.5,0.6c0.2,0.2,0.4,0.4,0.5,0.7s0.3,0.4,0.3,0.4c0.3,0.4,0.4,1,0.3,1.5
				c-0.1,0.2-0.3,0.4-0.6,0.7c-0.3,0.2-0.6,0.3-0.9,0.2c-0.4,0-0.7-0.2-1-0.6l-1.1-1.1l-1-1c-0.4-0.4-0.7-0.7-1-0.9
				c-0.3-0.2-0.6-0.5-1.1-0.9c-0.3-0.2-0.5-0.4-0.8-0.7c-0.3-0.3-0.5-0.5-0.8-0.7c-0.2,0.3-0.5,0.6-0.7,0.9c-0.2,0.3-0.5,0.6-0.9,1
				c-0.4,0.4-0.8,0.8-1.1,1.1c-0.3,0.3-0.6,0.6-0.8,0.8l-0.7,0.7l-1,0.8l-1.1,0.9c-1.1,0.7-1.9,0.5-2.6-0.6
				c-0.3-0.4-0.4-0.8-0.3-1.1c0-0.3,0.2-0.6,0.4-0.9c0.3-0.3,0.6-0.5,0.9-0.7s0.5-0.4,0.8-0.6l1.3-1.2l1.3-1.3
				c0.3-0.4,0.8-1,1.3-1.7c0.6-0.7,1-1.4,1.5-2l0.8-1.2c0.4-0.6,0.7-1.2,0.9-1.6c0.2-0.4,0.4-1,0.6-1.7c0.2-0.5,0.3-1,0.4-1.5
				c0.1-0.4,0.1-0.9,0.3-1.5c0-0.1,0.1-0.3,0.3-0.3c0.2-0.1,0.4-0.1,0.6-0.1s0.4,0,0.6,0.1c0.2,0,0.4,0.1,0.5,0.1
				c0.4,0.2,0.7,0.5,0.9,0.8c0.2,0.4,0.3,0.7,0.3,1.1c-0.1,0.7-0.2,1.5-0.4,2.1c-0.2,0.7-0.4,1.3-0.6,1.9c-0.1,0.3-0.3,0.6-0.5,1
				c-0.2,0.4-0.4,0.8-0.6,1.1L417.6,95.7z M431.6,92.1c0-0.7-0.1-1.4-0.1-1.9c0-0.5-0.1-1.1-0.1-1.9l-0.3-2.6
				c-0.1-0.7-0.1-1.3-0.1-1.7c0.1-0.4,0.4-0.7,1-0.9c0.8,0,1.4,0.4,1.8,1.3c0.1,0.2,0.2,0.5,0.3,1c0.1,0.5,0.1,1,0.2,1.5
				c0.1,0.5,0.1,1.1,0.1,1.6c0,0.5,0.1,0.9,0.1,1.1l0.2,4.2c0,0.5,0.1,1.1,0.1,1.8c0,0.7,0,1.4-0.1,2.2c-0.1,0.7-0.1,1.5-0.2,2.2
				c-0.1,0.7-0.1,1.3-0.2,1.7c-0.1,0.5-0.2,1.2-0.3,1.9c-0.1,0.7-0.3,1.4-0.4,2.1c-0.1,0.9-0.7,1.3-1.6,1.3c-0.3,0-0.7-0.2-1-0.5
				c-0.4-0.3-0.5-0.6-0.4-0.9c0,0.1,0.1-0.3,0.2-1c0.1-0.8,0.3-1.6,0.4-2.6c0.1-0.6,0.1-1.2,0.2-1.8c0.1-0.6,0.1-1.1,0.1-1.5
				l0.2-2.2c-0.7,0.1-1.5,0.1-2.2,0.2c-0.7,0.1-1.6,0.2-2.6,0.3c-0.2,0-0.4,0.1-0.8,0.1c-0.3,0-0.7,0.1-1,0.1c-0.4,0-0.7,0-1,0.1
				c-0.3,0-0.6,0.1-0.8,0.1c-0.6,0.1-0.9,0-1.1-0.2c-0.2-0.2-0.3-0.4-0.4-0.8c0-0.1-0.1-0.4-0.1-0.8s0-0.8,0-1
				c0.1-0.3,0.3-0.5,0.6-0.6s0.5-0.1,0.6-0.1c0.5,0,1-0.1,1.5-0.1c0.5,0,1-0.1,1.6-0.1c1.2-0.1,2.2-0.2,3.1-0.3
				c0.9-0.1,1.8-0.2,2.8-0.4v-0.4C431.5,92.4,431.5,92.2,431.6,92.1z M422.6,108.2c0.3-0.1,0.6-0.1,0.8-0.1c0.2,0,0.5-0.1,0.7-0.1
				c0.5-0.1,1-0.3,1.4-0.4c0.4-0.1,0.9-0.2,1.5-0.2c0.7-0.1,1.4,0,2,0.2c0.7,0.2,1.3,0.6,1.9,1c0.6,0.4,1.1,1,1.5,1.7
				c0.4,0.7,0.7,1.5,0.7,2.3c0.1,1.3-0.1,2.6-0.8,3.6c-0.3,0.4-0.6,0.8-1,1.1s-0.8,0.5-1.3,0.7c-0.9,0.4-1.8,0.6-3,0.6
				c-1.2,0-2.1-0.4-2.9-1.2c-1-1.1-1.7-2.3-2-3.6s-0.4-2.7-0.2-4.2c0-0.3,0.1-0.6,0.2-0.8S422.5,108.3,422.6,108.2z M424.9,112.9
				c0,0.4,0,0.7,0.1,1c0.1,0.2,0.2,0.5,0.3,0.8c0.2,0.5,0.6,0.8,1.1,0.8c0.6,0.1,1.2,0,1.8-0.3c0.6-0.2,1.1-0.6,1.5-1
				c0.4-0.6,0.7-1.3,0.7-2.2c0-0.2-0.1-0.5-0.2-0.7s-0.3-0.4-0.4-0.5c-0.1-0.1-0.2-0.1-0.3-0.1c-0.1,0-0.2,0-0.3-0.1
				c-0.5-0.1-1-0.2-1.4-0.2c-0.4,0-0.9,0.1-1.4,0.3c-0.7,0.3-1.1,0.6-1.3,0.8C425,111.6,424.9,112.1,424.9,112.9z"/>
			<path d="M450,104.4c0.2,0.3,0.3,0.5,0.3,0.7c0.1,0.6,0.2,1.3,0.1,2.2s0,1.8,0,2.7v1.8c0,0.2,0,0.4,0,0.7c0,0.3,0,0.6-0.1,1.1
				c-0.1,1.6-0.2,3.1-0.3,4.4c0,0.3-0.3,0.5-0.8,0.6c-0.5,0.1-1,0-1.3-0.2c-0.4-0.2-0.6-0.5-0.7-0.9c0-0.4-0.1-0.8-0.1-1.3l0.2-7.7
				v-1.6c0-0.3,0-0.5,0-0.8s0-0.5-0.1-0.8c0-0.5-0.4-0.8-1.1-0.8l-3.5,0.2c-0.7,0.1-1.4,0.2-2.1,0.3c-0.7,0.1-1.4,0.2-2.2,0.2
				c-1.1,0.2-1.8,0.1-2.2-0.3c-0.4-0.4-0.7-0.9-0.9-1.7c-0.3-0.9,0-1.4,0.8-1.5c1.3,0,2.5-0.1,3.7-0.3c1.2-0.1,2.4-0.2,3.8-0.3
				c1.4-0.1,2.8-0.1,4.1-0.1c1.4,0,2.8,0,4.2-0.1c0.9,0,1.7,0,2.4,0c0.7,0,1.5,0.1,2.4,0.1l1.5,0.1c0.5,0,0.9,0.2,1.1,0.5
				c0.3,0.3,0.5,0.6,0.6,0.9c0.1,0.3,0.2,0.6,0.2,0.9c0,0.3-0.1,0.5-0.2,0.7c-0.1,0.2-0.3,0.3-0.4,0.3s-0.3,0-0.5,0
				c-0.3,0-0.6-0.1-0.9-0.1c-0.3,0-0.6,0-0.8,0h-1.7c-0.7,0-1.3-0.1-1.8-0.1s-1.1,0-1.9,0c-0.1,0-0.4,0-0.8,0S450.2,104.4,450,104.4
				z M445.3,83.2c0.4,0,0.8-0.1,1.1-0.1c0.3-0.1,0.7-0.1,1,0s0.8,0.1,1.3,0.2s0.9,0.3,1.2,0.4c1,0.5,1.8,1.1,2.5,1.9
				c0.7,0.7,1.2,1.6,1.6,2.5c0.6,1.3,0.8,2.5,0.5,3.7c-0.3,1.2-0.8,2.3-1.6,3.3c-0.3,0.4-0.7,0.7-1.3,1c-0.6,0.3-1.1,0.4-1.6,0.6
				c-1.6,0.4-3.2,0.5-4.8,0.2c-0.5-0.1-0.9-0.3-1.4-0.4c-0.4-0.1-0.9-0.4-1.3-0.7c-0.3-0.3-0.6-0.5-0.8-0.8
				c-0.2-0.2-0.5-0.5-0.6-0.8c-0.8-1.4-1.2-3.1-1.1-4.9c0.1-1.8,0.7-3.6,2-5.1c0.4-0.4,0.9-0.7,1.6-0.7
				C444.2,83.2,444.7,83.2,445.3,83.2z M448.4,93.4c0.6-0.1,1.2-0.3,1.6-0.7c0.4-0.4,0.8-0.8,1.1-1.3c0.2-0.4,0.3-1,0.3-1.6
				s-0.1-1.2-0.5-1.7c-0.3-0.3-0.6-0.5-0.9-0.7s-0.6-0.3-1-0.5c-0.1,0-0.3-0.1-0.5-0.1c-0.2,0-0.4-0.1-0.7-0.1
				c-0.2-0.1-0.4-0.1-0.6-0.1c-0.2,0-0.3-0.1-0.4-0.1c-0.3,0-0.7,0-1.2,0.1c-0.5,0.1-0.9,0.3-1.1,0.5c-0.5,0.4-0.9,1-1.1,1.7
				c-0.2,0.7-0.3,1.5-0.2,2.1c0.1,0.4,0.2,0.8,0.5,1.1s0.5,0.5,0.8,0.7c0.4,0.3,1,0.6,1.7,0.7C447,93.6,447.7,93.6,448.4,93.4z"/>
			<path d="M467.8,107.3c-0.4,0-0.8,0.1-1,0.1c-0.3,0-0.5,0.1-0.8,0.1c-0.2,0.1-0.5,0.1-0.8,0.1c-0.3,0-0.6,0.1-1,0.1
				c-0.6,0.1-1.3,0.2-1.8,0.3c-0.6,0.1-1.2,0.2-1.7,0.3c-0.5,0.1-1,0-1.3-0.1c-0.4-0.1-0.7-0.5-0.8-1c-0.1-0.3-0.1-0.7,0-1.2
				c0.1-0.4,0.4-0.7,0.9-0.9c0.5-0.1,1-0.3,1.5-0.3c0.5-0.1,1-0.1,1.5-0.2c1-0.1,2-0.2,3-0.4c0.9-0.1,1.9-0.3,2.9-0.4
				c0.1,0,0.3,0,0.7-0.1c0.4,0,0.8-0.1,1.3-0.1c0.5,0,0.9-0.1,1.3-0.1c0.4,0,0.6-0.1,0.8-0.1h1.7c0.1,0,0.2,0,0.3,0
				c0.1,0,0.3,0,0.5,0.1h0.8c0.3,0,0.5,0,0.8,0.1c1.2,0.4,1.8,1,1.8,1.8c0,0.3-0.1,0.6-0.3,0.9c-0.2,0.3-0.4,0.5-0.7,0.4H476
				c-0.2,0-0.5,0-0.9,0s-0.7,0-0.9,0c-0.4,0-0.9,0-1.5,0c-0.6,0-1.2,0-1.9,0.1c-0.6,0-1.2,0.1-1.8,0.2
				C468.5,107.2,468,107.2,467.8,107.3z M472.8,89.8c0.3,0.3,0.6,0.7,0.8,1.2c0.2,0.5,0.4,0.9,0.6,1.4c0.3,0.7,0.4,1.5,0.4,2.4
				c0,0.8-0.2,1.6-0.6,2.4c-0.2,0.4-0.5,0.7-0.9,1.1c-0.4,0.4-0.8,0.6-1.4,0.8c-0.9,0.3-1.7,0.6-2.4,0.8c-0.7,0.2-1.6,0.2-2.6,0.2
				c-1.2-0.1-2.2-0.3-3.1-0.8c-0.9-0.4-1.5-1.2-2-2.2c-0.5-1-0.7-2.2-0.7-3.5c0-0.4,0.1-0.8,0.2-1.1c0.1-0.3,0.3-0.7,0.4-1.1
				c0.4-0.7,0.8-1.4,1.3-2c0.4-0.6,1.1-1.1,1.9-1.5c0.5-0.3,1-0.5,1.5-0.5s1.1-0.1,1.7,0c0.3,0,0.6,0.1,1,0.2
				c0.4,0.1,0.9,0.3,1.4,0.6s0.9,0.5,1.4,0.8C472.2,89.2,472.5,89.5,472.8,89.8z M469.9,96.3c0.9-0.4,1.4-1,1.6-1.6
				c0.3-0.8,0.2-1.5-0.2-2.2c-0.2-0.4-0.4-0.7-0.6-0.9c-0.2-0.2-0.5-0.4-0.8-0.5c-0.9-0.4-1.6-0.5-2.4-0.4c-0.7,0.1-1.3,0.3-1.7,0.7
				c-0.6,0.6-1.1,1.1-1.3,1.6c-0.1,0.3-0.2,0.6-0.3,1.1c-0.1,0.5-0.1,0.9-0.1,1.2c0,0.3,0.1,0.5,0.3,0.8s0.4,0.5,0.8,0.6
				c0.7,0.2,1.5,0.2,2.4,0.1C468.6,96.8,469.4,96.6,469.9,96.3z M480,99.8c0-0.2,0.1-0.4,0.1-0.6c0-0.2,0-0.4,0-0.6v-1.2
				c0-0.9,0-1.9,0-3c0-1.2-0.1-2.2-0.1-3c0-0.7-0.1-1.5-0.3-2.2c-0.2-0.7-0.4-1.5-0.7-2.2c-0.1-0.3-0.1-0.6-0.1-1s0.2-0.8,0.6-1.1
				c0.2-0.3,0.6-0.4,1.1-0.4c0.5,0,0.8,0.2,1.1,0.8c0.3,0.6,0.5,1.1,0.7,1.6c0.2,0.5,0.4,1,0.5,1.6c0.2,0.6,0.2,1.1,0.3,1.7
				c0.1,0.9,0.1,2,0.2,3.2c0.1,1.2,0.1,2.3,0.1,3.2c0,0.2,0,0.5,0,0.9c0,0.4,0,0.8,0,1.3s0,0.9,0,1.3c0,0.4,0,0.7,0,0.9l-0.3,7.9
				c0,0.6-0.1,1.2-0.2,1.6c-0.1,0.4-0.2,1-0.3,1.6c0,0.2-0.1,0.4-0.1,0.5s-0.1,0.3-0.2,0.5c-0.1,0.3-0.4,0.5-0.9,0.6
				c-0.5,0.1-1,0-1.5-0.2c-0.2-0.1-0.4-0.4-0.5-0.7c-0.1-0.3-0.1-0.6,0-0.9c0-0.6,0.1-1.2,0.2-1.8c0.1-0.6,0.1-1,0.1-1.2
				c0-0.4,0.1-0.9,0.1-1.5c0-0.5,0.1-1,0.1-1.5c0-0.5,0-0.9,0.1-1.3s0-0.6,0-0.8L480,99.8z"/>
		</g>
		<g class="st2">
			<path d="M196.2,158.9c0.1,0.3,0.1,0.5,0.1,0.8c0,0.3,0,0.5,0,0.7c0,0.4-0.1,0.7-0.1,0.9c0,0.2-0.1,0.5-0.2,0.9
				c-0.1,0.4-0.2,0.8-0.3,1.1c-0.1,0.3-0.3,0.7-0.4,1.1L195,165c0.1,0,0.4,0,0.6,0c0.3,0,0.5,0,0.6,0c0.8-0.1,1.7-0.1,2.9-0.1
				c1.1,0,2.1,0,2.9-0.1c0.3,0,0.7,0,1,0.1c0.4,0.1,0.7,0.1,1.1,0.2c0.3,0.1,0.7,0.2,1,0.3c0.4,0.2,0.6,0.3,0.9,0.6
				c0.1,0.1,0.3,0.4,0.3,0.8c0.1,0.4,0,0.7-0.1,0.9c-0.2,0.4-0.5,0.5-1,0.4c-0.4-0.1-0.8-0.1-1.2-0.1s-0.8,0-1.2-0.1
				c-0.4,0-1,0-1.5,0s-1.1,0-1.7,0c-0.6,0-1.2,0-1.7,0.1s-1,0-1.5,0.1c-0.6,0.1-1.5,0.2-2.5,0.3c-1,0.1-1.8,0.3-2.5,0.5l-4.6,1
				c-0.9,0.3-1.5,0.1-2-0.7c-0.1-0.1-0.1-0.2-0.2-0.3c0-0.1-0.1-0.2-0.2-0.4c-0.1-0.2-0.1-0.5-0.1-0.7c0-0.3,0.2-0.4,0.4-0.6
				c0.4-0.2,1-0.3,1.8-0.5c0.9-0.1,1.6-0.3,2.4-0.5l0.8-0.3c0.4-0.1,0.7-0.3,0.9-0.4c0.2-0.1,0.4-0.3,0.6-0.6c0.4-0.7,0.8-1.2,1-1.7
				c0.2-0.5,0.5-1.2,0.7-2c0.1-0.3,0.1-0.6,0.2-0.8c0.1-0.3,0.1-0.5,0-0.8c-0.9,0.1-1.6,0.2-2.3,0.3c-0.7,0.1-1.3,0.1-1.9,0
				c-1.1,0-1.8-0.4-2.3-1.1c-0.4-0.7-0.6-1.6-0.6-2.7c0-0.3,0-0.7-0.1-1.2c0-0.5-0.1-1.1-0.1-1.6c0-0.5-0.1-1-0.1-1.5
				c0-0.5-0.1-0.8-0.1-1c-0.1-0.9-0.2-1.6-0.3-1.9c-0.1-0.4-0.2-0.8-0.3-1.2c-0.1-0.5-0.2-1-0.3-1.3c-0.1-0.4-0.2-0.8-0.3-1.2
				c-0.1-0.5,0-0.9,0.6-1c0.5-0.2,1.1-0.1,1.7,0.1c0.4,0.3,0.6,0.6,0.8,0.9c0.1,0.3,0.3,0.7,0.4,1.1l0.4,2c0.1,0.4,0.1,0.6,0.2,0.8
				c0,0.1,0.1,0.5,0.2,1c0.4-0.1,0.7-0.1,0.9-0.2c0.2-0.1,0.5-0.1,0.9-0.1c0.5-0.1,0.9-0.2,1.3-0.3c0.4-0.1,0.7-0.1,1.1-0.2
				c0.4-0.1,0.7-0.1,1.1-0.1c0.4,0,0.9-0.1,1.5-0.2c0.7-0.1,1.4-0.2,2.2-0.2h1.2c0.1-0.2,0.1-0.3,0.1-0.4c0-0.1,0-0.1,0-0.3
				c0-0.9,0-1.5-0.1-2.1c-0.1-0.5-0.2-1.1-0.3-1.7c-0.1-0.5-0.3-1.1-0.3-1.8c0-0.2,0.1-0.3,0.3-0.4c0.2-0.1,0.4-0.2,0.6-0.2
				c0.2,0,0.4,0,0.7,0c0.2,0,0.4,0.1,0.4,0.1c0.4,0.2,0.7,0.6,0.8,1c0.1,0.4,0.3,0.9,0.4,1.3c0.1,0.4,0.2,1.1,0.2,1.8
				c0,0.8,0.1,1.4,0.1,1.8c0,0.3,0,0.8,0,1.4c0,0.6,0,1.3-0.1,1.9c0,0.7-0.1,1.3-0.2,1.9c-0.1,0.6-0.1,1.1-0.2,1.3
				c0,0.3-0.1,0.7-0.2,1.1c-0.1,0.4-0.2,0.8-0.3,1.1c-0.3,0.5-0.5,0.9-0.7,1.1c-0.2,0.2-0.5,0.4-0.8,0.6c-0.3,0.1-0.6,0.2-0.9,0.3
				c-0.3,0.1-0.7,0.1-1.2,0.3L196.2,158.9z M198.7,151.4c-0.2,0-0.4,0-0.5,0c-0.2,0-0.3,0-0.5,0.1c-0.9,0.1-1.6,0.2-2.3,0.3
				c-0.7,0.1-1.4,0.3-2.2,0.4c-0.5,0.1-0.9,0.3-1.3,0.3c-0.4,0.1-0.8,0.1-1.2,0.2c-0.4,0.1-0.8,0-1-0.1c-0.3-0.2-0.5-0.3-0.5-0.4
				c0.1,0.4,0.1,0.7,0.2,1c0,0.3,0.1,0.5,0.1,0.8c0,0.2,0,0.5,0.1,0.8c0,0.3,0,0.6,0.1,1c0,0.4,0.1,0.6,0.3,0.7
				c0.2,0.1,0.5,0.1,0.8,0.1c0.4,0,0.8-0.1,1.1-0.1c0.3,0,0.6-0.1,0.8-0.2l2.1-0.5c0.5-0.1,1-0.2,1.6-0.3c0.6-0.1,1.1-0.1,1.4,0
				c0.5-0.5,0.8-1.1,1-1.8C198.6,153.2,198.6,152.4,198.7,151.4z"/>
			<path d="M218.7,156.5c-0.1,0.4-0.2,0.9-0.3,1.4c-0.1,0.5-0.4,1-0.6,1.4c-0.3,0.5-0.6,0.9-1,1.1c-0.3,0.3-0.7,0.5-1.2,0.8
				c-1.1,0.4-2.2,0.6-3.2,0.6c-0.9,0-1.8-0.1-2.7-0.4c-0.9-0.3-1.7-0.8-2.4-1.5c-0.5-0.6-0.9-1.2-1.2-1.8c-0.3-0.6-0.5-1.2-0.7-1.9
				c0-0.2-0.1-0.4-0.1-0.8c-0.1-0.3-0.1-0.6-0.2-1c-0.1-0.3-0.1-0.6-0.2-0.9c-0.1-0.3-0.1-0.5-0.1-0.5c-0.1-0.2-0.2-0.4-0.2-0.8
				c0-0.3,0-0.7,0-1c0.1-0.4,0.1-0.7,0.2-1c0.1-0.3,0.2-0.5,0.4-0.7c0.3-0.3,0.4-0.5,0.5-0.5c0.1-0.1,0.3-0.2,0.6-0.4
				c1-0.4,1.9-0.7,2.7-1c0.8-0.2,1.8-0.3,3-0.1c0.4,0.1,1,0.2,1.6,0.4c0.6,0.2,1.1,0.4,1.5,0.7c1.3,1,2.3,2.1,2.9,3.2
				C218.5,153.3,218.8,154.7,218.7,156.5z M208,153.8c0.1,0.6,0.2,1.1,0.3,1.7c0.1,0.5,0.3,1.1,0.6,1.6c0.6,0.9,1.5,1.4,2.6,1.4
				c0.4,0.1,0.8,0.1,1.1,0c0.4-0.1,0.7-0.2,1.1-0.4c0.7-0.4,1.3-0.9,1.5-1.6c0.3-0.7,0.4-1.4,0.3-2.2c0-0.7-0.3-1.3-0.8-1.9
				c-0.5-0.5-1.1-0.9-1.8-1.1c-0.9-0.3-1.6-0.4-2.3-0.3c-0.7,0.1-1.3,0.3-1.9,0.6c-0.4,0.1-0.6,0.4-0.8,0.8
				C207.9,152.9,207.9,153.3,208,153.8z M226.8,143.5c0.1,0.6,0.3,1,0.4,1.4c0.1,0.4,0.2,0.7,0.2,1c0.1,0.3,0.1,0.7,0.2,1
				c0.1,0.4,0.2,0.8,0.3,1.4c0.1,0.4,0.1,0.7,0.2,1c0,0.3,0.1,0.6,0.1,1c0,0.4,0,0.8,0.1,1.2c0,0.5,0.1,1,0.1,1.7
				c0.1,1.5,0.1,2.9,0,4.2c-0.1,1.4-0.2,2.7-0.3,4l-0.2,1.1c-0.1,0.6-0.2,1.3-0.3,2.1c-0.1,0.7-0.3,1.3-0.4,1.7
				c-0.1,0.4-0.2,0.9-0.3,1.4c-0.1,0.5-0.3,1-0.6,1.5c-0.2,0.4-0.5,0.6-0.8,0.7c-0.3,0-0.7,0-1.1-0.1c-0.4-0.1-0.7-0.3-1-0.8
				c-0.3-0.5-0.3-0.9-0.1-1.4c0.3-0.7,0.5-1.5,0.6-2.1c0.1-0.7,0.3-1.4,0.5-2.2c0.1-0.7,0.2-1.3,0.3-1.9c0.1-0.5,0.1-1.1,0.2-1.6
				c0-0.5,0.1-1.1,0.1-1.6c0-0.5,0.1-1.2,0.1-1.9c0-0.6,0-1.1,0-1.4c0-0.4,0-0.7,0-1s0-0.6,0-0.9c0-0.3,0-0.8-0.1-1.4
				c-0.1-1.1-0.2-2.3-0.3-3.5c-0.1-1.3-0.4-2.3-0.6-3.2c-0.1-0.4-0.2-0.6-0.3-0.8s-0.1-0.3-0.1-0.5c0-0.1-0.1-0.3-0.1-0.5
				c0-0.2-0.1-0.4-0.2-0.8c-0.1-0.1-0.1-0.3,0.1-0.6c0.1-0.2,0.3-0.4,0.5-0.6c0.2-0.1,0.5-0.2,0.8-0.3c0.3,0,0.6,0.1,1,0.4
				C226.1,141.8,226.5,142.6,226.8,143.5z"/>
			<path d="M252.4,167.7c-0.2,0.3-0.5,0.5-0.8,0.5c-0.4,0-0.7-0.1-1.1-0.1l-1.2-0.2c-0.7-0.1-1.5-0.3-2.6-0.3
				c-1.1-0.1-2.2-0.1-3.4-0.1c-1.2,0-2.3,0-3.4,0c-1.1,0-2,0.1-2.7,0.2c-0.9,0.1-1.8,0.2-2.9,0.3c-1.1,0.1-2.1,0.3-2.9,0.4l-0.6,0.1
				c-0.9,0.2-1.5-0.2-1.7-1.1c-0.1-0.2-0.1-0.4-0.1-0.7c0-0.2,0-0.4-0.1-0.6c-0.2-0.6,0-0.9,0.6-0.9c0.6-0.1,1.4-0.2,2.2-0.3
				c0.8-0.1,1.5-0.2,2.2-0.3c0.5-0.1,1.1-0.1,2-0.2c0.8-0.1,1.7-0.1,2.7-0.2c0.9-0.1,1.8-0.1,2.7-0.1c0.8,0,1.5,0,2,0
				c0.4,0,1,0,1.7,0.1c0.7,0,1.4,0.1,2.1,0.2c0.7,0.1,1.4,0.2,2.1,0.3c0.7,0.1,1.3,0.2,1.7,0.3c0.2,0.1,0.5,0.2,0.8,0.4
				c0.3,0.2,0.5,0.4,0.7,0.7c0.2,0.3,0.3,0.6,0.4,0.9S252.6,167.4,252.4,167.7z M230.8,156.4c0.7-0.7,1.5-1.5,2.3-2.4
				c0.8-0.9,1.6-1.9,2.3-2.9c0.6-0.7,1.1-1.3,1.4-1.8c0.3-0.5,0.7-1,1.1-1.7c0.3-0.4,0.5-0.7,0.6-1s0.3-0.6,0.6-1.1
				c0.2-0.4,0.4-0.8,0.5-1.3c0.1-0.4,0.3-0.9,0.5-1.3c0.2-0.4,0.5-0.5,1-0.3c0.4,0.2,0.8,0.4,1.3,0.7c0.3,0.2,0.5,0.5,0.6,0.9
				c0,0.4,0,0.7-0.1,1.1c-0.1,0.6-0.3,1-0.4,1.5s-0.3,0.9-0.6,1.4l-0.4,0.8c0.5,0.4,1,0.7,1.4,1.1c0.4,0.3,0.9,0.7,1.4,1.1
				c0.6,0.5,1.2,1,1.7,1.4c0.5,0.4,1,0.8,1.6,1.4c0.4,0.3,0.7,0.7,1,1s0.6,0.7,0.9,1.1c0.3,0.4,0.4,0.8,0.3,1.4
				c0,0.2-0.2,0.4-0.4,0.6c-0.2,0.2-0.4,0.3-0.7,0.3c-0.1,0-0.3,0-0.4,0c-0.1,0-0.3-0.1-0.6-0.3c-0.2-0.1-0.5-0.3-1-0.8
				c-0.5-0.4-1-0.9-1.5-1.3c-0.8-0.6-1.5-1.2-2-1.7c-0.5-0.5-1.2-0.9-2-1.4c-0.2-0.1-0.4-0.3-0.6-0.4c-0.2-0.2-0.6-0.4-1.1-0.7
				c-0.1,0-0.2,0.2-0.4,0.4c-0.2,0.2-0.3,0.4-0.4,0.5c-0.5,0.6-1,1.3-1.5,1.8c-0.4,0.6-1,1.3-1.6,2c-0.4,0.5-0.8,0.9-1.1,1.2
				c-0.3,0.3-0.7,0.7-1.2,1.1c-0.4,0.4-0.8,0.5-1.2,0.4c-0.4-0.1-0.8-0.3-1.1-0.6c-0.4-0.3-0.6-0.7-0.6-1.2
				C230.3,157.1,230.4,156.8,230.8,156.4z"/>
			<path d="M265,158.3c-0.6,0.1-1.2,0.1-1.8,0.2c-0.6,0-1.2,0.1-1.8,0.2c-1.1,0.1-2.2,0.3-3.2,0.4c-1.1,0.1-2.1,0.3-3,0.5l-1.7,0.3
				c-0.6,0.1-1.1-0.1-1.3-0.7c-0.1-0.1-0.2-0.4-0.3-0.7c-0.1-0.3-0.1-0.6-0.2-0.9c0-0.3,0-0.5,0.1-0.8c0.1-0.2,0.2-0.4,0.4-0.4
				c1.6-0.3,3.1-0.5,4.6-0.6c1.5-0.1,3-0.3,4.6-0.5c2.2-0.3,4.5-0.4,6.7-0.4c2.2,0,4.5,0,6.7-0.1c1.5,0,2.3,0.8,2.4,2.4
				c0,0.2,0,0.4-0.1,0.7c-0.2,0.2-0.5,0.2-1,0.2c-0.5,0-1,0-1.4,0c-0.2,0-0.8,0-1.7,0c-0.9,0-1.8,0-2.9,0.1c-1.1,0-2.1,0-3.1,0.1
				C266,158.2,265.4,158.2,265,158.3z M262.1,152.4c-0.2,0-0.5,0.1-0.8,0.1c-0.4,0-0.7,0-0.9,0c-1.1,0-1.9-0.3-2.4-1.1
				c-0.3-0.4-0.4-0.9-0.5-1.4c-0.1-0.5-0.1-1-0.1-1.5v-1.2c0-0.2,0-0.4,0-0.6c0-0.2,0-0.4,0.1-0.6l0.4-2.3c0.1-0.5,0.3-0.8,0.5-0.9
				c0.2-0.1,0.6-0.2,1.1-0.3c1.1-0.3,2.2-0.7,3.2-1.1c1-0.4,1.9-1.1,2.7-2c0.1-0.2,0.3-0.4,0.3-0.6c0.1-0.2-0.1-0.4-0.4-0.6
				c-0.9-0.4-1.7-0.6-2.5-0.5c-0.8,0-1.6,0.2-2.4,0.4c-0.9,0.3-1.5,0.2-1.7-0.5c-0.1-0.3-0.2-0.6-0.3-0.9c-0.1-0.3-0.1-0.7-0.1-1.1
				c0.6-0.4,1.1-0.7,1.5-0.8c0.4-0.1,1-0.2,1.7-0.2c0.9-0.1,1.9,0,3,0.4c1.1,0.3,1.9,0.8,2.5,1.4c0.8,0.8,1.3,1.5,1.6,2.3
				c0.1,0.4,0.2,0.9,0,1.6c-0.1,0.6-0.3,1.1-0.6,1.3c-0.3,0.3-0.5,0.6-0.8,0.8c-0.2,0.2-0.5,0.5-0.8,0.6c-0.7,0.5-1.4,0.9-2.2,1.2
				c-0.8,0.3-1.6,0.6-2.4,0.9l-1.1,0.3c0,0.1-0.1,0.2-0.1,0.5c0,0.2-0.1,0.5-0.1,0.8c0,0.3-0.1,0.5-0.1,0.8c0,0.2,0,0.4,0,0.5
				c0,0.3,0.1,0.5,0.2,0.7c0.1,0.2,0.3,0.3,0.7,0.3c0.1,0,0.4,0,0.6-0.1c0.3,0,0.6-0.1,0.8-0.1c0.3-0.1,0.5-0.1,0.8-0.2
				c0.2-0.1,0.4-0.1,0.5-0.1c0.1,0,0.5-0.1,1-0.2c0.6-0.1,1.2-0.2,1.9-0.4c0.7-0.1,1.3-0.3,1.9-0.4c0.6-0.1,0.9-0.2,1-0.2
				c0.5,0,0.9,0.3,1.2,0.8c0.2,0.4,0.3,0.8,0.2,1.3c-0.1,0.5-0.4,0.8-0.8,1c-0.3,0.1-0.8,0.3-1.4,0.4c-0.6,0.1-1.2,0.3-1.8,0.4
				c-0.6,0.1-1.2,0.2-1.8,0.3c-0.6,0.1-1,0.2-1.3,0.3L262.1,152.4z M262.7,169.1c0.7-0.2,1.4-0.4,1.9-0.6c0.5-0.2,1.1-0.4,1.6-0.7
				l0.6-0.3l0.5-0.4c0.7-0.9,0.7-1.5-0.3-1.7c-0.9-0.2-1.5-0.3-2-0.4c-0.5,0-1,0-1.5,0c-0.2,0-0.4,0-0.7,0.1
				c-0.3,0.1-0.5,0.1-0.7,0.1c-0.7,0-1.2-0.1-1.5-0.4c-0.2-0.3-0.3-0.6-0.3-1v-0.4c0-0.3,0-0.6,0.1-0.9c0-0.3,0.1-0.5,0.2-0.6
				c0.1-0.1,0.2-0.1,0.4-0.1c0.1,0,0.3,0,0.4-0.1c0.4-0.1,1-0.2,1.8-0.2c0.7,0,1.3,0,1.8,0c0.3,0,0.7,0.1,1,0.1
				c0.3,0.1,0.6,0.1,1,0.2c1.3,0.4,2.4,1.2,3,2.2c0.5,0.8,0.8,1.7,0.8,2.6c0,1-0.3,1.8-0.7,2.5c-0.4,0.6-0.8,1-1.3,1.2
				c-0.4,0.3-1,0.6-1.8,1c-0.1,0.1-0.3,0.1-0.4,0.2c-0.1,0.1-0.3,0.1-0.4,0.2L265,172c-0.3,0.1-0.6,0.2-0.8,0.3
				c-0.2,0.1-0.5,0.1-0.8,0.2c0,0.4,0,0.9,0.1,1.4c0.1,0.5,0.2,0.9,0.4,1.2c0,0.3,0.3,0.4,0.8,0.4c0.2,0,0.4,0,0.7,0
				c0.3,0,0.6-0.1,1-0.2c0.6-0.2,1.3-0.4,2-0.7c0.7-0.3,1.4-0.6,2.1-0.9c0.4-0.2,0.8-0.4,1.1-0.6c0.3-0.2,0.7-0.4,1.1-0.6
				c0.4-0.1,0.6-0.2,0.8-0.2c0.2,0,0.4,0.1,0.5,0.4s0.3,0.5,0.3,0.7c0.1,0.3,0.1,0.6,0,1c-0.1,0.4-0.3,0.7-0.4,0.8
				c-0.4,0.3-0.9,0.7-1.5,1c-0.6,0.4-1.1,0.6-1.7,0.9c-0.9,0.3-1.7,0.6-2.4,0.9c-0.7,0.3-1.5,0.5-2.4,0.7c-0.1,0-0.3,0.1-0.6,0.1
				c-0.3,0-0.5,0-0.6,0.1c-1,0-1.7-0.1-2.3-0.4c-0.5-0.3-1-0.8-1.3-1.5c-0.1-0.1-0.1-0.4-0.2-0.7c-0.1-0.3-0.1-0.6-0.2-1
				c-0.1-0.3-0.1-0.7-0.2-1s-0.1-0.5-0.1-0.7c0-0.3-0.1-0.7-0.2-1.1c-0.1-0.4-0.2-0.9-0.2-1.3c0-0.4,0.1-0.8,0.3-1.2
				c0.2-0.4,0.5-0.6,1-0.7L262.7,169.1z"/>
			<path d="M287.4,161.2c0.6-0.4,1.4-1,2.2-1.6c0.8-0.6,1.5-1.2,2.2-1.7c0.9-0.6,1.7-1.3,2.5-2.1c0.8-0.8,1.5-1.5,2.3-2.3
				c0.2-0.2,0.5-0.5,0.8-1c0.3-0.4,0.6-0.8,0.9-1.1c0.2-0.3,0.3-0.6,0.5-1c0.1-0.4,0.1-0.7-0.2-0.9c-0.2-0.1-0.4-0.2-0.5-0.3
				c-0.1-0.1-0.3-0.1-0.5-0.2c-0.7-0.2-1.5-0.3-2.4-0.3h-1.3c-0.2,0-0.4,0-0.6,0c-0.2,0-0.4,0-0.5,0.1c-0.3,0-0.6,0.1-1,0.2
				c-0.4,0.1-0.7,0.2-1,0.2c-0.6,0-1-0.3-1.2-0.7c-0.1-0.4-0.3-0.8-0.3-1.2c-0.1-0.3,0-0.6,0.1-0.9c0.1-0.2,0.3-0.4,0.6-0.6
				c0.1-0.1,0.4-0.2,0.8-0.3c0.4-0.1,0.7-0.1,1.1-0.2c0.4-0.1,0.8-0.1,1.1-0.1c0.4,0,0.7-0.1,0.8-0.1c0.6,0,1.1,0.1,1.7,0.1
				c0.5,0,1.1,0.1,1.7,0.2c1,0.2,1.9,0.6,2.8,1.1c0.9,0.6,1.5,1.3,2,2.2c0.1,0.3,0.2,0.7,0.3,1.3c0.1,0.5,0,1-0.1,1.4
				c-0.1,0.6-0.4,1.2-0.8,1.7c-0.4,0.5-0.7,1-1.1,1.5c-0.3,0.4-0.6,0.7-0.7,0.8c-0.1,0.1-0.4,0.4-0.8,0.8l0.9,0.7
				c0.2,0.1,0.6,0.4,1.1,0.9c0.6,0.4,1,0.8,1.5,1.2c0.3,0.3,0.7,0.6,1,0.8c0.3,0.2,0.7,0.6,1.3,1c0.2,0.1,0.4,0.3,0.5,0.6
				s0.3,0.4,0.4,0.6c0.1,0.4,0,0.9-0.4,1.2c-0.4,0.4-0.8,0.5-1.2,0.4c-0.1,0-0.3-0.1-0.5-0.2c-0.2-0.1-0.3-0.2-0.5-0.3
				c-0.3-0.2-0.6-0.4-0.8-0.5c-0.2-0.1-0.4-0.3-0.6-0.4c-0.2-0.1-0.4-0.3-0.6-0.5s-0.5-0.4-0.9-0.7c-0.6-0.5-1.2-0.9-1.7-1.3
				c-0.5-0.4-1-0.9-1.7-1.4c-0.4,0.3-0.8,0.7-1.3,1.2c-0.4,0.4-0.8,0.8-1.2,1.1c-0.7,0.6-1.3,1.1-1.9,1.5c-0.6,0.5-1.2,0.9-2,1.4
				l-0.3,0.2l-0.3,0.1c-0.6,0.3-1.2,0.3-1.6,0.1c-0.4-0.2-0.7-0.6-0.9-1.3c-0.1-0.3-0.1-0.6,0-0.8
				C286.8,161.8,287,161.5,287.4,161.2z M311.3,151.3c0-0.4-0.1-1-0.1-1.6c-0.1-0.6-0.1-1.2-0.1-1.8c0-0.6-0.1-1.2-0.1-1.8
				c-0.1-0.6-0.1-1-0.1-1.3c-0.1-0.6-0.1-1.1-0.2-1.6c-0.1-0.5,0.3-0.9,0.9-1.1c0.9,0,1.5,0.4,2,1.3c0.1,0.3,0.3,0.6,0.4,1.1
				c0.1,0.5,0.2,1,0.3,1.5c0.1,0.5,0.1,1.1,0.2,1.6s0.1,0.9,0.1,1.2c0.1,0.9,0.1,1.6,0.1,2.3c0,0.7,0,1.4,0.1,2.3
				c0,0.4,0.1,1.1,0.1,1.8s0,1.6,0,2.4c0,0.8,0,1.6-0.1,2.4c0,0.8,0,1.3,0,1.7c0,0.2,0,0.7-0.1,1.5c-0.1,0.8-0.1,1.6-0.2,2.5
				c-0.1,0.9-0.1,1.7-0.2,2.5c-0.1,0.8-0.1,1.3-0.2,1.5c-0.1,0.6-0.3,1-0.6,1.3c-0.2,0.1-0.4,0.2-0.7,0.2c-0.4,0-0.8-0.1-1.3-0.3
				c-0.5-0.2-0.7-0.6-0.6-1.2c0-0.3,0.1-0.9,0.1-1.6c0.1-0.7,0.1-1.5,0.1-2.4c0-0.8,0.1-1.6,0.1-2.3c0.1-0.7,0.1-1.2,0.1-1.5
				c0-0.3,0.1-0.6,0.1-0.8c0-0.2,0-0.4,0-0.6v-1c0-0.3,0-0.7,0-1c0-0.3,0-0.8,0-1.3v-0.8c-0.9,0.1-1.7,0.1-2.5,0.2
				c-0.8,0.1-1.7,0.2-2.6,0.3c-0.3,0.1-0.6,0.1-0.9,0.2c-0.3,0.1-0.6,0.1-0.9,0.2c-0.4,0.1-0.7,0.1-1,0c-0.3-0.1-0.5-0.3-0.7-0.7
				c-0.4-0.7-0.5-1.6-0.3-2.5c0.7-0.2,1.3-0.4,1.8-0.5c0.5-0.1,1.3-0.2,2.3-0.3c0.7,0,1.3-0.1,1.7-0.1s0.9-0.1,1.7-0.2l1.3-0.1
				V151.3z"/>
			<path d="M317.1,150c0.9-0.1,1.9-0.3,2.9-0.6c1-0.3,1.9-0.7,2.7-1.1c0.3-0.2,0.6-0.3,0.8-0.5c0.3-0.1,0.5-0.3,0.8-0.6
				c0.2-0.2,0.3-0.4,0.3-0.6c0-0.2-0.1-0.4-0.2-0.5c-0.4-0.5-1-0.9-1.7-1.2c-0.7-0.3-1.4-0.5-2.2-0.6c-0.9-0.1-1.4-0.7-1.6-1.7
				c0-0.1-0.1-0.4-0.1-0.6c0-0.3,0-0.4,0-0.6c0-0.3,0-0.6,0.2-0.8c0.2-0.2,0.5-0.3,1-0.1c0.1,0,0.2,0,0.4,0.1
				c0.2,0.1,0.5,0.1,0.7,0.2c0.2,0.1,0.5,0.2,0.7,0.2c0.2,0.1,0.3,0.1,0.4,0.2c0.6,0.3,1.2,0.6,1.8,0.8c0.6,0.3,1.1,0.6,1.5,1.1
				c0.7,0.7,1.1,1.4,1.4,2.1c0.3,0.7,0.4,1.5,0.4,2.4c0,0.4-0.1,0.9-0.4,1.3c-0.4,0.6-0.9,1.2-1.4,1.6c-0.5,0.4-1.1,0.8-1.7,1.1
				c-0.4,0.2-0.8,0.4-1.2,0.5s-0.8,0.3-1.2,0.5c-0.4,0.1-0.8,0.3-1.1,0.4c-0.4,0.1-0.7,0.3-1.1,0.3c0,0.2,0,0.6,0.1,1.1
				c0,0.5,0.1,1,0.1,1.5c0.1,0.5,0.1,1.1,0.2,1.5c0.1,0.5,0.1,0.8,0.2,1.1c0.3,0.1,0.9,0.2,1.6,0.1c1-0.1,2.1-0.2,3-0.4
				c1-0.2,1.9-0.5,2.9-0.8c0.1,0,0.3-0.1,0.6-0.2c0.3-0.1,0.5-0.1,0.6-0.1c1,0.2,1.5,0.8,1.5,1.8c0,0.5-0.3,0.9-0.6,1.1
				c-0.4,0.2-0.8,0.4-1.2,0.6l-1.8,0.5c-0.7,0.2-1.5,0.3-2.4,0.5c-0.8,0.1-1.6,0.3-2.4,0.4c-0.9,0.2-1.8,0.1-2.7-0.1
				c-1-0.3-1.6-0.8-2-1.7c0-0.1-0.1-0.3-0.1-0.5c0-0.2-0.1-0.5-0.1-0.8s-0.1-0.5-0.1-0.8c0-0.2-0.1-0.4-0.1-0.5c0-0.2,0-0.5-0.1-1
				c-0.1-0.5-0.1-1-0.2-1.5c-0.1-0.5-0.1-1-0.2-1.5c-0.1-0.5-0.1-0.8-0.2-1c-0.2-0.7-0.2-1.2-0.1-1.7
				C315.9,150.4,316.4,150.2,317.1,150z M329.7,164.8c1.2-0.4,2.4-0.7,3.6-0.9s2.5-0.2,3.8,0.1c0.3,0.1,0.6,0.2,0.9,0.3
				c0.3,0.1,0.6,0.3,0.9,0.4c0.3,0.3,0.7,0.5,1,0.8c0.3,0.2,0.6,0.5,0.8,0.8c0.4,0.4,0.7,1.1,0.8,1.9c0.1,0.8,0.2,1.6,0.1,2.2
				c0,1-0.3,1.9-0.9,2.9c-0.3,0.4-0.6,0.6-1,0.7l-8.5,1.6c-0.3,0.1-0.5,0.1-0.6,0.1c-1.6,0.2-2.5-0.5-2.7-2.1l-0.2-0.9l-0.1-0.9
				c0-0.1,0-0.4-0.1-0.7c0-0.3-0.1-0.7-0.1-1.1c-0.1-0.4-0.1-0.8-0.2-1.1c-0.1-0.3-0.1-0.6-0.2-0.7c-0.1-0.4-0.2-0.8-0.3-1.3
				c-0.1-0.5-0.2-0.8-0.3-1.1c-0.1-0.3,0-0.6,0.2-0.9c0.1,0,0.2-0.1,0.4-0.2c0.2-0.1,0.4-0.1,0.6,0c0.4,0.2,0.6,0.2,0.6,0.3
				c0.1,0,0.2,0.1,0.5,0.3L329.7,164.8z M329.3,147.1c0.6-0.1,1-0.1,1.4-0.2s0.8-0.1,1.1-0.1s0.7,0,1.1-0.1c0.4,0,0.9,0,1.4-0.1
				c1.1,0,2,0,2.6,0.3c0.6,0.2,1.2,0.4,1.6,0.5c0-0.1,0-0.4,0-0.8c0-0.4-0.1-0.7-0.1-0.8s0-0.5-0.1-1c0-0.5-0.1-1.1-0.1-1.7
				c-0.1-0.6-0.1-1.2-0.2-1.7c-0.1-0.5-0.1-0.9-0.2-1c-0.1-0.4,0.1-0.8,0.6-1c0.5-0.2,1-0.3,1.5-0.1c0.3,0.3,0.6,0.6,0.7,1.1
				s0.3,1.1,0.5,1.9s0.2,1.3,0.3,1.6c0,0.3,0.1,0.8,0.1,1.6c0.1,1.6,0.1,3,0.1,4.4c0,1.4,0,2.8,0.1,4.4c0,0.3,0,0.8-0.1,1.6
				c-0.1,0.8-0.1,1.6-0.2,2.5c-0.1,0.9-0.2,1.7-0.3,2.5c-0.1,0.8-0.2,1.3-0.3,1.5l-0.3,0.7c-0.1,0.1-0.3,0.2-0.7,0.3
				c-0.4,0.1-0.6,0.1-0.7-0.1c-0.4-0.1-0.7-0.3-0.8-0.5c-0.1-0.2-0.2-0.6-0.3-1.1c0-0.3,0.1-0.8,0.3-1.8c0.1-0.9,0.3-1.8,0.3-2.7
				c0-0.2,0-0.4,0-0.8c0-0.3,0-0.6,0-0.8c-0.1,0-0.2,0-0.4,0c-0.1,0-0.3,0.1-0.4,0.1l-3.5,0.4c-0.7,0.1-1.5,0.2-2.3,0.2
				c-0.8,0.1-1.6,0.1-2.3,0.1c-0.7,0-1.1-0.2-1.4-0.6c-0.2-0.3-0.3-0.6-0.4-0.8c-0.1-0.2-0.1-0.5-0.2-0.9c0-0.3,0-0.5,0.1-0.7
				c0.1-0.2,0.3-0.2,0.6-0.2h2c0.9,0,1.6,0,2-0.1l3.5-0.4c0.3,0,0.5-0.1,0.6-0.1s0.3,0,0.5-0.1c0.2,0,0.4,0,0.6-0.1
				c0.2,0,0.5-0.1,1-0.2v-0.9c0-0.4,0-0.7-0.1-0.9c-0.4-0.1-0.8-0.2-1.1-0.3c-0.3,0-0.7-0.1-1-0.1h-1.6c-0.3,0-0.5,0-0.7,0.1
				l-1.1,0.1c-0.1,0-0.2,0-0.4,0c-0.1,0-0.3,0-0.5,0.1l-1,0.1c-0.2,0-0.4,0.1-0.5,0.1c-0.1,0-0.3,0-0.4,0h-0.6c-0.4,0-0.7-0.2-1-0.6
				c-0.3-0.5-0.4-0.9-0.3-1.4c0-0.3,0-0.5,0.1-0.7C328.8,147.3,329,147.2,329.3,147.1z M331.1,172.3c1.2-0.2,2.3-0.4,3.3-0.7
				c1.1-0.2,2.2-0.4,3.3-0.6c0.4-0.1,0.7-0.4,0.8-0.8c0.1-0.2,0.1-0.6,0.1-1.1c0-0.6,0-0.9,0-1.1c0-0.4-0.2-0.7-0.5-0.9l-0.7-0.2
				c-0.8-0.1-1.7-0.2-2.5-0.1c-0.8,0.1-1.7,0.2-2.4,0.4c-0.3,0.1-0.6,0.1-0.8,0.2c-0.2,0.1-0.5,0.2-0.7,0.3
				c-0.3,0.2-0.5,0.5-0.7,0.8c-0.1,0.4-0.2,0.7-0.1,1.1c0,0.1,0.1,0.3,0.1,0.5c0,0.2,0,0.5,0.1,0.8c0,0.3,0,0.5,0.1,0.8
				c0,0.2,0.1,0.4,0.1,0.5L331.1,172.3z"/>
			<path d="M345.1,154c-0.5,0-0.9-0.1-1.2-0.2c-0.8-0.1-1.2-0.6-1.3-1.3c-0.2-0.7-0.2-1.3-0.1-1.8c0-0.2,0.1-0.4,0.3-0.5
				c0.1-0.1,0.3-0.2,0.4-0.1c0.5,0.1,1,0.3,1.6,0.4c0.6,0.1,1.2,0.2,1.8,0.2c0.6,0,1.3,0.1,1.9,0.1c0.6,0,1.2,0,1.7,0
				c0.6,0,1.2,0,1.8,0c0.5,0,1.1,0,1.8,0l3.5,0.2c0.6,0,1,0.2,1.3,0.6c0.3,0.3,0.6,0.7,0.8,1.2c0.3,0.6,0.1,1-0.6,1.2
				c-0.2,0.1-0.4,0.1-0.6,0.1c-0.2,0-0.4,0-0.6,0.1c-0.6,0-1.2,0-1.7,0c-0.6,0-1.1,0-1.6,0h-2.5c-1.1,0.1-2.2,0.1-3.3,0.1
				C347.3,154.1,346.2,154.1,345.1,154z M346.3,141.6c0.4,0.3,0.8,0.5,1.3,0.8c0.5,0.3,1,0.6,1.5,0.9c0.5,0.3,1,0.5,1.5,0.8
				c0.5,0.2,0.9,0.4,1.3,0.6c0.3,0.1,0.6,0.2,0.8,0.4c0.3,0.1,0.5,0.3,0.8,0.4c1.1,0.5,1.8,1.3,2.2,2.4c0.1,0.3,0,0.6-0.1,1
				c-0.1,0.4-0.4,0.6-0.9,0.6c-0.2,0-0.3,0-0.4,0c-0.1,0-0.2-0.1-0.4-0.1c-0.9-0.4-1.7-0.7-2.5-1c-0.8-0.3-1.6-0.6-2.5-1
				c-0.7-0.3-1.3-0.6-1.8-0.8c-0.4-0.2-1-0.5-1.6-1c-0.3-0.3-0.6-0.6-1-1c-0.3-0.4-0.5-0.8-0.6-1.2c-0.1-0.8,0-1.4,0.5-1.8
				C345.3,141.2,345.8,141.2,346.3,141.6z M350.7,156c1.2,0,2.3,0.2,3.3,0.8c1,0.6,1.9,1.5,2.6,2.6c0.4,0.6,0.7,1.3,0.8,2
				c0.1,0.7,0.1,1.5,0,2.4c-0.1,0.6-0.4,1.2-0.8,1.7c-0.4,0.5-0.9,0.8-1.5,1.1c-1,0.4-2.3,0.7-3.8,0.7c-0.4,0-0.9,0-1.4-0.1
				c-0.5-0.1-1-0.2-1.5-0.4c-0.5-0.2-0.9-0.4-1.3-0.6c-0.4-0.3-0.7-0.6-1-1c-0.3-0.5-0.5-0.9-0.6-1.4c-0.1-0.4-0.1-0.9-0.1-1.4
				c0-0.6,0.1-1.2,0.2-1.9c0.1-0.7,0.4-1.2,0.8-1.8c0.1-0.3,0.3-0.4,0.5-0.5c0.2-0.1,0.4-0.1,0.6-0.3c0.1-0.1,0.1-0.1,0.1-0.2
				c0,0,0-0.1,0-0.2c0.2-0.8,0.6-1.3,1.1-1.5c0.6-0.2,1.2-0.3,1.8-0.2H350.7z M348.7,163.3c0.1,0.3,0.4,0.5,0.9,0.6
				c0.4,0.1,0.8,0.1,1.1,0.2c1.3,0.1,2.3-0.1,3.2-0.7c0.3-0.2,0.5-0.5,0.6-1c0.1-0.4,0.2-0.9,0.1-1.3c-0.1-0.2-0.2-0.4-0.4-0.6
				s-0.3-0.4-0.4-0.4c-0.7-0.4-1.4-0.7-2.2-0.8c-0.8-0.1-1.5,0-2.3,0.3c0.1,0.3,0.1,0.7-0.1,1.1c-0.2,0.5-0.4,0.9-0.6,1.3
				C348.5,162.4,348.5,162.8,348.7,163.3z M367.4,153.7c0.2,0,0.5-0.1,1-0.1c0.4,0,0.7,0,1,0c0.8,0,1.4,0,2,0c0.5,0,1.2,0.1,1.9,0.1
				c0.8,0.2,1.4,0.6,1.6,1.1c0.1,0.2,0.2,0.4,0.3,0.6c0.1,0.2,0.1,0.4,0,0.6c-0.1,0.3-0.2,0.6-0.3,0.6c-0.1,0.1-0.4,0.2-0.7,0.3
				c-0.1,0-0.4,0.1-0.7,0.1h-0.7c-0.9,0-1.5,0-2,0c-0.5,0-1,0.1-1.4,0.1l-1.5,0.1c0,0-0.1,0.3-0.1,0.7v1c0,0.6,0,1.2,0,1.6
				c0,0.4,0,0.8-0.1,1.2c0,0.4,0,0.8-0.1,1.2c0,0.4,0,0.9,0,1.5c0,0.8-0.1,1.6-0.2,2.4c-0.1,0.8-0.2,1.6-0.3,2.4
				c-0.1,0.5-0.2,0.9-0.4,1.2c-0.4,0.6-1,0.9-1.6,0.7c-0.2,0-0.4-0.1-0.7-0.3c-0.3-0.2-0.5-0.3-0.6-0.5c-0.2-0.3-0.3-0.6-0.3-1
				c0-0.3,0.1-0.8,0.2-1.3l0.2-1.3c0-0.2,0.1-0.5,0.1-0.9c0-0.4,0.1-0.8,0.1-1.3c0-0.4,0.1-0.9,0.1-1.3c0-0.4,0-0.7,0-0.9
				c0-0.8,0-1.4,0.1-1.9c0-0.4,0-1,0-1.8c-0.1-1.7-0.2-3.4-0.3-5c-0.1-1.7-0.3-3.3-0.6-4.9l-0.4-2.7c0-0.1-0.1-0.4-0.2-0.7
				c-0.1-0.3-0.2-0.7-0.3-1c-0.1-0.4-0.2-0.7-0.3-1c-0.1-0.3-0.2-0.5-0.2-0.6c-0.1-0.5-0.3-1.1-0.4-1.7c-0.1-0.6,0-1,0.4-1.2
				c0.1-0.1,0.4-0.1,0.7-0.1s0.6,0.1,0.8,0.2c0.4,0.2,0.7,0.6,1,1.1c0.3,0.5,0.5,1.1,0.7,1.7c0.3,0.9,0.5,1.8,0.6,2.5
				c0.2,0.7,0.3,1.6,0.5,2.6c0.1,0.7,0.3,1.4,0.4,2.1c0.1,0.6,0.2,1.3,0.3,2.1c0,0.1,0.1,0.4,0.1,0.8
				C367.3,153.4,367.4,153.6,367.4,153.7z"/>
			<path d="M391.2,157.3c-0.4,0-0.7,0-1,0c-0.3,0-0.5,0-0.8,0.1l-5,0.4c-0.2,0-0.3,0.1-0.5,0.1s-0.3,0-0.4,0.1l-1,1.2
				c-0.6,0.7-1.2,1.5-1.9,2.4c-0.7,0.9-1.4,1.6-2,2.3c-0.2,0.2-0.4,0.4-0.6,0.5c-0.2,0.1-0.4,0.3-0.5,0.3c-0.2,0.1-0.4,0.1-0.6,0
				c-0.2-0.1-0.4-0.1-0.5-0.3c-0.6-0.6-0.9-1.4-0.8-2.3c0-0.1,0.1-0.3,0.2-0.5s0.2-0.3,0.3-0.5l2.5-2.7l0.6-0.6
				c0.8-0.9,1.5-1.8,2-2.7c0.3-0.4,0.4-0.7,0.6-1c0.1-0.2,0.2-0.6,0.3-1c0.1-0.4,0-0.8-0.4-1.1c-0.4-0.3-0.8-0.5-1.2-0.6
				c-0.4-0.2-0.9-0.3-1.4-0.4c-0.6-0.1-1.3-0.1-1.8-0.2c-0.6,0-1.2,0-1.8,0.2c-0.5,0.1-1,0-1.3-0.2c-0.4-0.2-0.6-0.7-0.7-1.5
				c0-0.2,0-0.3,0-0.5c0-0.1,0-0.3,0-0.5c0-0.4,0.3-0.7,0.8-0.8c0.6-0.1,1.3-0.1,2.1-0.2c0.8,0,1.6,0,2.4,0.2
				c0.9,0.2,1.7,0.4,2.4,0.7c0.7,0.3,1.4,0.8,2.2,1.5l0.3,0.4c0.1,0.1,0.3,0.2,0.3,0.3c0.5,0.6,0.8,1.2,1,1.8
				c0.1,0.6,0.2,1.2,0.2,1.9h0.8l4.4-0.3c0.2,0,0.4,0,0.7,0c0.2,0,0.4,0,0.7-0.1c0.1-0.7,0.1-1.6,0.1-2.6c-0.1-1-0.1-1.8-0.2-2.3
				c0-0.5-0.1-1-0.1-1.4c0-0.5,0-0.9,0.1-1.4c0-0.3,0.2-0.4,0.6-0.5c0.3-0.1,0.6-0.1,0.7,0c0.1,0,0.2,0.1,0.4,0.1
				c0.2,0.1,0.3,0.1,0.4,0.2c0.5,0.5,0.8,1.1,0.9,1.7c0.1,0.6,0.2,1.3,0.3,2c0.1,1.5,0.2,2.9,0.2,4.3v7.4c0,0.5-0.1,1.1-0.1,1.7
				c0,0.6-0.1,1.2-0.1,1.7c0,0.2-0.1,0.5-0.2,0.8c-0.1,0.3-0.3,0.5-0.6,0.6c-0.3,0.1-0.6,0-1.1-0.1c-0.5-0.1-0.7-0.3-0.9-0.5
				c-0.3-0.5-0.5-1.1-0.5-1.8c0.1-0.8,0.1-1.8,0.2-2.8s0.1-2,0.1-2.8c0-0.1,0-0.2,0-0.4C391.2,157.7,391.2,157.5,391.2,157.3z
				 M397.1,140c0.3-0.1,0.7-0.2,1.1-0.1c0.4,0.1,0.7,0.2,0.7,0.2c0.4,0.4,0.7,0.9,0.9,1.3c0.1,0.5,0.3,1,0.4,1.7
				c0.1,0.7,0.2,1.4,0.3,2.1c0,0.7,0,1.4,0.1,2.1c0.2,2.8,0.3,5.4,0.3,7.8c0,2.4-0.1,4.8-0.1,7.3c0,0.4,0,1-0.1,1.6
				s-0.1,1.2-0.1,1.9s-0.1,1.3-0.2,1.9c-0.1,0.6-0.1,1.1-0.2,1.6c0,0.3-0.1,0.5-0.2,0.8c-0.1,0.3-0.2,0.5-0.3,0.7
				c-0.1,0.3-0.4,0.5-0.8,0.6c-0.4,0.1-0.8,0-1.1-0.3c-0.2-0.2-0.5-0.4-0.8-0.7c-0.3-0.3-0.4-0.7-0.3-1.2c0.2-0.9,0.3-1.8,0.4-2.8
				c0.1-1,0.2-2,0.2-2.8l0.4-9.4c0.1-1.6,0.1-3.2,0-4.6c-0.1-1.5-0.2-3-0.3-4.6c0-0.7-0.1-1.3-0.3-2c-0.1-0.5-0.2-1.1-0.2-1.7
				S396.8,140.2,397.1,140z"/>
			<path d="M414.8,160.3c-1,0.2-1.5-0.2-1.7-1.1c-0.1-0.6-0.1-1.1,0.1-1.6s0.6-0.7,1.3-0.7c1.5-0.3,3.2-0.6,5.3-0.8
				c2.1-0.2,4.3-0.3,6.8-0.3c0.6,0,1.2,0,2,0c0.8,0,1.6,0,2.5,0.1c0.9,0,1.7,0.1,2.6,0.2c0.9,0.1,1.6,0.2,2.3,0.3
				c0.4,0.1,0.9,0.2,1.4,0.2c0.5,0.1,0.9,0.2,1.2,0.2c0.5,0.2,0.8,0.5,0.9,0.8c0.1,0.4,0,0.8,0,1.2c-0.1,0.5-0.4,0.8-0.8,0.8
				c-0.4,0.1-0.9,0.1-1.5-0.1c-0.7-0.1-1.5-0.1-2.5-0.2s-2-0.1-3.1-0.2c-1.1-0.1-2.1-0.1-3.1-0.1s-1.8-0.1-2.4-0.1
				c-2,0-3.9,0.1-5.7,0.3S416.6,160,414.8,160.3z M431.6,144.8c0.7,0.5,1.4,1,1.9,1.5c0.5,0.4,1.2,0.9,2,1.5c0.3,0.2,0.6,0.4,1,0.7
				c0.4,0.3,0.7,0.5,0.9,0.6c0.3,0.2,0.4,0.5,0.4,1c0,0.5-0.1,0.8-0.3,1c-0.3,0.2-0.6,0.3-0.8,0.4s-0.6-0.1-1.1-0.3
				c-0.4-0.1-0.6-0.3-0.7-0.4c-0.5-0.3-1.1-0.6-1.6-1c-0.5-0.4-1.1-0.7-1.6-1.1c-0.3-0.2-0.5-0.4-0.7-0.5c-0.2-0.1-0.5-0.3-0.9-0.6
				c-0.3,0.4-0.6,0.9-1,1.5c-0.4,0.6-0.8,1.1-1.2,1.5c-0.6,0.7-1.2,1.4-1.8,2c-0.3,0.3-0.6,0.5-1.1,0.6c-0.4,0.1-0.8,0.1-1.1-0.2
				c-0.4-0.1-0.7-0.4-0.8-0.9c-0.1-0.1-0.1-0.3-0.1-0.6s0.1-0.5,0.3-0.8l0.5-0.4c0.2-0.1,0.4-0.3,0.6-0.6c0.2-0.2,0.4-0.5,0.7-0.9
				l-3-2.1c-0.7,0.9-1.5,1.8-2.3,2.8c-0.8,1-1.6,1.7-2.4,2.2c-0.4,0.3-0.9,0.3-1.3,0.1c-0.5-0.2-0.8-0.5-1-0.9
				c-0.1-0.1-0.2-0.3-0.3-0.7c-0.1-0.3,0.1-0.6,0.4-0.8c0.9-0.8,1.7-1.7,2.5-2.6c0.8-1,1.5-1.9,2.2-2.8c0.4-0.5,0.7-1,1-1.4
				c0.3-0.4,0.5-0.9,0.8-1.3c0.2-0.4,0.5-0.9,0.7-1.4c0.2-0.5,0.5-1,0.8-1.7c0.1-0.2,0.2-0.5,0.3-0.7c0.1-0.3,0.3-0.4,0.6-0.6
				c0.3-0.1,0.8,0,1.3,0.3c0.2,0.2,0.4,0.4,0.6,0.8c0.2,0.3,0.2,0.8,0.1,1.5c-0.1,0.5-0.4,1.2-0.8,2.1c-0.4,0.9-0.8,1.6-1.2,2.2
				l3.1,2.1l0.8-1.2c0.2-0.4,0.5-0.7,0.7-1.1c0.2-0.4,0.6-0.9,1-1.7c0.3-0.5,0.5-1,0.6-1.5s0.3-1,0.5-1.5c0.1-0.5,0.5-0.7,1.1-0.7
				c0.6,0.1,1,0.4,1.4,0.8c0.2,0.3,0.3,0.6,0.4,0.9c0,0.3,0,0.6-0.1,1c0,0.1-0.1,0.4-0.2,0.7s-0.2,0.6-0.4,1
				c-0.2,0.3-0.3,0.6-0.4,0.9c-0.1,0.3-0.3,0.5-0.3,0.6L431.6,144.8z M424.6,170.3c0.7-0.2,1.4-0.4,1.8-0.6c0.5-0.2,1-0.4,1.5-0.7
				l0.6-0.3l0.5-0.4c0.7-0.9,0.7-1.5-0.3-1.7c-0.9-0.2-1.5-0.3-2-0.4c-0.5,0-1,0-1.5,0c-0.2,0-0.5,0-0.8,0.1
				c-0.4,0.1-0.7,0.1-0.8,0.1c-0.7,0-1.2-0.1-1.5-0.4c-0.2-0.3-0.3-0.6-0.3-1v-0.4c0-0.3,0-0.6,0.1-0.9c0-0.3,0.1-0.5,0.2-0.6
				c0.1-0.1,0.2-0.1,0.4-0.1c0.1,0,0.3,0,0.4-0.1c0.4-0.1,1.1-0.2,1.9-0.2s1.5,0,1.9,0c0.3,0,0.7,0.1,1,0.1c0.3,0.1,0.6,0.1,1,0.2
				c1.3,0.4,2.4,1.2,3,2.2c0.5,0.8,0.8,1.7,0.8,2.6c0,1-0.3,1.8-0.7,2.5c-0.4,0.6-0.8,1-1.3,1.2c-0.4,0.3-1,0.6-1.8,1
				c-0.1,0.1-0.3,0.1-0.4,0.2c-0.1,0.1-0.3,0.1-0.4,0.2l-0.9,0.3c-0.3,0.1-0.6,0.2-0.7,0.3s-0.4,0.1-0.7,0.2c0,0.4,0,0.9,0.1,1.4
				c0.1,0.5,0.2,0.9,0.4,1.2c0,0.3,0.3,0.4,0.8,0.4c0.2,0,0.4,0,0.6,0s0.5-0.1,0.9-0.2c1.4-0.4,2.8-0.9,4.2-1.6
				c0.4-0.2,0.8-0.4,1.1-0.6c0.3-0.2,0.7-0.4,1.1-0.6c0.4-0.1,0.6-0.2,0.8-0.2c0.2,0,0.4,0.1,0.5,0.4s0.3,0.5,0.3,0.7
				c0.1,0.3,0.1,0.6,0,1s-0.3,0.7-0.4,0.8c-0.4,0.3-0.9,0.7-1.5,1c-0.6,0.4-1.1,0.6-1.7,0.9c-0.9,0.3-1.7,0.6-2.4,0.9
				c-0.8,0.3-1.6,0.5-2.4,0.7l-1,0.2c-1,0-1.7-0.1-2.3-0.4c-0.5-0.3-1-0.8-1.3-1.5c-0.1-0.2-0.1-0.4-0.2-0.7c-0.1-0.3-0.1-0.6-0.2-1
				c-0.1-0.3-0.1-0.7-0.2-1c-0.1-0.3-0.1-0.5-0.1-0.7c0-0.3-0.1-0.7-0.2-1.1s-0.2-0.9-0.2-1.3c0-0.4,0.1-0.8,0.3-1.2s0.5-0.6,1-0.7
				L424.6,170.3z"/>
			<path d="M463.9,162.1l0.1,0.2c0.2,0.9,0.3,1.7,0.3,2.5c0,0.8,0.1,1.7,0.1,2.9c0,0.4,0,0.8,0,1c0,0.2,0,0.4,0,0.6v0.6
				c0,0.1,0,0.2,0,0.4s0,0.4-0.1,0.6c0,0.8-0.1,1.6-0.1,2.4c-0.1,0.8-0.2,1.4-0.3,1.9c-0.1,0.4-0.4,0.6-0.9,0.6
				c-0.5,0-0.9,0-1.3-0.2c-0.4-0.2-0.7-0.6-0.7-1s-0.1-0.8,0-1.1c0.1-0.9,0.2-1.6,0.2-2.2c0-0.6,0.1-1.1,0.1-1.6v-3.5
				c0-0.5,0-1.1-0.1-1.8c-0.1-0.7-0.2-1.3-0.3-1.8l-0.1-0.2c-0.9,0.1-1.8,0.1-2.7,0.2c-0.9,0.1-1.8,0.2-2.7,0.4
				c-0.5,0.1-1,0.2-1.4,0.2c-0.4,0-0.9,0.1-1.4,0.2c-1,0.3-1.6,0.3-1.9-0.1c-0.3-0.4-0.5-0.9-0.6-1.5c0-0.1-0.1-0.2-0.1-0.4v-0.4
				c0-0.1,0.1-0.3,0.2-0.4c0.1-0.1,0.2-0.2,0.4-0.3l3-0.5c0.4-0.1,1.1-0.2,1.9-0.3c0.8-0.1,1.7-0.2,2.5-0.3c0.9-0.1,1.7-0.2,2.5-0.3
				s1.4-0.2,1.8-0.2c1.6-0.1,3.1-0.1,4.3,0.1c1.2,0.1,2.7,0.2,4.3,0.4c0.3,0.1,0.5,0.1,0.6,0.1c0.2,0,0.4,0,0.6,0.1
				c0.3,0,0.6,0.1,0.9,0.4c0.3,0.3,0.5,0.5,0.6,0.7c0,0.1,0.1,0.3,0.1,0.6s0.1,0.5,0,0.7c0,0.2-0.1,0.4-0.3,0.6
				c-0.1,0.1-0.4,0.2-0.7,0.2c-1.3-0.2-2.4-0.3-3.4-0.4c-1-0.1-2.2-0.1-3.4,0H463.9z M458.2,151.7c-0.6,0.6-1,1.2-1.5,1.7
				c-0.4,0.5-1,1.1-1.6,1.7l-0.3,0.3c-0.3,0.2-0.6,0.3-0.9,0.3s-0.6-0.1-0.8-0.3c-0.2-0.1-0.3-0.3-0.4-0.4c-0.1-0.1-0.2-0.3-0.3-0.4
				c-0.2-0.6-0.2-1.2,0-1.7c0.2-0.5,0.5-0.9,0.9-1.3c0.8-0.7,1.4-1.4,2-2.1c0.5-0.7,1.2-1.4,1.9-2.2c0.2-0.2,0.4-0.5,0.6-0.8
				c0.2-0.3,0.4-0.6,0.6-0.8c0.2-0.3,0.4-0.5,0.5-0.7c0.1-0.2,0.2-0.3,0.3-0.4c0.2-0.2,0.4-0.4,0.7-0.8c0.3-0.3,0.5-0.7,0.8-1.1
				c0.3-0.4,0.5-0.8,0.7-1.2c0.2-0.4,0.4-0.7,0.6-1c0.1-0.3,0.3-0.4,0.6-0.4c0.2,0,0.5,0,0.8,0.2c0.3,0.2,0.5,0.4,0.7,0.6
				c0.2,0.2,0.4,0.5,0.6,0.8c0.1,0.2,0.2,0.4,0.2,0.7c0,0.3-0.1,0.5-0.2,0.7c0,0.1-0.2,0.3-0.4,0.6s-0.4,0.7-0.7,1s-0.5,0.7-0.7,1.1
				s-0.3,0.6-0.4,0.7c0.2,0.1,0.4,0.3,0.5,0.4c0.2,0.1,0.4,0.3,0.6,0.4c0.9,0.6,1.6,1.1,2.3,1.5c0.7,0.5,1.5,1,2.3,1.7
				c0.4,0.3,0.8,0.6,1.1,0.8c0.3,0.2,0.6,0.5,1,0.9c0.2,0.2,0.4,0.5,0.5,0.9c0.1,0.2,0.1,0.5-0.1,0.8c-0.1,0.4-0.3,0.6-0.6,0.8
				c-0.4,0.3-0.8,0.3-1.3,0l-2.6-1.8c-0.4-0.3-0.8-0.6-1.1-0.8c-0.3-0.2-0.6-0.4-0.9-0.6c-0.3-0.2-0.6-0.4-1-0.6
				c-0.4-0.2-0.8-0.5-1.3-0.8c-0.3-0.2-0.5-0.4-0.8-0.5c-0.3-0.2-0.6-0.3-0.9-0.5L458.2,151.7z"/>
			<path d="M491.6,143.4c0.9,0.3,1.6,0.6,2.1,0.8c0.5,0.3,0.9,0.5,1.2,0.7c0.9,0.7,1.5,1.5,2,2.4c0.4,0.9,0.8,1.8,1,2.8
				c0.2,1,0.1,2-0.4,3s-1.2,1.7-2.2,2.2c-0.8,0.4-1.6,0.6-2.3,0.8c-0.7,0.1-1.4,0.3-2.2,0.5c-0.6,0.1-1.2,0.1-1.8,0.1
				c-0.6,0-1.3-0.1-1.8-0.3c-1.1-0.4-1.8-0.9-2.2-1.5s-0.7-1.3-0.9-2.2c-0.3-1.5-0.1-3,0.7-4.4c0.1-0.3,0.3-0.6,0.6-1
				c0.2-0.4,0.5-0.8,0.8-1.1c0.3-0.4,0.6-0.8,0.9-1.1c0.3-0.4,0.6-0.7,0.8-0.9c0.3-0.3,0.6-0.6,1-0.7c0.4-0.1,0.8-0.2,1.1-0.3
				s0.7,0,1,0S491.4,143.3,491.6,143.4z M500.7,170.6c-0.6,0.7-1.1,1.4-1.8,2.1c-0.6,0.7-1.2,1.3-1.9,1.8c-0.4,0.3-0.8,0.5-1.3,0.7
				c-0.5-0.1-0.9-0.3-1.2-0.5c-0.3-0.3-0.5-0.6-0.5-0.9c-0.1-0.5-0.1-0.9,0.1-1.1s0.5-0.5,0.8-0.8c0.4-0.3,0.8-0.7,1.1-1
				c0.3-0.3,0.6-0.6,0.9-1c-0.6-0.1-1.1-0.3-1.8-0.5c-0.6-0.2-1-0.3-1.2-0.4c-0.3,0-0.6-0.1-0.9-0.3l-0.7-0.3
				c-0.2,0.3-0.5,0.6-0.7,0.9c-0.2,0.3-0.5,0.6-0.7,1c-0.2,0.3-0.3,0.5-0.4,0.7c-0.1,0.2-0.2,0.4-0.4,0.5c-0.1,0.2-0.3,0.3-0.4,0.5
				c-0.2,0.2-0.3,0.4-0.6,0.7c0,0.1-0.1,0.2-0.3,0.3l-0.3,0.3c-0.2,0.2-0.5,0.3-0.8,0.3c-0.3,0-0.6-0.1-0.8-0.2
				c-0.3-0.1-0.5-0.3-0.7-0.4s-0.3-0.3-0.4-0.5c-0.2-0.4-0.2-0.7,0-1c0.1-0.3,0.3-0.5,0.4-0.8c0.3-0.3,0.5-0.6,0.7-0.9
				c0.2-0.3,0.4-0.5,0.6-0.7c0.2-0.2,0.4-0.5,0.6-0.7c0.2-0.2,0.4-0.5,0.7-0.9c0.9-1.2,1.7-2.4,2.4-3.6c0.7-1.2,1.3-2.4,2-3.6
				c0.1-0.2,0.3-0.4,0.5-0.5c0.2-0.1,0.5-0.1,0.6,0c0.2,0.1,0.5,0.3,0.7,0.5c0.2,0.2,0.5,0.4,0.6,0.7c0.1,0.1,0.2,0.4,0.2,0.6
				c0,0.3-0.1,0.5-0.2,0.8c-0.1,0.3-0.3,0.7-0.6,1.2c-0.2,0.5-0.5,0.9-0.7,1.3l-0.4,0.7c0.2,0.2,0.5,0.4,1,0.6l1,0.4
				c0.3,0.1,0.8,0.2,1.3,0.4c0.6,0.1,1.1,0.3,1.6,0.4c0.3-0.5,0.7-1,1-1.5s0.7-1.1,1.1-1.7c0,0,0.1-0.2,0.3-0.6
				c0.2-0.3,0.4-0.7,0.6-1.1c0.2-0.4,0.4-0.8,0.6-1.2c0.2-0.4,0.3-0.6,0.3-0.7c0.1-0.3,0.4-0.5,0.6-0.6c0.3-0.1,0.6,0,1,0.2
				c0.3,0.3,0.5,0.5,0.7,0.8c0.2,0.3,0.3,0.6,0.4,1c-0.3,0.8-0.7,1.7-1.3,2.7c-0.6,1-1,1.9-1.5,2.6c-0.3,0.5-0.7,1.1-1.1,1.8
				C501.4,169.9,501,170.4,500.7,170.6z M488.8,148.1c-0.4,0.5-0.7,1-1,1.5c-0.2,0.5-0.5,1-0.7,1.6c-0.1,0.3-0.1,0.6-0.1,1
				c0,0.4,0.1,0.6,0.3,0.8c0.1,0.2,0.2,0.3,0.5,0.4c0.3,0.1,0.5,0.1,0.7,0.1c1.2-0.1,2.1-0.2,2.7-0.4c0.7-0.2,1.3-0.4,1.9-0.6
				c0.5-0.2,0.9-0.5,1.3-0.8c0.3-0.4,0.4-0.9,0.3-1.7c-0.1-0.8-0.3-1.3-0.7-1.7c-0.1-0.2-0.4-0.4-0.8-0.8c-0.4-0.3-0.7-0.5-1.1-0.6
				c-0.2-0.1-0.5-0.1-0.7-0.2c-0.2-0.1-0.5,0-0.8,0c-0.4,0.1-0.8,0.3-1.1,0.5C489.3,147.5,489,147.8,488.8,148.1z M503.9,146.6
				c0-0.2-0.1-0.6-0.1-1.1c-0.1-0.5-0.1-1-0.2-1.5c-0.1-0.5-0.1-1-0.2-1.5c-0.1-0.4-0.2-0.8-0.2-1c-0.1-0.5-0.3-1-0.4-1.6
				c-0.2-0.6-0.2-1,0-1.3s0.5-0.5,0.9-0.5c0.4,0,0.7,0,0.9,0.2c0.4,0.3,0.7,0.6,0.9,1.1c0.2,0.4,0.5,0.9,0.6,1.5
				c0.2,0.7,0.4,1.6,0.6,2.4c0.1,0.9,0.3,1.7,0.3,2.4c0.1,0.8,0.1,1.6,0.2,2.3c0,0.7,0.1,1.4,0.2,2.3c0,0.4,0.1,0.7,0.1,1.1
				c0,0.4,0,0.7,0,1.1v1.7c0,0.2,0,0.4,0,0.6c0,0.2,0,0.6,0,1.1c0,0.4-0.1,0.8-0.2,1.3c-0.1,0.4-0.3,0.8-0.4,1
				c-0.1,0.1-0.2,0.3-0.4,0.3c-0.2,0.1-0.4,0.1-0.7,0.1c-0.3,0-0.5,0-0.7-0.1c-0.2-0.1-0.4-0.1-0.4-0.3c-0.1-0.1-0.1-0.2-0.2-0.3
				c0-0.1-0.1-0.2-0.1-0.3c-0.1-0.1-0.1-0.5-0.1-1c0-0.5,0.1-0.8,0.1-0.9v-5.5c0-0.1,0-0.3-0.1-0.7c0-0.4-0.1-0.7-0.1-1.2
				c0-0.4,0-0.8-0.1-1.2C503.9,146.9,503.9,146.7,503.9,146.6z M503,168.7c0.2-0.5,0.5-0.7,0.9-0.7s0.6,0.1,0.7,0.1
				c0.4,0.2,0.8,0.4,1,0.6c0.3,0.2,0.6,0.3,0.8,0.4s0.6,0.2,0.8,0.4c0.3,0.2,0.6,0.3,1,0.6c0.6,0.3,1.1,0.5,1.7,0.7
				c0.5,0.2,1.1,0.4,1.6,0.6c1.1,0.4,1.5,1.1,1.4,2.1c-0.1,0.1-0.2,0.3-0.3,0.4c-0.1,0.2-0.2,0.3-0.3,0.3c-0.4,0.2-0.8,0.2-1.1,0.1
				c-0.4,0-0.7-0.1-0.9-0.1c-0.2-0.1-0.4-0.1-0.6-0.2c-0.2-0.1-0.4-0.2-0.6-0.3c-0.2-0.1-0.5-0.2-0.8-0.3c-0.4-0.2-0.8-0.3-1.1-0.5
				c-0.3-0.1-0.6-0.3-0.9-0.4c-0.3-0.1-0.6-0.3-0.9-0.4c-0.3-0.1-0.7-0.3-1.1-0.6c-0.3-0.1-0.6-0.3-0.8-0.5
				c-0.2-0.2-0.4-0.3-0.5-0.4c-0.1-0.1-0.2-0.3-0.4-0.6S502.7,169.2,503,168.7z"/>
			<path d="M515,151.3c0.1,0.7,0.2,1.4,0.3,1.8c0.1,0.5,0.1,1.1,0.1,1.8l-0.1,3.1c0,0.9,0.1,1.4,0.3,1.6c0.2,0.2,0.7,0.3,1.5,0.1
				c0.3-0.1,0.8-0.1,1.3-0.2c0.5-0.1,1.1-0.2,1.6-0.3c0.5-0.1,1.1-0.2,1.8-0.3c0.7-0.1,1.5-0.3,2.4-0.5c0.2-0.1,0.4-0.1,0.6-0.1
				c0.2,0,0.4,0,0.6-0.1c0.4-0.1,0.7,0,1,0.2c0.3,0.2,0.5,0.4,0.7,0.6c0.2,0.2,0.3,0.5,0.4,1c0.1,0.4,0,0.7-0.2,0.8
				c-0.1,0.1-0.3,0.2-0.4,0.2c-0.1,0.1-0.3,0.1-0.4,0.2c-0.6,0.2-1.1,0.3-1.6,0.5c-0.5,0.1-1.1,0.2-1.6,0.3
				c-0.5,0.1-1.1,0.2-1.7,0.3c-0.6,0.1-1.3,0.3-2.1,0.4c-0.6,0.2-1.2,0.3-1.8,0.3c-0.7,0.1-1.3,0.1-1.8,0.1
				c-0.6-0.1-1.2-0.2-1.8-0.5c-0.6-0.3-1-0.6-1.3-1.1c-0.3-0.4-0.5-1.1-0.7-1.8c-0.1-0.8-0.2-1.4-0.1-2c0-0.8,0.1-1.5,0.1-2
				s0.1-1.2,0.1-2v-1.3c0-0.7,0-1.2-0.1-1.4l-1-0.2c-0.1,0-0.3-0.1-0.5-0.2c-0.2-0.1-0.4-0.1-0.5-0.2c-0.2-0.1-0.4-0.3-0.6-0.5
				c-0.2-0.2-0.3-0.4-0.3-0.5c-0.1-0.2-0.1-0.3-0.1-0.3c0,0,0-0.2-0.1-0.4c0-0.2,0-0.5,0.1-0.9s0.4-0.5,0.9-0.4
				c0.7,0.2,1.2,0.3,1.7,0.3c0.5,0,0.9,0.1,1.5,0.1h4.2c0.4,0,0.8,0,1.2,0c0.4,0,0.8,0,1.2-0.1c0.8,0,1.6,0,2.5,0
				c0.4,0,0.8,0.2,1.2,0.7c0.4,0.5,0.6,1,0.6,1.4c0,0.1-0.1,0.3-0.1,0.4c0,0.1-0.1,0.2-0.3,0.3c-0.3,0.1-0.6,0.1-0.8,0.1
				s-0.5,0-0.8,0.1l-6.4,0.4h-0.3C515.2,151.3,515.1,151.3,515,151.3z M533,152.3c0.1,0,0.3,0.1,0.5,0.1h0.5
				c0.7,0.1,1.3,0.1,1.8,0.1c0.4,0,1,0.1,1.8,0.2c0.7,0.1,1.4,0.3,2.1,0.6c0.3,0.1,0.5,0.3,0.8,0.6c0.3,0.2,0.4,0.4,0.5,0.5
				c0.2,0.3,0.2,0.7,0,1.1c-0.2,0.4-0.5,0.7-0.9,0.7c-0.2,0.1-0.4,0.1-0.7,0c-0.6-0.1-1.1-0.1-1.6-0.2c-0.5-0.1-1-0.1-1.5-0.1H535
				c-0.3,0-0.5,0-0.8,0c-0.3,0-0.6,0-0.9,0.1v4c0,0.7,0,1.4-0.1,2c0,0.6-0.1,1.4-0.1,2.3c0,0.8-0.1,1.7-0.1,2.6
				c0,0.9-0.1,1.8-0.2,2.6c0,0.2-0.1,0.4-0.1,0.6c0,0.2-0.1,0.4-0.2,0.5c-0.3,0.6-0.8,0.8-1.5,0.7c-0.2,0-0.4-0.1-0.7-0.3
				c-0.3-0.1-0.5-0.3-0.6-0.4c-0.2-0.3-0.3-0.6-0.3-1c0-0.3,0-0.8,0.1-1.3l0.2-2.4c0-0.2,0.1-0.5,0.1-0.8c0-0.3,0.1-0.7,0.1-1.1
				c0-0.4,0-0.7,0-1.1s0-0.6,0-0.8v-1.7c0-0.3,0-0.5,0-0.8c0-0.2,0-0.6,0-1c-0.1-1.7-0.1-3.3-0.2-4.9c-0.1-1.6-0.2-3.2-0.4-4.8
				l-0.6-5.2c-0.1-0.5-0.2-1.1-0.3-1.7c-0.1-0.6,0.1-1,0.5-1.2c0.1-0.1,0.4-0.1,0.7-0.1c0.3,0,0.6,0.1,0.8,0.2
				c0.4,0.2,0.7,0.6,0.9,1.1c0.2,0.5,0.4,1.1,0.6,1.7c0.1,0.4,0.2,0.8,0.3,1.2c0.1,0.3,0.1,0.7,0.1,1c0,0.3,0,0.6,0.1,1
				s0.1,0.7,0.2,1.2c0.1,0.7,0.2,1.4,0.3,2.1C532.8,150.8,532.9,151.5,533,152.3z"/>
			<path d="M563,149.5c0-0.7-0.1-1.4-0.1-1.9s-0.1-1.1-0.2-1.9c0-0.1,0-0.3-0.1-0.6c-0.1-0.3-0.1-0.5-0.2-0.8
				c-0.1-0.3-0.1-0.6-0.2-0.8c-0.1-0.3-0.1-0.4-0.2-0.6c-0.2-0.5-0.3-1-0.3-1.6c0-0.5,0.3-0.9,1-1.1c0.5-0.1,0.9,0,1.2,0.3
				c0.3,0.3,0.6,0.6,0.8,1c0.1,0.3,0.3,0.6,0.4,1.1c0.1,0.5,0.2,1,0.3,1.5c0.1,0.5,0.2,1.1,0.2,1.6s0.1,0.9,0.2,1.2
				c0.1,0.9,0.1,1.6,0.1,2.2c0,0.6,0.1,1.3,0.1,2.2c0.1,0.7,0.1,1.3,0.1,1.8c0,0.5-0.1,1.1-0.1,1.8c0,0.9,0,1.5,0,1.8s0,0.7-0.1,1.2
				l-0.1,1.3c0,0.3,0,0.6-0.1,1c0,0.4-0.1,0.9-0.1,1.4c-0.1,0.5-0.1,1-0.2,1.4c-0.1,0.4-0.1,0.8-0.1,1.1c0,0.3-0.1,0.5-0.2,0.8
				c-0.1,0.2-0.2,0.4-0.4,0.6c-0.1,0.1-0.3,0.1-0.5,0.2c-0.2,0-0.5,0-0.7-0.1c-0.3-0.1-0.6-0.2-0.9-0.4c-0.2-0.2-0.4-0.6-0.4-1.1
				c0-0.6,0.1-1.3,0.2-2.1c0.1-0.8,0.2-1.4,0.2-2c0-0.4,0-0.8,0-1.1c0-0.3,0-0.5,0.1-0.7c0-0.2,0-0.4,0.1-0.5s0-0.4,0-0.6
				c-0.2,0-0.4,0-0.7,0c-0.2,0-0.5,0.1-0.7,0.1c-1.1,0.1-2,0.3-2.9,0.4c-0.8,0.1-1.8,0.2-2.9,0.3c-0.3,0.1-0.7,0.1-1.1,0.1
				s-0.8,0-1.2-0.1c-0.1,0.3-0.1,0.5-0.2,0.8c0,0.2-0.1,0.5-0.1,0.7c-0.1,0.5-0.3,0.8-0.7,1c-0.4,0.2-0.7,0.3-1,0.3
				c-1.2,0.3-2.4,0.5-3.7,0.6s-2.3,0.3-3.2,0.5c-1.2,0.2-2.1-0.1-2.7-1.1c-0.2-0.3-0.3-0.8-0.5-1.5s-0.2-1.4-0.3-2.1
				c-0.1-0.7-0.1-1.5-0.2-2.2s-0.1-1.3-0.1-1.6l-0.2-1c-0.1-0.6-0.2-1.2-0.3-1.9c-0.1-0.7-0.2-1.1-0.4-1.4c-0.1-0.3-0.3-0.7-0.5-1.3
				c-0.2-0.6-0.3-1-0.4-1.3c0-0.2-0.1-0.4-0.1-0.5s0-0.3,0.1-0.5c0.2-0.3,0.5-0.5,0.8-0.5s0.6,0.1,0.9,0.2c0.1,0.1,0.3,0.2,0.5,0.4
				s0.5,0.5,0.8,1c0.2,0.3,0.4,0.7,0.5,1s0.4,0.8,0.6,1.3c0.2,0.5,0.3,1.1,0.5,1.8c0.1,0.7,0.3,1.4,0.4,2c0,0.2,0.1,0.6,0.1,1.1
				s0.1,1,0.1,1.5c0,0.5,0.1,1,0.1,1.5c0,0.5,0.1,0.8,0.1,0.9c0.1,0.3,0.1,0.5,0.2,0.7c0.1,0.2,0.3,0.3,0.7,0.2
				c0.8-0.1,1.7-0.2,2.6-0.3c0.9-0.1,1.8-0.3,2.5-0.4c0.2-0.6,0.3-1.2,0.4-1.8c0.1-0.5,0.1-0.9,0.2-1.1c0.1-0.3,0.1-0.6,0.2-1
				c0.1-0.4,0.1-0.9,0.1-1.3c0-0.4,0.1-0.8,0.1-1.2c0-0.4,0.1-0.6,0.1-0.8c0-0.3,0-0.7-0.1-1s-0.3-0.5-0.7-0.6
				c-0.9-0.4-1.5-0.6-2.1-0.6c-0.5,0-1,0-1.6-0.1l-2.5,0.3c-0.4,0-0.7-0.1-0.9-0.4c-0.2-0.3-0.3-0.6-0.4-0.8c-0.2-0.4-0.2-0.7-0.1-1
				c0.1-0.2,0.2-0.5,0.3-0.6c0.6-0.3,1.3-0.5,2.1-0.6c0.7-0.1,1.5-0.1,2.1-0.1c0.5,0,1,0.1,1.6,0.2c0.6,0.2,1,0.3,1.5,0.5
				c0.6,0.2,1.2,0.5,1.8,0.8c0.5,0.4,1,0.7,1.3,1.1l0.4,0.7l1.3-0.2c0.5-0.1,1.1-0.1,1.9-0.1s1.4,0.1,2,0.1c0.4,0.1,0.7,0.2,1,0.3
				c0.3,0.1,0.6,0.3,0.9,0.6c0.3,0.3,0.4,0.5,0.6,0.8c0.2,0.5,0.2,0.9-0.1,1.1c-0.2,0.3-0.6,0.4-1,0.4c-0.5,0-0.9-0.1-1.3-0.1
				c-0.4,0-0.8,0-1.2,0c-0.7,0-1.4,0-2,0.1c-0.6,0-1.2,0.1-1.8,0.2l-0.5,3.1l0.2-0.1c0.3,0,0.4,0,0.5-0.1c1.2-0.1,2.2-0.2,3.1-0.3
				s1.9-0.2,3.1-0.3l2.1-0.2v-2.4c0-0.4,0-0.8,0-1.1C563,150.2,563,149.8,563,149.5z M555.2,163.6c0.2,0,0.4,0.2,0.6,0.4
				c0.2,0.3,0.4,0.6,0.5,0.9c0.1,0.4,0.3,0.7,0.4,1.1c0.1,0.4,0.1,0.7,0.1,0.9c0.1,0.4,0.1,0.9,0.2,1.3c0.1,0.4,0.1,0.9,0.3,1.3
				c0.1,0.3,0.1,0.5,0.2,0.6c0.1,0.1,0.3,0.2,0.6,0.3c0.1,0,0.5,0.1,1.1,0.1h1.7c0.6,0,1.2,0,1.8-0.1c0.5,0,0.9-0.1,1.1-0.1
				c1.3-0.1,2.1,0.1,2.6,0.4c0.1,0.1,0.3,0.3,0.4,0.6c0.1,0.3,0.2,0.5,0.2,0.7c0,0.3,0,0.6,0,0.8c0,0.2-0.2,0.4-0.6,0.6
				c-0.2,0.1-0.7,0.2-1.6,0.3c-0.9,0.1-1.7,0.1-2.4,0.1h-1c-0.3,0-0.6,0-1.1,0c-0.4,0-0.9,0-1.4-0.1c-0.5,0-0.9-0.1-1.4-0.1
				c-0.4-0.1-0.8-0.1-1-0.2c-0.7-0.2-1.2-0.6-1.4-1.1s-0.4-1.1-0.6-1.8c-0.2-0.7-0.3-1.3-0.4-1.9c-0.1-0.6-0.1-1.3-0.2-2
				c0-0.3-0.1-0.5-0.1-0.7s0-0.4,0-0.5v-1.2c0-0.1,0.1-0.3,0.3-0.4C554.3,163.7,554.7,163.6,555.2,163.6z"/>
		</g>
		<g class="st2">
			<path d="M284.2,199c0.5,0,1,0.2,1.6,0.4c0.6,0.2,1.1,0.4,1.6,0.7c0.5,0.3,1,0.6,1.4,1c0.4,0.4,0.8,0.7,1,1.1
				c0.5,0.7,0.8,1.4,1.1,2.1c0.2,0.7,0.4,1.5,0.4,2.5c0.1,1.2-0.2,2.3-1,3.2c-0.2,0.3-0.5,0.6-1,1c-0.5,0.4-0.8,0.7-1.1,0.8
				c-0.5,0.3-1,0.5-1.6,0.6c-0.6,0.2-1.2,0.3-1.8,0.3c-1.2,0-2.2-0.1-3-0.3c-0.8-0.3-1.6-0.8-2.5-1.6c-0.9-0.8-1.4-1.8-1.8-2.9
				c-0.3-1.1-0.4-2.2-0.4-3.4c0-0.4,0.1-1,0.3-1.5c0.2-0.6,0.4-1,0.7-1.3c0.9-1.2,2-1.9,3.1-2.4c0.5-0.1,1-0.2,1.4-0.3
				C283.3,199,283.8,198.9,284.2,199z M280.6,206.3c0,0.2,0.1,0.6,0.3,1.2c0.2,0.6,0.5,1,0.9,1.3c0.8,0.5,1.6,0.8,2.5,0.7
				c0.8-0.1,1.6-0.2,2.4-0.5c0.3-0.2,0.5-0.4,0.7-0.5c0.2-0.2,0.4-0.4,0.6-0.7c0.4-0.6,0.5-1.4,0.4-2.3c0-0.3-0.1-0.5-0.2-0.8
				c-0.1-0.3-0.3-0.5-0.4-0.7c-1.2-1-2.3-1.5-3.4-1.5c-0.7,0-1.2,0.1-1.6,0.3c-0.4,0.2-0.7,0.4-1,0.6c-0.4,0.3-0.7,0.7-0.9,1.3
				C280.6,205.2,280.5,205.7,280.6,206.3z M298.6,220.8c-0.3-0.2-0.7-0.3-1.1-0.4c-0.4-0.1-0.7-0.1-1-0.1h-2.1c-0.4,0-1.1,0.1-2,0.4
				c-0.2,0.1-0.4,0.1-0.4,0.1h-0.5c-0.1,0-0.2-0.1-0.4-0.1c-0.1,0-0.2-0.1-0.3-0.2c-0.4-0.4-0.6-0.8-0.8-1.4c-0.1-0.5-0.1-1,0-1.4
				c1.4-0.6,2.8-0.8,4.3-0.8c0.5,0,0.8,0,1.1,0c0.2,0,0.6,0,1.1,0.1c1.6,0.2,3,0.8,4.2,2c0.1,0.2,0.2,0.3,0.3,0.4
				c0.1,0.1,0.2,0.3,0.3,0.4c0.4,0.6,0.6,1.4,0.6,2.3c0,0.9-0.4,1.7-1.2,2.3c-0.7,0.6-1.5,1.1-2.3,1.5c-0.8,0.4-1.7,0.7-2.5,0.8
				l-0.9,0.1c-0.1,0.4-0.2,0.8-0.3,1.3c-0.1,0.4,0,0.8,0.2,1.3c0.3,0.2,0.8,0.3,1.5,0.3c0.7,0,1.3-0.1,1.9-0.1
				c0.4-0.1,1-0.2,1.6-0.4c0.7-0.2,1.2-0.3,1.6-0.5c0.3-0.1,0.6-0.2,0.9-0.2c0.3,0,0.5,0.1,0.7,0.2c0.4,0.2,0.6,0.6,0.7,1.3
				c0,0.6-0.1,1.1-0.5,1.4c-0.3,0.3-0.8,0.6-1.3,0.8c-0.4,0.1-0.9,0.3-1.6,0.4c-0.6,0.1-1.3,0.2-2,0.3c-0.7,0.1-1.3,0.1-2,0.1
				c-0.6,0-1.2-0.1-1.6-0.2c-0.6-0.1-1.1-0.4-1.6-0.8c-0.4-0.4-0.8-0.8-1-1.2c-0.1-0.3-0.3-0.8-0.4-1.3c-0.1-0.5-0.2-1-0.2-1.4
				c0-0.5,0-1.1,0-1.6c0-0.5,0-1.1,0.1-1.7c0-0.5,0.3-0.8,0.8-0.8c0.1,0,0.2,0,0.4,0c0.1,0,0.3,0,0.5,0c0.4,0,0.9-0.1,1.5-0.3
				c0.5-0.1,1.1-0.3,1.6-0.5c0.5-0.2,1-0.5,1.4-0.8c0.4-0.3,0.7-0.6,0.9-0.9C298.9,221.3,298.8,221,298.6,220.8z M298.9,203.5
				l1.4,0.1c0.1-0.1,0.1-0.3,0.1-0.6c0-0.3,0-0.7-0.1-1c0-0.6-0.1-1.1-0.1-1.5c-0.1-0.4-0.1-0.9-0.2-1.5c-0.1-0.7-0.3-1.6-0.5-2.6
				c-0.1-0.7,0.1-1.3,0.7-1.9c0.1-0.1,0.3-0.1,0.6-0.1c0.3,0,0.4,0.1,0.5,0.1c0.6,0.4,0.9,0.8,1.1,1.3c0.1,0.5,0.3,1,0.4,1.7
				c0.2,1,0.3,1.9,0.4,2.7c0.1,0.8,0.2,1.7,0.3,2.7c0.1,0.7,0.1,1.5,0.1,2.2c0,0.7,0,1.5,0,2.2c0,0.2,0,0.7-0.1,1.5
				c-0.1,0.8-0.1,1.6-0.2,2.5c-0.1,0.9-0.2,1.7-0.3,2.4c-0.1,0.7-0.1,1.2-0.2,1.3c-0.1,0.2-0.1,0.3-0.1,0.5c0,0.1-0.1,0.3-0.2,0.5
				c-0.2,0.3-0.5,0.5-0.9,0.6c-0.4,0.1-0.8,0.1-1.1-0.1c-0.1-0.1-0.3-0.2-0.4-0.3c-0.1-0.1-0.2-0.2-0.3-0.4
				c-0.1-0.3-0.1-0.7-0.1-1.2c0.1-0.4,0.1-1,0.3-1.6c0-0.3,0.1-0.6,0.1-1.1c0-0.5,0.1-1,0.1-1.5l0.1-1.6c0-0.3,0.1-0.5,0.1-0.7
				c0-0.2,0-0.4,0-0.5v-0.8c-0.1,0-0.3,0-0.4,0c-0.1,0-0.3,0-0.4,0c-0.8,0-1.8,0.1-2.8,0.3c-1,0.1-2,0.2-2.9,0.3
				c-0.3,0-0.6-0.1-0.9-0.4c-0.3-0.3-0.5-0.7-0.6-1.1c-0.1-0.4,0-0.8,0.2-1.1c0.2-0.4,0.6-0.6,1.3-0.6L298.9,203.5z"/>
			<path d="M306,202.5c0,0,0.1,0.1,0.2,0.2c0.1,0.1,0.2,0.2,0.2,0.2c0.2-0.2,0.5-0.3,0.8-0.5c0.4-0.1,0.6-0.2,0.9-0.3
				c0.6-0.1,1-0.2,1.4-0.2c0.4,0,0.8-0.1,1.1-0.1c0.4,0,0.7,0,1.1,0.1c0.4,0.1,0.9,0.1,1.5,0.2c2.9,0.6,4.8,2.3,5.8,5
				c0.2,0.7,0.3,1.5,0.1,2.3c-0.1,0.8-0.3,1.5-0.6,2.2c-0.3,0.9-0.7,1.7-1,2.2s-0.5,1-0.6,1.5c-0.1,0.5-0.2,0.9-0.3,1
				c-0.1,0.2-0.5,0.3-1,0.4l-1.6,0.2c-1,0.1-1.9,0.2-2.8,0.3c-0.9,0-1.9,0.2-2.8,0.5c-0.1,0-0.2,0.1-0.4,0.1c-0.2,0-0.4,0.1-0.5,0.1
				c-0.4,0.1-0.9,0-1.3-0.1c-0.5-0.2-0.8-0.4-1-0.8c-0.3-0.5-0.4-1-0.4-1.6c0-0.6,0-1.2,0-2c0-0.7-0.1-1.4-0.1-2.2
				c-0.1-0.7-0.1-1.4-0.2-2.2c-0.1-0.7-0.1-1.3-0.2-1.9c-0.1-0.4-0.2-0.9-0.3-1.3c-0.1-0.4-0.2-0.8-0.2-1.3c0-0.2-0.1-0.5-0.1-0.9
				c-0.1-0.4,0-0.7,0-0.8c0.1-0.2,0.3-0.4,0.5-0.5c0.2-0.1,0.5-0.2,0.7-0.2c0.2,0,0.5,0,0.7,0C305.8,202.3,306,202.4,306,202.5z
				 M307.9,214.2c0.2,0,0.3,0,0.4,0c0.1,0,0.2,0,0.3,0c1-0.1,1.8-0.2,2.4-0.3c0.6-0.1,1.4-0.2,2.4-0.3l1.1-0.2c0-0.5,0.2-1,0.4-1.4
				c0.2-0.4,0.4-0.9,0.5-1.5c0-0.2,0.1-0.5,0.2-0.8c0.1-0.3,0.2-0.7,0.2-1c0.1-0.4,0.1-0.7,0-1c0-0.3-0.2-0.6-0.4-0.8
				c-0.3-0.3-0.6-0.5-0.9-0.7c-0.3-0.2-0.7-0.3-1-0.4c-0.3-0.1-0.6-0.2-0.9-0.2c-0.3,0-0.5-0.1-0.7-0.1c-0.2,0-0.5,0-0.7,0
				c-0.3,0-0.6,0-1,0.1c-1.1,0.1-2,0.5-2.7,1.1c0,0.4,0,0.9,0,1.5c0,0.6,0.1,1.1,0.1,1.7c0.1,0.6,0.1,1.1,0.1,1.7
				c0,0.6,0.1,1,0.1,1.5c0,0.2,0,0.4,0,0.7C307.8,213.7,307.8,213.9,307.9,214.2z M325,225.4c-0.4-0.1-0.7-0.2-1-0.4
				c-0.3-0.2-0.4-0.4-0.4-0.7c0-0.3-0.1-0.6-0.1-0.8c0-0.2,0-0.4,0-0.6c0-0.2,0-0.4,0.1-0.6c0-0.2,0.1-0.5,0.1-0.8l0.4-4.2
				c0.1-1.1,0.1-2,0.2-2.9s0.1-1.7,0.1-2.5v-2.1c0-1.2-0.1-2.4-0.2-3.7c-0.1-1.3-0.4-2.5-0.7-3.7c0-0.1-0.1-0.4-0.2-0.7
				c-0.1-0.3-0.2-0.6-0.4-0.9c-0.1-0.3-0.3-0.6-0.4-0.8c-0.1-0.3-0.2-0.4-0.3-0.6c-0.3-0.5-0.4-0.9-0.4-1.3c0-0.4,0.1-0.8,0.4-1.3
				c0.2-0.3,0.6-0.5,1.1-0.5s0.8,0.2,1,0.5c0.3,0.4,0.5,0.9,0.8,1.4c0.2,0.5,0.5,1.1,0.7,1.7s0.4,1.2,0.6,1.7
				c0.2,0.6,0.3,1.1,0.4,1.6c0.1,0.4,0.1,0.8,0.2,1.1c0.1,0.3,0.1,0.6,0.1,0.9c0,0.3,0.1,0.6,0.1,0.9c0,0.3,0.1,0.7,0.1,1.1l0.1,1.6
				c0.3,0,0.5,0,0.7,0c0.2,0,0.4,0,0.6,0c0.6,0,1,0,1.2,0.1l1,0.1c0.3,0,0.7,0,1,0.1c0.3,0,0.7,0.1,1.2,0.1c0.6,0.1,1,0.4,1.3,1
				c0.2,0.3,0.3,0.6,0.5,0.9c0.1,0.3,0.1,0.6-0.1,1c-0.3,0.3-0.8,0.4-1.4,0.3c-0.4,0-0.8,0-1,0c-0.3,0-0.6,0-0.8,0H329
				c-0.2,0-0.5,0-0.8,0.1c-0.4,0-0.6,0.3-0.6,0.7l-0.3,4.6l-0.1,1.8c-0.1,0.8-0.1,1.6-0.1,2.2c0,0.7-0.1,1.4-0.2,2.1
				c-0.1,0.4-0.3,0.8-0.6,1.2C325.9,225.3,325.5,225.4,325,225.4z"/>
			<path d="M337.1,219.3c-0.9-0.1-1.5-0.4-1.9-0.8c-0.4-0.4-0.7-1.1-0.9-1.9c-0.1-0.3-0.1-0.7-0.2-1.1c-0.1-0.4-0.1-0.8-0.1-1.1
				c0-0.4-0.1-0.9-0.1-1.5c0-0.6-0.1-1.3-0.1-2c0-0.7-0.1-1.3-0.1-2c0-0.6,0-1.2,0-1.6c0-0.3,0-0.7,0.1-1.1c0.1-0.3,0.3-0.5,0.7-0.7
				c0.2,0,0.5,0,0.8,0.1c0.3,0.1,0.6,0.2,0.8,0.4c0.3,0.4,0.5,0.8,0.6,1.2c0.1,0.4,0.2,0.8,0.3,1.4c0,0,0,0.3,0.1,0.9
				c0,0.6,0.1,1.2,0.1,1.9c0.1,0.7,0.1,1.3,0.1,1.9c0,0.6,0.1,0.9,0.1,1c0,0.9,0.4,1.4,1.2,1.3c0.6,0,1.1-0.1,1.4-0.2
				c0.3-0.1,0.8-0.2,1.4-0.3c1-0.3,2-0.6,3-0.9c1-0.3,2.1-0.6,3-0.9c0.4-0.1,0.7-0.2,1.1-0.3c0.4-0.1,0.7-0.2,1.1-0.3
				c0.9-0.2,1.3,0.1,1.5,1c0,0.3,0,0.7,0,1.1c-0.1,0.4-0.2,0.7-0.5,0.9c-0.3,0.2-0.6,0.4-1,0.6c-1,0.4-2.1,0.8-3.3,1.2
				c-1.2,0.4-2.3,0.7-3.4,1.1c-0.6,0.1-1.1,0.3-1.7,0.4c-0.6,0.1-1.1,0.2-1.7,0.3c-0.4,0.1-0.8,0.1-1.3,0.1
				C337.6,219.4,337.3,219.4,337.1,219.3z M355.9,209.4c0.1,0,0.3,0.1,0.5,0.1h0.5c0.7,0.1,1.3,0.1,1.8,0.1c0.4,0,1,0.1,1.8,0.2
				c0.7,0.1,1.4,0.3,2.1,0.6c0.3,0.1,0.5,0.3,0.8,0.6c0.3,0.2,0.4,0.4,0.5,0.5c0.2,0.3,0.2,0.7,0,1.1c-0.2,0.4-0.5,0.7-0.9,0.7
				c-0.2,0.1-0.4,0.1-0.7,0c-0.6-0.1-1.1-0.1-1.6-0.2c-0.5-0.1-1-0.1-1.5-0.1h-1.5c-0.3,0-0.5,0-0.8,0c-0.3,0-0.6,0-0.9,0.1v3.8
				c0,0.5,0,1-0.1,1.4c0,0.4-0.1,1-0.1,1.9c0,0.8-0.1,1.7-0.1,2.5c0,0.9-0.1,1.7-0.2,2.5c0,0.2-0.1,0.4-0.1,0.6
				c0,0.2-0.1,0.4-0.2,0.5c-0.3,0.6-0.8,0.8-1.5,0.7c-0.2,0-0.4-0.1-0.7-0.3c-0.3-0.1-0.5-0.3-0.6-0.4c-0.2-0.3-0.3-0.6-0.3-1
				s0-0.8,0.1-1.3l0.2-2.4c0.1-0.4,0.1-1,0.2-1.8c0.1-0.8,0.1-1.4,0.1-1.8v-1.7c0-0.3,0-0.5,0-0.8c0-0.2,0-0.6,0-1
				c-0.1-1.7-0.1-3.3-0.2-4.7c-0.1-1.5-0.2-3-0.4-4.6l-0.6-4.9c-0.1-0.5-0.2-1.1-0.3-1.7c-0.1-0.6,0.1-1,0.5-1.2
				c0.1-0.1,0.4-0.1,0.7-0.1s0.6,0.1,0.8,0.2c0.4,0.2,0.7,0.6,0.9,1.1c0.2,0.5,0.4,1.1,0.6,1.7c0.1,0.4,0.2,0.8,0.3,1.1
				c0.1,0.3,0.1,0.6,0.1,0.9c0,0.3,0,0.6,0.1,0.9c0,0.3,0.1,0.7,0.2,1.2c0.1,0.7,0.2,1.6,0.3,2.5
				C355.6,207.8,355.8,208.7,355.9,209.4z"/>
			<path d="M382.4,213.1c0.4-0.1,0.9-0.1,1.3-0.2s0.8-0.1,1.3-0.1c0.1-0.6,0.3-1.3,0.4-1.9s0.1-1.2,0.1-1.7c0-0.3,0-0.8,0-1.3
				c0-0.5,0-1,0.2-1.3c0-0.2,0.3-0.3,0.7-0.4c0.4-0.1,0.8-0.1,1.2,0.1c0.4,0.2,0.7,0.4,0.8,0.7c0.1,0.3,0.2,0.6,0.3,1
				c0.1,0.2,0.1,0.5,0.1,0.9c0,0.4,0,0.7,0,0.9c0,0.2-0.1,0.6-0.1,1.2s-0.1,1.1-0.2,1.7c0.8,0,1.7,0,2.7,0c1,0,2,0,3.1,0.1
				c0.5,0,1.1,0.1,1.7,0.2c0.6,0.1,1.2,0.3,1.6,0.4c0.4,0.3,0.7,0.6,0.8,0.8c0.1,0.2,0.2,0.5,0.2,1c0,0.2,0,0.4-0.3,0.7
				c-0.2,0.2-0.4,0.3-0.6,0.3c-0.6,0.1-1,0.1-1.3,0.1c-0.3,0-0.7-0.1-1.2-0.1c-0.5,0-1.2,0-2.1-0.1c-0.9,0-1.7-0.1-2.5-0.1h-1.3
				c-0.8,0-1.6,0.1-2.4,0.1c-0.8,0-1.6,0.1-2.4,0.1c-0.4,0.1-0.8,0.2-1.3,0.2c-0.5,0.1-1.1,0.1-1.6,0.2c-0.6,0.1-1.1,0.1-1.6,0.2
				c-0.5,0.1-1,0.1-1.3,0.2l-2.9,0.6c-0.4,0.1-0.8,0.1-1-0.2c-0.3-0.2-0.5-0.5-0.7-1c-0.1-0.3-0.2-0.6-0.3-0.9
				c-0.1-0.3,0-0.5,0.1-0.7c0.1-0.2,0.3-0.4,0.5-0.4l0.7-0.2c1-0.2,2.3-0.4,3.6-0.6C380.1,213.4,381.3,213.2,382.4,213.1z
				 M386.4,202.2c-0.2,0.4-0.5,0.9-1,1.6c-0.4,0.6-0.8,1.2-1.2,1.6c-0.3,0.4-0.6,0.7-0.8,1c-0.2,0.3-0.4,0.5-0.7,0.7
				c-0.2,0.2-0.5,0.4-0.7,0.7c-0.2,0.2-0.5,0.5-0.9,0.8c-0.1,0.1-0.3,0.3-0.5,0.5c-0.2,0.2-0.4,0.4-0.6,0.4c-0.5,0.4-1,0.5-1.4,0.4
				c-0.4-0.1-0.8-0.4-1.1-0.8c-0.4-0.7-0.5-1.3-0.1-1.8c0.1-0.2,0.2-0.3,0.4-0.4c0.1-0.1,0.3-0.3,0.5-0.4c0.9-0.7,1.7-1.6,2.6-2.6
				s1.5-1.8,1.9-2.6c0.5-0.8,0.8-1.7,1-2.7c0-0.6-0.3-0.9-0.9-1c-0.7-0.1-1.5,0-2.4,0.1c-0.9,0.2-1.7,0.4-2.3,0.7
				c-0.7,0.4-1.2,0.3-1.7-0.3c-0.3-0.4-0.5-0.8-0.7-1.3c-0.1-0.3,0-0.5,0.1-0.8s0.3-0.5,0.6-0.6c1-0.5,2.1-0.9,3.5-1
				c1.4-0.1,2.6,0,3.6,0.4c0.8,0.3,1.5,0.7,2,1.2c0.6,0.5,1,1.2,1.3,2c0.1,0.7,0.1,1.4-0.1,2.2C386.9,200.9,386.7,201.5,386.4,202.2
				z M379.2,223.2c0.6-0.1,1.3-0.1,2.2-0.2c0.9-0.1,1.9-0.1,2.9-0.2c0.4-0.7,0.7-1.4,0.9-2c0.2-0.6,0.4-1.4,0.6-2.2
				c0-0.4,0.3-0.8,0.8-1c0.5-0.2,0.9-0.2,1.4-0.1c0.3,0.1,0.6,0.3,0.8,0.7c0.2,0.4,0.3,0.7,0.2,1c-0.1,0.7-0.3,1.4-0.4,2
				c-0.1,0.6-0.2,1.1-0.4,1.6c0.1,0,0.3,0,0.4,0c0.1,0,0.2,0,0.3,0c0.5,0,1.1,0,1.8,0c0.7,0,1.3,0,1.8,0c0.5-0.1,1,0,1.3,0.3
				c0.4,0.2,0.7,0.6,1,0.9c0.2,0.2,0.3,0.3,0.3,0.4s0.1,0.3,0.1,0.6c0,0.4-0.2,0.6-0.6,0.7c-0.1,0-0.3,0.1-0.4,0.1h-0.5
				c-1.5-0.1-3-0.1-4.7,0c-1.7,0.1-3.2,0.2-4.7,0.4l-3.4,0.4h-1c-0.2,0-0.5-0.1-0.8-0.3c-0.3-0.3-0.5-0.6-0.6-1
				c-0.1-0.4-0.1-0.8-0.1-1.2C378.5,223.6,378.8,223.3,379.2,223.2z M388.3,237.1c-0.3,0-0.5-0.1-0.7-0.1c-0.2,0-0.5,0-0.8-0.1
				c-1-0.2-1.8-0.7-2.4-1.3c-0.6-0.6-1-1.4-1.3-2.4c-0.2-0.6-0.3-1.2-0.3-1.8c-0.1-0.7,0-1.3,0.3-1.8c0.2-0.5,0.6-1,1-1.4
				c0.2-0.1,0.4-0.2,0.6-0.3c0.3-0.1,0.7-0.2,1-0.3c0.4,0,0.7-0.1,1-0.1c1.2-0.1,2.4,0.1,3.5,0.8c1.1,0.7,2,1.5,2.5,2.5
				c0.3,0.7,0.4,1.4,0.4,2.1c0,0.7-0.1,1.5-0.4,2.2c-0.3,0.7-0.8,1.1-1.4,1.4c-0.5,0.2-1,0.4-1.4,0.4
				C389.4,237,388.9,237,388.3,237.1z M390.3,231.6c0-0.1-0.1-0.2-0.2-0.4c-0.1-0.2-0.2-0.3-0.4-0.4c-0.5-0.3-1-0.5-1.5-0.5
				c-0.5,0-1,0.1-1.4,0.3c-0.3,0.1-0.6,0.4-0.7,0.6c-0.1,0.3-0.2,0.5-0.3,0.8c0,0.1,0,0.4,0,0.6c0,0.3,0.1,0.5,0.3,0.7
				c0.4,0.5,1,0.8,1.7,0.9c0.7,0.1,1.3-0.1,2-0.5c0.3-0.2,0.5-0.5,0.6-0.9C390.4,232.4,390.4,232,390.3,231.6z M390.3,201
				c0.6,0.3,1.2,0.6,1.7,0.8c0.5,0.3,1,0.6,1.7,0.9c0.4,0.2,0.9,0.5,1.5,0.9c0.6,0.4,0.9,0.7,1.1,1c0.1,0.1,0.1,0.3,0.2,0.5
				c0.1,0.2,0.1,0.4,0,0.7c-0.1,0.3-0.2,0.6-0.5,0.8c-0.2,0.2-0.5,0.3-0.8,0.2c-0.6-0.1-1.1-0.4-1.8-0.7s-1.2-0.6-1.7-0.9
				c-0.3-0.1-0.6-0.3-0.8-0.4c-0.2-0.1-0.4-0.2-0.6-0.3c-0.2-0.1-0.4-0.2-0.6-0.3c-0.2-0.1-0.5-0.2-0.8-0.3c-0.1,0-0.3-0.1-0.5-0.2
				c-0.2-0.1-0.4-0.3-0.6-0.4s-0.3-0.4-0.4-0.6c-0.1-0.2-0.1-0.5,0.1-0.8c0.3-0.7,0.7-1.2,1.1-1.3C389,200.6,389.6,200.7,390.3,201z
				"/>
			<path d="M411.5,214.7c-0.7,0-1.4-0.1-2.3-0.1c-0.9,0-1.6,0-2.2,0.1l-4.8,0.4l-2.9,0.3c-0.6,0.1-1-0.1-1.3-0.7
				c-0.2-0.4-0.3-0.8-0.4-1.2c-0.1-0.4,0-0.9,0.1-1.4c0.1,0,0.3-0.1,0.4-0.1c0.1,0,0.2,0,0.4,0l6-0.4c1.5-0.1,3-0.3,4.5-0.3
				c1.5-0.1,2.9-0.1,4.4,0l8,0.4c0.9,0,1.5,0.5,1.9,1.3l0.3,0.7c0.2,0.4,0.2,0.8,0,1.1c-0.2,0.3-0.5,0.5-0.9,0.4h-0.7
				c-0.3,0-0.5,0-0.7-0.1c-0.9-0.1-2-0.2-3.3-0.3c-1.3-0.1-2.4-0.1-3.3-0.1c-0.1,0-0.3,0-0.6,0c-0.3,0-0.6,0-1,0H411.5z
				 M405.4,197.6c0.4-0.4,0.7-0.7,0.9-1c0.2-0.3,0.5-0.5,0.7-0.6c0.2-0.2,0.5-0.3,0.8-0.4c0.3-0.1,0.7-0.2,1.2-0.3
				c0.2,0,0.4-0.1,0.8-0.1s0.7,0,1.1,0.1s0.7,0.1,1,0.2c0.3,0.1,0.6,0.2,0.8,0.4c1.3,0.9,2.3,1.8,3,2.9c0.7,1.1,1.1,2.4,1.4,4
				c0.1,1.2-0.2,2.2-1,3.1c-0.8,0.9-1.8,1.4-2.9,1.7c-1.5,0.3-2.8,0.4-3.9,0.2c-1.2-0.2-2.2-0.5-3.1-0.9c-0.6-0.3-1.2-0.7-1.7-1.2
				c-0.5-0.6-0.9-1.2-1.2-1.9c-0.3-0.7-0.5-1.4-0.5-2.1c0-0.7,0.1-1.4,0.4-2c0.4-0.7,0.7-1.3,1.1-1.6
				C404.4,197.9,404.8,197.7,405.4,197.6z M410.1,231c0.4,0.2,0.9,0.2,1.4,0.1c0.7-0.1,1.4-0.3,2.1-0.6c0.7-0.3,1.4-0.6,2-1
				c0.3-0.2,0.6-0.4,0.9-0.6s0.6-0.4,0.9-0.7c0.4-0.3,0.7-0.2,1.1,0.1c0.1,0.2,0.3,0.3,0.4,0.4c0.1,0.1,0.2,0.3,0.3,0.5
				c0.2,0.5,0.3,0.9,0.2,1.3c-0.1,0.4-0.3,0.7-0.7,1.1c-0.6,0.4-1.2,0.9-1.8,1.2s-1.3,0.7-1.9,0.8c-0.7,0.3-1.4,0.4-2.2,0.4
				c-0.8,0-1.4,0.1-1.9,0.1c-2.5-0.2-4-1.4-4.4-3.8c-0.1-0.5-0.1-1,0.1-1.5c0.1-0.5,0.3-1,0.7-1.3c0.4-0.4,0.9-0.9,1.5-1.3
				c0.4-0.3,0.8-0.6,1.3-0.9c0.4-0.3,0.8-0.6,1.3-0.9l1.2-1.1c0.6-0.6,0.5-1.1-0.3-1.4c-0.6-0.1-1.1-0.3-1.7-0.3
				c-0.2,0-0.3-0.1-0.4-0.1c-0.1,0-0.3,0-0.5,0h-1c-0.2,0-0.3,0-0.5,0s-0.3,0-0.5,0c-0.7-0.1-1.2-0.2-1.5-0.5
				c-0.3-0.2-0.5-0.7-0.7-1.3c-0.2-1,0.1-1.5,1.1-1.6c1-0.1,1.9-0.1,2.9,0c1,0.1,1.9,0.3,2.7,0.6c1.7,0.6,2.9,1.8,3.5,3.4
				c0.3,0.6,0.4,1.3,0.3,2c-0.1,0.7-0.4,1.3-0.9,1.8c-0.4,0.4-0.9,0.8-1.3,1.2c-0.4,0.4-0.9,0.8-1.5,1.1c-0.1,0-0.2,0.1-0.4,0.3
				c-0.2,0.1-0.4,0.3-0.7,0.5c-0.2,0.2-0.4,0.4-0.6,0.5c-0.2,0.2-0.3,0.3-0.4,0.4c-0.2,0.2-0.3,0.4-0.3,0.6
				C409.8,230.7,409.9,230.9,410.1,231z M407.4,199.4c-0.4,0.3-0.7,0.6-0.9,1c-0.2,0.4-0.3,0.7-0.4,1c0,0.1-0.1,0.3-0.1,0.5
				c0,0.2,0,0.4,0,0.6c0,0.2,0.1,0.4,0.1,0.7c0.1,0.2,0.2,0.4,0.3,0.5c0.3,0.4,0.8,0.7,1.3,0.8c0.5,0.2,1.1,0.3,1.7,0.3
				c0.6,0,1.2,0,1.7-0.1c0.6-0.1,1.1-0.2,1.5-0.3c0.1,0,0.3-0.1,0.5-0.3c0.2-0.2,0.3-0.3,0.4-0.4c0.1-0.2,0.3-0.4,0.3-0.8
				c0.1-0.3,0.1-0.6,0-0.9c-0.1-0.4-0.3-0.9-0.5-1.4c-0.3-0.5-0.6-0.9-0.9-1.2c-0.2-0.1-0.4-0.3-0.6-0.4c-0.2-0.1-0.4-0.2-0.6-0.3
				c-0.6-0.2-1.3-0.2-2.1-0.2C408.4,198.7,407.9,199,407.4,199.4z"/>
			<path d="M433,209.7c0,0.4-0.2,0.8-0.3,1.3c-0.2,0.5-0.4,0.9-0.6,1.3c-0.2,0.4-0.4,0.8-0.7,1.1c-0.2,0.4-0.4,0.6-0.6,0.8
				c-0.6,0.7-1.2,1.4-1.8,2.1c-0.6,0.7-1.2,1.3-1.9,2c-0.2,0.1-0.4,0.3-0.6,0.5s-0.4,0.3-0.6,0.4c-0.4,0.2-0.8,0.2-1.2-0.2
				c-0.6-0.6-0.9-1.3-1-2.2c0-0.1,0-0.3,0.1-0.5c0.1-0.2,0.2-0.3,0.3-0.5c0.4-0.4,0.7-0.8,1.1-1.1c0.4-0.3,0.7-0.7,1.1-1.1
				c0.5-0.5,1-1.1,1.4-1.7c0.4-0.6,0.8-1.1,1.1-1.7c0.2-0.3,0.4-0.6,0.6-1s0.3-0.8,0.4-1.1c0.1-0.4,0-0.7-0.4-1
				c-0.4-0.3-0.8-0.4-1.1-0.4c-0.4,0-0.8-0.1-1.3-0.1h-1.2c-0.3,0-0.5,0-0.7,0c-0.2,0-0.4,0-0.5,0c-0.5,0.1-1,0-1.3-0.2
				c-0.3-0.2-0.6-0.7-0.7-1.5c0-0.2-0.1-0.4-0.1-0.5c0-0.1,0-0.3,0-0.5c0-0.4,0.3-0.7,0.8-0.8c0.4-0.1,0.9-0.1,1.6-0.2
				c0.7-0.1,1.3,0,1.8,0c0.7,0.1,1.5,0.3,2.4,0.6c0.9,0.3,1.6,0.8,2.1,1.3l0.3,0.4c0.1,0.1,0.3,0.2,0.3,0.3
				C432.9,206.9,433.3,208.3,433,209.7z M443.3,209.7c-0.1,0.4-0.2,0.8-0.4,1.3c-0.2,0.5-0.4,0.9-0.6,1.3c-0.2,0.4-0.4,0.8-0.7,1.2
				c-0.2,0.4-0.4,0.7-0.5,0.8c-0.5,0.7-1.1,1.5-1.8,2.3s-1.4,1.5-2.1,2.2c-0.2,0.1-0.4,0.3-0.6,0.5c-0.2,0.2-0.4,0.3-0.6,0.4
				c-0.5,0.3-0.9,0.2-1.3-0.2c-0.5-0.5-0.8-1.2-0.9-2c0-0.1,0-0.3,0.1-0.6c0.1-0.2,0.2-0.4,0.3-0.6c0.4-0.4,0.8-0.9,1.4-1.4
				c0.5-0.5,1-1,1.4-1.4c0.5-0.5,0.9-1.1,1.3-1.7c0.4-0.6,0.8-1.1,1.1-1.7c0.2-0.3,0.3-0.6,0.5-0.9c0.1-0.3,0.2-0.6,0.3-0.9
				c0.2-0.5,0.1-0.9-0.4-1.2c-0.4-0.3-0.8-0.4-1.1-0.4c-0.3,0-0.7-0.1-1.2-0.2h-1.3c-0.3,0-0.6,0-0.8,0c-0.2,0-0.4,0-0.5,0
				c-0.5,0.1-1,0-1.3-0.2s-0.6-0.7-0.7-1.5c0-0.2-0.1-0.4-0.1-0.5c0-0.1,0-0.3,0-0.5c0-0.4,0.3-0.7,0.8-0.8c0.4-0.1,1-0.1,1.7-0.2
				c0.7-0.1,1.3,0,1.9,0c0.7,0.1,1.5,0.3,2.4,0.6c0.9,0.3,1.6,0.7,2.1,1.3l0.6,0.7C443.2,206.9,443.6,208.2,443.3,209.7z
				 M457.6,208.6c0.7,0.2,1.3,0.5,1.6,1c0.1,0.2,0.2,0.4,0.3,0.6c0.1,0.2,0.1,0.5,0.1,0.6c-0.1,0.3-0.2,0.6-0.4,0.6
				s-0.4,0.2-0.8,0.3c-0.2,0-0.4,0.1-0.7,0.1H456c-0.4,0-0.8,0-1.1,0.1c-0.4,0-0.9,0.1-1.7,0.1c-0.3,0-0.6,0.1-0.9,0.1
				s-0.5,0.1-0.6,0.1c-0.1,0.1-0.1,0.3-0.1,0.7v4.3c0,0.5,0,1,0,1.5c0,0.5,0,1.1-0.1,1.8c-0.1,0.8-0.1,1.5-0.2,2
				c0,0.5-0.1,1.2-0.2,2c-0.1,0.5-0.2,0.9-0.4,1.2c-0.3,0.6-0.8,0.8-1.5,0.7c-0.2,0-0.4-0.1-0.6-0.2s-0.4-0.2-0.5-0.4
				c-0.2-0.3-0.3-0.6-0.3-0.8c0-0.2,0-0.6,0.1-1.1c0.1-1,0.2-1.9,0.3-2.8c0.1-0.9,0.1-1.8,0.2-2.8c0.1-0.8,0.1-1.6,0.1-2.3
				c0-0.7,0-1.5-0.1-2.3c-0.1-1.7-0.1-3.3-0.2-4.9c-0.1-1.6-0.2-3.2-0.5-4.8c-0.1-0.4-0.1-0.8-0.1-1.1c0-0.3-0.1-0.6-0.1-1.1
				c0-0.1-0.1-0.4-0.1-0.7c-0.1-0.3-0.1-0.6-0.1-1c0-0.3-0.1-0.7-0.1-1c0-0.3,0-0.5,0-0.6c-0.1-0.6-0.1-1.2-0.2-1.7s0.2-0.9,0.6-1.1
				c0.1-0.1,0.4-0.1,0.7-0.1c0.3,0,0.6,0.1,0.8,0.2c0.4,0.2,0.7,0.6,0.9,1.1s0.4,1.1,0.4,1.7l0.6,4.5c0.1,0.7,0.1,1.5,0.2,2.2
				c0.1,0.7,0.2,1.5,0.3,2.2l0.1,0.9c0.2,0,0.5,0,1-0.1c0.4,0,0.8-0.1,1-0.1c0.9,0,1.7,0,2.2,0C456,208.4,456.7,208.5,457.6,208.6z"
				/>
			<path d="M460,202.2c-0.6-0.1-1-0.5-1.1-1c-0.1-0.6,0-1.2,0.3-1.8c0.5-1.1,1.2-1.9,2.2-2.4c0.9-0.5,1.9-0.8,3-0.9
				c0.9-0.1,1.9,0,3,0.3c1,0.3,2,0.7,2.9,1.3c0.7,0.5,1.3,1.1,1.7,1.8c0.4,0.7,0.7,1.4,0.9,2.2c0.2,0.7,0.2,1.6,0,2.5
				s-0.5,1.8-1,2.7c-1,1.7-2,3.3-3,4.9c-1,1.5-2.1,3-3.1,4.5c-0.2,0.3-0.3,0.6-0.5,1.1c-0.1,0.4-0.1,0.8,0,1.1
				c0.3,0.7,0.4,1.3,0.2,1.7c-0.2,0.4-0.5,0.6-1,0.6c-0.6,0-1.1-0.1-1.5-0.5c-0.4-0.4-0.7-0.8-1-1.3c-0.6-1.6-0.4-3,0.5-4.3
				c1.1-1.4,2.1-2.8,3.1-4.3c1-1.4,2-2.9,2.9-4.3c0.4-0.6,0.7-1.2,0.9-1.9s0.3-1.3,0.1-1.9c-0.2-1.1-0.7-1.8-1.6-2.2
				c-0.5-0.3-1.1-0.5-1.8-0.6s-1.3-0.1-1.9,0.1c-0.5,0.1-0.9,0.3-1.3,0.4c-0.4,0.1-0.7,0.5-0.9,1c-0.3,0.5-0.5,0.9-0.8,1.1
				C460.9,202.3,460.6,202.3,460,202.2z M462,224.5c0.1-0.2,0.2-0.5,0.5-0.7c0.3-0.2,0.6-0.3,1-0.3c0.4,0.1,0.7,0.3,1,0.4
				c0.3,0.1,0.5,0.2,0.7,0.4c0.2,0.1,0.4,0.3,0.6,0.6c0.2,0.2,0.4,0.6,0.6,1c0.2,0.3,0.2,0.6,0.1,0.9c-0.1,0.3-0.3,0.6-0.4,0.8
				c-0.2,0.3-0.4,0.5-0.8,0.6c-0.3,0.1-0.6,0.1-0.9,0c-0.3-0.1-0.5-0.2-0.8-0.4c-0.2-0.1-0.5-0.3-0.6-0.5
				C462.4,226.5,462,225.6,462,224.5z"/>
		</g>
	</g>
	<g id="img-mina-2">
		<path id="패스_12189" d="M430.7,731.7l-12.6,4c-0.8,0.2-1.6,0.4-2.4,0.7l0.1,0l-0.1,0c-5.4-1.8-11-2.9-16.7-3.4
			c-0.2,0-0.5-0.1-0.7-0.1c-5.4-0.5-10.9-0.3-16.3,0.5c-3.1,0.4-6.2,1.1-9.3,1.9l-0.5,0.1c-8.2,2-19,5.1-35.7,9.6
			c-14.1,3.8-26.9,11.5-36.7,22.4l-15.4,3.4c-14.1,3.8-26.2,13-33.5,25.7c-7.3,12.6-9.3,27.7-5.5,41.8l29.2,109
			c0.4,1.5,1.4,2.8,2.7,3.6c1.7,1,3.8,1.1,5.6,0.3c14.7-7.2,22.7-23.5,19.4-39.5l15.4,57.3c0.9,3.3,4.3,5.2,7.5,4.4
			c0.9-0.2,1.7-0.7,2.4-1.3c0.5-0.4,0.9-0.9,1.3-1.5c6.1-9.8,8.7-21.3,7.4-32.7c9.3,11.2,21.7,19.5,35.6,23.9c0.1,0,0.2,0.1,0.4,0.1
			c0.7,0.2,1.5,0.4,2.2,0.7c0.3,0.1,0.5,0.1,0.8,0.2c0.6,0.2,1.2,0.3,1.8,0.5c0.4,0.1,0.8,0.2,1.2,0.3c0.5,0.1,0.9,0.2,1.4,0.3
			c0.5,0.1,1.1,0.2,1.6,0.3c0.3,0.1,0.7,0.1,1,0.2c0.7,0.1,1.4,0.2,2,0.3c0.1,0,0.3,0,0.4,0.1c0.1,0,0.1,0,0.2,0
			c0.2,0,0.5,0.1,0.7,0.1c0.1,0,0.3,0,0.4,0c41.4,4.7,76.9-24.7,83.3-62.7c4.6,10.5,12.7,19.2,22.8,24.6c3,1.6,6.7,0.5,8.3-2.5
			c0.7-1.4,0.9-3,0.5-4.5L486,863.6c5.4,14.9,20,24.5,35.9,23.6c2-0.1,3.9-1.2,4.9-3c0.9-1.4,1.1-3.2,0.7-4.8l-29.1-108.7
			C490.3,741.3,460.1,723.9,430.7,731.7z M470.4,894.3C470.4,894.3,470.4,894.3,470.4,894.3C470.4,894.3,470.4,894.3,470.4,894.3
			L470.4,894.3z"/>
		<g id="그룹_149" transform="matrix(0.966, -0.259, 0.259, 0.966, 235.29, 761.875)">
			<path id="패스_12190" class="st3" d="M102,224.7c-28.3-11.7-46.8-39.3-46.8-70v-30.1c0-3.2,2.5-5.8,5.7-5.8c0.3,0,0.7,0,1,0.1
				c21,3.6,41-4.6,54.3-20.5c1.8-2,4.8-2.2,6.8-0.4c0.7,0.6,1.2,1.4,1.5,2.3c0.6,2.5,0.9,5.1,0.8,7.7c-0.1,2.4,1.7,4.5,4.2,4.6
				c0.8,0,1.6-0.2,2.4-0.6c12.5-6.6,23.1-16.3,30.8-28.1c1.4-2.1,4.3-2.7,6.4-1.3c0.6,0.4,1.1,0.9,1.4,1.5
				c7.2,12.7,18.7,22.4,32.4,27.3c2.3,0.8,3.8,3,3.8,5.5v37.9C206.7,208.8,151.5,245.3,102,224.7L102,224.7z"/>
			<path id="패스_12191" class="st4" d="M206.6,11.6l-15.7,0.7c-12.3-8-26.6-12.2-41.3-12.2l-37.4,0c-14.6,0-29,4.2-41.3,12.1
				l-15.7-0.7c-30.4,0-55.1,24.6-55.1,55.1l0,113c0,3.2,2.6,5.8,5.8,5.9c0.4,0,0.7,0,1.1-0.1c16.9-3.3,29.1-18.1,29.1-35.3v61.4
				c0,3.4,2.8,6.1,6.2,6.1c1.5,0,3-0.6,4.1-1.6c8.4-7.9,13.9-18.4,15.7-29.7c-4.5-9.9-6.9-20.6-6.9-31.5v-30.1
				c0-3.2,2.5-5.8,5.7-5.8c0.3,0,0.7,0,1,0.1c20.5,3.4,41.2-4.4,54.4-20.5c1.6-1.9,4.5-2.2,6.4-0.6c0.8,0.7,1.3,1.5,1.5,2.5
				c0.6,2.4,0.8,4.9,0.8,7.4c0,2.5,2,4.6,4.5,4.7c0.8,0,1.5-0.2,2.2-0.5c12.5-6.6,23.1-16.3,30.9-28.1c1.4-2.1,4.3-2.8,6.4-1.4
				c0.6,0.4,1.1,0.9,1.5,1.6c7.2,12.6,18.6,22.3,32.3,27.2c2.3,0.8,3.8,3,3.8,5.5v37.9c0,10.9-2.3,21.6-6.9,31.5
				c1.7,11.4,7.3,21.9,15.7,29.7c2.5,2.3,6.4,2.2,8.7-0.3c1.1-1.1,1.7-2.7,1.7-4.2V150c0,17.1,12,31.8,28.7,35.2
				c3.3,0.6,6.5-1.5,7.1-4.8c0.1-0.4,0.1-0.8,0.1-1.2V66.7C261.6,36.2,237,11.6,206.6,11.6L206.6,11.6z"/>
			<path id="패스_12192" class="st5" d="M172.9,15.4h-37.8c-42,0-76.1,34.1-76.1,76.1v24.5c0,4.4-3.8,4.1-3.8,8.6
				c0,31-1.4,42.7,6.2,60c0.5,1.1,0.6,2.3,0.3,3.4c-2,10.7-7.4,20.4-15.3,27.9c-2.5,2.3-6.4,2.2-8.7-0.3c-1.1-1.1-1.7-2.7-1.7-4.2
				V76.2c0-21.4,8.9-41.7,24.7-56.2c-26.3,4.7-45.4,27.5-45.3,54.2V175c0,5-3.5,9.3-8.4,10.3c-3.2,0.6-6.2-1.5-6.8-4.6
				C0,180.3,0,179.9,0,179.5L0,66.7c0-30.4,24.6-55,55.1-55l15.7,0.7c12.3-8,26.7-12.2,41.3-12.2c39.7,0,47.4-1.1,62.7,4.3
				C180.9,6.5,179.2,15.4,172.9,15.4L172.9,15.4z"/>
			<path id="패스_12193" class="st6" d="M258.8,173.7c5.8,4.3,2.1,12.9-4.4,11.6c-16.7-3.4-28.7-18.2-28.7-35.2V76.2
				c0-25.9-13.1-50-34.9-64c20.8-1.1,40.1,11.1,47.8,30.5c3.6,9,5.4,18.5,5.3,28.1v73.8C244,156.2,249.5,166.9,258.8,173.7z"/>
			<path id="패스_12194" class="st7" d="M113.8,203.7c12.4,7.8,2.6,26.9-11,21.4c-28.7-11.5-47.6-39.3-47.6-70.3v-31
				c0-2.5,2-4.5,4.5-4.6c0.3,0,0.5,0,0.8,0.1c2.1,0.3,4.2,0.6,6.2,0.7c6.4,0.4,11.4,5.7,11.4,12.1v7.5
				C78.1,165.6,91.6,189.9,113.8,203.7L113.8,203.7z"/>
			<path id="패스_12195" class="st8" d="M125.7,184.3c-1.1,0-2.1-0.9-2.1-2.1c0-0.1,0-0.2,0-0.2c0.4-3.7,1.9-10.5,7.3-10.5
				c5.5,0,6.9,6.8,7.3,10.5c0.1,1.1-0.7,2.2-1.8,2.3c-0.1,0-0.2,0-0.2,0H125.7z"/>
			<path id="패스_12196" class="st4" d="M152.5,116c1.2-1.6,2.7-2.8,4.5-3.7c1.7-0.9,3.5-1.6,5.4-2c1.8-0.5,3.8-0.6,5.7-0.6
				c1.9,0.1,3.8,0.3,5.6,0.5c1.9,0.2,3.7,0.5,5.6,1c1.8,0.5,3.6,1.1,5.3,1.8c1.7,0.7,3.4,1.7,4.9,2.7c1.5,1.1,2.9,2.4,3.9,3.9
				c0.1,0.1,0,0.3-0.1,0.3c-0.1,0.1-0.2,0.1-0.3,0c-2.7-2.3-5.8-3.9-9.3-4.7c-1.7-0.4-3.4-0.7-5.1-0.9c-1.7-0.2-3.4-0.3-5.2-0.3
				c-1.7,0-3.5,0.2-5.2,0.4c-1.7,0.2-3.4,0.4-5.1,0.5c-1.7,0.1-3.4,0.3-5.1,0.5c-1.7,0.2-3.4,0.5-5.3,0.9c-0.1,0-0.3-0.1-0.3-0.2
				C152.4,116.2,152.5,116.1,152.5,116z"/>
			<g id="그룹_143" transform="translate(152.225 130.788)">
				<path id="패스_12197" class="st0" d="M18.7,0.3h-1.9C7.6,0.3,0.1,5.1,0.1,14.3c0,0,0,5.1,5.2,5.1l35.3-1.2
					C40.6,18.1,40.6,0.3,18.7,0.3z"/>
				<path id="패스_12198" class="st8" d="M18.7,0.3c-1.5,0-2.9,0-4.4,0.1c-1.4,0.1-2.9,0.4-4.3,0.9C7.2,2.1,4.7,3.8,2.9,6
					c-1.8,2.3-2.7,5.2-2.7,8.1c0,1.4,0.5,2.8,1.6,3.9c1.1,0.9,2.5,1.4,4,1.2l34.9-1.3l-0.2,0.2c-0.1-2.6-0.8-5.1-2-7.4
					c-1.2-2.3-2.9-4.3-4.9-5.9c-1-0.8-2.2-1.4-3.3-2c-1.2-0.5-2.4-0.9-3.7-1.3c-2.5-0.6-5.1-0.9-7.7-0.9L18.7,0.3z M18.7,0
					c2.7,0,5.3,0.3,7.9,1c1.3,0.3,2.6,0.8,3.8,1.3c1.2,0.6,2.4,1.3,3.4,2c2.1,1.6,3.9,3.7,5.1,6.1c1.2,2.4,1.9,5,2,7.7l0,0.2l-0.2,0
					L5.7,19.4c-1.5,0.1-3-0.3-4.1-1.3c-1-1.1-1.6-2.5-1.6-4c0-3,0.9-5.8,2.8-8.2C4.7,3.7,7.2,2.1,10,1.3c1.4-0.4,2.8-0.7,4.3-0.8
					c1.5-0.1,2.9-0.1,4.4-0.1V0z"/>
			</g>
			<g id="그룹_145" transform="translate(152.312 131.135)">
				<g>
					<defs>
						<path id="SVGID_1_" d="M18.6,0l-1.9,0C7.5,0,0,4.7,0,13.9c0,0,0,5.1,5.2,5.1l35.3-1.2C40.5,17.8,40.5,0,18.6,0z"/>
					</defs>
					<clipPath id="SVGID_2_">
						<use xlink:href="#SVGID_1_"  style="overflow:visible;"/>
					</clipPath>
					<g id="그룹_144" class="st9">
						
							<ellipse id="타원_109" transform="matrix(-0.9659 -0.259 0.259 -0.9659 29.0374 25.0711)" class="st10" cx="16.2" cy="10.6" rx="11.3" ry="11.3"/>
						
							<ellipse id="타원_110" transform="matrix(-0.9659 -0.259 0.259 -0.9659 25.3262 22.0742)" cx="14.1" cy="9.4" rx="7.2" ry="7.2"/>
						
							<ellipse id="타원_111" transform="matrix(-0.9659 -0.259 0.259 -0.9659 18.6197 13.3328)" class="st0" cx="10.2" cy="5.4" rx="3.3" ry="3.3"/>
					</g>
				</g>
			</g>
			<path id="패스_12200" class="st4" d="M192.8,148.9c-0.3-5.5-3.2-10.6-7.8-13.7c-1.1-0.8-2.3-1.4-3.6-1.9
				c-0.6-0.3-1.3-0.4-1.9-0.7c-0.7-0.1-1.3-0.4-2-0.5l-1-0.2c-0.3-0.1-0.7-0.1-1-0.1c-0.7-0.1-1.3-0.1-2-0.2c-1.4-0.1-2.7-0.1-4.1,0
				c-2.7,0-5.4,0.4-7.9,1.4c-2.5,0.9-4.7,2.5-6.3,4.5c-0.8,1-1.4,2.2-1.8,3.5c-0.4,1.3-0.6,2.6-0.7,3.9c0,1.3,0.4,2.6,1.2,3.5
				c0.4,0.5,1,0.9,1.6,1.1c0.6,0.2,1.3,0.4,2,0.4v0.1c-1.4,0.2-2.9-0.3-4-1.3c-0.5-0.5-1-1.1-1.2-1.8c-0.3-0.7-0.5-1.4-0.5-2.2
				c-0.1-2.9,0.7-5.8,2.3-8.2c0.8-1.2,1.9-2.2,3.1-3.1c1.2-0.8,2.5-1.5,3.8-2c2.7-0.9,5.5-1.3,8.4-1.2c2.8,0,5.6,0.2,8.3,0.8
				c0.7,0.1,1.4,0.4,2,0.5c0.7,0.2,1.3,0.4,2,0.7c1.3,0.5,2.5,1.2,3.7,2c2.3,1.6,4.2,3.8,5.4,6.3c1.3,2.5,2,5.2,2.1,8L192.8,148.9z"
				/>
			<path id="패스_12201" class="st6" d="M109.7,116.3C109.7,116.3,109.7,116.3,109.7,116.3C109.7,116.2,109.7,116.2,109.7,116.3
				c-0.1,0-0.1,0-0.1,0.1c0,0.1,0,0.2,0,0.2c0,0,0,0,0,0l0,0l-0.1,0c-0.2-0.1-0.5-0.1-0.7-0.2c-0.5-0.1-0.9-0.2-1.3-0.3
				c-0.9-0.2-1.8-0.3-2.6-0.5c-1.7-0.3-3.5-0.4-5.2-0.6c-1.7-0.1-3.5-0.3-5.2-0.6c-1.8-0.3-3.5-0.4-5.3-0.5c-1.8,0-3.5,0.1-5.3,0.3
				c-1.8,0.2-3.5,0.5-5.2,1c-1.7,0.4-3.4,1.1-5,1.9c-0.8,0.4-1.6,0.9-2.3,1.4c-0.4,0.3-0.7,0.5-1.1,0.8c-0.2,0.1-0.3,0.3-0.5,0.5
				c0,0-0.1,0.1-0.1,0.1c0,0,0-0.1,0-0.1c0,0-0.1-0.1-0.1,0c0,0,0,0,0,0l0.1,0l0.2,0.4l-0.1,0c-0.1,0-0.1,0.1-0.2,0.1
				c-0.2,0-0.3-0.1-0.4-0.2c-0.1-0.1-0.1-0.3,0-0.5l0.1-0.2c0.1-0.2,0.3-0.4,0.4-0.6c0.3-0.4,0.6-0.7,0.9-1.1
				c0.7-0.7,1.4-1.3,2.2-1.9c1.6-1.1,3.2-2.1,5-2.9c1.8-0.8,3.6-1.4,5.5-1.9c1.9-0.5,3.8-0.8,5.7-1c1.9-0.2,3.8-0.4,5.8-0.5
				c2-0.1,3.9,0.1,5.8,0.6c1.9,0.5,3.8,1.2,5.5,2.1c0.9,0.5,1.7,1.1,2.5,1.7c0.4,0.3,0.7,0.7,1.1,1c0.2,0.2,0.3,0.4,0.5,0.6l0.1,0.1
				l0,0c0,0,0,0,0.1,0.1c0.1,0.1,0.2,0.4,0.1,0.6c-0.1,0.2-0.2,0.3-0.4,0.3c-0.1,0-0.2,0-0.2,0c0,0-0.1,0-0.1-0.1L109.7,116.3z"/>
			<g id="그룹_146" transform="translate(69.366 130.788)">
				<path id="패스_12202" class="st0" d="M22.2,0.3h1.9c9.2,0,16.7,4.7,16.7,13.9c0,0,0,5.1-5.2,5.1L0.2,18.1
					C0.2,18.1,0.2,0.3,22.2,0.3z"/>
				<path id="패스_12203" class="st8" d="M22.2,0.3c1.5,0,2.9,0,4.4,0.1c1.5,0.1,2.9,0.4,4.3,0.8c2.8,0.8,5.4,2.4,7.3,4.7
					c1.8,2.3,2.8,5.2,2.8,8.2c0,1.5-0.5,2.9-1.6,4c-1.1,1-2.6,1.5-4.1,1.3L0.2,18.4l-0.2,0l0-0.2c0.1-2.7,0.8-5.3,2-7.7
					C3.2,8,4.9,5.9,7.1,4.3c1.1-0.8,2.2-1.5,3.4-2c1.2-0.6,2.5-1,3.8-1.3c2.6-0.7,5.2-1,7.9-1L22.2,0.3z M22.2,0.7
					c-2.6,0-5.2,0.3-7.7,0.9c-1.3,0.3-2.5,0.7-3.7,1.3C9.6,3.4,8.5,4,7.4,4.8c-2.1,1.6-3.8,3.6-4.9,5.9c-1.2,2.3-1.9,4.9-2,7.4
					l-0.2-0.2l34.9,1.3c1.4,0.2,2.9-0.3,4-1.2c1-1,1.6-2.4,1.6-3.9c0-2.9-0.9-5.8-2.7-8.1c-1.9-2.2-4.4-3.9-7.2-4.7
					c-1.4-0.4-2.8-0.7-4.3-0.9c-1.4-0.2-2.9-0.1-4.4-0.1V0.7z"/>
			</g>
			<g id="그룹_148" transform="translate(69.611 131.135)">
				<g>
					<defs>
						<path id="SVGID_3_" d="M21.9,0l1.9,0C33,0,40.5,4.7,40.5,13.9c0,0,0,5.1-5.2,5.1L0,17.8C0,17.8,0,0,21.9,0z"/>
					</defs>
					<clipPath id="SVGID_4_">
						<use xlink:href="#SVGID_3_"  style="overflow:visible;"/>
					</clipPath>
					<g id="그룹_147" class="st11">
						
							<ellipse id="타원_112" transform="matrix(-0.9659 -0.259 0.259 -0.9659 45.1105 27.1884)" class="st10" cx="24.3" cy="10.6" rx="11.3" ry="11.3"/>
						
							<ellipse id="타원_113" transform="matrix(-0.9659 -0.259 0.259 -0.9659 41.4012 24.1918)" cx="22.3" cy="9.4" rx="7.2" ry="7.2"/>
						
							<ellipse id="타원_114" transform="matrix(-0.9659 -0.259 0.259 -0.9659 34.6947 15.4504)" class="st0" cx="18.4" cy="5.4" rx="3.3" ry="3.3"/>
					</g>
				</g>
			</g>
			<path id="패스_12205" class="st4" d="M69.5,148.9c0.1-2.8,0.8-5.5,2.1-8c1.3-2.5,3.1-4.7,5.4-6.3c1.1-0.8,2.4-1.5,3.7-2
				c0.6-0.3,1.3-0.5,2-0.7c0.7-0.2,1.3-0.4,2-0.5c2.7-0.6,5.5-0.8,8.3-0.8c2.8-0.1,5.7,0.3,8.4,1.2c1.4,0.5,2.6,1.1,3.8,2
				c1.2,0.8,2.2,1.9,3.1,3.1c1.6,2.4,2.4,5.3,2.3,8.2c0,0.7-0.2,1.5-0.5,2.2c-0.3,0.7-0.7,1.3-1.2,1.8c-1.1,1-2.5,1.4-4,1.3v-0.1
				c0.7,0,1.3-0.2,2-0.4c0.6-0.2,1.1-0.6,1.6-1.1c0.8-1,1.3-2.3,1.2-3.5c-0.1-1.3-0.3-2.6-0.7-3.9c-0.4-1.2-1-2.4-1.8-3.5
				c-1.6-2.1-3.8-3.6-6.3-4.5c-2.5-0.9-5.2-1.4-7.9-1.4c-1.4,0-2.7,0-4.1,0c-0.7,0-1.4,0.1-2,0.2c-0.3,0-0.7,0.1-1,0.1l-1,0.2
				c-0.7,0.1-1.3,0.3-2,0.5c-0.6,0.2-1.3,0.4-1.9,0.7c-1.3,0.5-2.5,1.1-3.6,1.9c-4.6,3.1-7.4,8.2-7.7,13.7H69.5z"/>
			<path id="패스_12206" class="st12" d="M103.9,200.1"/>
			<path id="패스_12207" class="st13" d="M159,194.3c-1.2,0.9-2.4,2.5-28.1,2.5s-26.9-1.7-28-2.5c0,0,5.4,17.2,28.1,17.2
				S159,194.3,159,194.3z"/>
			<path id="패스_12208" class="st14" d="M159,194.3c-0.7,0.5-2.4,2.5-28.1,2.5s-27.3-1.9-28-2.5c0,0,3.6,6.4,6.5,7.1
				c7,1.9,14.3,2.9,21.6,2.9c8.1,0,16.1-1.1,23.9-3.5C156.5,200.2,159,194.3,159,194.3z"/>
			<path id="패스_12209" class="st15" d="M159,194.3c-0.7,0.5-2.4,2.5-28.1,2.5s-27.3-1.9-28-2.5c0,0,2.2,6.7,3.7,7
				c0.4-0.5,0.4-4.1,24.3-4.1s23.8,3.5,24.7,4C157.3,199.3,158.5,196.9,159,194.3z"/>
			<path id="패스_12210" class="st16" d="M130.9,196.9c0,0,24.1,0.8,27.9-2.4l0.1-0.1c-2.4,1.7-13.2,0.9-14.3,0.7
				c-9.1-1.8-18.4-1.8-27.5,0c-1.1,0.2-11.9,1-14.3-0.7C106.6,197.6,116.5,196.9,130.9,196.9z"/>
			<path id="패스_12211" class="st17" d="M131,213.6c26.1,0,28.1-19.3,28.1-19.3c-0.5,3.3-8.9,13.6-28.1,13.6
				s-27.6-10.1-28.1-13.6C102.9,194.3,104.9,213.6,131,213.6z"/>
		</g>
	</g>
</g>
</svg>
