<?xml version="1.0" encoding="utf-8"?>
<!-- Generator: Adobe Illustrator 25.2.0, SVG Export Plug-In . SVG Version: 6.00 Build 0)  -->
<svg version="1.1" id="Layer_1" xmlns="http://www.w3.org/2000/svg" xmlns:xlink="http://www.w3.org/1999/xlink" x="0px" y="0px"
	 viewBox="0 0 698.6 589.2" style="enable-background:new 0 0 698.6 589.2;" xml:space="preserve">
<style type="text/css">
	.st0{fill:#FFFFFF;}
	.st1{enable-background:new    ;}
	.st2{clip-path:url(#SVGID_2_);}
	.st3{fill:none;}
	.st4{fill:#5D1FFF;}
	.st5{fill:#1DB6CC;}
	.st6{fill:#0964FF;}
	.st7{fill:#414853;}
	.st8{clip-path:url(#SVGID_4_);}
</style>
<g id="img-baam" transform="translate(-741.742 -406.441) rotate(9)">
	<g id="그룹_65" transform="translate(872.977 273.241)">
		<path id="패스_1440" class="st0" d="M398.6,1.5c0,0-56.1,128.5-160.5,11.2c6.1,12.2,10.4,25.2,12.5,38.7
			c4.9,33.3-21,63.3-54.6,64.4c-23.2,0.7-57.4-4-92.3-29.3c0,0,102.1,110.3-61.4,137.2c0,0,204.3,7,23.3,127.8
			c0,0,190.9-74.4,98.3,104.4c0,0,119-147.8,184.2-30.3c0,0,28.6-119.5,143.4-50.5c0,0-73.2-115.4,92.5-105.7
			c0,0-123-59.6,22.9-121.3c0,0-138.8,21.8-75.7-95.7C531.1,52.4,443,130.1,398.6,1.5z"/>
		<path id="패스_1441" d="M398.6,1.5c-3.5,7.7-7.8,15.1-12.7,22c-4.9,7-10.4,13.4-16.6,19.2c-6.2,5.9-13.3,10.7-21.1,14.4
			c-7.8,3.7-16.3,5.7-24.9,6c-4.3,0.1-8.6-0.1-12.9-0.8c-4.2-0.7-8.4-1.8-12.5-3.2c-8.1-2.8-15.8-6.7-23-11.4
			c-7.2-4.7-14-9.9-20.3-15.6c-6.3-5.7-12.4-11.7-18.1-18.1l3.2-2.2c2.3,4.4,4.3,9,6.1,13.6c1.8,4.6,3.3,9.4,4.6,14.2
			c1.3,4.8,2.2,9.8,2.8,14.7c0.5,5.1,0.3,10.2-0.6,15.2c-0.9,5-2.4,9.9-4.6,14.6c-2.2,4.6-4.9,9-8.2,12.9
			c-6.6,7.9-15.1,14-24.7,17.7c-4.8,1.8-9.8,3-14.9,3.6c-1.3,0.2-2.6,0.2-3.8,0.3c-1.3,0.1-2.5,0.1-3.8,0.1s-2.5,0-3.7,0
			s-2.5,0-3.7-0.1c-5-0.2-10-0.6-14.9-1.3c-2.5-0.4-4.9-0.7-7.4-1.2l-3.7-0.7l-3.6-0.9c-19.4-4.9-37.8-13.4-54-25.2l4.7-5.2
			c3,3.3,5.7,6.6,8.3,10.1c2.6,3.5,5,7,7.3,10.7c4.7,7.3,8.6,15.2,11.7,23.3c3.2,8.3,5.1,17.1,5.4,26c0.3,9.2-1.7,18.2-5.9,26.4
			c-4.3,8-10.2,15-17.5,20.5c-3.5,2.7-7.2,5.2-11,7.3c-1.9,1.1-3.9,2.1-5.8,3.1c-2,0.9-4,1.9-6,2.7c-16.1,6.9-32.9,10.9-49.8,13.8
			l-0.6-8.8c5,0.2,9.8,0.6,14.7,1.1c4.9,0.5,9.7,1.1,14.6,1.8c9.7,1.4,19.4,3.5,28.8,6.3c4.8,1.4,9.5,3.1,14.1,5.1
			c4.7,2,9.2,4.4,13.5,7.3c4.5,3,8.4,6.8,11.5,11.2c3.3,4.7,5.2,10.2,5.4,15.9c0.1,5.5-0.9,11-3,16.1c-2,4.8-4.5,9.3-7.5,13.6
			c-5.9,8.1-12.5,15.5-19.9,22.3c-14.4,13.4-30.2,24.9-46.3,35.8l-4.6-8.8c4.8-1.8,9.4-3.3,14.1-4.8c4.7-1.5,9.5-2.8,14.2-4.1
			c9.6-2.5,19.3-4.4,29.2-5.7c10-1.4,20.2-1.5,30.3-0.5c5.2,0.6,10.4,1.8,15.3,3.5c5.2,1.9,10,4.7,14.1,8.3
			c4.2,3.7,7.5,8.4,9.6,13.6c2,5,3.3,10.3,3.6,15.7c0.4,5.2,0.2,10.4-0.5,15.5c-0.1,1.3-0.3,2.5-0.6,3.8s-0.4,2.5-0.7,3.8
			c-0.6,2.5-1,5-1.7,7.4c-2.6,9.6-5.8,19-9.7,28.2c-3.8,9.1-8.1,18-12.5,26.7l-8.7-5.7c3.2-3.9,6.3-7.4,9.6-11
			c3.3-3.6,6.7-7,10.1-10.4c6.9-6.8,14.1-13.3,21.6-19.4c7.5-6.2,15.5-11.9,23.7-17.1c8.3-5.3,17.2-9.7,26.4-13.3
			c9.4-3.7,19.3-5.8,29.4-6.3c10.3-0.4,20.6,1.5,30.1,5.8c4.7,2.1,9.1,4.7,13.2,7.8c4,3.1,7.8,6.5,11.3,10.2
			c6.7,7.4,12.5,15.5,17.2,24.2l-9.3,1.3c0.3-1.1,0.5-2,0.8-3c0.3-1,0.6-1.9,0.9-2.9c0.6-1.9,1.3-3.8,2-5.6c1.4-3.7,3-7.4,4.7-11
			c3.5-7.2,7.6-14.1,12.4-20.5c4.9-6.5,10.6-12.3,17-17.3c6.5-5,13.8-8.9,21.6-11.6c7.8-2.6,16-3.8,24.2-3.7c4,0,8.1,0.3,12.1,0.9
			c1,0.1,2,0.3,3,0.5l3,0.5c1.9,0.5,3.9,0.8,5.8,1.4c15.5,4,29.8,11,43.2,19l-6.3,6.5c-0.6-1-1.1-1.9-1.6-2.8
			c-0.5-0.9-1-1.8-1.5-2.7c-1-1.8-1.9-3.7-2.8-5.6c-1.8-3.7-3.3-7.6-4.8-11.5c-2.9-7.9-4.8-16.1-5.7-24.4c-1-8.6,0-17.3,2.7-25.6
			c1.5-4.2,3.5-8.1,6.1-11.7c2.6-3.6,5.6-6.8,9-9.5c3.3-2.7,6.9-5.1,10.8-7c3.7-1.9,7.6-3.6,11.6-4.9c7.9-2.6,16-4.4,24.2-5.4
			c16.3-2.1,32.5-2,48.7-1l-2,7.5c-3.6-1.8-6.8-3.7-10.1-5.7c-3.2-2-6.4-4.2-9.5-6.5c-6.3-4.6-12-9.8-17.1-15.6
			c-5.4-5.9-9.4-12.9-11.9-20.6c-2.5-7.9-2.2-16.5,0.7-24.3c1.4-3.8,3.3-7.4,5.6-10.7c2.2-3.2,4.8-6.3,7.5-9
			c5.5-5.4,11.5-10.3,18-14.5c12.7-8.4,26.4-14.9,40.3-20.8l1.6,5.7c-7.2,0.9-14.5,1.4-21.8,1.5c-7.3,0.1-14.6-0.4-21.8-1.3
			c-7.3-0.9-14.5-2.7-21.4-5.2c-6.9-2.7-13.6-6.5-18.9-12c-2.6-2.7-4.9-5.9-6.6-9.3c-1.7-3.4-2.9-7-3.6-10.7
			c-0.7-3.7-1-7.4-0.8-11.2c0.1-3.7,0.5-7.4,1.3-11c1.4-7.1,3.6-14.1,6.4-20.8c2.8-6.7,5.9-13.2,9.4-19.5l2.7,2.2
			c-2.9,2.4-5.9,4.6-9,6.7c-3.1,2-6.3,3.9-9.6,5.7c-6.6,3.5-13.5,6.3-20.7,8.2c-7.2,2-14.7,2.8-22.2,2.5c-7.5-0.4-14.8-2.2-21.6-5.4
			c-6.7-3.2-12.9-7.5-18.2-12.7c-5.3-5.2-9.9-10.9-13.9-17.2C409,29.1,403.3,15.4,398.6,1.5z M398.6,1.5c5,13.8,11,27.3,19.2,39.4
			c4.1,6.1,8.8,11.7,14.1,16.6c5.3,5,11.3,9.1,17.9,12.1c6.6,2.9,13.7,4.6,20.9,4.8c7.2,0.2,14.4-0.7,21.3-2.8
			c6.9-2,13.6-4.8,19.9-8.4c3.2-1.7,6.2-3.6,9.2-5.7c3-2,5.8-4.2,8.6-6.5l7.1-6.1l-4.3,8.3c-3.3,6.3-6.3,12.7-8.9,19.3
			c-2.6,6.5-4.6,13.3-5.9,20.2c-0.6,3.4-1,6.9-1,10.3c-0.1,3.4,0.2,6.8,0.9,10.2c1.3,6.6,4.5,12.7,9.2,17.5
			c4.9,4.7,10.8,8.3,17.2,10.5c6.5,2.3,13.3,3.9,20.2,4.7c7,0.8,14,1.2,21,1c7-0.1,14-0.7,20.9-1.7l22.3-3.3l-20.6,9
			c-13.6,5.9-26.9,12.5-39,20.7c-6,4-11.6,8.6-16.7,13.8c-4.9,5.1-9.1,11-11.4,17.4c-2.3,6.4-2.4,13.3-0.4,19.7
			c2.3,6.6,5.9,12.6,10.6,17.8c4.8,5.4,10.2,10.2,16,14.4c2.9,2.1,5.9,4.2,9,6.1c3.1,1.9,6.3,3.7,9.4,5.3l17,8.4l-19-1
			c-15.8-0.8-31.6-0.8-47.1,1.4c-7.7,1-15.2,2.8-22.5,5.2c-3.6,1.2-7,2.7-10.4,4.5c-3.3,1.7-6.4,3.8-9.2,6.1
			c-5.6,4.6-9.8,10.6-12.2,17.5c-2.3,7-3,14.4-2.2,21.7c0.8,7.6,2.6,15,5.3,22.1c1.3,3.6,2.8,7.2,4.5,10.6c0.8,1.7,1.7,3.5,2.6,5.2
			c0.5,0.8,0.9,1.7,1.4,2.5c0.5,0.8,1,1.7,1.4,2.4l10.2,16.3l-16.5-9.9c-12.9-7.7-26.5-14.2-40.7-17.8c-1.8-0.5-3.6-0.8-5.3-1.2
			l-2.7-0.5c-0.9-0.2-1.8-0.3-2.7-0.4c-3.6-0.5-7.2-0.7-10.8-0.7c-7.1,0-14.3,1.1-21,3.4c-6.7,2.3-13.1,5.8-18.7,10.2
			c-5.7,4.5-10.7,9.7-15,15.5c-4.4,5.9-8.2,12.2-11.3,18.8c-1.6,3.3-3,6.7-4.3,10.2c-0.6,1.7-1.3,3.5-1.8,5.2
			c-0.3,0.9-0.6,1.7-0.8,2.6c-0.3,0.8-0.5,1.8-0.7,2.5l-3.1,12.4l-6.2-11.1c-4.4-8-9.7-15.4-15.8-22.2c-3.1-3.2-6.4-6.2-9.9-8.9
			c-3.5-2.6-7.3-4.9-11.3-6.7c-8-3.6-16.8-5.2-25.5-4.8c-9,0.5-17.8,2.4-26.2,5.7c-17,6.5-32.7,17-47.1,28.7
			c-7.2,5.9-14.2,12.2-20.8,18.8c-3.3,3.3-6.6,6.7-9.8,10.1c-3.2,3.4-6.3,7-9.2,10.5L136.9,497l22.4-43.5
			c4.4-8.5,8.5-17.1,12.2-25.9c3.7-8.7,6.8-17.6,9.3-26.8c0.6-2.3,1.1-4.5,1.6-6.8c0.2-1.1,0.4-2.3,0.6-3.4s0.4-2.3,0.5-3.4
			c0.6-4.5,0.8-9,0.5-13.5c-0.6-8.8-3.6-17-9.8-22.4c-3.2-2.8-6.9-4.9-10.8-6.4c-4.2-1.5-8.6-2.5-13-3c-9.2-1-18.6-0.8-27.8,0.4
			c-9.4,1.2-18.7,3-27.9,5.4c-4.6,1.2-9.2,2.5-13.8,3.9c-4.5,1.4-9.1,2.9-13.4,4.6l-40.7,15.4l36.1-24.2
			c15.8-10.6,31.4-21.8,45.2-34.6c6.9-6.2,13.2-13.1,18.7-20.6c2.6-3.6,4.8-7.5,6.5-11.6c1.6-3.8,2.5-7.9,2.4-12.1
			c-0.2-4-1.5-7.8-3.7-11.1c-2.5-3.5-5.5-6.5-9.1-8.8c-3.7-2.6-7.7-4.7-11.8-6.5c-4.3-1.8-8.6-3.4-13.1-4.8
			c-9-2.7-18.2-4.7-27.6-6.2c-4.7-0.7-9.4-1.3-14.1-1.8c-4.7-0.5-9.5-0.9-14.1-1.1L0,226.1l41.6-6.8c16.4-2.7,32.8-6.5,47.9-12.8
			c1.9-0.8,3.7-1.7,5.6-2.5c1.8-0.9,3.7-1.8,5.4-2.8c3.5-1.9,6.9-4.1,10.1-6.6c6.4-4.7,11.6-10.7,15.4-17.7c3.6-7,5.4-14.7,5.2-22.6
			c-0.2-8-1.8-16-4.7-23.5c-2.9-7.7-6.5-15.1-10.9-22c-2.2-3.5-4.5-6.9-6.9-10.3c-2.4-3.3-5-6.6-7.7-9.6L79,63.9l26.8,19.7
			c15.4,11.5,32.8,19.9,51.4,24.8l3.5,0.9l3.5,0.7c2.3,0.5,4.7,0.9,7.1,1.3c4.7,0.7,9.5,1.2,14.3,1.4c1.2,0.1,2.4,0.1,3.6,0.1
			c1.2,0,2.4,0.1,3.6,0s2.4,0,3.6-0.1c1.2-0.1,2.3-0.1,3.5-0.2c4.6-0.4,9.2-1.5,13.6-3.1c13.3-4.9,24.2-14.7,30.3-27.5
			c2-4.2,3.5-8.7,4.4-13.3c0.8-4.6,1.1-9.3,0.7-14c-0.5-4.7-1.3-9.5-2.5-14.1c-1.2-4.7-2.6-9.3-4.2-13.8c-1.6-4.5-3.5-8.9-5.6-13.2
			L229.4,0l10.1,11.5c11.1,12.6,23.2,24.4,37.1,33.7c6.9,4.7,14.3,8.6,22.2,11.5c3.9,1.4,7.9,2.5,12,3.3c4.1,0.7,8.2,1.1,12.4,1
			c8.4-0.1,16.6-2,24.2-5.4c7.7-3.5,14.7-8.1,21-13.7c6.3-5.6,12-11.9,16.9-18.7C390.5,16.4,394.9,9.1,398.6,1.5z"/>
	</g>
	<g id="그룹_66" transform="translate(938.288 253.059)">
		<path id="패스_1442" d="M204.1,27.3c7.5,8.5,16.5,15.7,26.4,21.2c4.9,2.6,10.1,4.5,15.5,5.7c5.3,1.1,10.8,1.3,16.2,0.5
			c5.4-0.8,10.7-2.4,15.6-4.8l3.7-1.9c0.6-0.3,1.2-0.7,1.8-1l1.8-1.1c2.4-1.4,4.6-3.2,6.9-4.8l0.9-0.6l0.8-0.7l1.6-1.4l3.2-2.7
			c2-2,4.1-3.9,6.2-5.9c2-2.1,4-4.1,5.9-6.2c1.9-2.2,3.8-4.3,5.7-6.5c-1.5,2.5-3,4.9-4.6,7.4c-1.6,2.4-3.4,4.7-5.1,7
			c-1.8,2.3-3.8,4.4-5.7,6.6c-1,1.1-2.1,2.1-3.1,3.1l-1.6,1.5l-0.8,0.8l-0.8,0.7c-2.2,2-4.5,3.8-6.9,5.5l-1.8,1.3
			c-0.6,0.4-1.2,0.8-1.9,1.2l-3.9,2.2c-5.4,2.8-11.1,4.6-17.1,5.5c-6,0.8-12.1,0.5-18-0.9c-5.8-1.4-11.4-3.8-16.4-7
			c-5-3.1-9.6-6.8-13.7-11C210.8,36.8,207.2,32.2,204.1,27.3z"/>
		<path id="패스_1443" d="M236.8,35.8c7.2,1.9,14.6,2.6,22,2.2c7.3-0.4,14.4-2.4,20.8-5.7c3.2-1.6,6.3-3.6,9.1-6
			c0.7-0.6,1.4-1.1,2.1-1.8c0.7-0.6,1.4-1.2,2-1.9c1.2-1.3,2.6-2.6,3.7-4c4.7-5.7,8.8-11.9,12.2-18.5c-2.3,7.2-5.8,14-10.3,20.1
			c-4.6,6.2-10.5,11.3-17.3,14.9c-3.4,1.8-7.1,3.1-10.8,4c-3.7,0.9-7.6,1.3-11.4,1.4c-3.8,0-7.6-0.3-11.3-1.1
			C243.8,38.5,240.2,37.3,236.8,35.8z"/>
		<path id="패스_1444" d="M308.6,452.9c0.3-3.2,0.8-6.4,1.6-9.5c0.8-3.1,1.7-6.3,2.8-9.3c2.2-6.2,5.3-12,9.1-17.3
			c3.8-5.4,8.6-10.2,14-14c5.5-3.8,11.7-6.7,18.2-8.3c6.5-1.6,13.1-2.1,19.8-1.7c1.6,0.1,3.3,0.2,4.9,0.4l4.9,0.8
			c0.8,0.1,1.6,0.2,2.4,0.4l2.4,0.6l4.7,1.2c12.4,3.7,24.2,9.2,35,16.3c-11.8-5-23.8-9.5-36-12.3c-6.2-1.2-12.3-2.4-18.5-2.4
			l-2.3-0.1l-2.3,0.1l-2.3,0.1c-0.8,0-1.5,0.1-2.3,0.2l-4.6,0.6l-4.5,1c-5.9,1.5-11.6,4-16.7,7.3c-5.1,3.4-9.7,7.6-13.6,12.4
			c-1,1.2-1.9,2.5-2.8,3.7c-0.9,1.3-1.8,2.6-2.6,3.9c-0.8,1.3-1.7,2.7-2.4,4.1l-1.1,2.1l-1.1,2.1
			C312.6,440.8,310.3,446.8,308.6,452.9L308.6,452.9z"/>
		<path id="패스_1445" d="M0,395.1c5.8-2.8,11.8-5.3,17.9-7.3c6.1-2.1,12.3-3.9,18.6-5.4c6.3-1.5,12.8-2.6,19.2-3.2
			c6.6-0.6,13.2-0.5,19.8,0.4c3.3,0.5,6.6,1.3,9.8,2.5c3.2,1.2,6.3,2.9,9,5c2.8,2.1,5.1,4.8,6.9,7.8c1.7,3,3,6.2,3.6,9.6
			c1.4,6.7,0.9,13.4-0.3,19.8c-1.3,6.4-3.2,12.6-5.7,18.5c1.5-6.2,2.6-12.5,3.2-18.8c0.7-6.2,0.3-12.4-1.1-18.5
			c-0.8-2.9-2-5.6-3.6-8.1c-1.6-2.4-3.6-4.6-6-6.3c-4.7-3.5-10.6-5.3-16.6-6.3c-6.2-0.9-12.4-1.1-18.6-0.6
			c-6.3,0.4-12.6,1.2-18.8,2.2C24.7,388.6,12.3,391.6,0,395.1z"/>
	</g>
	<g class="st1">
		<path d="M1136.8,585c0.3,0,0.5,0,0.7,0.1c0.2,0.1,0.4,0.3,0.6,0.7l5,8.6c0.2,0.3,0.2,0.5,0.1,0.8c-0.1,0.2-0.2,0.4-0.5,0.5
			s-0.5,0.2-0.8,0.2c-0.3,0-0.5-0.2-0.7-0.5l-1.3-2.4l-4,0.6l-0.5,2.7c-0.1,0.3-0.2,0.5-0.4,0.6c-0.2,0.1-0.5,0.1-0.7,0.1
			s-0.5-0.2-0.6-0.3c-0.1-0.2-0.2-0.4-0.1-0.7l2.1-9.8c0.1-0.4,0.2-0.7,0.4-0.8S1136.5,585,1136.8,585z M1137.1,587.5
			c0,0.3-0.1,0.6-0.1,0.9c0,0.3-0.1,0.6-0.2,1l-0.5,2.4l2.8-0.4l-1.2-2.2c-0.2-0.3-0.4-0.6-0.5-0.9
			C1137.4,588,1137.3,587.8,1137.1,587.5z"/>
		<path d="M1143.8,583.9c0.3,0,0.5,0,0.7,0.1c0.2,0.1,0.4,0.3,0.4,0.6l1.5,9.7c0,0.3,0,0.5-0.2,0.7s-0.4,0.3-0.7,0.3s-0.5,0-0.7-0.1
			c-0.2-0.1-0.4-0.3-0.4-0.6l-1.5-9.7c0-0.3,0-0.5,0.2-0.7S1143.5,583.9,1143.8,583.9z"/>
		<path d="M1154.9,583.9c0.1,0.5,0.2,0.9,0.4,1.2c0.2,0.3,0.5,0.6,0.9,0.8c0.4,0.2,0.8,0.5,1.1,0.6c0.3,0.2,0.6,0.3,0.9,0.5
			c0.2,0.1,0.4,0.3,0.4,0.5c0,0.2,0,0.5-0.1,0.7c-0.1,0.2-0.2,0.3-0.5,0.5c-0.2,0.1-0.5,0.1-0.7,0c-0.2-0.1-0.5-0.2-0.8-0.4
			c-0.3-0.2-0.6-0.4-1-0.6c-0.4-0.2-0.7-0.4-0.9-0.6c-0.2-0.1-0.3-0.3-0.3-0.4l0,0c0,0.1,0,0.2-0.1,0.3c0,0.1-0.1,0.2-0.1,0.3
			c-0.1,0.1-0.1,0.2-0.3,0.4c-0.1,0.1-0.2,0.3-0.4,0.5c-0.5,0.6-1.1,1.2-1.6,1.7c-0.2,0.2-0.4,0.3-0.7,0.2c-0.3,0-0.4-0.1-0.6-0.3
			c-0.2-0.2-0.3-0.4-0.3-0.6s0-0.5,0.3-0.7c0.3-0.3,0.6-0.6,0.9-0.9c0.3-0.3,0.6-0.6,0.9-1c0.3-0.3,0.5-0.7,0.6-1.1
			c0.1-0.4,0.1-0.8,0-1.3l-0.2-1.4c0-0.3,0-0.5,0.2-0.7c0.2-0.2,0.4-0.3,0.7-0.3s0.5,0,0.8,0.1c0.2,0.1,0.4,0.3,0.4,0.6
			L1154.9,583.9z M1153.6,593.5c-0.2-1,0.1-1.9,0.9-2.5c0.8-0.6,1.9-1.1,3.4-1.3c1.5-0.2,2.7-0.2,3.6,0.2c0.9,0.4,1.5,1.1,1.6,2.1
			c0.2,1-0.1,1.9-0.9,2.5c-0.8,0.6-1.9,1.1-3.4,1.3s-2.7,0.2-3.6-0.2C1154.3,595.2,1153.7,594.5,1153.6,593.5z M1161.1,592.3
			c-0.1-0.4-0.3-0.7-0.8-1c-0.5-0.2-1.2-0.2-2.2-0.1c-1,0.2-1.7,0.4-2.1,0.7c-0.4,0.3-0.5,0.7-0.5,1.2c0.1,0.4,0.3,0.7,0.8,1
			c0.5,0.2,1.2,0.2,2.2,0.1c1-0.2,1.7-0.4,2.1-0.7C1161,593.1,1161.2,592.7,1161.1,592.3z M1157.9,585.3c-0.2,0-0.4,0-0.6-0.2
			c-0.1-0.1-0.2-0.3-0.3-0.6c0-0.2,0-0.5,0.1-0.6c0.1-0.2,0.3-0.3,0.5-0.3l2-0.3l-0.3-2c0-0.3,0-0.5,0.2-0.7s0.4-0.3,0.7-0.3
			c0.3,0,0.5,0,0.7,0.1c0.2,0.1,0.4,0.3,0.4,0.6l1.1,7c0,0.3,0,0.5-0.2,0.7c-0.2,0.2-0.4,0.3-0.7,0.3c-0.3,0-0.5,0-0.7-0.1
			c-0.2-0.1-0.4-0.3-0.4-0.6l-0.5-3.3L1157.9,585.3z"/>
		<path d="M1164.9,589.7c-0.2,0-0.4,0-0.6-0.2c-0.1-0.2-0.2-0.3-0.3-0.6c0-0.2,0-0.4,0.1-0.6c0.1-0.2,0.3-0.3,0.5-0.3l11.9-1.9
			c0.2,0,0.4,0,0.6,0.2c0.1,0.1,0.2,0.3,0.3,0.6c0,0.2,0,0.4-0.1,0.6c-0.1,0.2-0.3,0.3-0.5,0.3l-5,0.8l0.7,4.1c0,0.3,0,0.5-0.2,0.7
			c-0.2,0.2-0.4,0.3-0.7,0.3c-0.3,0-0.5,0-0.7-0.1s-0.4-0.3-0.4-0.6l-0.7-4.1L1164.9,589.7z M1164.9,583.3c-0.1-0.5-0.1-1,0.1-1.5
			c0.2-0.5,0.4-0.9,0.8-1.2c0.4-0.4,0.9-0.6,1.5-0.9c0.6-0.2,1.3-0.4,2.1-0.5c0.8-0.1,1.5-0.2,2.1-0.1c0.6,0,1.2,0.2,1.7,0.4
			c0.5,0.2,0.9,0.5,1.2,0.9c0.3,0.4,0.5,0.8,0.6,1.4c0.2,1.1-0.1,2-0.9,2.7s-2,1.2-3.5,1.4c-1.5,0.2-2.8,0.2-3.8-0.3
			C1165.7,585.2,1165.1,584.4,1164.9,583.3z M1172.9,582.1c-0.1-0.5-0.4-0.8-0.9-1.1c-0.5-0.2-1.3-0.3-2.3-0.1
			c-1.1,0.2-1.8,0.4-2.2,0.8c-0.4,0.4-0.6,0.8-0.5,1.3c0.1,0.5,0.4,0.8,0.9,1.1c0.5,0.2,1.3,0.3,2.3,0.1c1.1-0.2,1.8-0.4,2.2-0.8
			C1172.8,583,1173,582.6,1172.9,582.1z"/>
		<path d="M1185.7,580.2c0,0.3,0.1,0.6,0.2,0.8c0.1,0.3,0.2,0.5,0.3,0.7c0.1,0.2,0.3,0.4,0.5,0.6c0.2,0.2,0.4,0.4,0.7,0.6
			c0.3,0.3,0.7,0.5,1,0.8c0.3,0.2,0.6,0.5,0.9,0.6c0.2,0.1,0.3,0.3,0.3,0.6c0,0.3-0.1,0.5-0.2,0.7c-0.1,0.1-0.1,0.2-0.2,0.2
			c-0.1,0.1-0.2,0.1-0.3,0.2c-0.1,0-0.2,0-0.3,0c-0.1,0-0.2-0.1-0.3-0.1c-0.2-0.2-0.5-0.3-0.8-0.5c-0.3-0.2-0.6-0.4-0.9-0.7
			c-0.2-0.2-0.4-0.3-0.6-0.5c-0.2-0.1-0.3-0.3-0.4-0.4c-0.1-0.1-0.2-0.2-0.2-0.3c-0.1-0.1-0.1-0.2-0.1-0.2l0,0c0,0.1,0,0.2-0.1,0.3
			c0,0.1-0.1,0.2-0.1,0.3c-0.1,0.1-0.1,0.3-0.3,0.5c-0.1,0.2-0.3,0.4-0.4,0.7c-0.2,0.3-0.4,0.6-0.7,0.9s-0.5,0.6-0.7,1
			c-0.2,0.2-0.4,0.3-0.6,0.3c-0.3,0-0.5-0.1-0.6-0.2c-0.2-0.2-0.3-0.4-0.4-0.6c0-0.2,0-0.5,0.2-0.7c0.6-0.7,1.1-1.4,1.5-2.1
			c0.2-0.3,0.3-0.5,0.4-0.8c0.1-0.2,0.2-0.5,0.2-0.8c0.1-0.3,0.1-0.5,0.1-0.8c0-0.3,0-0.6-0.1-0.9l-0.4-2.3c0-0.3,0-0.5,0.2-0.7
			c0.2-0.2,0.4-0.3,0.7-0.3c0.3,0,0.5,0,0.8,0.1c0.2,0.1,0.4,0.3,0.4,0.6L1185.7,580.2z M1188.7,581.8c-0.2,0-0.4,0-0.6-0.2
			c-0.1-0.2-0.2-0.3-0.3-0.6c0-0.2,0-0.5,0.1-0.6c0.1-0.2,0.3-0.3,0.5-0.3l2-0.3l-0.5-3.3c0-0.3,0-0.5,0.2-0.7
			c0.2-0.2,0.4-0.3,0.7-0.3c0.3,0,0.5,0,0.7,0.1c0.2,0.1,0.4,0.3,0.4,0.6l1.9,12.1c0,0.3,0,0.5-0.2,0.7c-0.2,0.2-0.4,0.3-0.7,0.3
			c-0.3,0-0.5,0-0.7-0.1c-0.2-0.1-0.4-0.3-0.4-0.6l-1.1-7.1L1188.7,581.8z"/>
		<path d="M1196.7,578.8l3.1-0.5l-0.4-2.5c0-0.3,0-0.5,0.2-0.7c0.2-0.2,0.4-0.3,0.7-0.3c0.3,0,0.5,0,0.7,0.1s0.4,0.3,0.4,0.6
			l1.1,7.1c0.1,0.5,0,0.9-0.1,1.1c-0.2,0.2-0.5,0.4-1,0.5l-4.4,0.7c-0.5,0.1-0.9,0-1.1-0.1c-0.2-0.2-0.4-0.5-0.5-1l-1.1-7.1
			c0-0.3,0-0.5,0.2-0.7c0.2-0.2,0.4-0.3,0.7-0.3c0.3,0,0.5,0,0.7,0.1c0.2,0.1,0.4,0.3,0.4,0.6L1196.7,578.8z M1200,582.7
			c0.2,0,0.3-0.2,0.3-0.4l-0.4-2.2l-3.1,0.5l0.4,2.2c0,0.2,0.2,0.3,0.4,0.3L1200,582.7z M1207.4,586.1c0,0.3,0,0.5-0.2,0.7
			c-0.2,0.2-0.4,0.3-0.7,0.3c-0.3,0-0.5,0-0.7-0.1c-0.2-0.1-0.4-0.3-0.4-0.6l-1.9-12.1c0-0.3,0-0.5,0.2-0.7c0.2-0.2,0.4-0.3,0.7-0.3
			c0.3,0,0.5,0,0.8,0.1c0.2,0.1,0.4,0.3,0.4,0.6L1207.4,586.1z"/>
		<path d="M1209.6,585.3c-0.2,0-0.4,0-0.6-0.2c-0.1-0.1-0.2-0.3-0.3-0.6c0-0.2,0-0.5,0.1-0.6s0.3-0.3,0.5-0.3l11.9-1.9
			c0.2,0,0.4,0,0.6,0.2c0.1,0.2,0.2,0.3,0.3,0.6c0,0.2,0,0.4-0.1,0.6c-0.1,0.2-0.3,0.3-0.5,0.3L1209.6,585.3z M1219.9,577.7
			c0.2,0.1,0.4,0.2,0.4,0.5c0,0.2,0,0.5-0.1,0.7c-0.1,0.2-0.2,0.4-0.4,0.5c-0.2,0.1-0.4,0.1-0.7,0.1c-0.6-0.2-1.1-0.4-1.6-0.6
			c-0.5-0.2-1-0.4-1.5-0.6c-0.5-0.2-0.9-0.5-1.2-0.7c-0.3-0.2-0.5-0.4-0.5-0.6l0,0c0,0.2-0.1,0.5-0.3,0.8c-0.2,0.3-0.5,0.6-0.9,1
			c-0.4,0.3-0.8,0.7-1.2,1c-0.4,0.3-0.9,0.7-1.3,1.1c-0.2,0.2-0.4,0.2-0.7,0.2c-0.2,0-0.4-0.2-0.6-0.4c-0.1-0.2-0.2-0.4-0.3-0.7
			c0-0.3,0.1-0.5,0.2-0.6c0.4-0.3,0.8-0.7,1.2-1c0.4-0.3,0.8-0.7,1.3-1.1c0.5-0.4,0.8-0.9,1-1.3c0.2-0.5,0.2-1,0.1-1.6l-0.1-0.8
			c0-0.3,0-0.5,0.2-0.7c0.2-0.2,0.4-0.3,0.7-0.3s0.5,0,0.8,0.1c0.2,0.1,0.4,0.3,0.4,0.6l0.1,0.8c0.1,0.6,0.3,1.1,0.6,1.5
			c0.3,0.4,0.8,0.7,1.3,1c0.5,0.2,1,0.4,1.5,0.6C1219,577.3,1219.5,577.5,1219.9,577.7z"/>
		<path d="M1229.7,575.3c0.2,0,0.4,0,0.6,0.2c0.1,0.1,0.2,0.3,0.3,0.6c0,0.2,0,0.4-0.1,0.6c-0.1,0.2-0.2,0.3-0.5,0.3l-4.2,0.7
			c-0.2,0-0.4,0-0.6-0.2c-0.1-0.1-0.2-0.3-0.3-0.6c0-0.2,0-0.4,0.1-0.6c0.1-0.2,0.2-0.3,0.5-0.3L1229.7,575.3z"/>
		<path d="M1238.2,568.9c0.3,0,0.5,0,0.7,0.1c0.2,0.1,0.4,0.3,0.6,0.7l5,8.6c0.2,0.3,0.2,0.5,0.1,0.8c-0.1,0.2-0.2,0.4-0.5,0.5
			s-0.5,0.2-0.8,0.2c-0.3,0-0.5-0.2-0.7-0.5l-1.3-2.4l-4,0.6l-0.5,2.7c-0.1,0.3-0.2,0.5-0.4,0.6s-0.5,0.1-0.7,0.1s-0.5-0.2-0.6-0.3
			c-0.1-0.2-0.2-0.4-0.1-0.7l2.1-9.8c0.1-0.4,0.2-0.7,0.4-0.8S1237.9,569,1238.2,568.9z M1238.5,571.5c0,0.3-0.1,0.6-0.1,0.9
			c0,0.3-0.1,0.6-0.2,1l-0.5,2.4l2.8-0.4l-1.2-2.2c-0.2-0.3-0.4-0.6-0.5-0.9S1238.7,571.7,1238.5,571.5z"/>
		<path d="M1251.3,566.9c0.3,0,0.5,0.2,0.6,0.3c0.2,0.2,0.2,0.4,0.1,0.8l-2.1,9.8c-0.1,0.4-0.2,0.7-0.4,0.8
			c-0.2,0.2-0.4,0.3-0.7,0.3c-0.3,0-0.5,0-0.7-0.1c-0.2-0.1-0.4-0.3-0.6-0.7l-4.9-8.6c-0.2-0.3-0.2-0.5-0.1-0.8
			c0.1-0.2,0.3-0.4,0.5-0.5c0.2-0.1,0.5-0.2,0.8-0.2c0.3,0,0.5,0.2,0.6,0.5l4.1,7.8l1.6-8.7c0.1-0.3,0.2-0.5,0.4-0.7
			C1250.8,566.9,1251,566.9,1251.3,566.9z"/>
		<path d="M1256.3,566c0.3,0,0.5,0,0.7,0.1c0.2,0.1,0.4,0.3,0.6,0.7l5,8.6c0.2,0.3,0.2,0.5,0.1,0.8c-0.1,0.2-0.2,0.4-0.5,0.5
			s-0.5,0.2-0.8,0.2c-0.3,0-0.5-0.2-0.7-0.5l-1.3-2.4l-4,0.6l-0.5,2.7c-0.1,0.3-0.2,0.5-0.4,0.6c-0.2,0.1-0.5,0.1-0.7,0.1
			s-0.5-0.2-0.6-0.3c-0.1-0.2-0.2-0.4-0.1-0.7l2.1-9.8c0.1-0.4,0.2-0.7,0.4-0.8C1255.8,566.2,1256,566.1,1256.3,566z M1256.7,568.6
			c0,0.3-0.1,0.6-0.1,0.9c0,0.3-0.1,0.6-0.2,1l-0.5,2.4l2.8-0.4l-1.2-2.2c-0.2-0.3-0.4-0.6-0.5-0.9
			C1256.9,569.1,1256.8,568.8,1256.7,568.6z"/>
		<path d="M1269.6,573.5c-1.1,0.2-2-0.1-2.7-0.8c-0.7-0.7-1.1-1.8-1.3-3.4c-0.2-1.5-0.2-2.7,0.2-3.6c0.4-0.9,1.2-1.4,2.3-1.6
			c1.1-0.2,2,0.1,2.7,0.8c0.7,0.7,1.1,1.8,1.3,3.4c0.2,1.5,0.2,2.7-0.2,3.6C1271.5,572.8,1270.7,573.3,1269.6,573.5z M1268.4,565.9
			c-0.5,0.1-0.9,0.4-1,0.9c-0.1,0.5-0.1,1.3,0,2.2c0.2,1,0.4,1.7,0.7,2.1c0.3,0.5,0.7,0.6,1.3,0.5s0.9-0.4,1-0.9
			c0.1-0.5,0.1-1.3,0-2.2c-0.2-1-0.4-1.7-0.7-2.1C1269.4,566,1268.9,565.8,1268.4,565.9z M1270.9,567.6l2.4-0.4l-0.6-3.8
			c0-0.3,0-0.5,0.2-0.6c0.2-0.2,0.4-0.3,0.6-0.3c0.2,0,0.5,0,0.7,0.1c0.2,0.1,0.3,0.3,0.4,0.6l1.8,11.4c0,0.3,0,0.5-0.2,0.6
			c-0.2,0.2-0.4,0.3-0.6,0.3c-0.2,0-0.5,0-0.7-0.1c-0.2-0.1-0.3-0.3-0.4-0.6l-0.9-5.9l-2.4,0.4L1270.9,567.6z M1275.5,562.8
			c0-0.3,0-0.5,0.2-0.6c0.2-0.2,0.4-0.3,0.6-0.3c0.2,0,0.5,0,0.7,0.1c0.2,0.1,0.3,0.3,0.4,0.6l1.9,12.2c0,0.3,0,0.5-0.2,0.6
			c-0.2,0.2-0.4,0.3-0.6,0.3c-0.2,0-0.5,0-0.7-0.1c-0.2-0.1-0.3-0.3-0.4-0.6L1275.5,562.8z"/>
		<path d="M1279.7,567.1c-0.2-1.6-0.1-2.8,0.4-3.7c0.5-0.9,1.4-1.5,2.7-1.7c1.3-0.2,2.3,0.1,3.1,0.8c0.8,0.7,1.3,1.9,1.5,3.4
			c0.2,1.6,0.1,2.8-0.4,3.7c-0.5,0.9-1.4,1.5-2.7,1.7c-1.3,0.2-2.3-0.1-3.1-0.8C1280.4,569.8,1279.9,568.7,1279.7,567.1z
			 M1285.4,566.2c-0.2-1-0.4-1.7-0.8-2.2c-0.4-0.5-0.9-0.7-1.6-0.5c-0.7,0.1-1.1,0.4-1.3,1c-0.2,0.6-0.2,1.3-0.1,2.3
			c0.2,1,0.4,1.7,0.8,2.2c0.4,0.5,0.9,0.7,1.6,0.5c0.7-0.1,1.1-0.4,1.3-1C1285.5,568,1285.5,567.2,1285.4,566.2z M1292.5,572.6
			c0,0.3,0,0.5-0.2,0.7s-0.4,0.3-0.7,0.3c-0.3,0-0.5,0-0.7-0.1c-0.2-0.1-0.4-0.3-0.4-0.6l-1.9-12.1c0-0.3,0-0.5,0.2-0.7
			c0.2-0.2,0.4-0.3,0.7-0.3c0.3,0,0.5,0,0.8,0.1c0.2,0.1,0.4,0.3,0.4,0.6L1292.5,572.6z"/>
		<path d="M1295.1,563.2l3-0.5l-0.4-2.4c0-0.3,0-0.5,0.2-0.7c0.2-0.2,0.4-0.3,0.7-0.3s0.5,0,0.7,0.1c0.2,0.1,0.4,0.3,0.4,0.6
			l1.1,7.1c0.1,0.5,0,0.9-0.1,1.1c-0.2,0.2-0.5,0.4-1,0.5l-4.3,0.7c-0.5,0.1-0.9,0-1.1-0.1s-0.4-0.5-0.5-1l-1.1-7.1
			c0-0.3,0-0.5,0.2-0.7s0.4-0.3,0.7-0.3c0.3,0,0.5,0,0.7,0.1c0.2,0.1,0.4,0.3,0.4,0.6L1295.1,563.2z M1298.5,567.1
			c0.2,0,0.3-0.2,0.3-0.4l-0.4-2.2l-3,0.5l0.4,2.2c0,0.2,0.2,0.3,0.4,0.3L1298.5,567.1z M1305.6,562c0.3,0,0.5,0,0.6,0.2
			c0.1,0.2,0.2,0.3,0.3,0.6s0,0.5-0.1,0.7c-0.1,0.2-0.3,0.3-0.5,0.3l-1.5,0.2l1,6.5c0,0.3,0,0.5-0.2,0.7c-0.2,0.2-0.4,0.3-0.7,0.3
			c-0.3,0-0.5,0-0.7-0.1c-0.2-0.1-0.4-0.3-0.4-0.6l-1.9-12.1c0-0.3,0-0.5,0.2-0.7c0.2-0.2,0.4-0.3,0.7-0.3c0.3,0,0.5,0,0.7,0.1
			c0.2,0.1,0.4,0.3,0.4,0.6l0.6,3.8L1305.6,562z"/>
	</g>
	<g id="img-ava" transform="translate(1066.635 474.792) rotate(-9)">
		<g>
			<defs>
				<rect id="SVGID_1_" x="0" y="0" width="266.2" height="104.8"/>
			</defs>
			<clipPath id="SVGID_2_">
				<use xlink:href="#SVGID_1_"  style="overflow:visible;"/>
			</clipPath>
			<g id="signature" transform="translate(0 0)" class="st2">
				<rect id="bg" x="0" y="0" class="st3" width="65.2" height="69.9"/>
				<path id="패스_12392" class="st4" d="M28.7,14.6l23.6,14.1c0.1-0.8,0.1-1.7,0.1-2.6l0,0C52.4,11.7,40.7,0,26.2,0c0,0,0,0,0,0
					l0,0C11.7,0,0,11.7,0,26.2v20.4c0,3.2,2.6,5.8,5.8,5.8c0,0,0,0,0,0h9.3V22.3c0-5,4-9,9-9C25.7,13.3,27.3,13.8,28.7,14.6z"/>
				<path id="패스_12393" class="st5" d="M60.9,33.9l-8.6-5.2C51,42.2,39.7,52.4,26.2,52.4H15.1v8.5c0,5,4,9,9,9
					c1.6,0,3.2-0.4,4.6-1.3l32.1-19.3c4.2-2.5,5.6-8.1,3.1-12.3C63.2,35.7,62.1,34.7,60.9,33.9z"/>
				<path id="패스_12394" class="st6" d="M52.3,28.8L28.7,14.6c-4.2-2.5-9.8-1.2-12.3,3.1c-0.8,1.4-1.3,3-1.3,4.6v30.1h11.1
					C39.7,52.4,51,42.2,52.3,28.8z"/>
				<path id="패스_12395" class="st7" d="M113.2,42.1c2.3,6.5,4.3,12.2,6,17.2c1.7,5,3.4,9.8,5.1,14.3c1.6,4.7,3.3,9.4,5,14.3
					c1.7,4.8,3.6,10.3,5.9,16.5h-8.7c-2,0-3.7-0.1-4.9-0.2c-1.1-0.1-2.1-0.4-3-1c-0.9-0.4-1.7-1.2-2.1-2.1c-0.7-1.3-1.3-2.7-1.8-4.2
					l-3.2-9.8H88.8L85.1,99c-0.3,1.2-0.8,2.3-1.5,3.4c-0.5,0.7-1.1,1.2-1.9,1.5c-0.8,0.4-1.6,0.6-2.4,0.5H65.6
					c4-10.8,7.7-21.4,11.2-31.8c3.5-10.4,7.1-20.7,10.9-30.7c0.5-1.1,0.8-2.1,1.1-2.9c0.3-0.8,0.6-1.5,1.1-2.1
					c0.6-0.5,1.4-1,2.1-1.3c1.2-0.4,2.4-0.7,3.6-0.8h8.3c1.3,0,2.6,0.1,3.8,0.3c0.9,0.2,1.7,0.5,2.4,1.1c0.7,0.6,1.2,1.4,1.6,2.3
					C112.2,39.4,112.6,40.7,113.2,42.1z M107.8,74.9l-7.5-22.1l-7.6,22.1L107.8,74.9z"/>
				<path id="패스_12396" class="st7" d="M183.8,35.5c0.8-0.5,1.7-0.7,2.7-0.7H200l-24.6,69.9H163c-2.1,0.1-4.2-0.4-6-1.5
					c-1.5-0.9-2.8-2-3.9-3.3c-1-1.1-1.7-2.3-2.3-3.6c-0.5-1.2-0.8-2-1-2.5l-19.2-58.9h12.7c1.1,0,2.1,0.2,3.1,0.5
					c1,0.4,1.8,1.1,2.2,2.1l16.4,50.2l17.1-50.3C182.4,36.5,183,35.9,183.8,35.5z"/>
				<path id="패스_12397" class="st7" d="M243.1,42.1c2.3,6.5,4.3,12.2,6,17.2s3.4,9.8,5.1,14.3c1.6,4.7,3.3,9.4,5,14.3
					c1.7,4.8,3.6,10.3,5.9,16.5h-8.7c-2,0-3.7-0.1-4.9-0.2c-1.1-0.1-2.1-0.4-3-1c-0.9-0.4-1.7-1.2-2.1-2.1c-0.7-1.3-1.3-2.7-1.8-4.2
					l-3.2-9.8h-22.6L215,99c-0.3,1.2-0.8,2.3-1.5,3.4c-0.5,0.7-1.1,1.2-1.9,1.5c-0.8,0.4-1.6,0.6-2.4,0.5h-13.6
					c4-10.8,7.7-21.4,11.2-31.8c3.5-10.4,7.1-20.7,10.9-30.7c0.5-1.1,0.8-2.1,1.1-2.9c0.3-0.8,0.6-1.5,1.1-2.1
					c0.6-0.5,1.4-1,2.1-1.3c1.2-0.4,2.4-0.7,3.6-0.8h8.3c1.3,0,2.6,0.1,3.8,0.3c0.9,0.2,1.7,0.5,2.4,1.1c0.7,0.6,1.2,1.4,1.6,2.3
					C242.1,39.4,242.6,40.7,243.1,42.1z M237.8,74.9l-7.5-22.1l-7.6,22.1H237.8z"/>
			</g>
		</g>
		<g>
			<defs>
				<rect id="SVGID_3_" x="0" y="0" width="266.2" height="104.8"/>
			</defs>
			<clipPath id="SVGID_4_">
				<use xlink:href="#SVGID_3_"  style="overflow:visible;"/>
			</clipPath>
			<g id="signature-2" transform="translate(0 0)" class="st8">
				<rect id="bg-2" x="0" y="0" class="st3" width="65.2" height="69.9"/>
				<path id="패스_12445" class="st4" d="M28.7,14.6l23.6,14.1c0.1-0.8,0.1-1.7,0.1-2.6l0,0C52.4,11.7,40.7,0,26.2,0c0,0,0,0,0,0
					l0,0C11.7,0,0,11.7,0,26.2v20.4c0,3.2,2.6,5.8,5.8,5.8c0,0,0,0,0,0h9.3V22.3c0-5,4-9,9-9C25.7,13.3,27.3,13.8,28.7,14.6z"/>
				<path id="패스_12446" class="st5" d="M60.9,33.9l-8.6-5.2C51,42.2,39.7,52.4,26.2,52.4H15.1v8.5c0,5,4,9,9,9
					c1.6,0,3.2-0.4,4.6-1.3l32.1-19.3c4.2-2.5,5.6-8.1,3.1-12.3C63.2,35.7,62.1,34.7,60.9,33.9z"/>
				<path id="패스_12447" class="st6" d="M52.3,28.8L28.7,14.6c-4.2-2.5-9.8-1.2-12.3,3.1c-0.8,1.4-1.3,3-1.3,4.6v30.1h11.1
					C39.7,52.4,51,42.2,52.3,28.8z"/>
				<path id="패스_12448" class="st7" d="M113.2,42.1c2.3,6.5,4.3,12.2,6,17.2c1.7,5,3.4,9.8,5.1,14.3c1.6,4.7,3.3,9.4,5,14.3
					c1.7,4.8,3.6,10.3,5.9,16.5h-8.7c-2,0-3.7-0.1-4.9-0.2c-1.1-0.1-2.1-0.4-3-1c-0.9-0.4-1.7-1.2-2.1-2.1c-0.7-1.3-1.3-2.7-1.8-4.2
					l-3.2-9.8H88.8L85.1,99c-0.3,1.2-0.8,2.3-1.5,3.4c-0.5,0.7-1.1,1.2-1.9,1.5c-0.8,0.4-1.6,0.6-2.4,0.5H65.6
					c4-10.8,7.7-21.4,11.2-31.8c3.5-10.4,7.1-20.7,10.9-30.7c0.5-1.1,0.8-2.1,1.1-2.9c0.3-0.8,0.6-1.5,1.1-2.1
					c0.6-0.5,1.4-1,2.1-1.3c1.2-0.4,2.4-0.7,3.6-0.8h8.3c1.3,0,2.6,0.1,3.8,0.3c0.9,0.2,1.7,0.5,2.4,1.1c0.7,0.6,1.2,1.4,1.6,2.3
					C112.2,39.4,112.6,40.7,113.2,42.1z M107.8,74.9l-7.5-22.1l-7.6,22.1L107.8,74.9z"/>
				<path id="패스_12449" class="st7" d="M183.8,35.5c0.8-0.5,1.7-0.7,2.7-0.7H200l-24.6,69.9H163c-2.1,0.1-4.2-0.4-6-1.5
					c-1.5-0.9-2.8-2-3.9-3.3c-1-1.1-1.7-2.3-2.3-3.6c-0.5-1.2-0.8-2-1-2.5l-19.2-58.9h12.7c1.1,0,2.1,0.2,3.1,0.5
					c1,0.4,1.8,1.1,2.2,2.1l16.4,50.2l17.1-50.3C182.4,36.5,183,35.9,183.8,35.5z"/>
				<path id="패스_12450" class="st7" d="M243.1,42.1c2.3,6.5,4.3,12.2,6,17.2s3.4,9.8,5.1,14.3c1.6,4.7,3.3,9.4,5,14.3
					c1.7,4.8,3.6,10.3,5.9,16.5h-8.7c-2,0-3.7-0.1-4.9-0.2c-1.1-0.1-2.1-0.4-3-1c-0.9-0.4-1.7-1.2-2.1-2.1c-0.7-1.3-1.3-2.7-1.8-4.2
					l-3.2-9.8h-22.6L215,99c-0.3,1.2-0.8,2.3-1.5,3.4c-0.5,0.7-1.1,1.2-1.9,1.5c-0.8,0.4-1.6,0.6-2.4,0.5h-13.6
					c4-10.8,7.7-21.4,11.2-31.8c3.5-10.4,7.1-20.7,10.9-30.7c0.5-1.1,0.8-2.1,1.1-2.9c0.3-0.8,0.6-1.5,1.1-2.1
					c0.6-0.5,1.4-1,2.1-1.3c1.2-0.4,2.4-0.7,3.6-0.8h8.3c1.3,0,2.6,0.1,3.8,0.3c0.9,0.2,1.7,0.5,2.4,1.1c0.7,0.6,1.2,1.4,1.6,2.3
					C242.1,39.4,242.6,40.7,243.1,42.1z M237.8,74.9l-7.5-22.1l-7.6,22.1H237.8z"/>
			</g>
		</g>
	</g>
	<g class="st1">
		<path d="M1176.4,398.4l3.3-0.5l2.5,15.7l-9.8,1.6l-2.5-15.7l3.3-0.5l0.8,5l3.3-0.5L1176.4,398.4z M1178.4,411l-0.7-4.6l-3.3,0.5
			l0.7,4.6L1178.4,411z M1188.6,405.7l-2,0.3l1.2,7.5l-3.3,0.5l-2.7-16.9l3.3-0.5l1,6.2l2-0.3L1188.6,405.7z"/>
		<path d="M1206,406.8l0.5,3l-17.1,2.7l-0.5-3l6.8-1.1l-0.3-1.9l-5.9,0.9l-1.1-6.9l11.9-1.9l-0.2-1.1l-11.9,1.9l-0.5-2.9l15.2-2.4
			l1.1,6.9l-11.9,1.9l0.2,1.2l12.1-1.9l0.5,2.9l-6.1,1l0.3,1.9L1206,406.8z"/>
		<path d="M1209.8,411.3l-2.6,0.4l-0.1-5.2l3.1-0.5L1209.8,411.3z"/>
	</g>
	<g class="st1">
		<path d="M1064.8,451.6c-0.7,0.2-1.5,0.4-2.3,0.5l-7.3,1.2l-1.3-8.4l10.4-1.6l0.4,2.7l-7,1.1l0.5,2.9l4.1-0.7
			c0.8-0.1,1.5-0.3,2.2-0.5c0.7-0.2,1.2-0.4,1.6-0.7l0.4,2.7C1066.1,451.2,1065.6,451.4,1064.8,451.6z M1069.1,453
			c1.5,0.4,2.3,1.2,2.5,2.5c0.2,1.3-0.3,2.4-1.6,3.2c-1.3,0.8-3.1,1.4-5.4,1.8c-2.3,0.4-4.2,0.4-5.7,0c-1.5-0.4-2.3-1.2-2.5-2.5
			s0.3-2.4,1.6-3.2c1.3-0.8,3.1-1.4,5.4-1.8C1065.7,452.6,1067.6,452.6,1069.1,453z M1067.1,457.1c0.7-0.3,1-0.6,1-1
			c-0.1-0.4-0.5-0.6-1.2-0.7c-0.8-0.1-1.7,0-2.9,0.2c-1.2,0.2-2.2,0.4-2.9,0.7c-0.7,0.3-1,0.6-1,1c0.1,0.4,0.5,0.6,1.2,0.7
			c0.8,0.1,1.7,0,3-0.2C1065.4,457.6,1066.4,457.4,1067.1,457.1z M1071.8,444.7l0.5,3.2l-2,0.3l0.5,3.2l-3.3,0.5l-1.5-9.3l3.3-0.5
			l0.4,2.8L1071.8,444.7z"/>
		<path d="M1076,450.6c-0.9,0.8-2,1.3-3.1,1.5l-0.5-3.1c0.9-0.2,1.6-0.7,2.2-1.5c0.6-0.7,1-1.7,1.2-2.8c0.2-1.1,0.3-2.3,0.1-3.5
			l3.4-0.3c0.2,1.3,0.2,2.7-0.1,4l5.4,2.7l-1.6,2.7l-4.8-2.5C1077.7,448.9,1076.9,449.9,1076,450.6z M1089.8,453.2l0.5,3l-15.3,2.4
			l-0.9-5.9l3.4-0.5l0.5,2.9L1089.8,453.2z M1089.3,451.9l-3.3,0.5l-2-12.5l3.3-0.5L1089.3,451.9z"/>
		<path d="M1101.2,453.5c-0.8,0.3-1.6,0.5-2.5,0.6l-7.5,1.2l-0.5-3.1l7.7-1.2c0.8-0.1,1.6-0.3,2.4-0.6c0.8-0.2,1.4-0.5,1.8-0.8
			l0.5,3.1C1102.6,453,1102,453.2,1101.2,453.5z M1097.3,438.6c0.9,0.3,1.6,0.9,2.2,1.6c0.6,0.8,1,1.7,1.1,2.8
			c0.2,1.1,0.1,2.1-0.2,3c-0.3,0.9-0.9,1.6-1.6,2.2s-1.6,1-2.7,1.1c-1,0.2-2,0.1-2.9-0.2c-0.9-0.3-1.6-0.9-2.2-1.6
			c-0.6-0.8-1-1.7-1.1-2.8c-0.2-1.1-0.1-2.1,0.2-3c0.3-0.9,0.9-1.6,1.6-2.2c0.7-0.6,1.6-1,2.7-1.1S1096.4,438.3,1097.3,438.6z
			 M1093.4,442.3c-0.3,0.5-0.4,1.2-0.3,1.9c0.1,0.7,0.4,1.3,0.9,1.7c0.5,0.4,1,0.5,1.7,0.4c0.7-0.1,1.1-0.4,1.5-1
			c0.3-0.5,0.4-1.2,0.3-1.9c-0.1-0.7-0.4-1.3-0.9-1.7c-0.5-0.4-1-0.6-1.7-0.5C1094.3,441.5,1093.8,441.8,1093.4,442.3z
			 M1107.6,453.5l-3.3,0.5l-2.7-16.9l3.3-0.5L1107.6,453.5z"/>
		<path d="M1129.8,449.4l-17.1,2.7l-0.5-3.1l17.1-2.7L1129.8,449.4z M1128.2,445.3l-3.5,0.6l-1.4-8.6l-11.7,1.9l-0.5-3.1l15.2-2.4
			L1128.2,445.3z"/>
		<path d="M1132.4,432.7l9.8-1.6l2.5,15.7l-9.8,1.6L1132.4,432.7z M1137.7,444.7l3.1-0.5l-1.5-9.5l-3.1,0.5L1137.7,444.7z M1151,439
			l-2,0.3l1.2,7.5l-3.3,0.5l-2.7-16.9l3.3-0.5l1,6.2l2-0.3L1151,439z"/>
		<path d="M1167.9,436.7l-17.1,2.7l-0.4-2.6l17.1-2.7L1167.9,436.7z M1163.5,427.9c1.5,0.3,2.3,1.1,2.5,2.3c0.2,1.2-0.4,2.1-1.7,2.9
			c-1.3,0.8-3.1,1.4-5.5,1.7c-2.4,0.4-4.3,0.4-5.8,0c-1.5-0.3-2.3-1.1-2.5-2.3s0.4-2.1,1.7-2.9c1.3-0.8,3.1-1.4,5.5-1.7
			C1160.1,427.6,1162,427.6,1163.5,427.9z M1168,443.9l-15.1,2.4l-1-6.2l15.1-2.4L1168,443.9z M1164.3,441.9l-0.2-1.2l-8.5,1.3
			l0.2,1.2L1164.3,441.9z M1155.1,431.2c-0.7,0.3-1,0.6-1,0.9c0,0.3,0.4,0.5,1.2,0.5c0.7,0,1.8,0,3.1-0.3c1.3-0.2,2.3-0.4,3-0.7
			c0.7-0.3,1-0.6,1-0.9c0-0.3-0.4-0.5-1.2-0.5c-0.8,0-1.8,0-3.1,0.2C1156.8,430.7,1155.8,430.9,1155.1,431.2z"/>
		<path d="M1176.2,425.4l3.1-0.5l2.6,16.5l-3.1,0.5l-1.1-7l-1.2,0.2c0.3,2.3,0.1,4.1-0.4,5.3c-0.5,1.2-1.4,1.8-2.7,2
			c-1.4,0.2-2.5-0.3-3.4-1.4c-0.9-1.2-1.6-3.2-2-6c-0.4-2.8-0.4-4.9,0.1-6.3c0.5-1.4,1.4-2.2,2.8-2.4c1.2-0.2,2.2,0.2,3.1,1
			c0.8,0.9,1.5,2.4,2,4.5l1.2-0.2L1176.2,425.4z M1173.6,438.1c0-0.8-0.1-2.1-0.4-3.9c-0.3-1.8-0.6-3-0.8-3.8
			c-0.3-0.8-0.6-1.1-1-1.1c-0.4,0.1-0.6,0.5-0.6,1.3c0,0.8,0.1,2.1,0.4,3.9c0.3,1.8,0.6,3,0.8,3.8c0.3,0.8,0.6,1.1,1,1.1
			C1173.4,439.4,1173.6,438.9,1173.6,438.1z M1183.5,424.2l2.7,16.9l-3.1,0.5l-2.7-16.9L1183.5,424.2z"/>
		<path d="M1192.5,429.4l6.1,7l-2.6,2.2l-4-4.8c-0.4,1.8-1.1,3.3-2,4.4c-0.9,1.1-2,1.7-3.3,2l-0.6-3.5c0.8-0.2,1.5-0.9,2-2.1
			s0.8-2.7,0.8-4.6c0.1-1.9-0.1-4-0.5-6.3l3.4-0.4C1192.4,425.5,1192.6,427.6,1192.5,429.4z M1200.7,421.4l2.7,16.9l-3.3,0.5
			l-1.3-8.3l-3.6,0.6l-0.5-3.1l3.6-0.6l-0.9-5.5L1200.7,421.4z"/>
		<path d="M1217.4,429.4c-0.7,0.2-1.5,0.4-2.3,0.5l-7.2,1.1l-1.6-10.3l10.4-1.6l0.4,2.6l-7.1,1.1l0.2,1.3l6.7-1.1l0.4,2.5l-6.7,1.1
			l0.2,1.3l4.1-0.7c0.8-0.1,1.5-0.3,2.1-0.5c0.7-0.2,1.2-0.4,1.7-0.7l0.4,2.6C1218.7,428.9,1218.2,429.2,1217.4,429.4z
			 M1212.4,433.9l11.7-1.9l0.5,2.9l-15.1,2.4l-0.8-5.3l3.4-0.5L1212.4,433.9z M1224.3,421.6l0.5,3.2l-2,0.3l0.9,5.6l-3.3,0.5
			l-2-12.5l3.3-0.5l0.6,3.8L1224.3,421.6z"/>
		<path d="M1227.4,426.2c-0.7,0.7-1.6,1.1-2.6,1.3l-0.5-3c0.6-0.2,1-0.6,1.4-1.2c0.4-0.6,0.6-1.4,0.8-2.4c0.1-1,0.1-2.1-0.1-3.4
			l3.2-0.4c0.2,1.2,0.3,2.4,0.2,3.4l3.7,2.5l-1-6.5l3.1-0.5l0.4,2.6l1.5-0.2l-0.4-2.6l3.1-0.5l1.6,9.8l-3.1,0.5l-0.7-4.1l-1.5,0.2
			l0.6,3.6l-3.1,0.5l-0.3-1.9l-1.4,2l-3.1-2.1C1228.7,424.7,1228.1,425.5,1227.4,426.2z M1239.9,426.2c1.5,0.3,2.4,1.1,2.6,2.4
			c0.2,1.3-0.4,2.3-1.7,3.1c-1.4,0.8-3.2,1.4-5.6,1.8c-2.4,0.4-4.4,0.4-5.9,0.1s-2.4-1.1-2.6-2.4c-0.2-1.3,0.4-2.3,1.7-3.1
			c1.4-0.8,3.2-1.4,5.6-1.8C1236.4,425.9,1238.3,425.9,1239.9,426.2z M1238.9,429.2c-0.1-0.3-0.5-0.5-1.3-0.6
			c-0.8,0-1.9,0.1-3.2,0.3c-1.3,0.2-2.3,0.5-3.1,0.7c-0.8,0.3-1.1,0.6-1.1,0.9c0.1,0.7,1.6,0.8,4.5,0.3
			C1237.6,430.4,1239,429.8,1238.9,429.2z"/>
		<path d="M1248.8,415.9l3.8-0.6l0.5,3l-10.9,1.7l-0.5-3l3.8-0.6l-0.3-2.1l3.4-0.5L1248.8,415.9z M1250.3,420.2
			c0.8,0.3,1.5,0.9,2,1.6c0.5,0.7,0.9,1.6,1,2.6s0.1,1.9-0.2,2.8c-0.3,0.9-0.7,1.6-1.4,2.1c-0.7,0.6-1.5,0.9-2.5,1.1
			s-1.9,0.1-2.7-0.3c-0.8-0.3-1.5-0.9-2-1.6c-0.5-0.7-0.9-1.6-1-2.6c-0.2-1-0.1-1.9,0.2-2.8c0.3-0.9,0.7-1.6,1.4-2.1
			c0.7-0.6,1.5-0.9,2.5-1.1S1249.5,419.9,1250.3,420.2z M1250,426.7c0.2-0.5,0.3-1.1,0.2-1.8s-0.4-1.3-0.7-1.7
			c-0.4-0.4-0.8-0.5-1.4-0.5s-0.9,0.4-1.2,0.9c-0.2,0.5-0.3,1.1-0.2,1.8s0.4,1.3,0.7,1.7c0.4,0.4,0.8,0.5,1.4,0.5
			C1249.4,427.5,1249.8,427.2,1250,426.7z M1260.2,421.7l-2,0.3l1.2,7.5l-3.3,0.5l-2.7-16.9l3.3-0.5l1,6.2l2-0.3L1260.2,421.7z"/>
		<path d="M1269.6,417.7c-0.3,0.8-0.9,1.4-1.6,1.9c-0.8,0.5-1.7,0.8-2.7,1c-1.1,0.2-2,0.1-2.9-0.1c-0.9-0.2-1.6-0.7-2.1-1.3
			c-0.6-0.6-0.9-1.4-1-2.3c-0.1-0.9,0-1.7,0.3-2.5s0.9-1.4,1.6-1.9c0.8-0.5,1.7-0.8,2.7-1c1.1-0.2,2-0.1,2.9,0.1
			c0.9,0.2,1.6,0.7,2.1,1.3c0.6,0.6,0.9,1.4,1,2.3C1270,416.1,1269.9,416.9,1269.6,417.7z M1276.9,426.8l-3.2-1.8
			c-0.5,0.8-1.1,1.4-1.8,1.8c-0.7,0.5-1.5,0.8-2.4,0.9l-2.9-1.6c-0.5,0.8-1.1,1.4-1.8,1.8c-0.7,0.5-1.5,0.8-2.3,0.9l-0.5-3
			c0.5-0.1,1-0.3,1.4-0.8c0.4-0.4,0.7-1,0.9-1.6c0.2-0.7,0.3-1.4,0.3-2.1l3.3,0c0,0.8,0,1.5-0.2,2.1l2,1c0.6-0.3,1.1-0.9,1.4-1.7
			c0.4-0.8,0.5-1.6,0.5-2.6l3.3,0c0,0.8,0,1.5-0.2,2.1l3.6,1.7L1276.9,426.8z M1263.2,417.6c0.4,0.3,1,0.4,1.6,0.3s1.1-0.3,1.4-0.7
			s0.4-0.9,0.3-1.4c-0.1-0.6-0.3-1-0.8-1.2c-0.4-0.3-1-0.4-1.6-0.3s-1.1,0.3-1.4,0.7c-0.3,0.4-0.4,0.9-0.3,1.4
			C1262.5,416.9,1262.7,417.3,1263.2,417.6z M1272.3,415.3l-0.2-1.3l-1.9,0.3l-0.6-2.8l2.1-0.3l-0.1-0.9l3.3-0.5l1.5,9.3l-3.3,0.5
			l-0.2-1.4l-2.1,0.3l-0.3-2.9L1272.3,415.3z"/>
		<path d="M1294.1,413.7l0.4,2.5l-17.1,2.7l-0.4-2.5L1294.1,413.7z M1285,411.9c-0.8,0.9-1.9,1.8-3.3,2.4c-1.3,0.7-2.8,1.1-4.3,1.4
			l-0.4-2.7c1.1-0.2,2.1-0.6,3.1-1.1c0.9-0.5,1.7-1.1,2.3-1.8c0.6-0.7,0.9-1.5,0.9-2.3l3.5,0c0,0.6-0.1,1.1-0.3,1.6l6.9,1.2
			l-0.7,2.7L1285,411.9z M1290.4,417.8l3.3-0.5l1,6.6l-15.1,2.4l-1-6.6l3.3-0.5l0.1,0.9l8.6-1.4L1290.4,417.8z M1291,422l-0.2-0.9
			l-8.6,1.4l0.2,0.9L1291,422z"/>
		<path d="M1299.7,419.1l3.5-0.6c0.8-0.1,1.6-0.3,2.4-0.6c0.8-0.3,1.4-0.6,1.9-0.9l0.5,3c-0.5,0.3-1.1,0.6-1.8,0.9
			c-0.8,0.3-1.6,0.5-2.4,0.6l-7,1.1l-2.5-15.8l3.4-0.5L1299.7,419.1z M1312.4,421l-3.3,0.5l-2.7-16.9l3.3-0.5L1312.4,421z"/>
		<path d="M1320.4,415.9c0.8-0.1,1.6-0.3,2.4-0.6c0.8-0.3,1.4-0.5,1.9-0.9l0.5,3c-0.4,0.3-1.1,0.6-1.9,0.9c-0.8,0.3-1.7,0.5-2.5,0.6
			l-6.5,1l-2.5-15.7l9.8-1.6l0.5,3l-6.4,1l1.5,9.6L1320.4,415.9z M1330.3,410.6l-2,0.3l1.2,7.5l-3.3,0.5l-2.7-16.9l3.3-0.5l1,6.2
			l2-0.3L1330.3,410.6z"/>
		<path d="M1334,414c0.4,0.3,0.7,0.8,0.8,1.3c0.1,0.6,0,1.1-0.3,1.5c-0.3,0.4-0.7,0.7-1.3,0.8c-0.6,0.1-1.1,0-1.5-0.3
			c-0.4-0.3-0.7-0.8-0.8-1.3c-0.1-0.6,0-1.1,0.3-1.5c0.3-0.4,0.8-0.7,1.3-0.8C1333,413.6,1333.5,413.7,1334,414z"/>
	</g>
	<g id="img-doong" transform="matrix(0.988, -0.156, 0.156, 0.988, 1278.618, 605.906)">
		<path d="M33.2,127.3c-3.3,0-6.4-0.5-9-1.6c-1.4-0.6-2.8-1.3-4-2.2c-1.3-0.9-2.4-2-3.4-3.2c-2.1-2.5-3.4-5.4-4.1-8.6
			c-0.6-3-0.6-6.1,0.1-9.4c0.5-2.5,1.4-5.1,2.7-7.6c1.2-2.4,2.8-4.8,4.6-7.1c3.8-4.6,8.6-8.5,13.9-11.2c1.9-1,3.9-1.9,5.7-2.6
			L0.7,87.5l-4.5,1.6l2-4.3l8.3-17.6l0.4-0.9l0.9-0.2L24.2,62l0.8-1.8l14.8-31.6l-5.7,1.3l-3.8,0.9l1.5-3.6l6-14.1l0.4-0.9l1-0.2
			L99.6-1.9l4.8-1.1l-2.7,4.2l-9.3,14.3L92,16l-0.8,0.2l-30.6,7.4l-5.3,9.8l42.1-11l4.8-1.3l-2.6,4.2L90.1,41l-0.4,0.6L89,41.9
			L46.2,56.5l58.1-14.5l5.8-1.4l-3.8,4.6l-11.4,14l-0.4,0.5L93.9,60l-27.5,7.1l-3.8,4.2c1,0.3,1.9,0.6,2.8,1.1
			c1.5,0.7,2.9,1.5,4.3,2.6c1.3,1,2.6,2.2,3.8,3.5c1.6,1.8,2.8,3.9,3.4,6.3c0.6,2.2,0.8,4.6,0.6,7.2c-0.4,4.2-1.9,8.7-4.5,13.1
			c-1.2,2.1-2.7,4.1-4.3,5.9c-1.6,1.9-3.4,3.6-5.3,5c-3.8,3-8.8,5.8-13.9,7.8C43.8,126.1,38.1,127.3,33.2,127.3z M49.9,86.4
			c-1.7,0-3.7,0.3-5.6,0.9c-1.9,0.6-3.7,1.4-5.2,2.4c-2.1,1.3-4.1,3.2-5.8,5.2c-1.8,2.2-3,4.4-3.4,6.5c-0.2,0.9-0.2,1.8-0.1,2.7
			c0.2,0.9,0.5,1.7,1,2.4c0.7,1,1.6,1.7,2.7,2.2c1.2,0.5,2.6,0.8,4.2,0.8c2.1,0,4.4-0.5,6.6-1.3c2.3-0.8,4.4-2,6.2-3.4
			c2-1.5,3.7-3.4,4.9-5.3c0.6-0.9,1.1-1.9,1.5-2.8c0.4-0.9,0.6-1.8,0.7-2.7c0.1-1,0.1-1.9-0.1-2.7c-0.2-0.8-0.6-1.6-1.1-2.3
			c-0.7-0.8-1.6-1.5-2.7-1.9C52.8,86.6,51.4,86.4,49.9,86.4L49.9,86.4z"/>
		<path class="st0" d="M33.2,125.3c4.7,0,10.2-1.2,15.7-3.4c4.9-2,9.7-4.6,13.4-7.5c1.8-1.4,3.5-3,5-4.8c1.5-1.8,2.9-3.6,4.1-5.6
			c2.4-4.1,3.9-8.3,4.2-12.2c0.2-2.3,0-4.5-0.5-6.4c-0.6-2.1-1.6-4-3-5.5c-1.1-1.2-2.3-2.3-3.5-3.2c-1.2-0.9-2.5-1.7-3.9-2.3
			c-1.4-0.6-2.8-1.1-4.3-1.4c-0.5-0.1-1-0.2-1.5-0.3l6.5-7.2l28.1-7.3l11.4-14L8.3,68L0,85.6l45.9-16l-3.7,5.5
			c-0.5,0.2-1,0.4-1.6,0.6c-1.8,0.7-3.8,1.6-5.7,2.6c-5.1,2.6-9.7,6.3-13.3,10.7c-1.8,2.1-3.2,4.4-4.4,6.7c-1.2,2.3-2,4.7-2.5,7.1
			c-0.6,3-0.7,5.9-0.1,8.6c0.6,2.8,1.8,5.4,3.7,7.7c0.9,1.1,1.9,2.1,3.1,2.9c1.1,0.8,2.3,1.4,3.6,1.9
			C27.3,124.8,30.1,125.3,33.2,125.3 M49.9,84.4L49.9,84.4c1.7,0,3.3,0.3,4.7,0.8c1.5,0.6,2.7,1.4,3.6,2.5c0.7,0.9,1.2,1.9,1.5,3
			c0.3,1.1,0.3,2.2,0.2,3.4c-0.1,1-0.4,2.1-0.8,3.2c-0.4,1.1-1,2.1-1.6,3.2c-1.4,2.1-3.2,4.1-5.4,5.8c-2,1.5-4.3,2.8-6.7,3.7
			c-2.5,0.9-5.1,1.4-7.3,1.4c-3.8,0-6.8-1.4-8.6-3.9c-0.7-1-1.1-2.1-1.4-3.2c-0.2-1.1-0.2-2.2,0.1-3.4c0.5-2.4,1.8-4.9,3.8-7.4
			c1.8-2.2,4-4.2,6.3-5.6c1.7-1.1,3.7-2,5.7-2.6C45.9,84.8,48,84.4,49.9,84.4 M26.9,61.1L88.4,40l9.6-15.7L51.3,36.5l8-14.7
			l31.5-7.6L100.1,0L39.7,13.9l-6,14.1l9.7-2.3L26.9,61.1 M33.2,129.3c-3.6,0-6.9-0.6-9.8-1.7c-1.6-0.6-3.1-1.4-4.4-2.4
			c-1.4-1-2.7-2.2-3.8-3.6c-2.3-2.8-3.8-6-4.5-9.4c-0.7-3.2-0.6-6.7,0.1-10.2c0.6-2.7,1.5-5.4,2.9-8c1.3-2.6,2.9-5.1,4.9-7.4
			c1.3-1.6,2.7-3.1,4.3-4.5L1.3,89.4l-9,3.1l4.1-8.6l8.3-17.6l0.8-1.7l1.8-0.5l15.4-3.8l0.4-1l13.1-27.9l-1.7,0.4L27,33.6l3.1-7.3
			l6-14.1l0.8-1.9l2-0.5L99.2-3.9l9.7-2.2l-5.4,8.3l-9.3,14.3l-0.9,1.3l-1.5,0.4L62,25.3l-2.7,5l37.6-9.9l9.6-2.5l-5.2,8.5
			l-9.6,15.7L91,43.3l-0.3,0.1l13-3.2l11.6-2.9l-7.5,9.3l-11.4,14l-0.8,1L94.4,62l-26.9,7l-1.4,1.5c0.1,0,0.1,0.1,0.2,0.1
			c1.6,0.7,3.2,1.7,4.7,2.8c1.4,1.1,2.8,2.4,4,3.8c1.8,2,3.1,4.4,3.8,7.1c0.7,2.4,0.9,5.1,0.6,7.9c-0.4,4.5-2.1,9.3-4.8,13.9
			c-1.3,2.2-2.8,4.3-4.5,6.2c-1.7,2-3.6,3.8-5.6,5.3c-4,3.1-9.1,6-14.4,8.1C44.3,128,38.4,129.3,33.2,129.3z M49.9,88.4
			c-1.5,0-3.3,0.3-5,0.8c-1.7,0.5-3.3,1.3-4.8,2.2c-1.9,1.2-3.8,2.9-5.3,4.8c-1.6,1.9-2.6,3.9-2.9,5.6c-0.1,0.7-0.2,1.3-0.1,1.9
			c0.1,0.6,0.3,1.1,0.7,1.6c1,1.5,2.8,2.2,5.3,2.2c1.8,0,3.9-0.4,5.9-1.2c2.1-0.8,4-1.9,5.7-3.1c1.8-1.4,3.4-3.1,4.5-4.8
			c0.5-0.8,1-1.7,1.3-2.5c0.3-0.8,0.5-1.5,0.6-2.2c0.1-0.7,0-1.4-0.1-1.9c-0.1-0.6-0.4-1-0.7-1.5c-0.5-0.6-1.1-1-1.9-1.3
			C52.3,88.6,51.2,88.4,49.9,88.4L49.9,88.4z"/>
	</g>
	<g id="img-doo" transform="matrix(0.988, -0.156, 0.156, 0.988, 1031.869, 289.536)">
		<path d="M16.1,116.1l3.6-6.1l20-33.8L0.7,89.8L-4,91.4l2.3-4.4l9.1-17.8l0.4-0.8l0.9-0.2L25.5,64l1.4-2.9l15.2-32.3L36.5,30
			l-3.7,0.8l1.4-3.5l5.6-13.8l0.4-1l1-0.2l61.5-14.3l5-1.2l-2.8,4.2l-10.1,15l-0.4,0.7L93.4,17l-31.3,7.3L56.7,35l43.3-10.7l4.7-1.2
			l-2.6,4.2L92.4,43l-0.4,0.6l-0.7,0.2L39.8,60.5l64.5-15.9l5.9-1.5l-3.9,4.7l-11.6,14l-0.4,0.5l-0.6,0.2L62.5,72l-20.9,30.3
			l-0.3,0.4l-0.4,0.2l-18.5,9.8L16.1,116.1z"/>
		<path class="st0" d="M21.5,111l18.5-9.8l21.3-30.9l31.9-9.9l11.6-14L9.1,70.1L0,87.9l44.3-15.4L21.5,111 M28.7,61.9l62-20
			l9.7-15.7L52.9,38l8-15.5L93,15l10.1-15L41.6,14.3L36,28.1l9.7-2.2L28.7,61.9 M10.8,121.2L18,109l17.2-29.1l-34,11.8l-9.4,3.3
			l4.5-8.9l9.1-17.8l0.8-1.6l1.8-0.4l16-4l1-2l13.5-28.6L36.9,32l-7.5,1.7l2.9-7.1l5.6-13.8l0.8-1.9l2-0.5l61.5-14.3l9.9-2.3
			l-5.7,8.4l-10.1,15l-0.9,1.3l-1.5,0.4L63.5,26l-3.1,6l39-9.7l9.5-2.4l-5.1,8.3L94.1,44l-0.7,1.1l10.3-2.6l11.8-2.9l-7.7,9.3
			L96.2,63l-0.8,0.9l-1.1,0.4l-30.6,9.4l-20.5,29.8l-0.6,0.8l-0.9,0.5l-18.5,9.8L10.8,121.2z"/>
	</g>
</g>
</svg>
