<?xml version="1.0" encoding="utf-8"?>
<!-- Generator: Adobe Illustrator 25.2.0, SVG Export Plug-In . SVG Version: 6.00 Build 0)  -->
<svg version="1.1" id="Layer_1" xmlns="http://www.w3.org/2000/svg" xmlns:xlink="http://www.w3.org/1999/xlink" x="0px" y="0px"
	 viewBox="0 0 447.8 611.2" style="enable-background:new 0 0 447.8 611.2;" xml:space="preserve">
<style type="text/css">
	.st0{fill:#FFFFFF;}
	.st1{fill:#F0F0F0;}
	.st2{fill:#E6E6E6;}
	.st3{enable-background:new    ;}
	.st4{fill:#FFDFBA;}
	.st5{fill:#FFBE1A;}
	.st6{fill:#FFEBD2;}
	.st7{fill:#FFCC66;}
	.st8{fill:#FFB000;}
	.st9{fill:#FFBC83;}
	.st10{clip-path:url(#SVGID_2_);}
	.st11{fill:#2E9CFF;}
	.st12{fill:#996F50;}
	.st13{clip-path:url(#SVGID_4_);}
	.st14{fill:#661A00;}
	.st15{fill:#FFF2EE;}
	.st16{fill:#F2A261;}
	.st17{fill:#CC5700;}
</style>
<g id="img-sponge" transform="translate(-1220.497 26.185)">
	<g id="img-bubble-01" transform="translate(1257.26 -43.097) rotate(9)">
		<g id="그룹_70" transform="translate(13.999 14.906)">
			<path id="패스_1450" class="st0" d="M196.6,305.7c-17.7,0-34-9.6-42.6-25l-1.6-2.8l-2.5,2c-8.7,6.7-19.3,10.4-30.3,10.4
				c-27,0-48.8-21.9-48.8-48.9c0-0.3,0-0.6,0-0.9l0-2.9l-2.9,0.1c-0.5,0-1,0-1.5,0c-27,0-48.9-21.9-48.9-49c0-4.5,0.6-9,1.9-13.3
				l0.5-1.6l-1.3-1.2c-19.9-18.3-21.3-49.2-3-69.2c12.3-13.4,31-18.9,48.6-14.3l3.8,1l-0.3-3.9c-2-26.9,18.1-50.4,45.1-52.4
				c7.9-0.6,15.9,0.7,23.2,3.9l1.7,0.7l1.3-1.3c8.2-7.8,18.8-12.6,30-13.5l1-0.1l0.7-0.7c9.2-9.1,21.6-14.2,34.6-14.2
				c9.3,0,18.4,2.7,26.3,7.7c1.3,0.8,2.5,1.7,3.6,2.6l1.8,1.4l1.7-1.6c25.2-23,64.2-21.2,87.1,4c7.1,7.8,12.1,17.2,14.5,27.5
				l0.4,1.5l1.4,0.5c42.1,14.4,64.5,60.1,50.2,102.1c-6.8,20-21.3,36.6-40.2,46l-2.1,1l0.7,2.2c7.7,25.9-7.1,53.1-33,60.7
				c-4.5,1.3-9.2,2-14,2l0,0c-4.8,0-9.6-0.7-14.3-2.1l-2.1-0.6l-1.5,2.6c-0.2,0.3-0.3,0.6-0.5,0.9c-10.7,16.7-30.5,25.3-50,21.8
				l-1.5-0.3l-1,1.1C223.4,300,210.3,305.7,196.6,305.7z"/>
			<g id="그룹_69" transform="translate(2.808 57.676)">
				<path id="패스_1451" class="st1" d="M67.7,8c0.1,0,0.3,0,0.4,0.1l3.8,1l-0.3-3.9c-0.1-1.7-0.2-3.5-0.1-5.2
					C70,2.5,68.7,5.2,67.7,8z"/>
				<path id="패스_1452" class="st2" d="M348.9,162.9c-11.8,18.5-34.5,26.8-55.5,20.4l-2.1-0.6l-1.5,2.6c-0.2,0.3-0.3,0.6-0.5,0.9
					c-9,14.1-24.6,22.6-41.3,22.6c-2.9,0-5.9-0.3-8.8-0.8l-1.5-0.3l-1,1.1c-18.3,19.9-49.2,21.2-69.1,3c-3.8-3.5-7.1-7.6-9.6-12.1
					l-1.6-2.8l-2.5,2c-8.7,6.7-19.3,10.4-30.3,10.4c-27,0-48.8-21.9-48.8-48.9c0-0.3,0-0.6,0-0.9l0-2.9l-2.9,0.1c-0.5,0-1,0-1.5,0
					c-9.3,0-18.5-2.7-26.3-7.7C26,137.2,17.6,115.1,23.4,94.3l0.5-1.6l-1.3-1.2C12.1,81.9,6.3,68.1,6.8,53.9
					c-11.7,19.9-8,45.4,9.1,61l1.3,1.2l-0.5,1.6c-7.4,26,7.7,53.1,33.7,60.5c4.3,1.2,8.8,1.9,13.4,1.9c0.5,0,1,0,1.5,0l2.9-0.1
					l0,2.9c-0.5,27,20.9,49.3,47.9,49.8c0.3,0,0.6,0,0.9,0c11,0,21.6-3.7,30.3-10.4l2.5-2l1.6,2.8c13.2,23.6,43,32,66.6,18.8
					c4.5-2.5,8.6-5.8,12.1-9.6l1-1.1l1.5,0.3c19.5,3.6,39.3-5,50-21.8c0.2-0.3,0.3-0.6,0.5-0.9l1.5-2.6l2.1,0.6
					c25.8,7.9,53.1-6.6,61-32.3c1.3-4.2,2-8.6,2.1-13C349.4,161.9,349.2,162.4,348.9,162.9z"/>
				<path id="패스_1453" class="st1" d="M387.8,90.9c-7.8,12.2-18.8,22.1-31.8,28.6l-2.1,1l0.6,2.2c1.5,5.2,2.2,10.5,1.9,15.9
					c20.1-12.7,33.5-33.7,36.4-57.3C391.4,84.6,389.7,87.8,387.8,90.9z"/>
			</g>
			<path id="패스_1454" d="M280.3,5.5c27.3,0,51,18.9,57.3,45.5l0.7,3l2.9,1c40.6,13.9,62.3,58,48.4,98.6
				c-6.6,19.3-20.6,35.3-38.9,44.4l-4.1,2.1l1.3,4.4c7.2,24.5-6.8,50.1-31.2,57.3c-8.7,2.5-17.9,2.5-26.5-0.1l-4.2-1.3l-2.2,3.8
				c-0.2,0.3-0.3,0.6-0.5,0.8c-0.1,0.2-0.3,0.5-0.4,0.7c-10.1,15.8-28.8,23.9-47.2,20.5l-3-0.5l-2.1,2.2
				c-17.2,18.8-46.4,20-65.2,2.8c-3.6-3.3-6.7-7.2-9.1-11.4l-3.2-5.6l-5.1,4c-8.2,6.4-18.2,9.8-28.6,9.8c-25.5,0-46.1-20.7-46-46.2
				c0-0.3,0-0.6,0-0.9l0.1-5.8l-5.8,0.2c-0.5,0-0.9,0-1.4,0c-8.8,0-17.4-2.5-24.8-7.3c-17.1-11-25-31.9-19.5-51.5l0.9-3.3l-2.5-2.3
				c-18.8-17.2-20.1-46.4-2.9-65.3c11.6-12.6,29.2-17.8,45.8-13.5l7.5,2L70.4,86c-1.9-25.4,17.1-47.5,42.5-49.5
				c7.5-0.6,15,0.7,21.8,3.7l3.4,1.5l2.7-2.6c7.7-7.4,17.7-11.9,28.3-12.7l2-0.2l1.4-1.4c8.7-8.6,20.4-13.4,32.6-13.4
				c8.8,0,17.4,2.5,24.8,7.3c1,0.7,2.1,1.4,3.4,2.4l3.7,2.8l3.4-3.1C251.4,11,265.6,5.5,280.3,5.5 M280.3,0
				c-16.1,0-31.6,6-43.5,16.8c-1.2-1-2.5-1.9-3.8-2.7C212.6,1,185.9,3.9,168.7,21c-11.9,0.9-23.1,6-31.7,14.2
				C110.9,23.8,80.4,35.7,69,61.9c-3.4,7.7-4.8,16.2-4.2,24.6C37.3,79.2,9,95.7,1.7,123.3c-4.9,18.6,0.9,38.4,15.1,51.3
				c-7.8,27.5,8.1,56.1,35.6,63.9c4.6,1.3,9.3,2,14.1,2c0.5,0,1,0,1.6,0c-0.5,28.5,22.1,52.1,50.7,52.6c11.9,0.2,23.5-3.7,32.9-11
				c13.9,24.9,45.4,33.8,70.3,19.8c4.8-2.7,9.1-6.1,12.8-10.2c20.7,3.8,41.5-5.3,52.9-23c0.4-0.6,0.6-1.1,1-1.7
				c27.3,8.4,56.2-7,64.5-34.3c3-9.7,3-20.1,0.1-29.8c41.1-20.4,57.9-70.3,37.5-111.5c-9.8-19.7-27-34.7-47.8-41.8
				C336.2,20.6,310.2,0,280.3,0L280.3,0z"/>
		</g>
		<g id="그룹_71" transform="translate(394.713 217.949)">
			<path id="패스_1455" class="st0" d="M23.3,43.9C11.9,44,2.6,34.7,2.6,23.3S11.9,2.6,23.3,2.6C34.7,2.6,44,11.8,44,23.2
				c0,10.4-7.7,19.2-18,20.5C25.1,43.9,24.2,43.9,23.3,43.9z"/>
			<path id="패스_1456" d="M23.4,5.5c9.8,0,17.8,8,17.8,17.8c0,9-6.7,16.5-15.6,17.7c-0.8,0.1-1.5,0.1-2.3,0.1
				c-9.8,0-17.8-8.1-17.8-17.9c0-8.9,6.7-16.5,15.5-17.6C21.9,5.6,22.6,5.5,23.4,5.5 M23.4,0C10.5,0,0,10.4,0,23.3
				s10.4,23.4,23.3,23.4c12.9,0,23.4-10.4,23.4-23.3c0-1-0.1-2-0.2-3C45.1,8.7,35.2,0,23.4,0z"/>
		</g>
		<g id="그룹_72" transform="translate(430.605 270.158)">
			<path id="패스_1457" class="st0" d="M14.2,25.6c-6.3,0-11.4-5.1-11.4-11.5c0-6.3,5.1-11.4,11.5-11.4c6.3,0,11.4,5.1,11.4,11.5
				c0,5.8-4.3,10.6-10,11.3C15.1,25.6,14.7,25.6,14.2,25.6z"/>
			<path id="패스_1458" d="M14.2,5.5c4.8,0,8.6,3.9,8.6,8.7s-3.9,8.6-8.7,8.6S5.5,19,5.5,14.2c0-4.3,3.2-8,7.6-8.6
				C13.5,5.6,13.8,5.5,14.2,5.5 M14.2,0C6.4,0,0,6.3,0,14.2C0,22,6.3,28.4,14.2,28.4c7.8,0,14.2-6.3,14.2-14.2c0-0.6,0-1.2-0.1-1.8
				C27.3,5.3,21.3,0,14.2,0z"/>
		</g>
		<g id="그룹_73" transform="translate(444.703 309.495)">
			<path id="패스_1459" class="st0" d="M9.1,15.4c-3.5,0-6.3-2.8-6.3-6.3c0-3.2,2.4-5.9,5.5-6.3c0.3,0,0.5-0.1,0.8-0.1
				c3.5,0,6.3,2.8,6.3,6.3c0,3.2-2.4,5.9-5.5,6.3C9.6,15.4,9.3,15.4,9.1,15.4z"/>
			<path id="패스_1460" d="M9.1,5.5c2,0,3.5,1.6,3.5,3.6c0,1.8-1.3,3.3-3.1,3.5c-0.2,0-0.3,0-0.5,0c-2,0-3.5-1.6-3.5-3.6
				c0-1.8,1.3-3.3,3.1-3.5C8.8,5.5,8.9,5.5,9.1,5.5 M9.1,0C8.7,0,8.3,0,7.9,0.1C3,0.7-0.5,5.3,0.1,10.2c0.6,4.5,4.4,7.9,9,7.9
				c0.4,0,0.8,0,1.2-0.1c5-0.6,8.5-5.2,7.8-10.2C17.5,3.4,13.7,0,9.1,0L9.1,0z"/>
		</g>
		<g class="st3">
			<path d="M103.6,108.6l-2.8,1c-0.4,0.2-0.8,0.2-1.2,0s-0.7-0.4-0.9-0.7c-0.2-0.2-0.3-0.5-0.3-0.7c0-0.2-0.1-0.5-0.2-0.8
				c-0.2-0.5-0.1-0.7,0.4-0.9c1.2-0.3,2.3-0.6,3.4-0.9c1.1-0.3,2.2-0.6,3.4-0.9c0.6-0.2,1.1-0.3,1.3-0.5c0.3-0.2,0.5-0.6,0.8-1.4
				c0.1-0.3,0.3-0.8,0.4-1.5c0.2-0.7,0.2-1.3,0.3-2l0-1.1l-2.2,0.7c-0.3,0.1-0.7,0.2-1.1,0.3c-0.5,0.1-0.8,0.2-1.1,0.2
				c-0.6,0.1-1.1-0.1-1.4-0.5c-0.3-0.4-0.6-0.8-0.7-1.3c-0.3-0.6-0.5-1.3-0.7-2c-0.2-0.7-0.4-1.4-0.5-2c-0.1-0.7-0.3-1.2-0.4-1.6
				c-0.1-0.4-0.2-0.7-0.3-1.1c-0.1-0.3-0.2-0.7-0.4-1c-0.2-0.4-0.3-0.9-0.5-1.5c-0.3-0.7-0.5-1.4-0.7-2.1c0-0.3,0.1-0.4,0.4-0.6
				c0.3-0.1,0.6-0.2,0.8-0.2c0.3,0,0.6,0,0.8,0.2c0.3,0.2,0.5,0.4,0.6,0.5c0.3,0.3,0.6,0.7,0.8,1.2c0.2,0.5,0.5,1.2,0.8,2.2
				c0.1,0.4,0.2,0.6,0.2,0.8c0.1,0.2,0.1,0.3,0.2,0.5c0,0.1,0.1,0.3,0.2,0.5c0.1,0.2,0.1,0.4,0.2,0.8l0.9,3c0,0.2,0.1,0.3,0.2,0.5
				c0.1,0.1,0.3,0.2,0.5,0.1c0.9-0.3,1.9-0.6,3-0.8c1.1-0.2,2.1-0.5,3-0.8c0.5-0.2,0.8-0.5,1-1.1c0.2-0.6,0.3-1,0.3-1.2
				c0-0.2,0.1-0.6,0.2-1.2c0.1-0.5,0.1-1,0.1-1.4c0-0.4-0.3-0.7-0.8-1c-0.7-0.3-1.5-0.5-2.5-0.5c-0.9,0-1.8,0.1-2.6,0.2
				c-0.3,0-0.6,0.2-1,0.3c-0.4,0.2-0.7,0.3-0.9,0.4c-0.5,0.3-0.8,0.3-1.2,0.1c-0.3-0.2-0.6-0.5-0.9-0.9l-0.4-1
				c-0.2-0.5-0.3-0.9-0.2-1.1c0.1-0.2,0.4-0.4,0.9-0.7c0.6-0.3,1.4-0.4,2.2-0.6c0.8-0.1,1.6-0.2,2.5-0.2c0.9,0,1.7,0.1,2.4,0.2
				c0.8,0.2,1.5,0.4,2,0.7c0.6,0.3,1.1,0.7,1.5,1c0.4,0.4,0.8,0.9,1.3,1.6l0.1,0.3c0.1,0.2,0.2,0.7,0.3,1.3c0.1,0.6,0.1,1.4-0.1,2.2
				c-0.1,0.7-0.2,1.2-0.3,1.6c-0.1,0.4-0.2,1-0.5,1.7c-0.1,0.2-0.1,0.3-0.2,0.4c-0.1,0.1-0.1,0.3-0.2,0.5c-0.1,0.3-0.3,0.4-0.4,0.5
				c-0.1,0.1-0.4,0.2-0.8,0.3c-0.3,0.1-0.6,0.2-0.9,0.3c-0.3,0.1-0.6,0.1-1,0.2c0.1,0.2,0.2,0.4,0.2,0.7c0,0.2,0,0.5,0.1,0.6
				c0,0.6,0,1,0,1.3c0,0.3,0,0.7-0.1,1.3c0,0.1,0,0.2-0.1,0.4c0,0.2-0.1,0.4-0.2,0.6c-0.1,0.2-0.1,0.4-0.2,0.6
				c0,0.2-0.1,0.3-0.1,0.3c0.8-0.1,1.8-0.3,2.8-0.4c1-0.1,2.1-0.3,3.2-0.5c0.5-0.1,1.1-0.2,1.8-0.2c0.7,0,1.2,0,1.6,0.2
				c0.5,0.2,0.8,0.4,1,0.7c0.1,0.2,0.3,0.5,0.4,0.9c0,0.2,0,0.4-0.2,0.7c-0.2,0.2-0.4,0.4-0.6,0.3c-0.6,0.1-1,0.2-1.3,0.2
				c-0.3,0-0.7,0-1.2,0.1l-2.8,0.4c-0.2,0-0.5,0.1-0.8,0.1c-0.3,0-0.6,0.1-0.8,0.2c-0.8,0.2-1.6,0.4-2.4,0.5
				c-0.8,0.1-1.6,0.3-2.3,0.5L103.6,108.6z M116.5,111.4c0.5,0.4,0.9,0.8,1.2,1.4c0.3,0.5,0.6,1.1,0.8,1.8c0.2,0.7,0.3,1.3,0.3,2
				c0,0.7,0,1.3,0,2c0,0.4-0.1,0.9-0.2,1.3c-0.1,0.5-0.2,0.9-0.4,1.4c-0.1,0.4-0.3,0.7-0.6,1c-0.2,0.1-0.4,0.2-0.8,0.3
				c-0.3,0-0.7,0-1-0.1c-0.4-0.1-0.6-0.3-0.6-0.5c-0.2-0.3-0.2-0.6-0.2-1c0-0.4,0.1-0.8,0.2-1.1c0.2-0.5,0.3-1.1,0.4-1.9
				c0.1-0.8,0.2-1.4,0.2-1.9c0.1-0.9-0.1-1.5-0.4-1.9c-0.4-0.3-0.8-0.5-1.3-0.6c-0.5-0.1-0.9-0.1-1.4,0.1c-0.5,0.1-0.9,0.3-1.4,0.4
				c-0.3,0.1-0.5,0.1-0.6,0.2c-0.1,0-0.2,0.1-0.3,0.1c-0.1,0.1-0.2,0.1-0.4,0.2c-0.1,0.1-0.3,0.2-0.6,0.3c-0.2,0.1-0.4,0.2-0.5,0.2
				c-0.1,0-0.2,0.1-0.2,0.1c0,0-0.1,0.1-0.2,0.1c-0.1,0.1-0.2,0.2-0.4,0.3c-1,0.7-1.7,0.5-2.2-0.6c-0.1-0.2-0.2-0.4-0.3-0.7
				c-0.1-0.3-0.2-0.6-0.2-0.7c-0.1-0.2,0-0.4,0.1-0.6s0.3-0.4,0.5-0.6c0.2-0.2,0.4-0.3,0.6-0.5c0.2-0.1,0.4-0.2,0.5-0.3
				c0.8-0.4,1.7-0.7,2.7-1.1c1-0.3,1.9-0.5,2.9-0.5c0.7,0,1.5,0.1,2.2,0.4C115.4,110.8,116,111.1,116.5,111.4z"/>
			<path d="M120.6,99.7c1-0.9,1.7-1.7,2.4-2.6c0.6-0.9,1.3-1.8,2.1-2.9c0.5-0.8,0.9-1.4,1.2-1.9c0.3-0.5,0.6-1.1,0.9-1.8
				c0.2-0.4,0.4-0.9,0.6-1.3c0.2-0.5,0.4-1,0.5-1.6l0.6-2.4c0.1-0.4,0.4-0.6,0.9-0.6c0.5,0,0.9,0.1,1.4,0.4c0.4,0.2,0.6,0.4,0.7,0.8
				c0.1,0.3,0.1,0.7,0.1,1.1c-0.1,0.6-0.2,1.2-0.4,1.9c-0.2,0.7-0.4,1.3-0.6,1.9c-0.1,0.1-0.1,0.3-0.2,0.4c-0.1,0.1-0.1,0.3-0.2,0.5
				l1,0.4c1,0.4,2.1,0.7,3.1,1.1c1,0.4,2,0.8,3.1,1.2c0.5,0.2,0.9,0.4,1.3,0.6c0.4,0.2,0.8,0.5,1.1,0.8c0.4,0.4,0.6,0.8,0.5,1.3
				c0,0.2-0.1,0.4-0.3,0.7c-0.2,0.3-0.4,0.4-0.6,0.5c-0.1,0-0.3,0-0.4,0c-0.1,0-0.3-0.1-0.6-0.2c-0.2,0-0.6-0.2-1.2-0.4
				c-0.6-0.2-1.2-0.5-1.8-0.7c-0.2-0.1-0.5-0.2-0.7-0.3c-0.2-0.1-0.4-0.2-0.6-0.2l-1.3-0.4c-0.6-0.2-1.1-0.4-1.7-0.5
				c-0.6-0.2-1.2-0.3-1.7-0.4l-0.8-0.2c-0.1,0-0.2,0.2-0.3,0.3c-0.1,0.2-0.2,0.3-0.3,0.4c-0.4,0.7-0.8,1.3-1.1,1.8
				c-0.3,0.5-0.8,1.1-1.4,1.9l-1.2,1.4l-1.3,1.3c-0.3,0.4-0.7,0.6-1.1,0.6c-0.4,0-0.8-0.1-1.2-0.4c-0.4-0.3-0.7-0.6-0.8-1.2
				C120.2,100.4,120.3,100,120.6,99.7z M124.7,108.2c0.9-0.3,1.7-0.5,2.4-0.8c0.7-0.2,1.5-0.4,2.3-0.7c0.1-0.9,0.1-1.8,0.1-2.8
				c0-1-0.1-1.8-0.2-2.4c-0.1-0.3-0.1-0.8-0.2-1.3c-0.1-0.5-0.1-0.9,0-1.3c0-0.2,0.2-0.4,0.6-0.6c0.4-0.2,0.8-0.2,1.2-0.1
				c0.5,0.1,0.8,0.3,0.9,0.6c0.1,0.3,0.3,0.6,0.4,1c0.1,0.2,0.2,0.5,0.3,0.9c0.1,0.4,0.1,0.7,0.2,0.9c0,0.4,0.1,1,0.1,1.8
				c0,0.8,0,1.7,0,2.5c0.4-0.1,0.8-0.2,1.2-0.2c0.4-0.1,0.8-0.1,1.2-0.2l1.5-0.2c0.5-0.1,0.9-0.1,1.3-0.2c0.4,0,0.7-0.1,1.1-0.1
				c0.3,0,0.7,0,1.1-0.1c0.4,0,0.8-0.1,1.3-0.1c0.5,0,1,0,1.3,0.2c0.4,0.2,0.7,0.4,1.1,0.8c0.2,0.3,0.3,0.6,0.4,1
				c0,0.4-0.2,0.7-0.5,0.8l-0.7,0.1l-2.5,0.2c-1,0.1-2,0.2-3.1,0.4s-2.1,0.3-3.1,0.5c-0.4,0.1-0.9,0.2-1.6,0.4
				c-0.7,0.2-1.5,0.4-2.2,0.6c-0.8,0.2-1.5,0.4-2.2,0.6c-0.7,0.2-1.2,0.4-1.5,0.5c-0.4,0.1-0.8,0.3-1.2,0.4
				c-0.4,0.1-0.8,0.3-1.1,0.5c-0.5,0.3-1,0.2-1.3-0.1c-0.2-0.2-0.4-0.4-0.6-0.6c-0.2-0.2-0.4-0.5-0.4-0.8c-0.1-0.3-0.1-0.5,0-0.8
				c0.1-0.2,0.2-0.4,0.5-0.5c0.3-0.2,0.7-0.4,1.1-0.5C124,108.5,124.3,108.4,124.7,108.2z"/>
			<path d="M153.5,91.3c0,0.6-0.3,1.2-0.9,1.7c-0.6,0.5-1.2,0.9-1.8,1.1c-0.7,0.3-1.4,0.5-1.9,0.7c-0.5,0.2-1.2,0.3-2,0.5l-0.9,0.3
				l0.2,0.7c0.2,0.7,0.4,1.3,0.5,1.7c0.1,0.4,0.3,0.9,0.7,1.6c0.1,0.1,0.1,0.2,0.2,0.3c0,0.1,0.1,0.2,0.2,0.3c0.2,0.4,0.5,0.6,1,0.5
				c0.4,0,0.9-0.1,1.6-0.4c1-0.3,1.9-0.7,2.8-1.2c0.9-0.5,1.8-1,2.7-1.5c0.2-0.1,0.3-0.2,0.5-0.3c0.2-0.1,0.3-0.2,0.4-0.3
				c0.5-0.4,1.1-0.3,1.8,0.2c0.2,0.2,0.4,0.4,0.5,0.5c0.2,0.4,0.3,0.8,0.1,1.4c-0.1,0.5-0.3,0.9-0.6,1.1c-1.1,0.7-2.3,1.3-3.6,2
				c-1.3,0.7-2.6,1.2-3.8,1.6c-0.7,0.3-1.4,0.4-1.9,0.4c-0.4,0-1-0.1-1.7-0.3c-0.7-0.2-1.2-0.5-1.5-0.9c-0.4-0.4-0.7-0.7-0.9-1.2
				c-0.3-0.4-0.5-0.8-0.8-1.3c-0.3-0.6-0.5-1.1-0.6-1.4c-0.1-0.3-0.3-0.8-0.6-1.4c-0.1-0.2-0.2-0.4-0.2-0.7
				c-0.1-0.3-0.1-0.5-0.2-0.7c-0.5,0-0.8-0.1-1.1-0.2c-0.2-0.2-0.4-0.4-0.5-0.9c0-0.1,0-0.2-0.1-0.3c0-0.1-0.1-0.3-0.1-0.3
				c-0.1-0.7,0.1-1.1,0.6-1.3c0.5-0.2,0.9-0.3,1.3-0.3c1.1-0.2,2.1-0.5,3.1-0.8c1-0.3,2-0.6,3.1-0.8c0.4-0.1,0.7-0.3,1-0.5
				c0.3-0.2,0.4-0.5,0.4-0.9c0-0.1-0.1-0.3-0.3-0.5c-0.2-0.2-0.3-0.3-0.4-0.4c-0.1-0.2-0.4-0.4-0.7-0.6c-0.3-0.2-0.7-0.5-1-0.7
				c-0.4-0.2-0.8-0.4-1.2-0.6c-0.4-0.2-0.7-0.4-1-0.5l-1.8-0.6c-0.2-0.1-0.4-0.3-0.5-0.7c-0.1-0.3-0.2-0.6-0.1-0.9
				c0.1-0.3,0.3-0.6,0.7-1c0.4-0.3,0.9-0.4,1.4-0.3c0.4,0.1,0.8,0.2,1.2,0.3c0.4,0.1,0.7,0.3,1.1,0.4c0.8,0.4,1.6,0.9,2.3,1.5
				c0.7,0.6,1.4,1.2,2.1,1.8c0.5,0.5,0.9,1.1,1.2,1.9C153.4,89.9,153.5,90.6,153.5,91.3z M160.7,87.7c0-0.1-0.1-0.5-0.3-1.1
				c-0.1-0.6-0.3-1.2-0.5-1.8c-0.2-0.6-0.3-1.2-0.5-1.8c-0.2-0.5-0.3-0.9-0.3-1c-0.2-0.5-0.4-1-0.4-1.5c-0.1-0.5,0.2-0.9,0.7-1.2
				c0.9-0.1,1.7,0.2,2.2,1c0.4,0.5,0.7,1.2,1,2.1c0.3,0.9,0.5,1.7,0.7,2.3c0.1,0.3,0.2,0.6,0.3,1.1c0.1,0.5,0.2,1,0.3,1.5
				c0.1,0.5,0.2,1.1,0.3,1.7c0.1,0.6,0.2,1.2,0.3,1.6l0.5,2.9c0.1,0.4,0.1,0.9,0.2,1.5c0.1,0.6,0.2,1.1,0.2,1.6
				c0.1,0.5,0.1,1,0.2,1.4c0.1,0.4,0.1,0.8,0.1,1c0.1,0.9,0.1,1.7,0.3,2.5c0.1,0.8,0.1,1.8,0.1,3c0,0.3-0.1,0.5-0.1,0.7
				c0,0.2-0.1,0.4-0.3,0.6c-0.2,0.2-0.4,0.3-0.6,0.3c-0.6,0.1-1.1,0-1.5-0.2s-0.6-0.6-0.6-1.3c0-0.3,0-0.7-0.1-1.2
				c0-0.4-0.1-0.9-0.1-1.4c0-0.5-0.1-0.9-0.1-1.4c0-0.4-0.1-0.8-0.1-1.1c0-0.2,0-0.6-0.1-1.1c0-0.5-0.1-1.1-0.2-1.7
				c-0.1-0.6-0.2-1.3-0.3-1.9c-0.1-0.7-0.2-1.3-0.3-1.8L160.7,87.7z"/>
			<path d="M164.4,84.1c1.1-0.3,2.3-0.5,3.6-0.6c1.3-0.1,2.6,0,3.7,0.2c0.4,0.1,0.8,0.3,1.2,0.4c0.4,0.2,0.9,0.4,1.3,0.6
				c0.4,0.2,0.8,0.5,1.2,0.8c0.4,0.3,0.7,0.6,0.9,1c0.3,0.5,0.5,1.1,0.6,1.9c0.1,0.7,0.1,1.4-0.1,2.1c-0.2,0.7-0.5,1.4-1,2.2
				c-0.5,0.8-1,1.5-1.4,2.1l-0.8,1.1c-0.6,0.9-1.2,1.6-1.7,2.1c-0.5,0.6-1.1,1.2-1.8,2c-0.1,0.1-0.2,0.2-0.3,0.3
				c-0.1,0.1-0.2,0.2-0.4,0.3c-0.3,0.2-0.6,0.3-1,0.2c-0.4-0.1-0.7-0.3-1-0.6l-0.4-0.4c-0.3-0.5-0.4-0.8-0.4-1.1
				c0-0.3,0.2-0.7,0.6-1.2c0.7-0.7,1.4-1.6,2.2-2.5c0.8-0.9,1.5-1.8,2.2-2.7c0.3-0.4,0.6-0.8,0.8-1.1c0.2-0.3,0.4-0.7,0.7-1.2
				c0.1-0.2,0.2-0.5,0.3-0.8c0.1-0.3,0.2-0.6,0.2-0.8c0-0.2-0.1-0.4-0.2-0.5c-0.1-0.1-0.3-0.3-0.4-0.4c-0.3-0.2-0.8-0.4-1.5-0.6
				c-0.3-0.1-0.7-0.1-1.2-0.1c-0.5,0-0.9,0-1.4,0c-0.5,0-0.9,0.1-1.4,0.1c-0.4,0.1-0.8,0.2-1.2,0.2c-0.4,0.1-0.7,0.2-1,0.2
				c-0.3,0-0.6,0-0.8-0.2c-0.3-0.1-0.5-0.4-0.6-0.8c-0.1-0.4-0.2-0.8-0.3-1.3c-0.1-0.4,0-0.7,0.2-0.8
				C164.2,84.2,164.3,84.1,164.4,84.1z M193.8,85.8c0.8,0.1,1.4,0.4,1.8,0.8c0.1,0.2,0.3,0.4,0.4,0.6c0.1,0.2,0.2,0.4,0.1,0.6
				c0,0.3-0.1,0.6-0.3,0.7c-0.2,0.1-0.4,0.2-0.7,0.4c-0.1,0.1-0.4,0.1-0.7,0.2l-0.7,0.1c-0.9,0.2-1.8,0.4-2.4,0.5
				c-0.7,0.1-1.5,0.3-2.5,0.4c-0.3,0.1-0.6,0.1-0.9,0.2c-0.3,0-0.5,0.1-0.6,0.2c-0.1,0.1-0.1,0.3,0,0.7l0.2,1c0,0.3,0.1,0.6,0.1,0.9
				c0,0.3,0.1,0.5,0.1,0.8l0.2,1.4c0.1,0.4,0.1,0.9,0.2,1.4c0.1,0.5,0.1,1,0.2,1.6c0.1,0.8,0.2,1.6,0.2,2.4c0,0.8,0.1,1.6,0.1,2.4
				c0,0.5-0.1,0.9-0.2,1.2c-0.3,0.7-0.8,1-1.5,0.9c-0.2,0-0.4-0.1-0.7-0.2c-0.3-0.1-0.5-0.2-0.6-0.4c-0.3-0.3-0.4-0.6-0.4-0.9
				c0-0.3,0-0.8,0-1.3l0-1.4c0-0.2,0-0.5,0-0.9c0-0.4-0.1-0.9-0.1-1.3c0-0.5-0.1-0.9-0.1-1.3c0-0.4-0.1-0.7-0.1-0.9
				c-0.1-0.8-0.2-1.5-0.3-2c0-0.5-0.2-1.2-0.3-2c-0.3-1.6-0.7-3.2-1-4.8c-0.4-1.5-0.8-3.1-1.4-4.6l-0.9-2.6
				c-0.1-0.1-0.2-0.4-0.3-0.7c-0.1-0.3-0.3-0.7-0.4-1c-0.2-0.4-0.3-0.7-0.5-1c-0.1-0.3-0.2-0.5-0.3-0.6c-0.2-0.5-0.5-1-0.7-1.6
				c-0.2-0.6-0.1-1,0.3-1.3c0.1-0.1,0.4-0.2,0.7-0.2c0.3-0.1,0.6,0,0.9,0c0.4,0.2,0.8,0.5,1.2,0.9c0.4,0.5,0.7,1,1,1.6
				c0.4,0.9,0.8,1.7,1.1,2.5c0.3,0.8,0.6,1.7,1,2.6c0.3,0.7,0.5,1.4,0.7,2.1c0.2,0.7,0.4,1.4,0.6,2.1c0.1,0.4,0.2,0.6,0.3,0.7
				c0.1,0.1,0.3,0.1,0.6,0.1l0.6-0.1c0.3,0,0.5-0.1,0.7-0.2c1.1-0.3,2.1-0.4,2.8-0.5C191.9,85.9,192.8,85.9,193.8,85.8z"/>
			<path d="M211.4,82c-0.4,0.1-0.8,0.1-1.2-0.2s-0.6-0.7-0.6-1.1l-0.3-1.8c-0.1-0.3-0.1-0.6-0.1-0.9c0-0.3-0.1-0.5-0.2-0.7
				c-0.1-0.5-0.3-1-0.4-1.6c-0.1-0.6-0.3-1-0.4-1.2c-0.4,0.1-0.7,0.1-0.8,0.2c-0.1,0-0.4,0.1-0.8,0.2c-0.2,0-0.3,0.1-0.4,0.1
				c-0.1,0-0.3,0.1-0.4,0.1c-0.6,0.1-1.1,0-1.4-0.3c-0.3-0.3-0.5-0.6-0.7-0.9c-0.2-0.3-0.3-0.5-0.3-0.7c-0.1-0.2-0.1-0.5-0.1-0.8
				c-0.1-0.4,0.1-0.7,0.4-0.8c0.1-0.1,0.3-0.1,0.6-0.1c0.8,0,1.4,0,1.9-0.1c0.5-0.1,1.1-0.2,1.9-0.4c1.6-0.4,3.3-0.8,4.9-1.1
				c1.6-0.4,3.2-0.8,4.9-1.2l1.5-0.4c0.4-0.1,0.7-0.1,1-0.1c0.3,0,0.5,0,0.7,0.1c0.2,0.1,0.4,0.2,0.6,0.4c0.2,0.2,0.4,0.4,0.7,0.8
				c0.2,0.3,0.3,0.7,0.2,1c-0.1,0.4-0.4,0.6-0.9,0.7l-1.7,0.4l-0.7,0.2c-0.3,0.1-0.6,0.2-1.1,0.3c-0.4,0.1-0.8,0.2-1.2,0.3
				c-0.4,0.1-0.7,0.2-1,0.2c-0.3,0.1-0.4,0.1-0.5,0.1c-0.7,0.2-1.4,0.3-2,0.5c-0.6,0.2-1.3,0.4-2,0.5c0.4,1.3,0.6,2.4,0.7,3.4
				c0.1,0.5,0.2,1,0.3,1.7c0.1,0.6,0.1,1.2,0.1,1.8C212.7,81.3,212.2,81.8,211.4,82z M212.7,83.2c0.7-0.3,1.2-0.5,1.5-0.8
				c0.3-0.3,0.5-0.6,0.7-0.9c0.2-0.4,0.5-0.9,0.8-1.5c0.3-0.6,0.5-1.4,0.6-2.4c0-0.3,0.1-0.7,0.1-1.3c0-0.6,0-1.1-0.2-1.4
				c0,0,0-0.2-0.1-0.4c-0.1-0.2-0.1-0.4,0-0.4c0.1-0.3,0.5-0.5,0.9-0.6c0.5-0.1,0.9-0.1,1.2,0.1c0.1,0.1,0.2,0.1,0.3,0.2
				c0.1,0.1,0.3,0.2,0.4,0.3c0.4,0.6,0.6,1.3,0.6,2.1c0.1,0.7,0.1,1.3,0.1,1.6c0,0.5-0.1,0.9-0.1,1.4c-0.1,0.5-0.3,1-0.5,1.5
				l-0.6,1.1c0.5-0.1,0.9-0.2,1.2-0.2c0.3-0.1,0.6-0.2,1-0.3c0.5-0.1,0.8-0.2,1.1-0.3c0.3-0.1,0.5-0.1,0.6-0.2
				c0.2-0.1,0.3-0.1,0.5-0.2c0.1-0.1,0.4-0.2,0.7-0.3c0.3-0.1,0.6-0.2,1-0.2c0.4,0,0.7,0.1,1,0.3c0.2,0.2,0.4,0.5,0.4,0.9
				c0.1,0.4,0.1,0.7,0,0.9c-0.1,0.4-0.4,0.6-0.9,0.8c-0.4,0.2-0.8,0.3-1.1,0.5c-0.3,0.1-0.6,0.2-0.9,0.3c-0.3,0.1-0.5,0.2-0.7,0.2
				c-0.2,0.1-0.5,0.1-0.7,0.2c-0.3,0.1-0.6,0.1-0.9,0.2c-1,0.2-2,0.5-3,0.8c-1,0.3-2,0.6-3,1c-0.6,0.2-1.2,0.4-1.7,0.6
				c-0.6,0.2-1.2,0.4-1.8,0.6c-0.5,0.2-1,0.2-1.5,0.3c-0.5,0-0.8-0.2-1-0.7c-0.2-0.4-0.4-0.8-0.5-1.2c-0.1-0.4,0-0.8,0.2-0.9
				c0.3-0.2,0.6-0.4,1.1-0.6c0.6-0.2,1.2-0.3,1.8-0.5C211.8,83.5,212.3,83.3,212.7,83.2z M223.6,95.7c0.4-0.1,0.8-0.3,1.1-0.5
				c0.3-0.2,0.7-0.5,1.1-0.7c0.3-0.2,0.7-0.5,1.2-0.9c0.4-0.4,0.8-0.7,1.1-1.1c0.6-0.9,0.4-1.3-0.6-1.3c-0.5,0-1,0-1.5,0.1
				c-0.6,0.1-1.1,0.1-1.5,0.1c-0.1,0-0.2,0-0.3,0c-0.1,0-0.2,0-0.3,0c-0.7,0.1-1.3-0.2-1.6-0.8c-0.1-0.2-0.2-0.4-0.3-0.7
				c-0.1-0.3-0.1-0.5-0.2-0.7c-0.1-0.7,0.2-1,0.8-1.2c0.9-0.1,1.7-0.1,2.5-0.1c0.8,0,1.5,0.1,2.1,0.1c0.3,0,0.7,0.1,1,0.3
				c0.4,0.1,0.7,0.3,0.9,0.5c0.3,0.2,0.6,0.4,0.9,0.6c0.3,0.2,0.5,0.4,0.8,0.8c0.5,0.5,0.7,1.1,0.7,1.7c0,0.6,0,1.1-0.2,1.4
				c-0.1,0.4-0.3,0.8-0.7,1.3c-0.5,0.6-1.1,1.2-1.7,1.7c-0.6,0.5-1.3,1.1-2.2,1.8l-0.5,0.4c0,0.3,0.1,0.6,0.2,0.8
				c0.1,0.3,0.3,0.6,0.4,0.9c0.2,0.5,0.4,0.7,0.7,0.8c0.3,0,0.7,0,1.2-0.2l1.1-0.4l1.1-0.5l3-1.7c0.2-0.1,0.4-0.2,0.6-0.3
				c0.2-0.1,0.4-0.2,0.6-0.3c0.9-0.4,1.7-0.2,2.4,0.6c0.1,0.2,0.2,0.5,0.2,0.8c0,0.3-0.1,0.6-0.2,0.8c-0.1,0.1-0.2,0.2-0.3,0.3
				c-0.1,0.1-0.3,0.2-0.4,0.3c-1,0.6-2,1.2-3.2,1.8c-1.2,0.6-2.3,1.2-3.3,1.6c-0.4,0.1-0.8,0.3-1.2,0.4c-0.4,0.1-0.8,0.1-1.2,0.1
				c-0.9,0-1.5-0.2-2-0.7c-0.3-0.3-0.7-0.6-1-1c-0.3-0.4-0.5-0.8-0.8-1.2c-0.2-0.5-0.4-0.8-0.6-1.2c-0.2-0.3-0.3-0.7-0.5-1.2
				c-0.1-0.3-0.2-0.5-0.2-0.6c0-0.1-0.1-0.3-0.2-0.6c-0.2-0.5-0.1-1,0-1.4C222.9,96,223.2,95.8,223.6,95.7z M231.9,74.7
				c0,0.3,0.1,0.6,0.2,1c0.1,0.4,0.1,0.9,0.2,1.3c0.1,0.5,0.1,0.9,0.1,1.3c0,0.4,0,0.8,0.1,1l0.1,3.3c0,0.5,0,1.1,0,1.7
				c0,0.6,0,1.1-0.1,1.4c0,0.4-0.2,0.8-0.6,1.2c-0.4,0.4-0.9,0.5-1.7,0.3c-0.4-0.1-0.7-0.3-0.8-0.6c-0.1-0.3-0.2-0.6-0.1-0.6
				l0.1-2.5c0-0.6-0.1-1.2-0.1-1.8c-0.1-0.6-0.1-1.1-0.1-1.5c-0.1-1.1-0.1-2.1-0.2-3c-0.1-0.9-0.2-1.8-0.3-2.6
				c-0.1-0.5-0.2-1.2-0.4-2c-0.2-0.8-0.3-1.6-0.5-2.4c-0.2-0.8-0.4-1.5-0.5-2.2c-0.2-0.7-0.4-1.1-0.5-1.4c-0.3-0.4-0.3-0.9-0.2-1.4
				c0-0.3,0.2-0.6,0.6-0.8c0.4-0.2,0.7-0.3,1.1-0.1c0.4,0.2,0.8,0.4,1,0.8c0.2,0.3,0.4,0.7,0.6,1c0.3,0.7,0.5,1.5,0.8,2.5
				c0.3,0.9,0.5,1.8,0.7,2.7c0.1,0.4,0.2,1,0.4,1.7C231.7,73.8,231.8,74.3,231.9,74.7z"/>
			<path d="M243.7,89.4l0.6-0.1c0.4-0.1,0.9-0.2,1.4-0.3c0.5-0.2,0.8-0.3,0.9-0.4c0.1-0.6,0.2-1.2,0.2-1.7c0.1-0.5,0.1-1.3,0.1-2.3
				l0-2.2c0-0.3,0-0.5,0-0.8c0-0.3,0.1-0.5,0.4-0.7c0.3-0.2,0.7-0.3,1.3-0.1c0.2,0.1,0.5,0.2,0.9,0.4c0.3,0.2,0.6,0.4,0.7,0.7
				l0.1,0.4c0,0.3,0.1,0.5,0.1,0.7l0.1,0.7l0.1,0.5c0,0.2,0,0.5,0,0.8c0,0.3,0,0.7-0.1,1c0,0.3-0.1,0.6-0.1,0.9
				c0,0.3-0.1,0.4-0.1,0.5c-0.1,0.2-0.1,0.3-0.2,0.6c-0.1,0.2-0.1,0.4-0.2,0.5c0.3-0.1,0.8-0.1,1.3-0.2c0.5-0.1,0.9-0.2,1.2-0.2
				c0.7-0.1,1.5-0.2,2.5-0.3c1-0.1,1.8-0.2,2.4-0.2c1,0.1,1.5,0.6,1.8,1.5c0.1,0.2,0.1,0.5,0,0.7c-0.1,0.2-0.3,0.4-0.6,0.4
				c-0.1,0-0.5,0.1-0.9,0.1c-0.5,0.1-0.8,0.1-0.9,0.1l-1.9,0.3c-0.1,0-0.3,0.1-0.5,0.1c-0.2,0-0.5,0.1-0.8,0.1l-6,0.9
				c-1,0.2-2.1,0.4-3.1,0.7c-1.1,0.3-2,0.6-2.8,0.8c-0.7,0.2-1.4,0.4-2,0.6c-0.6,0.2-1.2,0.4-1.7,0.6c-0.7,0.2-1.2-0.1-1.6-0.7
				c-0.2-0.4-0.4-0.8-0.4-1.4c0-0.1,0-0.3,0.1-0.5c0.1-0.2,0.3-0.3,0.6-0.4l4-1.3c-0.2-0.3-0.3-0.7-0.5-1.3c-0.2-0.6-0.4-1-0.5-1.3
				c-0.1-0.4-0.3-0.9-0.6-1.6c-0.2-0.7-0.4-1.1-0.4-1.3c0-0.2,0.1-0.5,0.3-0.8c0.1-0.4,0.5-0.6,1.1-0.6c0.3,0,0.5,0,0.7,0
				c0.2,0,0.4,0.2,0.7,0.4c0.2,0.2,0.3,0.4,0.4,0.7c0.1,0.3,0.2,0.5,0.3,0.7l0.7,1.8L243.7,89.4z M245.4,80.3
				c-0.9,0.5-1.7,0.9-2.6,1.1c-0.9,0.2-1.5,0.4-1.8,0.4c-1.4,0.1-2.6-0.1-3.6-0.8c-1-0.8-1.6-1.7-1.9-2.9c-0.3-1.2-0.3-2.3-0.1-3.5
				c0.2-0.7,0.4-1.4,0.6-2c0.2-0.6,0.5-1.2,0.7-1.9c0.2-0.4,0.5-0.8,0.8-1.1c0.3-0.3,0.6-0.6,1-0.9c0.2-0.1,0.4-0.2,0.7-0.4
				c0.3-0.2,0.6-0.2,0.8-0.1c0.4,0.1,0.7,0.2,0.9,0.2c0.2,0,0.5-0.1,0.8-0.2c0.5-0.3,1-0.5,1.6-0.6c0.6-0.1,1.2-0.1,1.8,0.1
				c2.3,0.4,4,1.8,5.1,4.1c0.4,0.9,0.5,1.9,0.3,2.8c-0.3,0.9-0.6,1.6-1,2.2s-0.9,1.1-1.4,1.7c-0.4,0.3-0.8,0.6-1.3,1
				C246.2,79.7,245.8,80,245.4,80.3z M240,78.5c0.5,0,1-0.1,1.5-0.2c0.4-0.1,0.9-0.3,1.4-0.5c0.5-0.3,0.9-0.5,1.3-0.7
				c0.4-0.2,0.8-0.5,1.2-0.9c0.3-0.2,0.6-0.5,1-1.1c0.4-0.5,0.7-0.9,0.8-1.1c0.3-0.7,0.2-1.4-0.1-2.1c-0.3-0.6-0.8-1-1.5-0.9
				c-0.7-0.1-1.3-0.1-1.9,0s-1.1,0.2-1.4,0.3c-0.3,0.1-0.5,0.2-0.7,0.2c-0.2,0-0.4,0.1-0.6,0.2c-0.5,0.3-0.9,0.6-1.1,0.9
				c-0.2,0.4-0.5,0.7-0.7,1.1c-0.3,0.4-0.6,1.1-0.6,1.9c-0.1,0.8,0,1.5,0.1,1.9c0.1,0.4,0.3,0.6,0.5,0.7
				C239.5,78.4,239.7,78.5,240,78.5z"/>
			<path d="M255.3,67.7c1.2-0.1,2.5-0.3,3.9-0.7c1.4-0.3,2.7-0.6,4-0.8c0.8-0.2,1.7-0.3,2.5-0.4c0.8-0.1,1.6-0.1,2.2-0.1
				c0.9,0,1.5,0.1,1.8,0.3c0.3,0.2,0.7,0.4,1,0.8c0.2,0.2,0.3,0.5,0.3,0.8c0,0.3-0.1,0.5-0.2,0.7c-0.3,0.3-0.6,0.4-1.1,0.5
				c-1.2,0.2-2.3,0.4-3.2,0.4c-0.9,0.1-2,0.2-3.2,0.5c-1.3,0.3-2.5,0.6-3.8,0.9c-1.3,0.3-2.4,0.5-3.5,0.6c-0.6,0-1.1-0.2-1.5-0.7
				c-0.2-0.2-0.4-0.5-0.5-0.9c-0.1-0.4-0.2-0.7-0.2-1c0-0.2,0.1-0.4,0.2-0.5c0.2-0.1,0.3-0.2,0.5-0.2c0.2,0,0.4-0.1,0.5-0.1
				C255.1,67.8,255.2,67.8,255.3,67.7z M258.7,77.4c0-0.7,0-1.3,0.1-1.7c0.1-0.4,0.3-0.9,0.7-1.4c0.6-0.8,1.2-1.4,2-1.8
				c0.8-0.4,1.6-0.7,2.5-0.8c1.7-0.3,3.1,0.2,4.5,1.4c0.6,0.6,1.1,1.2,1.4,1.8c0.3,0.6,0.5,1.3,0.7,2.2c0.1,0.9,0,1.7-0.4,2.4
				c-0.4,0.7-1.1,1.2-1.9,1.5c-0.6,0.3-1.1,0.5-1.6,0.7c-0.5,0.1-1,0.2-1.5,0.3c-0.6,0.1-1.2,0.1-1.8,0c-0.7-0.1-1.3-0.2-1.8-0.4
				c-0.9-0.4-1.5-0.9-1.9-1.5C259.1,79.5,258.8,78.6,258.7,77.4z M263.3,64.3c-0.9-0.5-1.9-0.9-2.7-1.3c-0.9-0.4-1.7-0.8-2.5-1.3
				c-0.4-0.2-0.8-0.5-1.1-0.9c-0.3-0.4-0.4-0.9-0.5-1.5c0-0.2,0.1-0.4,0.2-0.6s0.3-0.3,0.4-0.4c0.4-0.1,0.8-0.1,1.1,0
				c0.3,0.1,0.6,0.2,0.9,0.3c0.4,0.1,0.9,0.3,1.3,0.6s1.1,0.6,2,1c0.6,0.3,1.1,0.5,1.5,0.7c0.4,0.2,0.9,0.5,1.5,1
				c0.3,0.2,0.5,0.4,0.6,0.6c0.1,0.2,0.3,0.4,0.5,0.7c0.1,0.2,0.1,0.4,0.1,0.7c-0.1,0.2-0.1,0.4-0.3,0.6c-0.1,0.2-0.3,0.3-0.6,0.4
				c-0.3,0.1-0.6,0.1-1,0c-0.3-0.1-0.6-0.1-0.8-0.2C263.9,64.5,263.6,64.4,263.3,64.3z M262.3,78.8c0.6,0.2,1.2,0.3,1.8,0.2
				c1.1,0,2-0.3,2.8-0.8c0.5-0.3,0.7-0.8,0.7-1.4c0-0.6-0.2-1.1-0.6-1.5c-0.3-0.2-0.5-0.3-0.7-0.4c-0.7-0.2-1.2-0.3-1.7-0.2
				c-0.5,0-1,0.3-1.6,0.7c-0.8,0.5-1.3,1.3-1.4,2.1c0,0.2,0,0.5,0,0.8C261.8,78.5,262,78.7,262.3,78.8z M279.2,82.7
				c0.6,0.3,1,0.6,1.4,0.9c0.3,0.4,0.6,0.7,0.9,1.1c0.3,0.5,0.4,1.1,0.4,1.7c0,0.7-0.1,1.2-0.4,1.7c-0.4,0.6-0.9,1.2-1.6,1.8
				c-0.7,0.6-1.3,1.1-1.9,1.4c-0.4,0.2-0.7,0.4-0.9,0.5c-0.2,0.1-0.4,0.3-0.7,0.6c-0.2,0.2-0.2,0.5,0,0.7c0.1,0.3,0.3,0.5,0.5,0.6
				c0.3,0.2,0.5,0.2,0.7,0.2c0.9,0.1,1.8-0.1,2.8-0.4c1-0.4,1.8-0.9,2.6-1.5c0.3-0.2,0.5-0.5,0.7-0.7c0.2-0.2,0.5-0.4,0.8-0.6
				c0.3-0.1,0.6-0.1,0.8,0.1c0.3,0.2,0.4,0.3,0.5,0.4c0.3,0.4,0.4,0.8,0.4,1.2c0,0.5-0.2,0.9-0.4,1.2c-0.2,0.5-0.7,0.9-1.4,1.5
				c-0.7,0.5-1.4,0.9-2,1.2s-1.2,0.4-1.9,0.6c-0.6,0.2-1.2,0.2-1.6,0.3c-1.1,0.1-2.1-0.1-3-0.5c-0.9-0.4-1.6-1-2-1.8
				c-0.5-0.8-0.7-1.7-0.8-2.9c0-1.1,0.5-2,1.4-2.7c0.2-0.2,0.5-0.3,0.8-0.4c0.3-0.1,0.6-0.3,0.8-0.4c0.8-0.4,1.5-0.9,2.1-1.5
				c0.4-0.3,0.6-0.7,0.5-1c0-0.2-0.2-0.3-0.5-0.4c-0.3-0.1-0.7-0.2-1-0.2c-0.5,0-1,0-1.6,0.1c-0.6,0.1-1.1,0.2-1.7,0.3
				c-0.7,0.2-1.3,0.3-1.6,0.1c-0.3-0.2-0.7-0.6-1-1.3c-0.1-0.2-0.2-0.4-0.2-0.6c-0.1-0.2-0.1-0.4-0.1-0.8c0-0.3,0-0.5,0.2-0.6
				c0.2-0.1,0.4-0.3,0.7-0.3s0.6-0.1,0.9-0.2c0.3,0,0.5,0,0.6-0.1c0.9-0.1,1.8-0.1,2.9-0.1C277.4,82.1,278.4,82.3,279.2,82.7z
				 M278.1,80.2c-0.3-0.1-0.6-0.2-0.7-0.6c-0.1-0.3-0.2-0.5-0.2-0.6c0-0.3-0.1-0.6-0.2-1S277,77.3,277,77l-0.2-2.2
				c0-0.7-0.1-1.5-0.2-2.2c-0.1-0.7-0.2-1.3-0.3-1.9c0-0.1,0-0.2-0.1-0.5c-0.1-0.3-0.1-0.5-0.2-0.8c0-0.3-0.1-0.6-0.2-0.8
				c-0.1-0.2-0.1-0.4-0.1-0.5c-0.1-0.5-0.2-1.2-0.4-2.1c-0.2-0.9-0.4-1.8-0.7-2.7c-0.2-0.9-0.5-1.8-0.7-2.6
				c-0.2-0.8-0.4-1.3-0.6-1.6c-0.1-0.2-0.2-0.4-0.2-0.7c0-0.3-0.1-0.5-0.1-0.7c0-0.3,0.2-0.6,0.5-0.9c0.3-0.3,0.7-0.3,1.1-0.2
				c0.4,0.2,0.8,0.4,1.1,0.7c0.3,0.3,0.5,0.6,0.7,1c0.2,0.4,0.3,0.8,0.5,1.3c0.2,0.5,0.4,1.1,0.5,1.7c0.2,0.6,0.3,1.1,0.5,1.7
				c0.1,0.6,0.3,1,0.4,1.4l0.9,4.1c0.3,0,0.5,0,0.6,0c0.1,0,0.3,0,0.6,0c0.8,0,1.4,0,2,0c0.6,0,1.2,0,1.8,0.1c0.9,0,1.6,0.3,2.1,0.8
				c0.2,0.2,0.3,0.5,0.1,0.9c0,0.6-0.4,1-1.2,1.1c-0.3,0-0.7,0-1,0c-0.3,0-0.6,0.1-0.9,0.1c-0.2,0-0.5,0-0.8,0c-0.3,0-0.7,0-1,0.1
				c-0.3,0-0.7,0.1-1,0.1c-0.3,0-0.5,0.1-0.7,0.1c0,0.2,0.1,0.4,0.1,0.7c0,0.3,0.1,0.5,0.1,0.7c0,0.3,0.1,0.7,0.1,1.1
				c0,0.5,0.1,1,0.1,1.5c0.1,0.5,0.1,1,0.1,1.5c0,0.5,0.1,0.9,0.1,1.1c0,0.6-0.2,1.1-0.7,1.4C279.4,80.2,278.8,80.3,278.1,80.2z"/>
			<path d="M319.4,73.4c-0.1,0.2-0.3,0.3-0.5,0.5l-0.4,0.2c-0.7,0.5-1.5,1-2.2,1.3c-0.7,0.3-1.5,0.7-2.2,1c-0.4,0.2-0.7,0.3-1.1,0.4
				c-0.4,0.1-0.7,0.2-1.1,0.4c-0.5,0.2-1,0.2-1.5,0s-0.9-0.4-1.2-0.7c-0.1-0.2-0.2-0.4-0.3-0.7c-0.1-0.3-0.2-0.5-0.3-0.7
				c-0.2,0.1-0.4,0.3-0.6,0.5c-0.2,0.2-0.4,0.4-0.6,0.5c-0.8,0.5-1.5,0.9-2.3,1.2c-0.8,0.3-1.4,0.6-2.1,0.8
				c-0.7,0.2-1.3,0.2-1.9,0.1c-0.6-0.1-1.1-0.4-1.4-0.9c-0.2-0.3-0.4-0.6-0.5-1.1c-0.1-0.5-0.3-0.9-0.4-1.4
				c-0.2-1.5-0.4-2.9-0.4-4.3c0-1.4-0.1-2.8-0.3-4.2c-0.1-0.1-0.3-0.1-0.4,0c-0.1,0-0.3,0-0.5,0c-0.6,0-1-0.2-1.3-0.6
				c-0.1-0.1-0.2-0.3-0.2-0.6c-0.1-0.3-0.1-0.6-0.1-0.9c0-0.3,0.1-0.5,0.2-0.7c0.1-0.2,0.3-0.3,0.6-0.3l1.7-0.3
				c0.4-0.1,0.7-0.1,1-0.2c0.3-0.1,0.5-0.1,0.7-0.1c0.4-0.1,0.8-0.1,1.2-0.2c0.4-0.1,0.8-0.2,1.2-0.3c0.7-0.2,1.3-0.4,1.8-0.6
				c0.5-0.2,1.1-0.4,1.9-0.7c0.4-0.1,0.8-0.3,1.2-0.4c0.4-0.1,0.7-0.1,1.1,0c0.3,0.2,0.6,0.4,0.8,0.5c0.2,0.1,0.4,0.3,0.7,0.6
				c0.1,0.2,0.2,0.5,0.1,0.8c0,0.3-0.2,0.5-0.4,0.6c-0.5,0.2-0.9,0.4-1.3,0.6c-0.4,0.2-0.9,0.3-1.3,0.5c-0.9,0.4-1.8,0.7-2.6,1
				c-0.9,0.3-1.7,0.5-2.6,0.8l-0.5,0.3c0.4,0.4,0.6,0.9,0.7,1.5c0.1,0.5,0.1,1.1,0.1,1.5c0,1.1,0.1,2,0.2,2.7
				c0.1,0.8,0.2,1.6,0.3,2.5c0.1,0.3,0.3,0.5,0.6,0.4c0.6-0.2,1.1-0.4,1.5-0.6l1.9-1c0.6-0.3,1.1-0.7,1.5-1.1c0-0.2,0-0.5,0-0.8
				c0-0.3,0-0.7,0.1-1.1c0-0.4,0-0.8,0.1-1.1c0-0.4,0.1-0.7,0-0.9c-0.1,0-0.4,0-0.8,0c-0.4,0-0.7,0-0.8-0.2
				c-0.2-0.2-0.3-0.6-0.3-1.2c0-0.5,0.1-0.9,0.4-1.1c0.9-0.4,1.8-0.7,2.6-1c0.8-0.3,1.7-0.7,2.6-1.1l2.5-1.1
				c0.4-0.1,0.8-0.1,1.3,0.1c0.5,0.2,0.8,0.4,1.1,0.7c0,0.1,0.1,0.1,0.2,0.2c0.1,0.1,0.1,0.2,0.2,0.3c0.1,0.2,0.1,0.4,0,0.6
				c-0.1,0.2-0.2,0.3-0.4,0.4l-1,0.6l-4.1,1.8c-0.1,0.4-0.2,0.7-0.2,1.1c-0.1,0.4-0.1,0.7-0.1,1c0,0.7,0,1.4,0,2.1
				c0,0.8,0.1,1.5,0.1,2.2c0,0.3,0.1,0.4,0.3,0.5c0.2,0.1,0.3,0.1,0.5,0c0.2,0,0.4-0.1,0.5-0.2c0.2-0.1,0.3-0.1,0.4-0.1
				c0.6-0.3,1.3-0.6,1.9-0.9c0.7-0.3,1.4-0.7,2.1-1.2c0.4-0.2,0.8-0.5,1.4-0.7c0.5-0.2,1-0.2,1.2,0.1c0.3,0.3,0.4,0.8,0.4,1.3
				C319.8,72.8,319.6,73.2,319.4,73.4z M324.2,77.8c-0.7,0.2-1.2,0.1-1.5-0.1c-0.3-0.3-0.5-0.6-0.6-1l-0.4-2.3
				c-0.1-0.8-0.2-1.6-0.3-2.6c-0.1-1-0.3-1.9-0.4-2.9c-0.2-1-0.3-1.9-0.5-2.8c-0.2-0.9-0.3-1.6-0.5-2.3c0-0.1-0.1-0.3-0.1-0.6
				c-0.1-0.3-0.1-0.7-0.2-1.1l-0.3-2c0-0.4-0.1-0.8-0.2-1c-0.1-0.2-0.1-0.6-0.1-1c0-0.1,0-0.2,0.2-0.3c0.2-0.1,0.3-0.2,0.6-0.3
				c0.2-0.1,0.5-0.1,0.8-0.1c0.3,0,0.5,0.1,0.7,0.3c0.3,0.2,0.5,0.5,0.6,0.9c0.1,0.4,0.2,0.8,0.4,1.1c0.1,0.3,0.2,0.6,0.3,1.1
				c0.1,0.5,0.2,1,0.3,1.5c0.1,0.5,0.2,1,0.3,1.5c0.1,0.5,0.2,0.8,0.3,1.1l0.1,0.4c0,0.2,0.1,0.3,0.1,0.4c0.4,0,0.8-0.1,1-0.2
				c0.2-0.1,0.5-0.2,0.9-0.2c0.4-0.1,0.9-0.2,1.4-0.3c0.5-0.1,1-0.3,1.4-0.4l-0.6-3.7c0-0.1-0.1-0.4-0.2-0.9
				c-0.1-0.5-0.2-0.9-0.3-1.5c-0.1-0.5-0.2-1-0.3-1.4c-0.1-0.4-0.1-0.6-0.1-0.7c-0.1-0.2-0.2-0.5-0.2-0.9c0-0.4-0.1-0.7-0.2-0.9
				c0-0.1,0-0.3,0.2-0.5c0.1-0.2,0.3-0.3,0.5-0.5c0.2-0.1,0.4-0.2,0.7-0.2c0.2,0,0.4,0.1,0.6,0.2c0.4,0.2,0.7,0.6,0.9,1.1
				c0.2,0.5,0.4,1,0.5,1.5c0.1,0.2,0.2,0.5,0.3,0.9c0.1,0.4,0.2,0.9,0.3,1.4c0.1,0.5,0.2,1.1,0.3,1.6c0.1,0.5,0.2,1,0.2,1.3
				c0.2,1.5,0.5,3.1,0.8,4.8c0.3,1.6,0.5,3.3,0.7,5c0,0.3,0.1,0.7,0.2,1.3c0.1,0.6,0.2,1.2,0.2,1.8c0.1,0.6,0.1,1.2,0.1,1.8
				c0,0.6,0,1-0.1,1.2c0,0.2-0.1,0.4-0.2,0.6c-0.1,0.1-0.2,0.3-0.4,0.4c-0.7,0.3-1.2,0.2-1.7-0.2c-0.1-0.1-0.3-0.4-0.4-0.8
				c-0.2-0.4-0.2-0.7-0.2-1l-0.6-4.3c-0.1-0.7-0.2-1.3-0.3-2c-0.1-0.6-0.2-1.3-0.3-2.1c-0.9,0.1-1.7,0.3-2.5,0.4s-1.4,0.3-2,0.5
				l0.1,0.4c0,0.2,0.1,0.5,0.1,0.8c0,0.3,0.1,0.5,0.1,0.8l0.1,0.4l0.4,4.8c0,0.3-0.1,0.5-0.2,0.8C324.7,77.5,324.5,77.7,324.2,77.8z
				"/>
		</g>
		<g class="st3">
			<path d="M103.8,152c-0.2-0.7-0.3-1.3-0.4-1.8c-0.1-0.5-0.3-1.1-0.5-1.8c0-0.1-0.1-0.3-0.2-0.5c-0.1-0.2-0.2-0.5-0.3-0.8
				c-0.1-0.3-0.2-0.6-0.3-0.8c-0.1-0.2-0.2-0.4-0.3-0.5c-0.3-0.5-0.5-1-0.5-1.4c0-0.5,0.2-0.9,0.8-1.3c0.9-0.1,1.6,0.2,2.1,1
				c0.2,0.2,0.4,0.5,0.5,1c0.2,0.5,0.4,1,0.6,1.5c0.2,0.5,0.4,1,0.5,1.5c0.2,0.5,0.3,0.9,0.4,1.2c0.2,0.8,0.4,1.6,0.5,2.2
				c0.1,0.6,0.2,1.3,0.5,2.2c0.2,0.7,0.3,1.2,0.3,1.8c0,0.5,0.1,1.1,0.2,1.8c0.1,0.8,0.2,1.4,0.3,1.8c0,0.3,0.1,0.7,0.1,1.2l0.2,1.3
				c0,0.3,0.1,0.6,0.1,0.9c0,0.4,0,0.8,0,1.2c0,0.4,0,0.8,0,1.2c0,0.4,0,0.7,0,1c0,0.5-0.1,0.9-0.4,1.3c-0.1,0.1-0.2,0.2-0.4,0.3
				c-0.2,0.1-0.4,0.2-0.6,0.2c-0.3,0.1-0.6,0-0.9-0.2c-0.3-0.2-0.4-0.6-0.5-1.1c-0.1-0.6-0.1-1.3-0.2-2.1c-0.1-0.8-0.1-1.4-0.1-2
				l-0.1-1.2c0-0.3,0-0.5,0-0.6c0-0.2,0-0.3,0-0.5c0-0.2,0-0.4-0.1-0.7c0-0.3-0.1-0.6-0.2-1l-0.2-1.2c-0.7,0.2-1.5,0.5-2.3,0.7
				c-0.8,0.2-1.5,0.4-2.2,0.6c-0.4,0.1-0.9,0.2-1.5,0.4c-0.6,0.2-1.2,0.3-1.5,0.3c-0.5,0.1-0.9,0.1-1,0c-0.1,0.8-0.2,1.4-0.5,1.9
				c-0.2,0.5-0.4,0.8-0.5,0.9c-0.7,1.1-1.6,1.8-2.7,2.4c-1.1,0.5-2.2,0.9-3.3,1.1c-1.5,0.4-2.8,0.4-4-0.1c-1.1-0.4-1.9-1.3-2.5-2.7
				c-0.4-0.8-0.5-1.6-0.6-2.3c0-0.8,0.1-1.5,0.2-2.3c0.4-1.5,0.9-2.8,1.4-3.8c0.5-1,1.2-2,2.1-3.1c0.1-0.1,0.3-0.2,0.6-0.3
				c0.3,0,0.6-0.1,1-0.1c0.3,0,0.7,0,1,0c0.3,0,0.5,0,0.6,0c0.2,0,0.5,0.1,0.9,0.2c0.4,0.1,0.7,0.2,0.9,0.3c0.8,0.4,1.5,0.9,2.1,1.3
				c0.6,0.4,1.2,1,1.8,1.6c0.4,0.6,0.7,1.3,0.9,2c0.1-0.1,0.2-0.1,0.3-0.2l0.3,0c0.5-0.1,0.9-0.3,1.3-0.4c0.4-0.1,0.8-0.2,1.4-0.4
				l5.3-1.5L103.8,152z M86.9,162c0.5,0,1.1-0.1,2-0.4c0.8-0.2,1.5-0.6,2-0.9c0.7-0.4,1.2-1,1.6-1.6c0.4-0.6,0.5-1.4,0.3-2.2
				c-0.1-0.6-0.2-1-0.4-1.3c-0.2-0.3-0.4-0.6-0.7-0.9c-0.3-0.3-0.6-0.5-1-0.7c-0.3-0.2-0.7-0.3-1-0.4c-0.3,0-0.6,0-0.9,0.2
				c-0.9,0.6-1.6,1.3-2.2,2.2c-0.9,1.5-1.2,3-1.1,4.6c0.1,0.6,0.2,0.9,0.5,1.2C86.3,161.9,86.6,162,86.9,162z M101.3,172.9
				c0.4,0.2,0.9,0.2,1.4,0.1c0.5-0.1,1-0.2,1.5-0.3l4-1.3c0.5-0.1,0.9-0.3,1.3-0.5c0.4-0.2,0.7-0.3,1-0.3c0.3-0.1,0.6-0.1,0.9,0
				c0.3,0.1,0.5,0.3,0.8,0.6c0.3,0.3,0.4,0.5,0.5,0.8c0.1,0.4,0,0.6-0.1,0.8c-0.1,0.2-0.3,0.4-0.6,0.6c-0.1,0.1-0.5,0.3-1,0.5
				c-0.5,0.3-0.9,0.4-1,0.4c-0.9,0.4-1.9,0.7-3,1c-1.1,0.3-2.1,0.6-3.1,0.8c-1.2,0.3-2.1,0.3-2.8,0c-0.7-0.3-1.4-0.7-2-1.4
				c-0.2-0.4-0.5-0.8-0.7-1.4c-0.2-0.5-0.4-1-0.5-1.4c-0.1-0.1-0.2-0.4-0.3-0.8c-0.1-0.4-0.2-0.8-0.3-1.3c-0.1-0.5-0.2-0.9-0.3-1.3
				c-0.1-0.4-0.1-0.7-0.2-0.8c-0.1-0.4,0-0.7,0-0.9c0.1-0.2,0.4-0.4,0.9-0.5c0.5,0,1,0.1,1.4,0.5c0.4,0.3,0.7,0.8,0.8,1.6l0.1,0.5
				c0,0.3,0.1,0.6,0.3,1c0.1,0.4,0.2,0.6,0.2,0.8l0.6,1.7C101,172.7,101.1,172.8,101.3,172.9z"/>
			<path d="M117.3,160c-0.7,1-1.3,1.8-1.9,2.5c-0.6,0.7-1.3,1.5-2.1,2.3c-0.5,0.5-0.9,0.9-1.3,1.2c-0.4,0.3-0.8,0.4-1.3,0.3
				c-0.5-0.1-0.8-0.3-1.1-0.8c-0.2-0.4-0.4-0.7-0.5-1.1c-0.1-0.4,0-0.7,0.3-0.9c0.9-0.9,1.8-1.8,2.6-2.7c0.8-0.8,1.6-1.9,2.5-3.1
				c0.3-0.4,0.5-0.7,0.6-0.9c0.2-0.2,0.3-0.4,0.4-0.6c0.1-0.2,0.2-0.3,0.3-0.5c0.1-0.2,0.2-0.4,0.4-0.7c0.2-0.3,0.4-0.8,0.6-1.3
				c0.2-0.5,0.3-1,0.3-1.4c0-0.4-0.1-0.7-0.3-0.9c-0.2-0.2-0.5-0.4-0.9-0.5c-0.5-0.1-1-0.2-1.5-0.2c-0.5,0-1,0-1.5,0.1
				c-0.3,0.1-0.8,0.2-1.3,0.4c-0.6,0.2-1,0.3-1.3,0.4c-0.1,0-0.2,0-0.4,0.1c-0.1,0-0.2,0.1-0.4,0.1c-0.6,0-1.1-0.3-1.4-1.1
				c-0.4-1-0.3-1.7,0.2-2.1c0.4-0.3,0.9-0.5,1.5-0.7c0.6-0.2,1.1-0.3,1.6-0.4c0.6-0.1,1.2-0.1,1.8-0.1c0.7,0,1.3,0,2,0.1
				c0.7,0.1,1.3,0.2,1.8,0.4c0.6,0.2,1.1,0.4,1.4,0.7c0.6,0.5,1,0.9,1.2,1.4c0.6,1,0.8,2.1,0.6,3.4c-0.1,0.7-0.3,1.3-0.6,1.9
				c-0.3,0.6-0.6,1.2-0.9,1.7c0.2,0.2,0.5,0.3,0.8,0.5c0.3,0.2,0.5,0.3,0.6,0.3l1.1,0.7c0.3,0.2,0.7,0.4,1.1,0.7
				c0.4,0.2,0.8,0.5,1.2,0.7c0.4,0.2,0.7,0.4,1,0.6c0.3,0.2,0.5,0.3,0.6,0.3c0.9,0.4,1.2,1.1,0.9,1.9c-0.2,0.4-0.4,0.7-0.7,0.9
				c-0.3,0.1-0.7,0.2-1,0.1c-0.3-0.1-0.8-0.3-1.5-0.6c-0.7-0.3-1.1-0.6-1.5-0.8c-0.6-0.3-1.2-0.7-1.8-1.1c-0.6-0.4-1.2-0.8-1.8-1.1
				L117.3,160z M129.7,157.5c-0.1-0.2-0.1-0.4-0.2-0.6c-0.1-0.2-0.1-0.5-0.2-0.8c-0.4,0.1-0.7,0.3-1.1,0.4c-0.4,0.1-0.7,0.2-1.1,0.4
				l-2.3,0.8c-1,0.2-1.7,0-2-0.6c-0.2-0.3-0.3-0.5-0.3-0.7c0-0.2-0.1-0.4-0.2-0.7c-0.1-0.4,0.1-0.8,0.5-1c0.4-0.1,0.7-0.3,1-0.4
				c0.3-0.1,0.7-0.2,1-0.4l3.9-1.2l-1.1-4.6c-0.2-0.6-0.4-1.2-0.6-1.7c-0.2-0.5-0.4-1-0.6-1.7c-0.2-0.5-0.2-1-0.1-1.5
				c0.1-0.2,0.2-0.3,0.4-0.4c0.2-0.1,0.5-0.2,0.6-0.3c0.1,0,0.3,0,0.4,0c0.2,0,0.3,0.1,0.4,0.1c0.6,0.5,1.1,1.1,1.6,2
				c0.1,0.3,0.2,0.6,0.3,0.9c0.1,0.3,0.2,0.6,0.3,0.9c0.7,2.3,1.3,4.5,1.7,6.7c0.4,2.2,0.9,4.5,1.3,6.8c0.1,0.7,0.3,1.3,0.3,1.8
				c0.1,0.5,0.2,1.1,0.2,1.8c0,0.4,0,0.8,0,1.2c0,0.4-0.2,0.7-0.5,0.8c-0.4,0.2-0.7,0.2-1.2,0.2s-0.8-0.2-1-0.4
				c-0.1-0.1-0.3-0.4-0.4-0.7c-0.1-0.3-0.2-0.6-0.2-0.8c-0.1-0.4-0.1-0.8-0.1-1.2c0-0.4-0.1-0.8-0.1-1.2c-0.1-0.7-0.2-1.4-0.3-2
				C130,158.9,129.9,158.2,129.7,157.5z M132.6,138.8c0.3-0.2,0.6-0.3,1-0.3c0.4,0,0.7,0,0.7,0.1c0.5,0.3,0.9,0.7,1.2,1.2
				c0.2,0.5,0.5,1,0.7,1.6c0.3,0.7,0.5,1.5,0.7,2.3c0.2,0.8,0.4,1.6,0.6,2.3c0.3,1.4,0.6,2.6,0.8,3.7c0.2,1.1,0.4,2.1,0.6,3.1
				c0.2,1,0.3,2,0.5,3c0.2,1,0.3,2.1,0.5,3.3c0.1,0.4,0.1,1,0.2,1.6c0.1,0.7,0.1,1.3,0.2,2c0.1,0.7,0.1,1.4,0.2,2
				c0,0.7,0.1,1.2,0.1,1.7c0,0.3,0,0.5,0,0.8c0,0.3-0.1,0.5-0.1,0.8c-0.1,0.3-0.3,0.6-0.7,0.8c-0.4,0.2-0.8,0.2-1.1,0
				c-0.3-0.1-0.5-0.4-0.8-0.6c-0.3-0.3-0.4-0.6-0.4-1.2c0-0.9,0-1.9-0.1-3c-0.1-1.2-0.2-2.2-0.4-3c-0.2-1-0.3-1.8-0.4-2.4
				c-0.1-0.7-0.2-1.3-0.2-1.9c-0.1-0.6-0.2-1.2-0.2-1.9c-0.1-0.7-0.2-1.5-0.4-2.4c-0.3-1.6-0.5-3-0.9-4.3c-0.3-1.3-0.7-2.7-1.2-4.2
				c-0.1-0.7-0.4-1.3-0.6-1.9c-0.2-0.5-0.4-1.1-0.5-1.7C132.4,139.5,132.4,139.1,132.6,138.8z"/>
			<path d="M144.4,160c-0.9,0-1.5-0.1-2-0.5c-0.5-0.4-0.9-0.9-1.2-1.7c-0.1-0.3-0.3-0.6-0.4-1c-0.1-0.4-0.2-0.8-0.3-1.1
				c-0.1-0.4-0.2-0.9-0.3-1.5c-0.1-0.6-0.3-1.3-0.4-1.9c-0.1-0.7-0.3-1.3-0.4-1.9c-0.1-0.6-0.2-1.1-0.3-1.5
				c-0.1-0.3-0.1-0.6-0.1-1.1c0.1-0.3,0.2-0.6,0.5-0.8c0.2-0.1,0.5-0.1,0.8-0.1c0.3,0,0.6,0.1,0.8,0.3c0.4,0.4,0.6,0.7,0.8,1.1
				c0.2,0.4,0.3,0.8,0.5,1.3c0,0,0.1,0.3,0.2,0.9c0.1,0.6,0.3,1.2,0.4,1.9c0.2,0.7,0.3,1.3,0.4,1.9c0.1,0.6,0.2,0.9,0.2,0.9
				c0.1,0.9,0.6,1.3,1.4,1.1c0.6-0.1,1-0.3,1.3-0.4c0.3-0.1,0.7-0.3,1.3-0.5c0.9-0.4,1.9-0.9,2.8-1.4c1-0.5,1.9-0.9,2.8-1.4
				c0.4-0.1,0.7-0.3,1-0.5c0.3-0.2,0.7-0.3,1-0.5c0.8-0.3,1.4-0.1,1.6,0.8c0.1,0.3,0.1,0.6,0.1,1.1c0,0.4-0.1,0.7-0.3,1
				c-0.2,0.3-0.5,0.5-0.9,0.7c-1,0.6-2,1.1-3.1,1.7c-1.1,0.6-2.1,1.1-3.2,1.6c-0.5,0.2-1.1,0.4-1.6,0.6c-0.5,0.2-1.1,0.4-1.6,0.5
				c-0.4,0.1-0.8,0.3-1.2,0.3C144.9,160,144.6,160,144.4,160z M161.4,147.3c0.1,0,0.3,0,0.5,0l0.5-0.1c0.7,0,1.3-0.1,1.8-0.2
				c0.4-0.1,1-0.1,1.8-0.1c0.8,0,1.5,0.1,2.1,0.3c0.3,0.1,0.6,0.3,0.9,0.4c0.3,0.2,0.5,0.3,0.6,0.4c0.2,0.3,0.3,0.6,0.2,1
				c-0.1,0.4-0.3,0.7-0.7,0.9c-0.2,0.1-0.4,0.1-0.7,0.1c-0.6,0-1.1,0-1.6,0.1c-0.5,0-1,0.1-1.5,0.1l-1.4,0.2c-0.3,0-0.5,0.1-0.8,0.1
				c-0.3,0-0.6,0.1-0.9,0.2l0.6,3.8c0.1,0.5,0.1,1,0.2,1.4c0,0.4,0.1,1,0.2,1.9c0.1,0.8,0.2,1.7,0.3,2.5c0.1,0.9,0.2,1.7,0.2,2.5
				c0,0.2,0,0.4,0,0.6c0,0.2,0,0.4-0.1,0.5c-0.2,0.6-0.7,0.9-1.3,0.9c-0.2,0-0.4-0.1-0.7-0.2c-0.3-0.1-0.5-0.2-0.7-0.4
				c-0.3-0.3-0.4-0.6-0.5-0.9c-0.1-0.3-0.1-0.8-0.1-1.3l-0.2-2.3c0-0.4,0-1-0.1-1.8c-0.1-0.8-0.1-1.4-0.2-1.8l-0.3-1.7
				c0-0.3-0.1-0.5-0.1-0.7c-0.1-0.2-0.1-0.6-0.2-1c-0.3-1.6-0.7-3.2-1-4.6c-0.3-1.4-0.7-2.9-1.2-4.5l-1.4-4.8
				c-0.2-0.5-0.3-1-0.5-1.6c-0.2-0.6-0.1-1,0.3-1.3c0.1-0.1,0.4-0.2,0.6-0.2c0.3,0,0.6,0,0.8,0c0.4,0.2,0.8,0.5,1.1,1
				c0.3,0.5,0.6,1,0.8,1.6c0.2,0.4,0.3,0.8,0.4,1.1c0.1,0.3,0.2,0.6,0.2,0.8c0.1,0.3,0.1,0.6,0.2,0.8c0.1,0.3,0.2,0.7,0.3,1.1
				c0.2,0.7,0.4,1.5,0.7,2.4C161,145.8,161.2,146.6,161.4,147.3z"/>
			<path d="M194.3,142c0.1,0,0.4-0.1,0.8-0.2c0.4-0.1,0.8-0.2,1.2-0.2c0.4-0.1,0.8-0.2,1.2-0.2c0.3-0.1,0.6-0.1,0.6-0.1
				c0.7-0.1,1.4-0.1,1.9-0.1c0.6,0,1,0.3,1.3,0.8c0.1,0.4,0.2,0.7,0.2,1c0,0.3-0.2,0.6-0.6,0.7c-0.5,0.2-1.1,0.3-1.7,0.4
				c-0.6,0.1-1.2,0.3-1.8,0.4c-0.7,0.1-1.2,0.3-1.6,0.3c-0.4,0.1-0.8,0.2-1.1,0.3l-1.1,0.3l-1.4,0.4c-0.1,0-0.3,0.1-0.8,0.2
				c-0.4,0.1-0.7,0.2-0.8,0.3c0,0.7,0.1,1.3,0.1,1.8c0,0.5,0,1,0,1.6c0,0.8-0.1,1.5-0.1,2.2c0,0.7-0.1,1.4-0.3,2
				c-0.1,0.3-0.3,0.5-0.6,0.6c-0.3,0.1-0.6,0.1-0.9,0.1c-0.5,0-0.8-0.2-1.1-0.6c-0.2-0.3-0.2-0.6-0.2-0.8c0-0.2,0-0.7,0-1.3
				c0-0.7-0.1-1.5-0.1-2.2c0-0.8,0-1.6,0-2.4c-0.4,0.1-0.8,0.2-1.3,0.3c-0.5,0.1-1,0.3-1.5,0.4l-1.6,0.4c-0.3,0.1-0.5,0.1-0.7,0.2
				c-0.2,0-0.5,0.1-0.6,0.1c-0.7,0.1-1.1-0.1-1.4-0.6c-0.3-0.5-0.5-1-0.7-1.5c-0.2-0.5-0.1-0.8,0.2-0.9c0.3-0.2,0.6-0.3,0.9-0.3
				c0.4-0.1,0.9-0.2,1.3-0.3c0.5-0.1,0.9-0.2,1.3-0.3c0.3-0.1,0.8-0.2,1.3-0.3c0.5-0.1,1.2-0.3,1.8-0.5c0.7-0.2,1.4-0.4,2.1-0.6
				c0.7-0.2,1.4-0.4,2.1-0.6c0.8-0.2,1.5-0.4,2.1-0.6C193.3,142.2,193.9,142.1,194.3,142z M183,142c-0.4,0.4-0.8,0.6-1.2,0.6
				c-0.4,0-0.8-0.1-1-0.3c-0.8-0.7-0.8-1.5-0.2-2.4c0.7-0.7,1.3-1.6,2-2.6c0.7-1,1.3-1.9,1.8-2.9c1-1.8,1.8-3.5,2.3-5.1
				c0.2-0.7,0.4-1.3,0.6-1.7c0.2-0.4,0.6-0.6,1.1-0.6c0.6,0,1.1,0.3,1.4,0.9c0.3,0.6,0.4,1.2,0.3,1.8c-0.2,1.1-0.6,2.2-1,3.3
				c-0.5,1.1-1,2.1-1.6,3c-0.6,1.1-1.3,2.1-2.1,3.2C184.7,140.2,183.9,141.2,183,142z M189.2,134.8c0.1-0.3,0.4-0.6,0.6-0.8
				c0.3-0.2,0.6-0.2,1,0l4.2,1.6c0.3,0.1,0.7,0.2,1.1,0.4c0.5,0.1,0.8,0.3,1,0.4c0.3,0.1,0.5,0.4,0.6,0.8c0.1,0.4,0.1,0.7,0,1
				c-0.1,0.6-0.4,0.9-0.8,0.9c-0.4,0-0.9,0-1.5-0.2c-1.2-0.3-2.3-0.6-3.3-1c-1-0.3-1.8-0.7-2.5-1.1c-0.2-0.2-0.4-0.4-0.7-0.8
				C188.9,135.7,188.9,135.3,189.2,134.8z M207.3,150.1c0.2,0.3,0.4,0.8,0.6,1.5c0.2,0.7,0.3,1.5,0.5,2.3c0.3,1.4,0.4,2.7,0.3,4
				c0,1.3-0.1,2.3-0.3,3c-0.3,1.1-0.9,1.8-1.8,2.2c-1,0.4-2,0.7-3.1,0.9c-1.1,0.2-2,0.4-2.9,0.6c-0.3,0.1-0.7,0.2-1.1,0.2
				c-0.4,0.1-0.8,0.1-1.1,0.1c-1.3,0.1-2.2-0.5-2.9-1.5c-0.3-0.6-0.6-1.1-0.7-1.7c-0.2-0.6-0.3-1.1-0.5-1.7c-0.2-0.5-0.3-1-0.4-1.3
				c-0.1-0.3-0.2-0.7-0.3-1c-0.1-0.3-0.2-0.7-0.3-1.1c-0.1-0.4-0.2-0.9-0.3-1.5l-0.4-1.5c0-0.3,0-0.5,0.1-0.7
				c0.1-0.2,0.3-0.3,0.5-0.3c0.2-0.1,0.4-0.1,0.6-0.1c0.2,0,0.4,0,0.5,0c0.3,0,0.6,0.2,0.8,0.4c0.2,0.2,0.5,0.8,0.7,1.6
				c0.1,0.4,0.2,0.7,0.2,0.9c0,0.2,0.1,0.4,0.2,0.7c0.8-0.2,1.8-0.4,2.9-0.5c1.1-0.2,2.1-0.3,3-0.6c0.6-0.1,1.2-0.2,1.6-0.3
				c0.5,0,0.9,0,1.3,0c0-0.1,0-0.3,0-0.5l-0.1-0.6c-0.1-0.2-0.2-0.6-0.2-1.2c-0.1-0.6-0.2-1-0.3-1.3c-0.1-0.2-0.1-0.4-0.1-0.6
				c0-0.2,0.1-0.4,0.4-0.7c0.4-0.1,0.6-0.2,0.8-0.2c0.2,0,0.5,0,0.8,0C206.8,149.7,207,149.9,207.3,150.1z M205.6,157.4
				c-0.5,0-1.1,0-2,0.1s-1.8,0.3-2.7,0.5c-0.9,0.2-1.7,0.4-2.4,0.6c-0.7,0.2-1.1,0.3-1.2,0.4c0,0.2,0.1,0.5,0.2,0.9
				c0.1,0.4,0.2,0.8,0.4,1.1c0.1,0.3,0.3,0.5,0.6,0.6c0.3,0.1,0.7,0.1,1.1,0l0.9-0.1c0.6-0.1,1.3-0.2,2.1-0.4
				c0.8-0.2,1.3-0.3,1.6-0.4c0.4-0.1,0.6-0.2,0.8-0.4c0.2-0.1,0.3-0.3,0.5-0.6c0,0,0.1-0.2,0.1-0.4c0-0.2,0.1-0.5,0.1-0.7
				c0-0.3,0-0.5,0-0.8C205.7,157.7,205.6,157.5,205.6,157.4z M200.3,127.1c-0.2-0.6-0.2-1.2-0.2-1.6c0.1-0.5,0.4-0.9,1.1-1.1
				c0.6-0.2,1.1-0.1,1.3,0.3c0.3,0.4,0.5,0.9,0.7,1.3l0.5,1.4c0.2,0.8,0.5,1.6,0.6,2.4c0.2,0.8,0.4,1.6,0.5,2.3
				c0.1,0.5,0.3,1.4,0.5,2.6c0.2,1.2,0.5,2.4,0.7,3.7l0.5,3.3c0.1,0.6,0.2,1.1,0.2,1.5c0.1,0.5,0.1,0.8,0.1,1.1
				c0.1,0.4,0.1,0.8,0.1,1.2c0,0.4,0,0.8-0.1,1.2c-0.2,0.7-0.5,1.1-1.2,1.3c-0.4,0.1-0.7,0.1-0.9,0c-0.2-0.1-0.5-0.3-0.7-0.6
				c-0.2-0.3-0.3-0.7-0.3-1.1c0-0.4-0.1-0.7-0.1-0.9c-0.1-0.4-0.1-1-0.2-1.8c-0.1-0.8-0.2-1.7-0.3-2.6l-0.3-1.8
				c-0.2-1.2-0.5-2.4-0.7-3.6c-0.2-1.1-0.4-2-0.6-2.6L200.3,127.1z"/>
			<path d="M225.5,141.1c-0.4,0.1-0.7,0.1-1,0.2c-0.3,0.1-0.5,0.1-0.8,0.2l-4.9,1.2c-0.1,0.1-0.3,0.1-0.5,0.1
				c-0.2,0-0.3,0.1-0.4,0.1l-0.8,1.4c-0.5,0.8-1,1.7-1.5,2.7c-0.5,1-1.1,1.8-1.6,2.6c-0.2,0.2-0.3,0.4-0.5,0.6
				c-0.2,0.2-0.3,0.3-0.4,0.4c-0.2,0.1-0.4,0.1-0.6,0.1c-0.2,0-0.4-0.1-0.5-0.2c-0.7-0.5-1.1-1.2-1.2-2.1c0-0.1,0-0.3,0.1-0.5
				c0.1-0.2,0.2-0.4,0.3-0.5l2-3.1l0.5-0.7c0.7-1,1.2-2,1.6-3c0.2-0.4,0.3-0.8,0.4-1.1c0.1-0.3,0.1-0.6,0.1-1c0-0.5-0.2-0.8-0.6-1
				c-0.4-0.2-0.9-0.3-1.3-0.4c-0.4-0.1-0.9-0.1-1.4-0.1c-0.6,0-1.3,0.1-1.9,0.1c-0.6,0.1-1.2,0.2-1.8,0.5c-0.5,0.2-0.9,0.2-1.3,0
				c-0.4-0.1-0.7-0.6-0.9-1.4c-0.1-0.2-0.1-0.3-0.1-0.5c0-0.1,0-0.3,0-0.5c-0.1-0.4,0.2-0.7,0.7-0.9c0.6-0.2,1.3-0.3,2.1-0.5
				c0.8-0.2,1.6-0.2,2.3-0.2c0.9,0.1,1.7,0.2,2.5,0.3c0.8,0.2,1.5,0.5,2.4,1.1l0.4,0.3c0.2,0.1,0.3,0.2,0.4,0.3
				c0.6,0.6,1,1.1,1.2,1.6c0.2,0.5,0.4,1.2,0.5,1.9l0.8-0.1l4.3-1c0.2-0.1,0.4-0.1,0.7-0.1c0.2,0,0.4-0.1,0.6-0.2
				c0-0.8-0.1-1.6-0.4-2.6c-0.2-1-0.4-1.7-0.5-2.3c-0.1-0.5-0.2-0.9-0.3-1.4c-0.1-0.5-0.1-0.9-0.1-1.4c0-0.3,0.2-0.5,0.5-0.6
				c0.3-0.1,0.6-0.2,0.7-0.1c0.1,0,0.2,0.1,0.4,0.1c0.2,0,0.3,0.1,0.4,0.1c0.6,0.4,0.9,0.9,1.1,1.5c0.2,0.6,0.4,1.2,0.6,2
				c0.3,1.4,0.6,2.8,0.8,4.2l1.2,7.3c0,0.5,0.1,1.1,0.2,1.7c0.1,0.6,0.1,1.2,0.1,1.7c0,0.2,0,0.5-0.1,0.8c-0.1,0.3-0.2,0.6-0.5,0.7
				c-0.3,0.1-0.6,0.1-1.1,0.1c-0.5-0.1-0.8-0.2-0.9-0.4c-0.4-0.4-0.7-1-0.8-1.7c-0.1-0.8-0.1-1.8-0.3-2.8c-0.1-1-0.2-2-0.3-2.8
				c0-0.1,0-0.2-0.1-0.4C225.6,141.5,225.6,141.3,225.5,141.1z M228.6,123.1c0.3-0.2,0.6-0.3,1-0.2c0.4,0,0.7,0.1,0.7,0.1
				c0.5,0.3,0.9,0.7,1.1,1.2c0.2,0.5,0.4,1,0.6,1.6c0.3,0.7,0.5,1.4,0.6,2c0.1,0.6,0.3,1.3,0.4,2.1c0.6,2.7,1.1,5.3,1.5,7.6
				c0.4,2.3,0.7,4.8,1,7.2c0.1,0.4,0.1,1,0.2,1.6c0.1,0.6,0.1,1.2,0.2,1.9c0,0.6,0.1,1.3,0.1,1.9c0,0.6,0,1.2,0,1.6
				c0,0.3,0,0.5-0.1,0.8c-0.1,0.3-0.1,0.5-0.2,0.8c-0.1,0.3-0.3,0.6-0.7,0.7c-0.4,0.1-0.8,0.1-1.1-0.1c-0.3-0.1-0.5-0.3-0.9-0.5
				c-0.3-0.2-0.5-0.6-0.4-1.1c0-0.9,0-1.8,0-2.9c-0.1-1-0.2-2-0.2-2.8l-1.1-9.3c-0.2-1.6-0.4-3.1-0.7-4.6c-0.3-1.5-0.6-3-1-4.5
				c-0.1-0.7-0.4-1.3-0.6-1.9c-0.2-0.5-0.3-1.1-0.5-1.7C228.4,123.8,228.4,123.4,228.6,123.1z"/>
			<path d="M249.3,140.4c-0.9,0.3-1.5,0.1-1.8-0.8c-0.2-0.5-0.3-1.1-0.2-1.6c0.1-0.5,0.5-0.8,1.1-0.9c1.4-0.5,3.1-1.1,5.1-1.6
				c2-0.5,4.2-1,6.7-1.4c0.6-0.1,1.2-0.2,2-0.3c0.8-0.1,1.6-0.2,2.4-0.3c0.9-0.1,1.7-0.2,2.6-0.2c0.9-0.1,1.6-0.1,2.3-0.1
				c0.4,0,0.9,0,1.4,0c0.5,0,1,0,1.2,0c0.5,0.1,0.9,0.3,1,0.7c0.1,0.3,0.2,0.8,0.2,1.2c0,0.5-0.2,0.8-0.6,1
				c-0.4,0.1-0.9,0.2-1.5,0.2c-0.7,0-1.5,0.1-2.5,0.2s-2,0.2-3.1,0.3c-1.1,0.1-2.1,0.2-3.1,0.3c-1,0.1-1.8,0.2-2.4,0.3
				c-2,0.3-3.9,0.7-5.6,1.2C252.7,139.2,251,139.8,249.3,140.4z M263.5,122.5c0.8,0.4,1.5,0.8,2.1,1.1c0.6,0.4,1.3,0.7,2.2,1.1
				c0.3,0.1,0.7,0.3,1.1,0.5c0.4,0.2,0.7,0.4,1,0.5c0.3,0.1,0.5,0.4,0.6,0.9c0.1,0.5,0,0.8-0.1,1.1c-0.3,0.3-0.5,0.4-0.8,0.5
				c-0.3,0.1-0.6,0-1.1-0.1c-0.4-0.1-0.7-0.2-0.8-0.3c-0.6-0.2-1.1-0.5-1.7-0.7c-0.6-0.3-1.2-0.6-1.8-0.9c-0.3-0.1-0.6-0.3-0.8-0.4
				c-0.2-0.1-0.5-0.3-1-0.4c-0.2,0.4-0.5,1-0.8,1.6c-0.3,0.7-0.6,1.2-0.9,1.7c-0.5,0.8-1,1.6-1.5,2.2c-0.2,0.3-0.5,0.5-1,0.7
				c-0.4,0.2-0.8,0.2-1.1,0c-0.4-0.1-0.7-0.3-1-0.8c-0.1-0.1-0.2-0.3-0.2-0.6c0-0.3,0-0.5,0.2-0.8l0.4-0.5c0.2-0.2,0.3-0.4,0.5-0.7
				c0.1-0.3,0.3-0.6,0.6-1l-3.3-1.6c-0.6,1-1.2,2-1.8,3.1c-0.7,1.1-1.3,2-2,2.6c-0.4,0.3-0.8,0.4-1.3,0.3c-0.5-0.1-0.9-0.3-1.1-0.7
				c-0.1-0.1-0.2-0.3-0.4-0.6c-0.1-0.3,0-0.6,0.2-0.9c0.8-0.9,1.4-1.9,2.1-3c0.6-1.1,1.2-2.1,1.8-3.1c0.3-0.5,0.5-1,0.7-1.5
				c0.2-0.5,0.4-1,0.6-1.4c0.2-0.5,0.3-1,0.5-1.5c0.2-0.5,0.3-1.1,0.5-1.8c0.1-0.2,0.1-0.5,0.2-0.8c0.1-0.3,0.2-0.5,0.5-0.6
				c0.3-0.2,0.8-0.2,1.4,0.1c0.3,0.2,0.5,0.4,0.7,0.7c0.2,0.3,0.3,0.8,0.3,1.5c-0.1,0.5-0.2,1.3-0.5,2.2c-0.3,0.9-0.6,1.7-0.9,2.3
				l3.4,1.6l0.6-1.3c0.2-0.4,0.3-0.8,0.5-1.2c0.2-0.4,0.4-1,0.7-1.8c0.2-0.5,0.3-1,0.4-1.5c0.1-0.5,0.2-1,0.2-1.5
				c0.1-0.5,0.4-0.8,0.9-0.8c0.6,0,1.1,0.2,1.5,0.6c0.3,0.3,0.4,0.5,0.5,0.8c0.1,0.3,0.1,0.6,0.1,1c0,0.2-0.1,0.4-0.1,0.7
				c-0.1,0.3-0.1,0.6-0.2,1c-0.1,0.4-0.2,0.7-0.3,1c-0.1,0.3-0.2,0.5-0.2,0.6L263.5,122.5z M260.6,148.7c0.7-0.3,1.3-0.6,1.7-0.9
				c0.4-0.2,0.9-0.5,1.4-0.9l0.5-0.4l0.4-0.5c0.6-1,0.4-1.6-0.5-1.7c-0.9-0.1-1.6-0.1-2,0c-0.5,0.1-1,0.1-1.5,0.3
				c-0.2,0-0.5,0.1-0.8,0.2c-0.4,0.1-0.6,0.2-0.8,0.2c-0.7,0.1-1.2,0.1-1.5-0.2c-0.3-0.2-0.4-0.5-0.5-0.9l-0.1-0.4
				c0-0.3-0.1-0.6-0.1-0.9c0-0.3,0-0.6,0.1-0.6c0.1-0.1,0.2-0.2,0.3-0.2c0.1,0,0.2-0.1,0.3-0.1c0.4-0.2,1-0.4,1.8-0.5
				c0.8-0.2,1.4-0.3,1.9-0.3c0.3,0,0.7,0,1,0c0.3,0,0.6,0,1,0c1.4,0.2,2.5,0.8,3.3,1.7c0.6,0.7,1,1.5,1.2,2.5c0.1,1,0,1.8-0.3,2.5
				c-0.3,0.6-0.7,1.1-1.1,1.4c-0.4,0.3-0.9,0.8-1.6,1.3c-0.1,0.1-0.3,0.2-0.4,0.3c-0.1,0.1-0.3,0.2-0.4,0.3l-0.8,0.5
				c-0.3,0.2-0.5,0.3-0.7,0.4c-0.1,0.1-0.3,0.2-0.7,0.3c0,0.4,0.1,0.9,0.3,1.3c0.2,0.5,0.4,0.9,0.5,1.1c0.1,0.3,0.4,0.3,0.8,0.3
				c0.2,0,0.4-0.1,0.5-0.1c0.2,0,0.5-0.2,0.9-0.3c1.3-0.6,2.6-1.4,3.9-2.2c0.4-0.3,0.8-0.5,1-0.7c0.3-0.2,0.6-0.5,1-0.7
				c0.3-0.2,0.6-0.3,0.7-0.3c0.2,0,0.4,0.1,0.6,0.4s0.3,0.5,0.4,0.7c0.2,0.2,0.2,0.6,0.1,1s-0.2,0.7-0.3,0.9
				c-0.4,0.4-0.8,0.8-1.3,1.3c-0.5,0.4-1,0.8-1.6,1.1c-0.8,0.5-1.6,0.9-2.3,1.3c-0.7,0.4-1.5,0.7-2.3,1l-1,0.3c-1,0.2-1.7,0.2-2.3,0
				c-0.6-0.2-1.1-0.6-1.5-1.2c-0.1-0.1-0.2-0.3-0.3-0.6c-0.1-0.3-0.2-0.6-0.3-0.9c-0.1-0.3-0.2-0.6-0.3-0.9
				c-0.1-0.3-0.2-0.5-0.2-0.6c-0.1-0.3-0.2-0.6-0.4-1.1s-0.3-0.9-0.4-1.3c-0.1-0.4,0-0.9,0.1-1.2s0.4-0.7,0.9-0.9L260.6,148.7z"/>
			<path d="M298.1,134.5l0.1,0.2c0.3,0.9,0.6,1.7,0.7,2.4c0.2,0.8,0.3,1.7,0.5,2.9c0.1,0.4,0.1,0.8,0.1,1c0,0.2,0,0.4,0.1,0.6
				l0.1,0.6c0,0.1,0,0.2,0.1,0.4s0,0.4,0,0.6c0.1,0.8,0.2,1.6,0.2,2.4c0.1,0.8,0.1,1.4,0,1.9c-0.1,0.4-0.3,0.6-0.8,0.7
				c-0.5,0.1-0.9,0.1-1.3,0c-0.4-0.2-0.7-0.5-0.9-0.9c-0.1-0.4-0.2-0.8-0.2-1.1c0-0.9-0.1-1.6-0.1-2.2c-0.1-0.6-0.1-1.1-0.2-1.6
				l-0.6-3.5c-0.1-0.5-0.2-1.1-0.4-1.8c-0.2-0.7-0.4-1.2-0.6-1.7l-0.1-0.2c-0.9,0.2-1.8,0.4-2.7,0.6c-0.9,0.2-1.8,0.5-2.6,0.8
				c-0.5,0.2-1,0.3-1.4,0.4c-0.4,0.1-0.9,0.3-1.4,0.4c-0.9,0.4-1.6,0.5-1.9,0.2c-0.4-0.3-0.6-0.8-0.8-1.3c0-0.1-0.1-0.2-0.1-0.4
				l-0.1-0.4c0-0.2,0.1-0.3,0.1-0.4c0.1-0.1,0.2-0.2,0.4-0.3l2.9-1c0.4-0.1,1-0.3,1.8-0.5c0.8-0.2,1.6-0.4,2.5-0.7
				c0.9-0.2,1.7-0.5,2.5-0.7c0.8-0.2,1.4-0.4,1.8-0.5c1.6-0.3,3-0.5,4.3-0.6c1.2-0.1,2.7-0.2,4.3-0.3c0.3,0,0.5,0,0.7,0
				c0.2,0,0.4,0,0.6,0c0.3,0,0.6,0,0.9,0.2c0.3,0.2,0.6,0.4,0.7,0.6c0.1,0.1,0.1,0.3,0.2,0.6c0.1,0.2,0.1,0.5,0.1,0.7
				c0,0.2-0.1,0.4-0.2,0.6c-0.1,0.2-0.4,0.3-0.7,0.3c-1.3,0-2.4,0.1-3.5,0.2c-1,0.1-2.2,0.3-3.4,0.5L298.1,134.5z M290.9,125.1
				c-0.5,0.7-0.8,1.3-1.2,1.9c-0.3,0.5-0.8,1.2-1.3,2l-0.2,0.3c-0.2,0.3-0.5,0.4-0.8,0.5s-0.6,0-0.9-0.2c-0.2-0.1-0.4-0.2-0.5-0.4
				c-0.1-0.1-0.2-0.2-0.3-0.3c-0.3-0.6-0.4-1.1-0.3-1.6c0.1-0.5,0.3-1,0.7-1.4c0.7-0.9,1.2-1.7,1.6-2.4c0.4-0.7,1-1.6,1.6-2.5
				c0.1-0.3,0.3-0.5,0.5-0.8c0.2-0.3,0.3-0.6,0.5-0.9c0.2-0.3,0.3-0.5,0.4-0.8c0.1-0.2,0.2-0.4,0.2-0.4c0.2-0.2,0.3-0.5,0.5-0.9
				c0.2-0.4,0.4-0.8,0.6-1.2c0.2-0.4,0.4-0.9,0.5-1.3c0.2-0.4,0.3-0.8,0.4-1.1c0.1-0.3,0.3-0.4,0.5-0.5c0.2-0.1,0.5,0,0.8,0.1
				c0.3,0.1,0.6,0.3,0.8,0.5c0.2,0.2,0.4,0.4,0.7,0.7c0.2,0.2,0.3,0.4,0.3,0.6c0,0.3,0,0.5-0.1,0.8c0,0.1-0.1,0.3-0.3,0.6
				c-0.2,0.3-0.3,0.7-0.5,1.1c-0.2,0.4-0.3,0.8-0.5,1.2s-0.2,0.6-0.3,0.7c0.2,0.1,0.4,0.2,0.6,0.3c0.2,0.1,0.4,0.2,0.6,0.3
				c0.9,0.4,1.8,0.8,2.5,1.2c0.8,0.4,1.6,0.8,2.6,1.3c0.5,0.3,0.9,0.5,1.2,0.7c0.3,0.2,0.7,0.4,1.1,0.7c0.3,0.2,0.5,0.5,0.6,0.8
				c0.1,0.2,0.1,0.4,0.1,0.8c-0.1,0.4-0.2,0.7-0.4,0.9c-0.4,0.4-0.8,0.4-1.3,0.2l-2.8-1.4c-0.5-0.3-0.9-0.5-1.3-0.6
				c-0.3-0.2-0.7-0.3-1-0.4c-0.3-0.1-0.6-0.3-1-0.4c-0.4-0.1-0.8-0.3-1.4-0.5c-0.3-0.1-0.6-0.3-0.9-0.4c-0.3-0.1-0.6-0.3-0.9-0.4
				L290.9,125.1z"/>
			<path d="M322.5,111.7c1,0.1,1.7,0.3,2.2,0.5c0.5,0.2,0.9,0.3,1.3,0.5c1,0.6,1.7,1.3,2.3,2.1c0.6,0.8,1,1.7,1.4,2.6
				c0.4,1,0.4,2,0.1,3c-0.3,1-0.9,1.9-1.8,2.5c-0.8,0.5-1.5,0.9-2.1,1.1c-0.7,0.2-1.4,0.5-2.1,0.8c-0.6,0.2-1.2,0.3-1.8,0.4
				c-0.6,0.1-1.2,0.1-1.9,0c-1.1-0.2-2-0.6-2.5-1.2c-0.5-0.5-0.9-1.2-1.2-2c-0.6-1.5-0.6-2.9,0-4.4c0.1-0.3,0.2-0.6,0.4-1
				c0.2-0.4,0.4-0.8,0.6-1.3c0.2-0.4,0.4-0.9,0.7-1.3c0.2-0.4,0.5-0.8,0.7-1c0.2-0.4,0.5-0.7,0.9-0.9c0.4-0.2,0.7-0.3,1.1-0.4
				c0.4-0.1,0.7-0.1,1-0.2C322.1,111.6,322.3,111.6,322.5,111.7z M335.7,137.2c-0.4,0.8-0.9,1.6-1.4,2.3c-0.5,0.8-1,1.4-1.6,2.1
				c-0.3,0.4-0.7,0.7-1.2,0.9c-0.5,0-1-0.1-1.3-0.3c-0.3-0.2-0.5-0.5-0.7-0.8c-0.2-0.5-0.2-0.9-0.1-1.1c0.2-0.2,0.4-0.5,0.7-0.9
				c0.4-0.4,0.7-0.8,0.9-1.1c0.2-0.3,0.5-0.7,0.7-1.1c-0.6-0.1-1.2-0.1-1.8-0.2c-0.6-0.1-1.1-0.2-1.3-0.2c-0.3,0-0.6,0-0.9-0.1
				l-0.7-0.2c-0.2,0.3-0.4,0.7-0.6,1c-0.2,0.3-0.4,0.7-0.5,1c-0.1,0.3-0.3,0.5-0.3,0.7c-0.1,0.2-0.2,0.4-0.3,0.6
				c-0.1,0.2-0.2,0.4-0.3,0.6c-0.1,0.2-0.3,0.5-0.4,0.8c0,0.1-0.1,0.2-0.2,0.4l-0.2,0.3c-0.2,0.3-0.4,0.4-0.7,0.5
				c-0.3,0-0.6,0-0.8,0c-0.3-0.1-0.5-0.2-0.8-0.3s-0.4-0.3-0.4-0.4c-0.2-0.4-0.3-0.7-0.2-1c0.1-0.3,0.2-0.6,0.3-0.8
				c0.2-0.4,0.4-0.7,0.6-1c0.2-0.3,0.3-0.6,0.5-0.8c0.1-0.3,0.3-0.5,0.5-0.8c0.2-0.3,0.3-0.6,0.5-1c0.7-1.4,1.3-2.7,1.8-3.9
				c0.5-1.3,0.9-2.5,1.4-3.8c0.1-0.2,0.2-0.4,0.4-0.6c0.2-0.1,0.4-0.2,0.6-0.1c0.2,0.1,0.5,0.2,0.8,0.4c0.3,0.1,0.5,0.3,0.7,0.6
				c0.1,0.1,0.2,0.3,0.3,0.6c0,0.3,0,0.5-0.1,0.8c-0.1,0.4-0.2,0.8-0.4,1.3c-0.2,0.5-0.3,1-0.5,1.4l-0.3,0.8c0.3,0.2,0.6,0.3,1,0.4
				l1.1,0.2c0.3,0.1,0.8,0.1,1.4,0.1c0.6,0,1.1,0.1,1.7,0.2c0.3-0.6,0.5-1.1,0.8-1.7c0.3-0.6,0.5-1.2,0.8-1.8c0,0,0.1-0.2,0.2-0.6
				c0.1-0.4,0.3-0.8,0.4-1.2c0.1-0.4,0.3-0.9,0.4-1.3c0.1-0.4,0.2-0.7,0.2-0.8c0.1-0.3,0.3-0.6,0.5-0.7c0.3-0.2,0.6-0.1,1.1,0.1
				c0.3,0.2,0.6,0.4,0.8,0.7c0.2,0.3,0.4,0.6,0.6,1c-0.2,0.8-0.5,1.8-0.9,2.8c-0.4,1.1-0.7,2-1,2.8c-0.2,0.6-0.5,1.2-0.9,1.9
				C336.3,136.3,336,136.8,335.7,137.2z M320.5,116.8c-0.3,0.5-0.6,1.1-0.7,1.6c-0.1,0.5-0.3,1.1-0.5,1.7c0,0.3,0,0.6,0,1
				c0.1,0.4,0.2,0.6,0.4,0.7c0.1,0.2,0.3,0.3,0.6,0.3c0.3,0.1,0.5,0.1,0.7,0c1.1-0.3,2-0.5,2.6-0.8c0.6-0.3,1.2-0.6,1.8-0.9
				c0.4-0.3,0.8-0.6,1.1-1c0.2-0.4,0.3-1,0.1-1.7c-0.2-0.7-0.5-1.3-0.9-1.6c-0.2-0.2-0.5-0.4-0.9-0.6c-0.4-0.3-0.8-0.4-1.2-0.5
				c-0.2,0-0.5-0.1-0.7-0.1c-0.2,0-0.5,0-0.7,0.1c-0.4,0.1-0.7,0.4-1,0.7C320.9,116.1,320.7,116.4,320.5,116.8z M335.2,112.9
				c-0.1-0.2-0.2-0.6-0.3-1c-0.1-0.5-0.3-1-0.4-1.5c-0.2-0.5-0.3-1-0.4-1.4c-0.1-0.4-0.3-0.7-0.4-0.9c-0.2-0.5-0.4-1-0.7-1.5
				c-0.3-0.5-0.3-1-0.2-1.3s0.4-0.5,0.8-0.6c0.4-0.1,0.7-0.1,0.9,0c0.4,0.2,0.8,0.5,1.1,0.9c0.3,0.4,0.6,0.9,0.9,1.3
				c0.3,0.7,0.7,1.5,0.9,2.3c0.3,0.8,0.5,1.6,0.7,2.4c0.2,0.8,0.4,1.5,0.5,2.2c0.1,0.7,0.3,1.4,0.5,2.2c0.1,0.4,0.2,0.7,0.3,1.1
				c0.1,0.4,0.1,0.7,0.2,1.1l0.3,1.7c0,0.2,0.1,0.4,0.1,0.6c0,0.2,0.1,0.6,0.1,1.1c0.1,0.4,0.1,0.8,0,1.3c0,0.4-0.1,0.8-0.3,1.1
				c-0.1,0.2-0.2,0.3-0.4,0.4c-0.2,0.1-0.4,0.2-0.7,0.2c-0.3,0-0.5,0.1-0.7,0c-0.2,0-0.4-0.1-0.5-0.2c-0.1-0.1-0.2-0.1-0.2-0.2
				c-0.1-0.1-0.1-0.2-0.2-0.3c-0.1-0.1-0.2-0.5-0.2-1c0-0.5-0.1-0.8-0.1-0.9l-0.9-5.5c0-0.1-0.1-0.3-0.2-0.7
				c-0.1-0.3-0.2-0.7-0.3-1.1c-0.1-0.4-0.2-0.8-0.3-1.1C335.3,113.2,335.2,113,335.2,112.9z M337.8,134.9c0.1-0.5,0.4-0.8,0.7-0.8
				c0.4,0,0.6,0,0.7,0c0.4,0.2,0.8,0.3,1.1,0.4c0.3,0.1,0.6,0.2,0.9,0.3c0.3,0.1,0.6,0.2,0.9,0.3c0.3,0.1,0.7,0.2,1.1,0.4
				c0.6,0.2,1.2,0.3,1.7,0.4c0.6,0.1,1.1,0.2,1.7,0.3c1.1,0.2,1.7,0.8,1.7,1.8c-0.1,0.1-0.1,0.3-0.2,0.5c-0.1,0.2-0.1,0.3-0.2,0.3
				c-0.4,0.2-0.7,0.3-1,0.3c-0.4,0-0.7,0-0.9,0c-0.2,0-0.5,0-0.7-0.1c-0.2,0-0.4-0.1-0.7-0.1c-0.2-0.1-0.5-0.1-0.9-0.2
				c-0.5-0.1-0.9-0.2-1.2-0.3c-0.3-0.1-0.6-0.2-0.9-0.2c-0.3-0.1-0.6-0.2-0.9-0.3c-0.3-0.1-0.7-0.2-1.1-0.4
				c-0.3-0.1-0.6-0.2-0.9-0.4c-0.3-0.1-0.5-0.3-0.6-0.4c-0.1-0.1-0.2-0.2-0.5-0.6S337.5,135.5,337.8,134.9z"/>
			<path d="M342.6,123.4c0.5-0.2,1.2-0.4,1.9-0.6c0.7-0.2,1.4-0.4,2.2-0.6c0.7-0.2,1.5-0.4,2.2-0.5c0.7-0.1,1.3-0.3,1.8-0.3
				c0.5-0.1,1.1-0.3,1.9-0.4c0.7-0.2,1.4-0.3,1.9-0.4c0.4-0.1,1-0.1,1.7-0.2c0.7-0.1,1.5-0.2,2.3-0.3c0.8-0.1,1.6-0.2,2.3-0.3
				c0.7-0.1,1.3-0.1,1.7-0.2c0.3,0,0.6,0,1-0.1c0.4,0,0.7,0,1.1,0.1c0.2,0.1,0.5,0.2,0.7,0.4c0.3,0.2,0.5,0.4,0.7,0.6
				c0.2,0.2,0.3,0.5,0.4,0.8c0.1,0.3,0.1,0.6,0,0.9c-0.2,0.3-0.4,0.4-0.8,0.5l-0.6,0.1c-0.2,0-0.4,0-0.5,0l-4.1,0.3
				c-0.2,0-0.4,0-0.7,0.1c-0.3,0-0.6,0.1-1,0.2l-2.4,0.4c-0.8,0.1-1.7,0.3-2.4,0.4c-0.8,0.2-1.3,0.3-1.7,0.3
				c-0.5,0.1-1.1,0.2-1.8,0.4c-0.7,0.2-1.4,0.3-2.1,0.5c-0.7,0.2-1.4,0.4-2.1,0.6c-0.7,0.2-1.3,0.3-1.7,0.4
				c-0.7,0.2-1.2,0.1-1.4-0.5c-0.2-0.4-0.5-0.8-0.6-1.3C342.2,124,342.3,123.6,342.6,123.4z M344.4,105.6c0.1-0.1,0.3-0.1,0.6-0.1
				c0.3,0,0.5,0.1,0.7,0.2c0.3,0.2,0.6,0.6,0.8,1.1c0.2,0.5,0.4,1,0.5,1.4l0.5,2c0.1,0.3,0.2,0.7,0.3,1c0.1,0.3,0.2,0.6,0.3,1
				c0.1,0.3,0.3,0.6,0.6,1c0.2,0.4,0.7,0.5,1.4,0.4c0.3-0.1,0.8-0.1,1.3-0.2c0.6-0.1,1.1-0.2,1.7-0.4c0.6-0.1,1.1-0.3,1.7-0.4
				c0.5-0.1,1-0.3,1.3-0.3c0.2,0,0.5-0.1,1-0.2c0.5-0.1,0.8-0.2,1-0.2c0.4-0.1,0.7-0.1,1-0.1c0.2,0,0.5,0,0.7,0
				c0.2,0,0.4,0.1,0.5,0.3c0.2,0.1,0.3,0.4,0.6,0.6c0.3,0.3,0.4,0.7,0.5,1.2c0,0.5-0.1,0.9-0.6,1c-0.1,0-0.3,0-0.4,0.1
				c-0.1,0-0.3,0.1-0.4,0.1l-0.9,0.3c-0.4,0.1-0.9,0.2-1.7,0.4c-0.8,0.2-1.6,0.4-2.5,0.6c-0.9,0.2-1.7,0.4-2.5,0.5
				c-0.8,0.2-1.4,0.3-1.7,0.3c-0.6,0.1-1.3,0.1-2,0c-0.7-0.1-1.2-0.4-1.6-0.9c-0.4-0.4-0.6-0.9-0.8-1.3c-0.2-0.4-0.3-0.9-0.5-1.4
				c-0.2-0.8-0.5-1.8-0.8-3c-0.3-1.1-0.5-2.1-0.7-3c-0.1-0.4-0.1-0.7-0.2-1C343.9,106.2,344,105.9,344.4,105.6z M351.8,127.2
				c0.1,0,0.2,0,0.3-0.1c0.1,0,0.3,0,0.4,0c0.8,0.3,1.3,0.8,1.6,1.6l1.3,4.5c0.1,0.3,0.3,0.5,0.5,0.7c0.1,0.1,0.3,0.2,0.5,0.2
				c0.3,0,0.5,0,0.6-0.1c1.2-0.3,2.2-0.5,3.1-0.6c0.9-0.2,1.9-0.4,2.9-0.7c0.5-0.2,1.1,0,1.7,0.4c0.6,0.5,1,1,1.1,1.5
				c0,0.2,0,0.5-0.1,0.7c-0.1,0.2-0.3,0.4-0.5,0.5l-4.1,1.1l-3.3,0.7l-0.6,0.1c-0.8,0.1-1.6,0-2.3-0.3c-0.7-0.3-1.3-0.8-1.7-1.5
				l-0.7-1.5l-0.3-0.9l-0.3-1.1l-0.3-1.1c-0.1-0.2-0.1-0.4-0.1-0.5c0-0.2-0.1-0.3-0.1-0.5c-0.1-0.6-0.2-1-0.2-1.3
				c0-0.3,0-0.6-0.1-0.9c0,0,0-0.2,0.1-0.4C351.2,127.4,351.4,127.3,351.8,127.2z"/>
		</g>
		<g class="st3">
			<path d="M150.2,211.3c0.1,0.2,0.2,0.5,0.3,0.8c0.1,0.3,0.1,0.5,0.1,0.7c0,0.4,0,0.7,0,0.9c0,0.2,0,0.5-0.1,0.9
				c0,0.4-0.1,0.8-0.2,1.2c-0.1,0.4-0.1,0.7-0.3,1.2l-0.1,0.5c0.1,0,0.3-0.1,0.6-0.1c0.3-0.1,0.5-0.1,0.6-0.1
				c0.8-0.2,1.7-0.4,2.8-0.6c1.1-0.2,2-0.4,2.8-0.5c0.3-0.1,0.7-0.1,1-0.1c0.4,0,0.7,0,1.1,0c0.3,0,0.7,0.1,1.1,0.2
				c0.4,0.1,0.7,0.2,0.9,0.4c0.2,0.1,0.3,0.4,0.4,0.8c0.1,0.4,0.1,0.7,0.1,0.9c-0.2,0.4-0.5,0.6-0.9,0.6c-0.4,0-0.8,0-1.2,0.1
				c-0.4,0-0.8,0.1-1.2,0.1c-0.4,0.1-0.9,0.1-1.5,0.2c-0.6,0.1-1.1,0.2-1.7,0.3c-0.6,0.1-1.2,0.2-1.7,0.3c-0.5,0.1-1,0.2-1.4,0.3
				c-0.6,0.2-1.4,0.4-2.4,0.7c-1,0.3-1.8,0.5-2.4,0.9l-4.4,1.7c-0.8,0.4-1.5,0.3-2-0.4c-0.1-0.1-0.2-0.2-0.2-0.3
				c-0.1-0.1-0.1-0.2-0.2-0.4c-0.1-0.2-0.2-0.4-0.2-0.7c0-0.3,0.1-0.5,0.3-0.6c0.3-0.2,0.9-0.5,1.8-0.8c0.8-0.3,1.6-0.5,2.2-0.8
				l0.7-0.4c0.4-0.2,0.7-0.4,0.8-0.6c0.2-0.2,0.3-0.4,0.5-0.7c0.3-0.7,0.6-1.4,0.8-1.9c0.2-0.5,0.3-1.2,0.4-2.1c0-0.3,0-0.6,0.1-0.9
				c0-0.3,0-0.5-0.1-0.8c-0.8,0.2-1.6,0.5-2.2,0.7c-0.6,0.2-1.3,0.3-1.9,0.3c-1.1,0.2-1.9-0.1-2.4-0.7c-0.5-0.6-0.9-1.5-1-2.6
				c0-0.3-0.1-0.6-0.2-1.2c-0.1-0.5-0.2-1-0.4-1.6c-0.1-0.5-0.2-1-0.3-1.5s-0.2-0.8-0.3-1c-0.2-0.9-0.4-1.5-0.6-1.9
				c-0.1-0.3-0.3-0.7-0.4-1.1c-0.2-0.5-0.4-0.9-0.5-1.3c-0.1-0.4-0.3-0.7-0.5-1.1c-0.2-0.5-0.1-0.9,0.4-1.1c0.5-0.3,1.1-0.3,1.7-0.2
				c0.4,0.2,0.7,0.4,0.9,0.7c0.2,0.3,0.4,0.7,0.5,1.1l0.7,1.9c0.1,0.4,0.2,0.6,0.3,0.7c0.1,0.1,0.2,0.5,0.3,1
				c0.4-0.1,0.7-0.3,0.9-0.3c0.2-0.1,0.5-0.2,0.9-0.3c0.5-0.2,0.9-0.3,1.2-0.5c0.3-0.1,0.7-0.2,1-0.4c0.3-0.1,0.7-0.2,1.1-0.3
				c0.4-0.1,0.9-0.2,1.4-0.4c0.7-0.2,1.4-0.4,2.1-0.5l1.2-0.2c0-0.2,0.1-0.3,0-0.4c0-0.1,0-0.1-0.1-0.2c-0.1-0.8-0.3-1.5-0.5-2
				c-0.2-0.5-0.3-1.1-0.5-1.7c-0.2-0.5-0.4-1-0.6-1.7c0-0.2,0-0.3,0.2-0.5c0.2-0.1,0.4-0.2,0.6-0.3c0.2-0.1,0.4-0.1,0.7-0.1
				c0.2,0,0.4,0,0.5,0.1c0.4,0.2,0.8,0.4,0.9,0.8c0.2,0.4,0.4,0.8,0.6,1.2c0.2,0.4,0.3,1,0.5,1.8c0.2,0.8,0.3,1.3,0.3,1.7
				c0.1,0.3,0.2,0.8,0.3,1.4c0.1,0.6,0.2,1.3,0.2,1.9c0.1,0.7,0.1,1.3,0.1,1.9c0,0.6,0,1.1,0,1.3c0,0.3,0,0.7,0,1.1
				c0,0.4-0.1,0.8-0.2,1.2c-0.2,0.6-0.4,1-0.5,1.2c-0.2,0.3-0.4,0.5-0.7,0.7c-0.3,0.2-0.5,0.3-0.9,0.4c-0.3,0.1-0.7,0.3-1.2,0.4
				L150.2,211.3z M151.5,203.6c-0.2,0-0.4,0.1-0.5,0.1c-0.2,0-0.3,0.1-0.5,0.2c-0.8,0.2-1.6,0.4-2.2,0.7c-0.7,0.3-1.4,0.5-2.1,0.8
				c-0.5,0.2-0.9,0.4-1.3,0.5c-0.4,0.1-0.8,0.2-1.2,0.4c-0.4,0.1-0.7,0.1-1,0c-0.3-0.1-0.5-0.2-0.6-0.3c0.1,0.4,0.2,0.7,0.3,1
				c0.1,0.3,0.1,0.5,0.2,0.7c0.1,0.2,0.1,0.5,0.2,0.8c0.1,0.3,0.1,0.6,0.2,1c0.1,0.4,0.2,0.6,0.4,0.6c0.2,0,0.5,0,0.8,0
				c0.4-0.1,0.7-0.2,1-0.3c0.3-0.1,0.6-0.2,0.8-0.3l2-0.8c0.5-0.2,1-0.4,1.6-0.5c0.6-0.2,1-0.2,1.4-0.2c0.4-0.6,0.7-1.2,0.7-1.9
				C151.6,205.3,151.6,204.5,151.5,203.6z"/>
			<path d="M172.1,205.5c0,0.4,0,0.9-0.1,1.4c-0.1,0.5-0.2,1-0.4,1.5c-0.2,0.5-0.5,1-0.8,1.3c-0.3,0.3-0.6,0.6-1,0.9
				c-1,0.6-2.1,1-3.1,1.1c-0.9,0.1-1.8,0.2-2.8,0c-1-0.1-1.8-0.5-2.6-1.1c-0.6-0.5-1.1-1.1-1.5-1.6c-0.4-0.5-0.7-1.1-1-1.8
				c-0.1-0.2-0.2-0.4-0.3-0.7c-0.1-0.3-0.2-0.6-0.3-0.9c-0.1-0.3-0.2-0.6-0.3-0.9c-0.1-0.3-0.2-0.4-0.2-0.5
				c-0.1-0.2-0.3-0.4-0.3-0.7c-0.1-0.3-0.1-0.6-0.1-1c0-0.4,0-0.7,0.1-1c0-0.3,0.1-0.6,0.3-0.7c0.2-0.3,0.4-0.5,0.4-0.6
				c0.1-0.1,0.3-0.2,0.6-0.5c0.9-0.6,1.7-1,2.5-1.4c0.8-0.3,1.7-0.5,2.9-0.6c0.5,0,1,0.1,1.6,0.1s1.2,0.2,1.6,0.5
				c1.5,0.7,2.6,1.7,3.3,2.8C171.3,202.3,171.8,203.7,172.1,205.5z M161,204.5c0.2,0.5,0.3,1.1,0.5,1.6c0.2,0.5,0.5,1,0.9,1.5
				c0.7,0.8,1.7,1.1,2.8,1c0.4,0,0.8-0.1,1.1-0.2c0.3-0.1,0.7-0.3,1-0.5c0.7-0.5,1.1-1.1,1.3-1.8c0.2-0.7,0.1-1.4-0.1-2.2
				c-0.1-0.7-0.5-1.3-1-1.7c-0.5-0.5-1.2-0.7-1.9-0.8c-0.9-0.2-1.7-0.1-2.3,0.1c-0.6,0.2-1.2,0.5-1.8,0.9c-0.4,0.2-0.6,0.5-0.6,0.9
				C160.8,203.6,160.9,204,161,204.5z M178,191.3c0.2,0.5,0.4,1,0.6,1.3c0.2,0.4,0.3,0.7,0.4,1s0.2,0.6,0.4,1
				c0.1,0.4,0.3,0.8,0.5,1.3c0.1,0.4,0.2,0.7,0.3,1c0.1,0.3,0.2,0.6,0.2,1c0.1,0.3,0.2,0.7,0.3,1.2c0.1,0.5,0.2,1,0.4,1.7
				c0.3,1.4,0.5,2.8,0.7,4.2c0.1,1.4,0.2,2.7,0.3,4l0,1.1c0,0.6,0,1.3,0,2.1c0,0.8,0,1.3-0.1,1.8c0,0.5-0.1,0.9-0.1,1.4
				c0,0.5-0.1,1-0.4,1.5c-0.2,0.4-0.4,0.7-0.7,0.8c-0.3,0.1-0.7,0.1-1.1,0.1c-0.4,0-0.7-0.2-1.1-0.6c-0.3-0.4-0.5-0.9-0.4-1.4
				c0.2-0.8,0.3-1.5,0.3-2.2c0-0.7,0.1-1.4,0.1-2.3c0-0.7,0-1.4,0-1.9c0-0.5,0-1.1-0.1-1.6c0-0.5-0.1-1.1-0.1-1.6
				c0-0.5-0.1-1.2-0.2-1.9c-0.1-0.6-0.2-1.1-0.2-1.4c0-0.4-0.1-0.7-0.1-0.9c0-0.3-0.1-0.6-0.2-0.9c-0.1-0.3-0.2-0.8-0.3-1.4
				c-0.2-1.1-0.5-2.2-0.9-3.4c-0.3-1.2-0.7-2.2-1.1-3.1c-0.2-0.4-0.3-0.6-0.4-0.8c-0.1-0.2-0.2-0.3-0.2-0.4
				c-0.1-0.1-0.1-0.3-0.2-0.5c-0.1-0.2-0.2-0.4-0.3-0.7c-0.1-0.1-0.1-0.3,0-0.6c0.1-0.3,0.2-0.5,0.4-0.7c0.2-0.2,0.5-0.3,0.8-0.4
				c0.3-0.1,0.7,0,1,0.3C177.1,189.8,177.6,190.5,178,191.3z"/>
			<path d="M207.1,211.2c-0.1,0.4-0.4,0.6-0.8,0.6c-0.4,0-0.7,0.1-1.1,0l-1.2,0c-0.7,0-1.6,0-2.7,0.1c-1.1,0.1-2.2,0.2-3.3,0.4
				c-1.1,0.2-2.3,0.3-3.3,0.6c-1.1,0.2-1.9,0.4-2.6,0.6c-0.8,0.2-1.8,0.5-2.9,0.8c-1.1,0.3-2,0.6-2.8,0.8l-0.5,0.2
				c-0.9,0.3-1.5,0.1-1.9-0.8c-0.1-0.2-0.2-0.4-0.2-0.6c0-0.2-0.1-0.4-0.2-0.6c-0.3-0.5-0.1-0.8,0.4-1c0.6-0.2,1.3-0.4,2.1-0.6
				c0.8-0.2,1.5-0.4,2.1-0.6c0.5-0.1,1.1-0.3,1.9-0.5c0.8-0.2,1.7-0.4,2.6-0.6c0.9-0.2,1.8-0.4,2.6-0.5c0.8-0.1,1.5-0.3,2-0.3
				c0.4-0.1,1-0.1,1.7-0.2c0.7-0.1,1.4-0.1,2.1-0.2c0.7,0,1.4-0.1,2.1-0.1c0.7,0,1.3,0,1.7,0c0.2,0,0.5,0.1,0.8,0.3
				c0.3,0.2,0.6,0.4,0.8,0.6c0.2,0.2,0.4,0.5,0.5,0.8C207.3,210.7,207.3,210.9,207.1,211.2z M184,203.5c0.6-0.8,1.3-1.7,1.9-2.7
				s1.3-2.1,1.8-3.3c0.5-0.8,0.8-1.4,1.1-2c0.3-0.5,0.5-1.1,0.8-1.8c0.2-0.5,0.4-0.8,0.5-1.1c0.1-0.3,0.2-0.7,0.4-1.2
				c0.1-0.4,0.2-0.9,0.3-1.4c0.1-0.5,0.2-0.9,0.3-1.4c0.2-0.4,0.5-0.6,0.9-0.5c0.4,0.1,0.9,0.3,1.4,0.5c0.4,0.2,0.6,0.4,0.7,0.8
				c0.1,0.3,0.1,0.7,0.1,1.1c-0.1,0.6-0.1,1.1-0.2,1.5c0,0.4-0.2,0.9-0.4,1.5l-0.3,0.8c0.6,0.3,1.1,0.6,1.6,0.8
				c0.5,0.3,1,0.6,1.6,0.9c0.7,0.4,1.3,0.8,1.9,1.1c0.6,0.3,1.2,0.7,1.8,1.1c0.4,0.3,0.8,0.5,1.1,0.8c0.3,0.3,0.7,0.6,1.1,0.9
				c0.4,0.3,0.6,0.8,0.6,1.3c0,0.2-0.1,0.4-0.3,0.7c-0.2,0.3-0.4,0.4-0.6,0.4c-0.1,0-0.3,0-0.4,0c-0.1,0-0.3-0.1-0.6-0.2
				c-0.2,0-0.6-0.2-1.1-0.6c-0.5-0.4-1.1-0.7-1.7-1c-0.9-0.5-1.7-0.9-2.3-1.3c-0.6-0.4-1.3-0.7-2.2-1.1c-0.2-0.1-0.4-0.2-0.7-0.3
				c-0.3-0.1-0.7-0.3-1.2-0.5c-0.1,0-0.2,0.2-0.3,0.5c-0.1,0.3-0.2,0.5-0.3,0.6c-0.4,0.7-0.8,1.4-1.1,2.1c-0.3,0.7-0.8,1.4-1.3,2.2
				c-0.4,0.6-0.7,1-0.9,1.4c-0.2,0.4-0.6,0.8-1,1.3c-0.3,0.4-0.7,0.6-1.1,0.6c-0.4,0-0.8-0.1-1.2-0.4c-0.4-0.2-0.7-0.6-0.8-1.1
				C183.6,204.3,183.7,203.9,184,203.5z"/>
			<path d="M203.7,191.2c1.1-0.3,2.3-0.5,3.6-0.6c1.3-0.1,2.6,0,3.7,0.2c0.4,0.1,0.8,0.3,1.2,0.4c0.4,0.2,0.9,0.4,1.3,0.6
				c0.4,0.2,0.8,0.5,1.2,0.8c0.4,0.3,0.7,0.6,0.9,1c0.3,0.5,0.5,1.1,0.6,1.9c0.1,0.7,0.1,1.4-0.1,2.1c-0.2,0.7-0.5,1.4-1,2.2
				c-0.5,0.8-1,1.5-1.4,2.1l-0.8,1.1c-0.6,0.9-1.2,1.6-1.7,2.1c-0.5,0.6-1.1,1.2-1.8,2c-0.1,0.1-0.2,0.2-0.3,0.3
				c-0.1,0.1-0.2,0.2-0.4,0.3c-0.3,0.2-0.6,0.3-1,0.2c-0.4-0.1-0.7-0.3-1-0.6l-0.4-0.4c-0.3-0.5-0.4-0.8-0.4-1.1
				c0-0.3,0.2-0.7,0.6-1.2c0.7-0.7,1.4-1.6,2.2-2.5c0.8-0.9,1.5-1.8,2.2-2.7c0.3-0.4,0.6-0.8,0.8-1.1c0.2-0.3,0.4-0.7,0.7-1.2
				c0.1-0.2,0.2-0.5,0.3-0.8c0.1-0.3,0.2-0.6,0.2-0.8c0-0.2-0.1-0.4-0.2-0.5c-0.1-0.1-0.3-0.3-0.4-0.4c-0.3-0.2-0.8-0.4-1.5-0.6
				c-0.3-0.1-0.7-0.1-1.2-0.1c-0.5,0-0.9,0-1.4,0c-0.5,0-0.9,0.1-1.4,0.1c-0.4,0.1-0.8,0.2-1.2,0.2c-0.4,0.1-0.7,0.2-1,0.2
				c-0.3,0-0.6,0-0.8-0.2c-0.3-0.1-0.5-0.4-0.6-0.8c-0.1-0.4-0.2-0.8-0.3-1.3c-0.1-0.4,0-0.7,0.2-0.8
				C203.5,191.3,203.7,191.3,203.7,191.2z M233.1,192.9c0.8,0.1,1.4,0.4,1.8,0.8c0.1,0.2,0.3,0.4,0.4,0.6c0.1,0.2,0.2,0.4,0.1,0.6
				c0,0.3-0.1,0.6-0.3,0.7c-0.2,0.1-0.4,0.2-0.7,0.4c-0.1,0.1-0.4,0.1-0.7,0.2l-0.7,0.1c-0.9,0.2-1.8,0.4-2.4,0.5
				c-0.7,0.1-1.5,0.3-2.5,0.4c-0.3,0.1-0.6,0.1-0.9,0.2c-0.3,0-0.5,0.1-0.6,0.2c-0.1,0.1-0.1,0.3,0,0.7l0.2,1c0,0.3,0.1,0.6,0.1,0.9
				c0,0.3,0.1,0.5,0.1,0.8l0.2,1.4c0.1,0.4,0.1,0.9,0.2,1.4c0.1,0.5,0.1,1,0.2,1.6c0.1,0.8,0.2,1.6,0.2,2.4c0,0.8,0.1,1.6,0.1,2.4
				c0,0.5-0.1,0.9-0.2,1.2c-0.3,0.7-0.8,1-1.5,0.9c-0.2,0-0.4-0.1-0.7-0.2s-0.5-0.2-0.6-0.4c-0.3-0.3-0.4-0.6-0.4-0.9
				c0-0.3,0-0.8,0-1.3l0-1.4c0-0.2,0-0.5,0-0.9c0-0.4-0.1-0.9-0.1-1.3c0-0.5-0.1-0.9-0.1-1.3c0-0.4-0.1-0.7-0.1-0.9
				c-0.1-0.8-0.2-1.5-0.3-2c0-0.5-0.2-1.2-0.3-2c-0.3-1.6-0.7-3.2-1-4.8c-0.4-1.5-0.8-3.1-1.4-4.6l-0.9-2.6
				c-0.1-0.1-0.2-0.4-0.3-0.7c-0.1-0.3-0.3-0.7-0.4-1c-0.2-0.4-0.3-0.7-0.5-1c-0.1-0.3-0.2-0.5-0.3-0.6c-0.2-0.5-0.5-1-0.7-1.6
				c-0.2-0.6-0.1-1,0.3-1.3c0.1-0.1,0.4-0.2,0.7-0.2c0.3-0.1,0.6,0,0.9,0c0.4,0.2,0.8,0.5,1.2,0.9s0.7,1,1,1.6
				c0.4,0.9,0.8,1.7,1.1,2.5c0.3,0.8,0.6,1.7,1,2.6c0.3,0.7,0.5,1.4,0.7,2.1c0.2,0.7,0.4,1.4,0.6,2.1c0.1,0.4,0.2,0.6,0.3,0.7
				c0.1,0.1,0.3,0.1,0.6,0.1l0.6-0.1c0.3,0,0.5-0.1,0.7-0.2c1.1-0.3,2.1-0.4,2.8-0.5C231.2,193.1,232.1,193,233.1,192.9z"/>
			<path d="M250.4,179.8c1,0.1,1.7,0.3,2.2,0.5c0.5,0.2,0.9,0.3,1.3,0.5c1,0.6,1.7,1.3,2.3,2.1c0.6,0.8,1,1.7,1.4,2.6
				c0.4,1,0.4,2,0.1,3c-0.3,1-0.9,1.9-1.8,2.5c-0.8,0.5-1.5,0.9-2.1,1.1c-0.7,0.2-1.4,0.5-2.1,0.8c-0.6,0.2-1.2,0.3-1.8,0.4
				c-0.6,0.1-1.2,0.1-1.9,0c-1.1-0.2-2-0.6-2.5-1.2s-0.9-1.2-1.2-2c-0.6-1.5-0.6-2.9,0-4.4c0.1-0.3,0.2-0.6,0.4-1
				c0.2-0.4,0.4-0.8,0.6-1.3c0.2-0.4,0.4-0.9,0.7-1.3c0.2-0.4,0.5-0.8,0.7-1c0.2-0.4,0.5-0.7,0.9-0.9c0.4-0.2,0.7-0.3,1.1-0.4
				c0.4-0.1,0.7-0.1,1-0.2C250.1,179.7,250.3,179.7,250.4,179.8z M263.7,205.3c-0.4,0.8-0.9,1.6-1.4,2.3c-0.5,0.8-1,1.4-1.6,2.1
				c-0.3,0.4-0.7,0.7-1.2,0.9c-0.5,0-1-0.1-1.3-0.3c-0.3-0.2-0.5-0.5-0.7-0.8c-0.2-0.5-0.2-0.9-0.1-1.1c0.2-0.2,0.4-0.5,0.7-0.9
				c0.4-0.4,0.7-0.8,0.9-1.1c0.2-0.3,0.5-0.7,0.7-1.1c-0.6-0.1-1.2-0.1-1.8-0.2c-0.6-0.1-1.1-0.2-1.3-0.2c-0.3,0-0.6,0-0.9-0.1
				l-0.7-0.2c-0.2,0.3-0.4,0.7-0.6,1c-0.2,0.3-0.4,0.7-0.5,1c-0.1,0.3-0.3,0.5-0.3,0.7c-0.1,0.2-0.2,0.4-0.3,0.6
				c-0.1,0.2-0.2,0.4-0.3,0.6c-0.1,0.2-0.3,0.5-0.4,0.8c0,0.1-0.1,0.2-0.2,0.4l-0.2,0.3c-0.2,0.3-0.4,0.4-0.7,0.5
				c-0.3,0-0.6,0-0.8,0c-0.3-0.1-0.5-0.2-0.8-0.3c-0.2-0.1-0.4-0.3-0.4-0.4c-0.2-0.4-0.3-0.7-0.2-1c0.1-0.3,0.2-0.6,0.3-0.8
				c0.2-0.4,0.4-0.7,0.6-1c0.2-0.3,0.3-0.6,0.5-0.8c0.1-0.3,0.3-0.5,0.5-0.8c0.2-0.3,0.3-0.6,0.5-1c0.7-1.4,1.3-2.7,1.8-3.9
				c0.5-1.3,0.9-2.5,1.4-3.8c0.1-0.2,0.2-0.4,0.4-0.6c0.2-0.1,0.4-0.2,0.6-0.1c0.2,0.1,0.5,0.2,0.8,0.4c0.3,0.1,0.5,0.3,0.7,0.6
				c0.1,0.1,0.2,0.3,0.3,0.6c0,0.3,0,0.5-0.1,0.8c-0.1,0.4-0.2,0.8-0.4,1.3c-0.2,0.5-0.3,1-0.5,1.4l-0.3,0.8c0.3,0.2,0.6,0.3,1,0.4
				l1.1,0.2c0.3,0.1,0.8,0.1,1.4,0.1c0.6,0,1.1,0.1,1.7,0.2c0.3-0.6,0.5-1.1,0.8-1.7c0.3-0.6,0.5-1.2,0.8-1.8c0,0,0.1-0.2,0.2-0.6
				c0.1-0.4,0.3-0.8,0.4-1.2c0.1-0.4,0.3-0.9,0.4-1.3c0.1-0.4,0.2-0.7,0.2-0.8c0.1-0.3,0.3-0.6,0.5-0.7c0.3-0.2,0.6-0.1,1.1,0.1
				c0.3,0.2,0.6,0.4,0.8,0.7c0.2,0.3,0.4,0.6,0.6,1c-0.2,0.8-0.5,1.8-0.9,2.8c-0.4,1.1-0.7,2-1,2.8c-0.2,0.6-0.5,1.2-0.9,1.9
				C264.3,204.4,264,204.9,263.7,205.3z M248.5,184.9c-0.3,0.5-0.6,1.1-0.7,1.6c-0.1,0.5-0.3,1.1-0.5,1.7c0,0.3,0,0.6,0,1
				c0.1,0.4,0.2,0.6,0.4,0.7c0.1,0.2,0.3,0.3,0.6,0.3c0.3,0.1,0.5,0.1,0.7,0c1.1-0.3,2-0.5,2.6-0.8c0.6-0.3,1.2-0.6,1.8-0.9
				c0.4-0.3,0.8-0.6,1.1-1c0.2-0.4,0.3-1,0.1-1.7c-0.2-0.7-0.5-1.3-0.9-1.6c-0.2-0.2-0.5-0.4-0.9-0.6c-0.4-0.3-0.8-0.4-1.2-0.5
				c-0.2,0-0.5-0.1-0.7-0.1c-0.2,0-0.5,0-0.7,0.1c-0.4,0.1-0.7,0.4-1,0.7C248.9,184.2,248.6,184.5,248.5,184.9z M263.2,181
				c-0.1-0.2-0.2-0.6-0.3-1c-0.1-0.5-0.3-1-0.4-1.5c-0.2-0.5-0.3-1-0.4-1.4c-0.1-0.4-0.3-0.7-0.4-0.9c-0.2-0.5-0.4-1-0.7-1.5
				c-0.3-0.5-0.3-1-0.2-1.3c0.1-0.3,0.4-0.5,0.8-0.6c0.4-0.1,0.7-0.1,0.9,0c0.4,0.2,0.8,0.5,1.1,0.9c0.3,0.4,0.6,0.9,0.9,1.3
				c0.3,0.7,0.7,1.5,0.9,2.3c0.3,0.8,0.5,1.6,0.7,2.4c0.2,0.8,0.4,1.5,0.5,2.2c0.1,0.7,0.3,1.4,0.5,2.2c0.1,0.4,0.2,0.7,0.3,1.1
				c0.1,0.4,0.1,0.7,0.2,1.1l0.3,1.7c0,0.2,0.1,0.4,0.1,0.6c0,0.2,0.1,0.6,0.1,1.1c0.1,0.4,0.1,0.8,0,1.3c0,0.4-0.1,0.8-0.3,1.1
				c-0.1,0.2-0.2,0.3-0.4,0.4c-0.2,0.1-0.4,0.2-0.7,0.2c-0.3,0-0.5,0.1-0.7,0c-0.2,0-0.4-0.1-0.5-0.2c-0.1-0.1-0.2-0.1-0.2-0.2
				c-0.1-0.1-0.1-0.2-0.2-0.3c-0.1-0.1-0.2-0.5-0.2-1c0-0.5-0.1-0.8-0.1-0.9l-0.9-5.5c0-0.1-0.1-0.3-0.2-0.7
				c-0.1-0.3-0.2-0.7-0.3-1.1c-0.1-0.4-0.2-0.8-0.3-1.1C263.2,181.3,263.2,181.1,263.2,181z M265.8,203c0.1-0.5,0.4-0.8,0.7-0.8
				c0.4,0,0.6,0,0.7,0c0.4,0.2,0.8,0.3,1.1,0.4c0.3,0.1,0.6,0.2,0.9,0.3s0.6,0.2,0.9,0.3c0.3,0.1,0.7,0.2,1.1,0.4
				c0.6,0.2,1.2,0.3,1.7,0.4c0.6,0.1,1.1,0.2,1.7,0.3c1.1,0.2,1.7,0.8,1.7,1.8c-0.1,0.1-0.1,0.3-0.2,0.5c-0.1,0.2-0.1,0.3-0.2,0.3
				c-0.4,0.2-0.7,0.3-1,0.3c-0.4,0-0.7,0-0.9,0c-0.2,0-0.5,0-0.7-0.1c-0.2,0-0.4-0.1-0.7-0.1c-0.2-0.1-0.5-0.1-0.9-0.2
				c-0.5-0.1-0.9-0.2-1.2-0.3c-0.3-0.1-0.6-0.2-0.9-0.2c-0.3-0.1-0.6-0.2-0.9-0.3c-0.3-0.1-0.7-0.2-1.1-0.4
				c-0.3-0.1-0.6-0.2-0.9-0.4c-0.3-0.1-0.5-0.3-0.6-0.4c-0.1-0.1-0.2-0.2-0.5-0.6C265.4,204,265.5,203.6,265.8,203z"/>
			<path d="M274.9,183.9c0.2,0.7,0.4,1.3,0.6,1.8c0.1,0.5,0.3,1.1,0.3,1.8l0.4,3.1c0.1,0.8,0.3,1.4,0.6,1.5c0.3,0.2,0.8,0.1,1.5-0.1
				c0.3-0.1,0.7-0.3,1.2-0.4c0.5-0.2,1-0.3,1.6-0.5c0.5-0.1,1.1-0.3,1.7-0.6c0.7-0.2,1.5-0.5,2.3-0.9c0.2-0.1,0.4-0.2,0.6-0.2
				c0.2-0.1,0.4-0.1,0.6-0.2c0.4-0.1,0.7-0.1,1,0c0.3,0.2,0.5,0.3,0.8,0.5c0.2,0.2,0.4,0.4,0.5,0.9c0.1,0.4,0.1,0.7-0.1,0.9
				c-0.1,0.1-0.3,0.2-0.4,0.3c-0.1,0.1-0.2,0.2-0.4,0.2c-0.5,0.3-1,0.5-1.5,0.7c-0.5,0.2-1,0.4-1.5,0.6c-0.5,0.2-1.1,0.4-1.6,0.6
				c-0.6,0.2-1.2,0.5-2,0.8c-0.5,0.2-1.1,0.4-1.8,0.6c-0.7,0.2-1.2,0.3-1.8,0.4c-0.6,0-1.2-0.1-1.8-0.2c-0.6-0.2-1.1-0.4-1.5-0.8
				c-0.4-0.4-0.7-1-0.9-1.7c-0.3-0.7-0.4-1.4-0.5-2c-0.1-0.8-0.1-1.5-0.2-2c0-0.5-0.1-1.2-0.2-2l-0.2-1.3c-0.1-0.7-0.2-1.2-0.3-1.4
				l-1-0.1c-0.1,0-0.3,0-0.5-0.1c-0.2,0-0.4-0.1-0.5-0.1c-0.2-0.1-0.5-0.2-0.7-0.4c-0.2-0.2-0.3-0.3-0.4-0.4
				c-0.1-0.2-0.2-0.3-0.2-0.3c0,0,0-0.2-0.1-0.4c-0.1-0.2-0.1-0.5,0-0.9c0.1-0.4,0.3-0.5,0.8-0.5c0.7,0.1,1.3,0.1,1.7,0.1
				c0.4,0,0.9-0.1,1.5-0.2l4.1-0.7c0.4-0.1,0.8-0.1,1.2-0.2s0.8-0.2,1.2-0.3c0.8-0.2,1.6-0.3,2.4-0.4c0.4-0.1,0.8,0.1,1.3,0.5
				c0.5,0.4,0.8,0.9,0.8,1.3c0,0.2,0,0.3-0.1,0.4c0,0.1-0.1,0.2-0.3,0.3c-0.3,0.1-0.5,0.2-0.8,0.2c-0.2,0-0.5,0.1-0.8,0.2l-6.3,1.4
				l-0.3,0.1C275,183.9,274.9,183.9,274.9,183.9z M292.8,182.1c0.1,0,0.3,0,0.5,0l0.5-0.1c0.7,0,1.3-0.1,1.8-0.2
				c0.4-0.1,1-0.1,1.8-0.1c0.8,0,1.5,0.1,2.1,0.3c0.3,0.1,0.6,0.3,0.9,0.4c0.3,0.2,0.5,0.3,0.6,0.4c0.2,0.3,0.3,0.6,0.2,1
				c-0.1,0.4-0.3,0.7-0.7,0.9c-0.2,0.1-0.4,0.1-0.7,0.1c-0.6,0-1.1,0-1.6,0.1c-0.5,0-1,0.1-1.5,0.1l-1.4,0.2c-0.3,0-0.5,0.1-0.8,0.1
				c-0.3,0-0.6,0.1-0.9,0.2l0.6,3.9c0.1,0.7,0.2,1.4,0.3,2c0.1,0.6,0.2,1.4,0.3,2.2c0.1,0.8,0.2,1.7,0.3,2.6
				c0.1,0.9,0.2,1.8,0.2,2.6c0,0.2,0,0.4,0,0.6c0,0.2,0,0.4-0.1,0.5c-0.2,0.6-0.7,0.9-1.3,0.9c-0.2,0-0.4-0.1-0.7-0.2
				c-0.3-0.1-0.5-0.2-0.7-0.4c-0.3-0.3-0.4-0.6-0.5-0.9c0-0.3-0.1-0.8-0.1-1.3l-0.2-2.3c0-0.2,0-0.5,0-0.8c0-0.3,0-0.7-0.1-1.1
				c0-0.4-0.1-0.7-0.1-1.1s-0.1-0.6-0.1-0.8l-0.3-1.7c0-0.3-0.1-0.5-0.1-0.7c-0.1-0.2-0.1-0.6-0.2-1c-0.3-1.6-0.7-3.2-1-4.8
				c-0.3-1.5-0.7-3.1-1.2-4.6l-1.4-5c-0.2-0.5-0.3-1-0.5-1.6c-0.2-0.6-0.1-1,0.3-1.3c0.1-0.1,0.4-0.2,0.6-0.2c0.3,0,0.6,0,0.8,0
				c0.4,0.2,0.8,0.5,1.1,1c0.3,0.5,0.6,1,0.8,1.6c0.2,0.4,0.3,0.8,0.4,1.1c0.1,0.3,0.2,0.6,0.3,0.9c0.1,0.3,0.1,0.6,0.2,0.9
				c0.1,0.3,0.2,0.7,0.3,1.1c0.2,0.7,0.4,1.4,0.6,2C292.4,180.7,292.6,181.3,292.8,182.1z"/>
			<path d="M321.9,174.6c-0.2-0.7-0.3-1.3-0.4-1.8s-0.3-1.1-0.5-1.8c0-0.1-0.1-0.3-0.2-0.5c-0.1-0.2-0.2-0.5-0.3-0.8
				c-0.1-0.3-0.2-0.6-0.3-0.8c-0.1-0.2-0.2-0.4-0.3-0.5c-0.3-0.5-0.5-1-0.5-1.5c-0.1-0.5,0.2-0.9,0.8-1.3c0.5-0.1,0.9-0.1,1.2,0.1
				c0.4,0.2,0.7,0.5,0.9,0.9c0.2,0.2,0.4,0.6,0.6,1c0.2,0.4,0.4,0.9,0.5,1.4c0.2,0.5,0.3,1,0.5,1.5c0.2,0.5,0.3,0.9,0.4,1.2
				c0.2,0.8,0.4,1.5,0.5,2.1c0.1,0.6,0.3,1.3,0.5,2.1c0.2,0.7,0.3,1.2,0.3,1.8c0,0.5,0.1,1.1,0.2,1.8c0.1,0.8,0.2,1.4,0.3,1.8
				c0,0.3,0.1,0.7,0.1,1.2l0.2,1.3c0,0.3,0.1,0.6,0.1,1c0,0.4,0.1,0.9,0.1,1.4c0,0.5,0,1,0.1,1.4c0,0.5,0,0.8,0,1.1
				c0,0.3,0,0.5,0,0.8c0,0.3-0.1,0.5-0.3,0.6c-0.1,0.1-0.3,0.2-0.5,0.2c-0.2,0.1-0.5,0.1-0.7,0.1c-0.3,0-0.6-0.1-0.9-0.3
				c-0.3-0.1-0.4-0.5-0.5-1c-0.1-0.6-0.2-1.3-0.2-2.1c0-0.8,0-1.4-0.1-2c-0.1-0.4-0.1-0.8-0.1-1.1c0-0.3,0-0.5-0.1-0.7
				c0-0.2,0-0.4,0-0.5c0-0.2,0-0.4-0.1-0.6c-0.2,0-0.4,0-0.7,0.1c-0.2,0.1-0.5,0.1-0.7,0.2c-1,0.3-2,0.6-2.8,0.8
				c-0.8,0.2-1.7,0.5-2.8,0.8c-0.3,0.1-0.7,0.2-1.1,0.3c-0.4,0.1-0.8,0.1-1.2,0.1c0,0.3,0,0.5,0,0.8c0,0.2,0,0.5,0,0.7
				c0,0.5-0.2,0.9-0.5,1.1c-0.4,0.2-0.7,0.4-1,0.5c-1.1,0.4-2.3,0.8-3.5,1.2c-1.2,0.4-2.2,0.7-3,1c-1.1,0.4-2.1,0.2-2.9-0.6
				c-0.2-0.3-0.5-0.7-0.7-1.4s-0.4-1.3-0.6-2.1c-0.2-0.7-0.4-1.4-0.5-2.1s-0.3-1.2-0.4-1.6l-0.3-0.9c-0.2-0.6-0.4-1.2-0.5-1.8
				c-0.2-0.6-0.4-1.1-0.6-1.3c-0.2-0.3-0.4-0.7-0.7-1.2c-0.3-0.5-0.5-0.9-0.6-1.2c-0.1-0.2-0.1-0.3-0.2-0.5s-0.1-0.3,0-0.5
				c0.2-0.4,0.4-0.6,0.7-0.6c0.3,0,0.6,0,0.9,0c0.1,0.1,0.3,0.2,0.5,0.3c0.2,0.2,0.5,0.4,0.9,0.8c0.2,0.3,0.5,0.6,0.7,0.9
				c0.2,0.3,0.5,0.7,0.8,1.2c0.3,0.5,0.5,1,0.8,1.7c0.2,0.7,0.5,1.3,0.7,1.9c0.1,0.2,0.2,0.6,0.3,1s0.2,1,0.3,1.4
				c0.1,0.5,0.2,1,0.3,1.4c0.1,0.5,0.2,0.8,0.3,0.9c0.1,0.2,0.2,0.5,0.3,0.6c0.1,0.2,0.4,0.2,0.8,0.1c0.8-0.2,1.7-0.4,2.6-0.7
				c0.9-0.3,1.7-0.5,2.4-0.8c0.1-0.7,0.1-1.3,0.1-1.8c0-0.5,0-0.9,0-1.1c0-0.3,0-0.6,0-1.1c0-0.4,0-0.9-0.1-1.3
				c0-0.4-0.1-0.8-0.1-1.2c0-0.4,0-0.6,0-0.8c0-0.3-0.1-0.7-0.3-1c-0.2-0.3-0.4-0.5-0.8-0.5c-0.9-0.3-1.6-0.4-2.1-0.3
				c-0.5,0.1-1,0.1-1.6,0.2l-2.4,0.7c-0.4,0.1-0.7,0-0.9-0.3c-0.3-0.3-0.4-0.5-0.5-0.7c-0.2-0.4-0.3-0.7-0.3-0.9
				c0.1-0.3,0.1-0.5,0.1-0.7c0.6-0.4,1.2-0.7,2-0.9c0.7-0.2,1.4-0.3,2.1-0.4c0.5-0.1,1-0.1,1.6,0c0.6,0.1,1.1,0.2,1.5,0.3
				c0.7,0.1,1.3,0.3,1.9,0.6c0.6,0.3,1.1,0.6,1.5,0.9l0.5,0.6l1.2-0.4c0.5-0.2,1.1-0.3,1.9-0.4c0.8-0.1,1.4-0.2,2-0.2
				c0.4,0,0.7,0,1,0.1c0.3,0,0.6,0.2,1,0.4c0.3,0.2,0.5,0.5,0.7,0.7c0.3,0.5,0.3,0.8,0.1,1.1c-0.2,0.3-0.5,0.5-0.9,0.5
				c-0.5,0-0.9,0.1-1.3,0.1c-0.4,0-0.8,0.1-1.2,0.2c-0.7,0.1-1.3,0.2-1.9,0.4c-0.6,0.1-1.2,0.3-1.7,0.5l0,3.1l0.2-0.1
				c0.3,0,0.4-0.1,0.5-0.1c1.2-0.3,2.2-0.5,3-0.8c0.8-0.2,1.8-0.5,3-0.8l2-0.5l-0.4-2.4c-0.1-0.4-0.1-0.8-0.2-1.1
				C322.1,175.3,322,174.9,321.9,174.6z M316.5,189.8c0.2,0,0.4,0.1,0.6,0.4c0.2,0.2,0.4,0.5,0.6,0.8c0.2,0.3,0.4,0.7,0.5,1
				c0.2,0.4,0.2,0.6,0.3,0.9c0.1,0.4,0.3,0.9,0.4,1.3c0.1,0.4,0.3,0.8,0.5,1.3c0.1,0.3,0.2,0.5,0.3,0.6c0.1,0.1,0.3,0.2,0.7,0.2
				c0.1,0,0.5,0,1.1-0.1l1.7-0.3c0.6-0.1,1.2-0.2,1.7-0.3c0.5-0.1,0.9-0.2,1.1-0.2c1.2-0.3,2.1-0.3,2.6,0c0.2,0.1,0.3,0.3,0.5,0.5
				c0.1,0.3,0.2,0.5,0.3,0.7c0.1,0.3,0.1,0.6,0.1,0.8c0,0.2-0.2,0.4-0.5,0.7c-0.2,0.1-0.7,0.3-1.5,0.5c-0.8,0.2-1.6,0.4-2.4,0.5
				l-0.9,0.1c-0.3,0-0.6,0.1-1.1,0.1c-0.4,0.1-0.9,0.1-1.4,0.2c-0.5,0.1-0.9,0.1-1.4,0.1c-0.4,0-0.8,0-1,0c-0.8-0.1-1.3-0.4-1.6-0.9
				c-0.3-0.5-0.6-1-0.9-1.7c-0.3-0.6-0.5-1.2-0.7-1.8c-0.2-0.6-0.3-1.2-0.5-2c-0.1-0.3-0.1-0.5-0.2-0.7c-0.1-0.2-0.1-0.4-0.1-0.5
				l-0.2-1.2c0-0.2,0.1-0.3,0.2-0.5C315.6,190,316,189.9,316.5,189.8z"/>
		</g>
		<g class="st3">
			<path d="M171.4,262.9c0.4-0.1,0.9-0.3,1.3-0.4c0.4-0.1,0.8-0.2,1.2-0.3c0-0.6,0.1-1.3,0.1-1.9c0-0.6,0-1.2-0.1-1.7
				c-0.1-0.3-0.1-0.8-0.2-1.3c-0.1-0.5-0.1-0.9,0-1.3c0-0.2,0.2-0.4,0.6-0.6c0.4-0.2,0.8-0.2,1.2-0.1c0.5,0.1,0.8,0.3,0.9,0.6
				c0.1,0.3,0.3,0.6,0.4,1c0.1,0.2,0.2,0.5,0.3,0.9c0.1,0.4,0.1,0.7,0.2,0.9c0,0.2,0,0.6,0.1,1.2c0.1,0.6,0.1,1.1,0.1,1.7
				c0.8-0.1,1.7-0.3,2.7-0.4c1-0.1,2-0.3,3.1-0.4c0.5-0.1,1.1-0.1,1.7-0.1c0.6,0,1.2,0.1,1.6,0.2c0.5,0.2,0.8,0.4,1,0.6
				c0.1,0.2,0.3,0.5,0.4,0.9c0.1,0.2,0,0.5-0.1,0.7c-0.2,0.3-0.4,0.4-0.6,0.4c-0.6,0.2-1,0.3-1.3,0.3c-0.3,0-0.7,0-1.2,0.1
				c-0.5,0.1-1.2,0.2-2.1,0.3c-0.9,0.1-1.7,0.2-2.5,0.3l-1.3,0.2c-0.8,0.2-1.6,0.3-2.4,0.5c-0.8,0.1-1.6,0.3-2.4,0.5
				c-0.4,0.1-0.8,0.3-1.3,0.4c-0.5,0.2-1,0.3-1.6,0.5c-0.5,0.2-1.1,0.3-1.6,0.5c-0.5,0.2-0.9,0.3-1.3,0.4l-2.7,1
				c-0.4,0.2-0.7,0.2-1,0c-0.3-0.2-0.6-0.5-0.8-0.8c-0.2-0.3-0.3-0.6-0.4-0.8c-0.1-0.3-0.1-0.5,0-0.7c0.1-0.2,0.3-0.4,0.4-0.5
				l0.6-0.3c1-0.3,2.2-0.7,3.5-1.2C169.2,263.5,170.4,263.2,171.4,262.9z M173.6,251.5c-0.1,0.4-0.4,1-0.7,1.7
				c-0.3,0.7-0.6,1.3-0.9,1.7c-0.2,0.4-0.4,0.8-0.6,1.1c-0.2,0.3-0.4,0.6-0.5,0.8c-0.2,0.3-0.4,0.5-0.6,0.8c-0.2,0.3-0.4,0.6-0.7,1
				c-0.1,0.1-0.2,0.3-0.4,0.6c-0.2,0.3-0.4,0.4-0.5,0.5c-0.4,0.5-0.9,0.7-1.3,0.6c-0.5-0.1-0.9-0.3-1.2-0.6
				c-0.5-0.6-0.7-1.2-0.3-1.8c0.1-0.2,0.2-0.4,0.3-0.5c0.1-0.1,0.3-0.3,0.4-0.5c0.7-0.9,1.5-1.9,2.2-3c0.7-1.1,1.2-2,1.5-2.8
				c0.4-0.9,0.5-1.8,0.6-2.8c-0.1-0.6-0.4-0.9-1-0.8c-0.7,0-1.5,0.2-2.4,0.5c-0.9,0.3-1.6,0.7-2.2,1.1c-0.6,0.5-1.2,0.5-1.7-0.1
				c-0.4-0.4-0.6-0.7-0.9-1.2c-0.1-0.2-0.1-0.5,0-0.8c0.1-0.3,0.3-0.6,0.5-0.7c0.9-0.7,2-1.2,3.3-1.5c1.3-0.4,2.6-0.4,3.7-0.1
				c0.8,0.2,1.6,0.5,2.2,0.9c0.6,0.4,1.2,1,1.6,1.8c0.3,0.7,0.3,1.4,0.2,2.1C174,250.1,173.8,250.8,173.6,251.5z M169.9,273.4
				c0.5-0.2,1.3-0.3,2.1-0.6c0.9-0.2,1.8-0.4,2.8-0.7c0.3-0.8,0.5-1.5,0.6-2.1c0.1-0.6,0.2-1.4,0.2-2.3c0-0.4,0.2-0.8,0.6-1.1
				c0.4-0.3,0.9-0.4,1.4-0.3c0.3,0.1,0.7,0.2,0.9,0.6c0.3,0.3,0.4,0.6,0.3,0.9c0,0.8,0,1.4,0,2c0,0.6,0,1.1-0.1,1.6
				c0.1,0,0.3-0.1,0.4-0.1c0.1,0,0.2-0.1,0.2-0.1c0.5-0.1,1.1-0.2,1.8-0.3c0.7-0.1,1.3-0.2,1.8-0.3c0.5-0.2,1-0.1,1.4,0
				c0.4,0.2,0.8,0.4,1.1,0.8c0.2,0.2,0.3,0.3,0.4,0.4c0.1,0.1,0.1,0.3,0.1,0.5c0.1,0.4-0.1,0.7-0.4,0.8c-0.1,0.1-0.2,0.1-0.4,0.1
				l-0.5,0.1c-1.4,0.2-3,0.4-4.6,0.8c-1.6,0.4-3.1,0.7-4.6,1.1l-3.3,0.9l-1,0.2c-0.2,0-0.5,0-0.8-0.2c-0.3-0.2-0.6-0.5-0.7-0.8
				c-0.2-0.4-0.2-0.7-0.3-1.1C169.2,273.8,169.4,273.5,169.9,273.4z M181,285.6c-0.3,0-0.5,0-0.7,0.1c-0.2,0-0.5,0-0.8,0
				c-1-0.1-1.8-0.4-2.5-0.9c-0.7-0.5-1.3-1.2-1.7-2.1c-0.3-0.6-0.5-1.2-0.6-1.8c-0.2-0.7-0.2-1.3,0-1.8c0.2-0.5,0.4-1,0.7-1.5
				c0.2-0.2,0.4-0.3,0.5-0.4c0.3-0.2,0.6-0.3,1-0.4c0.3-0.1,0.7-0.2,1-0.3c1.2-0.3,2.3-0.3,3.6,0.2c1.2,0.5,2.2,1.2,2.9,2.1
				c0.4,0.6,0.6,1.3,0.7,2c0.1,0.7,0.1,1.5,0,2.2c-0.2,0.7-0.6,1.2-1.2,1.6c-0.4,0.3-0.9,0.5-1.3,0.6
				C182,285.4,181.5,285.5,181,285.6z M182.1,279.9c0-0.1-0.1-0.2-0.3-0.3c-0.1-0.2-0.3-0.3-0.4-0.3c-0.6-0.2-1.1-0.3-1.6-0.3
				c-0.5,0.1-1,0.2-1.4,0.5c-0.3,0.2-0.5,0.4-0.6,0.7c-0.1,0.3-0.1,0.6-0.1,0.9c0,0.2,0,0.4,0.1,0.6c0.1,0.3,0.2,0.5,0.4,0.7
				c0.5,0.4,1.1,0.6,1.8,0.6c0.7,0,1.3-0.3,1.9-0.8c0.3-0.2,0.4-0.6,0.4-1C182.3,280.7,182.2,280.3,182.1,279.9z M177.3,249.7
				c0.7,0.2,1.3,0.4,1.8,0.6c0.5,0.2,1.1,0.4,1.8,0.6c0.4,0.2,1,0.4,1.6,0.7c0.6,0.3,1,0.6,1.3,0.8c0.1,0.1,0.2,0.3,0.3,0.5
				c0.1,0.2,0.1,0.4,0.1,0.7c0,0.3-0.1,0.6-0.3,0.9c-0.2,0.2-0.5,0.3-0.8,0.3c-0.6-0.1-1.2-0.2-1.8-0.4c-0.7-0.2-1.3-0.4-1.8-0.6
				c-0.4-0.1-0.6-0.2-0.9-0.3c-0.2-0.1-0.4-0.2-0.6-0.2c-0.2-0.1-0.4-0.1-0.6-0.2c-0.2-0.1-0.5-0.1-0.8-0.2c-0.2,0-0.3-0.1-0.6-0.1
				c-0.2-0.1-0.4-0.2-0.6-0.3c-0.2-0.1-0.3-0.3-0.4-0.5c-0.1-0.2-0.1-0.4-0.1-0.8c0.2-0.8,0.5-1.3,0.8-1.4
				C176,249.5,176.5,249.5,177.3,249.7z"/>
			<path d="M200.4,259.9c-0.7,0.1-1.4,0.2-2.3,0.3c-0.8,0.1-1.6,0.3-2.2,0.5l-4.7,1.1l-2.8,0.8c-0.6,0.2-1,0-1.4-0.5
				c-0.2-0.4-0.5-0.8-0.6-1.2c-0.2-0.4-0.2-0.9-0.1-1.4c0.1-0.1,0.3-0.1,0.4-0.1c0.1,0,0.2-0.1,0.4-0.1l5.8-1.4
				c1.5-0.4,2.9-0.7,4.3-1c1.4-0.3,2.9-0.5,4.3-0.7l7.9-0.8c0.9-0.1,1.6,0.2,2.1,1l0.4,0.6c0.2,0.4,0.3,0.7,0.1,1.1
				c-0.2,0.3-0.4,0.5-0.8,0.6l-0.7,0.1c-0.3,0-0.5,0.1-0.7,0.1c-0.9,0-2,0.1-3.3,0.3c-1.3,0.1-2.4,0.3-3.3,0.4c-0.1,0-0.3,0-0.6,0.1
				c-0.3,0-0.6,0.1-1,0.1L200.4,259.9z M191.7,244c0.3-0.4,0.6-0.8,0.8-1.1c0.2-0.3,0.4-0.5,0.6-0.7s0.4-0.4,0.7-0.5
				c0.3-0.1,0.7-0.3,1.1-0.4c0.2-0.1,0.4-0.1,0.8-0.2s0.7-0.1,1.1-0.1c0.4,0,0.7,0,1.1,0.1c0.3,0,0.6,0.1,0.8,0.2
				c1.4,0.6,2.6,1.5,3.4,2.4c0.8,1,1.5,2.2,2,3.7c0.3,1.1,0.2,2.2-0.5,3.2c-0.7,1-1.5,1.7-2.6,2.1c-1.4,0.6-2.7,0.8-3.8,0.8
				c-1.2,0-2.3-0.1-3.2-0.4c-0.7-0.2-1.3-0.5-1.9-1c-0.6-0.5-1.1-1-1.5-1.7c-0.4-0.6-0.7-1.3-0.8-2c-0.2-0.7-0.1-1.4,0.1-2
				c0.3-0.8,0.5-1.4,0.8-1.7C190.8,244.4,191.2,244.2,191.7,244z M201.6,276.2c0.5,0.1,0.9,0.1,1.4-0.2c0.6-0.2,1.3-0.5,2-0.9
				c0.7-0.4,1.3-0.8,1.8-1.3c0.3-0.2,0.5-0.5,0.8-0.7c0.2-0.3,0.5-0.5,0.8-0.8c0.3-0.3,0.7-0.4,1.1-0.1c0.2,0.2,0.3,0.3,0.5,0.4
				c0.1,0.1,0.2,0.2,0.4,0.5c0.3,0.5,0.4,0.9,0.4,1.2c0,0.4-0.2,0.8-0.5,1.2c-0.5,0.5-1,1-1.6,1.5c-0.6,0.5-1.2,0.8-1.7,1.1
				c-0.6,0.4-1.3,0.6-2.1,0.8c-0.8,0.2-1.4,0.3-1.9,0.4c-2.5,0.2-4.2-0.8-5-3c-0.2-0.5-0.2-1-0.2-1.5c0-0.6,0.2-1,0.5-1.4
				c0.3-0.5,0.8-1,1.3-1.6c0.4-0.4,0.7-0.7,1.1-1.1c0.4-0.3,0.7-0.7,1.1-1.1l1-1.2c0.5-0.7,0.3-1.2-0.6-1.3
				c-0.6-0.1-1.1-0.1-1.7-0.1c-0.2,0-0.3,0-0.4,0c-0.1,0-0.3,0-0.5,0l-1,0.2c-0.2,0-0.3,0-0.5,0c-0.1,0-0.3,0-0.5,0
				c-0.7,0-1.2,0-1.5-0.2c-0.3-0.2-0.6-0.6-0.9-1.2c-0.4-1-0.1-1.6,0.9-1.8c0.9-0.2,1.9-0.4,2.8-0.5c0.9-0.1,1.9,0,2.8,0.2
				c1.8,0.4,3.1,1.3,4,2.8c0.4,0.6,0.6,1.2,0.6,1.9c0,0.7-0.2,1.3-0.6,1.9c-0.4,0.5-0.8,0.9-1.1,1.4c-0.4,0.5-0.8,0.9-1.3,1.3
				c-0.1,0-0.2,0.2-0.4,0.3c-0.2,0.2-0.4,0.4-0.6,0.6c-0.2,0.2-0.4,0.4-0.6,0.6c-0.2,0.2-0.3,0.3-0.3,0.4c-0.2,0.2-0.2,0.4-0.2,0.7
				C201.2,276,201.4,276.1,201.6,276.2z M194,245.4c-0.4,0.4-0.6,0.7-0.7,1.1c-0.1,0.4-0.2,0.7-0.3,1c0,0.1,0,0.3,0,0.5
				c0,0.2,0,0.4,0.1,0.6c0.1,0.2,0.1,0.4,0.2,0.6c0.1,0.2,0.2,0.4,0.4,0.4c0.4,0.3,0.9,0.5,1.4,0.6c0.5,0.1,1.1,0.1,1.7,0.1
				c0.6-0.1,1.1-0.2,1.7-0.3c0.6-0.2,1-0.4,1.4-0.6c0.1-0.1,0.2-0.2,0.4-0.4c0.2-0.2,0.3-0.4,0.3-0.5c0.1-0.2,0.2-0.5,0.2-0.8
				c0-0.3,0-0.6-0.1-0.9c-0.1-0.4-0.4-0.8-0.7-1.3c-0.4-0.5-0.7-0.8-1.1-1c-0.2-0.1-0.4-0.2-0.6-0.3c-0.2-0.1-0.4-0.1-0.6-0.2
				c-0.7-0.1-1.4,0-2.1,0.2C194.9,244.6,194.3,244.9,194,245.4z"/>
			<path d="M217.8,249.4c-0.3,0.9-0.4,2-0.3,3.1c0,1.2,0.2,2.1,0.3,2.8c0.2,0.8,0.4,1.3,0.7,1.6c0.3,0.3,0.8,0.4,1.6,0.2
				c1-0.2,1.9-0.4,2.8-0.6c0.9-0.2,2-0.6,3.1-1.1c0.4-0.1,0.8-0.2,1.2-0.2c0.4,0,0.7,0.2,1,0.7c0.2,0.5,0.3,0.9,0.2,1.3
				c-0.1,0.4-0.3,0.6-0.6,0.8c-0.9,0.4-1.7,0.8-2.3,1.1c-0.7,0.3-1.3,0.5-1.9,0.7c-0.6,0.2-1.1,0.3-1.7,0.4s-1.2,0.2-1.8,0.3
				c-1.3,0.2-2.3,0-3.3-0.4c-0.9-0.4-1.6-1.3-1.9-2.4c-0.2-0.6-0.4-1.3-0.5-1.9c-0.1-0.7-0.2-1.3-0.3-2c-0.1-0.7-0.1-1.3-0.1-1.8
				c0-0.6,0.1-1.1,0.2-1.4c-0.4,0.1-0.7,0.1-1,0.1c-0.2,0-0.5,0-0.9,0c-0.7-0.1-1.2-0.3-1.7-0.5c-0.5-0.3-0.8-0.7-1-1.5
				c0-0.3,0-0.7,0.1-1.1c0.1-0.5,0.3-0.6,0.6-0.5c0.3,0.1,0.8,0.1,1.3,0.2s1,0,1.4,0l1.5-0.2c0.3,0,0.6-0.1,0.8-0.2
				c0.3-0.1,0.5-0.1,0.8-0.2c0.7-0.1,1.3-0.3,1.9-0.4c0.6-0.1,1.1-0.3,1.7-0.4c0.5-0.1,1.1-0.3,1.7-0.4c0.6-0.1,1.2-0.3,1.9-0.5
				c0.4-0.1,0.6-0.2,0.8-0.2c0.1,0,0.4,0,0.7,0.2c0.3,0.2,0.6,0.4,0.9,0.8c0.2,0.4,0.5,0.7,0.6,1.1c-0.1,0.4-0.3,0.7-0.6,0.8
				c-0.3,0.1-0.6,0.2-0.9,0.4c-1,0.3-2.2,0.6-3.4,0.9C220.1,248.9,218.9,249.1,217.8,249.4z M210.1,240.2c0.7,0.2,1.3,0.3,1.9,0.2
				c0.6,0,1.2-0.1,1.8-0.2l1.3-0.2c0.4-0.1,0.8-0.1,1.2-0.2c0.4-0.1,0.7-0.1,1.1-0.2l1.4-0.2c0.9-0.1,1.8-0.2,2.7-0.3
				c0.5,0,1,0.1,1.3,0.5c0.4,0.3,0.7,0.7,1,1.1c0.1,0.2,0.2,0.4,0.1,0.7c-0.1,0.2-0.2,0.4-0.4,0.5c-0.3,0.2-0.7,0.3-1,0.3
				c-0.5,0.1-1,0.2-1.4,0.3c-0.4,0.1-0.8,0.2-1.2,0.2c-0.4,0.1-0.8,0.2-1.2,0.2c-0.4,0.1-0.9,0.1-1.4,0.2c-0.8,0.1-1.7,0.3-2.6,0.4
				c-0.9,0.2-1.7,0.2-2.6,0.2c-0.2,0-0.3,0-0.5,0c-0.2,0-0.3,0-0.5-0.1c-0.4-0.1-0.6-0.2-0.9-0.4c-0.3-0.4-0.5-0.8-0.8-1.2
				c-0.2-0.4-0.3-0.9-0.3-1.4C209.3,240.3,209.6,240.1,210.1,240.2z M235.6,258.8c0,0.3-0.1,0.5-0.2,0.8c-0.1,0.3-0.3,0.5-0.6,0.5
				c-0.6,0.1-1.1,0.1-1.4-0.1c-0.3-0.2-0.6-0.5-0.7-0.9c0-0.1-0.1-0.3-0.1-0.7c0-0.4-0.1-0.6-0.1-0.6c0-0.7-0.1-1.6-0.3-2.8
				c-0.2-1.2-0.4-2.4-0.6-3.7l-3.4,0.9c-0.3,0.1-0.6,0.2-0.9,0.3c-0.3,0.1-0.6,0.2-0.9,0.3c-0.4,0.1-0.7,0.2-1,0.2
				c-0.3,0-0.5-0.2-0.8-0.6c-0.5-0.6-0.7-1.4-0.6-2.3c0.6-0.3,1.3-0.6,1.9-0.8c0.7-0.2,1.3-0.4,2-0.6l2.9-0.9
				c-0.2-0.9-0.4-1.8-0.5-2.5c-0.2-0.8-0.3-1.4-0.4-1.9l-0.9-2.5c-0.1-0.4-0.3-0.7-0.3-0.9c-0.1-0.2-0.1-0.5-0.1-0.9
				c0-0.1,0-0.3,0.2-0.5c0.1-0.2,0.3-0.3,0.6-0.4c0.2-0.1,0.5-0.1,0.7-0.1c0.2,0,0.5,0.1,0.7,0.2c0.3,0.2,0.5,0.6,0.8,1
				c0.2,0.5,0.4,0.9,0.6,1.2c0.3,0.8,0.6,1.8,0.9,2.9c0.3,1.1,0.6,2.3,0.9,3.5c0.3,1.2,0.5,2.5,0.8,3.7c0.2,1.2,0.4,2.3,0.5,3.3
				C235.4,255.6,235.5,257.2,235.6,258.8z M229.6,261c0.3,0,0.7,0.2,1.1,0.7c0.4,0.4,0.7,0.9,0.9,1.4c0.1,0.3,0.3,0.6,0.5,0.9
				c0.2,0.3,0.3,0.6,0.4,0.8c0.2,0.4,0.4,0.8,0.5,1.1c0.1,0.3,0.3,0.6,0.6,1c0.3,0.4,0.8,0.6,1.4,0.6c0.4,0,0.9-0.1,1.5-0.2
				c0.6-0.1,1.2-0.3,1.9-0.5c0.6-0.2,1.2-0.4,1.8-0.6c0.6-0.2,1-0.3,1.3-0.5c0.9-0.4,1.7-0.4,2.6,0.1c0.2,0.1,0.3,0.3,0.4,0.5
				c0.1,0.2,0.2,0.5,0.3,0.6c0.1,0.2,0.1,0.5,0,0.7c-0.1,0.3-0.2,0.5-0.3,0.6c-0.1,0.2-0.3,0.3-0.6,0.4c-0.7,0.4-1.5,0.7-2.5,1
				c-1,0.3-1.8,0.5-2.5,0.7c-0.5,0.1-1.2,0.2-2,0.4c-0.8,0.1-1.5,0.2-2,0.1c-1-0.1-1.8-0.3-2.4-0.8c-0.6-0.4-1.2-1-1.6-1.7
				c-0.4-0.6-0.7-1.1-0.9-1.5c-0.2-0.4-0.4-1-0.7-1.7c-0.1-0.4-0.3-0.7-0.4-0.9c-0.1-0.3-0.2-0.6-0.3-0.9c-0.1-0.2-0.1-0.4-0.1-0.6
				c0-0.2,0-0.4-0.1-0.7c0-0.2,0.1-0.4,0.1-0.6c0.1-0.1,0.2-0.2,0.3-0.3C229.1,261,229.3,261,229.6,261z M234.2,236.2
				c-0.2-0.4-0.3-0.9-0.5-1.4c-0.2-0.6-0.1-1,0.3-1.3c0.2-0.2,0.5-0.3,0.9-0.4c0.4-0.1,0.7,0,0.9,0.1c0.3,0.2,0.7,0.6,0.9,1.1
				c0.3,0.5,0.5,0.9,0.8,1.4c0.2,0.3,0.3,0.8,0.5,1.4c0.2,0.6,0.4,1.2,0.6,1.9c0.2,0.7,0.3,1.4,0.5,2c0.1,0.7,0.3,1.3,0.3,1.8
				c0.3,1.5,0.7,3.2,1,4.9c0.3,1.7,0.6,3.4,0.9,5c0,0.3,0.1,0.7,0.1,1.1c0.1,0.4,0.1,0.9,0.2,1.4c0.1,0.5,0.1,1,0.1,1.4
				c0,0.4,0.1,0.8,0.1,1.1c0,0.4,0,0.7,0.1,1.1c0,0.3,0,0.7,0,1c-0.1,0.2-0.1,0.4-0.2,0.6c-0.1,0.2-0.2,0.3-0.4,0.4
				c-0.3,0.1-0.6,0.1-1,0.1c-0.4,0-0.7-0.2-0.9-0.4c-0.4-0.5-0.6-1-0.5-1.6c0-0.7-0.1-1.6-0.3-2.7c-0.1-1-0.2-1.9-0.3-2.7
				c-0.1-1.3-0.4-2.8-0.7-4.4c-0.3-1.7-0.7-3.3-1-5c-0.3-1.4-0.6-2.8-1-4.3C235.1,238.5,234.7,237.2,234.2,236.2z"/>
			<path d="M242.8,241.2c0.6,0,1.2-0.1,1.8-0.2c0.6-0.1,1.2-0.2,1.8-0.3c0.8-0.1,1.6-0.3,2.4-0.5s1.6-0.4,2.5-0.6
				c0.4-0.1,0.7-0.1,1-0.1c0.2,0.1,0.5,0.2,0.7,0.4c0.5,0.3,0.8,0.7,0.9,1c0.3,0.7,0.1,1.1-0.7,1.4c-0.3,0.1-0.7,0.3-1.2,0.4
				c-0.5,0.2-1,0.3-1.5,0.4c-0.5,0.1-1,0.3-1.5,0.4c-0.5,0.1-1,0.2-1.4,0.3l-0.9,0.1c-0.1,0.1-0.1,0.2-0.1,0.4c0,0.1,0,0.2-0.1,0.3
				c-0.1,0.5-0.2,1-0.2,1.6c0,0.6,0,1.2,0.1,1.8c0,0.6,0.1,1.2,0.2,1.8c0.1,0.6,0.2,1.1,0.2,1.6c0.1,0.4,0.1,0.7,0.3,0.9
				c0.1,0.2,0.3,0.3,0.6,0.4c0.5,0,1,0,1.4,0c0.4,0,0.9-0.1,1.4-0.2c0.9-0.2,1.6-0.4,2.3-0.7c0.7-0.3,1.4-0.6,2.2-0.9l1.7-0.8
				c0.1-0.1,0.3-0.1,0.5-0.1c0.2,0,0.4,0,0.6,0c0.2,0.1,0.5,0.3,0.8,0.6c0.3,0.3,0.5,0.7,0.6,1.1c0,0.3-0.1,0.6-0.3,0.8
				c-0.7,0.6-1.4,1-2.3,1.4c-0.8,0.4-1.7,0.8-2.4,1.1c-0.6,0.2-1.2,0.4-1.9,0.6c-0.6,0.2-1.3,0.3-2,0.5c-0.6,0.1-1.2,0.1-1.9,0.2
				c-0.7,0.1-1.3,0-1.9-0.2c-0.8-0.3-1.5-0.9-2-2c-0.2-0.5-0.4-1-0.5-1.7c-0.2-0.7-0.3-1.3-0.5-2c-0.1-0.7-0.2-1.4-0.3-2.1
				c-0.1-0.7-0.1-1.2,0-1.7l0-1.9c-0.3,0-0.6,0-0.9,0c-0.3,0-0.6,0-0.9-0.1c-0.4-0.1-0.7-0.3-1-0.6c-0.2-0.3-0.3-0.5-0.3-0.8
				c0-0.3,0-0.6,0.1-1c0.1-0.3,0.2-0.5,0.5-0.5c0.2,0,0.4,0,0.7,0C242,241.2,242.4,241.2,242.8,241.2z M260.8,246.2
				c-0.9,0.2-1.6,0.4-2.3,0.7c-0.6,0.3-1.4,0.5-2.2,0.7l-2.3,0.8c-0.9,0.2-1.6,0-1.9-0.7c-0.2-0.3-0.3-0.5-0.4-0.6
				c-0.1-0.2-0.2-0.4-0.3-0.7c-0.1-0.4,0.1-0.8,0.5-1c0.4-0.1,0.7-0.3,1-0.4c0.3-0.1,0.7-0.2,1-0.4l6.3-1.8c-0.2-0.7-0.4-1.3-0.6-2
				c-0.2-0.7-0.4-1.3-0.5-1.7c-0.1-0.5-0.2-0.9-0.3-1.4c-0.1-0.5-0.1-0.9-0.1-1.4c0-0.3,0.2-0.5,0.5-0.6c0.3-0.1,0.6-0.2,0.7-0.1
				l0.4,0.2c0.2,0.1,0.3,0.1,0.4,0.2c0.5,0.5,0.8,1,1,1.5c0.2,0.5,0.4,1.1,0.7,1.8c0.2,0.7,0.5,1.5,0.7,2.3c0.2,0.8,0.4,1.6,0.6,2.3
				c0.2,1.2,0.5,2.3,0.7,3.4c0.2,1,0.4,2.2,0.5,3.5c0,0.5,0.1,1.1,0.2,1.8c0.1,0.7,0.2,1.3,0.2,1.8c0,0.8-0.2,1.3-0.6,1.6
				c-0.2,0.2-0.6,0.3-1,0.3c-0.4,0-0.7-0.1-0.9-0.4c-0.3-0.3-0.4-0.6-0.5-0.9c-0.1-0.4-0.1-0.7-0.2-1c0-0.4-0.1-0.9-0.2-1.3
				c-0.1-0.5-0.2-1-0.2-1.5l-0.5-2.9c0-0.1-0.1-0.3-0.1-0.7c-0.1-0.4-0.2-0.8-0.3-1.3L260.8,246.2z M264.2,230.3
				c0.3-0.2,0.6-0.3,1-0.3c0.4,0,0.6,0.1,0.7,0.1c0.5,0.3,0.9,0.7,1.2,1.2c0.2,0.5,0.5,1,0.7,1.6c0.3,0.7,0.5,1.4,0.7,2
				c0.2,0.6,0.4,1.3,0.6,2c0.2,1.1,0.5,2,0.6,2.8c0.2,0.8,0.4,1.6,0.5,2.4c0.2,0.8,0.3,1.5,0.4,2.3s0.3,1.5,0.4,2.3l0.5,3.3
				c0.1,0.4,0.1,1,0.2,1.6c0.1,0.6,0.1,1.3,0.2,2c0.1,0.7,0.1,1.3,0.1,2c0,0.6,0.1,1.2,0.1,1.6c0,0.3,0,0.5,0,0.8
				c0,0.3-0.1,0.5-0.1,0.8c-0.1,0.4-0.3,0.6-0.8,0.7c-0.5,0.1-0.8,0.1-1.2-0.1c-0.3-0.1-0.5-0.3-0.7-0.5c-0.2-0.2-0.4-0.6-0.4-1.1
				c-0.1-0.9-0.1-1.8-0.2-2.8c-0.1-1-0.2-2-0.3-2.8c-0.1-1-0.2-1.8-0.3-2.5c-0.1-0.7-0.2-1.3-0.3-2l-0.7-4.5c-0.2-1.5-0.5-2.9-0.8-4
				c-0.3-1.1-0.7-2.5-1.1-3.9c-0.1-0.7-0.4-1.3-0.6-1.9c-0.2-0.5-0.4-1.1-0.5-1.7C263.9,231,264,230.5,264.2,230.3z"/>
			<path d="M282,244.7c0.1,0.9,0,1.7-0.6,2.4c-0.5,0.7-1.2,1.1-2.1,1.2c-0.9,0.1-1.7,0-2.4-0.5c-0.7-0.5-1.1-1.2-1.3-2.1
				c-0.1-0.9,0-1.7,0.6-2.4c0.5-0.7,1.2-1.2,2.1-1.3c0.9-0.1,1.7,0.1,2.4,0.6C281.5,243.1,281.9,243.8,282,244.7z M299.1,242
				c0.1,0.9,0,1.7-0.6,2.4c-0.5,0.7-1.2,1.1-2.1,1.2c-0.9,0.1-1.7,0-2.4-0.5c-0.7-0.5-1.1-1.2-1.3-2.1c-0.1-0.9,0-1.7,0.6-2.4
				c0.5-0.7,1.2-1.2,2.1-1.3c0.9-0.1,1.7,0.1,2.4,0.6C298.6,240.4,299,241.1,299.1,242z M316.2,239.2c0.1,0.9,0,1.7-0.6,2.4
				c-0.5,0.7-1.2,1.1-2.1,1.2c-0.9,0.1-1.7,0-2.4-0.5c-0.7-0.5-1.1-1.2-1.3-2.1c-0.1-0.9,0-1.7,0.5-2.5c0.5-0.7,1.2-1.2,2.1-1.3
				c0.9-0.1,1.7,0.1,2.4,0.6S316.1,238.4,316.2,239.2z"/>
		</g>
	</g>
	<g id="img-sponge-2">
		<path id="패스_12236" d="M1636.3,336.7C1636.3,336.7,1636.3,336.7,1636.3,336.7l-0.3-0.1c-0.3-0.1-0.6-0.2-0.8-0.3l-41-11
			c-43.8-11.8-106.2-28.5-106.8-28.6c-14.2-3.8-28.8,4.6-32.6,18.8l0,0l0,0c-0.5,1.7-12.6,46.8-21.5,80.1L1424,430
			c-0.1,0.3-0.2,0.6-0.2,1l0,0.1c-2.2,10.8,4.4,21.4,15,24.1l-0.7,2.5l0,0c-0.3,1-0.5,2-0.7,3c0,0.2-0.1,0.4-0.1,0.6
			c-0.2,0.8-0.4,1.7-0.5,2.5c0,0.1-0.1,0.3-0.1,0.4c-3.4,18.2-0.5,37,8.2,53.3c0.1,0.2,0.2,0.3,0.2,0.4c0.3,0.6,0.6,1.2,1,1.7
			c0.3,0.6,0.7,1.2,1,1.7l0.2,0.3c5.5,9.1,12.6,17,21.1,23.3c0.2,0.2,0.4,0.3,0.7,0.5c17,12.6,38.4,18.1,59.4,15.3
			c33-4.3,60.2-28.2,68.8-60.3l0.7-2.5c11.1,3,22.5-3.6,25.5-14.7c0,0,0,0,0,0l30.6-114.1C1657.6,355.2,1649.9,341,1636.3,336.7z"/>
		<g id="그룹_163" transform="matrix(0.966, 0.259, -0.259, 0.966, 1454.312, 276.995)">
			<g id="그룹_150" transform="translate(0 0)">
				<path id="패스_12212" class="st4" d="M185.5,168.1c0,33.3-20.1,63.4-50.9,76.1c-53.9,22.4-113.8-17.3-113.8-76.1v-54
					c0-22,17.9-39.9,39.9-39.9c0,0,0,0,0,0h84.8c22,0,39.9,17.9,39.9,39.9c0,0,0,0,0,0L185.5,168.1z"/>
				<path id="패스_12213" class="st5" d="M206.3,26.6v118.1c0,11.5-9.3,20.8-20.8,20.8c0,0,0,0,0,0v-51.4
					c0-22-17.9-39.9-39.9-39.9c0,0,0,0,0,0H60.7c-22,0-39.9,17.9-39.9,39.9c0,0,0,0,0,0v51.4C9.5,165.7,0.2,156.6,0,145.3
					c0-0.1,0-0.1,0-0.2L0,26.6C0,11.9,11.9,0,26.6,0l153,0C194.4,0,206.3,11.9,206.3,26.6z"/>
				<path id="패스_12214" class="st6" d="M84.5,221.3c13.5,8.5,2.9,29.2-12,23.3c-31.3-12.5-51.8-42.8-51.8-76.5v-54
					c0-8.1,2.4-16,7-22.6c3.1-4.5,9.2-5.6,13.7-2.6c2.8,1.9,4.4,5.1,4.3,8.5v54C45.6,179.9,60.3,206.4,84.5,221.3z"/>
				<path id="패스_12215" class="st7" d="M180,25c-18.7,0-51.1,0-107.1,0c-26.5,0-48,21.5-48,48v21.2c0,1.4-0.3,2.8-0.8,4.1
					c-2.2,5-3.3,10.5-3.3,15.9v31.2c0,13.4-20.1,14.1-20.8,0.8c0-0.8,0-120.3,0-119.5C0,11.9,11.9,0,26.6,0c1,0,153.3,0,154.2,0
					C196.9,0.7,196.1,25,180,25z"/>
			</g>
			<path id="패스_12216" class="st8" d="M126.7,110.1c1.3-2,3-3.6,5.1-4.7c2.1-1.1,4.3-1.9,6.6-2.3c2.3-0.4,4.7-0.3,7,0.1
				c1.1,0.2,2.3,0.5,3.4,0.8s2.2,0.6,3.3,1c4.3,1.6,8.2,4.1,11.3,7.5c3.1,3.2,5.2,7.3,6.1,11.6c0,0.1-0.1,0.3-0.2,0.3
				c-0.1,0-0.2,0-0.3-0.1c-0.8-2-1.8-3.8-3-5.5c-1.2-1.7-2.7-3.2-4.3-4.5c-1.6-1.3-3.3-2.4-5.1-3.3c-1.8-0.9-3.7-1.6-5.7-2
				c-1.9-0.5-3.9-0.7-5.9-0.7c-2,0-3.9,0-5.9,0.1c-2,0-3.9,0.2-5.9,0.5c-2.1,0.4-4.1,0.9-6.1,1.6c-0.1,0-0.3,0-0.4-0.2c0,0,0,0,0,0
				C126.7,110.3,126.7,110.2,126.7,110.1z"/>
			<path id="패스_12217" class="st8" d="M79.7,110.5c-3.8-1.4-7.9-2.1-11.9-2.1c-1.9,0-3.9,0-5.9,0c-2,0-4,0.2-5.9,0.7
				c-1.9,0.5-3.8,1.2-5.6,2.1c-1.8,0.9-3.5,2-5.1,3.3c-1.6,1.3-3.1,2.8-4.3,4.4c-1.2,1.7-2.3,3.5-3.1,5.5c-0.1,0.1-0.2,0.2-0.4,0.1
				c-0.1-0.1-0.2-0.2-0.1-0.3c0.9-4.4,3-8.4,6.1-11.7c1.5-1.7,3.3-3.1,5.2-4.4c1.9-1.2,4-2.3,6.1-3.1c2.2-0.8,4.4-1.4,6.6-1.8
				c2.3-0.4,4.7-0.4,7-0.1c2.3,0.4,4.6,1.1,6.6,2.3c2.1,1.1,3.8,2.7,5.1,4.7c0.1,0.1,0,0.3-0.1,0.4
				C79.9,110.6,79.8,110.6,79.7,110.5z"/>
			<path id="패스_12218" class="st9" d="M95.4,181.7c0.4-2.4,1.5-6.9,7.5-6.9s7.1,4.5,7.5,6.9c0.1,0.8-2.6,3.2-7.5,3.2
				S95.3,182.5,95.4,181.7z"/>
			<g id="그룹_151" transform="translate(122.761 136.683)">
				<path id="패스_12219" class="st0" d="M0.3,23.4C-1.5,13,5.4,3.1,15.8,1.3c0,0,0,0,0,0l3.9-0.7C28.8-1,38.7,4,40.3,13
					c0,0-0.4,6.7-9.7,8.3L7.1,25.5C0.9,26.6,0.3,23.4,0.3,23.4z"/>
				<path id="패스_12220" class="st9" d="M0.3,23.4C-1,15.7,2.4,7.9,9,3.7c2.2-1.4,4.6-2.3,7.1-2.7l3.7-0.7
					c3.8-0.7,7.7-0.2,11.3,1.3c2.4,1,4.5,2.5,6.2,4.5c1.7,2,2.9,4.4,3.3,6.9l0,0v0c-0.3,2-1.2,3.8-2.6,5.2c-1.4,1.3-3.1,2.3-5,2.8
					c-0.9,0.3-1.9,0.5-2.8,0.6l-2.8,0.5l-5.6,0.9l-11.2,1.9l-2.8,0.5C6.9,25.6,6,25.7,5,25.8c-0.9,0-1.9-0.1-2.8-0.4
					C1.3,25,0.6,24.3,0.3,23.4z M0.3,23.4c0.3,0.9,1,1.6,1.9,1.9c0.9,0.3,1.8,0.4,2.8,0.4c0.9-0.1,1.9-0.2,2.8-0.4l2.8-0.5l11.1-2.1
					l5.6-1c1.9-0.3,3.7-0.7,5.5-1.2c1.8-0.5,3.4-1.5,4.7-2.8c1.3-1.3,2.2-2.9,2.4-4.7v0.1c-0.5-2.4-1.5-4.7-3.2-6.6
					c-1.6-1.9-3.7-3.3-6-4.3c-2.3-1-4.7-1.5-7.2-1.6c-2.5,0-5,0.3-7.5,0.8C5.8,3-1.3,12.6,0.2,22.9C0.3,23.1,0.3,23.2,0.3,23.4
					L0.3,23.4z"/>
			</g>
			<g id="그룹_153" transform="translate(122.776 136.974)">
				<g>
					<defs>
						<path id="SVGID_1_" d="M0.3,23.1C-1.5,12.7,5.4,2.8,15.8,1c0,0,0,0,0,0l3.9-0.7c9-1.6,19,3.4,20.6,12.5c0,0-0.4,6.7-9.7,8.3
							L7,25.2C0.9,26.3,0.3,23.1,0.3,23.1z"/>
					</defs>
					<clipPath id="SVGID_2_">
						<use xlink:href="#SVGID_1_"  style="overflow:visible;"/>
					</clipPath>
					<g id="그룹_152" class="st10">
						
							<ellipse id="타원_115" transform="matrix(-0.9659 0.259 -0.259 -0.9659 35.7545 22.018)" class="st11" cx="16.4" cy="13.4" rx="12.3" ry="12.3"/>
						
							<ellipse id="타원_116" transform="matrix(-0.9659 0.259 -0.259 -0.9659 30.7244 20.7726)" cx="14" cy="12.4" rx="7.9" ry="7.9"/>
						
							<ellipse id="타원_117" transform="matrix(-0.9659 0.259 -0.259 -0.9659 20.0979 15.2424)" class="st0" cx="9" cy="8.9" rx="3.6" ry="3.6"/>
					</g>
				</g>
			</g>
			<path id="패스_12222" class="st12" d="M122.8,158.6c-0.6-2.5-0.6-5-0.1-7.5c0.6-2.5,1.7-4.8,3.3-6.8c1.7-2,3.7-3.6,6-4.8
				c2.3-1.2,4.7-2,7.2-2.4c1.2-0.2,2.4-0.5,3.7-0.6c3.8-0.6,7.8,0,11.3,1.6c2.4,1.1,4.5,2.6,6.1,4.6c1.7,2,2.8,4.4,3.2,7l0,0.1v0
				c-0.2,1.2-0.6,2.4-1.3,3.4c-0.7,1-1.5,1.9-2.5,2.5c-1.9,1.3-4.2,2.1-6.5,2.4c2.2-0.4,4.3-1.4,6.1-2.8c0.9-0.7,1.6-1.6,2.1-2.5
				c0.5-0.9,0.9-2,1-3l0,0.1c-0.5-2.4-1.6-4.5-3.1-6.3c-1.6-1.8-3.6-3.2-5.8-4.1c-2.2-1-4.6-1.5-7-1.6c-1.2,0-2.4,0-3.6,0.2
				l-3.7,0.6c-2.4,0.4-4.7,1.1-6.9,2.2c-2.2,1.1-4.1,2.5-5.7,4.3c-1.6,1.8-2.8,3.9-3.5,6.2C122.7,153.7,122.5,156.1,122.8,158.6z"/>
			<g id="그룹_154" transform="translate(42.936 136.962)">
				<path id="패스_12223" class="st0" d="M40.4,23.4C42.2,13,35.3,3.1,24.9,1.3c0,0,0,0,0,0l-3.9-0.7C11.9-1,1.9,4,0.4,13
					c0,0,0.4,6.7,9.7,8.3l23.5,4.1C39.8,26.6,40.4,23.4,40.4,23.4z"/>
				<path id="패스_12224" class="st9" d="M40.4,23.4C42.2,13.1,35.3,3.3,25,1.5c-0.2,0-0.3-0.1-0.5-0.1c-2.5-0.5-4.9-0.8-7.5-0.8
					c-2.5,0.1-4.9,0.6-7.2,1.6c-2.3,1-4.3,2.4-6,4.3c-1.6,1.9-2.7,4.1-3.2,6.6V13c0.2,1.8,1.1,3.5,2.4,4.7c1.3,1.3,3,2.2,4.7,2.8
					c1.8,0.5,3.6,0.9,5.5,1.2l5.6,1L30,24.8l2.8,0.5c0.9,0.2,1.9,0.3,2.8,0.4c0.9,0,1.9-0.1,2.8-0.4C39.3,25,40,24.3,40.4,23.4z
					 M40.4,23.4c-0.3,0.9-1,1.6-1.9,1.9c-0.9,0.3-1.8,0.5-2.8,0.4c-0.9,0-1.9-0.2-2.8-0.3L30,24.9l-11.2-1.9l-5.6-0.9l-2.8-0.5
					c-0.9-0.1-1.9-0.3-2.8-0.6c-1.9-0.5-3.6-1.5-5-2.8C1.2,16.8,0.3,15,0,13l0,0l0,0C0.5,10.4,1.6,8,3.3,6C5,4.1,7.2,2.6,9.6,1.6
					C11.9,0.6,14.5,0,17,0c1.3,0,2.6,0.1,3.8,0.3L24.6,1c2.5,0.4,4.9,1.4,7.1,2.7C38.3,7.9,41.7,15.7,40.4,23.4L40.4,23.4z"/>
			</g>
			<g id="그룹_156" transform="translate(43.295 137.252)">
				<g>
					<defs>
						<path id="SVGID_3_" d="M40,23.1C41.8,12.7,34.9,2.8,24.5,1c0,0,0,0,0,0l-3.9-0.7c-9-1.6-19,3.4-20.6,12.5c0,0,0.4,6.7,9.7,8.3
							l23.5,4.1C39.4,26.3,40,23.1,40,23.1z"/>
					</defs>
					<clipPath id="SVGID_4_">
						<use xlink:href="#SVGID_3_"  style="overflow:visible;"/>
					</clipPath>
					<g id="그룹_155" class="st13">
						
							<ellipse id="타원_118" transform="matrix(-0.9659 0.259 -0.259 -0.9659 50.3731 20.0942)" class="st11" cx="23.9" cy="13.4" rx="12.3" ry="12.3"/>
						
							<ellipse id="타원_119" transform="matrix(-0.9659 0.259 -0.259 -0.9659 46.0722 17.2028)" cx="21.9" cy="11.6" rx="7.9" ry="7.9"/>
						
							<ellipse id="타원_120" transform="matrix(-0.9659 0.259 -0.259 -0.9659 37.9787 8.371)" class="st0" cx="18.4" cy="6.7" rx="3.6" ry="3.6"/>
					</g>
				</g>
			</g>
			<path id="패스_12226" class="st12" d="M83.6,158.9c0.3-2.4,0.1-4.9-0.6-7.3c-0.7-2.3-1.9-4.5-3.5-6.2c-1.6-1.8-3.6-3.2-5.7-4.3
				c-2.2-1.1-4.5-1.8-6.9-2.2l-3.7-0.6c-1.2-0.2-2.4-0.2-3.6-0.2c-2.4,0.1-4.8,0.6-7,1.6c-2.2,0.9-4.2,2.4-5.8,4.1
				c-1.6,1.8-2.7,4-3.2,6.3l0-0.1c0.1,1.1,0.4,2.1,1,3c0.6,1,1.3,1.8,2.1,2.5c1.8,1.4,3.9,2.4,6.1,2.8c-2.3-0.2-4.5-1-6.5-2.4
				c-1-0.7-1.8-1.6-2.5-2.5c-0.7-1-1.1-2.2-1.3-3.4v0l0-0.1c0.4-2.6,1.5-5,3.2-7c1.7-2,3.8-3.5,6.1-4.6c3.5-1.6,7.5-2.2,11.3-1.6
				c1.3,0.2,2.5,0.4,3.7,0.6c2.5,0.4,5,1.3,7.2,2.4c2.3,1.2,4.3,2.8,6,4.8c1.6,2,2.8,4.3,3.3,6.8C84.2,153.9,84.1,156.4,83.6,158.9z
				"/>
			<path id="패스_12227" class="st14" d="M118.8,201.4c-4.9,0-10.4-2.9-15.8-2.8c-6,0.1-10.8,3-17.4,3c-5,0.1-9.9,0.5-13.7-1.1
				c6.9,5.2,6.6,23.3,31.2,23.3c24.7,0,24.1-18.4,31.2-23.4C130.3,202.1,124.5,201.6,118.8,201.4z"/>
			<path id="패스_12228" class="st15" d="M124.7,215.2c-0.5,0.5-1.9,2.8-21.6,2.8s-21-2.1-21.5-2.8c0,0,2.8,6.9,5,7.7
				c5.3,2,10.9,3.1,16.6,3.2c6.2,0,12.2-1.3,17.8-3.8C122.3,221.6,124.7,215.2,124.7,215.2z"/>
			<path id="패스_12229" class="st16" d="M69.8,199.4c12.9,5.4,2.8,31.6,33.4,31.6s21.2-27.6,33.4-31.6
				c-9.6,2.6-6.5,24.4-33.4,24.4S79.2,202,69.8,199.4z"/>
			<path id="패스_12230" class="st17" d="M103.2,201.2c7.3,0,23.6,3,31.8-1.1c-8.3,2.4-20.3-3.7-31.6-3.7s-23.2,6.3-32.2,3.7
				C79.9,204.5,95.8,201.2,103.2,201.2z"/>
			<g id="그룹_157" transform="translate(69.771 244.596)">
				<path id="패스_12231" class="st16" d="M66.3,0.2c0.2-0.1,0.3-0.1,0.5-0.2C66.6,0,66.4,0.1,66.3,0.2z"/>
				<path id="패스_12232" class="st16" d="M1,0.4C0.7,0.2,0.4,0.1,0,0C0.3,0.1,0.7,0.3,1,0.4z"/>
			</g>
			<g id="그룹_158" transform="translate(73.568 201.06)">
				<path id="패스_12233" class="st15" d="M29.6,0.1C22.9,0.1,9,2.9,0,0c1.4,1.8,3.2,3.6,4.8,4c8,2.1,16.3,3.1,24.5,3.2
					c8.9,0.1,17.8-1.2,26.3-3.8c0.9-0.3,2.1-1.8,3.2-3.3C50.2,2.6,36.2,0.1,29.6,0.1z"/>
			</g>
			<g id="그룹_159" transform="translate(64.542 193.892)">
				<path id="패스_12234" class="st9" d="M69,0.3c1.3-0.4,2.7-0.3,3.9,0.2c0.3,0.1,0.6,0.3,0.9,0.4l0.9,0.6
					c0.3,0.2,0.5,0.5,0.8,0.7C75.8,2.5,76,2.8,76.2,3c0.7,1.2,1.1,2.6,1,4C77.1,7.7,77,8.4,76.8,9c-0.2,0.6-0.5,1.2-0.9,1.7l-0.1,0
					L76,8.9c0-0.6,0-1.2,0-1.8c-0.1-1.2-0.5-2.3-1.1-3.3c-0.6-1-1.5-1.8-2.5-2.4c-1-0.6-2.2-0.9-3.4-1.1L69,0.3z"/>
				<path id="패스_12235" class="st9" d="M7.2,0.4c-1,0.6-2,1.2-2.9,1.9C4.1,2.5,3.9,2.7,3.7,2.8L3.2,3.3C3.1,3.5,2.9,3.7,2.7,3.9
					C2.6,4.1,2.5,4.3,2.3,4.5C2.2,4.7,2.1,4.9,2,5.1C1.9,5.2,1.9,5.3,1.8,5.4c0,0.1-0.1,0.2-0.1,0.3C1.6,6,1.5,6.2,1.4,6.5
					C1.4,6.7,1.3,7,1.2,7.2C1.1,7.5,1.1,7.8,1,8L0.8,8.9c-0.1,0.6-0.2,1.2-0.4,1.8l-0.1,0L0,8.9c0-0.6,0-1.2,0-1.8
					c0.1-1.2,0.4-2.4,1-3.5c0.7-1,1.6-1.9,2.7-2.4c1.1-0.6,2.2-0.9,3.5-1L7.2,0.4z"/>
			</g>
			<g id="그룹_160" transform="translate(142.671 167.987)">
				
					<ellipse id="타원_121" transform="matrix(-0.9659 0.259 -0.259 -0.9659 3.8781 7.9711)" class="st9" cx="1.4" cy="4.2" rx="1.4" ry="1.4"/>
				
					<ellipse id="타원_122" transform="matrix(-0.9659 0.259 -0.259 -0.9659 24.188 14.3776)" class="st9" cx="11.1" cy="8.8" rx="1.4" ry="1.4"/>
				
					<ellipse id="타원_123" transform="matrix(-0.9659 0.259 -0.259 -0.9659 39.0352 -2.3142)" class="st9" cx="19.7" cy="1.4" rx="1.4" ry="1.4"/>
				
					<ellipse id="타원_124" transform="matrix(-0.9659 0.259 -0.259 -0.9659 47.2349 16.9956)" class="st9" cx="22.5" cy="11.6" rx="1.4" ry="1.4"/>
			</g>
			<g id="그룹_161" transform="translate(40.721 167.987)">
				
					<ellipse id="타원_125" transform="matrix(-0.9659 0.259 -0.259 -0.9659 45.9837 18.6264)" class="st9" cx="21.8" cy="12.3" rx="1.4" ry="1.4"/>
				
					<ellipse id="타원_126" transform="matrix(-0.9659 0.259 -0.259 -0.9659 31.2081 0.1829)" class="st9" cx="15.6" cy="2.1" rx="1.4" ry="1.4"/>
				
					<ellipse id="타원_127" transform="matrix(-0.9659 0.259 -0.259 -0.9659 15.4003 18.1753)" class="st9" cx="6.5" cy="10.1" rx="1.4" ry="1.4"/>
				
					<ellipse id="타원_128" transform="matrix(-0.9659 0.259 -0.259 -0.9659 3.1459 2.4136)" class="st9" cx="1.4" cy="1.4" rx="1.4" ry="1.4"/>
			</g>
		</g>
	</g>
</g>
</svg>
