<svg xmlns="http://www.w3.org/2000/svg" width="56" height="56" viewBox="0 0 56 56">
    <path fill="#0964ff" d="M25.823 14.686a34.739 34.739 0 0 0 12.053 1.939 34.739 34.739 0 0 0 12.054-1.939C55.211 12.656 56 9.822 56 8.313s-.789-4.344-6.07-6.373A34.736 34.736 0 0 0 37.876 0a34.739 34.739 0 0 0-12.053 1.939c-5.282 2.03-6.07 4.864-6.07 6.373s.789 4.344 6.07 6.374zm1.564-8.662a30.792 30.792 0 0 1 10.49-1.649 30.79 30.79 0 0 1 10.489 1.649c2.469.949 3.267 1.952 3.267 2.289s-.8 1.34-3.267 2.289a30.791 30.791 0 0 1-10.49 1.648 30.791 30.791 0 0 1-10.489-1.65c-2.468-.949-3.267-1.952-3.267-2.289s.8-1.34 3.267-2.289zm28.324 43.944a2.189 2.189 0 0 1-1.1 2.889A42.237 42.237 0 0 1 37.794 56h-.7a2.187 2.187 0 0 1 .056-4.375 38.892 38.892 0 0 0 15.677-2.759 2.182 2.182 0 0 1 2.884 1.106zm0-9.734a2.189 2.189 0 0 1-1.1 2.889 38.65 38.65 0 0 1-11.943 2.915c-.07.007-.139.01-.208.01a2.188 2.188 0 0 1-.2-4.365 34.285 34.285 0 0 0 10.572-2.554 2.182 2.182 0 0 1 2.884 1.106zm0-9.844a2.189 2.189 0 0 1-1.1 2.889 38.1 38.1 0 0 1-11.245 2.844 2.187 2.187 0 0 1-.472-4.349 33.738 33.738 0 0 0 9.936-2.489 2.182 2.182 0 0 1 2.884 1.106zm-1.1-7.064a41.209 41.209 0 0 1-14.782 3.1h-.086a2.188 2.188 0 0 1-.083-4.373 36.8 36.8 0 0 0 13.171-2.727 2.187 2.187 0 0 1 1.78 4zm-36.05-4.514a18.594 18.594 0 1 0 18.56 18.594 18.6 18.6 0 0 0-18.56-18.594zm0 32.812a14.219 14.219 0 1 1 14.193-14.218 14.222 14.222 0 0 1-14.193 14.219zm6.114-10.937a5.48 5.48 0 0 1-3.6 5.13v.339a2.184 2.184 0 1 1-4.367 0v-.285a17 17 0 0 1-2.881-.854 2.187 2.187 0 0 1 1.613-4.066 11.57 11.57 0 0 0 3.725.83 1.136 1.136 0 0 0 1.146-1.094c0-.593-.7-1.094-1.529-1.094-3.548 0-6.223-2.351-6.223-5.469a5.476 5.476 0 0 1 4.141-5.308v-.16a2.184 2.184 0 1 1 4.367 0v.4a17.5 17.5 0 0 1 1.883.621 2.187 2.187 0 0 1-1.583 4.078 8.6 8.6 0 0 0-3.357-.726 1.094 1.094 0 0 0-1.092 1.094c0 .624.8 1.094 1.856 1.094a6.125 6.125 0 0 1 4.082 1.512 5.315 5.315 0 0 1 1.813 3.957z"/>
</svg>
