<svg xmlns="http://www.w3.org/2000/svg" width="56" height="56" viewBox="0 0 56 56">
    <path fill="#1db6cc" d="M28 56a19.906 19.906 0 1 1 19.906-19.906A19.929 19.929 0 0 1 28 56zm0-35.437a15.531 15.531 0 1 0 15.531 15.531A15.549 15.549 0 0 0 28 20.562zM33.992 9.27l5.595-5.438a2.188 2.188 0 0 0 .663-1.569v-.076A2.188 2.188 0 0 0 36.228 1l-5.295 5.141-.02.019a4.373 4.373 0 0 1-6.179 0L19.444.842a2.188 2.188 0 0 0-3.913 1.345v.023a2.188 2.188 0 0 0 .637 1.543l5.47 5.5a8.708 8.708 0 0 0 4.527 2.4 8.781 8.781 0 0 0 1.661.159 8.745 8.745 0 0 0 6.166-2.542zm9.22 6.5l12.14-12.029A2.188 2.188 0 0 0 52.273.634L40.132 12.665a2.188 2.188 0 0 0 3.08 3.108zm-27.33-.014a2.187 2.187 0 0 0-.014-3.094L3.727.634A2.188 2.188 0 0 0 .648 3.741l12.14 12.032a2.188 2.188 0 0 0 3.094-.014zm15.4 27.991v-13.56a4.047 4.047 0 0 0-6.129-3.47L22.5 28.309a2.187 2.187 0 1 0 2.25 3.751l2.156-1.293V43.75a2.188 2.188 0 0 0 4.375 0z"/>
</svg>
