<svg xmlns="http://www.w3.org/2000/svg" width="32" height="95.84" viewBox="0 0 32 95.84">
    <path d="M-4036.81-1084.5l-11.486-11.636a1.169 1.169 0 0 1-.336-.822 1.172 1.172 0 0 1 .336-.823 1.138 1.138 0 0 1 1.624 0l10.674 10.813 10.673-10.813a1.138 1.138 0 0 1 1.624 0 1.176 1.176 0 0 1 0 1.646l-11.485 11.636a1.142 1.142 0 0 1-.812.341 1.141 1.141 0 0 1-.812-.342zm0-14.255l-11.486-11.636a1.173 1.173 0 0 1-.336-.823 1.169 1.169 0 0 1 .336-.823 1.138 1.138 0 0 1 1.624 0l10.674 10.813 10.673-10.813a1.138 1.138 0 0 1 1.624 0 1.176 1.176 0 0 1 0 1.646l-11.485 11.636a1.142 1.142 0 0 1-.812.341 1.141 1.141 0 0 1-.812-.341zM-4052-1135.9v-12.941a16.179 16.179 0 0 1 14.5-16.179v-13.474a1.5 1.5 0 0 1 1.5-1.506 1.5 1.5 0 0 1 1.5 1.505v13.474a16.178 16.178 0 0 1 14.5 16.179v12.991a16.12 16.12 0 0 1-16 16.2 16.145 16.145 0 0 1-16-16.249zm3.009-12.941v12.941a13.132 13.132 0 0 0 12.991 13.24 13.105 13.105 0 0 0 12.99-13.19v-12.991a13.133 13.133 0 0 0-12.99-13.242 13.134 13.134 0 0 0-12.989 13.241zm11.486 2.959v-5.266a1.5 1.5 0 0 1 1.5-1.505 1.5 1.5 0 0 1 1.5 1.505v5.266a1.5 1.5 0 0 1-1.5 1.5 1.5 1.5 0 0 1-1.495-1.501z" transform="translate(4051.998 1180)"/>
</svg>
